<svg xmlns="http://www.w3.org/2000/svg" fill="none" viewBox="0 0 24 24"><path fill="currentColor" d="M2 19V5c0-1.6568 1.3432-3 3-3h6c.5523 0 1 .4477 1 1s-.4477 1-1 1H5c-.5523 0-1 .4477-1 1v14c0 .5523.4477 1 1 1h14c.5523 0 1-.4477 1-1v-6c0-.5523.4477-1 1-1s1 .4477 1 1v6c0 1.6569-1.3431 3-3 3H5c-1.6568 0-3-1.3431-3-3M23 8c0 .5523-.4477 1-1 1s-1-.4477-1-1V4.414l-8.293 8.293a.9996.9996 0 0 1-1.414 0 .9996.9996 0 0 1 0-1.414L19.5859 3H16c-.5523 0-1-.4477-1-1s.4477-1 1-1h6c.5523 0 1 .4477 1 1z"/></svg>