<svg xmlns="http://www.w3.org/2000/svg" fill="none" viewBox="0 0 24 24"><path stroke="currentColor" stroke-width="2" d="m15.1017 2.9232-1.7992 7.2867a.1.1 0 0 0 .0971.124h3.9905c.1695 0 .3344.0595.4695.1695.3416.2782.4084.8007.1491 1.1672l-8.7197 10c-.1648.233-.4315.3561-.7026.3245-.4264-.0498-.7344-.4609-.688-.9183l1.7992-7.2867a.1.1 0 0 0-.0971-.124H5.61c-.1696 0-.3345-.0595-.4695-.1695-.3416-.2782-.4084-.8007-.149-1.1672l8.7196-10c.1648-.233.4315-.3561.7026-.3245.4264.0498.7344.4609.688.9183Z"/></svg>