<svg xmlns="http://www.w3.org/2000/svg" fill="none" viewBox="0 0 24 24"><path stroke="currentColor" stroke-linecap="round" stroke-linejoin="round" stroke-width="2" d="M3.2652 7.5858 10.5 11.5m-2.5 8-4.0366-2.3707A2 2 0 0 1 3 15.4189V8.581a2 2 0 0 1 .9634-1.7103l7-4.2425a2 2 0 0 1 2.0732 0l7 4.2425c.3099.1878.5573.4524.7238.761m0 0A2 2 0 0 1 21 8.581V10m-.2396-2.3682-.1042.0479L16.5 9.7544"/><path stroke="currentColor" stroke-width="2" d="M13.8763 14.3282A1 1 0 0 1 14.617 14H21c.5523 0 1 .4477 1 1v5c0 .5523-.4477 1-1 1h-6.383a1 1 0 0 1-.7407-.3282l-2.2671-2.5a1 1 0 0 1 0-1.3436z"/></svg>