<svg xmlns="http://www.w3.org/2000/svg" fill="none" viewBox="0 0 24 24"><path stroke="currentColor" stroke-linecap="round" stroke-width="2" d="M19.7902 16.2921c-1.3654 3.2903-4.5769 5.6327-8.3644 5.7061-5.1058.099-9.3251-3.9627-9.424-9.072-.077-3.9756 2.3633-7.414 5.8555-8.791m13.4173 3.8636a9.75 9.75 0 0 1 .7245 3.1564c.0185.3159-.2396.5727-.5558.5727h-8.5926a.573.573 0 0 1-.5726-.573V2.5564c0-.3165.2566-.5748.5723-.5562a9.73 9.73 0 0 1 3.1542.725 9.74 9.74 0 0 1 3.1592 2.1123 9.74 9.74 0 0 1 2.1108 3.1613Z"/></svg>