<svg xmlns="http://www.w3.org/2000/svg" fill="none" viewBox="0 0 24 24"><path stroke="currentColor" stroke-linecap="round" stroke-linejoin="round" stroke-width="2" d="m20.4042 8.898-.3674-.2053a4 4 0 0 1-.1127-.0645 2.01 2.01 0 0 1-.6733-.665c-.017-.0275-.033-.0562-.0656-.113l-.0005-.0008c-.0323-.0563-.0488-.0849-.0639-.1132a2.024 2.024 0 0 1-.2378-.921 4 4 0 0 1 .0007-.131l.0072-.4285v0c.0115-.6858.0173-1.0297-.0787-1.3384a2.02 2.02 0 0 0-.4181-.741c-.2152-.2422-.5131-.415-1.1095-.7603l-.4954-.2867h0c-.5947-.3443-.8922-.5165-1.2079-.582a2 2 0 0 0-.8459.0073c-.3141.0708-.6079.2475-1.195.6006l-.0033.0016-.355.2135a4 4 0 0 1-.1126.0665 2 2 0 0 1-.9101.2524c-.0322.001-.0649.001-.1303.001-.0651 0-.0992 0-.1313-.001a2 2 0 0 1-.9118-.2536c-.0282-.0157-.0561-.0329-.1123-.0668l-.3572-.2154c-.5912-.3565-.8872-.535-1.203-.6062a1.996 1.996 0 0 0-.849-.0059c-.3166.0664-.6142.2399-1.2092.5868l-.0027.0012-.4892.2852-.0054.0033c-.5897.3438-.8853.5161-1.0987.7574a2.02 2.02 0 0 0-.4156.7397c-.0957.309-.0906.6537-.079 1.3427l.007.428c.0012.0647.003.097.0026.1288a2.025 2.025 0 0 1-.2392.9227c-.015.0281-.0311.0562-.0634.1123s-.048.084-.0646.1112a2.01 2.01 0 0 1-.677.6681c-.0272.0163-.056.032-.1124.0635l-.3627.2019c-.6035.3359-.9052.504-1.1247.7432a2.02 2.02 0 0 0-.4304.7361c-.1012.3091-.1011.6556-.0996 1.3487l.0013.5664c.0016.6884.0037 1.0324.1052 1.3394.0897.2715.2353.5211.4284.7315.2183.2377.517.4048 1.1159.7395l.3594.2009c.0612.0341.092.051.1215.0689.2732.1652.5033.3937.6711.666.0182.0295.0356.06.0704.1211.0343.0603.052.0904.0678.1207.1472.2798.226.5907.2313.9071.0006.0342 0 .0688-.001.1383l-.007.4106c-.0116.6914-.0167 1.0374.0797 1.3474.0852.2742.2276.5267.418.741.2152.2423.5135.415 1.11.7602l.4952.2867c.5947.3442.892.5162 1.2077.5818a2 2 0 0 0 .8461-.0069c.3146-.0709.6093-.2482 1.1981-.6023v-.0001l.355-.2135a4 4 0 0 1 .1127-.0664 1.996 1.996 0 0 1 .9097-.2528c.0322-.0011.0649-.0011.1304-.0011.0656 0 .0983 0 .1305.0011.3199.0103.6332.0972.9127.2538.0246.0137.0492.0286.0923.0546l.0003.0002.3773.2275c.5912.3566.8866.5345 1.2025.6057a2 2 0 0 0 .8493.0068c.3164-.0664.6146-.2402 1.2093-.587h0l.4966-.2895c.5901-.344.8859-.5165 1.0994-.7578a2.02 2.02 0 0 0 .4158-.7396c.0951-.3068.0893-.6489.0779-1.3279l-.0074-.4429a4 4 0 0 1-.0007-.1289 2.02 2.02 0 0 1 .2378-.9229c.0149-.028.0312-.0562.0632-.1119l.0002-.0004a4 4 0 0 1 .0657-.1112 2.01 2.01 0 0 1 .6772-.6683c.0269-.0162.0546-.0316.1095-.0622l.0003-.0001.0018-.0009.3628-.2019c.6034-.3359.9057-.5042 1.1252-.7434a2.015 2.015 0 0 0 .4302-.7358c.1006-.3072.0999-.6517.0983-1.3367v0l-.0013-.5786c-.0016-.6884-.0024-1.0323-.1038-1.3393a2.02 2.02 0 0 0-.4293-.7315c-.2181-.2375-.5172-.4047-1.1149-.7387h0z"/></svg>