<svg xmlns="http://www.w3.org/2000/svg" fill="none" viewBox="0 0 24 24"><path stroke="currentColor" stroke-linecap="round" stroke-linejoin="round" stroke-width="2" d="M4 4.667v14.667c0 .707.843 1.386 2.343 1.886M4 4.667c0 1.473 3.582 2.667 8 2.667s8-1.194 8-2.667m-16 0C4 3.194 7.582 2 12 2s8 1.194 8 2.667M20 8.5V4.667M4 12c0 .707.843 1.386 2.343 1.886 1.019.34 2.285.578 3.657.696M14.162 19.388 16.5 17.275m0 0V15m0 2.275 2.338 2.113M16.5 15c1.105 0 2-.895 2-2s-.895-2-2-2-2 .895-2 2 .895 2 2 2m-4 3.5c1.105 0 2 .895 2 2s-.895 2-2 2-2-.895-2-2 .895-2 2-2m8 0c1.105 0 2 .895 2 2s-.895 2-2 2-2-.895-2-2 .895-2 2-2"/></svg>