<svg xmlns="http://www.w3.org/2000/svg" fill="none" viewBox="0 0 24 24"><path fill="currentColor" d="M16 22v-4.2344l-3.4854 2.0918c-.4735.2841-1.0878.1307-1.372-.3428s-.1307-1.0878.3428-1.372L15.0557 16l-3.5703-2.1426c-.4735-.2842-.6269-.8985-.3428-1.372s.8985-.6269 1.372-.3428L16 14.2334V10c0-.5523.4477-1 1-1s1 .4477 1 1v4.2334l3.4854-2.0908c.4735-.2841 1.0878-.1307 1.372.3428s.1307 1.0878-.3428 1.372L18.9434 16l3.5712 2.1426c.4735.2842.6269.8985.3428 1.372s-.8985.6269-1.372.3428L18 17.7656V22c0 .5523-.4477 1-1 1s-1-.4477-1-1M12 1c2.2865 0 4.3981.3073 5.9727.832.782.2607 1.4875.594 2.0175 1.0118C20.509 3.2526 21 3.8612 21 4.667c-.0002 1.02-.7723 1.72-1.4854 2.1484-.4734.2844-1.0876.1317-1.372-.3418-.2844-.4734-.1307-1.0877.3428-1.372.2528-.152.396-.2838.4677-.375.0212-.027.031-.0483.0381-.0616-.0205-.039-.0788-.1245-.2392-.251-.2796-.2202-.7458-.4627-1.4112-.6845C16.02 3.2892 14.1316 3 12 3s-4.02.2892-5.3408.7295c-.6654.2218-1.1316.4643-1.4112.6846-.162.1277-.2203.2134-.2402.252.0194.038.0767.124.2403.2528.2795.2203.7456.4628 1.411.6846C7.98 6.0438 9.8685 6.333 12 6.333c.5677 0 1.12-.0198 1.6504-.0586.5508-.0403 1.03.373 1.0703.9238s-.374 1.03-.9248 1.0703A24.7 24.7 0 0 1 12 8.333c-2.2865 0-4.398-.3072-5.9727-.832C5.665 7.3802 5.3195 7.2427 5 7.0898v4.8907c.0086.0232.0524.1127.2363.2607.2713.2183.7348.4659 1.4229.6953.5735.1912 1.2502.3529 2.001.4746.545.0885.9153.6015.8271 1.1465-.0884.5452-.6023.9156-1.1475.8272-.833-.1351-1.6169-.319-2.3125-.5508-.366-.122-.7107-.2594-1.0273-.4111v4.8916c.0091.0241.0539.1139.2363.2607.2714.2182.735.466 1.4229.6953.5735.1912 1.2502.3519 2.001.4736.545.0885.9155.6024.8271 1.1475s-.6024.9155-1.1475.8272c-.833-.1352-1.617-.319-2.3125-.5508-.8117-.2706-1.5197-.6126-2.0449-1.0352C3.4664 20.7176 3 20.114 3 19.333V4.667l.0059-.1494c.0559-.7322.5176-1.2906 1.0039-1.6738.53-.4178 1.2355-.751 2.0175-1.0118C7.602 1.3072 9.7135 1 12 1"/></svg>