<svg xmlns="http://www.w3.org/2000/svg" fill="none" viewBox="0 0 24 24"><path fill="currentColor" d="M17 8c.4303 0 .812.2754.9482.6836.8988 2.6963 2.032 2.8861 3.252 4.1025l.206.2119A6 6 0 0 1 23 16.9854V17a6 6 0 0 1-1.7578 4.2422A6 6 0 0 1 17 23a6 6 0 0 1-4.2422-1.7578A6 6 0 0 1 11 17c0-.2774-.0077-.7383.1514-1.2158l.0634-.1494a1 1 0 0 1 .9073-.5342 1 1 0 0 1 .9394.7246c.0423.1478.1183.2837.2217.3975a1 1 0 0 0 .8252.3242 1 1 0 0 0 .4326-.1416 1 1 0 0 0 .3262-.3184.9994.9994 0 0 0 .0947-.8808 1 1 0 0 0-.25-.3809 1 1 0 0 1-.0469-.0469c-.7308-.7917-1.1077-1.6445-1.166-2.5049-.0574-.8488.202-1.6071.5703-2.2158.3662-.605.8592-1.0956 1.3399-1.4394C15.8453 8.3062 16.4324 8 17 8m-5-7c2.2865 0 4.3981.3073 5.9727.832.782.2607 1.4875.594 2.0175 1.0118C20.509 3.2526 21 3.8612 21 4.667c-.0001.8468-.5405 1.4742-1.0947 1.8877-.4427.3302-1.0692.2395-1.3994-.2031s-.2386-1.0692.2041-1.3995c.156-.1164.2348-.2086.2705-.2636.0053-.0083.0076-.0168.0107-.0225-.0201-.0387-.0777-.1246-.2392-.252-.2796-.2202-.7458-.4627-1.4112-.6845C16.02 3.2892 14.1316 3 12 3s-4.02.2892-5.3408.7295c-.6654.2218-1.1316.4643-1.4112.6846-.162.1277-.2203.2134-.2402.252.0194.038.0767.124.2403.2528.2795.2203.7456.4628 1.411.6846C7.98 6.0438 9.8685 6.333 12 6.333c.5522 0 .9998.4479 1 1 0 .5523-.4477 1-1 1-2.2865 0-4.398-.3072-5.9727-.832C5.665 7.3802 5.3195 7.2427 5 7.0898v4.8907c.0086.0232.0524.1127.2363.2607.2713.2183.7348.4659 1.4229.6953.6934.2312 1.5358.4184 2.4746.5449.5471.0739.931.5769.8574 1.1241-.0738.5473-.5777.9312-1.125.8574-1.0315-.1391-2.0002-.3494-2.8389-.6289-.366-.122-.7107-.2594-1.0273-.4111v4.8916c.0091.0241.0539.1139.2363.2607.2714.2182.735.466 1.4229.6953.6934.2312 1.5358.4174 2.4746.544.5472.0738.9312.5777.8574 1.125-.074.5471-.5778.9312-1.125.8574-1.0315-.1391-2.0002-.3494-2.8389-.6289-.8117-.2706-1.5197-.6126-2.0449-1.0352C3.4664 20.7176 3 20.114 3 19.333V4.667l.0059-.1494c.0559-.7322.5176-1.2906 1.0039-1.6738.53-.4178 1.2355-.751 2.0175-1.0118C7.602 1.3072 9.7135 1 12 1m4.4502 9.3398c-.247.1982-.4909.4572-.6699.753-.2065.3411-.3099.6951-.2862 1.0459.023.3385.1709.772.6368 1.2783.3135.3098.5557.6844.708 1.0986a3.0012 3.0012 0 0 1-.2842 2.6455 3 3 0 0 1-3.2793 1.294A3.997 3.997 0 0 0 17 21a4 4 0 0 0 2.8281-1.1719A4 4 0 0 0 21 17.0146l-.0078-.1972a4 4 0 0 0-1.1924-2.6035l-.0068-.0069c-.6899-.6898-2.235-1.4093-3.3428-3.8672"/></svg>