<svg xmlns="http://www.w3.org/2000/svg" fill="none" viewBox="0 0 24 24"><path fill="currentColor" d="M19.8262 16.7197c0-1.7159-1.3906-3.1073-3.1065-3.1074-1.716 0-3.1074 1.3914-3.1074 3.1074.0001 1.7159 1.3915 3.1065 3.1074 3.1065 1.7158-.0002 3.1063-1.3907 3.1065-3.1065M1 18.373V4.627C1 3.1707 2.1862 2 3.6367 2h6.4375c1.0072.0001 1.9235.5715 2.3653 1.4658l.081.1836.0195.0469.0137.0488.959 3.3223h6.8506c1.4503 0 2.6365 1.1699 2.6367 2.626V10c0 .5523-.4477 1-1 1s-1-.4477-1-1v-.3066c-.0002-.3405-.2799-.626-.6367-.626h-6.9912c-.74 0-1.4099-.4487-1.6875-1.1387l-.0186-.0469-.0146-.0488-.9991-3.4648A.636.636 0 0 0 10.0742 4H3.6367C3.2797 4 3 4.2863 3 4.627v13.746c0 .3407.2797.627.6367.627H9c.5523 0 1 .4477 1 1s-.4477 1-1 1H3.6367C2.1862 21 1 19.8293 1 18.373m20.8262-1.6533a5.082 5.082 0 0 1-.8584 2.834l1.7392 1.7393a.9996.9996 0 0 1 0 1.414.9996.9996 0 0 1-1.414 0l-1.7393-1.7392a5.082 5.082 0 0 1-2.834.8584c-2.8204 0-5.1073-2.286-5.1074-5.1065s2.2869-5.1074 5.1074-5.1074c2.8205.0001 5.1065 2.287 5.1065 5.1074"/></svg>