<svg xmlns="http://www.w3.org/2000/svg" fill="none" viewBox="0 0 24 24"><path fill="currentColor" fill-rule="evenodd" d="M12.0643 1.2558c-.5642 0-1.0215.4575-1.0215 1.022v1.078c-2.0892.231-3.9673 1.1623-5.3948 2.554l-.829-.683c-.4356-.3589-1.0794-.2965-1.438.1391s-.2964 1.0797.139 1.4385l.8313.6848c-.9368 1.441-1.481 3.1608-1.481 5.0078q.0001.4455.0415.8802l-1.0812.206c-.5542.1056-.918.6407-.8124 1.1951s.6405.9183 1.1947.8127l1.1175-.213c.6532 1.9828 1.9622 3.6674 3.6702 4.7969l-.5273 1.1078c-.2426.5095-.0262 1.1193.4831 1.362.5094.2426 1.119.0262 1.3616-.4833l.5025-1.0558c1.0088.3805 2.1019.5888 3.2438.5888 1.1417 0 2.2349-.2083 3.2436-.5888l.5026 1.0558c.2425.5095.8521.7259 1.3615.4833.5094-.2427.7257-.8525.4831-1.362l-.5273-1.1077c1.7015-1.1252 3.007-2.8012 3.6627-4.7739l.9966.1899c.5542.1056 1.0891-.2583 1.1947-.8127.1055-.5544-.2582-1.0895-.8124-1.1951l-.955-.182a9.3 9.3 0 0 0 .0438-.9042c0-1.847-.5442-3.567-1.4811-5.008l.8311-.6846c.4355-.3588.4978-1.0028.1392-1.4385s-1.0025-.498-1.438-.1392l-.829.683c-1.4274-1.3917-3.3055-2.3229-5.3945-2.5539v-1.078c0-.5645-.4574-1.022-1.0216-1.022M11.0428 5.416c-1.456.2083-2.7706.8554-3.8055 1.803l3.8055 3.1351zM5.9416 8.7993c-.6526 1.079-1.0282 2.3445-1.0282 3.6977q0 .2499.0169.4956l4.9551-.9442zm-.5815 6.192c.4988 1.3412 1.3883 2.4923 2.5301 3.3147l1.9877-4.1756zm4.343 4.2601a7.14 7.14 0 0 0 2.3612.3991 7.14 7.14 0 0 0 2.361-.3991l-2.3611-4.96zm6.5351-.9453c1.1354-.8178 2.0213-1.9605 2.5217-3.292l-4.4966-.8568zm2.9584-5.2894a7.3 7.3 0 0 0 .0185-.5197c0-1.3532-.3756-2.6187-1.0282-3.6978l-3.9681 3.269zM16.8911 7.219l-3.8052 3.1348V5.416c1.4559.2083 2.7703.8554 3.8052 1.803" clip-rule="evenodd"/></svg>