<svg xmlns="http://www.w3.org/2000/svg" fill="none" viewBox="0 0 24 24"><path stroke="currentColor" stroke-linecap="round" stroke-linejoin="round" stroke-width="2" d="M21 7V6c0-1.1046-.8954-2-2-2H5c-1.1046 0-2 .8954-2 2v10h8"/><path stroke="currentColor" stroke-linecap="round" stroke-width="2" d="m3 16-1.204 2.4081C1.4303 19.1395 1.962 20 2.7798 20H11"/><path fill="currentColor" d="M16 11v1h5v-2h-5zm6 1h-1v9h2v-9zm-1 10v-1h-5v2h5zm-6-1h1v-9h-2v9zm1 1v-1h-2c0 1.1046.8954 2 2 2zm6-1h-1v2c1.1046 0 2-.8954 2-2zm-1-10v1h2c0-1.1046-.8954-2-2-2zm-5 0v-1c-1.1046 0-2 .8954-2 2h2z"/></svg>