<svg xmlns="http://www.w3.org/2000/svg" fill="none" viewBox="0 0 24 24"><path fill="currentColor" d="M15.2572 2c2.3902.0042 2.484.0243 2.9511.0918.964.139 1.7731.5235 2.4346 1.1553.3706.3566.6255.7058.8555 1.1728.2802.5707.4183 1.1111.4814 1.914.0135.1765.0195 2.916.0195 5.6573 0 2.743-.006 5.4898-.0195 5.6621-.0623.79-.1993 1.3347-.4707 1.8946a4.188 4.188 0 0 1-2.7305 2.2353c-.4345.1123-.8281.1645-1.5048.1963-.244.0123-2.768.0156-5.292.0156-2.5257 0-5.0502-.0078-5.2979-.0185-.5844-.0277-1.04-.0863-1.4521-.1924-1.1904-.3077-2.2004-1.1323-2.7295-2.2305-.2769-.5737-.4083-1.098-.4776-1.9316-.02-.2369-.0244-1.4568-.0244-5.628 0-1.4054-.0015-2.4538 0-3.25.004-2.388.0242-2.4837.0918-2.9511.1392-.9633.5237-1.774 1.1582-2.4327.3483-.361.701-.6186 1.1484-.8408.5808-.2891 1.1141-.4239 1.9708-.495C6.6068 2.0046 7.8284 2 12.0032 2zm-3.2598 2.6152c-2.004 0-2.2559.0091-3.043.045-.7858.036-1.3226.1602-1.792.3427-.4856.1886-.8982.441-1.3086.8516-.4104.4103-.6624.8223-.8515 1.3076-.183.4696-.3084 1.0064-.3438 1.792-.0352.7873-.044 1.0393-.044 3.0439 0 2.0052.0093 2.2565.045 3.044.0361.786.1603 1.3225.3428 1.792.1887.4856.441.8972.8515 1.3076.4103.4107.8224.664 1.3077.8525.4696.1826 1.0063.3068 1.792.3428.7874.0359 1.039.0449 3.0439.0449 2.0052 0 2.2564-.009 3.0439-.0449.7859-.036 1.3233-.1602 1.793-.3428.4853-.1885.8965-.4419 1.3066-.8525.4106-.4103.6634-.8223.8526-1.3076.1814-.4695.3058-1.0065.3428-1.792.0353-.7874.0439-1.039.0439-3.044 0-2.0047-.0086-2.2565-.0439-3.0439-.037-.7859-.1614-1.3226-.3428-1.792-.1892-.4855-.442-.8973-.8526-1.3076-.4106-.4107-.8215-.6631-1.3076-.8516-.4706-.1825-1.0072-.3067-1.7929-.3427-.7874-.0359-1.0386-.045-3.043-.045m-.6611 1.3301c.1965-.0003.4158 0 .6621 0 1.9712 0 2.2049.0076 2.9834.043.7197.033 1.1108.1528 1.3711.2539.3443.1338.5894.2944.8476.5527.2584.2584.4186.5042.5527.8487.1011.26.2222.6512.2549 1.371.0354.778.043 1.0125.043 2.9825s-.0076 2.2041-.043 2.9824c-.0329.7196-.1538 1.1102-.2549 1.3701-.1338.3446-.2943.5904-.5527.8486-.2582.2582-.5033.4181-.8476.5518-.26.1015-.6513.222-1.3711.2549-.7783.0354-1.0122.043-2.9834.043-1.9714 0-2.2052-.0076-2.9834-.043-.7199-.0332-1.1107-.1538-1.3711-.2549-.3444-.1338-.5904-.2936-.8487-.5518-.2583-.2583-.4186-.5041-.5527-.8486-.101-.2599-.2221-.6512-.2549-1.3711-.0353-.7781-.042-1.0121-.042-2.9834s.0067-2.2044.042-2.9824c.033-.7198.1539-1.1108.255-1.3711.1337-.3446.2942-.5912.5526-.8496.2583-.2581.5044-.4177.8487-.5518.2602-.1015.6512-.2218 1.371-.2548.681-.0308.9454-.0405 2.3214-.042zm.6621 2.2617c-2.0938 0-3.7918 1.6973-3.792 3.791 0 2.094 1.698 3.7911 3.792 3.7911 2.0938-.0001 3.791-1.6971 3.791-3.7911-.0002-2.0937-1.6973-3.791-3.791-3.791m0 1.3301c1.3589 0 2.4607 1.1019 2.4609 2.4609 0 1.3592-1.1019 2.4619-2.4609 2.462-1.3593 0-2.461-1.1028-2.461-2.462.0002-1.3591 1.1018-2.4609 2.461-2.4609m3.9414-2.3662c-.4892 0-.8867.3974-.8867.8867.0001.489.3977.8858.8867.8858.4888-.0003.8855-.397.8857-.8858 0-.489-.3968-.8865-.8857-.8867"/></svg>