<svg xmlns="http://www.w3.org/2000/svg" fill="none" viewBox="0 0 24 24"><path fill="currentColor" d="M16.06 1.623c1.34.302 2.696.66 3.731.948.208.058.403.115.583.168.081.024.159.054.233.089v2.744c-.107 2.452-.539 3.908-1.397 5.181-.901 1.336-2.311 2.543-4.603 4.42l-.018.016-.017.016c-.289.26-.583.514-.882.768l-.915.768c-.885.738-1.82 1.516-2.755 2.416-.813.782-1.063 1.822-.858 2.836-.7-.408-1.436-.926-2.153-1.535-.294-.397-.511-.992-.56-1.739-.059-.904.135-1.906.591-2.764.309-.581.818-1.11 1.469-1.65.322-.267.664-.526 1.02-.791.349-.26.718-.533 1.062-.809l.003-.001.009-.008.851-.688c.279-.227.552-.451.806-.663.877-.734 1.952-1.704 2.812-2.838.854-1.127 1.568-2.513 1.568-4.065 0-.961-.195-1.947-.578-2.816M21.608 12.189c0 5.595-6.863 10.811-9.608 10.811-.009 0-.019-.002-.028-.002a1 1 0 0 0-.216-.313c-.896-.874-.734-1.716-.348-2.088.876-.843 1.757-1.578 2.649-2.321.61-.508 1.228-1.023 1.832-1.565 2.227-1.824 3.886-3.216 4.981-4.839a9.06 9.06 0 0 0 .739-1.319z"/><path fill="currentColor" d="M11.9995 1c.1441 0 .3006.0063.4658.0175.2763.0272.5433.086.7979.1729.2457.1587.4758.394.6826.7119.4301.6614.6914 1.59.6914 2.537 0 .9353-.4363 1.8985-1.1631 2.8575-.7213.9518-1.6574 1.8063-2.501 2.5127-.4906.4109-1.0555.8665-1.6279 1.3281l-.0058.0049c-.3101.2485-.645.4958-1.0079.7666-.356.2657-.7346.5508-1.1005.8545-.7257.6023-1.467 1.3293-1.957 2.25-.4565.8577-.7214 1.8046-.8057 2.7344-1.2231-1.6653-2.0762-3.588-2.0762-5.5586V4.4599c0-.8091.5191-1.52 1.2851-1.7383C5.7982 2.118 9.9957 1.0001 11.9996 1"/></svg>