<svg xmlns="http://www.w3.org/2000/svg" fill="none" viewBox="0 0 24 24"><path stroke="currentColor" stroke-linecap="round" stroke-linejoin="round" stroke-width="2" d="M5 21h14M12 22.5V17"/><path fill="currentColor" d="M6 9v1h12V8H6zm12 8v-1H6v2h12zM6 17v-1c-1.6569 0-3-1.3431-3-3H1c0 2.7614 2.2386 5 5 5zm16-4h-1c0 1.6569-1.3431 3-3 3v2c2.7614 0 5-2.2386 5-5zm-4-4v1c1.6569 0 3 1.3431 3 3h2c0-2.7614-2.2386-5-5-5zM6 9V8c-2.7614 0-5 2.2386-5 5h2c0-1.6569 1.3431-3 3-3z"/><path stroke="currentColor" stroke-linecap="round" stroke-linejoin="round" stroke-width="2" d="M11 13H6M18 13h-.5M21.5 11l-2.714-6.202A3 3 0 0 0 16.038 3H7.962a3 3 0 0 0-2.748 1.798L2.5 11"/></svg>