<svg xmlns="http://www.w3.org/2000/svg" fill="none" viewBox="0 0 24 24"><path stroke="currentColor" stroke-linecap="round" stroke-linejoin="round" stroke-width="2" d="M12 18v-1M9 6h6M9 10h6"/><path fill="currentColor" d="M7 2v1h10V1H7zm12 2h-1v16h2V4zm-2 18v-1H7v2h10zM5 20h1V4H4v16zm2 2v-1c-.5523 0-1-.4477-1-1H4c0 1.6569 1.3431 3 3 3zm12-2h-1c0 .5523-.4477 1-1 1v2c1.6569 0 3-1.3431 3-3zM17 2v1c.5523 0 1 .4477 1 1h2c0-1.6568-1.3431-3-3-3zM7 2V1C5.3431 1 4 2.3432 4 4h2c0-.5523.4477-1 1-1z"/></svg>