<svg xmlns="http://www.w3.org/2000/svg" fill="none" viewBox="0 0 24 24"><path stroke="currentColor" stroke-linecap="round" stroke-linejoin="round" stroke-width="2" d="M17 21c3.5 0 5-2.5 5-6v-4M5 21c3.5 0 5-2.5 5-6v-4"/><path fill="currentColor" d="M4 3v1h4V2H4zm6 2H9v6h2V5zm-2 8v-1H4v2h4zm-6-2h1V5H1v6zm2 2v-1c-.552 0-1-.448-1-1H1c0 1.657 1.343 3 3 3zm6-2H9c0 .552-.448 1-1 1v2c1.657 0 3-1.343 3-3zM8 3v1c.552 0 1 .448 1 1h2c0-1.657-1.343-3-3-3zM4 3V2C2.343 2 1 3.343 1 5h2c0-.552.448-1 1-1zM16 3v1h4V2h-4zm6 2h-1v6h2V5zm-2 8v-1h-4v2h4zm-6-2h1V5h-2v6zm2 2v-1c-.552 0-1-.448-1-1h-2c0 1.657 1.343 3 3 3zm6-2h-1c0 .552-.448 1-1 1v2c1.657 0 3-1.343 3-3zm-2-8v1c.552 0 1 .448 1 1h2c0-1.657-1.343-3-3-3zm-4 0V2c-1.657 0-3 1.343-3 3h2c0-.552.448-1 1-1z"/></svg>