<svg xmlns="http://www.w3.org/2000/svg" fill="none" viewBox="0 0 24 24"><g clip-path="url(#robot-a)"><g clip-path="url(#robot-b)"><path fill="red" fill-opacity=".7" fill-rule="evenodd" d="M15.0005-.0254A.026.026 0 0 1 15.0258 0v8.9395l8.9571-8.957a.025.025 0 0 1 .0351 0 .025.025 0 0 1 0 .035l-8.957 8.9571h8.9443A.026.026 0 0 1 24.0307 9a.026.026 0 0 1-.0254.0254h-8.9795v2.9443h8.9795a.026.026 0 0 1 .0254.0254.026.026 0 0 1-.0254.0254h-8.9795v2.9541h8.9795a.026.026 0 0 1 .0254.0254.026.026 0 0 1-.0254.0254H15.061l8.957 8.957a.0253.0253 0 0 1 0 .0352.025.025 0 0 1-.0351 0l-8.9571-8.9571V24a.026.026 0 0 1-.0253.0254.0256.0256 0 0 1-.0254-.0254v-8.9746h-2.9493V24a.026.026 0 0 1-.0253.0254.0256.0256 0 0 1-.0254-.0254v-8.9746H9.0259V24a.026.026 0 0 1-.0254.0254A.0257.0257 0 0 1 8.975 24v-8.9395L.018 24.0176a.025.025 0 0 1-.0352 0 .025.025 0 0 1 0-.0352l8.957-8.957H.0053A.0257.0257 0 0 1-.02 15a.0257.0257 0 0 1 .0254-.0254h8.9698v-2.9541H.0053a.026.026 0 0 1-.0254-.0254.0257.0257 0 0 1 .0254-.0254h8.9698V9.0254H.0053A.0257.0257 0 0 1-.02 9a.0257.0257 0 0 1 .0254-.0254H8.94L-.017.0176a.025.025 0 0 1 0-.0352.025.025 0 0 1 .0351 0l8.957 8.957V0a.0257.0257 0 0 1 .0255-.0254A.026.026 0 0 1 9.0258 0v8.9746h2.9493V0a.0256.0256 0 0 1 .0254-.0254.026.026 0 0 1 .0253.0254v8.9746h2.9493V0a.0256.0256 0 0 1 .0254-.0254m-5.9395 15h2.9141v-2.9141zm2.9648 0h2.9141l-2.9141-2.9141zm2.9493-.0351v-2.919h-2.919zm-5.9492 0 2.9189-2.919h-2.919zm0-2.9698h2.9091L9.0258 9.0605zm3.04 0h2.9092V9.0605zm-.0908-.0302V9.0254H9.061zm.0507 0 2.9141-2.9141h-2.9141z" clip-rule="evenodd" opacity=".9"/><rect width="20" height="20" x="2" y="2" stroke="red" stroke-linecap="round" stroke-width=".1" rx="3"/></g><path stroke="currentColor" stroke-linecap="round" stroke-linejoin="round" stroke-width="2" d="M12 6V2H8M1.5 12H3M21 12h1.5M16 10v2M8 10v2M8 16s1.333 1 4 1 4-1 4-1"/><rect width="18" height="15" x="3" y="6" stroke="currentColor" stroke-width="2" rx="2"/></g><defs><clipPath id="robot-a"><path fill="#fff" d="M0 0h24v24H0z"/></clipPath><clipPath id="robot-b"><path fill="#fff" d="M0 0h24v24H0z"/></clipPath></defs></svg>