<svg xmlns="http://www.w3.org/2000/svg" fill="none" viewBox="0 0 24 24"><path stroke="currentColor" stroke-linecap="round" stroke-width="2" d="M8 20H4c-1.105 0-2-.895-2-2V6c0-1.105.895-2 2-2h16c1.105 0 2 .895 2 2v5M18.5 8H18M10 7.5v1M6 7.5v1"/><path stroke="currentColor" stroke-linecap="round" stroke-linejoin="round" stroke-width="2" d="M3 12h7.5"/><path stroke="currentColor" stroke-linecap="round" stroke-width="2" d="M6 15.5v1"/><path stroke="currentColor" stroke-width="2" d="M14.3763 14.3282A1 1 0 0 1 15.117 14H21.5c.5523 0 1 .4477 1 1v5c0 .5523-.4477 1-1 1h-6.383a1 1 0 0 1-.7407-.3282l-2.2671-2.5a1 1 0 0 1 0-1.3436z"/></svg>