<svg xmlns="http://www.w3.org/2000/svg" fill="none" viewBox="0 0 24 24"><g clip-path="url(#shield-times-a)"><path fill="red" fill-opacity=".7" fill-rule="evenodd" d="M15.0005-.0254A.026.026 0 0 1 15.0258 0v8.9395l8.9571-8.957a.025.025 0 0 1 .0351 0 .025.025 0 0 1 0 .035l-8.957 8.9571h8.9443A.026.026 0 0 1 24.0307 9a.026.026 0 0 1-.0254.0254h-8.9795v2.9443h8.9795a.026.026 0 0 1 .0254.0254.026.026 0 0 1-.0254.0254h-8.9795v2.9541h8.9795a.026.026 0 0 1 .0254.0254.026.026 0 0 1-.0254.0254H15.061l8.957 8.957a.0253.0253 0 0 1 0 .0352.025.025 0 0 1-.0351 0l-8.9571-8.9571V24a.026.026 0 0 1-.0253.0254.0256.0256 0 0 1-.0254-.0254v-8.9746h-2.9493V24a.026.026 0 0 1-.0253.0254.0256.0256 0 0 1-.0254-.0254v-8.9746H9.0259V24a.026.026 0 0 1-.0254.0254A.0257.0257 0 0 1 8.975 24v-8.9395L.018 24.0176a.025.025 0 0 1-.0352 0 .025.025 0 0 1 0-.0352l8.957-8.957H.0053A.0257.0257 0 0 1-.02 15a.0257.0257 0 0 1 .0254-.0254h8.9698v-2.9541H.0053a.026.026 0 0 1-.0254-.0254.0257.0257 0 0 1 .0254-.0254h8.9698V9.0254H.0053A.0257.0257 0 0 1-.02 9a.0257.0257 0 0 1 .0254-.0254H8.94L-.017.0176a.025.025 0 0 1 0-.0352.025.025 0 0 1 .0351 0l8.957 8.957V0a.0257.0257 0 0 1 .0255-.0254A.026.026 0 0 1 9.0258 0v8.9746h2.9493V0a.0256.0256 0 0 1 .0254-.0254.026.026 0 0 1 .0253.0254v8.9746h2.9493V0a.0256.0256 0 0 1 .0254-.0254m-5.9395 15h2.9141v-2.9141zm2.9648 0h2.9141l-2.9141-2.9141zm2.9493-.0351v-2.919h-2.919zm-5.9492 0 2.9189-2.919h-2.919zm0-2.9698h2.9091L9.0258 9.0605zm3.04 0h2.9092V9.0605zm-.0908-.0302V9.0254H9.061zm.0507 0 2.9141-2.9141h-2.9141z" clip-rule="evenodd" opacity=".9"/><path stroke="red" stroke-linecap="round" stroke-width=".1" d="M6 23c-1.6569 0-3-1.3431-3-3V4c0-1.6568 1.3431-3 3-3h12c1.6569 0 3 1.3432 3 3v16c0 1.6569-1.3431 3-3 3z"/></g><path stroke="currentColor" stroke-linecap="round" stroke-linejoin="round" stroke-width="2" d="M12.34 21.95C16.5 20.5 20 18 20 13V5c-2-1-6-2.5-8-3-2 .5-6 2-8 3v8c0 5 3.5 7.5 7.67 8.94a1 1 0 0 0 .67.01M15 9l-6 6m0-6 6 6"/><defs><clipPath id="shield-times-a"><path fill="#fff" d="M0 0h24v24H0z"/></clipPath></defs></svg>