<svg xmlns="http://www.w3.org/2000/svg" fill="none" viewBox="0 0 24 24"><path stroke="currentColor" stroke-width="2" d="M13.6158 2.0107a.635.635 0 0 1 .5126.502l.0762.3452c.8503 3.5365 3.6964 6.2962 7.2796 7.0212l.1094.031a.636.636 0 0 1 .4064.5942.636.636 0 0 1-.5158.6252l-.0011-.0011c-3.6988.7449-6.6156 3.658-7.3622 7.3547l.0011.0011a.636.636 0 0 1-.6252.5158.6356.6356 0 0 1-.6252-.5158c-.7449-3.6987-3.6577-6.615-7.3547-7.3633a.634.634 0 0 1-.5062-.5126L5 10.4968l.0107-.1115a.635.635 0 0 1 .3968-.4826l.1094-.0311c3.7006-.7452 6.6183-3.6599 7.3632-7.359A.636.636 0 0 1 13.5043 2z"/><path stroke="currentColor" stroke-linecap="round" stroke-linejoin="round" stroke-width="2" d="M5 22v-6m-3 3h6"/></svg>