<svg xmlns="http://www.w3.org/2000/svg" fill="none" viewBox="0 0 24 24"><path fill="currentColor" d="M6.003 12.5a1.367 1.367 0 0 1 1.2286.7715l.041.0937.0166.041.0117.042.0186.0606.041.1387v.0302c.3339 1.4975 1.5253 2.6731 3.0312 2.9815l.0156.0029.003.001c.619.1284 1.0898.6757 1.0898 1.3379-.0007.6633-.4729 1.2089-1.0898 1.3369l-.0059.001c-1.5413.3102-2.7583 1.5261-3.0683 3.0644l-.001.0049c-.1276.6187-.6742 1.091-1.337 1.0918-.5249-.0003-.9764-.2966-1.205-.7266l-.0752-.0752-.0596-.2949c-.3089-1.5403-1.524-2.7573-3.0625-3.0674l-.0049-.0009c-.6176-.1274-1.0918-.673-1.0918-1.3379l.006-.1231c.0487-.544.416-.9909.909-1.164l.0518-.0254.1309-.0264c1.5402-.3092 2.7565-1.5239 3.0664-3.0625l.0596-.2959.0752-.0771c.2297-.4296.6812-.7224 1.2031-.7227zm-.0029 3.1807a5.94 5.94 0 0 1-2.3193 2.3173 5.945 5.945 0 0 1 2.3174 2.3194A5.95 5.95 0 0 1 8.3165 18a5.943 5.943 0 0 1-2.3164-2.3193m4.1016 2.956q.0074.0006.0137.001c-.0064-.0005-.0147-.0019-.0245-.0029.0039.0004.0076.0016.0108.0019M15.3116.5l.0479.0049.0947.0088.0401.0039.04.0068c.6115.109 1.1146.5809 1.2412 1.2168l.0615.2744c.6392 2.6264 2.7588 4.676 5.4219 5.2149l.0381.0078.0371.0107.0928.0264.0439.0127.043.0166c.5896.2274.9862.796.9863 1.4385-.0004.7351-.5206 1.3737-1.25 1.5146l-.0166.0029c-2.7421.5621-4.9055 2.7262-5.4629 5.4678l.001.001c-.1407.7312-.7799 1.2494-1.5137 1.25-.7324-.0002-1.3689-.516-1.5127-1.2422l-.0009.001c-.5551-2.7561-2.7281-4.9318-5.4825-5.4893A1.541 1.541 0 0 1 7.045 9.0059l-.0068-.0381-.0039-.04-.0098-.0948-.0088-.0957.0088-.0957.0098-.0947.004-.04.0067-.0391a1.54 1.54 0 0 1 .964-1.17l.0419-.0165.043-.0118.0928-.0263.038-.0108.0381-.0078c2.757-.5551 4.9327-2.729 5.4883-5.4834A1.542 1.542 0 0 1 15.2638.5zm-5.0312 16.1445h-.002l-.0039-.0009s.0037.0008.0059.0009m4.9824-12.9931C14.3464 5.974 12.4941 7.823 10.17 8.7373c2.3223.9165 4.172 2.7677 5.087 5.0908.9162-2.3217 2.7679-4.1712 5.0908-5.086-2.3217-.9168-4.1707-2.7678-5.085-5.0907"/></svg>