<svg xmlns="http://www.w3.org/2000/svg" fill="none" viewBox="0 0 24 24"><path stroke="currentColor" stroke-linecap="round" stroke-linejoin="round" stroke-width="2" d="m3.5567 7.457 2.9637 3.0235c1.0901 1.1121 2.8781 1.121 3.9792.0199 1.1014-1.1014 1.0922-2.89-.0206-3.98L7.4546 3.558c-.4173-.4185-.2847-1.1229.2846-1.2789a7.799 7.799 0 0 1 7.9962 2.4534 7.797 7.797 0 0 1 1.7921 3.9694 7.797 7.797 0 0 1-.6161 4.3114l4.514 4.5877a2.7565 2.7565 0 0 1-1.9484 4.7062 2.757 2.757 0 0 1-1.9494-.8071l-4.5141-4.5877a7.799 7.799 0 0 1-8.281-1.1759 7.798 7.798 0 0 1-2.4535-7.996c.156-.5693.8618-.7019 1.2777-.2834"/></svg>