<svg xmlns="http://www.w3.org/2000/svg" fill="none" viewBox="0 0 96 96"><path fill="url(#laptop-default-enabled-ill--96-protection-console-a)" d="M15 23h66v46H15z"/><path fill="url(#laptop-default-enabled-ill--96-protection-console-b)" d="M32 23h49v42H56z" opacity=".15"/><path fill="url(#laptop-default-enabled-ill--96-protection-console-c)" d="M49 23h32v23H63.1224z" opacity=".25"/><path fill="url(#laptop-default-enabled-ill--96-protection-console-d)" fill-rule="evenodd" d="M80 24H16v44h64zm-65-1v46h66V23z" clip-rule="evenodd" opacity=".2"/><path fill="#434c59" d="M15 19c-1.6569 0-3 1.3431-3 3v49H5c-.5523 0-1 .4477-1 1v3c0 1.1046.8954 2 2 2h84c1.1046 0 2-.8954 2-2v-3c0-.5523-.4477-1-1-1h-7V22c0-1.6569-1.3431-3-3-3z"/><path fill="#303640" d="M4 73v2c0 1.1046.8954 2 2 2h84c1.1046 0 2-.8954 2-2v-2c0 1.1046-.8954 2-2 2H6c-1.1046 0-2-.8954-2-2"/><path fill="#6c7480" d="M4 72c0-.552.448-1 1-1h86c.552 0 1 .448 1 1zM15 19c-1.657 0-3 1.343-3 3v1c0-1.657 1.343-3 3-3h66c1.657 0 3 1.343 3 3v-1c0-1.657-1.343-3-3-3z"/><path fill="#82e03d" d="M84 73.5a.5.5 0 0 1 .5-.5h3a.5.5 0 0 1 0 1h-3a.5.5 0 0 1-.5-.5"/><path fill="url(#laptop-default-enabled-ill--96-protection-console-e)" d="M37 71h22c0 1.1046-.8954 2-2 2H39c-1.1046 0-2-.8954-2-2"/><g clip-path="url(#laptop-default-enabled-ill--96-protection-console-f)"><path fill="url(#laptop-default-enabled-ill--96-protection-console-g)" d="M14 22h68v49H14z"/><path fill="url(#laptop-default-enabled-ill--96-protection-console-h)" d="M31.5151 22H82v49H56.2424z" opacity=".6"/><g fill="#2668c5" style="mix-blend-mode:overlay"><path d="M47 34H35v12h12zM47 48H35v12h12zM61 34H49v12h12zM61 48H49v12h12z"/></g><g fill="#2668c5" opacity=".7" style="mix-blend-mode:overlay"><path d="M47 34H35v12h12zM47 48H35v12h12zM61 34H49v12h12zM61 48H49v12h12z"/></g><path fill="url(#laptop-default-enabled-ill--96-protection-console-i)" fill-opacity=".3" d="M49.0303 22H82v26.8333H63.5807z"/><path fill="url(#laptop-default-enabled-ill--96-protection-console-j)" d="M14 22h68v1.1667H14z" opacity=".7"/></g><defs><linearGradient id="laptop-default-enabled-ill--96-protection-console-a" x1="16" x2="81" y1="68" y2="26" gradientUnits="userSpaceOnUse"><stop stop-color="#40a9ff"/><stop offset="1" stop-color="#a6d7ff"/></linearGradient><linearGradient id="laptop-default-enabled-ill--96-protection-console-b" x1="44" x2="44" y1="23" y2="65" gradientUnits="userSpaceOnUse"><stop stop-color="#fff"/><stop offset="1" stop-color="#ebebeb" stop-opacity="0"/></linearGradient><linearGradient id="laptop-default-enabled-ill--96-protection-console-c" x1="56.5" x2="56.5" y1="23" y2="46" gradientUnits="userSpaceOnUse"><stop stop-color="#fff"/><stop offset="1" stop-color="#fff" stop-opacity="0"/></linearGradient><linearGradient id="laptop-default-enabled-ill--96-protection-console-d" x1="48" x2="48" y1="23" y2="69" gradientUnits="userSpaceOnUse"><stop stop-color="#1d2026"/><stop offset="1" stop-color="#1d2026" stop-opacity="0"/></linearGradient><linearGradient id="laptop-default-enabled-ill--96-protection-console-e" x1="46" x2="46" y1="71" y2="73" gradientUnits="userSpaceOnUse"><stop stop-color="#a1a8b2"/><stop offset=".0001" stop-color="#84817f"/><stop offset="1" stop-color="#92918f"/></linearGradient><linearGradient id="laptop-default-enabled-ill--96-protection-console-g" x1="15.0303" x2="86.6426" y1="71" y2="30.1359" gradientUnits="userSpaceOnUse"><stop stop-color="#43aef4"/><stop offset="1" stop-color="#63c2f9"/></linearGradient><linearGradient id="laptop-default-enabled-ill--96-protection-console-h" x1="43.8788" x2="43.8788" y1="22" y2="71" gradientUnits="userSpaceOnUse"><stop stop-color="#7fd5fa"/><stop offset="1" stop-color="#50b6f6"/></linearGradient><linearGradient id="laptop-default-enabled-ill--96-protection-console-i" x1="56.7575" x2="56.7575" y1="22" y2="48.8333" gradientUnits="userSpaceOnUse"><stop stop-color="#fff"/><stop offset="1" stop-color="#fff" stop-opacity="0"/></linearGradient><linearGradient id="laptop-default-enabled-ill--96-protection-console-j" x1="14" x2="82" y1="23.1667" y2="23.1667" gradientUnits="userSpaceOnUse"><stop stop-color="#359df3"/><stop offset="1" stop-color="#379ff3"/></linearGradient><clipPath id="laptop-default-enabled-ill--96-protection-console-f"><path fill="#fff" d="M14 23c0-.5523.4477-1 1-1h66c.5523 0 1 .4477 1 1v48H14z"/></clipPath></defs></svg>