<svg width="96" height="96" viewBox="0 0 96 96" fill="none" xmlns="http://www.w3.org/2000/svg">
<rect opacity="0.45" x="8" y="39" width="38" height="47" fill="url(#paint0_linear_1394_7664)"/>
<path opacity="0.45" d="M88 55H50V8H88V55ZM69 21C67.3431 21 66 22.3431 66 24C66 25.6569 67.3431 27 69 27C70.6569 27 72 25.6569 72 24C72 22.3431 70.6569 21 69 21Z" fill="url(#paint1_linear_1394_7664)"/>
<path d="M27 43C33.627 43 39 48.373 39 55C39 61.627 33.627 67 27 67C20.373 67 15 61.627 15 55C15 48.373 20.373 43 27 43ZM27 52C25.3431 52 24 53.3431 24 55C24 56.6569 25.3431 58 27 58C28.6569 58 30 56.6569 30 55C30 53.3431 28.6569 52 27 52Z" fill="url(#paint2_linear_1394_7664)"/>
<path d="M69 12C75.627 12 81 17.373 81 24C81 30.627 75.627 36 69 36C62.373 36 57 30.627 57 24C57 17.373 62.373 12 69 12ZM69 21C67.3431 21 66 22.3431 66 24C66 25.6569 67.3431 27 69 27C70.6569 27 72 25.6569 72 24C72 22.3431 70.6569 21 69 21Z" fill="url(#paint3_linear_1394_7664)"/>
<path d="M46 77C57.7103 74.5623 67.1905 66.0883 71 55H62.4461C59.2892 61.7152 53.2961 66.8472 46 68.8711L46 77Z" fill="url(#paint4_linear_1394_7664)"/>
<path fill-rule="evenodd" clip-rule="evenodd" d="M46 69V77.2749C43.741 77.7501 41.3995 78 39 78V69.9582C41.4252 69.9582 43.7729 69.6244 46 69V69Z" fill="url(#paint5_linear_1394_7664)"/>
<path fill-rule="evenodd" clip-rule="evenodd" d="M71.1812 55H62.5653C64.1274 51.6592 65 47.9315 65 44H60L69 31L78 44H73C73 47.8496 72.3602 51.5498 71.1812 55Z" fill="url(#paint6_linear_1394_7664)"/>
<defs>
<linearGradient id="paint0_linear_1394_7664" x1="27" y1="15.5" x2="-18.9578" y2="52.6574" gradientUnits="userSpaceOnUse">
<stop stop-color="#70B1FF"/>
<stop offset="1" stop-color="#005CCD"/>
</linearGradient>
<linearGradient id="paint1_linear_1394_7664" x1="69" y1="-15.5" x2="23.0422" y2="21.6574" gradientUnits="userSpaceOnUse">
<stop stop-color="#70B1FF"/>
<stop offset="1" stop-color="#005CCD"/>
</linearGradient>
<linearGradient id="paint2_linear_1394_7664" x1="27.0659" y1="38.1072" x2="10.3662" y2="55.3484" gradientUnits="userSpaceOnUse">
<stop stop-color="#85B2F3"/>
<stop offset="1" stop-color="#6293DB"/>
</linearGradient>
<linearGradient id="paint3_linear_1394_7664" x1="69.209" y1="6.95557" x2="52.5088" y2="23.6724" gradientUnits="userSpaceOnUse">
<stop stop-color="#81B2F8"/>
<stop offset="1" stop-color="#5E92E1"/>
</linearGradient>
<linearGradient id="paint4_linear_1394_7664" x1="58.5" y1="84.7508" x2="73.2451" y2="60.971" gradientUnits="userSpaceOnUse">
<stop stop-color="#AACDF6"/>
<stop offset="1" stop-color="#A8CBF5"/>
</linearGradient>
<linearGradient id="paint5_linear_1394_7664" x1="42.5" y1="64.5" x2="33.7769" y2="71.2846" gradientUnits="userSpaceOnUse">
<stop stop-color="#6EA0EB"/>
<stop offset="1" stop-color="#6A9CE8"/>
</linearGradient>
<linearGradient id="paint6_linear_1394_7664" x1="69.1162" y1="76.6671" x2="101.328" y2="52.451" gradientUnits="userSpaceOnUse">
<stop stop-color="#295296"/>
<stop offset="1" stop-color="#3E78D3"/>
</linearGradient>
</defs>
</svg>
