<svg width="48" height="48" viewBox="0 0 48 48" fill="none" xmlns="http://www.w3.org/2000/svg">
<path fill-rule="evenodd" clip-rule="evenodd" d="M4.65789 14H43.3421C44.2577 14 45 14.7592 45 15.6957V38.3043C45 39.2408 44.2577 40 43.3421 40H4.65789C3.74226 40 3 39.2408 3 38.3043V15.6957C3 14.7592 3.74226 14 4.65789 14Z" fill="url(#paint0_linear_1394_7678)"/>
<path fill-rule="evenodd" clip-rule="evenodd" d="M19.25 40H28.75L30 47H18L19.25 40Z" fill="url(#paint1_linear_1394_7678)"/>
<path fill-rule="evenodd" clip-rule="evenodd" d="M3 35H45V38.5C45 39.3284 44.3284 40 43.5 40H4.5C3.67157 40 3 39.3284 3 38.5V35Z" fill="url(#paint2_linear_1394_7678)"/>
<rect opacity="0.6" x="13" y="8" width="18" height="18" fill="url(#paint3_linear_1394_7678)"/>
<rect opacity="0.6" x="20" y="2" width="18" height="18" fill="url(#paint4_linear_1394_7678)"/>
<defs>
<linearGradient id="paint0_linear_1394_7678" x1="39.0596" y1="37.6868" x2="36.1149" y2="15.6272" gradientUnits="userSpaceOnUse">
<stop stop-color="#0049A6"/>
<stop offset="1" stop-color="#0064C6"/>
</linearGradient>
<linearGradient id="paint1_linear_1394_7678" x1="34.8792" y1="42.1924" x2="28.1062" y2="32.7505" gradientUnits="userSpaceOnUse">
<stop stop-color="#0049A6"/>
<stop offset="1" stop-color="#0064C6"/>
</linearGradient>
<linearGradient id="paint2_linear_1394_7678" x1="13.5" y1="42.5" x2="16.3165" y2="30.6706" gradientUnits="userSpaceOnUse">
<stop stop-color="#1372C4"/>
<stop offset="1" stop-color="#1DAFF2"/>
</linearGradient>
<linearGradient id="paint3_linear_1394_7678" x1="22" y1="-0.147949" x2="5.7041" y2="17.8521" gradientUnits="userSpaceOnUse">
<stop stop-color="#0048A6"/>
<stop offset="1" stop-color="#46A3FF"/>
</linearGradient>
<linearGradient id="paint4_linear_1394_7678" x1="29" y1="-6.14795" x2="12.7041" y2="11.8521" gradientUnits="userSpaceOnUse">
<stop stop-color="#0048A6"/>
<stop offset="1" stop-color="#46A3FF"/>
</linearGradient>
</defs>
</svg>
