<svg width="48" height="48" viewBox="0 0 48 48" fill="none" xmlns="http://www.w3.org/2000/svg">
<path fill-rule="evenodd" clip-rule="evenodd" d="M31 33.5C39.2843 33.5 46 26.7843 46 18.5C46 10.2157 39.2843 3.5 31 3.5C22.7157 3.5 16 10.2157 16 18.5C16 26.7843 22.7157 33.5 31 33.5Z" fill="url(#paint0_linear_1394_7709)"/>
<path fill-rule="evenodd" clip-rule="evenodd" d="M31.9853 6.50002V15.9853H37.9706L29.9853 29.4706V19.9853H24L31.9853 6.50002Z" fill="url(#paint1_linear_1394_7709)"/>
<path fill-rule="evenodd" clip-rule="evenodd" d="M14 19C20.6274 19 26 24.3726 26 31C26 37.6274 20.6274 43 14 43C7.37258 43 2 37.6274 2 31C2 28.6903 2.65255 26.533 3.78334 24.7024L7.0498 27.0356C6.38178 28.2042 6 29.5575 6 31C6 35.4183 9.58172 39 14 39C18.4183 39 22 35.4183 22 31C22 26.5817 18.4183 23 14 23V26L7 21L14 16V19Z" fill="url(#paint2_linear_1394_7709)"/>
<path fill-rule="evenodd" clip-rule="evenodd" d="M25.8932 32.6083C24.479 32.0963 23.1638 31.3777 21.984 30.489C21.7831 27.302 19.7161 24.6215 16.8634 23.5277C16.3753 22.1556 16.0814 20.6915 16.0146 19.1684C21.6829 20.1266 26 25.0591 26 31C26 31.5454 25.9636 32.0822 25.8932 32.6083V32.6083Z" fill="url(#paint3_linear_1394_7709)"/>
<defs>
<linearGradient id="paint0_linear_1394_7709" x1="41.7568" y1="30.8309" x2="36.4187" y2="6.07507" gradientUnits="userSpaceOnUse">
<stop stop-color="#0049A6"/>
<stop offset="1" stop-color="#0064C6"/>
</linearGradient>
<linearGradient id="paint1_linear_1394_7709" x1="31.6744" y1="33.192" x2="45.5596" y2="21.9541" gradientUnits="userSpaceOnUse">
<stop stop-color="#1372C4"/>
<stop offset="1" stop-color="#1DAFF2"/>
</linearGradient>
<linearGradient id="paint2_linear_1394_7709" x1="22.6055" y1="40.5978" x2="17.2637" y2="18.5775" gradientUnits="userSpaceOnUse">
<stop stop-color="#0049A6"/>
<stop offset="1" stop-color="#0064C6"/>
</linearGradient>
<linearGradient id="paint3_linear_1394_7709" x1="30.9927" y1="25.8883" x2="18.125" y2="16.328" gradientUnits="userSpaceOnUse">
<stop stop-color="#1372C4"/>
<stop offset="1" stop-color="#1DAFF2"/>
</linearGradient>
</defs>
</svg>
