<svg width="96" height="96" viewBox="0 0 96 96" fill="none" xmlns="http://www.w3.org/2000/svg">
<path fill-rule="evenodd" clip-rule="evenodd" d="M36 46.3966V47C44.8366 47 52 54.1634 52 63C52 71.8366 44.8366 79 36 79C27.1634 79 20 71.8366 20 63C20 59.5174 21.1126 56.2947 23.0018 53.668L16.5028 49.002C13.669 52.9421 12 57.7761 12 63C12 76.2548 22.7452 87 36 87C49.2548 87 60 76.2548 60 63C60 49.7452 49.2548 39 36 39V39.7775V34L23 43L36 52V46.3966Z" fill="url(#paint0_linear_1394_7728)" fill-opacity="0.6"/>
<path d="M46 24H78V65C78 73.8366 70.8366 81 62 81V81C53.1634 81 46 73.8366 46 65V24Z" fill="url(#paint1_linear_1394_7728)" fill-opacity="0.45"/>
<rect x="49" y="9" width="26" height="15" fill="url(#paint2_linear_1394_7728)"/>
<path fill-rule="evenodd" clip-rule="evenodd" d="M49 24H75V33H49V24Z" fill="url(#paint3_linear_1394_7728)"/>
<path fill-rule="evenodd" clip-rule="evenodd" d="M46 41.1761C54.2621 44.9682 60 53.314 60 63C60 69.0817 57.7378 74.6352 54.009 78.8647C51.6594 77.5075 49.6869 75.5702 48.2873 73.2486C50.6052 70.4726 52 66.8992 52 63C52 57.9472 49.6579 53.4415 46 50.5092L46 41.1761H46Z" fill="url(#paint4_linear_1394_7728)"/>
<rect x="53" y="13" width="6" height="5" fill="url(#paint5_linear_1394_7728)"/>
<rect x="65" y="13" width="6" height="5" fill="url(#paint6_linear_1394_7728)"/>
<defs>
<linearGradient id="paint0_linear_1394_7728" x1="36" y1="113.5" x2="88.7409" y2="65.7347" gradientUnits="userSpaceOnUse">
<stop stop-color="#70B1FF"/>
<stop offset="1" stop-color="#005CCD"/>
</linearGradient>
<linearGradient id="paint1_linear_1394_7728" x1="62" y1="110.624" x2="111.584" y2="83.8433" gradientUnits="userSpaceOnUse">
<stop stop-color="#70B1FF"/>
<stop offset="1" stop-color="#005CCD"/>
</linearGradient>
<linearGradient id="paint2_linear_1394_7728" x1="62" y1="31.5" x2="74.9856" y2="8.99168" gradientUnits="userSpaceOnUse">
<stop stop-color="#B3D3FA"/>
<stop offset="1" stop-color="#8CB6E9"/>
</linearGradient>
<linearGradient id="paint3_linear_1394_7728" x1="62" y1="37.5" x2="67.5641" y2="21.426" gradientUnits="userSpaceOnUse">
<stop stop-color="#74A7F0"/>
<stop offset="1" stop-color="#5589DA"/>
</linearGradient>
<linearGradient id="paint4_linear_1394_7728" x1="59.0201" y1="78.8647" x2="59.0201" y2="46.4521" gradientUnits="userSpaceOnUse">
<stop stop-color="#639BEF"/>
<stop offset="1" stop-color="#4B83DD"/>
</linearGradient>
<linearGradient id="paint5_linear_1394_7728" x1="56.0387" y1="22.514" x2="62.907" y2="14.2525" gradientUnits="userSpaceOnUse">
<stop stop-color="#295296"/>
<stop offset="1" stop-color="#3E78D3"/>
</linearGradient>
<linearGradient id="paint6_linear_1394_7728" x1="68.0387" y1="22.514" x2="74.907" y2="14.2525" gradientUnits="userSpaceOnUse">
<stop stop-color="#295296"/>
<stop offset="1" stop-color="#3E78D3"/>
</linearGradient>
</defs>
</svg>
