<svg width="96" height="96" viewBox="0 0 96 96" fill="none" xmlns="http://www.w3.org/2000/svg">
<path fill-rule="evenodd" clip-rule="evenodd" d="M73 79L66 73H16L9 79V81H73V79Z" fill="url(#paint0_linear_1394_7745)"/>
<path opacity="0.45" d="M63 45C64.6569 45 66 46.3431 66 48V73H16V48C16 46.3431 17.3431 45 19 45H63ZM49 53C47.3431 53 46 54.3431 46 56C46 57.6569 47.3431 59 49 59C50.6569 59 52 57.6569 52 56C52 54.3431 50.6569 53 49 53Z" fill="url(#paint1_linear_1394_7745)"/>
<path opacity="0.45" fill-rule="evenodd" clip-rule="evenodd" d="M47 10.9996H75C78.866 10.9996 82 14.1336 82 17.9996V56C82 59.866 78.866 63 75 63H47C43.134 63 40 59.866 40 56V17.9996C40 14.1336 43.134 10.9996 47 10.9996ZM49 59C50.6569 59 52 57.6568 52 56C52 54.3431 50.6569 53 49 53C47.3431 53 46 54.3431 46 56C46 57.6568 47.3431 59 49 59Z" fill="url(#paint2_linear_1394_7745)"/>
<path fill-rule="evenodd" clip-rule="evenodd" d="M66 49V48C66 46.3431 64.6569 45 63 45H40V56C40 57.933 40.7835 59.683 42.0503 60.9497C40.7835 59.683 40 57.933 40 56C40 52.134 43.134 49 47 49H66V49Z" fill="url(#paint3_linear_1394_7745)"/>
<path d="M40 36.3271C37.245 38.71 34.9957 41.6618 33.4348 45H24.8188C27.4942 37.171 32.9461 30.6291 40 26.5486V36.3271V36.3271Z" fill="url(#paint4_linear_1394_7745)"/>
<path opacity="0.4" fill-rule="evenodd" clip-rule="evenodd" d="M66 49H75C78.866 49 82 52.134 82 56C82 59.866 78.866 63 75 63H66V49Z" fill="url(#paint5_linear_1394_7745)"/>
<path d="M66 63H47C43.134 63 40 59.866 40 56C40 52.134 43.134 49 47 49H66V63ZM49 53C47.3431 53 46 54.3431 46 56C46 57.6569 47.3431 59 49 59C50.6569 59 52 57.6569 52 56C52 54.3431 50.6569 53 49 53Z" fill="url(#paint6_linear_1394_7745)"/>
<path fill-rule="evenodd" clip-rule="evenodd" d="M24.8188 45H33.4347C31.8726 48.3408 31 52.0685 31 56H23C23 52.1504 23.6398 48.4502 24.8188 45V45Z" fill="url(#paint7_linear_1394_7745)"/>
<path d="M40 36.3271C44.5581 32.3848 50.5006 30 57 30V35L71 26L57 17V22C50.8071 22 45.0009 23.6557 40 26.5486L40 36.3271H40Z" fill="url(#paint8_linear_1394_7745)"/>
<defs>
<linearGradient id="paint0_linear_1394_7745" x1="41" y1="85" x2="42.9692" y2="69.2462" gradientUnits="userSpaceOnUse">
<stop stop-color="#295296"/>
<stop offset="1" stop-color="#3E78D3"/>
</linearGradient>
<linearGradient id="paint1_linear_1394_7745" x1="41" y1="31" x2="17.1267" y2="73.6309" gradientUnits="userSpaceOnUse">
<stop stop-color="#7CB7FF"/>
<stop offset="1" stop-color="#005CCD"/>
</linearGradient>
<linearGradient id="paint2_linear_1394_7745" x1="61" y1="89.0002" x2="111.836" y2="47.9403" gradientUnits="userSpaceOnUse">
<stop stop-color="#70B1FF"/>
<stop offset="1" stop-color="#005CCD"/>
</linearGradient>
<linearGradient id="paint3_linear_1394_7745" x1="53" y1="37.0251" x2="38.7818" y2="60.2025" gradientUnits="userSpaceOnUse">
<stop stop-color="#7EAFF6"/>
<stop offset="1" stop-color="#79ABF3"/>
</linearGradient>
<linearGradient id="paint4_linear_1394_7745" x1="30.5838" y1="54.2257" x2="47.7996" y2="43.4679" gradientUnits="userSpaceOnUse">
<stop stop-color="#B8D6FC"/>
<stop offset="1" stop-color="#A5C8F4"/>
</linearGradient>
<linearGradient id="paint5_linear_1394_7745" x1="58" y1="56" x2="71.8761" y2="71.8584" gradientUnits="userSpaceOnUse">
<stop stop-color="#70B1FF"/>
<stop offset="1" stop-color="#005CCD"/>
</linearGradient>
<linearGradient id="paint6_linear_1394_7745" x1="57.2031" y1="46.5264" x2="42.507" y2="64.9949" gradientUnits="userSpaceOnUse">
<stop stop-color="#538BE9"/>
<stop offset="1" stop-color="#6196EF"/>
</linearGradient>
<linearGradient id="paint7_linear_1394_7745" x1="28.2174" y1="39.5" x2="17.2327" y2="49.9202" gradientUnits="userSpaceOnUse">
<stop stop-color="#73A5F0"/>
<stop offset="1" stop-color="#73A5EF"/>
</linearGradient>
<linearGradient id="paint8_linear_1394_7745" x1="55.5" y1="45.9907" x2="72.8538" y2="18.1558" gradientUnits="userSpaceOnUse">
<stop stop-color="#73A5EF"/>
<stop offset="1" stop-color="#568ADC"/>
</linearGradient>
</defs>
</svg>
