<svg width="96" height="96" viewBox="0 0 96 96" fill="none" xmlns="http://www.w3.org/2000/svg">
<path opacity="0.45" fill-rule="evenodd" clip-rule="evenodd" d="M27 46C37.4934 46 46 37.4934 46 27C46 16.5066 37.4934 8 27 8C16.5066 8 8 16.5066 8 27C8 37.4934 16.5066 46 27 46Z" fill="url(#paint0_linear_1394_7778)"/>
<path fill-rule="evenodd" clip-rule="evenodd" d="M46.0004 27.0004H27.0004V8.00037C37.496 8.00037 46.0004 16.5116 46.0004 27.0004" fill="url(#paint1_linear_1394_7778)"/>
<path fill-rule="evenodd" clip-rule="evenodd" d="M46.0004 27.0004C46.0004 29.6216 45.4676 32.122 44.51 34.3944C44.3056 34.8664 44.092 35.3292 43.8496 35.7776C42.952 37.5028 41.7976 39.0768 40.4372 40.4372L27.0004 27.0004H46.0004Z" fill="url(#paint2_linear_1394_7778)"/>
<rect opacity="0.45" x="36" y="54" width="10" height="32" fill="url(#paint3_linear_1394_7778)"/>
<rect opacity="0.45" x="17" y="36" width="10" height="50" fill="url(#paint4_linear_1394_7778)"/>
<path fill-rule="evenodd" clip-rule="evenodd" d="M17 43.1586C19.9046 44.9599 23.3308 46 27 46V36H17V43.1586H17Z" fill="url(#paint5_linear_1394_7778)"/>
<rect opacity="0.45" x="55" y="42" width="10" height="44" fill="url(#paint6_linear_1394_7778)"/>
<rect opacity="0.45" x="74" y="20" width="10" height="66" fill="url(#paint7_linear_1394_7778)"/>
<rect x="74" y="46" width="10" height="40" fill="url(#paint8_linear_1394_7778)"/>
<rect x="36" y="65" width="10" height="21" fill="url(#paint9_linear_1394_7778)"/>
<rect x="55" y="72" width="10" height="14" fill="url(#paint10_linear_1394_7778)"/>
<rect x="17" y="77" width="10" height="9" fill="url(#paint11_linear_1394_7778)"/>
<defs>
<linearGradient id="paint0_linear_1394_7778" x1="30.3696" y1="-1.81321" x2="1.48164" y2="27.054" gradientUnits="userSpaceOnUse">
<stop stop-color="#70B1FF"/>
<stop offset="1" stop-color="#005CCD"/>
</linearGradient>
<linearGradient id="paint1_linear_1394_7778" x1="34.6696" y1="7.0852" x2="20.5681" y2="19.9496" gradientUnits="userSpaceOnUse">
<stop stop-color="#8AB9FD"/>
<stop offset="1" stop-color="#5A8FDF"/>
</linearGradient>
<linearGradient id="paint2_linear_1394_7778" x1="41.5846" y1="42.8037" x2="51.2891" y2="27.0022" gradientUnits="userSpaceOnUse">
<stop stop-color="#295296"/>
<stop offset="1" stop-color="#3E78D3"/>
</linearGradient>
<linearGradient id="paint3_linear_1394_7778" x1="26.6899" y1="193.213" x2="99.1923" y2="186.352" gradientUnits="userSpaceOnUse">
<stop stop-color="#70B1FF"/>
<stop offset="1" stop-color="#005CCD"/>
</linearGradient>
<linearGradient id="paint4_linear_1394_7778" x1="7.68988" y1="253.52" x2="80.5742" y2="249.106" gradientUnits="userSpaceOnUse">
<stop stop-color="#70B1FF"/>
<stop offset="1" stop-color="#005CCD"/>
</linearGradient>
<linearGradient id="paint5_linear_1394_7778" x1="21.2332" y1="33.269" x2="15.7712" y2="41.8818" gradientUnits="userSpaceOnUse">
<stop stop-color="#6499E5"/>
<stop offset="1" stop-color="#5F93E1"/>
</linearGradient>
<linearGradient id="paint6_linear_1394_7778" x1="45.6899" y1="233.417" x2="118.497" y2="228.407" gradientUnits="userSpaceOnUse">
<stop stop-color="#70B1FF"/>
<stop offset="1" stop-color="#005CCD"/>
</linearGradient>
<linearGradient id="paint7_linear_1394_7778" x1="64.6899" y1="307.126" x2="137.688" y2="303.777" gradientUnits="userSpaceOnUse">
<stop stop-color="#70B1FF"/>
<stop offset="1" stop-color="#005CCD"/>
</linearGradient>
<linearGradient id="paint8_linear_1394_7778" x1="79" y1="46" x2="79" y2="86" gradientUnits="userSpaceOnUse">
<stop stop-color="#91BCF8"/>
<stop offset="1" stop-color="#84B0F0"/>
</linearGradient>
<linearGradient id="paint9_linear_1394_7778" x1="41" y1="65" x2="41" y2="86" gradientUnits="userSpaceOnUse">
<stop stop-color="#8EBAF7"/>
<stop offset="1" stop-color="#81ADEE"/>
</linearGradient>
<linearGradient id="paint10_linear_1394_7778" x1="60" y1="93" x2="73.2432" y2="83.5405" gradientUnits="userSpaceOnUse">
<stop stop-color="#295296"/>
<stop offset="1" stop-color="#3E78D3"/>
</linearGradient>
<linearGradient id="paint11_linear_1394_7778" x1="22" y1="90.5" x2="30.9503" y2="80.5552" gradientUnits="userSpaceOnUse">
<stop stop-color="#295296"/>
<stop offset="1" stop-color="#3E78D3"/>
</linearGradient>
</defs>
</svg>
