<svg width="48" height="48" viewBox="0 0 48 48" fill="none" xmlns="http://www.w3.org/2000/svg">
<path opacity="0.45" d="M24 12C32.8366 12 40 19.1634 40 28C40 36.8366 32.8366 44 24 44C15.1634 44 8 36.8366 8 28C8 19.1634 15.1634 12 24 12ZM24 25C22.3431 25 21 26.3431 21 28C21 29.6569 22.3431 31 24 31C25.6569 31 27 29.6569 27 28C27 26.3431 25.6569 25 24 25Z" fill="url(#paint0_linear_1394_7826)"/>
<path fill-rule="evenodd" clip-rule="evenodd" d="M27 28H36.9999C36.9787 20.8384 31.1666 15.0393 24 15.0393V25C25.6569 25 27 26.3431 27 28Z" fill="url(#paint1_linear_1394_7826)"/>
<rect opacity="0.45" x="17" y="4" width="14" height="6" fill="url(#paint2_linear_1394_7826)"/>
<rect x="17" y="4" width="14" height="6" fill="url(#paint3_linear_1394_7826)"/>
<defs>
<linearGradient id="paint0_linear_1394_7826" x1="22.0786" y1="58.2871" x2="50.6528" y2="30.1299" gradientUnits="userSpaceOnUse">
<stop stop-color="#70B1FF"/>
<stop offset="1" stop-color="#005CCD"/>
</linearGradient>
<linearGradient id="paint1_linear_1394_7826" x1="28.674" y1="37.6875" x2="42.7545" y2="23.3022" gradientUnits="userSpaceOnUse">
<stop stop-color="#295296"/>
<stop offset="1" stop-color="#3E78D3"/>
</linearGradient>
<linearGradient id="paint2_linear_1394_7826" x1="22.5075" y1="-1.09106" x2="13.0165" y2="14.7411" gradientUnits="userSpaceOnUse">
<stop stop-color="#70B1FF"/>
<stop offset="1" stop-color="#005CCD"/>
</linearGradient>
<linearGradient id="paint3_linear_1394_7826" x1="24" y1="1" x2="19.6552" y2="11.1379" gradientUnits="userSpaceOnUse">
<stop stop-color="#8FBDFF"/>
<stop offset="1" stop-color="#6498E5"/>
</linearGradient>
</defs>
</svg>
