<svg width="96" height="96" viewBox="0 0 96 96" fill="none" xmlns="http://www.w3.org/2000/svg">
<path opacity="0.45" d="M63 20C74.598 20 84 29.402 84 41C84 52.598 74.598 62 63 62C51.402 62 42 52.598 42 41C42 29.402 51.402 20 63 20ZM63 37C60.7909 37 59 38.7909 59 41C59 43.2091 60.7909 45 63 45C65.2091 45 67 43.2091 67 41C67 38.7909 65.2091 37 63 37Z" fill="url(#paint0_linear_1394_7833)"/>
<path opacity="0.6" fill-rule="evenodd" clip-rule="evenodd" d="M36 44C44.8366 44 52 51.1634 52 60C52 68.8366 44.8366 76 36 76C27.1634 76 20 68.8366 20 60C20 56.5174 21.1126 53.2947 23.0018 50.668L16.5028 46.002C13.669 49.9421 12 54.7761 12 60C12 73.2548 22.7452 84 36 84C49.2548 84 60 73.2548 60 60C60 46.7452 49.2548 36 36 36V31L23 40L36 49V44Z" fill="url(#paint1_linear_1394_7833)"/>
<rect x="55" y="10" width="16" height="7" fill="url(#paint2_linear_1394_7833)"/>
<path fill-rule="evenodd" clip-rule="evenodd" d="M67 41C67 38.7909 65.2091 37 63 37L63 25C71.8366 25 79 32.1634 79 41H67V41Z" fill="url(#paint3_linear_1394_7833)"/>
<path fill-rule="evenodd" clip-rule="evenodd" d="M59.9351 61.778C57.0437 61.3552 54.3436 60.3431 51.9606 58.8677C51.5374 52.8151 47.7478 47.6906 42.452 45.3542C42.1558 43.9494 42 42.4929 42 41C42 39.5845 42.14 38.2017 42.407 36.8647C52.5512 39.6679 60 48.9641 60 60C60 60.598 59.9781 61.1909 59.9351 61.778V61.778Z" fill="url(#paint4_linear_1394_7833)"/>
<defs>
<linearGradient id="paint0_linear_1394_7833" x1="71.7948" y1="71.1707" x2="99.3632" y2="35.0811" gradientUnits="userSpaceOnUse">
<stop stop-color="#70B1FF"/>
<stop offset="1" stop-color="#005CCD"/>
</linearGradient>
<linearGradient id="paint1_linear_1394_7833" x1="36" y1="110.5" x2="88.7409" y2="62.7347" gradientUnits="userSpaceOnUse">
<stop stop-color="#70B1FF"/>
<stop offset="1" stop-color="#005CCD"/>
</linearGradient>
<linearGradient id="paint2_linear_1394_7833" x1="47.247" y1="13.7162" x2="52.4998" y2="25.3517" gradientUnits="userSpaceOnUse">
<stop stop-color="#87B7FB"/>
<stop offset="1" stop-color="#6799E5"/>
</linearGradient>
<linearGradient id="paint3_linear_1394_7833" x1="71.1033" y1="55.4447" x2="93.4576" y2="33.0373" gradientUnits="userSpaceOnUse">
<stop stop-color="#295296"/>
<stop offset="1" stop-color="#3E78D3"/>
</linearGradient>
<linearGradient id="paint4_linear_1394_7833" x1="69" y1="49.3214" x2="45.3472" y2="32.232" gradientUnits="userSpaceOnUse">
<stop stop-color="#5C96EB"/>
<stop offset="1" stop-color="#538CE4"/>
</linearGradient>
</defs>
</svg>
