<svg width="48" height="48" viewBox="0 0 48 48" fill="none" xmlns="http://www.w3.org/2000/svg">
<rect opacity="0.45" x="9" y="19" width="30" height="23" fill="url(#paint0_linear_1394_7859)"/>
<path d="M19 19V15C19 12.2386 21.2386 10 24 10C26.7614 10 29 12.2386 29 15V19H35V15C35 8.92487 30.0751 4 24 4C17.9249 4 13 8.92487 13 15V19H19Z" fill="url(#paint1_linear_1394_7859)"/>
<path fill-rule="evenodd" clip-rule="evenodd" d="M22 31.6632C20.8175 31.1015 20 29.8962 20 28.5C20 26.567 21.567 25 23.5 25C25.433 25 27 26.567 27 28.5C27 29.8962 26.1825 31.1015 25 31.6632V37H22V31.6632Z" fill="url(#paint2_linear_1394_7859)"/>
<rect x="13" y="19" width="6" height="4" fill="url(#paint3_linear_1394_7859)"/>
<rect x="29" y="19" width="6" height="4" fill="url(#paint4_linear_1394_7859)"/>
<defs>
<linearGradient id="paint0_linear_1394_7859" x1="24.2597" y1="5.69587" x2="1.31682" y2="36.2263" gradientUnits="userSpaceOnUse">
<stop stop-color="#70B1FF"/>
<stop offset="1" stop-color="#005CCD"/>
</linearGradient>
<linearGradient id="paint1_linear_1394_7859" x1="21.8408" y1="25.3326" x2="33.8469" y2="8.5712" gradientUnits="userSpaceOnUse">
<stop stop-color="#AFD1FB"/>
<stop offset="1" stop-color="#8CB7EC"/>
</linearGradient>
<linearGradient id="paint2_linear_1394_7859" x1="23.5452" y1="47.8335" x2="38.1563" y2="39.2902" gradientUnits="userSpaceOnUse">
<stop stop-color="#295296"/>
<stop offset="1" stop-color="#3E78D3"/>
</linearGradient>
<linearGradient id="paint3_linear_1394_7859" x1="16" y1="17" x2="12.3077" y2="22.5385" gradientUnits="userSpaceOnUse">
<stop stop-color="#70A4F1"/>
<stop offset="1" stop-color="#7BABF2"/>
</linearGradient>
<linearGradient id="paint4_linear_1394_7859" x1="32" y1="17" x2="28.3077" y2="22.5385" gradientUnits="userSpaceOnUse">
<stop stop-color="#70A4F1"/>
<stop offset="1" stop-color="#7BABF2"/>
</linearGradient>
</defs>
</svg>
