<svg width="96" height="96" viewBox="0 0 96 96" fill="none" xmlns="http://www.w3.org/2000/svg">
<rect opacity="0.45" x="10" y="27" width="34" height="34" rx="8" fill="url(#paint0_linear_1394_7889)"/>
<g opacity="0.35" style="mix-blend-mode:multiply">
<path fill-rule="evenodd" clip-rule="evenodd" d="M10.0037 53.2459C10.1336 57.5504 13.6639 61 18 61H36C40.4182 61 44 57.4183 44 53V47L35 38L24 50L19 45L10.0037 53.2459H10.0037Z" fill="url(#paint1_linear_1394_7889)"/>
</g>
<rect opacity="0.35" x="30" y="12" width="40" height="70" rx="4" fill="url(#paint2_linear_1394_7889)"/>
<path fill-rule="evenodd" clip-rule="evenodd" d="M30 27H36C40.4183 27 44 30.5817 44 35V53C44 57.4183 40.4183 61 36 61H30V27Z" fill="url(#paint3_linear_1394_7889)"/>
<path opacity="0.35" fill-rule="evenodd" clip-rule="evenodd" d="M24 50L19 45L10.0037 53.246C10.1336 57.5505 13.6639 61 18 61H30V43.4546L24 50Z" fill="url(#paint4_linear_1394_7889)"/>
<path fill-rule="evenodd" clip-rule="evenodd" d="M30 43.4545L35 38L44 47V53C44 55.2091 43.1046 57.2091 41.6569 58.6569C40.2091 60.1046 38.2091 61 36 61H30V43.4545Z" fill="url(#paint5_linear_1394_7889)"/>
<path fill-rule="evenodd" clip-rule="evenodd" d="M34 12L66 12C68.2091 12 70 13.7909 70 16V20H30V16C30 13.7909 31.7909 12 34 12Z" fill="url(#paint6_linear_1394_7889)"/>
<path fill-rule="evenodd" clip-rule="evenodd" d="M30 68H70V78C70 80.2091 68.2091 82 66 82H34C31.7909 82 30 80.2091 30 78V68ZM50 78C51.6569 78 53 76.6569 53 75C53 73.3431 51.6569 72 50 72C48.3431 72 47 73.3431 47 75C47 76.6569 48.3431 78 50 78Z" fill="url(#paint7_linear_1394_7889)"/>
<path fill-rule="evenodd" clip-rule="evenodd" d="M20 39C21.6569 39 23 37.6569 23 36C23 34.3431 21.6569 33 20 33C18.3431 33 17 34.3431 17 36C17 37.6569 18.3431 39 20 39Z" fill="url(#paint8_linear_1394_7889)"/>
<path opacity="0.45" fill-rule="evenodd" clip-rule="evenodd" d="M76 48V53L89 44L76 35V40H50V48H76Z" fill="url(#paint9_linear_1394_7889)"/>
<rect x="50" y="40" width="20" height="8" fill="url(#paint10_linear_1394_7889)"/>
<defs>
<linearGradient id="paint0_linear_1394_7889" x1="28.3691" y1="12.7383" x2="-5.63086" y2="44" gradientUnits="userSpaceOnUse">
<stop stop-color="#70B1FF"/>
<stop offset="1" stop-color="#005CCD"/>
</linearGradient>
<linearGradient id="paint1_linear_1394_7889" x1="27.0018" y1="72.5" x2="48.351" y2="40.9437" gradientUnits="userSpaceOnUse">
<stop stop-color="#70B1FF"/>
<stop offset="1" stop-color="#005CCD"/>
</linearGradient>
<linearGradient id="paint2_linear_1394_7889" x1="53.7871" y1="113.686" x2="111.279" y2="77.3983" gradientUnits="userSpaceOnUse">
<stop stop-color="#70B1FF"/>
<stop offset="1" stop-color="#005CCD"/>
</linearGradient>
<linearGradient id="paint3_linear_1394_7889" x1="39.7414" y1="12.7383" x2="21.6924" y2="17.2596" gradientUnits="userSpaceOnUse">
<stop stop-color="#87B3F5"/>
<stop offset="1" stop-color="#80AEF1"/>
</linearGradient>
<linearGradient id="paint4_linear_1394_7889" x1="20.0018" y1="69.7728" x2="37.3983" y2="49.9462" gradientUnits="userSpaceOnUse">
<stop stop-color="#6597E0"/>
<stop offset="1" stop-color="#7BAAEE"/>
</linearGradient>
<linearGradient id="paint5_linear_1394_7889" x1="37" y1="72.5" x2="57.4303" y2="60.0641" gradientUnits="userSpaceOnUse">
<stop stop-color="#5C93EB"/>
<stop offset="1" stop-color="#5E93EA"/>
</linearGradient>
<linearGradient id="paint6_linear_1394_7889" x1="10" y1="16" x2="13.0769" y2="31.3846" gradientUnits="userSpaceOnUse">
<stop stop-color="#8FB9F2"/>
<stop offset="1" stop-color="#719EE1"/>
</linearGradient>
<linearGradient id="paint7_linear_1394_7889" x1="15.0578" y1="75" x2="26.2747" y2="98.9436" gradientUnits="userSpaceOnUse">
<stop stop-color="#96C2FD"/>
<stop offset="1" stop-color="#6D9FE7"/>
</linearGradient>
<linearGradient id="paint8_linear_1394_7889" x1="19.9866" y1="46.1783" x2="30.1021" y2="36.024" gradientUnits="userSpaceOnUse">
<stop stop-color="#295296"/>
<stop offset="1" stop-color="#3E78D3"/>
</linearGradient>
<linearGradient id="paint9_linear_1394_7889" x1="37.1153" y1="49.0889" x2="55.4875" y2="75.391" gradientUnits="userSpaceOnUse">
<stop stop-color="#70B1FF"/>
<stop offset="1" stop-color="#005CCD"/>
</linearGradient>
<linearGradient id="paint10_linear_1394_7889" x1="69.3195" y1="65.1849" x2="76.8434" y2="35.0607" gradientUnits="userSpaceOnUse">
<stop stop-color="#295296"/>
<stop offset="1" stop-color="#3E78D3"/>
</linearGradient>
</defs>
</svg>
