<svg width="48" height="48" viewBox="0 0 48 48" fill="none" xmlns="http://www.w3.org/2000/svg">
<path opacity="0.45" d="M33 42H7V7H33V42ZM20 36C18.8954 36 18 36.8954 18 38C18 39.1046 18.8954 40 20 40C21.1046 40 22 39.1046 22 38C22 36.8954 21.1046 36 20 36Z" fill="url(#paint0_linear_1394_7903)"/>
<path d="M33 28.398C33.4224 28.5678 33.8568 28.7006 34.299 28.7995C34.7974 28.911 35.2737 28.9712 35.7168 28.992C35.8781 28.9996 36.0264 29.0015 36.1603 28.9989C36.2351 28.9971 36.24 28.997 36.2901 28.9948C41.0884 28.9655 45 25.1905 45 20.4975C45 15.7864 41.0577 12 36.234 12C35.0625 12 33.9895 12.2269 33 12.6627L33 17.5006C34.0359 16.3939 34.9765 16 36.234 16C38.8838 16 41 18.0325 41 20.4975C41 22.9627 38.884 24.9949 36.234 24.9949L36.0845 25.0005C36.0363 25.0005 35.976 24.9998 35.9046 24.9964C35.6827 24.986 35.4341 24.9546 35.1719 24.8959C34.4358 24.7313 33.7663 24.3951 33.2175 23.8423L33 24.0582V28.398H33Z" fill="url(#paint1_linear_1394_7903)"/>
<path fill-rule="evenodd" clip-rule="evenodd" d="M33 12.6627V17.5006C32.1952 18.3605 31.3327 19.6506 30.2194 21.5206C28.6822 24.1026 27.9419 25.1998 26.7778 26.3731C25.0928 28.0715 23.1299 28.995 20.766 28.995C15.9425 28.995 12 25.2087 12 20.4975C12 15.7866 15.9427 12.0001 20.741 12.0002C21.2018 11.9944 21.8792 12.0631 22.6958 12.2759C24.0358 12.6252 25.3271 13.2706 26.4616 14.29L23.7881 17.2653C23.163 16.7036 22.4427 16.3436 21.6868 16.1466C21.2458 16.0316 20.9171 15.9983 20.766 16.0001C18.1165 16.0001 16 18.0327 16 20.4975C16 22.9626 18.1163 24.995 20.766 24.995C23.0021 24.995 24.2364 23.7509 26.7833 19.4729C28.3202 16.8914 29.0603 15.7945 30.2241 14.6214C31.0735 13.7652 31.9935 13.1059 33 12.6627Z" fill="url(#paint2_linear_1394_7903)"/>
<path fill-rule="evenodd" clip-rule="evenodd" d="M33 24.0582V28.398C32.0502 28.0163 31.1609 27.4481 30.3789 26.6604L33 24.0582V24.0582Z" fill="url(#paint3_linear_1394_7903)"/>
<defs>
<linearGradient id="paint0_linear_1394_7903" x1="18.6261" y1="0.261884" x2="-3.94578" y2="20.4189" gradientUnits="userSpaceOnUse">
<stop stop-color="#70B1FF"/>
<stop offset="1" stop-color="#005CCD"/>
</linearGradient>
<linearGradient id="paint1_linear_1394_7903" x1="30.9386" y1="16.1193" x2="40.3789" y2="28.153" gradientUnits="userSpaceOnUse">
<stop stop-color="#A0C5F2"/>
<stop offset="1" stop-color="#92BAEC"/>
</linearGradient>
<linearGradient id="paint2_linear_1394_7903" x1="22.6356" y1="44.3381" x2="45.8469" y2="15.5889" gradientUnits="userSpaceOnUse">
<stop stop-color="#295296"/>
<stop offset="1" stop-color="#3E78D3"/>
</linearGradient>
<linearGradient id="paint3_linear_1394_7903" x1="31.7064" y1="32.316" x2="37.0789" y2="29.0634" gradientUnits="userSpaceOnUse">
<stop stop-color="#295296"/>
<stop offset="1" stop-color="#3E78D3"/>
</linearGradient>
</defs>
</svg>
