<svg width="48" height="48" viewBox="0 0 48 48" fill="none" xmlns="http://www.w3.org/2000/svg">
<path opacity="0.3" fill-rule="evenodd" clip-rule="evenodd" d="M22 45C31.9411 45 40 36.9411 40 27C40 17.0589 31.9411 9 22 9C12.0589 9 4 17.0589 4 27C4 36.9411 12.0589 45 22 45Z" fill="url(#paint0_linear_1394_7923)"/>
<path opacity="0.3" fill-rule="evenodd" clip-rule="evenodd" d="M26 40C35.9411 40 44 31.9411 44 22C44 12.0589 35.9411 4 26 4C16.0589 4 8 12.0589 8 22C8 31.9411 16.0589 40 26 40Z" fill="url(#paint1_linear_1394_7923)"/>
<path fill-rule="evenodd" clip-rule="evenodd" d="M10.1614 13.4406C13.326 10.6754 17.4673 9 22 9C31.9411 9 40 17.0589 40 27C40 30.0983 39.2172 33.0137 37.8386 35.5594C34.674 38.3246 30.5327 40 26 40C16.0589 40 8 31.9411 8 22C8 18.9017 8.78279 15.9863 10.1614 13.4406Z" fill="url(#paint2_linear_1394_7923)"/>
<path fill-rule="evenodd" clip-rule="evenodd" d="M24 34C25.1046 34 26 33.1046 26 32C26 30.8954 25.1046 30 24 30C22.8954 30 22 30.8954 22 32C22 33.1046 22.8954 34 24 34Z" fill="url(#paint3_linear_1394_7923)"/>
<path fill-rule="evenodd" clip-rule="evenodd" d="M16 26.6181C18.2454 24.9714 21.0101 24 24 24C26.9899 24 29.7546 24.9714 32 26.6181L30.1084 29C28.3828 27.7693 26.2752 27.046 24 27.046C21.7248 27.046 19.6172 27.7693 17.8916 29L16 26.6181H16Z" fill="url(#paint4_linear_1394_7923)"/>
<path fill-rule="evenodd" clip-rule="evenodd" d="M12 20.7547C15.3671 18.3933 19.5145 17 24 17C28.4855 17 32.6329 18.3933 36 20.7547L34.1332 23C31.2789 21.0309 27.7801 19.8717 24 19.8717C20.2199 19.8717 16.7211 21.0309 13.8668 23L12 20.7547H12Z" fill="url(#paint5_linear_1394_7923)"/>
<defs>
<linearGradient id="paint0_linear_1394_7923" x1="53.535" y1="27" x2="17.535" y2="-0.0699473" gradientUnits="userSpaceOnUse">
<stop stop-color="#70B1FF"/>
<stop offset="1" stop-color="#005CCD"/>
</linearGradient>
<linearGradient id="paint1_linear_1394_7923" x1="57.535" y1="22" x2="21.535" y2="-5.06995" gradientUnits="userSpaceOnUse">
<stop stop-color="#70B1FF"/>
<stop offset="1" stop-color="#005CCD"/>
</linearGradient>
<linearGradient id="paint2_linear_1394_7923" x1="49.5231" y1="22.8067" x2="22.4678" y2="-0.573182" gradientUnits="userSpaceOnUse">
<stop stop-color="#A7CAFB"/>
<stop offset="1" stop-color="#80A9E5"/>
</linearGradient>
<linearGradient id="paint3_linear_1394_7923" x1="21.8609" y1="42.3722" x2="31.0858" y2="33.8275" gradientUnits="userSpaceOnUse">
<stop stop-color="#295296"/>
<stop offset="1" stop-color="#3E78D3"/>
</linearGradient>
<linearGradient id="paint4_linear_1394_7923" x1="15.4436" y1="39.4653" x2="22.4497" y2="18.699" gradientUnits="userSpaceOnUse">
<stop stop-color="#295296"/>
<stop offset="1" stop-color="#3E78D3"/>
</linearGradient>
<linearGradient id="paint5_linear_1394_7923" x1="11.1654" y1="35.5583" x2="18.1481" y2="9.68697" gradientUnits="userSpaceOnUse">
<stop stop-color="#295296"/>
<stop offset="1" stop-color="#3E78D3"/>
</linearGradient>
</defs>
</svg>
