<svg width="48" height="48" viewBox="0 0 48 48" fill="none" xmlns="http://www.w3.org/2000/svg">
<path opacity="0.45" fill-rule="evenodd" clip-rule="evenodd" d="M21 5H34L42 13V34H21V5Z" fill="url(#paint0_linear_1394_7937)"/>
<path fill-rule="evenodd" clip-rule="evenodd" d="M34 5L42 13H34V5Z" fill="url(#paint1_linear_1394_7937)"/>
<path opacity="0.6" fill-rule="evenodd" clip-rule="evenodd" d="M18 22C22.4183 22 26 25.5817 26 30C26 34.4183 22.4183 38 18 38C13.5817 38 10 34.4183 10 30C10 28.3582 10.4946 26.8319 11.3429 25.5619L6.35006 22.2334C4.86552 24.4558 4 27.1268 4 30C4 37.732 10.268 44 18 44C25.732 44 32 37.732 32 30C32 22.268 25.732 16 18 16V13L10 19L18 25V22Z" fill="url(#paint2_linear_1394_7937)"/>
<path fill-rule="evenodd" clip-rule="evenodd" d="M31.4202 34.0001H24.9297C25.6104 32.8234 26 31.4572 26 30.0001C26 26.6427 23.9318 23.7684 21 22.5816V16.3223C27.2904 17.6956 32 23.2978 32 30.0001C32 31.39 31.7974 32.7327 31.4202 34.0001V34.0001Z" fill="url(#paint3_linear_1394_7937)"/>
<defs>
<linearGradient id="paint0_linear_1394_7937" x1="33.4882" y1="47.1272" x2="59.2281" y2="26.5387" gradientUnits="userSpaceOnUse">
<stop stop-color="#70B1FF"/>
<stop offset="1" stop-color="#005CCD"/>
</linearGradient>
<linearGradient id="paint1_linear_1394_7937" x1="52.9802" y1="10.5987" x2="40.1557" y2="-4.81306" gradientUnits="userSpaceOnUse">
<stop stop-color="#295296"/>
<stop offset="1" stop-color="#3E78D3"/>
</linearGradient>
<linearGradient id="paint2_linear_1394_7937" x1="18" y1="59.5" x2="48.8401" y2="31.6444" gradientUnits="userSpaceOnUse">
<stop stop-color="#70B1FF"/>
<stop offset="1" stop-color="#005CCD"/>
</linearGradient>
<linearGradient id="paint3_linear_1394_7937" x1="37.5" y1="25.1612" x2="21.6406" y2="15.2927" gradientUnits="userSpaceOnUse">
<stop stop-color="#5C95EA"/>
<stop offset="1" stop-color="#4F88E0"/>
</linearGradient>
</defs>
</svg>
