<svg width="48" height="48" viewBox="0 0 48 48" fill="none" xmlns="http://www.w3.org/2000/svg">
<path opacity="0.45" fill-rule="evenodd" clip-rule="evenodd" d="M13 4H28L36 12V35H13V4Z" fill="url(#paint0_linear_1394_7949)"/>
<path opacity="0.5" fill-rule="evenodd" clip-rule="evenodd" d="M24 45L18 37H21V19H27V37H30L24 45Z" fill="url(#paint1_linear_1394_7949)"/>
<path fill-rule="evenodd" clip-rule="evenodd" d="M21 35V37H18L24 45L30 37H27V35H21V35Z" fill="url(#paint2_linear_1394_7949)"/>
<path fill-rule="evenodd" clip-rule="evenodd" d="M28 4L36 12H28V4Z" fill="url(#paint3_linear_1394_7949)"/>
<rect x="21" y="19" width="6" height="16" fill="url(#paint4_linear_1394_7949)"/>
<defs>
<linearGradient id="paint0_linear_1394_7949" x1="26.6776" y1="49.0325" x2="54.332" y2="26.369" gradientUnits="userSpaceOnUse">
<stop stop-color="#70B1FF"/>
<stop offset="1" stop-color="#005CCD"/>
</linearGradient>
<linearGradient id="paint1_linear_1394_7949" x1="24" y1="6" x2="43.7854" y2="15.1317" gradientUnits="userSpaceOnUse">
<stop stop-color="#70B1FF"/>
<stop offset="1" stop-color="#005CCD"/>
</linearGradient>
<linearGradient id="paint2_linear_1394_7949" x1="18.4181" y1="35" x2="18.4181" y2="44.3032" gradientUnits="userSpaceOnUse">
<stop stop-color="#97C0F1"/>
<stop offset="1" stop-color="#85B2E9"/>
</linearGradient>
<linearGradient id="paint3_linear_1394_7949" x1="30.7574" y1="13.6213" x2="34" y2="9.62129" gradientUnits="userSpaceOnUse">
<stop stop-color="#74A6F0"/>
<stop offset="1" stop-color="#6295E3"/>
</linearGradient>
<linearGradient id="paint4_linear_1394_7949" x1="29.559" y1="-3.7832" x2="29.559" y2="44.0378" gradientUnits="userSpaceOnUse">
<stop stop-color="#295296"/>
<stop offset="1" stop-color="#3E78D3"/>
</linearGradient>
</defs>
</svg>
