<svg width="48" height="48" viewBox="0 0 48 48" fill="none" xmlns="http://www.w3.org/2000/svg">
<path opacity="0.45" fill-rule="evenodd" clip-rule="evenodd" d="M19 4H34L42 12V35H19V4Z" fill="url(#paint0_linear_1394_7963)"/>
<path fill-rule="evenodd" clip-rule="evenodd" d="M34 4L42 12H34V4Z" fill="url(#paint1_linear_1394_7963)"/>
<rect opacity="0.45" x="6" y="23" width="31" height="19" fill="url(#paint2_linear_1394_7963)"/>
<path fill-rule="evenodd" clip-rule="evenodd" d="M37 35H19V23H37V35Z" fill="url(#paint3_linear_1394_7963)"/>
<path opacity="0.55" fill-rule="evenodd" clip-rule="evenodd" d="M6 17H17.5023L20.5 20.0612L37 20V23H6V17Z" fill="url(#paint4_linear_1394_7963)"/>
<path d="M19 23.0001V18.5295L20.5 20.0613L37 20.0001V23.0001H19Z" fill="url(#paint5_linear_1394_7963)"/>
<defs>
<linearGradient id="paint0_linear_1394_7963" x1="32.6776" y1="49.0325" x2="60.332" y2="26.369" gradientUnits="userSpaceOnUse">
<stop stop-color="#70B1FF"/>
<stop offset="1" stop-color="#005CCD"/>
</linearGradient>
<linearGradient id="paint1_linear_1394_7963" x1="52.9802" y1="9.59866" x2="40.1557" y2="-5.81306" gradientUnits="userSpaceOnUse">
<stop stop-color="#295296"/>
<stop offset="1" stop-color="#3E78D3"/>
</linearGradient>
<linearGradient id="paint2_linear_1394_7963" x1="-9.5" y1="23" x2="-9.5" y2="42" gradientUnits="userSpaceOnUse">
<stop stop-color="#70B1FF"/>
<stop offset="1" stop-color="#005CCD"/>
</linearGradient>
<linearGradient id="paint3_linear_1394_7963" x1="10" y1="29" x2="21.0769" y2="45.6154" gradientUnits="userSpaceOnUse">
<stop stop-color="#86B5FB"/>
<stop offset="1" stop-color="#71A6F3"/>
</linearGradient>
<linearGradient id="paint4_linear_1394_7963" x1="23.8206" y1="14.8983" x2="21.1894" y2="26.4576" gradientUnits="userSpaceOnUse">
<stop stop-color="#70B1FF"/>
<stop offset="1" stop-color="#005CCD"/>
</linearGradient>
<linearGradient id="paint5_linear_1394_7963" x1="29.3475" y1="16.9636" x2="26.9094" y2="25.3104" gradientUnits="userSpaceOnUse">
<stop stop-color="#77A8EF"/>
<stop offset="1" stop-color="#5590E6"/>
</linearGradient>
</defs>
</svg>
