<svg width="96" height="96" viewBox="0 0 96 96" fill="none" xmlns="http://www.w3.org/2000/svg">
<path opacity="0.4" fill-rule="evenodd" clip-rule="evenodd" d="M29 12H59L75 28V74H29V12Z" fill="url(#paint0_linear_1394_8001)"/>
<path fill-rule="evenodd" clip-rule="evenodd" d="M59 12L75 28H59V12Z" fill="url(#paint1_linear_1394_8001)"/>
<path opacity="0.5" fill-rule="evenodd" clip-rule="evenodd" d="M29 65C37.8366 65 45 57.8366 45 49C45 40.1634 37.8366 33 29 33C20.1634 33 13 40.1634 13 49C13 57.8366 20.1634 65 29 65Z" fill="url(#paint2_linear_1394_8001)"/>
<path opacity="0.45" fill-rule="evenodd" clip-rule="evenodd" d="M21 49H37V86L29 79L21 86V49Z" fill="url(#paint3_linear_1394_8001)"/>
<path fill-rule="evenodd" clip-rule="evenodd" d="M29 57C33.4183 57 37 53.4183 37 49C37 44.5817 33.4183 41 29 41C24.5817 41 21 44.5817 21 49C21 53.4183 24.5817 57 29 57Z" fill="url(#paint4_linear_1394_8001)"/>
<defs>
<linearGradient id="paint0_linear_1394_8001" x1="56.3552" y1="102.065" x2="111.664" y2="56.738" gradientUnits="userSpaceOnUse">
<stop stop-color="#70B1FF"/>
<stop offset="1" stop-color="#005CCD"/>
</linearGradient>
<linearGradient id="paint1_linear_1394_8001" x1="96.9604" y1="23.1973" x2="71.3113" y2="-7.62611" gradientUnits="userSpaceOnUse">
<stop stop-color="#295296"/>
<stop offset="1" stop-color="#3E78D3"/>
</linearGradient>
<linearGradient id="paint2_linear_1394_8001" x1="53.4781" y1="47.8781" x2="27.0469" y2="19.7844" gradientUnits="userSpaceOnUse">
<stop stop-color="#70B1FF"/>
<stop offset="1" stop-color="#005CCD"/>
</linearGradient>
<linearGradient id="paint3_linear_1394_8001" x1="13.5057" y1="69.8391" x2="39.3119" y2="80.293" gradientUnits="userSpaceOnUse">
<stop stop-color="#70B1FF"/>
<stop offset="1" stop-color="#005CCD"/>
</linearGradient>
<linearGradient id="paint4_linear_1394_8001" x1="12.2344" y1="49" x2="28.2344" y2="66.5313" gradientUnits="userSpaceOnUse">
<stop stop-color="#295296"/>
<stop offset="1" stop-color="#3E78D3"/>
</linearGradient>
</defs>
</svg>
