<svg width="48" height="48" viewBox="0 0 48 48" fill="none" xmlns="http://www.w3.org/2000/svg">
<path opacity="0.45" d="M21 21H2V2H21V21ZM9 9V14H14V9H9Z" fill="url(#paint0_linear_1394_8007)"/>
<path opacity="0.45" d="M33 33H14V14H33V33ZM21 21V26H26V21H21Z" fill="url(#paint1_linear_1394_8007)"/>
<rect opacity="0.5" x="26" y="26" width="19" height="19" fill="url(#paint2_linear_1394_8007)"/>
<path opacity="0.5" fill-rule="evenodd" clip-rule="evenodd" d="M39 9.99984V9.99976C40.6569 9.99971 42 11.3428 42.0001 12.9997V12.9998L42 36.1562L39 41.9999L36 36.1562L36.0001 12.9999C36.0001 11.3431 37.3432 9.99996 39 9.99992V9.99984Z" fill="url(#paint3_linear_1394_8007)"/>
<path fill-rule="evenodd" clip-rule="evenodd" d="M36 26H42V36.2941L39 42L36 36.2941V26Z" fill="url(#paint4_linear_1394_8007)"/>
<defs>
<linearGradient id="paint0_linear_1394_8007" x1="33.0082" y1="9.38167" x2="9.77158" y2="-14.6348" gradientUnits="userSpaceOnUse">
<stop stop-color="#70B1FF"/>
<stop offset="1" stop-color="#005CCD"/>
</linearGradient>
<linearGradient id="paint1_linear_1394_8007" x1="45.0082" y1="21.3817" x2="21.7716" y2="-2.63479" gradientUnits="userSpaceOnUse">
<stop stop-color="#70B1FF"/>
<stop offset="1" stop-color="#005CCD"/>
</linearGradient>
<linearGradient id="paint2_linear_1394_8007" x1="57.0082" y1="33.3817" x2="33.7716" y2="9.36521" gradientUnits="userSpaceOnUse">
<stop stop-color="#70B1FF"/>
<stop offset="1" stop-color="#005CCD"/>
</linearGradient>
<linearGradient id="paint3_linear_1394_8007" x1="38.2846" y1="64.5972" x2="51.2986" y2="62.2826" gradientUnits="userSpaceOnUse">
<stop stop-color="#70B1FF"/>
<stop offset="1" stop-color="#005CCD"/>
</linearGradient>
<linearGradient id="paint4_linear_1394_8007" x1="39.0387" y1="56.4447" x2="53.7638" y2="50.9097" gradientUnits="userSpaceOnUse">
<stop stop-color="#295296"/>
<stop offset="1" stop-color="#3E78D3"/>
</linearGradient>
</defs>
</svg>
