<svg width="48" height="48" viewBox="0 0 48 48" fill="none" xmlns="http://www.w3.org/2000/svg">
<path opacity="0.35" fill-rule="evenodd" clip-rule="evenodd" d="M5 7H13C14.1046 7 15 7.89543 15 9V26C15 27.1046 14.1046 28 13 28H5C3.89543 28 3 27.1046 3 26V9C3 7.89543 3.89543 7 5 7Z" fill="url(#paint0_linear_1394_8025)"/>
<path fill-rule="evenodd" clip-rule="evenodd" d="M15 15V26C15 27.1046 14.1046 28 13 28H7V16.5C7 15.6716 7.67157 15 8.5 15H15Z" fill="url(#paint1_linear_1394_8025)"/>
<path opacity="0.35" fill-rule="evenodd" clip-rule="evenodd" d="M3 24H15V26C15 27.1046 14.1046 28 13 28H5C3.89543 28 3 27.1046 3 26V24Z" fill="url(#paint2_linear_1394_8025)"/>
<path opacity="0.35" fill-rule="evenodd" clip-rule="evenodd" d="M5 7H13C14.1046 7 15 7.89543 15 9V10H3V9C3 7.89543 3.89543 7 5 7Z" fill="url(#paint3_linear_1394_8025)"/>
<path opacity="0.35" fill-rule="evenodd" clip-rule="evenodd" d="M8.5 15H43.5C44.3284 15 45 15.6716 45 16.5V36.5C45 37.3284 44.3284 38 43.5 38H8.5C7.67157 38 7 37.3284 7 36.5V16.5C7 15.6716 7.67157 15 8.5 15Z" fill="url(#paint4_linear_1394_8025)"/>
<path fill-rule="evenodd" clip-rule="evenodd" d="M7 24H15V26C15 27.1046 14.1046 28 13 28H7L7 24Z" fill="url(#paint5_linear_1394_8025)"/>
<path opacity="0.5" fill-rule="evenodd" clip-rule="evenodd" d="M22.25 38H29.75L31 44H21L22.25 38Z" fill="url(#paint6_linear_1394_8025)"/>
<path fill-rule="evenodd" clip-rule="evenodd" d="M7 34H45V36.5C45 37.3284 44.3284 38 43.5 38H8.5C7.67157 38 7 37.3284 7 36.5V34Z" fill="url(#paint7_linear_1394_8025)"/>
<path opacity="0.45" fill-rule="evenodd" clip-rule="evenodd" d="M31 2L25 10H28V28L34 28V10H37L31 2Z" fill="url(#paint8_linear_1394_8025)"/>
<rect x="28" y="15" width="6" height="13" fill="url(#paint9_linear_1394_8025)"/>
<defs>
<linearGradient id="paint0_linear_1394_8025" x1="10.1361" y1="37.5059" x2="27.3836" y2="26.6195" gradientUnits="userSpaceOnUse">
<stop stop-color="#70B1FF"/>
<stop offset="1" stop-color="#005CCD"/>
</linearGradient>
<linearGradient id="paint1_linear_1394_8025" x1="9.67653" y1="30.1987" x2="19.5793" y2="26.121" gradientUnits="userSpaceOnUse">
<stop stop-color="#9DC5FB"/>
<stop offset="1" stop-color="#8DB7F3"/>
</linearGradient>
<linearGradient id="paint2_linear_1394_8025" x1="10.1361" y1="29.8106" x2="12.1492" y2="23.1397" gradientUnits="userSpaceOnUse">
<stop stop-color="#70B1FF"/>
<stop offset="1" stop-color="#005CCD"/>
</linearGradient>
<linearGradient id="paint3_linear_1394_8025" x1="10.1361" y1="11.358" x2="11.3114" y2="6.16516" gradientUnits="userSpaceOnUse">
<stop stop-color="#70B1FF"/>
<stop offset="1" stop-color="#005CCD"/>
</linearGradient>
<linearGradient id="paint4_linear_1394_8025" x1="-7.83645" y1="26.2093" x2="13.5928" y2="56.4088" gradientUnits="userSpaceOnUse">
<stop stop-color="#70B1FF"/>
<stop offset="1" stop-color="#005CCD"/>
</linearGradient>
<linearGradient id="paint5_linear_1394_8025" x1="11" y1="30" x2="14.2" y2="23.6" gradientUnits="userSpaceOnUse">
<stop stop-color="#72A9F8"/>
<stop offset="1" stop-color="#5892E6"/>
</linearGradient>
<linearGradient id="paint6_linear_1394_8025" x1="24.0708" y1="32.685" x2="19.4606" y2="43.3335" gradientUnits="userSpaceOnUse">
<stop stop-color="#70B1FF"/>
<stop offset="1" stop-color="#005CCD"/>
</linearGradient>
<linearGradient id="paint7_linear_1394_8025" x1="26" y1="32" x2="25.1671" y2="39.9123" gradientUnits="userSpaceOnUse">
<stop stop-color="#7DACEE"/>
<stop offset="1" stop-color="#6D9FE7"/>
</linearGradient>
<linearGradient id="paint8_linear_1394_8025" x1="37" y1="28" x2="37" y2="2" gradientUnits="userSpaceOnUse">
<stop stop-color="#70B1FF"/>
<stop offset="1" stop-color="#005CCD"/>
</linearGradient>
<linearGradient id="paint9_linear_1394_8025" x1="31.9004" y1="45.117" x2="47.1765" y2="35.1054" gradientUnits="userSpaceOnUse">
<stop stop-color="#295296"/>
<stop offset="1" stop-color="#3E78D3"/>
</linearGradient>
</defs>
</svg>
