<svg width="96" height="96" viewBox="0 0 96 96" fill="none" xmlns="http://www.w3.org/2000/svg">
<path opacity="0.35" fill-rule="evenodd" clip-rule="evenodd" d="M20 28H86C87.6569 28 89 29.3431 89 31V71C89 72.6569 87.6569 74 86 74H20C18.3431 74 17 72.6569 17 71V31C17 29.3431 18.3431 28 20 28Z" fill="url(#paint0_linear_1394_8036)"/>
<path opacity="0.5" fill-rule="evenodd" clip-rule="evenodd" d="M45.5 74H60.5L63 88H43L45.5 74Z" fill="url(#paint1_linear_1394_8036)"/>
<path fill-rule="evenodd" clip-rule="evenodd" d="M17 67H89V71C89 72.6569 87.6569 74 86 74H20C18.3431 74 17 72.6569 17 71V67Z" fill="url(#paint2_linear_1394_8036)"/>
<path opacity="0.4" fill-rule="evenodd" clip-rule="evenodd" d="M11 11H29C30.6569 11 32 12.3431 32 14V52C32 53.6569 30.6569 55 29 55H11C9.34315 55 8 53.6569 8 52L8 14C8 12.3431 9.34315 11 11 11Z" fill="url(#paint3_linear_1394_8036)"/>
<path opacity="0.45" fill-rule="evenodd" clip-rule="evenodd" d="M75 12C56.2223 12 41 27.2223 41 46H49C49 31.6406 60.6406 20 75 20V25L89 16L75 7V12Z" fill="url(#paint4_linear_1394_8036)"/>
<path fill-rule="evenodd" clip-rule="evenodd" d="M46.1502 28H56.2383C51.7552 32.6716 49 39.014 49 46H41C41 39.3898 42.8864 33.2201 46.1502 28V28Z" fill="url(#paint5_linear_1394_8036)"/>
<path opacity="0.3" fill-rule="evenodd" clip-rule="evenodd" d="M8 46H32V52C32 53.6569 30.6569 55 29 55H11C9.34315 55 8 53.6569 8 52L8 46Z" fill="url(#paint6_linear_1394_8036)"/>
<path fill-rule="evenodd" clip-rule="evenodd" d="M17 55V46H32V52C32 53.6569 30.6569 55 29 55H17Z" fill="url(#paint7_linear_1394_8036)"/>
<defs>
<linearGradient id="paint0_linear_1394_8036" x1="49.1954" y1="19.1442" x2="24.4501" y2="65.7051" gradientUnits="userSpaceOnUse">
<stop stop-color="#70B1FF"/>
<stop offset="1" stop-color="#005CCD"/>
</linearGradient>
<linearGradient id="paint1_linear_1394_8036" x1="49.1417" y1="61.5984" x2="37.2683" y2="85.1048" gradientUnits="userSpaceOnUse">
<stop stop-color="#70B1FF"/>
<stop offset="1" stop-color="#005CCD"/>
</linearGradient>
<linearGradient id="paint2_linear_1394_8036" x1="53" y1="63.5" x2="51.6516" y2="77.3689" gradientUnits="userSpaceOnUse">
<stop stop-color="#95C0FC"/>
<stop offset="1" stop-color="#5C8EDA"/>
</linearGradient>
<linearGradient id="paint3_linear_1394_8036" x1="18.7318" y1="2.52923" x2="-7.45886" y2="19.7027" gradientUnits="userSpaceOnUse">
<stop stop-color="#70B1FF"/>
<stop offset="1" stop-color="#005CCD"/>
</linearGradient>
<linearGradient id="paint4_linear_1394_8036" x1="94.996" y1="-13.1532" x2="38.6292" y2="11.4572" gradientUnits="userSpaceOnUse">
<stop stop-color="#70B1FF"/>
<stop offset="1" stop-color="#005CCD"/>
</linearGradient>
<linearGradient id="paint5_linear_1394_8036" x1="46.5268" y1="81.6411" x2="77.8804" y2="48.4344" gradientUnits="userSpaceOnUse">
<stop stop-color="#295296"/>
<stop offset="1" stop-color="#3E78D3"/>
</linearGradient>
<linearGradient id="paint6_linear_1394_8036" x1="18.7318" y1="44.2673" x2="15.4106" y2="54.9141" gradientUnits="userSpaceOnUse">
<stop stop-color="#70B1FF"/>
<stop offset="1" stop-color="#005CCD"/>
</linearGradient>
<linearGradient id="paint7_linear_1394_8036" x1="25.4089" y1="70.3992" x2="35.3333" y2="47.4409" gradientUnits="userSpaceOnUse">
<stop stop-color="#295296"/>
<stop offset="1" stop-color="#3E78D3"/>
</linearGradient>
</defs>
</svg>
