<svg width="48" height="48" viewBox="0 0 48 48" fill="none" xmlns="http://www.w3.org/2000/svg">
<path opacity="0.45" d="M41 41H7V7H41V41ZM24 27C22.3431 27 21 28.3431 21 30C21 31.6569 22.3431 33 24 33C25.6569 33 27 31.6569 27 30C27 28.3431 25.6569 27 24 27ZM33 17C31.3431 17 30 18.3431 30 20C30 21.6569 31.3431 23 33 23C34.6569 23 36 21.6569 36 20C36 18.3431 34.6569 17 33 17Z" fill="url(#paint0_linear_1394_8045)"/>
<path fill-rule="evenodd" clip-rule="evenodd" d="M35 17.7639V11H31V17.7639C31.5308 17.2889 32.2316 17 33 17C33.7684 17 34.4692 17.2889 35 17.7639V17.7639ZM35 22.2361V37H31V22.2361C31.5308 22.7111 32.2316 23 33 23C33.7684 23 34.4692 22.7111 35 22.2361V22.2361Z" fill="url(#paint1_linear_1394_8045)"/>
<path fill-rule="evenodd" clip-rule="evenodd" d="M26 27.7639V11H22V27.7639C22.5308 27.2889 23.2316 27 24 27C24.7684 27 25.4692 27.2889 26 27.7639V27.7639ZM26 32.2361V37H22V32.2361C22.5308 32.7111 23.2316 33 24 33C24.7684 33 25.4692 32.7111 26 32.2361V32.2361Z" fill="url(#paint2_linear_1394_8045)"/>
<rect x="13" y="11" width="4" height="26" fill="url(#paint3_linear_1394_8045)"/>
<path fill-rule="evenodd" clip-rule="evenodd" d="M15 21C16.6569 21 18 19.6569 18 18C18 16.3431 16.6569 15 15 15C13.3431 15 12 16.3431 12 18C12 19.6569 13.3431 21 15 21Z" fill="url(#paint4_linear_1394_8045)"/>
<defs>
<linearGradient id="paint0_linear_1394_8045" x1="41" y1="7" x2="7" y2="7" gradientUnits="userSpaceOnUse">
<stop stop-color="#70B1FF"/>
<stop offset="1" stop-color="#005CCD"/>
</linearGradient>
<linearGradient id="paint1_linear_1394_8045" x1="29" y1="24" x2="36.815" y2="25.2023" gradientUnits="userSpaceOnUse">
<stop stop-color="#7CAFF9"/>
<stop offset="1" stop-color="#538CE2"/>
</linearGradient>
<linearGradient id="paint2_linear_1394_8045" x1="24" y1="50" x2="31.815" y2="48.7977" gradientUnits="userSpaceOnUse">
<stop stop-color="#72A6F3"/>
<stop offset="1" stop-color="#4D85DC"/>
</linearGradient>
<linearGradient id="paint3_linear_1394_8045" x1="11" y1="24" x2="18.815" y2="25.2023" gradientUnits="userSpaceOnUse">
<stop stop-color="#689DED"/>
<stop offset="1" stop-color="#467ED7"/>
</linearGradient>
<linearGradient id="paint4_linear_1394_8045" x1="17.0443" y1="24.8418" x2="26.5198" y2="16.4166" gradientUnits="userSpaceOnUse">
<stop stop-color="#295296"/>
<stop offset="1" stop-color="#3E78D3"/>
</linearGradient>
</defs>
</svg>
