<svg width="96" height="96" viewBox="0 0 96 96" fill="none" xmlns="http://www.w3.org/2000/svg">
<rect opacity="0.45" x="13" y="23" width="64" height="41" fill="url(#paint0_linear_1394_8086)"/>
<path opacity="0.55" fill-rule="evenodd" clip-rule="evenodd" d="M13 10H36.0046L42 16L77 16.0736V23H13V10Z" fill="url(#paint1_linear_1394_8086)"/>
<path opacity="0.5" d="M77 74H49.5C45.3579 74 42 70.6421 42 66.5C42 62.3579 45.3579 59 49.5 59H58C65.732 59 72 52.732 72 45C72 37.268 65.732 31 58 31H30V26L17 35L30 44V39H58C61.3137 39 64 41.6863 64 45C64 48.3137 61.3137 51 58 51H49.5C40.9396 51 34 57.9396 34 66.5C34 75.0604 40.9396 82 49.5 82H77V87L90 78L77 69V74Z" fill="url(#paint2_linear_1394_8086)"/>
<path fill-rule="evenodd" clip-rule="evenodd" d="M42.4268 64H34.2006C35.3959 56.6283 41.7907 51 49.5 51H58C61.3137 51 64 48.3137 64 45C64 41.6863 61.3137 39 58 39H30V44L17 35L30 26V31H58C65.732 31 72 37.268 72 45C72 52.732 65.732 59 58 59H49.5C46.2345 59 43.4564 61.087 42.4268 64V64Z" fill="url(#paint3_linear_1394_8086)"/>
<path fill-rule="evenodd" clip-rule="evenodd" d="M56 39H30V44L17 35L30 26V31H56V39Z" fill="url(#paint4_linear_1394_8086)"/>
<defs>
<linearGradient id="paint0_linear_1394_8086" x1="-19" y1="23" x2="-19" y2="64" gradientUnits="userSpaceOnUse">
<stop stop-color="#70B1FF"/>
<stop offset="1" stop-color="#005CCD"/>
</linearGradient>
<linearGradient id="paint1_linear_1394_8086" x1="49.791" y1="5.44635" x2="43.8377" y2="30.3669" gradientUnits="userSpaceOnUse">
<stop stop-color="#70B1FF"/>
<stop offset="1" stop-color="#005CCD"/>
</linearGradient>
<linearGradient id="paint2_linear_1394_8086" x1="23.9267" y1="39.9729" x2="49.1204" y2="93.2946" gradientUnits="userSpaceOnUse">
<stop stop-color="#70B1FF"/>
<stop offset="1" stop-color="#005CCD"/>
</linearGradient>
<linearGradient id="paint3_linear_1394_8086" x1="34.1272" y1="36.1966" x2="37.905" y2="67.1799" gradientUnits="userSpaceOnUse">
<stop stop-color="#7DAFF9"/>
<stop offset="1" stop-color="#598EE0"/>
</linearGradient>
<linearGradient id="paint4_linear_1394_8086" x1="30.5667" y1="63.3363" x2="50.3546" y2="21.8609" gradientUnits="userSpaceOnUse">
<stop stop-color="#295296"/>
<stop offset="1" stop-color="#3E78D3"/>
</linearGradient>
</defs>
</svg>
