<svg width="48" height="48" viewBox="0 0 48 48" fill="none" xmlns="http://www.w3.org/2000/svg">
<path opacity="0.35" fill-rule="evenodd" clip-rule="evenodd" d="M35 14H20V43H43V22L35 14Z" fill="url(#paint0_linear_1394_8140)"/>
<path fill-rule="evenodd" clip-rule="evenodd" d="M43 22H35V14L43 22Z" fill="url(#paint1_linear_1394_8140)"/>
<path opacity="0.45" fill-rule="evenodd" clip-rule="evenodd" d="M23 2L17 10H20V39H26V10H29L23 2Z" fill="url(#paint2_linear_1394_8140)"/>
<path opacity="0.45" fill-rule="evenodd" clip-rule="evenodd" d="M9.00064 19L9 18.9989V16L1 22L9 28V25C15.0751 25 20 29.9249 20 36V39H26V36C26 26.6114 18.3892 19.0003 9.00064 19Z" fill="url(#paint3_linear_1394_8140)"/>
<path fill-rule="evenodd" clip-rule="evenodd" d="M20 23C23.6708 26.1257 26 30.7866 26 35.9928V39H20V23L20 23Z" fill="url(#paint4_linear_1394_8140)"/>
<defs>
<linearGradient id="paint0_linear_1394_8140" x1="54.5" y1="28.5" x2="26.262" y2="6.10438" gradientUnits="userSpaceOnUse">
<stop stop-color="#70B1FF"/>
<stop offset="1" stop-color="#005CCD"/>
</linearGradient>
<linearGradient id="paint1_linear_1394_8140" x1="24.0198" y1="16.4013" x2="36.8443" y2="31.8131" gradientUnits="userSpaceOnUse">
<stop stop-color="#295296"/>
<stop offset="1" stop-color="#3E78D3"/>
</linearGradient>
<linearGradient id="paint2_linear_1394_8140" x1="28.892" y1="39" x2="28.892" y2="2.66601" gradientUnits="userSpaceOnUse">
<stop stop-color="#70B1FF"/>
<stop offset="1" stop-color="#005CCD"/>
</linearGradient>
<linearGradient id="paint3_linear_1394_8140" x1="34.7965" y1="27.5" x2="11.214" y2="9.46131" gradientUnits="userSpaceOnUse">
<stop stop-color="#70B1FF"/>
<stop offset="1" stop-color="#005CCD"/>
</linearGradient>
<linearGradient id="paint4_linear_1394_8140" x1="35.3772" y1="37.9055" x2="16.9822" y2="30.6259" gradientUnits="userSpaceOnUse">
<stop stop-color="#295296"/>
<stop offset="1" stop-color="#3E78D3"/>
</linearGradient>
</defs>
</svg>
