<svg width="48" height="48" viewBox="0 0 48 48" fill="none" xmlns="http://www.w3.org/2000/svg">
<path opacity="0.45" d="M21 21H2V2H21V21ZM9 9V14H14V9H9Z" fill="url(#paint0_linear_1394_8156)"/>
<path opacity="0.45" d="M33 33H14V14H33V33ZM21 21V26H26V21H21Z" fill="url(#paint1_linear_1394_8156)"/>
<rect opacity="0.5" x="26" y="26" width="19" height="19" fill="url(#paint2_linear_1394_8156)"/>
<path d="M31.0563 34.9349L28.9436 37.0648L34.0588 42.1386L43.1006 33.0582L40.9748 30.9414L34.0457 37.9001L31.0563 34.9349Z" fill="url(#paint3_linear_1394_8156)"/>
<defs>
<linearGradient id="paint0_linear_1394_8156" x1="33.0082" y1="9.38167" x2="9.77158" y2="-14.6348" gradientUnits="userSpaceOnUse">
<stop stop-color="#70B1FF"/>
<stop offset="1" stop-color="#005CCD"/>
</linearGradient>
<linearGradient id="paint1_linear_1394_8156" x1="45.0082" y1="21.3817" x2="21.7716" y2="-2.63479" gradientUnits="userSpaceOnUse">
<stop stop-color="#70B1FF"/>
<stop offset="1" stop-color="#005CCD"/>
</linearGradient>
<linearGradient id="paint2_linear_1394_8156" x1="57.0082" y1="33.3817" x2="33.7716" y2="9.36521" gradientUnits="userSpaceOnUse">
<stop stop-color="#70B1FF"/>
<stop offset="1" stop-color="#005CCD"/>
</linearGradient>
<linearGradient id="paint3_linear_1394_8156" x1="32.3955" y1="43.7145" x2="45.0924" y2="35.8861" gradientUnits="userSpaceOnUse">
<stop stop-color="#295296"/>
<stop offset="1" stop-color="#3E78D3"/>
</linearGradient>
</defs>
</svg>
