<svg width="48" height="48" viewBox="0 0 48 48" fill="none" xmlns="http://www.w3.org/2000/svg">
<path opacity="0.3" fill-rule="evenodd" clip-rule="evenodd" d="M24 41H16L17 35H6C4.89543 35 4 34.1046 4 33V17C4 15.8954 4.89543 15 6 15H34C35.1046 15 36 15.8954 36 17V33C36 34.1046 35.1046 35 34 35H23L24 41Z" fill="url(#paint0_linear_1394_8165)"/>
<path opacity="0.45" d="M4 32H36V33C36 34.1046 35.1046 35 34 35H6C4.89543 35 4 34.1046 4 33V32Z" fill="url(#paint1_linear_1394_8165)"/>
<path opacity="0.45" d="M41 5C42.1046 5 43 5.89543 43 7V24C43 25.1046 42.1046 26 41 26H13C11.8954 26 11 25.1046 11 24V7C11 5.89543 11.8954 5 13 5H41ZM33.5 8C33.2239 8.00002 33 8.22388 33 8.5V12H39V9H36V8.5C36 8.22387 35.7761 8 35.5 8H33.5Z" fill="url(#paint2_linear_1394_8165)"/>
<path fill-rule="evenodd" clip-rule="evenodd" d="M15 8.50003C15 8.22389 15.2239 8.00003 15.5 8.00003H17.5C17.7762 8.00003 18 8.22389 18 8.50003V9H21V12H15V8.50003Z" fill="url(#paint3_linear_1394_8165)"/>
<path fill-rule="evenodd" clip-rule="evenodd" d="M15 18.5C15 18.2239 15.2239 18 15.5 18H17.5C17.7762 18 18 18.2239 18 18.5V19H21V22H15V18.5Z" fill="url(#paint4_linear_1394_8165)"/>
<path fill-rule="evenodd" clip-rule="evenodd" d="M24 18.5C24 18.2239 24.2239 18 24.5 18H26.5C26.7762 18 27 18.2239 27 18.5V19H30V22H24V18.5Z" fill="url(#paint5_linear_1394_8165)"/>
<path fill-rule="evenodd" clip-rule="evenodd" d="M24 8.50003C24 8.22389 24.2239 8.00003 24.5 8.00003H26.5C26.7762 8.00003 27 8.22389 27 8.50003V9H30V12H24V8.50003Z" fill="url(#paint6_linear_1394_8165)"/>
<defs>
<linearGradient id="paint0_linear_1394_8165" x1="18.3091" y1="9.99454" x2="2.65082" y2="33.1618" gradientUnits="userSpaceOnUse">
<stop stop-color="#70B1FF"/>
<stop offset="1" stop-color="#005CCD"/>
</linearGradient>
<linearGradient id="paint1_linear_1394_8165" x1="18.3091" y1="31.4224" x2="18.0072" y2="35.2932" gradientUnits="userSpaceOnUse">
<stop stop-color="#70B1FF"/>
<stop offset="1" stop-color="#005CCD"/>
</linearGradient>
<linearGradient id="paint2_linear_1394_8165" x1="25.3091" y1="0.95713" x2="13.8444" y2="21.9584" gradientUnits="userSpaceOnUse">
<stop stop-color="#70B1FF"/>
<stop offset="1" stop-color="#005CCD"/>
</linearGradient>
<linearGradient id="paint3_linear_1394_8165" x1="18.0388" y1="15.6112" x2="23.1928" y2="7.86184" gradientUnits="userSpaceOnUse">
<stop stop-color="#295296"/>
<stop offset="1" stop-color="#3E78D3"/>
</linearGradient>
<linearGradient id="paint4_linear_1394_8165" x1="18.0388" y1="25.6112" x2="23.1928" y2="17.8618" gradientUnits="userSpaceOnUse">
<stop stop-color="#295296"/>
<stop offset="1" stop-color="#3E78D3"/>
</linearGradient>
<linearGradient id="paint5_linear_1394_8165" x1="27.0388" y1="25.6112" x2="32.1928" y2="17.8618" gradientUnits="userSpaceOnUse">
<stop stop-color="#295296"/>
<stop offset="1" stop-color="#3E78D3"/>
</linearGradient>
<linearGradient id="paint6_linear_1394_8165" x1="27.0388" y1="15.6112" x2="32.1928" y2="7.86184" gradientUnits="userSpaceOnUse">
<stop stop-color="#295296"/>
<stop offset="1" stop-color="#3E78D3"/>
</linearGradient>
</defs>
</svg>
