<svg width="48" height="48" viewBox="0 0 48 48" fill="none" xmlns="http://www.w3.org/2000/svg">
<path opacity="0.45" fill-rule="evenodd" clip-rule="evenodd" d="M22 41C32.4934 41 41 32.4934 41 22C41 11.5066 32.4934 3 22 3C11.5066 3 3 11.5066 3 22C3 32.4934 11.5066 41 22 41Z" fill="url(#paint0_linear_1394_8175)"/>
<path fill-rule="evenodd" clip-rule="evenodd" d="M22 10.4194C28.0751 10.4194 33 15.4742 33 21.7097C33 27.9452 28.0751 33 22 33C15.9249 33 11 27.9452 11 21.7097C11 19.3926 11.6801 17.2385 12.8465 15.4463L16.7694 18.1306C16.1029 19.1547 15.7143 20.3856 15.7143 21.7097C15.7143 25.2728 18.5285 28.1613 22 28.1613C25.4715 28.1613 28.2857 25.2728 28.2857 21.7097C28.2857 18.1466 25.4715 15.2581 22 15.2581V17.6774L15.7143 12.8387L22 8V10.4194Z" fill="url(#paint1_linear_1394_8175)"/>
<path opacity="0.55" fill-rule="evenodd" clip-rule="evenodd" d="M38.5581 36.2674L42.2791 32.5465L26 26.5L32.0465 42.7791L35.7674 39.0581L43.2093 46.5L46 43.7093L38.5581 36.2674V36.2674Z" fill="url(#paint2_linear_1394_8175)"/>
<path fill-rule="evenodd" clip-rule="evenodd" d="M38.6325 31.1921C36.7973 34.5055 34.0008 37.2127 30.6194 38.9369L26 26.5L38.6325 31.1921V31.1921Z" fill="url(#paint3_linear_1394_8175)"/>
<defs>
<linearGradient id="paint0_linear_1394_8175" x1="-10.3633" y1="22.1203" x2="19.25" y2="48.8469" gradientUnits="userSpaceOnUse">
<stop stop-color="#70B1FF" stop-opacity="0.7"/>
<stop offset="1" stop-color="#005CCD"/>
</linearGradient>
<linearGradient id="paint1_linear_1394_8175" x1="22.5252" y1="36.4561" x2="35.8495" y2="19.0658" gradientUnits="userSpaceOnUse">
<stop stop-color="#6BA0EF"/>
<stop offset="1" stop-color="#568DE0"/>
</linearGradient>
<linearGradient id="paint2_linear_1394_8175" x1="22.2744" y1="57.2922" x2="43.8589" y2="57.2922" gradientUnits="userSpaceOnUse">
<stop stop-color="#70B1FF"/>
<stop offset="1" stop-color="#005CCD"/>
</linearGradient>
<linearGradient id="paint3_linear_1394_8175" x1="43.4611" y1="54.2096" x2="43.4611" y2="19.828" gradientUnits="userSpaceOnUse">
<stop stop-color="#295296"/>
<stop offset="1" stop-color="#3E78D3"/>
</linearGradient>
</defs>
</svg>
