<svg width="96" height="96" viewBox="0 0 96 96" fill="none" xmlns="http://www.w3.org/2000/svg">
<rect opacity="0.45" x="24" y="81" width="63" height="8" fill="url(#paint0_linear_1394_8186)"/>
<path fill-rule="evenodd" clip-rule="evenodd" d="M24 81H32L24 89V81Z" fill="url(#paint1_linear_1394_8186)"/>
<path fill-rule="evenodd" clip-rule="evenodd" d="M69 89H61L69 81V89Z" fill="url(#paint2_linear_1394_8186)"/>
<path fill-rule="evenodd" clip-rule="evenodd" d="M39 81H47L39 89H31L39 81Z" fill="url(#paint3_linear_1394_8186)"/>
<path fill-rule="evenodd" clip-rule="evenodd" d="M54 81H62L54 89H46L54 81Z" fill="url(#paint4_linear_1394_8186)"/>
<rect opacity="0.3" x="24" y="13" width="50" height="50" fill="url(#paint5_linear_1394_8186)"/>
<rect opacity="0.35" x="14" y="23" width="50" height="50" fill="url(#paint6_linear_1394_8186)"/>
<path fill-rule="evenodd" clip-rule="evenodd" d="M64 63H24V23L64 23V63V63Z" fill="url(#paint7_linear_1394_8186)"/>
<path opacity="0.45" fill-rule="evenodd" clip-rule="evenodd" d="M35 7H43V44H48L39 57L30 44H35V7Z" fill="url(#paint8_linear_1394_8186)"/>
<path fill-rule="evenodd" clip-rule="evenodd" d="M43 23V13L35 13V23H43Z" fill="url(#paint9_linear_1394_8186)"/>
<path fill-rule="evenodd" clip-rule="evenodd" d="M35 23H43V44H48L39 57L30 44H35V23Z" fill="url(#paint10_linear_1394_8186)"/>
<rect x="24" y="60" width="30" height="6" fill="url(#paint11_linear_1394_8186)"/>
<defs>
<linearGradient id="paint0_linear_1394_8186" x1="59.9005" y1="73.3978" x2="57.5962" y2="92.9579" gradientUnits="userSpaceOnUse">
<stop stop-color="#70B1FF"/>
<stop offset="1" stop-color="#005CCD"/>
</linearGradient>
<linearGradient id="paint1_linear_1394_8186" x1="28" y1="111.649" x2="73.2988" y2="103.649" gradientUnits="userSpaceOnUse">
<stop stop-color="#295296"/>
<stop offset="1" stop-color="#3E78D3"/>
</linearGradient>
<linearGradient id="paint2_linear_1394_8186" x1="28.7432" y1="111.128" x2="73" y2="103.128" gradientUnits="userSpaceOnUse">
<stop stop-color="#295296"/>
<stop offset="1" stop-color="#3E78D3"/>
</linearGradient>
<linearGradient id="paint3_linear_1394_8186" x1="31.499" y1="100.474" x2="66.1358" y2="76.3247" gradientUnits="userSpaceOnUse">
<stop stop-color="#295296"/>
<stop offset="1" stop-color="#3E78D3"/>
</linearGradient>
<linearGradient id="paint4_linear_1394_8186" x1="31.7744" y1="100.146" x2="64.9883" y2="76.3061" gradientUnits="userSpaceOnUse">
<stop stop-color="#295296"/>
<stop offset="1" stop-color="#3E78D3"/>
</linearGradient>
<linearGradient id="paint5_linear_1394_8186" x1="49" y1="-12" x2="-1" y2="38" gradientUnits="userSpaceOnUse">
<stop stop-color="#70B1FF"/>
<stop offset="1" stop-color="#005CCD"/>
</linearGradient>
<linearGradient id="paint6_linear_1394_8186" x1="39" y1="-2" x2="-11" y2="48" gradientUnits="userSpaceOnUse">
<stop stop-color="#70B1FF"/>
<stop offset="1" stop-color="#005CCD"/>
</linearGradient>
<linearGradient id="paint7_linear_1394_8186" x1="44" y1="3" x2="4" y2="43" gradientUnits="userSpaceOnUse">
<stop stop-color="#A6CAFC"/>
<stop offset="1" stop-color="#7CA7E4"/>
</linearGradient>
<linearGradient id="paint8_linear_1394_8186" x1="48" y1="7" x2="30" y2="7" gradientUnits="userSpaceOnUse">
<stop stop-color="#70B1FF"/>
<stop offset="1" stop-color="#005CCD"/>
</linearGradient>
<linearGradient id="paint9_linear_1394_8186" x1="39" y1="8" x2="29.2439" y2="15.8049" gradientUnits="userSpaceOnUse">
<stop stop-color="#8CB7F5"/>
<stop offset="1" stop-color="#77A7E9"/>
</linearGradient>
<linearGradient id="paint10_linear_1394_8186" x1="42.4562" y1="82.15" x2="72.1874" y2="51.5267" gradientUnits="userSpaceOnUse">
<stop stop-color="#295296"/>
<stop offset="1" stop-color="#3E78D3"/>
</linearGradient>
<linearGradient id="paint11_linear_1394_8186" x1="39" y1="69" x2="41.3077" y2="57.4615" gradientUnits="userSpaceOnUse">
<stop stop-color="#295296"/>
<stop offset="1" stop-color="#3E78D3"/>
</linearGradient>
</defs>
</svg>
