<svg width="48" height="48" viewBox="0 0 48 48" fill="none" xmlns="http://www.w3.org/2000/svg">
<path opacity="0.45" fill-rule="evenodd" clip-rule="evenodd" d="M11 13H30L37 20V45H11V13Z" fill="url(#paint0_linear_1394_8199)"/>
<path fill-rule="evenodd" clip-rule="evenodd" d="M30 13L37 20H30V13Z" fill="url(#paint1_linear_1394_8199)"/>
<path fill-rule="evenodd" clip-rule="evenodd" d="M29 28.5L20 33.5V23.5L29 28.5Z" fill="url(#paint2_linear_1394_8199)"/>
<path d="M37 45H11V37H37V45ZM13 43H17V39H13V43ZM19 43H23V39H19V43ZM25 43H29V39H25V43ZM31 39V43H35V39H31Z" fill="url(#paint3_linear_1394_8199)"/>
<path opacity="0.55" fill-rule="evenodd" clip-rule="evenodd" d="M26 20V10H29L23 2L17 10H20V20H26Z" fill="url(#paint4_linear_1394_8199)"/>
<path fill-rule="evenodd" clip-rule="evenodd" d="M20 13H26V20H20L20 13H20Z" fill="url(#paint5_linear_1394_8199)"/>
<defs>
<linearGradient id="paint0_linear_1394_8199" x1="26.4616" y1="59.4852" x2="55.4058" y2="33.5086" gradientUnits="userSpaceOnUse">
<stop stop-color="#70B1FF"/>
<stop offset="1" stop-color="#005CCD"/>
</linearGradient>
<linearGradient id="paint1_linear_1394_8199" x1="46.6077" y1="17.8988" x2="35.3862" y2="4.41357" gradientUnits="userSpaceOnUse">
<stop stop-color="#295296"/>
<stop offset="1" stop-color="#3E78D3"/>
</linearGradient>
<linearGradient id="paint2_linear_1394_8199" x1="22.7015" y1="47.2253" x2="41.5011" y2="33.1459" gradientUnits="userSpaceOnUse">
<stop stop-color="#295296"/>
<stop offset="1" stop-color="#3E78D3"/>
</linearGradient>
<linearGradient id="paint3_linear_1394_8199" x1="24" y1="49" x2="28.4973" y2="34.3838" gradientUnits="userSpaceOnUse">
<stop stop-color="#86B8FF"/>
<stop offset="1" stop-color="#4B84DB"/>
</linearGradient>
<linearGradient id="paint4_linear_1394_8199" x1="24.1361" y1="28.1479" x2="39.7747" y2="16.6319" gradientUnits="userSpaceOnUse">
<stop stop-color="#70B1FF"/>
<stop offset="1" stop-color="#005CCD"/>
</linearGradient>
<linearGradient id="paint5_linear_1394_8199" x1="23.5681" y1="23.1686" x2="29.9272" y2="17.1479" gradientUnits="userSpaceOnUse">
<stop stop-color="#689DEE"/>
<stop offset="1" stop-color="#5A90E3"/>
</linearGradient>
</defs>
</svg>
