<svg width="48" height="48" viewBox="0 0 48 48" fill="none" xmlns="http://www.w3.org/2000/svg">
<path opacity="0.45" fill-rule="evenodd" clip-rule="evenodd" d="M14 29H28V4H5V34H14V29Z" fill="url(#paint0_linear_1394_8232)"/>
<path d="M16.5 7C21.1941 7 25 10.8059 25 15.5C25 20.1941 21.1941 24 16.5 24C11.8059 24 8 20.1941 8 15.5C8 10.8059 11.8059 7 16.5 7ZM16.5 13C15.1193 13 14 14.1193 14 15.5C14 16.8807 15.1193 18 16.5 18C17.8807 18 19 16.8807 19 15.5C19 14.1193 17.8807 13 16.5 13Z" fill="url(#paint1_linear_1394_8232)"/>
<rect opacity="0.5" x="5" y="36" width="6" height="6" fill="url(#paint2_linear_1394_8232)"/>
<rect opacity="0.5" x="14" y="38" width="5" height="5" fill="url(#paint3_linear_1394_8232)"/>
<rect opacity="0.5" x="21" y="32" width="7" height="7" fill="url(#paint4_linear_1394_8232)"/>
<path d="M31 8C36.5228 8 41 12.4772 41 18C41 21.2099 39.4878 24.0667 37.1367 25.8965L43.9639 37.7227L40.5 39.7227L33.5439 27.6738C32.7318 27.8868 31.879 28 31 28C25.4772 28 21 23.5228 21 18C21 12.4772 25.4772 8 31 8ZM31 12C27.6863 12 25 14.6863 25 18C25 21.3137 27.6863 24 31 24C34.3137 24 37 21.3137 37 18C37 14.6863 34.3137 12 31 12Z" fill="url(#paint5_linear_1394_8232)"/>
<path opacity="0.35" fill-rule="evenodd" clip-rule="evenodd" d="M31 24C34.3137 24 37 21.3137 37 18C37 14.6863 34.3137 12 31 12C27.6863 12 25 14.6863 25 18C25 21.3137 27.6863 24 31 24Z" fill="url(#paint6_linear_1394_8232)"/>
<path fill-rule="evenodd" clip-rule="evenodd" d="M28 12.8029V8.45801C23.9429 9.73227 21 13.5226 21 18.0002C21 22.4778 23.9429 26.2681 28 27.5424V23.1975C26.2066 22.1601 25 20.2211 25 18.0002C25 15.7794 26.2066 13.8403 28 12.8029V12.8029Z" fill="url(#paint7_linear_1394_8232)"/>
<rect x="35.5" y="31" width="4" height="10.6782" transform="rotate(-30 35.5 31)" fill="url(#paint8_linear_1394_8232)"/>
<defs>
<linearGradient id="paint0_linear_1394_8232" x1="16.5" y1="-11" x2="-12.4713" y2="11.2113" gradientUnits="userSpaceOnUse">
<stop stop-color="#70B1FF"/>
<stop offset="1" stop-color="#005CCD"/>
</linearGradient>
<linearGradient id="paint1_linear_1394_8232" x1="16.5467" y1="3.53425" x2="4.71773" y2="15.7468" gradientUnits="userSpaceOnUse">
<stop stop-color="#85B2F3"/>
<stop offset="1" stop-color="#6293DB"/>
</linearGradient>
<linearGradient id="paint2_linear_1394_8232" x1="-17.003" y1="38.2358" x2="10.2726" y2="58.2274" gradientUnits="userSpaceOnUse">
<stop stop-color="#70B1FF"/>
<stop offset="1" stop-color="#005CCD"/>
</linearGradient>
<linearGradient id="paint3_linear_1394_8232" x1="-4.33585" y1="39.8631" x2="18.3939" y2="56.5228" gradientUnits="userSpaceOnUse">
<stop stop-color="#70B1FF"/>
<stop offset="1" stop-color="#005CCD"/>
</linearGradient>
<linearGradient id="paint4_linear_1394_8232" x1="-0.1713" y1="40.6981" x2="20.3972" y2="55.9037" gradientUnits="userSpaceOnUse">
<stop stop-color="#70B1FF"/>
<stop offset="1" stop-color="#005CCD"/>
</linearGradient>
<linearGradient id="paint5_linear_1394_8232" x1="32.5451" y1="1.53282" x2="11.365" y2="17.3624" gradientUnits="userSpaceOnUse">
<stop stop-color="#85B2F3"/>
<stop offset="1" stop-color="#6293DB"/>
</linearGradient>
<linearGradient id="paint6_linear_1394_8232" x1="31" y1="6" x2="19" y2="18" gradientUnits="userSpaceOnUse">
<stop stop-color="#70B1FF"/>
<stop offset="1" stop-color="#005CCD"/>
</linearGradient>
<linearGradient id="paint7_linear_1394_8232" x1="37.6077" y1="21.8139" x2="14.6425" y2="11.6911" gradientUnits="userSpaceOnUse">
<stop stop-color="#295296"/>
<stop offset="1" stop-color="#3E78D3"/>
</linearGradient>
<linearGradient id="paint8_linear_1394_8232" x1="44.9901" y1="38.473" x2="31.9583" y2="32.6065" gradientUnits="userSpaceOnUse">
<stop stop-color="#295296"/>
<stop offset="1" stop-color="#3E78D3"/>
</linearGradient>
</defs>
</svg>
