<svg width="48" height="48" viewBox="0 0 48 48" fill="none" xmlns="http://www.w3.org/2000/svg">
<path opacity="0.35" fill-rule="evenodd" clip-rule="evenodd" d="M10 16C13.866 16 17 12.866 17 9C17 5.13401 13.866 2 10 2C6.13401 2 3 5.13401 3 9C3 12.866 6.13401 16 10 16Z" fill="url(#paint0_linear_1394_8246)"/>
<path opacity="0.35" fill-rule="evenodd" clip-rule="evenodd" d="M10 31C13.866 31 17 27.866 17 24C17 20.134 13.866 17 10 17C6.13401 17 3 20.134 3 24C3 27.866 6.13401 31 10 31Z" fill="url(#paint1_linear_1394_8246)"/>
<rect opacity="0.45" x="20" y="6" width="25" height="6" fill="url(#paint2_linear_1394_8246)"/>
<rect x="20" y="6" width="19" height="6" fill="url(#paint3_linear_1394_8246)"/>
<rect opacity="0.45" x="20" y="36" width="25" height="6" fill="url(#paint4_linear_1394_8246)"/>
<rect opacity="0.45" x="20" y="21" width="25" height="6" fill="url(#paint5_linear_1394_8246)"/>
<rect x="20" y="21" width="10" height="6" fill="url(#paint6_linear_1394_8246)"/>
<rect x="20" y="36" width="6" height="6" fill="url(#paint7_linear_1394_8246)"/>
<path opacity="0.35" fill-rule="evenodd" clip-rule="evenodd" d="M10 46C13.866 46 17 42.866 17 39C17 35.134 13.866 32 10 32C6.13401 32 3 35.134 3 39C3 42.866 6.13401 46 10 46Z" fill="url(#paint8_linear_1394_8246)"/>
<path opacity="0.6" fill-rule="evenodd" clip-rule="evenodd" d="M6 40C6.55228 40 7 39.5523 7 39C7 38.4477 6.55228 38 6 38C5.44772 38 5 38.4477 5 39C5 39.5523 5.44772 40 6 40Z" fill="url(#paint9_linear_1394_8246)"/>
<path opacity="0.6" fill-rule="evenodd" clip-rule="evenodd" d="M10 40C10.5523 40 11 39.5523 11 39C11 38.4477 10.5523 38 10 38C9.44772 38 9 38.4477 9 39C9 39.5523 9.44772 40 10 40Z" fill="url(#paint10_linear_1394_8246)"/>
<path opacity="0.6" fill-rule="evenodd" clip-rule="evenodd" d="M14 40C14.5523 40 15 39.5523 15 39C15 38.4477 14.5523 38 14 38C13.4477 38 13 38.4477 13 39C13 39.5523 13.4477 40 14 40Z" fill="url(#paint11_linear_1394_8246)"/>
<path opacity="0.65" fill-rule="evenodd" clip-rule="evenodd" d="M11.6423 24L14 21.6423L12.3577 20L10 22.3577L7.64227 20L6 21.6423L8.35773 24L6 26.3577L7.64227 28L10 25.6423L12.3577 28L14 26.3577L11.6423 24Z" fill="url(#paint12_linear_1394_8246)"/>
<path d="M6.42084 7.00384L5 8.4114L8.6713 12.1173L14.3817 6.41525L12.9686 5L8.67898 9.28329L6.42084 7.00384Z" fill="url(#paint13_linear_1394_8246)"/>
<defs>
<linearGradient id="paint0_linear_1394_8246" x1="11.3255" y1="22.3373" x2="24" y2="8.33726" gradientUnits="userSpaceOnUse">
<stop stop-color="#70B1FF"/>
<stop offset="1" stop-color="#005CCD"/>
</linearGradient>
<linearGradient id="paint1_linear_1394_8246" x1="11.3255" y1="37.3373" x2="24" y2="23.3373" gradientUnits="userSpaceOnUse">
<stop stop-color="#70B1FF"/>
<stop offset="1" stop-color="#005CCD"/>
</linearGradient>
<linearGradient id="paint2_linear_1394_8246" x1="34.8669" y1="14.716" x2="37.1322" y2="4.2905" gradientUnits="userSpaceOnUse">
<stop stop-color="#70B1FF"/>
<stop offset="1" stop-color="#005CCD"/>
</linearGradient>
<linearGradient id="paint3_linear_1394_8246" x1="70.6568" y1="12.5226" x2="65.37" y2="-6.56578" gradientUnits="userSpaceOnUse">
<stop stop-color="#295296"/>
<stop offset="1" stop-color="#3E78D3"/>
</linearGradient>
<linearGradient id="paint4_linear_1394_8246" x1="34.8669" y1="44.716" x2="37.1322" y2="34.2905" gradientUnits="userSpaceOnUse">
<stop stop-color="#70B1FF"/>
<stop offset="1" stop-color="#005CCD"/>
</linearGradient>
<linearGradient id="paint5_linear_1394_8246" x1="34.8669" y1="29.716" x2="37.1322" y2="19.2905" gradientUnits="userSpaceOnUse">
<stop stop-color="#70B1FF"/>
<stop offset="1" stop-color="#005CCD"/>
</linearGradient>
<linearGradient id="paint6_linear_1394_8246" x1="25" y1="30" x2="30.2941" y2="21.1765" gradientUnits="userSpaceOnUse">
<stop stop-color="#85B2F3"/>
<stop offset="1" stop-color="#6293DB"/>
</linearGradient>
<linearGradient id="paint7_linear_1394_8246" x1="23" y1="45" x2="29" y2="39" gradientUnits="userSpaceOnUse">
<stop stop-color="#85B2F3"/>
<stop offset="1" stop-color="#6293DB"/>
</linearGradient>
<linearGradient id="paint8_linear_1394_8246" x1="11.3255" y1="52.3373" x2="24" y2="38.3373" gradientUnits="userSpaceOnUse">
<stop stop-color="#70B1FF"/>
<stop offset="1" stop-color="#005CCD"/>
</linearGradient>
<linearGradient id="paint9_linear_1394_8246" x1="4" y1="42.1605" x2="12.321" y2="44.1605" gradientUnits="userSpaceOnUse">
<stop stop-color="#70B1FF"/>
<stop offset="1" stop-color="#005CCD"/>
</linearGradient>
<linearGradient id="paint10_linear_1394_8246" x1="5.00537" y1="42.0122" x2="13.0298" y2="44.0122" gradientUnits="userSpaceOnUse">
<stop stop-color="#70B1FF"/>
<stop offset="1" stop-color="#005CCD"/>
</linearGradient>
<linearGradient id="paint11_linear_1394_8246" x1="6.17969" y1="41.9102" x2="14" y2="43.9102" gradientUnits="userSpaceOnUse">
<stop stop-color="#70B1FF"/>
<stop offset="1" stop-color="#005CCD"/>
</linearGradient>
<linearGradient id="paint12_linear_1394_8246" x1="3.97838" y1="26.6588" x2="11.4592" y2="31.7404" gradientUnits="userSpaceOnUse">
<stop stop-color="#70B1FF"/>
<stop offset="1" stop-color="#005CCD"/>
</linearGradient>
<linearGradient id="paint13_linear_1394_8246" x1="30.0131" y1="12.7372" x2="18.7693" y2="-4.16155" gradientUnits="userSpaceOnUse">
<stop stop-color="#295296"/>
<stop offset="1" stop-color="#3E78D3"/>
</linearGradient>
</defs>
</svg>
