<svg width="48" height="48" viewBox="0 0 48 48" fill="none" xmlns="http://www.w3.org/2000/svg">
<path fill-rule="evenodd" clip-rule="evenodd" d="M19 25H37V11L29 3H11L11 31H19V25Z" fill="url(#paint0_linear_1394_8261)" fill-opacity="0.45"/>
<path fill-rule="evenodd" clip-rule="evenodd" d="M21 25L21 31H27V25H21Z" fill="url(#paint1_linear_1394_8261)"/>
<path fill-rule="evenodd" clip-rule="evenodd" d="M27 25H21V20H18L24 12L30 20H27V25Z" fill="url(#paint2_linear_1394_8261)"/>
<path fill-rule="evenodd" clip-rule="evenodd" d="M29 3L37 11H29V3Z" fill="url(#paint3_linear_1394_8261)" fill-opacity="0.5"/>
<rect x="29" y="28" width="8" height="8" fill="url(#paint4_linear_1394_8261)" fill-opacity="0.5"/>
<rect x="23" y="36" width="6" height="6" fill="url(#paint5_linear_1394_8261)" fill-opacity="0.5"/>
<rect x="15" y="34" width="5" height="5" fill="url(#paint6_linear_1394_8261)" fill-opacity="0.5"/>
<rect x="11" y="41" width="4" height="4" fill="url(#paint7_linear_1394_8261)" fill-opacity="0.5"/>
<rect x="32" y="39" width="5" height="5" fill="url(#paint8_linear_1394_8261)" fill-opacity="0.5"/>
<defs>
<linearGradient id="paint0_linear_1394_8261" x1="20.1188" y1="55.5261" x2="55.5157" y2="23.402" gradientUnits="userSpaceOnUse">
<stop stop-color="#70B1FF"/>
<stop offset="1" stop-color="#005CCD"/>
</linearGradient>
<linearGradient id="paint1_linear_1394_8261" x1="24.5681" y1="33.716" x2="30" y2="27.716" gradientUnits="userSpaceOnUse">
<stop stop-color="#76ADFD"/>
<stop offset="1" stop-color="#5A92EB"/>
</linearGradient>
<linearGradient id="paint2_linear_1394_8261" x1="46.4703" y1="21.0978" x2="25.391" y2="-2.2853" gradientUnits="userSpaceOnUse">
<stop stop-color="#295296"/>
<stop offset="1" stop-color="#3E78D3"/>
</linearGradient>
<linearGradient id="paint3_linear_1394_8261" x1="31.5602" y1="3.47632" x2="26.5026" y2="8.47119" gradientUnits="userSpaceOnUse">
<stop stop-color="#70B1FF"/>
<stop offset="1" stop-color="#005CCD"/>
</linearGradient>
<linearGradient id="paint4_linear_1394_8261" x1="4.80423" y1="37.9407" x2="28.3111" y2="55.3185" gradientUnits="userSpaceOnUse">
<stop stop-color="#70B1FF"/>
<stop offset="1" stop-color="#005CCD"/>
</linearGradient>
<linearGradient id="paint5_linear_1394_8261" x1="0.996981" y1="38.2358" x2="28.2726" y2="58.2274" gradientUnits="userSpaceOnUse">
<stop stop-color="#70B1FF"/>
<stop offset="1" stop-color="#005CCD"/>
</linearGradient>
<linearGradient id="paint6_linear_1394_8261" x1="0.303277" y1="37.3812" x2="28.084" y2="57.8538" gradientUnits="userSpaceOnUse">
<stop stop-color="#70B1FF"/>
<stop offset="1" stop-color="#005CCD"/>
</linearGradient>
<linearGradient id="paint7_linear_1394_8261" x1="-0.138812" y1="38.2412" x2="28.477" y2="59.3079" gradientUnits="userSpaceOnUse">
<stop stop-color="#70B1FF"/>
<stop offset="1" stop-color="#005CCD"/>
</linearGradient>
<linearGradient id="paint8_linear_1394_8261" x1="-1.1783" y1="37.3706" x2="26.7126" y2="57.9454" gradientUnits="userSpaceOnUse">
<stop stop-color="#70B1FF"/>
<stop offset="1" stop-color="#005CCD"/>
</linearGradient>
</defs>
</svg>
