<svg width="48" height="48" viewBox="0 0 48 48" fill="none" xmlns="http://www.w3.org/2000/svg">
<path opacity="0.4" fill-rule="evenodd" clip-rule="evenodd" d="M5 15H39C39.5523 15 40 15.4477 40 16V37C40 37.5523 39.5523 38 39 38H5C4.44772 38 4 37.5523 4 37V16C4 15.4477 4.44772 15 5 15Z" fill="url(#paint0_linear_1394_8293)"/>
<path opacity="0.5" fill-rule="evenodd" clip-rule="evenodd" d="M17.75 38H25.25L26.5 44H16.5L17.75 38Z" fill="url(#paint1_linear_1394_8293)"/>
<path fill-rule="evenodd" clip-rule="evenodd" d="M4 34H40V36.5C40 37.3284 39.3284 38 38.5 38H5.5C4.67157 38 4 37.3284 4 36.5V34Z" fill="url(#paint2_linear_1394_8293)"/>
<path opacity="0.4" fill-rule="evenodd" clip-rule="evenodd" d="M7.5 6H13C13.5523 6 14 6.44772 14 7V18C14 18.5523 13.5523 19 13 19H7.5C6.94772 19 6.5 18.5523 6.5 18V7C6.5 6.44772 6.94772 6 7.5 6Z" fill="url(#paint3_linear_1394_8293)"/>
<path fill-rule="evenodd" clip-rule="evenodd" d="M6.5 15H14V18C14 18.5523 13.5523 19 13 19H7.5C6.94772 19 6.5 18.5523 6.5 18L6.5 15Z" fill="url(#paint4_linear_1394_8293)"/>
<path opacity="0.7" fill-rule="evenodd" clip-rule="evenodd" d="M46 23.3333L42 20H18L14 23.3333V25H46V23.3333Z" fill="url(#paint5_linear_1394_8293)"/>
<path fill-rule="evenodd" clip-rule="evenodd" d="M40 20V25H14V23.3333L18 20H40Z" fill="url(#paint6_linear_1394_8293)"/>
<path opacity="0.4" fill-rule="evenodd" clip-rule="evenodd" d="M19 6H41C41.5523 6 42 6.44772 42 7V20.0001H18V7C18 6.44772 18.4477 6 19 6Z" fill="url(#paint7_linear_1394_8293)"/>
<path opacity="0.4" fill-rule="evenodd" clip-rule="evenodd" d="M18 15H39C39.5523 15 40 15.4477 40 16V20H18V15V15Z" fill="url(#paint8_linear_1394_8293)"/>
<defs>
<linearGradient id="paint0_linear_1394_8293" x1="20.0977" y1="10.5721" x2="7.72505" y2="33.8526" gradientUnits="userSpaceOnUse">
<stop stop-color="#70B1FF"/>
<stop offset="1" stop-color="#005CCD"/>
</linearGradient>
<linearGradient id="paint1_linear_1394_8293" x1="19.5708" y1="32.685" x2="14.9606" y2="43.3335" gradientUnits="userSpaceOnUse">
<stop stop-color="#70B1FF"/>
<stop offset="1" stop-color="#005CCD"/>
</linearGradient>
<linearGradient id="paint2_linear_1394_8293" x1="2.95526" y1="40.3616" x2="5.71979" y2="28.985" gradientUnits="userSpaceOnUse">
<stop stop-color="#285093"/>
<stop offset="1" stop-color="#3E78D3"/>
</linearGradient>
<linearGradient id="paint3_linear_1394_8293" x1="9.85369" y1="3.49727" x2="1.95118" y2="8.97798" gradientUnits="userSpaceOnUse">
<stop stop-color="#70B1FF"/>
<stop offset="1" stop-color="#005CCD"/>
</linearGradient>
<linearGradient id="paint4_linear_1394_8293" x1="8.02222" y1="13.5941" x2="6.05764" y2="18.8342" gradientUnits="userSpaceOnUse">
<stop stop-color="#77A6EB"/>
<stop offset="1" stop-color="#6394DE"/>
</linearGradient>
<linearGradient id="paint5_linear_1394_8293" x1="24.349" y1="17.7135" x2="23.1944" y2="26.942" gradientUnits="userSpaceOnUse">
<stop stop-color="#8FBDFF"/>
<stop offset="1" stop-color="#4D82D5"/>
</linearGradient>
<linearGradient id="paint6_linear_1394_8293" x1="27" y1="17.5" x2="25.1455" y2="27.1434" gradientUnits="userSpaceOnUse">
<stop stop-color="#86B5FD"/>
<stop offset="1" stop-color="#5886D7"/>
</linearGradient>
<linearGradient id="paint7_linear_1394_8293" x1="30" y1="27.0001" x2="42.1867" y2="6.10888" gradientUnits="userSpaceOnUse">
<stop stop-color="#70B1FF"/>
<stop offset="1" stop-color="#005CCD"/>
</linearGradient>
<linearGradient id="paint8_linear_1394_8293" x1="29" y1="12.5" x2="26.8389" y2="22.0088" gradientUnits="userSpaceOnUse">
<stop stop-color="#80AFF0"/>
<stop offset="1" stop-color="#89B7F6"/>
</linearGradient>
</defs>
</svg>
