<svg width="48" height="48" viewBox="0 0 48 48" fill="none" xmlns="http://www.w3.org/2000/svg">
<path opacity="0.45" fill-rule="evenodd" clip-rule="evenodd" d="M26 20.6676C21.9662 19.5702 19 15.8815 19 11.5C19 6.25329 23.2533 2 28.5 2C33.7467 2 38 6.25329 38 11.5C38 15.8815 35.0338 19.5702 31 20.6676V46H26V20.6676V20.6676Z" fill="url(#paint0_linear_1394_8303)"/>
<path opacity="0.45" fill-rule="evenodd" clip-rule="evenodd" d="M5 28H10V46H5V28Z" fill="url(#paint1_linear_1394_8303)"/>
<path opacity="0.5" fill-rule="evenodd" clip-rule="evenodd" d="M13 22H21C26.5228 22 31 26.4772 31 32V34H23C17.4772 34 13 29.5228 13 24V22Z" fill="url(#paint2_linear_1394_8303)"/>
<path opacity="0.5" fill-rule="evenodd" clip-rule="evenodd" d="M44 34V36C44 41.5228 39.5228 46 34 46H26V44C26 38.4772 30.4772 34 36 34H44Z" fill="url(#paint3_linear_1394_8303)"/>
<path opacity="0.45" fill-rule="evenodd" clip-rule="evenodd" d="M21 29V30C21 35.5228 16.5228 40 11 40H5V39C5 33.4772 9.47715 29 15 29H21Z" fill="url(#paint4_linear_1394_8303)"/>
<path d="M27.5 17.4646C25.8039 17.2219 24.5 15.7632 24.5 14H26.5C26.5 14.8284 27.1716 15.5 28 15.5H29.0007C29.8287 15.5 30.5 14.8287 30.5 14.0007C30.5 13.1727 29.8287 12.5014 29.0007 12.5014H28.0007C26.0673 12.5014 24.5 10.9341 24.5 9.00071C24.5 7.23732 25.8038 5.77846 27.5 5.53554V4H29.5V5.53544C31.1961 5.77806 32.5 7.23676 32.5 9H30.5C30.5 8.17157 29.8284 7.5 29 7.5H28.0007C27.1719 7.5 26.5 8.17189 26.5 9.00071C26.5 9.82952 27.1719 10.5014 28.0007 10.5014H29.0007C30.9333 10.5014 32.5 12.0681 32.5 14.0007C32.5 15.7638 31.1961 17.2223 29.5 17.4646V19H27.5V17.4646V17.4646Z" fill="url(#paint5_linear_1394_8303)"/>
<defs>
<linearGradient id="paint0_linear_1394_8303" x1="39.1173" y1="51.1748" x2="39.1173" y2="2" gradientUnits="userSpaceOnUse">
<stop stop-color="#70B1FF"/>
<stop offset="1" stop-color="#005CCD"/>
</linearGradient>
<linearGradient id="paint1_linear_1394_8303" x1="6.94142" y1="70.7646" x2="22.1146" y2="65.9167" gradientUnits="userSpaceOnUse">
<stop stop-color="#70B1FF"/>
<stop offset="1" stop-color="#005CCD"/>
</linearGradient>
<linearGradient id="paint2_linear_1394_8303" x1="1.19172" y1="18.2556" x2="1.19172" y2="34" gradientUnits="userSpaceOnUse">
<stop stop-color="#70B1FF"/>
<stop offset="1" stop-color="#005CCD"/>
</linearGradient>
<linearGradient id="paint3_linear_1394_8303" x1="15.0988" y1="31.465" x2="15.0988" y2="46" gradientUnits="userSpaceOnUse">
<stop stop-color="#70B1FF"/>
<stop offset="1" stop-color="#005CCD"/>
</linearGradient>
<linearGradient id="paint4_linear_1394_8303" x1="-8.21307" y1="24.752" x2="-8.21307" y2="42.9199" gradientUnits="userSpaceOnUse">
<stop stop-color="#70B1FF"/>
<stop offset="1" stop-color="#005CCD"/>
</linearGradient>
<linearGradient id="paint5_linear_1394_8303" x1="46.2581" y1="11.3203" x2="27.1705" y2="5.10865" gradientUnits="userSpaceOnUse">
<stop stop-color="#295296"/>
<stop offset="1" stop-color="#3E78D3"/>
</linearGradient>
</defs>
</svg>
