<svg width="48" height="48" viewBox="0 0 48 48" fill="none" xmlns="http://www.w3.org/2000/svg">
<path opacity="0.4" fill-rule="evenodd" clip-rule="evenodd" d="M27.5241 20.0118C29.5417 22.448 32.5896 24 36 24V45H3V28L12 18L23 24L27.5241 20.0118V20.0118Z" fill="url(#paint0_linear_1394_8319)"/>
<path opacity="0.45" fill-rule="evenodd" clip-rule="evenodd" d="M36 24C42.0751 24 47 19.0751 47 13C47 6.92487 42.0751 2 36 2C29.9249 2 25 6.92487 25 13C25 19.0751 29.9249 24 36 24Z" fill="url(#paint1_linear_1394_8319)"/>
<path d="M37.5 6.1123C39.5039 6.5671 41 8.35847 41 10.5H38C38 9.67157 37.3284 9 36.5 9H35.25C34.5596 9 34 9.55964 34 10.25C34 10.9404 34.5596 11.5 35.25 11.5H36.75C39.0972 11.5 41 13.4028 41 15.75C41 17.8412 39.4894 19.5783 37.5 19.9326V22H34.5V19.8857C32.4961 19.4299 31 17.639 31 15.4971H34C34 16.3269 34.6731 17 35.5029 17H36.75C37.4404 17 38 16.4404 38 15.75C38 15.0596 37.4404 14.5 36.75 14.5H35.25C32.9028 14.5 31 12.5972 31 10.25C31 8.15873 32.5105 6.42067 34.5 6.06641V4H37.5V6.1123Z" fill="url(#paint2_linear_1394_8319)"/>
<path fill-rule="evenodd" clip-rule="evenodd" d="M12 20C13.1046 20 14 19.1046 14 18C14 16.8954 13.1046 16 12 16C10.8954 16 10 16.8954 10 18C10 19.1046 10.8954 20 12 20Z" fill="url(#paint3_linear_1394_8319)"/>
<path fill-rule="evenodd" clip-rule="evenodd" d="M3 30C4.10457 30 5 29.1046 5 28C5 26.8954 4.10457 26 3 26C1.89543 26 1 26.8954 1 28C1 29.1046 1.89543 30 3 30Z" fill="url(#paint4_linear_1394_8319)"/>
<path fill-rule="evenodd" clip-rule="evenodd" d="M23 26C24.1046 26 25 25.1046 25 24C25 22.8954 24.1046 22 23 22C21.8954 22 21 22.8954 21 24C21 25.1046 21.8954 26 23 26Z" fill="url(#paint5_linear_1394_8319)"/>
<path opacity="0.4" fill-rule="evenodd" clip-rule="evenodd" d="M8 45.0001L16 36.5001L20.8772 41.3328L36 27.5024L44 34.0001V45.0001H8Z" fill="url(#paint6_linear_1394_8319)"/>
<path d="M36 45.0005H8L16 36.5005L20.877 41.3325L36 27.5024V45.0005Z" fill="url(#paint7_linear_1394_8319)"/>
<defs>
<linearGradient id="paint0_linear_1394_8319" x1="37.727" y1="30.7935" x2="3" y2="30.7935" gradientUnits="userSpaceOnUse">
<stop stop-color="#72B2FF"/>
<stop offset="1" stop-color="#005CCD"/>
</linearGradient>
<linearGradient id="paint1_linear_1394_8319" x1="44.0691" y1="-24.929" x2="9.95189" y2="5.16725" gradientUnits="userSpaceOnUse">
<stop stop-color="#70B1FF"/>
<stop offset="1" stop-color="#005CCD"/>
</linearGradient>
<linearGradient id="paint2_linear_1394_8319" x1="58.5404" y1="11.7425" x2="33.4629" y2="3.25566" gradientUnits="userSpaceOnUse">
<stop stop-color="#295296"/>
<stop offset="1" stop-color="#3E78D3"/>
</linearGradient>
<linearGradient id="paint3_linear_1394_8319" x1="21.0227" y1="17.7289" x2="12.8854" y2="12.7487" gradientUnits="userSpaceOnUse">
<stop stop-color="#295296"/>
<stop offset="0.00811782" stop-color="#295296"/>
<stop offset="1" stop-color="#3E78D3"/>
</linearGradient>
<linearGradient id="paint4_linear_1394_8319" x1="12.0227" y1="27.7289" x2="3.88536" y2="22.7487" gradientUnits="userSpaceOnUse">
<stop stop-color="#295296"/>
<stop offset="0.00811782" stop-color="#295296"/>
<stop offset="1" stop-color="#3E78D3"/>
</linearGradient>
<linearGradient id="paint5_linear_1394_8319" x1="32.0162" y1="23.7205" x2="23.8621" y2="18.7534" gradientUnits="userSpaceOnUse">
<stop stop-color="#295296"/>
<stop offset="1" stop-color="#3E78D3"/>
</linearGradient>
<linearGradient id="paint6_linear_1394_8319" x1="45.884" y1="35.7934" x2="8" y2="35.7934" gradientUnits="userSpaceOnUse">
<stop stop-color="#72B2FF"/>
<stop offset="1" stop-color="#005CCD"/>
</linearGradient>
<linearGradient id="paint7_linear_1394_8319" x1="26.9114" y1="24.892" x2="7.76862" y2="44.7778" gradientUnits="userSpaceOnUse">
<stop stop-color="#90BCFA"/>
<stop offset="1" stop-color="#6092DC"/>
</linearGradient>
</defs>
</svg>
