<svg width="48" height="48" viewBox="0 0 48 48" fill="none" xmlns="http://www.w3.org/2000/svg">
<rect opacity="0.4" x="7" y="15" width="17" height="29" fill="url(#paint0_linear_1394_8333)"/>
<rect opacity="0.6" x="24" y="15" width="17" height="29" fill="url(#paint1_linear_1394_8333)"/>
<path opacity="0.45" fill-rule="evenodd" clip-rule="evenodd" d="M7 15H24L18 24H1L7 15Z" fill="url(#paint2_linear_1394_8333)"/>
<path opacity="0.55" fill-rule="evenodd" clip-rule="evenodd" d="M41 15H24L30 24H47L41 15Z" fill="url(#paint3_linear_1394_8333)"/>
<path opacity="0.45" fill-rule="evenodd" clip-rule="evenodd" d="M15 38L9 30H12L12 3L18 3V30H21L15 38Z" fill="url(#paint4_linear_1394_8333)"/>
<path fill-rule="evenodd" clip-rule="evenodd" d="M15 38L9 30H12V15H18V30H21L15 38Z" fill="url(#paint5_linear_1394_8333)"/>
<defs>
<linearGradient id="paint0_linear_1394_8333" x1="15.5" y1="0.5" x2="-9.80442" y2="15.3336" gradientUnits="userSpaceOnUse">
<stop stop-color="#70B1FF"/>
<stop offset="1" stop-color="#005CCD"/>
</linearGradient>
<linearGradient id="paint1_linear_1394_8333" x1="32.5" y1="0.5" x2="7.19558" y2="15.3336" gradientUnits="userSpaceOnUse">
<stop stop-color="#70B1FF"/>
<stop offset="1" stop-color="#005CCD"/>
</linearGradient>
<linearGradient id="paint2_linear_1394_8333" x1="12.5" y1="10.5" x2="6.3918" y2="26.1098" gradientUnits="userSpaceOnUse">
<stop stop-color="#70B1FF"/>
<stop offset="1" stop-color="#005CCD"/>
</linearGradient>
<linearGradient id="paint3_linear_1394_8333" x1="35.5" y1="10.5" x2="41.6082" y2="26.1098" gradientUnits="userSpaceOnUse">
<stop stop-color="#70B1FF"/>
<stop offset="1" stop-color="#005CCD"/>
</linearGradient>
<linearGradient id="paint4_linear_1394_8333" x1="12.0264" y1="38" x2="12.0264" y2="3" gradientUnits="userSpaceOnUse">
<stop stop-color="#70B1FF"/>
<stop offset="1" stop-color="#005CCD"/>
</linearGradient>
<linearGradient id="paint5_linear_1394_8333" x1="15.9907" y1="41.1697" x2="15.9907" y2="15.7679" gradientUnits="userSpaceOnUse">
<stop stop-color="#295296"/>
<stop offset="1" stop-color="#3E78D3"/>
</linearGradient>
</defs>
</svg>
