<svg width="48" height="48" viewBox="0 0 48 48" fill="none" xmlns="http://www.w3.org/2000/svg">
<g clip-path="url(#clip0_1394_8347)">
<path opacity="0.5" fill-rule="evenodd" clip-rule="evenodd" d="M12 28H36V32L46 24L36 16V20H12V16L2 24L12 32V28Z" fill="url(#paint0_linear_1394_8347)"/>
<rect x="20" y="20" width="8" height="8" fill="url(#paint1_linear_1394_8347)"/>
<path opacity="0.5" fill-rule="evenodd" clip-rule="evenodd" d="M20 12V36H16L24 46L32 36H28L28 12H32L24 2L16 12L20 12Z" fill="url(#paint2_linear_1394_8347)"/>
<path fill-rule="evenodd" clip-rule="evenodd" d="M28 28H36V32L46 24L36 16V20H28V28Z" fill="url(#paint3_linear_1394_8347)"/>
</g>
<defs>
<linearGradient id="paint0_linear_1394_8347" x1="14.1738" y1="11.4487" x2="9.97226" y2="31.7581" gradientUnits="userSpaceOnUse">
<stop stop-color="#70B1FF"/>
<stop offset="1" stop-color="#005CCD"/>
</linearGradient>
<linearGradient id="paint1_linear_1394_8347" x1="24" y1="16" x2="16" y2="24" gradientUnits="userSpaceOnUse">
<stop stop-color="#6EA3F1"/>
<stop offset="1" stop-color="#578EE2"/>
</linearGradient>
<linearGradient id="paint2_linear_1394_8347" x1="21.9289" y1="-8.7887" x2="-0.733749" y2="-0.184029" gradientUnits="userSpaceOnUse">
<stop stop-color="#70B1FF"/>
<stop offset="1" stop-color="#005CCD"/>
</linearGradient>
<linearGradient id="paint3_linear_1394_8347" x1="24.7938" y1="47.3743" x2="48.577" y2="29.5272" gradientUnits="userSpaceOnUse">
<stop stop-color="#295296"/>
<stop offset="1" stop-color="#3E78D3"/>
</linearGradient>
<clipPath id="clip0_1394_8347">
<rect width="48" height="48" fill="white"/>
</clipPath>
</defs>
</svg>
