<svg width="48" height="48" viewBox="0 0 48 48" fill="none" xmlns="http://www.w3.org/2000/svg">
<path opacity="0.4" fill-rule="evenodd" clip-rule="evenodd" d="M36.0659 42.0039L32.0594 45.0039L28.0481 42.0039L24.0392 45.0039L20.0303 42.0039L16.0214 45.0039L12.0125 42.0039L8.00359 45.0039L4.03298 42.0039L4.00379 7.50772C4.00168 5.02095 6.01702 3.00391 8.50379 3.00391L39.9949 3.00391C37.7861 3.00432 35.9957 4.79502 35.9957 7.00391L36.0659 42.0039Z" fill="url(#paint0_linear_1394_8353)"/>
<path opacity="0.4" fill-rule="evenodd" clip-rule="evenodd" d="M44 20.5351V7C44 4.79086 42.2091 3 40 3H8.5C10.9853 3 13 5.01472 13 7.5L12.982 17.9906C12.9768 21.3043 15.6588 23.9948 18.9725 24C33.2418 24 42.251 24 46 24C44.8044 23.3084 44 22.0157 44 20.5351Z" fill="url(#paint1_linear_1394_8353)"/>
<path d="M22 14.0226C24.8022 14.2763 26.9978 16.6317 26.9978 19.5V20.5H23.9978V19.5C23.9978 18.1193 22.8785 17 21.4978 17H19.5C18.1193 17 17 18.1193 17 19.5C17 20.8807 18.1193 22 19.5 22H21.4995C24.5361 22 26.9978 24.4617 26.9978 27.4983C26.9978 30.3662 24.8021 32.7213 22 32.9741V37H19V32.9742C16.1967 32.7215 14 30.3656 14 27.4966V26.5H17V27.4966C17 28.8773 18.1193 29.9966 19.5 29.9966H21.4995C22.8793 29.9966 23.9978 28.8781 23.9978 27.4983C23.9978 26.1185 22.8793 25 21.4995 25H19.5C16.4624 25 14 22.5376 14 19.5C14 16.631 16.1967 14.275 19 14.0224V10H22V14.0226V14.0226Z" fill="url(#paint2_linear_1394_8353)"/>
<defs>
<linearGradient id="paint0_linear_1394_8353" x1="-19.9321" y1="36.7" x2="29.0992" y2="64.3416" gradientUnits="userSpaceOnUse">
<stop stop-color="#70B1FF"/>
<stop offset="1" stop-color="#005CCD"/>
</linearGradient>
<linearGradient id="paint1_linear_1394_8353" x1="-16.4367" y1="19.8465" x2="11.8466" y2="53.0726" gradientUnits="userSpaceOnUse">
<stop stop-color="#70B1FF"/>
<stop offset="1" stop-color="#005CCD"/>
</linearGradient>
<linearGradient id="paint2_linear_1394_8353" x1="49.3509" y1="23.1765" x2="17.7787" y2="13.9025" gradientUnits="userSpaceOnUse">
<stop stop-color="#295296"/>
<stop offset="1" stop-color="#3E78D3"/>
</linearGradient>
</defs>
</svg>
