<svg width="48" height="48" viewBox="0 0 48 48" fill="none" xmlns="http://www.w3.org/2000/svg">
<rect opacity="0.4" x="2" y="10" width="32" height="24" fill="url(#paint0_linear_1394_8363)"/>
<path opacity="0.35" d="M2 10H34V19C34 21.2091 32.2091 23 30 23H6C3.79086 23 2 21.2091 2 19V10Z" fill="url(#paint1_linear_1394_8363)"/>
<rect x="15" y="20.5" width="6" height="6" fill="url(#paint2_linear_1394_8363)"/>
<path opacity="0.45" d="M13 13V8.5C13 7.67157 13.6716 7 14.5 7H21.5C22.3284 7 23 7.67157 23 8.5V13H26V8.5C26 6.01472 23.9853 4 21.5 4H14.5C12.0147 4 10 6.01472 10 8.5V13H13Z" fill="url(#paint3_linear_1394_8363)"/>
<path opacity="0.5" fill-rule="evenodd" clip-rule="evenodd" d="M26 19H46V33.4763C46 35.988 44.8203 38.354 42.8143 39.8655L36 45L29.1857 39.8655C27.1797 38.354 26 35.988 26 33.4763V19Z" fill="url(#paint4_linear_1394_8363)"/>
<path fill-rule="evenodd" clip-rule="evenodd" d="M34 19V34H26.0171C26.0058 33.8263 26 33.6516 26 33.4763V19H34Z" fill="url(#paint5_linear_1394_8363)"/>
<path fill-rule="evenodd" clip-rule="evenodd" d="M34 19C34 21.2091 32.2091 23 30 23H26V19H34Z" fill="url(#paint6_linear_1394_8363)"/>
<path fill-rule="evenodd" clip-rule="evenodd" d="M36 19H46V33.5994C46 36.0415 44.8259 38.3498 42.8119 39.8673L36 45V19Z" fill="url(#paint7_linear_1394_8363)"/>
<rect x="10" y="10" width="3" height="3" fill="#568AE3"/>
<rect x="23" y="10" width="3" height="3" fill="#548AE3"/>
<defs>
<linearGradient id="paint0_linear_1394_8363" x1="18" y1="-2" x2="-5.04" y2="28.72" gradientUnits="userSpaceOnUse">
<stop stop-color="#70B1FF"/>
<stop offset="1" stop-color="#005CCD"/>
</linearGradient>
<linearGradient id="paint1_linear_1394_8363" x1="34" y1="16.5" x2="2" y2="16.5" gradientUnits="userSpaceOnUse">
<stop stop-color="#70B1FF"/>
<stop offset="1" stop-color="#005CCD"/>
</linearGradient>
<linearGradient id="paint2_linear_1394_8363" x1="10.2861" y1="22.4685" x2="17.2446" y2="29.9792" gradientUnits="userSpaceOnUse">
<stop stop-color="#295296"/>
<stop offset="1" stop-color="#3E78D3"/>
</linearGradient>
<linearGradient id="paint3_linear_1394_8363" x1="-6.59483" y1="6.02783" x2="3.13648" y2="24.832" gradientUnits="userSpaceOnUse">
<stop stop-color="#70B1FF"/>
<stop offset="1" stop-color="#005CCD"/>
</linearGradient>
<linearGradient id="paint4_linear_1394_8363" x1="14.2014" y1="52.6268" x2="42.889" y2="59.0011" gradientUnits="userSpaceOnUse">
<stop stop-color="#70B1FF"/>
<stop offset="1" stop-color="#005CCD"/>
</linearGradient>
<linearGradient id="paint5_linear_1394_8363" x1="28.83" y1="17.2496" x2="19.5864" y2="22.3293" gradientUnits="userSpaceOnUse">
<stop stop-color="#7CADF4"/>
<stop offset="1" stop-color="#75A8F0"/>
</linearGradient>
<linearGradient id="paint6_linear_1394_8363" x1="30" y1="17" x2="26.8" y2="23.4" gradientUnits="userSpaceOnUse">
<stop stop-color="#699FF5"/>
<stop offset="1" stop-color="#669CF3"/>
</linearGradient>
<linearGradient id="paint7_linear_1394_8363" x1="32.1818" y1="29.0439" x2="45.527" y2="34.117" gradientUnits="userSpaceOnUse">
<stop stop-color="#79ACF6"/>
<stop offset="1" stop-color="#5388DC"/>
</linearGradient>
</defs>
</svg>
