<svg width="48" height="48" viewBox="0 0 48 48" fill="none" xmlns="http://www.w3.org/2000/svg">
<path opacity="0.4" fill-rule="evenodd" clip-rule="evenodd" d="M20 28.0078L12 20.0078L4 28.0078V41.9998H44V20.0078L36 12.0078L20 28.0078Z" fill="url(#paint0_linear_1394_8390)"/>
<path fill-rule="evenodd" clip-rule="evenodd" d="M12 42.008L20 34L28 36.8861L44 21V42.008H12Z" fill="url(#paint1_linear_1394_8390)"/>
<path opacity="0.5" d="M4 31.287L28.1058 7.1812L26.3388 5.41421L34.117 4L32.7028 11.7782L30.935 10.0104L22.0962 18.8492L22.0979 18.846L4 36.9439L4 31.287Z" fill="url(#paint2_linear_1394_8390)"/>
<path fill-rule="evenodd" clip-rule="evenodd" d="M13.6395 21.6475L16.4679 24.4759L4 36.9438L4 31.287L13.6395 21.6475V21.6475Z" fill="url(#paint3_linear_1394_8390)"/>
<defs>
<linearGradient id="paint0_linear_1394_8390" x1="46.0934" y1="26.219" x2="4" y2="26.219" gradientUnits="userSpaceOnUse">
<stop stop-color="#72B2FF"/>
<stop offset="1" stop-color="#005CCD"/>
</linearGradient>
<linearGradient id="paint1_linear_1394_8390" x1="28" y1="10.496" x2="8.72419" y2="39.8574" gradientUnits="userSpaceOnUse">
<stop stop-color="#8BBBFD"/>
<stop offset="1" stop-color="#568ADB"/>
</linearGradient>
<linearGradient id="paint2_linear_1394_8390" x1="21.193" y1="58.0854" x2="54.3962" y2="23.4287" gradientUnits="userSpaceOnUse">
<stop stop-color="#72B2FF"/>
<stop offset="1" stop-color="#005CCD"/>
</linearGradient>
<linearGradient id="paint3_linear_1394_8390" x1="8.32927" y1="53.674" x2="27.1459" y2="34.6245" gradientUnits="userSpaceOnUse">
<stop stop-color="#295296"/>
<stop offset="1" stop-color="#3E78D3"/>
</linearGradient>
</defs>
</svg>
