<svg width="48" height="48" viewBox="0 0 48 48" fill="none" xmlns="http://www.w3.org/2000/svg">
<rect opacity="0.45" x="3" y="2" width="26" height="16" rx="1" fill="url(#paint0_linear_1394_8395)"/>
<path opacity="0.45" fill-rule="evenodd" clip-rule="evenodd" d="M20 25H44C44.5523 25 45 25.4477 45 26V40C45 40.5523 44.5523 41 44 41H20C19.4477 41 19 40.5523 19 40V26C19 25.4477 19.4477 25 20 25Z" fill="url(#paint1_linear_1394_8395)"/>
<path fill-rule="evenodd" clip-rule="evenodd" d="M29 15V17C29 17.5523 28.5523 18 28 18H4C3.44772 18 3 17.5523 3 17V15H29Z" fill="url(#paint2_linear_1394_8395)"/>
<path fill-rule="evenodd" clip-rule="evenodd" d="M45 38V40C45 40.5523 44.5523 41 44 41H20C19.4477 41 19 40.5523 19 40V38H45Z" fill="url(#paint3_linear_1394_8395)"/>
<path fill-rule="evenodd" clip-rule="evenodd" d="M13 18H19L20 23H12L13 18Z" fill="url(#paint4_linear_1394_8395)" fill-opacity="0.55"/>
<path opacity="0.55" fill-rule="evenodd" clip-rule="evenodd" d="M29 41H35L36 46H28L29 41Z" fill="url(#paint5_linear_1394_8395)"/>
<path opacity="0.55" d="M35 11H23V7H39V31H35V11Z" fill="url(#paint6_linear_1394_8395)"/>
<path fill-rule="evenodd" clip-rule="evenodd" d="M29 7V11H23V7H29Z" fill="url(#paint7_linear_1394_8395)"/>
<path opacity="0.55" d="M7 31H26V35H3V21H7V31Z" fill="url(#paint8_linear_1394_8395)"/>
<rect x="19" y="31" width="7" height="4" fill="url(#paint9_linear_1394_8395)"/>
<rect x="35" y="25" width="4" height="6" fill="url(#paint10_linear_1394_8395)"/>
<defs>
<linearGradient id="paint0_linear_1394_8395" x1="18.2838" y1="-6" x2="2.6567" y2="14.9329" gradientUnits="userSpaceOnUse">
<stop stop-color="#70B1FF"/>
<stop offset="1" stop-color="#005CCD"/>
</linearGradient>
<linearGradient id="paint1_linear_1394_8395" x1="34.2838" y1="17" x2="18.6567" y2="37.9329" gradientUnits="userSpaceOnUse">
<stop stop-color="#70B1FF"/>
<stop offset="1" stop-color="#005CCD"/>
</linearGradient>
<linearGradient id="paint2_linear_1394_8395" x1="18.2838" y1="13.5" x2="17.4447" y2="19.4949" gradientUnits="userSpaceOnUse">
<stop stop-color="#87B7FB"/>
<stop offset="1" stop-color="#4F84D6"/>
</linearGradient>
<linearGradient id="paint3_linear_1394_8395" x1="28.4496" y1="43.3516" x2="29.376" y2="36.9885" gradientUnits="userSpaceOnUse">
<stop stop-color="#295296"/>
<stop offset="1" stop-color="#3E78D3"/>
</linearGradient>
<linearGradient id="paint4_linear_1394_8395" x1="16.01" y1="13.1769" x2="10.9912" y2="22.4543" gradientUnits="userSpaceOnUse">
<stop stop-color="#70B1FF"/>
<stop offset="1" stop-color="#005CCD"/>
</linearGradient>
<linearGradient id="paint5_linear_1394_8395" x1="32.01" y1="36.1769" x2="26.9912" y2="45.4543" gradientUnits="userSpaceOnUse">
<stop stop-color="#70B1FF"/>
<stop offset="1" stop-color="#005CCD"/>
</linearGradient>
<linearGradient id="paint6_linear_1394_8395" x1="28.1981" y1="-5" x2="47.3581" y2="3.29965" gradientUnits="userSpaceOnUse">
<stop stop-color="#70B1FF"/>
<stop offset="1" stop-color="#005CCD"/>
</linearGradient>
<linearGradient id="paint7_linear_1394_8395" x1="25.1807" y1="14.1354" x2="29.4487" y2="9.06165" gradientUnits="userSpaceOnUse">
<stop stop-color="#295296"/>
<stop offset="1" stop-color="#3E78D3"/>
</linearGradient>
<linearGradient id="paint8_linear_1394_8395" x1="18.5277" y1="42" x2="3.23882" y2="25.6795" gradientUnits="userSpaceOnUse">
<stop stop-color="#70B1FF"/>
<stop offset="1" stop-color="#005CCD"/>
</linearGradient>
<linearGradient id="paint9_linear_1394_8395" x1="15.5" y1="33" x2="18.9462" y2="39.0308" gradientUnits="userSpaceOnUse">
<stop stop-color="#5A91E5"/>
<stop offset="1" stop-color="#6BA0EF"/>
</linearGradient>
<linearGradient id="paint10_linear_1394_8395" x1="33" y1="28" x2="38.5385" y2="31.6923" gradientUnits="userSpaceOnUse">
<stop stop-color="#528BE1"/>
<stop offset="1" stop-color="#5088DF"/>
</linearGradient>
</defs>
</svg>
