<svg width="48" height="48" viewBox="0 0 48 48" fill="none" xmlns="http://www.w3.org/2000/svg">
<rect opacity="0.35" x="5" y="11" width="32" height="32" fill="url(#paint0_linear_1394_8422)"/>
<path opacity="0.5" fill-rule="evenodd" clip-rule="evenodd" d="M11.8579 31.8994L35.8996 7.8578L33.7782 5.73648L43.6777 4.32227L42.2635 14.2218L40.1422 12.1004L16.1006 36.1421L18.2219 38.2634L8.32239 39.6776L9.7366 29.7781L11.8579 31.8994Z" fill="url(#paint1_linear_1394_8422)"/>
<rect opacity="0.4" x="5" y="21" width="22" height="22" fill="url(#paint2_linear_1394_8422)"/>
<path fill-rule="evenodd" clip-rule="evenodd" d="M22.7574 21H27.0001V25.2426L16.1006 36.1421L18.2219 38.2635L8.32239 39.6777L9.7366 29.7782L11.8579 31.8995L22.7574 21Z" fill="url(#paint3_linear_1394_8422)"/>
<defs>
<linearGradient id="paint0_linear_1394_8422" x1="5" y1="27" x2="37" y2="27" gradientUnits="userSpaceOnUse">
<stop stop-color="#70B1FF"/>
<stop offset="1" stop-color="#005CCD"/>
</linearGradient>
<linearGradient id="paint1_linear_1394_8422" x1="28.5058" y1="62.3667" x2="63.8611" y2="21.9999" gradientUnits="userSpaceOnUse">
<stop stop-color="#72B2FF"/>
<stop offset="1" stop-color="#005CCD"/>
</linearGradient>
<linearGradient id="paint2_linear_1394_8422" x1="5" y1="32" x2="27" y2="32" gradientUnits="userSpaceOnUse">
<stop stop-color="#70B1FF"/>
<stop offset="1" stop-color="#005CCD"/>
</linearGradient>
<linearGradient id="paint3_linear_1394_8422" x1="12.888" y1="55.5226" x2="36.843" y2="35.8368" gradientUnits="userSpaceOnUse">
<stop stop-color="#295296"/>
<stop offset="1" stop-color="#3E78D3"/>
</linearGradient>
</defs>
</svg>
