<svg width="48" height="48" viewBox="0 0 48 48" fill="none" xmlns="http://www.w3.org/2000/svg">
<rect opacity="0.45" x="4" y="22" width="31" height="19" fill="url(#paint0_linear_1394_8434)"/>
<path opacity="0.6" fill-rule="evenodd" clip-rule="evenodd" d="M15.5023 16H4V22H35V19H18.5L15.5023 16Z" fill="url(#paint1_linear_1394_8434)"/>
<path opacity="0.45" fill-rule="evenodd" clip-rule="evenodd" d="M34.9953 15.0118V12.8797L39.5026 8.37237L37.3826 6.25229L34.9953 8.63958V6.00244L31.997 6.00244V8.64419L29.6051 6.25229L27.4851 8.37237L31.997 12.8843V14.9949H29.8773L25.3699 10.4875L23.2499 12.6076L25.6371 14.9949H23V17.9931H25.6418L23.2499 20.385L25.3699 22.5051L29.8819 17.9931H32.0047V20.1252L27.4974 24.6325L29.6174 26.7526L32.0047 24.3653V27.0024H35.003V24.3607L37.3949 26.7526L39.5149 24.6325L35.003 20.1205V18.01H37.1227L41.6301 22.5174L43.7501 20.3973L41.3629 18.01H44V15.0118H41.3582L43.7501 12.6199L41.6301 10.4998L37.1181 15.0118H34.9953Z" fill="url(#paint2_linear_1394_8434)"/>
<path fill-rule="evenodd" clip-rule="evenodd" d="M35 27.0023H32.0047V24.3652L29.6174 26.7525L27.4973 24.6324L32.0047 20.125V19H35V27.0023Z" fill="url(#paint3_linear_1394_8434)"/>
<path fill-rule="evenodd" clip-rule="evenodd" d="M28.8749 19L25.37 22.5049L23.2499 20.3849L24.6347 19H28.8749Z" fill="url(#paint4_linear_1394_8434)"/>
<defs>
<linearGradient id="paint0_linear_1394_8434" x1="-11.5" y1="22" x2="-11.5" y2="41" gradientUnits="userSpaceOnUse">
<stop stop-color="#70B1FF"/>
<stop offset="1" stop-color="#005CCD"/>
</linearGradient>
<linearGradient id="paint1_linear_1394_8434" x1="27.25" y1="16" x2="22.2002" y2="29.0452" gradientUnits="userSpaceOnUse">
<stop stop-color="#70B1FF"/>
<stop offset="1" stop-color="#005CCD"/>
</linearGradient>
<linearGradient id="paint2_linear_1394_8434" x1="35.8638" y1="38.082" x2="51.2046" y2="15.7666" gradientUnits="userSpaceOnUse">
<stop stop-color="#72B2FF"/>
<stop offset="1" stop-color="#005CCD"/>
</linearGradient>
<linearGradient id="paint3_linear_1394_8434" x1="48.7725" y1="8.43528" x2="28.9624" y2="8.43528" gradientUnits="userSpaceOnUse">
<stop stop-color="#295296"/>
<stop offset="1" stop-color="#3E78D3"/>
</linearGradient>
<linearGradient id="paint4_linear_1394_8434" x1="39.2007" y1="14.3727" x2="24.3483" y2="14.3727" gradientUnits="userSpaceOnUse">
<stop stop-color="#295296"/>
<stop offset="1" stop-color="#3E78D3"/>
</linearGradient>
</defs>
</svg>
