<svg width="48" height="48" viewBox="0 0 48 48" fill="none" xmlns="http://www.w3.org/2000/svg">
<rect opacity="0.45" x="4" y="22" width="31" height="19" fill="url(#paint0_linear_1394_8454)"/>
<path opacity="0.6" fill-rule="evenodd" clip-rule="evenodd" d="M15.5023 16H4V22H35V19.0368L18.5 19.0092L15.5023 16Z" fill="url(#paint1_linear_1394_8454)"/>
<path opacity="0.45" fill-rule="evenodd" clip-rule="evenodd" d="M26.5 3L32 6.25V12.75L26.5 16L21 12.75L21 6.25L26.5 3Z" fill="url(#paint2_linear_1394_8454)"/>
<path opacity="0.45" fill-rule="evenodd" clip-rule="evenodd" d="M39.5 3L45 6.25V12.75L39.5 16L34 12.75V6.25L39.5 3Z" fill="url(#paint3_linear_1394_8454)"/>
<path opacity="0.45" fill-rule="evenodd" clip-rule="evenodd" d="M33 14.25L38.5 17.5V24L33 27.25L27.5 24L27.5 17.5L33 14.25Z" fill="url(#paint4_linear_1394_8454)"/>
<path opacity="0.45" fill-rule="evenodd" clip-rule="evenodd" d="M27.5 22H35.0005L34.9992 26.0679L33 27.2492L27.5 23.9992V22Z" fill="url(#paint5_linear_1394_8454)"/>
<path fill-rule="evenodd" clip-rule="evenodd" d="M27.5 19L35 19.0134V21.9766H27.5V19Z" fill="url(#paint6_linear_1394_8454)" fill-opacity="0.6"/>
<path fill-rule="evenodd" clip-rule="evenodd" d="M38.5 17.5V23.9991L33 27.2491V21.2491L38.5 17.5Z" fill="url(#paint7_linear_1394_8454)"/>
<path fill-rule="evenodd" clip-rule="evenodd" d="M32 6.25V12.7491L26.5 15.9991V9.99912L32 6.25Z" fill="url(#paint8_linear_1394_8454)"/>
<path fill-rule="evenodd" clip-rule="evenodd" d="M45 6.25V12.7491L39.5 15.9991V9.99912L45 6.25Z" fill="url(#paint9_linear_1394_8454)"/>
<defs>
<linearGradient id="paint0_linear_1394_8454" x1="-11.5" y1="22" x2="-11.5" y2="41" gradientUnits="userSpaceOnUse">
<stop stop-color="#70B1FF"/>
<stop offset="1" stop-color="#005CCD"/>
</linearGradient>
<linearGradient id="paint1_linear_1394_8454" x1="31.5273" y1="15.0126" x2="25.4263" y2="30.4616" gradientUnits="userSpaceOnUse">
<stop stop-color="#70B1FF"/>
<stop offset="1" stop-color="#005CCD"/>
</linearGradient>
<linearGradient id="paint2_linear_1394_8454" x1="15.5" y1="3" x2="15.5" y2="16" gradientUnits="userSpaceOnUse">
<stop stop-color="#70B1FF"/>
<stop offset="1" stop-color="#005CCD"/>
</linearGradient>
<linearGradient id="paint3_linear_1394_8454" x1="28.5" y1="3" x2="28.5" y2="16" gradientUnits="userSpaceOnUse">
<stop stop-color="#70B1FF"/>
<stop offset="1" stop-color="#005CCD"/>
</linearGradient>
<linearGradient id="paint4_linear_1394_8454" x1="22" y1="14.25" x2="22" y2="27.25" gradientUnits="userSpaceOnUse">
<stop stop-color="#70B1FF"/>
<stop offset="1" stop-color="#005CCD"/>
</linearGradient>
<linearGradient id="paint5_linear_1394_8454" x1="23.7498" y1="23.8694" x2="26.9088" y2="30.2069" gradientUnits="userSpaceOnUse">
<stop stop-color="#75A7F0"/>
<stop offset="1" stop-color="#6397E5"/>
</linearGradient>
<linearGradient id="paint6_linear_1394_8454" x1="30.8517" y1="17.5907" x2="28.9927" y2="22.5375" gradientUnits="userSpaceOnUse">
<stop stop-color="#699EF0"/>
<stop offset="1" stop-color="#5991E7"/>
</linearGradient>
<linearGradient id="paint7_linear_1394_8454" x1="34.3444" y1="35.5197" x2="44.0715" y2="31.0101" gradientUnits="userSpaceOnUse">
<stop stop-color="#295296"/>
<stop offset="1" stop-color="#3E78D3"/>
</linearGradient>
<linearGradient id="paint8_linear_1394_8454" x1="29.25" y1="1.37544" x2="20.9057" y2="6.08289" gradientUnits="userSpaceOnUse">
<stop stop-color="#84B4FA"/>
<stop offset="1" stop-color="#4E82D5"/>
</linearGradient>
<linearGradient id="paint9_linear_1394_8454" x1="42.25" y1="1.37544" x2="33.9057" y2="6.08289" gradientUnits="userSpaceOnUse">
<stop stop-color="#84B4FA"/>
<stop offset="1" stop-color="#4E82D5"/>
</linearGradient>
</defs>
</svg>
