<svg width="48" height="48" viewBox="0 0 48 48" fill="none" xmlns="http://www.w3.org/2000/svg">
<path opacity="0.4" fill-rule="evenodd" clip-rule="evenodd" d="M45 39L40 26H7L2 39V39.5C2 40.3284 2.67157 41 3.5 41H43.5C44.3284 41 45 40.3284 45 39.5V39Z" fill="url(#paint0_linear_1394_8473)"/>
<path opacity="0.55" d="M18 39H27V40C27 40.5523 26.5523 41 26 41H19C18.4477 41 18 40.5523 18 40V39Z" fill="url(#paint1_linear_1394_8473)"/>
<path opacity="0.35" fill-rule="evenodd" clip-rule="evenodd" d="M7 8.5C7 7.67157 7.67157 7 8.5 7H38.5C39.3284 7 40 7.67157 40 8.5V26H7V8.5Z" fill="url(#paint2_linear_1394_8473)"/>
<rect opacity="0.25" x="9" y="9" width="29" height="15" fill="url(#paint3_linear_1394_8473)"/>
<path opacity="0.45" fill-rule="evenodd" clip-rule="evenodd" d="M10 26H44.5V30H10V26Z" fill="url(#paint4_linear_1394_8473)"/>
<path fill-rule="evenodd" clip-rule="evenodd" d="M10 26H14L10 30V26Z" fill="url(#paint5_linear_1394_8473)"/>
<path fill-rule="evenodd" clip-rule="evenodd" d="M34 30H30L34 26V30Z" fill="url(#paint6_linear_1394_8473)"/>
<path fill-rule="evenodd" clip-rule="evenodd" d="M18 26H22L18 30H14L18 26Z" fill="url(#paint7_linear_1394_8473)"/>
<path fill-rule="evenodd" clip-rule="evenodd" d="M26 26H30L26 30H22L26 26Z" fill="url(#paint8_linear_1394_8473)"/>
<defs>
<linearGradient id="paint0_linear_1394_8473" x1="66.5" y1="34.4179" x2="59.0676" y2="10.1403" gradientUnits="userSpaceOnUse">
<stop stop-color="#70B1FF"/>
<stop offset="1" stop-color="#005CCD"/>
</linearGradient>
<linearGradient id="paint1_linear_1394_8473" x1="23.1286" y1="37.0995" x2="22.1482" y2="41.8552" gradientUnits="userSpaceOnUse">
<stop stop-color="#70B1FF"/>
<stop offset="1" stop-color="#005CCD"/>
</linearGradient>
<linearGradient id="paint2_linear_1394_8473" x1="23.5" y1="35.5" x2="39.9317" y2="6.96069" gradientUnits="userSpaceOnUse">
<stop stop-color="#70B1FF"/>
<stop offset="1" stop-color="#005CCD"/>
</linearGradient>
<linearGradient id="paint3_linear_1394_8473" x1="23.5" y1="31.5" x2="35.742" y2="7.83208" gradientUnits="userSpaceOnUse">
<stop stop-color="#70B1FF"/>
<stop offset="1" stop-color="#005CCD"/>
</linearGradient>
<linearGradient id="paint4_linear_1394_8473" x1="29.6598" y1="22.1989" x2="28.6054" y2="32.0012" gradientUnits="userSpaceOnUse">
<stop stop-color="#70B1FF"/>
<stop offset="1" stop-color="#005CCD"/>
</linearGradient>
<linearGradient id="paint5_linear_1394_8473" x1="12" y1="41.3247" x2="34.6494" y2="37.3247" gradientUnits="userSpaceOnUse">
<stop stop-color="#295296"/>
<stop offset="1" stop-color="#3E78D3"/>
</linearGradient>
<linearGradient id="paint6_linear_1394_8473" x1="13.8716" y1="41.0642" x2="36" y2="37.0642" gradientUnits="userSpaceOnUse">
<stop stop-color="#295296"/>
<stop offset="1" stop-color="#3E78D3"/>
</linearGradient>
<linearGradient id="paint7_linear_1394_8473" x1="14.2495" y1="35.7371" x2="31.5679" y2="23.6623" gradientUnits="userSpaceOnUse">
<stop stop-color="#295296"/>
<stop offset="1" stop-color="#3E78D3"/>
</linearGradient>
<linearGradient id="paint8_linear_1394_8473" x1="14.8872" y1="35.5729" x2="31.4942" y2="23.653" gradientUnits="userSpaceOnUse">
<stop stop-color="#295296"/>
<stop offset="1" stop-color="#3E78D3"/>
</linearGradient>
</defs>
</svg>
