<svg width="48" height="48" viewBox="0 0 48 48" fill="none" xmlns="http://www.w3.org/2000/svg">
<path opacity="0.35" fill-rule="evenodd" clip-rule="evenodd" d="M9.5 14H42.5C43.3284 14 44 14.6716 44 15.5V36.5C44 37.3284 43.3284 38 42.5 38H9.5C8.67157 38 8 37.3284 8 36.5V15.5C8 14.6716 8.67157 14 9.5 14Z" fill="url(#paint0_linear_1394_8483)"/>
<path opacity="0.35" fill-rule="evenodd" clip-rule="evenodd" d="M4.5 5H37.5C38.3284 5 39 5.67157 39 6.5V27.5C39 28.3284 38.3284 29 37.5 29H4.5C3.67157 29 3 28.3284 3 27.5V6.5C3 5.67157 3.67157 5 4.5 5Z" fill="url(#paint1_linear_1394_8483)"/>
<path opacity="0.45" fill-rule="evenodd" clip-rule="evenodd" d="M22.25 38H29.75L31 44H21L22.25 38Z" fill="url(#paint2_linear_1394_8483)"/>
<path opacity="0.45" fill-rule="evenodd" clip-rule="evenodd" d="M8 33H44V36.5C44 37.3284 43.3284 38 42.5 38H9.5C8.67157 38 8 37.3284 8 36.5V33Z" fill="url(#paint3_linear_1394_8483)"/>
<defs>
<linearGradient id="paint0_linear_1394_8483" x1="-6.05558" y1="25.6967" x2="16.9326" y2="55.1092" gradientUnits="userSpaceOnUse">
<stop stop-color="#70B1FF"/>
<stop offset="1" stop-color="#005CCD"/>
</linearGradient>
<linearGradient id="paint1_linear_1394_8483" x1="-11.0556" y1="16.6967" x2="11.9326" y2="46.1092" gradientUnits="userSpaceOnUse">
<stop stop-color="#70B1FF"/>
<stop offset="1" stop-color="#005CCD"/>
</linearGradient>
<linearGradient id="paint2_linear_1394_8483" x1="24.9405" y1="36.2672" x2="20.6435" y2="43.7966" gradientUnits="userSpaceOnUse">
<stop stop-color="#70B1FF"/>
<stop offset="1" stop-color="#005CCD"/>
</linearGradient>
<linearGradient id="paint3_linear_1394_8483" x1="24.0977" y1="32.0374" x2="23.3577" y2="38.4424" gradientUnits="userSpaceOnUse">
<stop stop-color="#70B1FF"/>
<stop offset="1" stop-color="#005CCD"/>
</linearGradient>
</defs>
</svg>
