<svg width="48" height="48" viewBox="0 0 48 48" fill="none" xmlns="http://www.w3.org/2000/svg">
<path opacity="0.35" fill-rule="evenodd" clip-rule="evenodd" d="M3 4H25V21.0175C25 23.177 24.0033 25.2156 22.299 26.5418L14 33L5.70101 26.5418C3.99673 25.2156 3 23.177 3 21.0175L3 4Z" fill="url(#paint0_linear_1394_8503)"/>
<path opacity="0.4" fill-rule="evenodd" clip-rule="evenodd" d="M14 4V33L5.70101 26.5418C3.99673 25.2156 3 23.177 3 21.0175L3 4H14Z" fill="url(#paint1_linear_1394_8503)"/>
<path opacity="0.45" fill-rule="evenodd" clip-rule="evenodd" d="M18 28C21.866 28 25 24.866 25 21C25 17.134 21.866 14 18 14C14.134 14 11 17.134 11 21C11 24.866 14.134 28 18 28Z" fill="url(#paint2_linear_1394_8503)"/>
<path fill-rule="evenodd" clip-rule="evenodd" d="M14 15.2549V26.7455C12.1865 25.4806 11 23.3789 11 21.0002C11 18.6214 12.1865 16.5198 14 15.2549V15.2549Z" fill="url(#paint3_linear_1394_8503)"/>
<path opacity="0.45" fill-rule="evenodd" clip-rule="evenodd" d="M24.2611 43L14 37.0757L14.5 36.2097C15.6046 34.2965 18.0509 33.641 19.9641 34.7456L24.5885 37.4155L15.5442 21.7504C14.8539 20.5547 15.2636 19.0257 16.4593 18.3354C17.655 17.645 19.184 18.0547 19.8744 19.2504L24.8742 27.9105C24.9657 27.1567 25.3982 26.4535 26.1064 26.0446C27.3021 25.3543 28.8311 25.764 29.5215 26.9597L30.0213 27.8255C30.1128 27.0717 30.5453 26.3686 31.2535 25.9597C32.4493 25.2694 33.9782 25.679 34.6686 26.8748L35.1685 27.7406C35.3734 27.2599 35.7302 26.8392 36.2176 26.5578C37.4134 25.8674 38.9423 26.2771 39.6327 27.4728L45.791 43H24.2611Z" fill="url(#paint4_linear_1394_8503)"/>
<path fill-rule="evenodd" clip-rule="evenodd" d="M23.4388 25.4243C23.106 25.8351 22.7245 26.2107 22.299 26.5418L19.547 28.6834L15.5442 21.7504C14.8539 20.5547 15.2635 19.0257 16.4593 18.3354C17.655 17.645 19.184 18.0547 19.8743 19.2504L23.4388 25.4243V25.4243Z" fill="url(#paint5_linear_1394_8503)"/>
<defs>
<linearGradient id="paint0_linear_1394_8503" x1="-9.97842" y1="41.5068" x2="21.6186" y2="48.4307" gradientUnits="userSpaceOnUse">
<stop stop-color="#70B1FF"/>
<stop offset="1" stop-color="#005CCD"/>
</linearGradient>
<linearGradient id="paint1_linear_1394_8503" x1="-4.59223" y1="24.1991" x2="22.0184" y2="34.2013" gradientUnits="userSpaceOnUse">
<stop stop-color="#70B1FF"/>
<stop offset="1" stop-color="#005CCD"/>
<stop offset="1" stop-color="#005CCD"/>
</linearGradient>
<linearGradient id="paint2_linear_1394_8503" x1="18" y1="35" x2="32" y2="21" gradientUnits="userSpaceOnUse">
<stop stop-color="#70B1FF"/>
<stop offset="1" stop-color="#005CCD"/>
</linearGradient>
<linearGradient id="paint3_linear_1394_8503" x1="12.5" y1="15.2549" x2="12.5" y2="26.7455" gradientUnits="userSpaceOnUse">
<stop stop-color="#5A8FE6"/>
<stop offset="1" stop-color="#5E92E9"/>
</linearGradient>
<linearGradient id="paint4_linear_1394_8503" x1="60.6441" y1="31.1829" x2="37.6132" y2="2.2348" gradientUnits="userSpaceOnUse">
<stop stop-color="#70B1FF"/>
<stop offset="1" stop-color="#005CCD"/>
</linearGradient>
<linearGradient id="paint5_linear_1394_8503" x1="2.99095" y1="11.5978" x2="14.7449" y2="31.4011" gradientUnits="userSpaceOnUse">
<stop stop-color="#295296"/>
<stop offset="1" stop-color="#3E78D3"/>
</linearGradient>
</defs>
</svg>
