<svg width="48" height="48" viewBox="0 0 48 48" fill="none" xmlns="http://www.w3.org/2000/svg">
<g opacity="0.45" style="mix-blend-mode:multiply">
<path fill-rule="evenodd" clip-rule="evenodd" d="M45.2593 4.14267C45.3228 8.94398 43.4518 14.1662 38.6058 19.3294L24.5779 33.3818L16.0201 24.824L30.0603 10.7839C35.2358 5.95021 40.458 4.07916 45.2593 4.14267Z" fill="url(#paint0_linear_1394_8510)"/>
</g>
<path opacity="0.5" fill-rule="evenodd" clip-rule="evenodd" d="M33.1356 32.669L31.7093 22.6849L22.795 31.5993L24.2213 41.5834L33.1356 32.669Z" fill="url(#paint1_linear_1394_8510)"/>
<path fill-rule="evenodd" clip-rule="evenodd" d="M32.1534 25.7934L24.5778 33.3823L22.795 31.5994L31.7094 22.6851L32.1534 25.7934Z" fill="url(#paint2_linear_1394_8510)"/>
<path opacity="0.45" fill-rule="evenodd" clip-rule="evenodd" d="M17.803 26.6073L7.81884 25.181L16.7332 16.2666L26.7173 17.6929L17.803 26.6073Z" fill="url(#paint3_linear_1394_8510)"/>
<path fill-rule="evenodd" clip-rule="evenodd" d="M17.8029 26.6074L16.0201 24.8245L23.5973 17.2473L26.7173 17.693L17.8029 26.6074Z" fill="url(#paint4_linear_1394_8510)"/>
<path fill-rule="evenodd" clip-rule="evenodd" d="M33.1356 16.2665C34.3172 17.4481 36.2329 17.4481 37.4145 16.2665C38.5961 15.0849 38.5961 13.1692 37.4145 11.9876C36.2329 10.806 34.3172 10.806 33.1356 11.9876C31.954 13.1692 31.954 15.0849 33.1356 16.2665Z" fill="url(#paint5_linear_1394_8510)"/>
<path opacity="0.4" fill-rule="evenodd" clip-rule="evenodd" d="M3.89661 45.5056C3.89661 45.5056 17.6166 38.9172 19.5859 36.9478C21.5552 34.9785 21.5552 31.7856 19.5859 29.8163C17.6166 27.847 14.4237 27.847 12.4544 29.8163C10.4851 31.7856 3.89661 45.5056 3.89661 45.5056Z" fill="url(#paint6_linear_1394_8510)"/>
<path fill-rule="evenodd" clip-rule="evenodd" d="M9.60156 39.8007C9.60156 39.8007 18.5594 35.8349 19.8126 34.5817C21.0658 33.3285 20.9642 31.1951 19.5857 29.8166C18.2072 28.4381 16.0737 28.3365 14.8205 29.5897C13.5673 30.8429 9.60156 39.8007 9.60156 39.8007Z" fill="url(#paint7_linear_1394_8510)"/>
<defs>
<linearGradient id="paint0_linear_1394_8510" x1="63.0261" y1="-11.8601" x2="40.4316" y2="-23.3174" gradientUnits="userSpaceOnUse">
<stop stop-color="#70B1FF"/>
<stop offset="1" stop-color="#005CCD"/>
</linearGradient>
<linearGradient id="paint1_linear_1394_8510" x1="37.4034" y1="23.2991" x2="40.7687" y2="33.9514" gradientUnits="userSpaceOnUse">
<stop stop-color="#70B1FF"/>
<stop offset="1" stop-color="#005CCD"/>
</linearGradient>
<linearGradient id="paint2_linear_1394_8510" x1="30.8179" y1="21.7936" x2="21.9035" y2="30.708" gradientUnits="userSpaceOnUse">
<stop stop-color="#76A9F1"/>
<stop offset="1" stop-color="#5B8FDF"/>
</linearGradient>
<linearGradient id="paint3_linear_1394_8510" x1="8.43298" y1="30.875" x2="19.0853" y2="34.2404" gradientUnits="userSpaceOnUse">
<stop stop-color="#70B1FF"/>
<stop offset="1" stop-color="#005CCD"/>
</linearGradient>
<linearGradient id="paint4_linear_1394_8510" x1="32.04" y1="10.955" x2="27.5286" y2="7.88928" gradientUnits="userSpaceOnUse">
<stop stop-color="#5589DB"/>
<stop offset="1" stop-color="#5F94E2"/>
</linearGradient>
<linearGradient id="paint5_linear_1394_8510" x1="28.4437" y1="5.56133" x2="31.3383" y2="17.7138" gradientUnits="userSpaceOnUse">
<stop stop-color="#295296"/>
<stop offset="1" stop-color="#3E78D3"/>
</linearGradient>
<linearGradient id="paint6_linear_1394_8510" x1="5.71903" y1="51.8395" x2="23.6637" y2="33.8948" gradientUnits="userSpaceOnUse">
<stop stop-color="#70B1FF"/>
<stop offset="1" stop-color="#005CCD"/>
</linearGradient>
<linearGradient id="paint7_linear_1394_8510" x1="11.0213" y1="44.0908" x2="22.4407" y2="32.6714" gradientUnits="userSpaceOnUse">
<stop stop-color="#84B2F3"/>
<stop offset="1" stop-color="#5D8FDA"/>
</linearGradient>
</defs>
</svg>
