<svg width="48" height="48" viewBox="0 0 48 48" fill="none" xmlns="http://www.w3.org/2000/svg">
<path opacity="0.45" fill-rule="evenodd" clip-rule="evenodd" d="M31 45H37V13H41L34 3L27 13H31V45Z" fill="url(#paint0_linear_1394_8519)"/>
<path opacity="0.45" fill-rule="evenodd" clip-rule="evenodd" d="M24 22L17 32H13L6 22V12H24V22Z" fill="url(#paint1_linear_1394_8519)"/>
<path opacity="0.35" fill-rule="evenodd" clip-rule="evenodd" d="M24 22L17 32H13L6 22H24Z" fill="url(#paint2_linear_1394_8519)"/>
<rect opacity="0.5" x="8" y="4" width="14" height="11" fill="url(#paint3_linear_1394_8519)"/>
<rect x="10" y="8" width="3" height="3" fill="url(#paint4_linear_1394_8519)"/>
<rect x="17" y="8" width="3" height="3" fill="url(#paint5_linear_1394_8519)"/>
<path opacity="0.45" d="M44 37.0105V41.0105H21C16.5817 41.0105 13 37.4288 13 33.0105V32H17V33.0105C17 35.2196 18.7909 37.0105 21 37.0105H44Z" fill="url(#paint6_linear_1394_8519)"/>
<rect x="8" y="12" width="14" height="3" fill="url(#paint7_linear_1394_8519)"/>
<rect x="31" y="37" width="6" height="4" fill="url(#paint8_linear_1394_8519)"/>
<defs>
<linearGradient id="paint0_linear_1394_8519" x1="23.2767" y1="39.415" x2="45.2006" y2="11.9364" gradientUnits="userSpaceOnUse">
<stop stop-color="#70B1FF"/>
<stop offset="1" stop-color="#005CCD"/>
</linearGradient>
<linearGradient id="paint1_linear_1394_8519" x1="-0.631347" y1="20.7259" x2="16.4241" y2="33.6874" gradientUnits="userSpaceOnUse">
<stop stop-color="#70B1FF"/>
<stop offset="1" stop-color="#005CCD"/>
</linearGradient>
<linearGradient id="paint2_linear_1394_8519" x1="-10.6553" y1="28.9439" x2="-0.380607" y2="53.5882" gradientUnits="userSpaceOnUse">
<stop stop-color="#70B1FF"/>
<stop offset="1" stop-color="#005CCD"/>
</linearGradient>
<linearGradient id="paint3_linear_1394_8519" x1="29" y1="9.5" x2="18.3123" y2="-4.10252" gradientUnits="userSpaceOnUse">
<stop stop-color="#70B1FF"/>
<stop offset="1" stop-color="#005CCD"/>
</linearGradient>
<linearGradient id="paint4_linear_1394_8519" x1="12.076" y1="13.2191" x2="14.2101" y2="9.06706" gradientUnits="userSpaceOnUse">
<stop stop-color="#295296"/>
<stop offset="1" stop-color="#3E78D3"/>
</linearGradient>
<linearGradient id="paint5_linear_1394_8519" x1="19.076" y1="13.2191" x2="21.2101" y2="9.06706" gradientUnits="userSpaceOnUse">
<stop stop-color="#295296"/>
<stop offset="1" stop-color="#3E78D3"/>
</linearGradient>
<linearGradient id="paint6_linear_1394_8519" x1="26.8619" y1="30.2653" x2="24.1901" y2="41.3157" gradientUnits="userSpaceOnUse">
<stop stop-color="#70B1FF"/>
<stop offset="1" stop-color="#005CCD"/>
</linearGradient>
<linearGradient id="paint7_linear_1394_8519" x1="1" y1="13.5" x2="2.22927" y2="19.2366" gradientUnits="userSpaceOnUse">
<stop stop-color="#6A9FED"/>
<stop offset="1" stop-color="#72A6F1"/>
</linearGradient>
<linearGradient id="paint8_linear_1394_8519" x1="28" y1="39" x2="31.6923" y2="44.5385" gradientUnits="userSpaceOnUse">
<stop stop-color="#7FAEF3"/>
<stop offset="1" stop-color="#84B3F9"/>
</linearGradient>
</defs>
</svg>
