<svg width="48" height="48" viewBox="0 0 48 48" fill="none" xmlns="http://www.w3.org/2000/svg">
<path opacity="0.3" fill-rule="evenodd" clip-rule="evenodd" d="M29.5 45C38.6127 45 46 37.6127 46 28.5C46 19.3873 38.6127 12 29.5 12C20.3873 12 13 19.3873 13 28.5C13 37.6127 20.3873 45 29.5 45Z" fill="url(#paint0_linear_1394_8529)"/>
<path opacity="0.45" d="M13 8.07089V10L7 6L13 2V4.04484C13.3294 4.01516 13.6629 4 14 4C20.0751 4 25 8.92487 25 15C25 21.0751 20.0751 26 14 26C7.92487 26 3 21.0751 3 15C3 12.643 3.74129 10.4592 5.00344 8.66896L8.33365 10.8891C7.49478 12.0434 7 13.4639 7 15C7 18.866 10.134 22 14 22C17.866 22 21 18.866 21 15C21 11.134 17.866 8 14 8C13.6605 8 13.3266 8.02417 13 8.07089Z" fill="url(#paint1_linear_1394_8529)"/>
<path fill-rule="evenodd" clip-rule="evenodd" d="M13.1926 25.971C13.4066 24.5799 13.7944 23.246 14.333 21.9924C18.0444 21.8186 21 18.7545 21 15.0002C21 14.7884 20.9906 14.5789 20.9722 14.3719C22.1462 13.6617 23.4159 13.0938 24.7574 12.6919C24.9163 13.4362 25 14.2084 25 15.0002C25 21.0753 20.0751 26.0002 14 26.0002C13.7285 26.0002 13.4592 25.9903 13.1926 25.971H13.1926Z" fill="url(#paint2_linear_1394_8529)"/>
<path opacity="0.6" fill-rule="evenodd" clip-rule="evenodd" d="M33 24.2574V20.752C35.9485 22.0859 38 25.0535 38 28.5002C38 33.1946 34.1944 37.0002 29.5 37.0002C24.8056 37.0002 21 33.1946 21 28.5002C21 25.0535 23.0515 22.0859 26 20.752V24.2574C24.7785 25.2662 24 26.7923 24 28.5002C24 31.5378 26.4624 34.0002 29.5 34.0002C32.5376 34.0002 35 31.5378 35 28.5002C35 26.7923 34.2215 25.2662 33 24.2574V24.2574Z" fill="url(#paint3_linear_1394_8529)"/>
<path opacity="0.6" fill-rule="evenodd" clip-rule="evenodd" d="M28 18H31V26H28V18Z" fill="url(#paint4_linear_1394_8529)"/>
<defs>
<linearGradient id="paint0_linear_1394_8529" x1="30.9849" y1="-2.58203" x2="1.8208" y2="27.4482" gradientUnits="userSpaceOnUse">
<stop stop-color="#70B1FF"/>
<stop offset="1" stop-color="#005CCD"/>
</linearGradient>
<linearGradient id="paint1_linear_1394_8529" x1="-4.35057" y1="7.22117" x2="11.8644" y2="29.3575" gradientUnits="userSpaceOnUse">
<stop stop-color="#70B1FF"/>
<stop offset="1" stop-color="#005CCD"/>
</linearGradient>
<linearGradient id="paint2_linear_1394_8529" x1="19.6276" y1="6.81124" x2="7.90916" y2="17.5169" gradientUnits="userSpaceOnUse">
<stop stop-color="#77A6E9"/>
<stop offset="1" stop-color="#6A9AE2"/>
</linearGradient>
<linearGradient id="paint3_linear_1394_8529" x1="9.81966" y1="26.3876" x2="25.4271" y2="43.6484" gradientUnits="userSpaceOnUse">
<stop stop-color="#70B1FF"/>
<stop offset="1" stop-color="#005CCD"/>
</linearGradient>
<linearGradient id="paint4_linear_1394_8529" x1="26.027" y1="20.7748" x2="31.3185" y2="22.8723" gradientUnits="userSpaceOnUse">
<stop stop-color="#70B1FF"/>
<stop offset="1" stop-color="#005CCD"/>
</linearGradient>
</defs>
</svg>
