<svg width="48" height="48" viewBox="0 0 48 48" fill="none" xmlns="http://www.w3.org/2000/svg">
<path opacity="0.35" d="M10 24V36H6V20H42V37H38V24H10Z" fill="url(#paint0_linear_1394_8558)"/>
<path opacity="0.35" fill-rule="evenodd" clip-rule="evenodd" d="M7 4H40.5V14H7V4Z" fill="url(#paint1_linear_1394_8558)"/>
<rect opacity="0.45" x="33" y="31" width="14" height="14" fill="url(#paint2_linear_1394_8558)"/>
<rect opacity="0.45" x="17" y="31" width="14" height="14" fill="url(#paint3_linear_1394_8558)"/>
<rect opacity="0.45" x="1" y="31" width="14" height="14" fill="url(#paint4_linear_1394_8558)"/>
<rect opacity="0.4" x="22" y="10" width="4" height="26" fill="url(#paint5_linear_1394_8558)"/>
<rect x="22" y="10" width="4" height="14" fill="url(#paint6_linear_1394_8558)"/>
<defs>
<linearGradient id="paint0_linear_1394_8558" x1="24" y1="11.5" x2="10.8719" y2="39.3006" gradientUnits="userSpaceOnUse">
<stop stop-color="#70B1FF"/>
<stop offset="1" stop-color="#005CCD"/>
</linearGradient>
<linearGradient id="paint1_linear_1394_8558" x1="23.75" y1="-1" x2="18.2683" y2="17.3637" gradientUnits="userSpaceOnUse">
<stop stop-color="#70B1FF"/>
<stop offset="1" stop-color="#005CCD"/>
</linearGradient>
<linearGradient id="paint2_linear_1394_8558" x1="26" y1="38" x2="40" y2="52" gradientUnits="userSpaceOnUse">
<stop stop-color="#70B1FF"/>
<stop offset="1" stop-color="#005CCD"/>
</linearGradient>
<linearGradient id="paint3_linear_1394_8558" x1="10" y1="38" x2="24" y2="52" gradientUnits="userSpaceOnUse">
<stop stop-color="#70B1FF"/>
<stop offset="1" stop-color="#005CCD"/>
</linearGradient>
<linearGradient id="paint4_linear_1394_8558" x1="-6" y1="38" x2="8" y2="52" gradientUnits="userSpaceOnUse">
<stop stop-color="#70B1FF"/>
<stop offset="1" stop-color="#005CCD"/>
</linearGradient>
<linearGradient id="paint5_linear_1394_8558" x1="24" y1="-3" x2="16.185" y2="-1.79769" gradientUnits="userSpaceOnUse">
<stop stop-color="#70B1FF"/>
<stop offset="1" stop-color="#005CCD"/>
</linearGradient>
<linearGradient id="paint6_linear_1394_8558" x1="23.4538" y1="34.9739" x2="29.9853" y2="33.495" gradientUnits="userSpaceOnUse">
<stop stop-color="#295296"/>
<stop offset="1" stop-color="#3E78D3"/>
</linearGradient>
</defs>
</svg>
