<svg width="48" height="48" viewBox="0 0 48 48" fill="none" xmlns="http://www.w3.org/2000/svg">
<rect opacity="0.55" x="2" y="32" width="14" height="14" fill="url(#paint0_linear_1394_8584)"/>
<rect opacity="0.45" x="12" y="28" width="14" height="14" fill="url(#paint1_linear_1394_8584)"/>
<rect opacity="0.35" x="22" y="24" width="14" height="14" fill="url(#paint2_linear_1394_8584)"/>
<path opacity="0.55" d="M11 34H7V21C7 11.6112 14.6112 4 24 4H41V8H24C16.8203 8 11 13.8203 11 21V34Z" fill="url(#paint3_linear_1394_8584)"/>
<path opacity="0.45" d="M21 30H17V21C17 11.6112 24.6112 4 34 4H41V8H34C26.8203 8 21 13.8203 21 21V30Z" fill="url(#paint4_linear_1394_8584)"/>
<path opacity="0.35" d="M31.1481 26H27V17.5C27 10.0442 33.268 4 41 4V8C35.559 8 31.1481 12.2533 31.1481 17.5V26Z" fill="url(#paint5_linear_1394_8584)"/>
<path fill-rule="evenodd" clip-rule="evenodd" d="M39.94 8H31C33.4322 5.53 36.2107 4 39.94 4V1L47 6L39.94 11V8Z" fill="url(#paint6_linear_1394_8584)"/>
<rect x="12" y="32" width="4" height="10" fill="url(#paint7_linear_1394_8584)"/>
<rect x="7" y="32" width="4" height="2" fill="url(#paint8_linear_1394_8584)"/>
<rect x="17" y="28" width="4" height="2" fill="url(#paint9_linear_1394_8584)"/>
<rect x="27" y="24" width="4" height="2" fill="url(#paint10_linear_1394_8584)"/>
<rect x="22" y="28" width="4" height="10" fill="url(#paint11_linear_1394_8584)"/>
<defs>
<linearGradient id="paint0_linear_1394_8584" x1="-5" y1="39" x2="9" y2="53" gradientUnits="userSpaceOnUse">
<stop stop-color="#70B1FF"/>
<stop offset="1" stop-color="#005CCD"/>
</linearGradient>
<linearGradient id="paint1_linear_1394_8584" x1="5" y1="35" x2="19" y2="49" gradientUnits="userSpaceOnUse">
<stop stop-color="#70B1FF"/>
<stop offset="1" stop-color="#005CCD"/>
</linearGradient>
<linearGradient id="paint2_linear_1394_8584" x1="15" y1="31" x2="29" y2="45" gradientUnits="userSpaceOnUse">
<stop stop-color="#70B1FF"/>
<stop offset="1" stop-color="#005CCD"/>
</linearGradient>
<linearGradient id="paint3_linear_1394_8584" x1="11.5324" y1="-0.484935" x2="-4.52686" y2="27.3495" gradientUnits="userSpaceOnUse">
<stop stop-color="#70B1FF"/>
<stop offset="1" stop-color="#005CCD"/>
</linearGradient>
<linearGradient id="paint4_linear_1394_8584" x1="22.6933" y1="-1.73314" x2="4.75442" y2="19.797" gradientUnits="userSpaceOnUse">
<stop stop-color="#70B1FF"/>
<stop offset="1" stop-color="#005CCD"/>
</linearGradient>
<linearGradient id="paint5_linear_1394_8584" x1="40.6255" y1="4.65434" x2="37.895" y2="4.65434" gradientUnits="userSpaceOnUse">
<stop stop-color="#70B1FF"/>
<stop offset="1" stop-color="#005CCD"/>
</linearGradient>
<linearGradient id="paint6_linear_1394_8584" x1="53.6968" y1="-1.58347" x2="30.0377" y2="3.31563" gradientUnits="userSpaceOnUse">
<stop stop-color="#295296"/>
<stop offset="1" stop-color="#3E78D3"/>
</linearGradient>
<linearGradient id="paint7_linear_1394_8584" x1="10" y1="37" x2="16.8966" y2="39.7586" gradientUnits="userSpaceOnUse">
<stop stop-color="#70A6F3"/>
<stop offset="1" stop-color="#4E85DC"/>
</linearGradient>
<linearGradient id="paint8_linear_1394_8584" x1="5" y1="33" x2="6.6" y2="36.2" gradientUnits="userSpaceOnUse">
<stop stop-color="#4A83DE"/>
<stop offset="1" stop-color="#4E85DC"/>
</linearGradient>
<linearGradient id="paint9_linear_1394_8584" x1="15" y1="29" x2="16.6" y2="32.2" gradientUnits="userSpaceOnUse">
<stop stop-color="#669AE7"/>
<stop offset="1" stop-color="#6196E3"/>
</linearGradient>
<linearGradient id="paint10_linear_1394_8584" x1="25" y1="25" x2="26.6" y2="28.2" gradientUnits="userSpaceOnUse">
<stop stop-color="#82AEEC"/>
<stop offset="1" stop-color="#7DAAE9"/>
</linearGradient>
<linearGradient id="paint11_linear_1394_8584" x1="20" y1="33" x2="26.8966" y2="35.7586" gradientUnits="userSpaceOnUse">
<stop stop-color="#88B6F6"/>
<stop offset="1" stop-color="#699AE2"/>
</linearGradient>
</defs>
</svg>
