<svg width="48" height="48" viewBox="0 0 48 48" fill="none" xmlns="http://www.w3.org/2000/svg">
<path opacity="0.35" fill-rule="evenodd" clip-rule="evenodd" d="M9.5 7H40.5C41.3284 7 42 7.67157 42 8.5V32.9395H8V8.5C8 7.67157 8.67157 7 9.5 7Z" fill="url(#paint0_linear_1394_8597)"/>
<path opacity="0.35" fill-rule="evenodd" clip-rule="evenodd" d="M5.5 11H36.5C37.3284 11 38 11.6716 38 12.5V36.9395H4V12.5C4 11.6716 4.67157 11 5.5 11Z" fill="url(#paint1_linear_1394_8597)"/>
<path opacity="0.45" d="M36.2344 26.9998C41.0579 27 45 30.787 45 35.4979C44.9998 40.1908 41.0881 43.9657 36.29 43.995C36.24 43.9971 36.2349 43.997 36.1602 43.9989C36.0263 44.0014 35.8781 43.9996 35.7168 43.992C35.2737 43.9712 34.7972 43.9111 34.2988 43.7996C33.9673 43.7255 33.6403 43.6319 33.3193 43.5184L33 43.3983C32.0501 43.0166 31.1609 42.4477 30.3789 41.66L33 39.0584L33.2178 38.8426C33.7665 39.3953 34.4359 39.7317 35.1719 39.8963C35.4339 39.9549 35.6825 39.9865 35.9043 39.9969C35.9757 40.0003 36.0367 40.0008 36.085 40.0008L36.2344 39.995C38.8841 39.9948 40.9998 37.9629 41 35.4979C41 33.033 38.884 31 36.2344 30.9998C34.9768 30.9998 34.0359 31.3941 33 32.5008C32.1952 33.3606 31.3329 34.6506 30.2197 36.5203C28.6825 39.1023 27.9414 40.1995 26.7773 41.3729C25.0924 43.0712 23.1295 43.995 20.7656 43.995C15.9425 43.9948 12.0002 40.2088 12 35.4979C12 30.787 15.9429 26.9997 20.7412 26.9998C21.202 26.9941 21.8791 27.0635 22.6953 27.2762C24.0353 27.6255 25.3274 28.2705 26.4619 29.2899L23.7881 32.2655C23.163 31.7038 22.4424 31.3433 21.6865 31.1463C21.2457 31.0314 20.9167 30.9981 20.7656 30.9998C18.1163 31 16 33.0332 16 35.4979C16.0002 37.9627 18.1162 39.9948 20.7656 39.995C23.0017 39.995 24.2362 38.7505 26.7832 34.4725C28.32 31.8912 29.0599 30.794 30.2236 29.6209C31.073 28.7647 31.9936 28.1061 33 27.6629C33.9895 27.2272 35.0629 26.9998 36.2344 26.9998Z" fill="url(#paint2_linear_1394_8597)"/>
<path fill-rule="evenodd" clip-rule="evenodd" d="M40.197 33C39.345 31.7978 37.8942 31 36.2341 31C34.9765 31 34.036 31.3939 33.0001 32.5006C32.8572 32.6532 32.7125 32.8194 32.5649 33H27.6752C28.6576 31.4168 29.3102 30.5426 30.2241 29.6213C31.0735 28.7651 31.9936 28.1059 33.0001 27.6627C33.9895 27.2269 35.0626 27 36.2341 27C38.4371 27 40.4563 27.7898 42.0001 29.0968V33H40.197V33Z" fill="url(#paint3_linear_1394_8597)"/>
<path fill-rule="evenodd" clip-rule="evenodd" d="M12.384 33.0001C13.4855 29.5173 16.8289 27.0002 20.741 27.0003C21.2019 26.9946 21.8793 27.0632 22.6958 27.276C24.0358 27.6253 25.3271 28.2707 26.4616 29.2901L23.7881 32.2654C23.163 31.7037 22.4427 31.3437 21.6869 31.1467C21.2459 31.0317 20.9172 30.9984 20.766 31.0002C19.1061 31.0002 17.6553 31.798 16.8032 33.0001H12.384H12.384Z" fill="url(#paint4_linear_1394_8597)"/>
<path opacity="0.2" fill-rule="evenodd" clip-rule="evenodd" d="M42 8.5C42 7.67157 41.3284 7 40.5 7H9.5C8.67157 7 8 7.67157 8 8.5V11H42V8.5Z" fill="url(#paint5_linear_1394_8597)"/>
<path opacity="0.4" fill-rule="evenodd" clip-rule="evenodd" d="M38 12.5C38 11.6716 37.3284 11 36.5 11H5.5C4.67157 11 4 11.6716 4 12.5V15H38V12.5Z" fill="url(#paint6_linear_1394_8597)"/>
<path fill-rule="evenodd" clip-rule="evenodd" d="M8 11H36.5C37.3284 11 38 11.6716 38 12.5V15H8V11Z" fill="url(#paint7_linear_1394_8597)"/>
<defs>
<linearGradient id="paint0_linear_1394_8597" x1="-9" y1="7" x2="-9" y2="32.9395" gradientUnits="userSpaceOnUse">
<stop stop-color="#70B1FF"/>
<stop offset="1" stop-color="#005CCD"/>
</linearGradient>
<linearGradient id="paint1_linear_1394_8597" x1="-13" y1="11" x2="-13" y2="36.9395" gradientUnits="userSpaceOnUse">
<stop stop-color="#70B1FF"/>
<stop offset="1" stop-color="#005CCD"/>
</linearGradient>
<linearGradient id="paint2_linear_1394_8597" x1="-4.5" y1="35.4997" x2="9.34236" y2="62.3695" gradientUnits="userSpaceOnUse">
<stop stop-color="#70B1FF"/>
<stop offset="1" stop-color="#005CCD"/>
</linearGradient>
<linearGradient id="paint3_linear_1394_8597" x1="38.1168" y1="40.8693" x2="43.8097" y2="25.7249" gradientUnits="userSpaceOnUse">
<stop stop-color="#295296"/>
<stop offset="1" stop-color="#3E78D3"/>
</linearGradient>
<linearGradient id="paint4_linear_1394_8597" x1="22.6454" y1="40.8697" x2="28.4132" y2="25.7912" gradientUnits="userSpaceOnUse">
<stop stop-color="#295296"/>
<stop offset="1" stop-color="#3E78D3"/>
</linearGradient>
<linearGradient id="paint5_linear_1394_8597" x1="-9" y1="9" x2="-8.07167" y2="16.8908" gradientUnits="userSpaceOnUse">
<stop stop-color="#70B1FF"/>
<stop offset="1" stop-color="#005CCD"/>
</linearGradient>
<linearGradient id="paint6_linear_1394_8597" x1="-13" y1="13" x2="-12.0717" y2="20.8908" gradientUnits="userSpaceOnUse">
<stop stop-color="#70B1FF"/>
<stop offset="1" stop-color="#005CCD"/>
</linearGradient>
<linearGradient id="paint7_linear_1394_8597" x1="-7" y1="13" x2="-5.95197" y2="20.8603" gradientUnits="userSpaceOnUse">
<stop stop-color="#73A7FB"/>
<stop offset="1" stop-color="#568BE4"/>
</linearGradient>
</defs>
</svg>
