<svg width="48" height="48" viewBox="0 0 48 48" fill="none" xmlns="http://www.w3.org/2000/svg">
<g clip-path="url(#clip0_1394_8617)">
<path opacity="0.2" fill-rule="evenodd" clip-rule="evenodd" d="M15 3H43C45.2091 3 47 4.79086 47 7C47 9.20914 45.2091 11 43 11H19C19 11 19 9.20914 19 7C19 4.79086 17.2091 3 15 3Z" fill="url(#paint0_linear_1394_8617)"/>
<path opacity="0.4" fill-rule="evenodd" clip-rule="evenodd" d="M11 7C11 4.79086 12.7909 3 15 3H43C40.7909 3 39 4.79086 39 7V11.1479V39C39 41.2091 37.2091 43 35 43H7C9.20914 43 11 41.2091 11 39V7Z" fill="url(#paint1_linear_1394_8617)"/>
<rect opacity="0.7" x="16" y="18" width="18" height="3" fill="url(#paint2_linear_1394_8617)"/>
<rect opacity="0.7" x="16" y="23" width="18" height="3" fill="url(#paint3_linear_1394_8617)"/>
<rect opacity="0.7" x="16" y="28" width="18" height="3" fill="url(#paint4_linear_1394_8617)"/>
<path opacity="0.4" fill-rule="evenodd" clip-rule="evenodd" d="M13 30C18.5228 30 23 25.5228 23 20C23 14.4772 18.5228 10 13 10C7.47715 10 3 14.4772 3 20C3 25.5228 7.47715 30 13 30Z" fill="url(#paint5_linear_1394_8617)"/>
<path d="M8.76777 19L7 20.7678L11.3839 25.1517L19.7678 16.7678L18 15L11.3839 21.6161L8.76777 19Z" fill="url(#paint6_linear_1394_8617)"/>
<path opacity="0.6" fill-rule="evenodd" clip-rule="evenodd" d="M35 35H7C4.79086 35 3 36.7909 3 39C3 41.2091 4.79086 43 7 43H35C32.7909 43 31 41.2091 31 39C31 36.7909 32.7909 35 35 35Z" fill="url(#paint7_linear_1394_8617)"/>
</g>
<defs>
<linearGradient id="paint0_linear_1394_8617" x1="53.183" y1="11.8246" x2="53.6117" y2="3.50672" gradientUnits="userSpaceOnUse">
<stop stop-color="#70B1FF"/>
<stop offset="1" stop-color="#005CCD"/>
</linearGradient>
<linearGradient id="paint1_linear_1394_8617" x1="28.4084" y1="61.1064" x2="64.7999" y2="24.9289" gradientUnits="userSpaceOnUse">
<stop stop-color="#70B1FF"/>
<stop offset="1" stop-color="#005CCD"/>
</linearGradient>
<linearGradient id="paint2_linear_1394_8617" x1="16" y1="19.5" x2="34" y2="19.5" gradientUnits="userSpaceOnUse">
<stop stop-color="#8FB9F6"/>
<stop offset="1" stop-color="#6F9EE2"/>
</linearGradient>
<linearGradient id="paint3_linear_1394_8617" x1="16" y1="24.5" x2="34" y2="24.5" gradientUnits="userSpaceOnUse">
<stop stop-color="#8FB9F6"/>
<stop offset="1" stop-color="#6F9EE2"/>
</linearGradient>
<linearGradient id="paint4_linear_1394_8617" x1="16" y1="29.5" x2="34" y2="29.5" gradientUnits="userSpaceOnUse">
<stop stop-color="#8FB9F6"/>
<stop offset="1" stop-color="#6F9EE2"/>
</linearGradient>
<linearGradient id="paint5_linear_1394_8617" x1="14.8936" y1="39.0532" x2="33" y2="19.0532" gradientUnits="userSpaceOnUse">
<stop stop-color="#70B1FF"/>
<stop offset="1" stop-color="#005CCD"/>
</linearGradient>
<linearGradient id="paint6_linear_1394_8617" x1="37.2919" y1="22.1045" x2="22.0604" y2="-0.916737" gradientUnits="userSpaceOnUse">
<stop stop-color="#295296"/>
<stop offset="1" stop-color="#3E78D3"/>
</linearGradient>
<linearGradient id="paint7_linear_1394_8617" x1="20.0633" y1="34.2451" x2="21.5512" y2="43.4021" gradientUnits="userSpaceOnUse">
<stop stop-color="#70B1FF"/>
<stop offset="1" stop-color="#005CCD"/>
</linearGradient>
<clipPath id="clip0_1394_8617">
<rect width="48" height="48" fill="white"/>
</clipPath>
</defs>
</svg>
