<svg width="48" height="48" viewBox="0 0 48 48" fill="none" xmlns="http://www.w3.org/2000/svg">
<g opacity="0.36" style="mix-blend-mode:multiply">
<path fill-rule="evenodd" clip-rule="evenodd" d="M2 35V19L16 11L30 19V35L16 43L2 35Z" fill="url(#paint0_linear_1394_8645)"/>
</g>
<g opacity="0.5" style="mix-blend-mode:multiply">
<path fill-rule="evenodd" clip-rule="evenodd" d="M34.1232 25.173L38.6997 33.0997L35.2356 35.0997L30.6591 27.173C24.7826 29.455 17.9591 27.1759 14.7093 21.5471C11.1194 15.3293 13.2498 7.37861 19.4676 3.78876C25.6854 0.198911 33.6361 2.32929 37.226 8.54709C40.4757 14.1759 39.0377 21.2248 34.1232 25.173V25.173ZM30.4676 22.8413C34.7723 20.356 36.2471 14.8517 33.7619 10.5471C31.2766 6.24246 25.7723 4.76758 21.4676 7.25286C17.163 9.73815 15.6881 15.2425 18.1734 19.5471C20.6587 23.8517 26.163 25.3266 30.4676 22.8413Z" fill="url(#paint1_linear_1394_8645)"/>
</g>
<path fill-rule="evenodd" clip-rule="evenodd" d="M32 30.5L36.3301 28L43.3301 40.1244L39 42.6244L32 30.5Z" fill="url(#paint2_linear_1394_8645)"/>
<path fill-rule="evenodd" clip-rule="evenodd" d="M17.5528 11.8873C17.1952 12.8573 17 13.9059 17 15C17 19.9706 21.0294 24 26 24C27.4368 24 28.795 23.6633 30 23.0645V27.373C28.7399 27.7801 27.3956 28 26 28C18.8203 28 13 22.1797 13 15C13 14.1753 13.0768 13.3686 13.2236 12.5865L16 11L17.5528 11.8873Z" fill="url(#paint3_linear_1394_8645)"/>
<path opacity="0.35" fill-rule="evenodd" clip-rule="evenodd" d="M26 24C30.9706 24 35 19.9706 35 15C35 10.0294 30.9706 6 26 6C21.0294 6 17 10.0294 17 15C17 19.9706 21.0294 24 26 24Z" fill="url(#paint4_linear_1394_8645)"/>
<rect x="24" y="13" width="6" height="6" fill="url(#paint5_linear_1394_8645)"/>
<path fill-rule="evenodd" clip-rule="evenodd" d="M2 19V34.9993L16 43V28L2 19Z" fill="url(#paint6_linear_1394_8645)"/>
<defs>
<linearGradient id="paint0_linear_1394_8645" x1="-12" y1="11" x2="-12" y2="43" gradientUnits="userSpaceOnUse">
<stop stop-color="#70B1FF"/>
<stop offset="1" stop-color="#005CCD"/>
</linearGradient>
<linearGradient id="paint1_linear_1394_8645" x1="-0.0367165" y1="2.04492" x2="-0.0367165" y2="35.0997" gradientUnits="userSpaceOnUse">
<stop stop-color="#70B1FF"/>
<stop offset="1" stop-color="#005CCD"/>
</linearGradient>
<linearGradient id="paint2_linear_1394_8645" x1="47.1722" y1="33.0537" x2="29.295" y2="35.1764" gradientUnits="userSpaceOnUse">
<stop stop-color="#295296"/>
<stop offset="1" stop-color="#3E78D3"/>
</linearGradient>
<linearGradient id="paint3_linear_1394_8645" x1="4.5" y1="19.5" x2="21.5" y2="36.5" gradientUnits="userSpaceOnUse">
<stop stop-color="#5E97FB"/>
<stop offset="1" stop-color="#3369D2"/>
</linearGradient>
<linearGradient id="paint4_linear_1394_8645" x1="26" y1="-3" x2="8" y2="15" gradientUnits="userSpaceOnUse">
<stop stop-color="#84B4FA"/>
<stop offset="1" stop-color="#4E82D5"/>
</linearGradient>
<linearGradient id="paint5_linear_1394_8645" x1="38.2352" y1="17.199" x2="28.6167" y2="5.64021" gradientUnits="userSpaceOnUse">
<stop stop-color="#295296"/>
<stop offset="1" stop-color="#3E78D3"/>
</linearGradient>
<linearGradient id="paint6_linear_1394_8645" x1="9" y1="7" x2="29.8912" y2="19.1865" gradientUnits="userSpaceOnUse">
<stop stop-color="#8AB4F7"/>
<stop offset="1" stop-color="#6692DB"/>
</linearGradient>
</defs>
</svg>
