<svg width="48" height="48" viewBox="0 0 48 48" fill="none" xmlns="http://www.w3.org/2000/svg">
<path opacity="0.35" fill-rule="evenodd" clip-rule="evenodd" d="M11 13.5L34 4.5L46 9.5V40.5L34 45.5L11 36.5V13.5Z" fill="url(#paint0_linear_1394_8655)"/>
<path opacity="0.45" fill-rule="evenodd" clip-rule="evenodd" d="M33 39.5L11 36.5L21 32V14.5L33 11V39.5Z" fill="url(#paint1_linear_1394_8655)"/>
<path opacity="0.5" fill-rule="evenodd" clip-rule="evenodd" d="M1 3H21V16.75C21 19.1107 19.8885 21.3336 18 22.75L11 28L4 22.75C2.11146 21.3336 1 19.1107 1 16.75V3Z" fill="url(#paint2_linear_1394_8655)"/>
<path opacity="0.45" fill-rule="evenodd" clip-rule="evenodd" d="M11 3H21V16.75C21 19.1107 19.8885 21.3336 18 22.75L11 28V3Z" fill="url(#paint3_linear_1394_8655)"/>
<path fill-rule="evenodd" clip-rule="evenodd" d="M21 9.58691V16.75C21 19.1106 19.8885 21.3335 18 22.75L11 28V13.5L21 9.58691Z" fill="url(#paint4_linear_1394_8655)"/>
<defs>
<linearGradient id="paint0_linear_1394_8655" x1="16.3652" y1="4.5" x2="16.3652" y2="45.5" gradientUnits="userSpaceOnUse">
<stop stop-color="#70B1FF"/>
<stop offset="1" stop-color="#005CCD"/>
</linearGradient>
<linearGradient id="paint1_linear_1394_8655" x1="2.11013" y1="21.448" x2="22.8344" y2="39.0816" gradientUnits="userSpaceOnUse">
<stop stop-color="#7AACF6"/>
<stop offset="1" stop-color="#5489DC"/>
</linearGradient>
<linearGradient id="paint2_linear_1394_8655" x1="-10.7986" y1="35.3334" x2="17.7793" y2="41.9373" gradientUnits="userSpaceOnUse">
<stop stop-color="#70B1FF"/>
<stop offset="1" stop-color="#005CCD"/>
</linearGradient>
<linearGradient id="paint3_linear_1394_8655" x1="6.95915" y1="12.1649" x2="20.556" y2="18.1598" gradientUnits="userSpaceOnUse">
<stop stop-color="#7AACF6"/>
<stop offset="1" stop-color="#5489DC"/>
</linearGradient>
<linearGradient id="paint4_linear_1394_8655" x1="16" y1="37.2065" x2="31.4446" y2="28.8186" gradientUnits="userSpaceOnUse">
<stop stop-color="#295296"/>
<stop offset="1" stop-color="#3E78D3"/>
</linearGradient>
</defs>
</svg>
