<svg width="48" height="48" viewBox="0 0 48 48" fill="none" xmlns="http://www.w3.org/2000/svg">
<path opacity="0.3" fill-rule="evenodd" clip-rule="evenodd" d="M23 25.0502C18.3151 20 2 20 2 20L6 45H23V25.0502Z" fill="url(#paint0_linear_1394_8689)"/>
<path opacity="0.22" fill-rule="evenodd" clip-rule="evenodd" d="M23 25.0502C27.6849 20 44 20 44 20L40 45H23V25.0502Z" fill="url(#paint1_linear_1394_8689)"/>
<path opacity="0.65" fill-rule="evenodd" clip-rule="evenodd" d="M24.1266 19.4642L19.342 17.7653C17.754 17.2014 16.8978 15.4886 17.4035 13.8873L26.04 16.4573L28 18.3925V17.2438L22.0607 11.3305C21.4749 10.7473 21.4749 9.80175 22.0607 9.21854C22.6464 8.63533 23.5962 8.63533 24.182 9.21854L30.3675 15.3769L28.8882 9.8803C28.6738 9.08362 29.1487 8.26473 29.9489 8.05126C30.7491 7.83779 31.5716 8.31057 31.786 9.10726L33.5 15.4759V12.25C33.5 11.5596 34.0596 11 34.75 11C35.4404 11 36 11.5596 36 12.25V30.5184L46 38V45H39.5L16.5 21.6636C17.9142 20.2556 20.2071 20.2556 21.6213 21.6636L28 28.0143V23.3205L24.1266 19.4642Z" fill="#4A90E2"/>
<path fill-rule="evenodd" clip-rule="evenodd" d="M24.0565 24.0881L28 28.0143V23.3205L27.0628 22.3874C29.3706 21.4241 32.3496 20.7524 36 20.3721V30.5184L41.6417 34.7393L40 45H39.5L23 28.2587L23 25.0502C23.3132 24.7126 23.6654 24.3919 24.0565 24.0881Z" fill="url(#paint2_linear_1394_8689)"/>
<path fill-rule="evenodd" clip-rule="evenodd" d="M2.60453 4.6822C2.31499 4.38332 2.31876 3.90743 2.61301 3.61319C2.90725 3.31894 3.38314 3.31517 3.68202 3.6047L25.7708 25.0032L24.003 26.7709L2.60453 4.6822Z" fill="url(#paint3_linear_1394_8689)"/>
<defs>
<linearGradient id="paint0_linear_1394_8689" x1="33.5" y1="29.89" x2="13.2113" y2="51.43" gradientUnits="userSpaceOnUse">
<stop stop-color="#70B1FF"/>
<stop offset="1" stop-color="#005CCD"/>
</linearGradient>
<linearGradient id="paint1_linear_1394_8689" x1="14.9085" y1="35.3282" x2="33.821" y2="51.2794" gradientUnits="userSpaceOnUse">
<stop stop-color="#70B1FF"/>
<stop offset="1" stop-color="#005CCD"/>
</linearGradient>
<linearGradient id="paint2_linear_1394_8689" x1="15.8172" y1="35.4721" x2="34.0289" y2="49.3134" gradientUnits="userSpaceOnUse">
<stop stop-color="#72A5ED"/>
<stop offset="1" stop-color="#6698E3"/>
</linearGradient>
<linearGradient id="paint3_linear_1394_8689" x1="21.5112" y1="15.891" x2="13.9925" y2="22.1003" gradientUnits="userSpaceOnUse">
<stop stop-color="#295296"/>
<stop offset="1" stop-color="#3E78D3"/>
</linearGradient>
</defs>
</svg>
