<svg width="48" height="48" viewBox="0 0 48 48" fill="none" xmlns="http://www.w3.org/2000/svg">
<path opacity="0.5" d="M17.9796 16.9797C24.6185 10.3408 35.3817 10.3408 42.0206 16.9797C48.6594 23.6186 48.6595 34.3818 42.0206 41.0207C35.3817 47.6596 24.6185 47.6596 17.9796 41.0207C11.3406 34.3818 11.3406 23.6186 17.9796 16.9797ZM19.0001 25.0002V33.0002H41.0001V25.0002H19.0001Z" fill="url(#paint0_linear_1394_8700)"/>
<path opacity="0.6" fill-rule="evenodd" clip-rule="evenodd" d="M1.19055 34.6316C1.72443 26.1874 5.2676 17.8266 11.7972 11.297C18.3267 4.76748 26.6875 1.22431 35.1317 0.69043C28.7641 4.61699 22.3286 9.68733 16.258 15.7579C10.1875 21.8285 5.11711 28.264 1.19055 34.6316Z" fill="url(#paint1_linear_1394_8700)"/>
<path opacity="0.55" fill-rule="evenodd" clip-rule="evenodd" d="M19.9963 15.2536C18.3693 16.4397 16.9609 17.9075 15.8428 19.5855L7.55461 11.2973C7.16409 10.9067 7.16409 10.2736 7.55461 9.88304L10.383 7.05461C10.7736 6.66409 11.4067 6.66409 11.7973 7.05461L19.9963 15.2536V15.2536Z" fill="url(#paint2_linear_1394_8700)"/>
<path fill-rule="evenodd" clip-rule="evenodd" d="M9.76123 13.5039C10.4041 12.7479 11.0828 12.0116 11.7972 11.2972C12.5116 10.5828 13.2479 9.90411 14.0039 9.26123L18.4073 13.6646C17.6863 14.3485 16.9697 15.0464 16.2581 15.7581C15.5464 16.4697 14.8485 17.1863 14.1646 17.9073L9.76123 13.5039H9.76123Z" fill="url(#paint3_linear_1394_8700)"/>
<path opacity="0.55" fill-rule="evenodd" clip-rule="evenodd" d="M43.7464 39.0039L46.4454 41.7029C46.8359 42.0934 46.8359 42.7266 46.4454 43.1171L43.617 45.9455C43.2264 46.3361 42.5933 46.3361 42.2028 45.9455L39.4146 43.1573C41.0925 42.0393 42.5603 40.6309 43.7464 39.0039Z" fill="url(#paint4_linear_1394_8700)"/>
<path fill-rule="evenodd" clip-rule="evenodd" d="M29.7426 24.9999H21.2574L15.8428 19.5853C16.9608 17.9073 18.3692 16.4395 19.9962 15.2534L29.7426 24.9999V24.9999Z" fill="url(#paint5_linear_1394_8700)"/>
<path fill-rule="evenodd" clip-rule="evenodd" d="M37.7426 33L43.7464 39.0038C42.5604 40.6308 41.0925 42.0392 39.4146 43.1572L29.2573 33H37.7426V33Z" fill="url(#paint6_linear_1394_8700)"/>
<path opacity="0.3" fill-rule="evenodd" clip-rule="evenodd" d="M29.7426 25L37.7426 33H29.2573L21.2573 25L29.7426 25V25Z" fill="url(#paint7_linear_1394_8700)"/>
<defs>
<linearGradient id="paint0_linear_1394_8700" x1="30" y1="62.9995" x2="63.9994" y2="29.0002" gradientUnits="userSpaceOnUse">
<stop stop-color="#70B1FF"/>
<stop offset="1" stop-color="#005CCD"/>
</linearGradient>
<linearGradient id="paint1_linear_1394_8700" x1="18.1611" y1="51.6021" x2="52.1022" y2="17.661" gradientUnits="userSpaceOnUse">
<stop stop-color="#70B1FF"/>
<stop offset="1" stop-color="#005CCD"/>
</linearGradient>
<linearGradient id="paint2_linear_1394_8700" x1="-22.0321" y1="22.7705" x2="23.1577" y2="67.0396" gradientUnits="userSpaceOnUse">
<stop stop-color="#70B1FF"/>
<stop offset="1" stop-color="#005CCD"/>
</linearGradient>
<linearGradient id="paint3_linear_1394_8700" x1="9.76123" y1="17.9073" x2="18.4073" y2="17.9073" gradientUnits="userSpaceOnUse">
<stop stop-color="#538FE7"/>
<stop offset="1" stop-color="#4C8BE3"/>
</linearGradient>
<linearGradient id="paint4_linear_1394_8700" x1="-22.659" y1="22.1483" x2="21.9729" y2="67.248" gradientUnits="userSpaceOnUse">
<stop stop-color="#70B1FF"/>
<stop offset="1" stop-color="#005CCD"/>
</linearGradient>
<linearGradient id="paint5_linear_1394_8700" x1="59.4957" y1="32.1973" x2="44.8579" y2="3.41589" gradientUnits="userSpaceOnUse">
<stop stop-color="#295296"/>
<stop offset="1" stop-color="#3E78D3"/>
</linearGradient>
<linearGradient id="paint6_linear_1394_8700" x1="58.6504" y1="33.494" x2="44.6656" y2="4.55546" gradientUnits="userSpaceOnUse">
<stop stop-color="#295296"/>
<stop offset="1" stop-color="#3E78D3"/>
</linearGradient>
<linearGradient id="paint7_linear_1394_8700" x1="18.2192" y1="26.8212" x2="20.254" y2="36.0301" gradientUnits="userSpaceOnUse">
<stop stop-color="#70B1FF"/>
<stop offset="1" stop-color="#005CCD"/>
</linearGradient>
</defs>
</svg>
