<svg width="96" height="96" viewBox="0 0 96 96" fill="none" xmlns="http://www.w3.org/2000/svg">
<path opacity="0.4" fill-rule="evenodd" clip-rule="evenodd" d="M15 92C21.0751 92 26 87.0751 26 81C26 74.9249 21.0751 70 15 70C8.92487 70 4 74.9249 4 81C4 87.0751 8.92487 92 15 92Z" fill="url(#paint0_linear_1394_8711)"/>
<path opacity="0.4" fill-rule="evenodd" clip-rule="evenodd" d="M18 89C24.0751 89 29 84.0751 29 78C29 71.9249 24.0751 67 18 67C11.9249 67 7 71.9249 7 78C7 84.0751 11.9249 89 18 89Z" fill="url(#paint1_linear_1394_8711)"/>
<path fill-rule="evenodd" clip-rule="evenodd" d="M8.86702 71.867C10.6192 70.688 12.7293 70 15 70C21.0751 70 26 74.9249 26 81C26 83.2707 25.312 85.3808 24.133 87.133C22.3808 88.312 20.2707 89 18 89C11.9249 89 7 84.0751 7 78C7 75.7293 7.68804 73.6192 8.86702 71.867V71.867Z" fill="url(#paint2_linear_1394_8711)"/>
<path opacity="0.6" fill-rule="evenodd" clip-rule="evenodd" d="M40.4984 32.4272C39.7681 33.038 39.0586 33.6864 38.3726 34.3725C36.6418 36.1032 35.1507 37.9829 33.8994 39.9703L17.8198 23.8907C17.0387 23.1097 17.0387 21.8434 17.8198 21.0623L22.0624 16.8197C22.8435 16.0386 24.1098 16.0386 24.8909 16.8197L40.4984 32.4272Z" fill="url(#paint3_linear_1394_8711)"/>
<path opacity="0.6" fill-rule="evenodd" clip-rule="evenodd" d="M85.5726 77.5015L92.7731 84.702C93.5542 85.483 93.5542 86.7493 92.7731 87.5304L88.5305 91.773C87.7494 92.5541 86.4831 92.5541 85.7021 91.773L78.0295 84.1005C80.0169 82.8492 81.8966 81.3581 83.6274 79.6273C84.3135 78.9412 84.9619 78.2318 85.5726 77.5015Z" fill="url(#paint4_linear_1394_8711)"/>
<path opacity="0.5" d="M38.3726 34.3726C50.8693 21.8758 71.1307 21.8758 83.6274 34.3726C96.1242 46.8693 96.1242 67.1307 83.6274 79.6274C71.1307 92.1242 50.8693 92.1242 38.3726 79.6274C25.8758 67.1307 25.8758 46.8693 38.3726 34.3726ZM41.0005 50.0005V64.0005H81.0005V50.0005H41.0005Z" fill="url(#paint5_linear_1394_8711)"/>
<path fill-rule="evenodd" clip-rule="evenodd" d="M58.0711 49.9999H43.929L33.8994 39.9703C35.1508 37.9829 36.6418 36.1032 38.3726 34.3725C39.0587 33.6864 39.7682 33.038 40.4985 32.4272L58.0711 49.9999Z" fill="url(#paint6_linear_1394_8711)"/>
<path fill-rule="evenodd" clip-rule="evenodd" d="M72.0711 64L85.5727 77.5016C84.9619 78.2319 84.3135 78.9413 83.6274 79.6274C81.8967 81.3582 80.017 82.8493 78.0296 84.1006L57.929 64H72.0711Z" fill="url(#paint7_linear_1394_8711)"/>
<path opacity="0.3" fill-rule="evenodd" clip-rule="evenodd" d="M58.0711 50L72.0711 64H57.929L43.929 50L58.0711 50Z" fill="url(#paint8_linear_1394_8711)"/>
<path opacity="0.6" fill-rule="evenodd" clip-rule="evenodd" d="M3.67761 70.56C4.74536 53.6717 11.8317 36.95 24.8908 23.8909C37.9499 10.8318 54.6715 3.74549 71.5599 2.67773C58.8247 10.5308 45.9538 20.6715 33.8126 32.8127C21.6714 44.9539 11.5307 57.8248 3.67761 70.56Z" fill="url(#paint9_linear_1394_8711)"/>
<path opacity="0.6" fill-rule="evenodd" clip-rule="evenodd" d="M30.3158 36.3868L21.4738 27.5447C22.5633 26.2981 23.7024 25.0793 24.8909 23.8908C26.0794 22.7022 27.2983 21.5632 28.5448 20.4736L37.3869 29.3157C36.1891 30.4621 34.9974 31.6278 33.8126 32.8125C32.6279 33.9973 31.4622 35.1889 30.3158 36.3868V36.3868Z" fill="url(#paint10_linear_1394_8711)"/>
<defs>
<linearGradient id="paint0_linear_1394_8711" x1="16.3399" y1="104.279" x2="40.8982" y2="79.5994" gradientUnits="userSpaceOnUse">
<stop stop-color="#70B1FF"/>
<stop offset="1" stop-color="#005CCD"/>
</linearGradient>
<linearGradient id="paint1_linear_1394_8711" x1="19.3399" y1="101.279" x2="43.8982" y2="76.5994" gradientUnits="userSpaceOnUse">
<stop stop-color="#70B1FF"/>
<stop offset="1" stop-color="#005CCD"/>
</linearGradient>
<linearGradient id="paint2_linear_1394_8711" x1="17.5742" y1="91.9268" x2="29.0937" y2="78.1221" gradientUnits="userSpaceOnUse">
<stop stop-color="#8DB8F8"/>
<stop offset="1" stop-color="#6E9EE5"/>
</linearGradient>
<linearGradient id="paint3_linear_1394_8711" x1="-43.7135" y1="46.445" x2="48.9016" y2="134.241" gradientUnits="userSpaceOnUse">
<stop stop-color="#70B1FF"/>
<stop offset="1" stop-color="#005CCD"/>
</linearGradient>
<linearGradient id="paint4_linear_1394_8711" x1="-45.6251" y1="44.203" x2="42.063" y2="136.059" gradientUnits="userSpaceOnUse">
<stop stop-color="#70B1FF"/>
<stop offset="1" stop-color="#005CCD"/>
</linearGradient>
<linearGradient id="paint5_linear_1394_8711" x1="61" y1="121" x2="125" y2="57" gradientUnits="userSpaceOnUse">
<stop stop-color="#70B1FF"/>
<stop offset="1" stop-color="#005CCD"/>
</linearGradient>
<linearGradient id="paint6_linear_1394_8711" x1="114" y1="63.7771" x2="84.6646" y2="9.91211" gradientUnits="userSpaceOnUse">
<stop stop-color="#295296"/>
<stop offset="1" stop-color="#3E78D3"/>
</linearGradient>
<linearGradient id="paint7_linear_1394_8711" x1="112.885" y1="65.2645" x2="85.0634" y2="11.1494" gradientUnits="userSpaceOnUse">
<stop stop-color="#295296"/>
<stop offset="1" stop-color="#3E78D3"/>
</linearGradient>
<linearGradient id="paint8_linear_1394_8711" x1="37.1658" y1="53.2785" x2="40.9385" y2="69.4706" gradientUnits="userSpaceOnUse">
<stop stop-color="#70B1FF"/>
<stop offset="1" stop-color="#005CCD"/>
</linearGradient>
<linearGradient id="paint9_linear_1394_8711" x1="37.6187" y1="104.501" x2="105.501" y2="36.6189" gradientUnits="userSpaceOnUse">
<stop stop-color="#70B1FF"/>
<stop offset="1" stop-color="#005CCD"/>
</linearGradient>
<linearGradient id="paint10_linear_1394_8711" x1="21.4738" y1="21.112" x2="22.7505" y2="37.0251" gradientUnits="userSpaceOnUse">
<stop stop-color="#4B86E4"/>
<stop offset="1" stop-color="#437EDF"/>
</linearGradient>
</defs>
</svg>
