<svg width="48" height="48" viewBox="0 0 48 48" fill="none" xmlns="http://www.w3.org/2000/svg">
<path opacity="0.35" fill-rule="evenodd" clip-rule="evenodd" d="M24 46L12.4329 36.6017C9.62837 34.323 8 30.9019 8 27.2884V3H40V27.2884C40 30.9019 38.3716 34.323 35.5671 36.6017L24 46Z" fill="url(#paint0_linear_1394_8725)"/>
<path opacity="0.45" fill-rule="evenodd" clip-rule="evenodd" d="M24 46V3H40V27.2884C40 30.9019 38.3716 34.323 35.5671 36.6017L24 46Z" fill="url(#paint1_linear_1394_8725)"/>
<path opacity="0.3" d="M40 27.2881C40 30.9015 38.3718 34.3229 35.5674 36.6016L24 46L12.4326 36.6016C9.62824 34.3229 8 30.9015 8 27.2881V3H40V27.2881ZM12 27.2881C12 29.697 13.0855 31.978 14.9551 33.4971L24 40.8457L33.0449 33.4971C34.9145 31.978 36 29.697 36 27.2881V7H12V27.2881Z" fill="url(#paint2_linear_1394_8725)"/>
<path fill-rule="evenodd" clip-rule="evenodd" d="M24 46V40.8461L33.0447 33.4973C34.9144 31.9782 36 29.6974 36 27.2884V7H24V3H40V27.2884C40 30.9019 38.3716 34.323 35.5671 36.6017L24 46Z" fill="url(#paint3_linear_1394_8725)"/>
<path opacity="0.52" fill-rule="evenodd" clip-rule="evenodd" d="M46.5 12.3793L24 30.5L15 23.245V16.2999L23.978 23.5945L46.5 5.5V12.3793Z" fill="url(#paint4_linear_1394_8725)"/>
<path d="M40 10.7222V17.6141L24 30.5V23.5768L40 10.7222Z" fill="url(#paint5_linear_1394_8725)"/>
<defs>
<linearGradient id="paint0_linear_1394_8725" x1="-10.8777" y1="58.6135" x2="35.1612" y2="68.5101" gradientUnits="userSpaceOnUse">
<stop stop-color="#70B1FF"/>
<stop offset="1" stop-color="#005CCD"/>
</linearGradient>
<linearGradient id="paint1_linear_1394_8725" x1="14.5611" y1="58.6135" x2="38.3692" y2="61.1724" gradientUnits="userSpaceOnUse">
<stop stop-color="#70B1FF"/>
<stop offset="1" stop-color="#005CCD"/>
</linearGradient>
<linearGradient id="paint2_linear_1394_8725" x1="-10.8777" y1="58.6135" x2="35.1612" y2="68.5101" gradientUnits="userSpaceOnUse">
<stop stop-color="#70B1FF"/>
<stop offset="1" stop-color="#005CCD"/>
</linearGradient>
<linearGradient id="paint3_linear_1394_8725" x1="17.8838" y1="19.4727" x2="39.3846" y2="27.4558" gradientUnits="userSpaceOnUse">
<stop stop-color="#75A8F5"/>
<stop offset="1" stop-color="#5486DC"/>
</linearGradient>
<linearGradient id="paint4_linear_1394_8725" x1="52.9426" y1="-15.9114" x2="8.97804" y2="6.63096" gradientUnits="userSpaceOnUse">
<stop stop-color="#70B1FF"/>
<stop offset="1" stop-color="#005CCD"/>
</linearGradient>
<linearGradient id="paint5_linear_1394_8725" x1="29.7836" y1="34.4623" x2="49.7188" y2="24.0448" gradientUnits="userSpaceOnUse">
<stop stop-color="#295296"/>
<stop offset="1" stop-color="#3E78D3"/>
</linearGradient>
</defs>
</svg>
