<svg width="48" height="48" viewBox="0 0 48 48" fill="none" xmlns="http://www.w3.org/2000/svg">
<path opacity="0.35" fill-rule="evenodd" clip-rule="evenodd" d="M2 4C2 2.89543 2.89543 2 4 2H38C39.1046 2 40 2.89543 40 4V34C40 35.1046 39.1046 36 38 36H4C2.89543 36 2 35.1046 2 34V4Z" fill="url(#paint0_linear_1394_8734)"/>
<path opacity="0.6" d="M34 28.0709V30L28 26L34 22V24.0448C34.3294 24.0152 34.6629 24 35 24C41.0751 24 46 28.9249 46 35C46 41.0751 41.0751 46 35 46C28.9249 46 24 41.0751 24 35C24 32.643 24.7413 30.4592 26.0034 28.669L29.3337 30.8891C28.4948 32.0434 28 33.4639 28 35C28 38.866 31.134 42 35 42C38.866 42 42 38.866 42 35C42 31.134 38.866 28 35 28C34.6605 28 34.3266 28.0242 34 28.0709Z" fill="url(#paint1_linear_1394_8734)"/>
<path fill-rule="evenodd" clip-rule="evenodd" d="M40 25.1994V30.101C38.7295 28.8045 36.9587 28 35 28C34.6605 28 34.3266 28.0242 34 28.0709V30L28 26L34 22V24.0448C34.3294 24.0152 34.6629 24 35 24C36.8004 24 38.4999 24.4326 40 25.1994V25.1994Z" fill="url(#paint2_linear_1394_8734)"/>
<path fill-rule="evenodd" clip-rule="evenodd" d="M28.0709 36H24.0448C24.0152 35.6706 24 35.3371 24 35C24 32.643 24.7413 30.4592 26.0034 28.6689L29.3337 30.8891C28.4948 32.0434 28 33.4639 28 35C28 35.3395 28.0242 35.6734 28.0709 36Z" fill="url(#paint3_linear_1394_8734)"/>
<path d="M13 16C17.4183 16 21 19.5817 21 24V28H5V24C5 19.5817 8.58172 16 13 16ZM13 5C15.7614 5 18 7.23858 18 10C18 12.7614 15.7614 15 13 15C10.2386 15 8 12.7614 8 10C8 7.23858 10.2386 5 13 5Z" fill="url(#paint4_linear_1394_8734)"/>
<rect x="22" y="12" width="15" height="3" fill="url(#paint5_linear_1394_8734)"/>
<rect x="22" y="6" width="15" height="3" fill="url(#paint6_linear_1394_8734)"/>
<defs>
<linearGradient id="paint0_linear_1394_8734" x1="-20.2398" y1="18.0552" x2="15.483" y2="57.9521" gradientUnits="userSpaceOnUse">
<stop stop-color="#70B1FF"/>
<stop offset="1" stop-color="#005CCD"/>
</linearGradient>
<linearGradient id="paint1_linear_1394_8734" x1="35" y1="58" x2="58.9094" y2="36.083" gradientUnits="userSpaceOnUse">
<stop stop-color="#70B1FF"/>
<stop offset="1" stop-color="#005CCD"/>
</linearGradient>
<linearGradient id="paint2_linear_1394_8734" x1="23.5723" y1="18.7315" x2="18.6879" y2="34.3147" gradientUnits="userSpaceOnUse">
<stop stop-color="#295296"/>
<stop offset="1" stop-color="#3E78D3"/>
</linearGradient>
<linearGradient id="paint3_linear_1394_8734" x1="29.0918" y1="15.0276" x2="15.7856" y2="24.7019" gradientUnits="userSpaceOnUse">
<stop stop-color="#295296"/>
<stop offset="1" stop-color="#3E78D3"/>
</linearGradient>
<linearGradient id="paint4_linear_1394_8734" x1="8.14115" y1="-2.07183" x2="-8.48087" y2="14.3782" gradientUnits="userSpaceOnUse">
<stop stop-color="#8CB9F9"/>
<stop offset="1" stop-color="#6497E1"/>
</linearGradient>
<linearGradient id="paint5_linear_1394_8734" x1="36.5298" y1="10.041" x2="22" y2="10.041" gradientUnits="userSpaceOnUse">
<stop stop-color="#91BAF4"/>
<stop offset="1" stop-color="#7CA8E8"/>
</linearGradient>
<linearGradient id="paint6_linear_1394_8734" x1="36.5298" y1="4.04095" x2="22" y2="4.04095" gradientUnits="userSpaceOnUse">
<stop stop-color="#91BAF4"/>
<stop offset="1" stop-color="#7CA8E8"/>
</linearGradient>
</defs>
</svg>
