<svg width="48" height="48" viewBox="0 0 48 48" fill="none" xmlns="http://www.w3.org/2000/svg">
<path opacity="0.4" d="M40.3206 27.6036C39.3686 25.6942 37.5048 24.3191 35.2994 24.0487C36.8126 19.8163 35.8746 14.904 32.4853 11.5147C27.799 6.82843 20.201 6.82843 15.5147 11.5147C12.7785 14.251 11.6399 17.9799 12.0989 21.5422C9.79584 22.4388 8.01056 24.3714 7.31564 26.7675C4.68277 20.2683 6.00159 12.5426 11.2721 7.27208C18.3015 0.242641 29.6985 0.242641 36.7279 7.27208C42.2263 12.7705 43.4239 20.9411 40.3206 27.6036V27.6036Z" fill="url(#paint0_linear_1394_8744)"/>
<path opacity="0.35" d="M12.0989 21.5422C9.79584 22.4388 8.01056 24.3714 7.31564 26.7675C4.68277 20.2683 6.00159 12.5426 11.2721 7.27208C18.3015 0.242641 29.6985 0.242641 36.7279 7.27208L32.4853 11.5147C27.799 6.82843 20.201 6.82843 15.5147 11.5147C12.7785 14.251 11.6399 17.9799 12.0989 21.5422V21.5422Z" fill="url(#paint1_linear_1394_8744)"/>
<path opacity="0.4" d="M35.2998 24.0487C35.7531 22.7839 36 21.4208 36 20C36 19.3436 35.9473 18.6994 35.8459 18.0716C42.1165 18.7429 47 24.0511 47 30.5C47 37.4036 41.4036 43 34.5 43H15C7.26801 43 1 36.732 1 29C1 21.268 7.26801 15 15 15C18.866 15 22.366 16.567 24.8995 19.1005L20.6569 23.3431C19.2091 21.8954 17.2091 21 15 21C10.5817 21 7 24.5817 7 29C7 33.4183 10.5817 37 15 37H34.5C38.0899 37 41 34.0899 41 30.5C41 27.1809 38.5123 24.4429 35.2998 24.0487V24.0487Z" fill="url(#paint2_linear_1394_8744)"/>
<path d="M12.0989 21.5423C9.79584 22.4388 8.01056 24.3714 7.31564 26.7676C6.2097 24.0376 5.80101 21.0911 6.08956 18.2012C8.03105 16.5974 10.4123 15.5071 13.0255 15.1382C12.1295 17.1619 11.8206 19.3827 12.0989 21.5423V21.5423Z" fill="url(#paint3_linear_1394_8744)"/>
<path d="M25 36.9999V42.9999H15C11.134 42.9999 7.63397 41.4329 5.10046 38.8994L9.3431 34.6567C10.7908 36.1045 12.7908 36.9999 15 36.9999H25Z" fill="url(#paint4_linear_1394_8744)"/>
<defs>
<linearGradient id="paint0_linear_1394_8744" x1="25.9038" y1="-8.09377" x2="0.801152" y2="23.4688" gradientUnits="userSpaceOnUse">
<stop stop-color="#70B1FF"/>
<stop offset="1" stop-color="#005CCD"/>
</linearGradient>
<linearGradient id="paint1_linear_1394_8744" x1="22.989" y1="-7.76418" x2="-1.79972" y2="19.7372" gradientUnits="userSpaceOnUse">
<stop stop-color="#70B1FF"/>
<stop offset="1" stop-color="#005CCD"/>
</linearGradient>
<linearGradient id="paint2_linear_1394_8744" x1="35.5955" y1="14.255" x2="6.2328" y2="41.0216" gradientUnits="userSpaceOnUse">
<stop stop-color="#70B1FF"/>
<stop offset="1" stop-color="#005CCD"/>
</linearGradient>
<linearGradient id="paint3_linear_1394_8744" x1="10.402" y1="9.32349" x2="1.30896" y2="13.4261" gradientUnits="userSpaceOnUse">
<stop stop-color="#5087E7"/>
<stop offset="1" stop-color="#3C71D3"/>
</linearGradient>
<linearGradient id="paint4_linear_1394_8744" x1="8.47716" y1="42.9999" x2="21.8841" y2="32.1476" gradientUnits="userSpaceOnUse">
<stop stop-color="#295296"/>
<stop offset="1" stop-color="#3E78D3"/>
</linearGradient>
</defs>
</svg>
