<svg width="48" height="48" viewBox="0 0 48 48" fill="none" xmlns="http://www.w3.org/2000/svg">
<g opacity="0.55" style="mix-blend-mode:multiply">
<path fill-rule="evenodd" clip-rule="evenodd" d="M21 3H34V16H21V3ZM6 3H19V16H6V3ZM21 18H34V31H21V18ZM6 18H19V31H6V18Z" fill="url(#paint0_linear_1394_8760)"/>
</g>
<path opacity="0.45" fill-rule="evenodd" clip-rule="evenodd" d="M39.0859 33H39.8565C42.9736 33 45.5 35.686 45.5 39C45.5 42.314 42.9736 45 39.8565 45C21.0205 44.9999 11.5684 44.9999 11.5 45C6.25396 45 2 40.7467 2 35.5C2 30.6635 5.61481 26.6711 10.2893 26.0764C11.1094 23.4257 13.5798 21.5 16.5 21.5C17.9048 21.5 19.2054 21.9456 20.2684 22.7032C22.2835 20.4316 25.2246 19 28.5 19C34.5751 19 39.5 23.9249 39.5 30C39.5 31.04 39.3557 32.0463 39.0859 33V33Z" fill="url(#paint1_linear_1394_8760)"/>
<path fill-rule="evenodd" clip-rule="evenodd" d="M6 27.7533C7.2416 26.8702 8.70457 26.278 10.2893 26.0764C11.1094 23.4257 13.5798 21.5 16.5 21.5C17.3859 21.5 18.2304 21.6772 19 21.9982V31H6V27.7533H6Z" fill="url(#paint2_linear_1394_8760)"/>
<path fill-rule="evenodd" clip-rule="evenodd" d="M21 21.9532C22.9649 20.121 25.6015 19 28.5 19C30.5036 19 32.382 19.5357 34 20.4716V31H21V21.9532H21Z" fill="url(#paint3_linear_1394_8760)"/>
<defs>
<linearGradient id="paint0_linear_1394_8760" x1="17.9448" y1="-3.95557" x2="-5.59326" y2="19.231" gradientUnits="userSpaceOnUse">
<stop stop-color="#70B1FF"/>
<stop offset="1" stop-color="#005CCD"/>
</linearGradient>
<linearGradient id="paint1_linear_1394_8760" x1="17.9099" y1="9.36586" x2="2.36271" y2="41.0032" gradientUnits="userSpaceOnUse">
<stop stop-color="#70B1FF"/>
<stop offset="1" stop-color="#005CCD"/>
</linearGradient>
<linearGradient id="paint2_linear_1394_8760" x1="33.5951" y1="26.7813" x2="22.3743" y2="5.16365" gradientUnits="userSpaceOnUse">
<stop stop-color="#295296"/>
<stop offset="1" stop-color="#3E78D3"/>
</linearGradient>
<linearGradient id="paint3_linear_1394_8760" x1="39.3826" y1="25" x2="27.2401" y2="14.107" gradientUnits="userSpaceOnUse">
<stop stop-color="#6CA1F1"/>
<stop offset="1" stop-color="#6399EB"/>
</linearGradient>
</defs>
</svg>
