<svg width="48" height="48" viewBox="0 0 48 48" fill="none" xmlns="http://www.w3.org/2000/svg">
<path opacity="0.4" fill-rule="evenodd" clip-rule="evenodd" d="M47 6.7735L37 1L27 6.7735V19.2265L37 25L47 19.2265V6.7735V6.7735Z" fill="url(#paint0_linear_1394_8769)"/>
<path fill-rule="evenodd" clip-rule="evenodd" d="M37 1L27 6.7735L37 13L47 6.7735L37 1Z" fill="url(#paint1_linear_1394_8769)"/>
<rect opacity="0.4" x="2" y="28" width="31" height="18" fill="url(#paint2_linear_1394_8769)"/>
<path opacity="0.5" fill-rule="evenodd" clip-rule="evenodd" d="M2 22H13.5023L16.5 25L33 25.0368V28H2V22Z" fill="url(#paint3_linear_1394_8769)"/>
<path opacity="0.65" d="M27 21C17.0589 21 9 29.0589 9 39H3C3 25.7452 13.7452 15 27 15V12L37 18L27 24V21Z" fill="url(#paint4_linear_1394_8769)"/>
<path fill-rule="evenodd" clip-rule="evenodd" d="M31.0544 21.5673L27 19.2265V12L37 18L31.0544 21.5673V21.5673Z" fill="url(#paint5_linear_1394_8769)"/>
<path fill-rule="evenodd" clip-rule="evenodd" d="M10.0589 22H13.5023L16.1423 24.6421C14.869 25.6066 13.7278 26.7366 12.751 28H5.66357C6.81331 25.7744 8.30104 23.7518 10.0589 22V22Z" fill="url(#paint6_linear_1394_8769)"/>
<defs>
<linearGradient id="paint0_linear_1394_8769" x1="37" y1="37" x2="13.3934" y2="17.3279" gradientUnits="userSpaceOnUse">
<stop stop-color="#70B1FF"/>
<stop offset="1" stop-color="#005CCD"/>
</linearGradient>
<linearGradient id="paint1_linear_1394_8769" x1="47" y1="13" x2="27" y2="13" gradientUnits="userSpaceOnUse">
<stop stop-color="#84B2F3"/>
<stop offset="1" stop-color="#6697E0"/>
</linearGradient>
<linearGradient id="paint2_linear_1394_8769" x1="-13.5" y1="28" x2="-13.5" y2="46" gradientUnits="userSpaceOnUse">
<stop stop-color="#70B1FF"/>
<stop offset="1" stop-color="#005CCD"/>
</linearGradient>
<linearGradient id="paint3_linear_1394_8769" x1="19.8206" y1="19.8983" x2="17.1894" y2="31.4576" gradientUnits="userSpaceOnUse">
<stop stop-color="#70B1FF"/>
<stop offset="1" stop-color="#005CCD"/>
</linearGradient>
<linearGradient id="paint4_linear_1394_8769" x1="16.7289" y1="52.5" x2="44.3439" y2="24.4167" gradientUnits="userSpaceOnUse">
<stop stop-color="#70B1FF"/>
<stop offset="1" stop-color="#005CCD"/>
</linearGradient>
<linearGradient id="paint5_linear_1394_8769" x1="37" y1="13.4935" x2="27" y2="13.4935" gradientUnits="userSpaceOnUse">
<stop stop-color="#295296"/>
<stop offset="1" stop-color="#3E78D3"/>
</linearGradient>
<linearGradient id="paint6_linear_1394_8769" x1="11.6874" y1="19.8983" x2="6.05441" y2="28.2632" gradientUnits="userSpaceOnUse">
<stop stop-color="#5089E3"/>
<stop offset="1" stop-color="#5089E2"/>
</linearGradient>
</defs>
</svg>
