<svg width="48" height="48" viewBox="0 0 48 48" fill="none" xmlns="http://www.w3.org/2000/svg">
<path opacity="0.45" fill-rule="evenodd" clip-rule="evenodd" d="M8 12.5C10.7614 12.5 13 10.2614 13 7.5C13 4.73858 10.7614 2.5 8 2.5C5.23858 2.5 3 4.73858 3 7.5C3 10.2614 5.23858 12.5 8 12.5Z" fill="url(#paint0_linear_1394_8802)"/>
<path opacity="0.55" fill-rule="evenodd" clip-rule="evenodd" d="M8 47C11.3137 47 14 44.3137 14 41C14 37.6863 11.3137 35 8 35C4.68629 35 2 37.6863 2 41C2 44.3137 4.68629 47 8 47Z" fill="url(#paint1_linear_1394_8802)"/>
<path opacity="0.45" fill-rule="evenodd" clip-rule="evenodd" d="M6 28C8.20914 28 10 26.2091 10 24C10 21.7909 8.20914 20 6 20C3.79086 20 2 21.7909 2 24C2 26.2091 3.79086 28 6 28Z" fill="url(#paint2_linear_1394_8802)"/>
<path opacity="0.55" fill-rule="evenodd" clip-rule="evenodd" d="M40 16.5C43.866 16.5 47 13.366 47 9.5C47 5.63401 43.866 2.5 40 2.5C36.134 2.5 33 5.63401 33 9.5C33 13.366 36.134 16.5 40 16.5Z" fill="url(#paint3_linear_1394_8802)"/>
<path opacity="0.55" fill-rule="evenodd" clip-rule="evenodd" d="M41 45.5C43.7614 45.5 46 43.2614 46 40.5C46 37.7386 43.7614 35.5 41 35.5C38.2386 35.5 36 37.7386 36 40.5C36 43.2614 38.2386 45.5 41 45.5Z" fill="url(#paint4_linear_1394_8802)"/>
<path opacity="0.55" fill-rule="evenodd" clip-rule="evenodd" d="M25 34C30.5228 34 35 29.5228 35 24C35 18.4772 30.5228 14 25 14C19.4772 14 15 18.4772 15 24C15 29.5228 19.4772 34 25 34Z" fill="url(#paint5_linear_1394_8802)"/>
<path opacity="0.55" fill-rule="evenodd" clip-rule="evenodd" d="M20.1716 21.9999L7.32233 9.15069L10.1508 6.32227L25 21.1715L37.7279 8.44359L40.5564 11.272L27.8284 23.9999L42.6777 38.8492L39.8492 41.6776L25 26.8284L10.1508 41.6776L7.32233 38.8492L20.1716 25.9999H6V21.9999H20.1716Z" fill="url(#paint6_linear_1394_8802)"/>
<path opacity="0.55" d="M42.6772 38.8491L39.8491 41.6772L36.4966 38.3247C37.0989 37.08 38.2022 36.1231 39.5444 35.7153L42.6772 38.8491Z" fill="url(#paint7_linear_1394_8802)"/>
<path opacity="0.55" d="M10.5861 35.585C11.8217 36.1761 12.8228 37.1777 13.4142 38.4131L10.1505 41.6777L7.32239 38.8496L10.5861 35.585Z" fill="url(#paint8_linear_1394_8802)"/>
<path d="M9.46387 22C9.80436 22.5884 10 23.2712 10 24C10 24.7288 9.80436 25.4116 9.46387 26H6V22H9.46387Z" fill="url(#paint9_linear_1394_8802)"/>
<path fill-rule="evenodd" clip-rule="evenodd" d="M36.3526 15.476C35.1948 14.7678 34.2587 13.7326 33.673 12.4988L37.7279 8.44385L40.5564 11.2723L36.3526 15.476Z" fill="url(#paint10_linear_1394_8802)"/>
<path fill-rule="evenodd" clip-rule="evenodd" d="M12.7847 8.95614C12.3768 10.2982 11.4197 11.4012 10.1751 12.0034L7.32239 9.15069L10.1508 6.32227L12.7847 8.95614V8.95614Z" fill="url(#paint11_linear_1394_8802)"/>
<path d="M30.5127 15.6577C31.6349 16.4008 32.5976 17.3638 33.3408 18.4858L27.8281 23.9995L33.3418 29.5132C32.5987 30.6353 31.6357 31.5981 30.5137 32.3413L25 26.8286L19.4854 32.3413C18.3634 31.5981 17.4002 30.6353 16.6572 29.5132L20.1719 25.9995H15.2002C15.0691 25.3534 15 24.6843 15 23.9995C15 23.3146 15.069 22.6457 15.2002 21.9995H20.1719L16.6582 18.4858C17.4012 17.3641 18.3636 16.4007 19.4854 15.6577L25 21.1714L30.5127 15.6577Z" fill="url(#paint12_linear_1394_8802)"/>
<path fill-rule="evenodd" clip-rule="evenodd" d="M25 29C27.7614 29 30 26.7614 30 24C30 21.2386 27.7614 19 25 19C22.2386 19 20 21.2386 20 24C20 26.7614 22.2386 29 25 29Z" fill="url(#paint13_linear_1394_8802)"/>
<defs>
<linearGradient id="paint0_linear_1394_8802" x1="8" y1="-2.5" x2="-2" y2="7.5" gradientUnits="userSpaceOnUse">
<stop stop-color="#70B1FF"/>
<stop offset="1" stop-color="#005CCD"/>
</linearGradient>
<linearGradient id="paint1_linear_1394_8802" x1="8" y1="29" x2="-4" y2="41" gradientUnits="userSpaceOnUse">
<stop stop-color="#70B1FF"/>
<stop offset="1" stop-color="#005CCD"/>
</linearGradient>
<linearGradient id="paint2_linear_1394_8802" x1="6" y1="16" x2="-2" y2="24" gradientUnits="userSpaceOnUse">
<stop stop-color="#70B1FF"/>
<stop offset="1" stop-color="#005CCD"/>
</linearGradient>
<linearGradient id="paint3_linear_1394_8802" x1="40" y1="-4.5" x2="26" y2="9.5" gradientUnits="userSpaceOnUse">
<stop stop-color="#70B1FF"/>
<stop offset="1" stop-color="#005CCD"/>
</linearGradient>
<linearGradient id="paint4_linear_1394_8802" x1="41" y1="30.5" x2="31" y2="40.5" gradientUnits="userSpaceOnUse">
<stop stop-color="#70B1FF"/>
<stop offset="1" stop-color="#005CCD"/>
</linearGradient>
<linearGradient id="paint5_linear_1394_8802" x1="25" y1="4" x2="5" y2="24" gradientUnits="userSpaceOnUse">
<stop stop-color="#70B1FF"/>
<stop offset="1" stop-color="#005CCD"/>
</linearGradient>
<linearGradient id="paint6_linear_1394_8802" x1="24.3388" y1="-11.3554" x2="-10.9927" y2="25.2976" gradientUnits="userSpaceOnUse">
<stop stop-color="#70B1FF"/>
<stop offset="1" stop-color="#005CCD"/>
</linearGradient>
<linearGradient id="paint7_linear_1394_8802" x1="43.3215" y1="38.5627" x2="39.9567" y2="34.8657" gradientUnits="userSpaceOnUse">
<stop stop-color="#558DE5"/>
<stop offset="1" stop-color="#578FE6"/>
</linearGradient>
<linearGradient id="paint8_linear_1394_8802" x1="10.448" y1="34.8799" x2="7.01095" y2="38.9168" gradientUnits="userSpaceOnUse">
<stop stop-color="#538BE4"/>
<stop offset="1" stop-color="#447DDA"/>
</linearGradient>
<linearGradient id="paint9_linear_1394_8802" x1="8" y1="20" x2="4" y2="24" gradientUnits="userSpaceOnUse">
<stop stop-color="#6097E9"/>
<stop offset="1" stop-color="#5890E2"/>
</linearGradient>
<linearGradient id="paint10_linear_1394_8802" x1="37.0868" y1="6.96798" x2="32.0011" y2="11.85" gradientUnits="userSpaceOnUse">
<stop stop-color="#639CF0"/>
<stop offset="1" stop-color="#518BE4"/>
</linearGradient>
<linearGradient id="paint11_linear_1394_8802" x1="12.9254" y1="8.51706" x2="8.15146" y2="6.82446" gradientUnits="userSpaceOnUse">
<stop stop-color="#5D92E6"/>
<stop offset="1" stop-color="#5E94E7"/>
</linearGradient>
<linearGradient id="paint12_linear_1394_8802" x1="23.3401" y1="9.39115" x2="11.03" y2="25.0295" gradientUnits="userSpaceOnUse">
<stop stop-color="#68A0F5"/>
<stop offset="1" stop-color="#417AD7"/>
</linearGradient>
<linearGradient id="paint13_linear_1394_8802" x1="22.4444" y1="37.4834" x2="35.2699" y2="26.9436" gradientUnits="userSpaceOnUse">
<stop stop-color="#295296"/>
<stop offset="1" stop-color="#3E78D3"/>
</linearGradient>
</defs>
</svg>
