<svg width="48" height="48" viewBox="0 0 48 48" fill="none" xmlns="http://www.w3.org/2000/svg">
<path opacity="0.45" fill-rule="evenodd" clip-rule="evenodd" d="M14 39L6 46V39H3V18H35V39H14Z" fill="url(#paint0_linear_1394_8825)"/>
<path opacity="0.4" fill-rule="evenodd" clip-rule="evenodd" d="M33 24H12V3H44V24H41V31L33 24Z" fill="url(#paint1_linear_1394_8825)"/>
<path fill-rule="evenodd" clip-rule="evenodd" d="M12 18H35V25.75L33 24H12V18Z" fill="url(#paint2_linear_1394_8825)"/>
<path d="M12 28C13.1046 28 14 28.8954 14 30C14 31.1046 13.1046 32 12 32C10.8954 32 10 31.1046 10 30C10 28.8954 10.8954 28 12 28ZM19.5 28C20.6046 28 21.5 28.8954 21.5 30C21.5 31.1046 20.6046 32 19.5 32C18.3954 32 17.5 31.1046 17.5 30C17.5 28.8954 18.3954 28 19.5 28ZM27 28C28.1046 28 29 28.8954 29 30C29 31.1046 28.1046 32 27 32C25.8954 32 25 31.1046 25 30C25 28.8954 25.8954 28 27 28Z" fill="url(#paint3_linear_1394_8825)"/>
<rect x="16" y="7" width="23" height="3" fill="url(#paint4_linear_1394_8825)"/>
<rect x="16" y="12" width="14" height="3" fill="url(#paint5_linear_1394_8825)"/>
<defs>
<linearGradient id="paint0_linear_1394_8825" x1="23.3884" y1="5.71967" x2="-1.57556" y2="29.3242" gradientUnits="userSpaceOnUse">
<stop stop-color="#70B1FF"/>
<stop offset="1" stop-color="#005CCD"/>
</linearGradient>
<linearGradient id="paint1_linear_1394_8825" x1="28" y1="-11" x2="0.247788" y2="20.7168" gradientUnits="userSpaceOnUse">
<stop stop-color="#70B1FF"/>
<stop offset="1" stop-color="#005CCD"/>
</linearGradient>
<linearGradient id="paint2_linear_1394_8825" x1="25.6099" y1="14.125" x2="20.0316" y2="27.6425" gradientUnits="userSpaceOnUse">
<stop stop-color="#84B3F7"/>
<stop offset="1" stop-color="#6799E3"/>
</linearGradient>
<linearGradient id="paint3_linear_1394_8825" x1="14.6444" y1="35.3933" x2="17.1587" y2="25.5788" gradientUnits="userSpaceOnUse">
<stop stop-color="#295296"/>
<stop offset="1" stop-color="#3E78D3"/>
</linearGradient>
<linearGradient id="paint4_linear_1394_8825" x1="33.25" y1="5.5" x2="31.4181" y2="12.5221" gradientUnits="userSpaceOnUse">
<stop stop-color="#94C0FC"/>
<stop offset="1" stop-color="#6798E0"/>
</linearGradient>
<linearGradient id="paint5_linear_1394_8825" x1="43.8461" y1="10.5165" x2="16" y2="10.5165" gradientUnits="userSpaceOnUse">
<stop stop-color="#94C0FC"/>
<stop offset="1" stop-color="#6798E0"/>
</linearGradient>
</defs>
</svg>
