<svg width="48" height="48" viewBox="0 0 48 48" fill="none" xmlns="http://www.w3.org/2000/svg">
<path opacity="0.4" fill-rule="evenodd" clip-rule="evenodd" d="M31.0753 23.5752C36.322 23.5752 40.5753 19.3219 40.5753 14.0752C40.5753 8.82849 36.322 4.5752 31.0753 4.5752C25.8286 4.5752 21.5753 8.82849 21.5753 14.0752C21.5753 19.3219 25.8286 23.5752 31.0753 23.5752Z" fill="url(#paint0_linear_1394_8835)"/>
<path opacity="0.7" d="M24.8252 3.24999C30.8038 -0.20175 38.4485 1.84669 41.9004 7.82518C45.0983 13.3641 43.5755 20.3333 38.5801 24.0732L47.374 39.3057L44.7763 40.8057L35.9814 25.5732C30.2447 28.0295 23.4479 25.8642 20.25 20.3252C16.7983 14.3466 18.8466 6.70177 24.8252 3.24999ZM39.3027 9.32518C36.6794 4.78146 30.8689 3.22437 26.3252 5.84765C21.7815 8.47094 20.2245 14.2814 22.8476 18.8252C25.4709 23.3689 31.2814 24.9259 35.8252 22.3027C40.3689 19.6794 41.9261 13.869 39.3027 9.32518Z" fill="url(#paint1_linear_1394_8835)"/>
<path opacity="0.55" fill-rule="evenodd" clip-rule="evenodd" d="M23.4623 40.4391L8.38214 28.6595C8.16931 28.7744 7.9455 28.8752 7.71146 28.9604C5.11657 29.9049 2.24736 28.567 1.3029 25.9721C0.358435 23.3772 1.69637 20.508 4.29126 19.5635C6.21793 18.8623 8.29583 19.4193 9.62483 20.8148L29.2006 13.6898C29.3216 11.7665 30.5554 10.0041 32.482 9.3029C35.0769 8.35844 37.9461 9.69637 38.8906 12.2913C39.8351 14.8861 38.4971 17.7554 35.9022 18.6998C35.6682 18.785 35.4319 18.8516 35.1951 18.9004L31.2148 37.6174C32.0085 38.1842 32.6449 38.9885 33.0037 39.9742C33.9482 42.5691 32.6102 45.4383 30.0153 46.3827C27.4204 47.3272 24.5512 45.9893 23.6068 43.3944C23.248 42.4087 23.2186 41.3834 23.4623 40.4391ZM27.3023 36.7852L31.2826 18.0682C31.027 17.8857 30.7877 17.6785 30.5687 17.4486L10.9929 24.5735C10.973 24.8904 10.9228 25.203 10.8443 25.5071L25.9245 37.2867C26.1373 37.1718 26.3611 37.071 26.5951 36.9858C26.8292 36.9006 27.0654 36.834 27.3023 36.7852V36.7852Z" fill="url(#paint2_linear_1394_8835)"/>
<path opacity="0.55" d="M34.322 23.0059C33.309 23.3743 32.2156 23.5752 31.0752 23.5752C30.7533 23.5752 30.4352 23.5592 30.1216 23.5279L31.2826 18.0682C31.027 17.8857 30.7877 17.6785 30.5687 17.4486L23.6284 19.9746C22.798 18.9278 22.1837 17.7019 21.8528 16.3642L29.2006 13.6898C29.3216 11.7665 30.5554 10.0041 32.482 9.3029C35.0769 8.35844 37.9461 9.69637 38.8906 12.2913C39.8351 14.8861 38.4971 17.7554 35.9022 18.6998C35.6682 18.785 35.4319 18.8516 35.1951 18.9004L34.322 23.0059Z" fill="url(#paint3_linear_1394_8835)"/>
<path fill-rule="evenodd" clip-rule="evenodd" d="M38.0933 30.231L41.5574 28.231L47.8074 39.0563L44.3433 41.0563L38.0933 30.231Z" fill="url(#paint4_linear_1394_8835)"/>
<path fill-rule="evenodd" clip-rule="evenodd" d="M30.1215 23.5281C31.5163 23.67 32.9518 23.5051 34.3222 23.005L33.6178 26.3175C32.2474 26.6024 30.8539 26.65 29.4947 26.4757L30.1215 23.5281V23.5281ZM23.6276 19.9749L20.6961 21.0419C20.5406 20.8098 20.3918 20.5709 20.25 20.3254C19.7055 19.3823 19.2979 18.3978 19.021 17.3949L21.8527 16.3643C22.0623 17.2073 22.392 18.0355 22.8481 18.8254C23.0834 19.2329 23.3443 19.6164 23.6276 19.9749V19.9749Z" fill="url(#paint5_linear_1394_8835)"/>
<defs>
<linearGradient id="paint0_linear_1394_8835" x1="20.8037" y1="12.1346" x2="30.5049" y2="22.4061" gradientUnits="userSpaceOnUse">
<stop stop-color="#84B4FA"/>
<stop offset="1" stop-color="#4E82D5"/>
</linearGradient>
<linearGradient id="paint1_linear_1394_8835" x1="12.5468" y1="17.2403" x2="36.5606" y2="34.6289" gradientUnits="userSpaceOnUse">
<stop stop-color="#70B1FF"/>
<stop offset="1" stop-color="#005CCD"/>
</linearGradient>
<linearGradient id="paint2_linear_1394_8835" x1="2.65747" y1="0.533641" x2="-14.1366" y2="35.1265" gradientUnits="userSpaceOnUse">
<stop stop-color="#70B1FF"/>
<stop offset="1" stop-color="#005CCD"/>
</linearGradient>
<linearGradient id="paint3_linear_1394_8835" x1="2.65747" y1="0.533641" x2="-14.1366" y2="35.1265" gradientUnits="userSpaceOnUse">
<stop stop-color="#70B1FF"/>
<stop offset="1" stop-color="#005CCD"/>
</linearGradient>
<linearGradient id="paint4_linear_1394_8835" x1="61.1402" y1="37.2065" x2="40.3244" y2="18.2597" gradientUnits="userSpaceOnUse">
<stop stop-color="#295296"/>
<stop offset="1" stop-color="#3E78D3"/>
</linearGradient>
<linearGradient id="paint5_linear_1394_8835" x1="12.8518" y1="22.6212" x2="22.7277" y2="34.8877" gradientUnits="userSpaceOnUse">
<stop stop-color="#4B86E9"/>
<stop offset="1" stop-color="#417FE2"/>
</linearGradient>
</defs>
</svg>
