<svg width="96" height="96" viewBox="0 0 96 96" fill="none" xmlns="http://www.w3.org/2000/svg">
<path opacity="0.5" fill-rule="evenodd" clip-rule="evenodd" d="M55 90C36.7746 90 22 75.2254 22 57C22 38.7746 36.7746 24 55 24C73.2254 24 88 38.7746 88 57C88 75.2254 73.2254 90 55 90ZM55 65C59.4183 65 63 61.4183 63 57C63 52.5817 59.4183 49 55 49C50.5817 49 47 52.5817 47 57C47 61.4183 50.5817 65 55 65Z" fill="url(#paint0_linear_1394_8890)"/>
<path opacity="0.5" fill-rule="evenodd" clip-rule="evenodd" d="M36.4034 4L19.1602 33.866C16.3988 38.649 10.2829 40.2877 5.49996 37.5263C0.717035 34.7649 -0.921717 28.649 1.83971 23.866L13.3094 4H36.4034Z" fill="url(#paint1_linear_1394_8890)"/>
<rect opacity="0.5" x="3" y="21" width="16" height="40" rx="8" fill="url(#paint2_linear_1394_8890)"/>
<path fill-rule="evenodd" clip-rule="evenodd" d="M19 34.134C16.168 38.7094 10.1925 40.2355 5.5 37.5263C4.53533 36.9693 3.69856 36.2759 3 35.4845V29C3 24.5817 6.58172 21 11 21C15.4183 21 19 24.5817 19 29V34.134V34.134Z" fill="url(#paint3_linear_1394_8890)"/>
<path opacity="0.6" fill-rule="evenodd" clip-rule="evenodd" d="M68.2679 66.5167L64.8038 64.5167L73.8022 48.931C73.2859 47.7243 73 46.3956 73 45V4H93V45C93 50.1183 89.1548 54.3384 84.1955 54.9293L75.1961 70.5167L71.732 68.5167L67.232 76.3109L63.7679 74.3109L68.2679 66.5167Z" fill="url(#paint4_linear_1394_8890)"/>
<path fill-rule="evenodd" clip-rule="evenodd" d="M73 29.3369C81.1762 34.6679 86.843 43.5256 87.8421 53.7517C86.7379 54.364 85.5056 54.7733 84.1955 54.9294L75.1961 70.5168L71.732 68.5168L67.232 76.311L63.7679 74.311L68.2679 66.5168L64.8038 64.5168L73.8022 48.9311C73.2859 47.7245 73 46.3957 73 45.0001V29.3369V29.3369Z" fill="url(#paint5_linear_1394_8890)"/>
<path fill-rule="evenodd" clip-rule="evenodd" d="M93 45C93 39.4772 88.5228 35 83 35C77.4772 35 73 39.4772 73 45C73 50.5228 77.4772 55 83 55C88.5228 55 93 50.5228 93 45Z" fill="url(#paint6_linear_1394_8890)"/>
<path opacity="0.5" fill-rule="evenodd" clip-rule="evenodd" d="M35.7722 64.7246C38.275 62.3221 42.1555 61.7501 45.3109 63.5718L43.3109 67.0359C41.3977 65.9314 38.9514 66.5869 37.8468 68.5C36.7422 70.4132 37.3977 72.8596 39.3109 73.9641L37.3109 77.4282C34.1555 75.6065 32.7107 71.9598 33.5399 68.5911L9.52905 58.8185C9.00536 58.6858 8.49099 58.4796 8.00003 58.1962C5.13027 56.5393 4.14702 52.8698 5.80387 50C7.46073 47.1303 11.1303 46.147 14 47.8039C14.491 48.0873 14.9267 48.4297 15.3035 48.8169L35.7722 64.7246Z" fill="url(#paint7_linear_1394_8890)"/>
<path fill-rule="evenodd" clip-rule="evenodd" d="M22.7914 64.2164C22.2733 61.8937 22 59.4788 22 57C22 56.0288 22.0419 55.0675 22.1241 54.1177L35.7722 64.7245C38.275 62.3221 42.1555 61.75 45.3109 63.5718L43.3109 67.0359C41.3977 65.9313 38.9514 66.5868 37.8468 68.5C36.7422 70.4132 37.3977 72.8595 39.3109 73.9641L37.3109 77.4282C34.1555 75.6064 32.7107 71.9597 33.5398 68.591L22.7914 64.2164V64.2164Z" fill="url(#paint8_linear_1394_8890)"/>
<path fill-rule="evenodd" clip-rule="evenodd" d="M19 51.6897V53C19 56.4626 16.8002 59.4114 13.722 60.525L9.52905 58.8185C9.00536 58.6858 8.49099 58.4796 8.00003 58.1962C5.13027 56.5393 4.14702 52.8698 5.80387 50C7.46073 47.1303 11.1303 46.147 14 47.8039C14.491 48.0873 14.9267 48.4297 15.3035 48.8169L19 51.6897Z" fill="url(#paint9_linear_1394_8890)"/>
<defs>
<linearGradient id="paint0_linear_1394_8890" x1="58.4903" y1="-2.01937" x2="-7.50968" y2="57" gradientUnits="userSpaceOnUse">
<stop stop-color="#70B1FF"/>
<stop offset="1" stop-color="#005CCD"/>
</linearGradient>
<linearGradient id="paint1_linear_1394_8890" x1="16.7076" y1="-12.5874" x2="-16.4047" y2="23.25" gradientUnits="userSpaceOnUse">
<stop stop-color="#70B1FF"/>
<stop offset="1" stop-color="#005CCD"/>
</linearGradient>
<linearGradient id="paint2_linear_1394_8890" x1="3" y1="21" x2="3" y2="61" gradientUnits="userSpaceOnUse">
<stop stop-color="#70B1FF"/>
<stop offset="1" stop-color="#005CCD"/>
</linearGradient>
<linearGradient id="paint3_linear_1394_8890" x1="10.2359" y1="14.6941" x2="-4.69687" y2="27.1633" gradientUnits="userSpaceOnUse">
<stop stop-color="#679CF1"/>
<stop offset="1" stop-color="#5188E0"/>
</linearGradient>
<linearGradient id="paint4_linear_1394_8890" x1="80.1376" y1="-40.5162" x2="26.0752" y2="-19.1753" gradientUnits="userSpaceOnUse">
<stop stop-color="#70B1FF"/>
<stop offset="1" stop-color="#005CCD"/>
</linearGradient>
<linearGradient id="paint5_linear_1394_8890" x1="62.3768" y1="19.3801" x2="35.6786" y2="50.476" gradientUnits="userSpaceOnUse">
<stop stop-color="#5B95EF"/>
<stop offset="1" stop-color="#3B75D7"/>
</linearGradient>
<linearGradient id="paint6_linear_1394_8890" x1="79.5617" y1="70.7129" x2="104.597" y2="47.5179" gradientUnits="userSpaceOnUse">
<stop stop-color="#295296"/>
<stop offset="1" stop-color="#3E78D3"/>
</linearGradient>
<linearGradient id="paint7_linear_1394_8890" x1="4.99902" y1="46.999" x2="4.99902" y2="77.4282" gradientUnits="userSpaceOnUse">
<stop stop-color="#70B1FF"/>
<stop offset="1" stop-color="#005CCD"/>
</linearGradient>
<linearGradient id="paint8_linear_1394_8890" x1="50.3178" y1="64.8058" x2="31.9392" y2="44.9281" gradientUnits="userSpaceOnUse">
<stop stop-color="#437AD6"/>
<stop offset="1" stop-color="#538AE2"/>
</linearGradient>
<linearGradient id="paint9_linear_1394_8890" x1="2.53969" y1="54.8965" x2="14.5899" y2="63.2847" gradientUnits="userSpaceOnUse">
<stop stop-color="#6096ED"/>
<stop offset="1" stop-color="#5289E2"/>
</linearGradient>
</defs>
</svg>
