<svg width="48" height="48" viewBox="0 0 48 48" fill="none" xmlns="http://www.w3.org/2000/svg">
<path opacity="0.55" fill-rule="evenodd" clip-rule="evenodd" d="M26.2397 24.9986L25.629 24.388L22.3033 27.7279C20.9365 29.0948 18.7204 29.0948 17.3536 27.7279L25.5815 19H48V30H39.2779L28.1066 40.1023C27.5208 40.6881 26.5711 40.6881 25.9853 40.1023C25.5521 39.6691 25.4392 39.0369 25.6467 38.5H25.4663L23.864 40.1023C23.2782 40.6881 22.3284 40.6881 21.7426 40.1023C21.3095 39.6691 21.1966 39.0369 21.4041 38.5H21.2236L19.6213 40.1023C19.0355 40.6881 18.0858 40.6881 17.5 40.1023C16.9142 39.5165 16.9142 38.5668 17.5 37.981L17.9896 37.4914V37.2779C17.4643 37.4588 16.8586 37.3396 16.4393 36.9203C15.8536 36.3345 15.8536 35.3848 16.4393 34.799L26.2397 24.9986Z" fill="url(#paint0_linear_1394_8917)"/>
<path opacity="0.45" fill-rule="evenodd" clip-rule="evenodd" d="M33.4179 23.9997C33.3974 23.9999 33.377 24 33.3565 24H8.64352C5.52641 24 3 21.314 3 18C3 14.686 5.52641 12 8.64352 12H11.0107C11.2725 5.88076 16.3163 1 22.5 1C26.0937 1 29.3024 2.64842 31.4112 5.23037C32.0833 5.07957 32.7824 5 33.5 5C38.746 5 43 9.25329 43 14.5C43 19.7467 38.746 24 33.5 24C33.4726 24 33.4452 23.9999 33.4179 23.9997V23.9997Z" fill="url(#paint1_linear_1394_8917)"/>
<path fill-rule="evenodd" clip-rule="evenodd" d="M20.8679 24L25.5815 19H41.8686C40.2643 21.9769 37.1181 24 33.5 24C33.4726 24 33.4452 23.9999 33.4179 23.9997C33.3974 23.9999 33.377 24 33.3565 24H20.8679Z" fill="url(#paint2_linear_1394_8917)"/>
<path opacity="0.42" fill-rule="evenodd" clip-rule="evenodd" d="M21.2603 29.9986L31.0607 39.799C31.6464 40.3848 31.6464 41.3345 31.0607 41.9203C30.6414 42.3396 30.0357 42.4588 29.5104 42.2779V42.4914L30 42.981C30.5858 43.5668 30.5858 44.5165 30 45.1023C29.4142 45.6881 28.4645 45.6881 27.8787 45.1023L26.2764 43.5H26.0959C26.3034 44.0369 26.1905 44.6691 25.7574 45.1023C25.1716 45.6881 24.2218 45.6881 23.636 45.1023L22.0337 43.5H21.8533C22.0608 44.0369 21.9479 44.6691 21.5147 45.1023C20.9289 45.6881 19.9792 45.6881 19.3934 45.1023L8.22205 35H0V24H21.9185L30.1464 32.7279C28.7796 34.0948 26.5635 34.0948 25.1967 32.7279L21.871 29.388L21.2603 29.9986Z" fill="url(#paint3_linear_1394_8917)"/>
<path fill-rule="evenodd" clip-rule="evenodd" d="M23.9109 26.1135L22.3033 27.7279C20.9364 29.0948 18.7204 29.0948 17.3535 27.7279L20.8679 24H21.9185L23.9109 26.1135Z" fill="url(#paint4_linear_1394_8917)"/>
<path fill-rule="evenodd" clip-rule="evenodd" d="M29.8171 38.5554L28.1066 40.1022C27.5208 40.688 26.5711 40.688 25.9853 40.1022C25.5521 39.669 25.4392 39.0368 25.6467 38.4999H25.4663L23.864 40.1022C23.2782 40.688 22.3284 40.688 21.7426 40.1022C21.3095 39.669 21.1966 39.0368 21.4041 38.4999H21.2236L19.6213 40.1022C19.0355 40.688 18.0858 40.688 17.5 40.1022C16.9142 39.5164 16.9142 38.5667 17.5 37.9809L17.9896 37.4913V37.2778C17.4643 37.4587 16.8586 37.3395 16.4393 36.9203C15.8536 36.3345 15.8536 35.3847 16.4393 34.7989L24.5 26.7383L30.1464 32.7279C28.7796 34.0947 26.5635 34.0947 25.1967 32.7279L21.871 29.3879L21.2603 29.9986L29.8171 38.5554V38.5554Z" fill="url(#paint5_linear_1394_8917)"/>
<defs>
<linearGradient id="paint0_linear_1394_8917" x1="32" y1="9.20656" x2="14.4782" y2="37.8328" gradientUnits="userSpaceOnUse">
<stop stop-color="#70B1FF"/>
<stop offset="1" stop-color="#005CCD"/>
</linearGradient>
<linearGradient id="paint1_linear_1394_8917" x1="63" y1="12.5" x2="43.1221" y2="47.0702" gradientUnits="userSpaceOnUse">
<stop stop-color="#70B1FF"/>
<stop offset="1" stop-color="#005CCD"/>
</linearGradient>
<linearGradient id="paint2_linear_1394_8917" x1="34.6073" y1="30.161" x2="36.6429" y2="18.1168" gradientUnits="userSpaceOnUse">
<stop stop-color="#295296"/>
<stop offset="1" stop-color="#3E78D3"/>
</linearGradient>
<linearGradient id="paint3_linear_1394_8917" x1="13.8577" y1="13.2205" x2="-5.63784" y2="44.239" gradientUnits="userSpaceOnUse">
<stop stop-color="#70B1FF"/>
<stop offset="1" stop-color="#005CCD"/>
</linearGradient>
<linearGradient id="paint4_linear_1394_8917" x1="10.6528" y1="22.5197" x2="8.47508" y2="39.3901" gradientUnits="userSpaceOnUse">
<stop stop-color="#5C92E8"/>
<stop offset="1" stop-color="#4C83DB"/>
</linearGradient>
<linearGradient id="paint5_linear_1394_8917" x1="13.4913" y1="21.8227" x2="9.43441" y2="38.055" gradientUnits="userSpaceOnUse">
<stop stop-color="#5C92E8"/>
<stop offset="1" stop-color="#4C83DB"/>
</linearGradient>
</defs>
</svg>
