<svg width="48" height="48" viewBox="0 0 48 48" fill="none" xmlns="http://www.w3.org/2000/svg">
<path opacity="0.5" d="M19.3498 9.65246C18.6155 8.89905 17.8175 8.32196 16.9715 7.92121C16.1256 7.52046 15.0562 7.3281 13.8272 7.3281C12.8376 7.3281 11.8959 7.50443 11.018 7.85709C10.1402 8.20975 9.37405 8.70669 8.71964 9.34789C8.04927 9.98909 7.52255 10.7746 7.13949 11.6883C6.75642 12.602 6.56489 13.6119 6.56489 14.734C6.56489 15.8561 6.75642 16.866 7.13949 17.7797C7.52255 18.6934 8.04927 19.4628 8.71964 20.104C9.39001 20.7452 10.1721 21.2582 11.05 21.6108C11.9278 21.9635 12.8855 22.1398 13.891 22.1398C14.9604 22.1398 15.9022 21.9956 16.7002 21.691C17.4983 21.3864 18.1846 20.9696 18.7592 20.4567C19.1423 20.104 19.4934 19.6712 19.7967 19.1583C20.0999 18.6293 20.3393 18.0522 20.5149 17.411H13.7634V13.5638H24.7765C24.8404 13.8203 24.8883 14.1248 24.9362 14.5096C24.984 14.8943 25 15.2469 25 15.6156C25 17.1385 24.7765 18.5171 24.3296 19.7834C23.8827 21.0498 23.1964 22.1559 22.3026 23.1337C21.297 24.2077 20.0999 25.0252 18.6954 25.6183C17.2908 26.2115 15.6787 26.5 13.8751 26.5C12.2471 26.5 10.7148 26.2115 9.27828 25.6183C7.84178 25.0252 6.58085 24.2077 5.49549 23.1658C4.42609 22.1238 3.58015 20.8895 2.94171 19.4628C2.30326 18.0362 2 16.4492 2 14.75C2 13.0508 2.31922 11.4799 2.94171 10.0372C3.56419 8.59447 4.41013 7.36016 5.49549 6.31821C6.56489 5.27626 7.82582 4.47476 9.27828 3.88165C10.7307 3.28854 12.263 3 13.8751 3C15.7266 3 17.3706 3.3206 18.7911 3.9618C20.2117 4.603 21.4407 5.48465 22.4781 6.60675L19.3498 9.65246Z" fill="url(#paint0_linear_1394_8982)"/>
<path opacity="0.47" fill-rule="evenodd" clip-rule="evenodd" d="M24 19.5C27.9693 19.5 31.5231 21.2789 33.9076 24.083C34.3474 24.0282 34.7954 24 35.25 24C41.1871 24 46 28.8129 46 34.75C46 40.4349 41.5872 45.0892 36 45.4742L9 45.5C5.13401 45.5 2 42.366 2 38.5C2 34.634 5.13401 31.5 9 31.5H11.0379C11.5485 24.7876 17.1568 19.5 24 19.5Z" fill="url(#paint1_linear_1394_8982)" fill-opacity="0.7"/>
<path d="M16.887 21.6169C17.4327 21.3916 17.9238 21.112 18.3603 20.7837C20.0662 19.9611 21.9793 19.5 24 19.5C24.1416 19.5 24.2827 19.5023 24.4232 19.5068C24.3932 19.5996 24.362 19.6918 24.3297 19.7834C23.8828 21.0498 23.1964 22.1559 22.3026 23.1337C21.2971 24.2077 20.1 25.0252 18.6954 25.6183C17.2908 26.2115 15.6787 26.5 13.8751 26.5C13.4095 26.5 12.9518 26.4764 12.5018 26.4288C13.5343 24.4775 15.0489 22.8206 16.887 21.6169V21.6169Z" fill="url(#paint2_linear_1394_8982)"/>
<path d="M11.2658 35.1992H12.0233L10.5161 40.8495H9.77429L8.55902 37.1247H8.52745L7.31218 40.8495H6.57039L5 35.1992H5.75757L6.94917 39.6421H6.98074L8.2039 35.9568H8.88256L10.1057 39.6421H10.1373L11.2658 35.1992Z" fill="url(#paint3_linear_1394_8982)"/>
<path d="M11.9547 38.9161C11.9547 38.3217 12.1415 37.8298 12.515 37.4404C12.8938 37.0511 13.3699 36.8564 13.9433 36.8564C14.5168 36.8564 14.9903 37.0511 15.3638 37.4404C15.7426 37.8298 15.932 38.3217 15.932 38.9161C15.932 39.5158 15.7426 40.0077 15.3638 40.3918C14.9902 40.7812 14.5167 40.9759 13.9433 40.9758C13.37 40.9756 12.8939 40.7808 12.515 40.3913C12.1414 40.0021 11.9546 39.5102 11.9547 38.9156V38.9161ZM12.6807 38.9156C12.6807 39.3313 12.8017 39.668 13.0437 39.9257C13.2857 40.1834 13.5856 40.3122 13.9433 40.3122C14.3011 40.3122 14.601 40.1834 14.843 39.9257C15.085 39.668 15.206 39.3313 15.206 38.9156C15.206 38.5053 15.085 38.1712 14.843 37.9134C14.596 37.6505 14.2961 37.5189 13.9433 37.5188C13.5905 37.5187 13.2906 37.6504 13.0434 37.9139C12.8013 38.1716 12.6803 38.5056 12.6804 38.9161" fill="url(#paint4_linear_1394_8982)"/>
<path d="M17.1731 40.8493H16.4471V36.9825H17.1416V37.6139H17.1738C17.2474 37.4087 17.3987 37.2337 17.6276 37.089C17.8565 36.9443 18.0814 36.872 18.3023 36.8721C18.5126 36.8721 18.6915 36.9036 18.8389 36.9668L18.6173 37.6694C18.5277 37.6327 18.3857 37.6143 18.1911 37.6142C17.9176 37.6142 17.6795 37.7247 17.4771 37.9456C17.2746 38.1666 17.1733 38.4243 17.1731 38.7187V40.8493Z" fill="url(#paint5_linear_1394_8982)"/>
<path d="M22.5756 40.8495H21.6997L20.4923 39.0265L19.9004 39.6105V40.8495H19.1744V35.1992H19.9004V38.6793L21.5734 36.9827H22.5046V37.0142L20.9973 38.5136L22.5756 40.8179V40.8495Z" fill="url(#paint6_linear_1394_8982)"/>
<path d="M25.717 39.7758C25.717 40.1126 25.5697 40.3967 25.2751 40.628C24.9805 40.8594 24.6096 40.9752 24.1624 40.9753C23.7731 40.9753 23.4312 40.874 23.1366 40.6714C22.848 40.4765 22.6273 40.1966 22.5052 39.8705L23.1523 39.5943C23.247 39.8259 23.3852 40.006 23.5667 40.1347C23.7397 40.2609 23.9485 40.3286 24.1626 40.328C24.3942 40.328 24.5874 40.278 24.7424 40.1781C24.8973 40.0781 24.9749 39.9597 24.9751 39.823C24.9751 39.576 24.7857 39.3945 24.4069 39.2784L23.744 39.1127C22.9919 38.9233 22.6158 38.5602 22.6157 38.0234C22.6157 37.671 22.7591 37.3882 23.0459 37.175C23.3327 36.9618 23.6996 36.8553 24.1467 36.8555C24.4887 36.8555 24.7978 36.937 25.074 37.1001C25.3501 37.2632 25.5434 37.4815 25.6538 37.7551L25.0068 38.0234C24.9326 37.8597 24.8064 37.7251 24.6478 37.6406C24.4774 37.5474 24.2857 37.4999 24.0914 37.5026C23.9116 37.4999 23.7349 37.5492 23.5825 37.6446C23.4322 37.7393 23.357 37.855 23.357 37.9918C23.357 38.2128 23.5648 38.3706 23.9805 38.4653L24.5644 38.6152C25.3325 38.8046 25.7166 39.1912 25.7166 39.7748" fill="url(#paint7_linear_1394_8982)"/>
<path d="M28.2382 40.9758C27.9541 40.9758 27.695 40.9153 27.461 40.7943C27.2269 40.6732 27.0467 40.5128 26.9203 40.3129H26.8881L26.9203 40.8495V42.554H26.1943V36.9827H26.8888V37.5193H26.921C27.0472 37.3195 27.2275 37.1591 27.4616 37.0379C27.6958 36.9168 27.9549 36.8563 28.2388 36.8564C28.7491 36.8564 29.1804 37.0564 29.533 37.4562C29.896 37.8614 30.0775 38.348 30.0775 38.9161C30.0775 39.4896 29.896 39.9763 29.533 40.376C29.1806 40.7758 28.7492 40.9758 28.2388 40.9758H28.2382ZM28.1205 40.3129C28.4677 40.3129 28.7597 40.1814 28.9964 39.9183C29.2326 39.6606 29.3507 39.3266 29.3507 38.9161C29.3507 38.5111 29.2326 38.177 28.9964 37.9139C28.7602 37.6507 28.4682 37.5192 28.1205 37.5193C27.768 37.5193 27.4734 37.6508 27.2366 37.9139C27.0051 38.177 26.8893 38.5111 26.8894 38.9161C26.8894 39.3265 27.0052 39.6632 27.2366 39.9262C27.4728 40.1839 27.7675 40.3127 28.1205 40.3127" fill="url(#paint8_linear_1394_8982)"/>
<path d="M32.0655 36.8556C32.6023 36.8556 33.0258 36.999 33.336 37.2856C33.6462 37.5723 33.8014 37.9656 33.8016 38.4655V40.849H33.1072V40.3121H33.075C32.7751 40.754 32.3753 40.9749 31.8755 40.9749C31.4493 40.9749 31.0929 40.8487 30.8061 40.5961C30.5193 40.3436 30.376 40.028 30.3761 39.6492C30.3761 39.2495 30.5273 38.9312 30.8298 38.6943C31.1322 38.4575 31.536 38.3391 32.0412 38.3392C32.4725 38.3392 32.8276 38.4181 33.1065 38.576V38.4096C33.1065 38.1571 33.0066 37.9427 32.8066 37.7664C32.6142 37.593 32.3633 37.4986 32.1043 37.5021C31.6991 37.5021 31.3782 37.6731 31.1416 38.015L30.5024 37.6124C30.8547 37.1078 31.3755 36.8555 32.0645 36.8555L32.0655 36.8556ZM31.1264 39.6658C31.1264 39.8552 31.2066 40.013 31.367 40.1393C31.5274 40.2655 31.7153 40.3286 31.9307 40.3286C32.2357 40.3286 32.508 40.2155 32.7474 39.9893C32.9868 39.7631 33.1065 39.4974 33.1065 39.1923C32.8802 39.0135 32.5645 38.9241 32.1596 38.924C31.8648 38.924 31.6189 38.995 31.4216 39.137C31.2244 39.2791 31.126 39.4553 31.1264 39.6658Z" fill="url(#paint9_linear_1394_8982)"/>
<path d="M36.2629 40.9758C35.6894 40.9758 35.2133 40.7811 34.8346 40.3918C34.4609 39.9921 34.2742 39.5002 34.2743 38.9161C34.2743 38.3217 34.4611 37.8298 34.8346 37.4404C35.2134 37.0511 35.6895 36.8564 36.2629 36.8564C36.6575 36.8564 37.0021 36.9551 37.2967 37.1523C37.5913 37.3495 37.8123 37.6218 37.9596 37.9691L37.2973 38.2453C37.0922 37.7613 36.7318 37.5193 36.2162 37.5193C35.8848 37.5193 35.5981 37.6535 35.3561 37.9219C35.1193 38.1904 35.0009 38.5218 35.0009 38.9163C35.0009 39.3107 35.1193 39.6422 35.3561 39.9106C35.598 40.179 35.8847 40.3132 36.2162 40.3132C36.7476 40.3132 37.1211 40.0712 37.3368 39.5872L37.9839 39.8634C37.8418 40.2106 37.6195 40.4828 37.317 40.6801C37.0144 40.8773 36.6633 40.976 36.2636 40.9761" fill="url(#paint10_linear_1394_8982)"/>
<path d="M40.1698 40.9758C39.6017 40.9758 39.1334 40.7811 38.7652 40.3918C38.3969 40.0025 38.2128 39.5106 38.2128 38.9161C38.2128 38.327 38.3916 37.8364 38.7494 37.4443C39.1071 37.0522 39.5648 36.8562 40.1225 36.8564C40.6958 36.8564 41.1521 37.0419 41.4914 37.4127C41.8307 37.7836 42.0002 38.3031 42 38.9713L41.9921 39.0503H38.9546C38.9653 39.429 39.0916 39.7342 39.3333 39.9657C39.5751 40.1971 39.8645 40.3129 40.2014 40.3129C40.6643 40.3129 41.0273 40.0814 41.2904 39.6184L41.9375 39.9341C41.7724 40.2513 41.5224 40.5163 41.2154 40.6996C40.9075 40.8836 40.559 40.9756 40.1698 40.9758V40.9758ZM39.0103 38.4505H41.227C41.2055 38.1821 41.0963 37.9598 40.8994 37.7836C40.7025 37.6074 40.4381 37.5193 40.1064 37.5193C39.8327 37.5193 39.5973 37.6035 39.4 37.7718C39.2028 37.9402 39.0726 38.1664 39.0095 38.4505" fill="url(#paint11_linear_1394_8982)"/>
<defs>
<linearGradient id="paint0_linear_1394_8982" x1="-6.51666" y1="11.8744" x2="11.2838" y2="32.0522" gradientUnits="userSpaceOnUse">
<stop stop-color="#70B1FF"/>
<stop offset="1" stop-color="#005CCD"/>
</linearGradient>
<linearGradient id="paint1_linear_1394_8982" x1="5.99395" y1="13.4456" x2="-2.10019" y2="42.8574" gradientUnits="userSpaceOnUse">
<stop stop-color="#70B1FF"/>
<stop offset="1" stop-color="#005CCD"/>
</linearGradient>
<linearGradient id="paint2_linear_1394_8982" x1="16.9266" y1="14.1963" x2="11.4184" y2="25.9942" gradientUnits="userSpaceOnUse">
<stop stop-color="#295296"/>
<stop offset="1" stop-color="#3E78D3"/>
</linearGradient>
<linearGradient id="paint3_linear_1394_8982" x1="7.60681" y1="30.9182" x2="2.34176" y2="39.1491" gradientUnits="userSpaceOnUse">
<stop stop-color="#295296"/>
<stop offset="1" stop-color="#3E78D3"/>
</linearGradient>
<linearGradient id="paint4_linear_1394_8982" x1="13.4309" y1="33.7354" x2="9.28136" y2="38.7742" gradientUnits="userSpaceOnUse">
<stop stop-color="#295296"/>
<stop offset="1" stop-color="#3E78D3"/>
</linearGradient>
<linearGradient id="paint5_linear_1394_8982" x1="17.3349" y1="33.8586" x2="13.4068" y2="36.8294" gradientUnits="userSpaceOnUse">
<stop stop-color="#295296"/>
<stop offset="1" stop-color="#3E78D3"/>
</linearGradient>
<linearGradient id="paint6_linear_1394_8982" x1="20.4368" y1="30.9182" x2="14.855" y2="35.144" gradientUnits="userSpaceOnUse">
<stop stop-color="#295296"/>
<stop offset="1" stop-color="#3E78D3"/>
</linearGradient>
<linearGradient id="paint7_linear_1394_8982" x1="23.6974" y1="33.734" x2="19.4696" y2="37.8792" gradientUnits="userSpaceOnUse">
<stop stop-color="#295296"/>
<stop offset="1" stop-color="#3E78D3"/>
</linearGradient>
<linearGradient id="paint8_linear_1394_8982" x1="27.6356" y1="32.5395" x2="21.8564" y2="37.4933" gradientUnits="userSpaceOnUse">
<stop stop-color="#295296"/>
<stop offset="1" stop-color="#3E78D3"/>
</linearGradient>
<linearGradient id="paint9_linear_1394_8982" x1="31.6475" y1="33.7343" x2="27.4236" y2="38.1517" gradientUnits="userSpaceOnUse">
<stop stop-color="#295296"/>
<stop offset="1" stop-color="#3E78D3"/>
</linearGradient>
<linearGradient id="paint10_linear_1394_8982" x1="35.6512" y1="33.7351" x2="31.4553" y2="38.4869" gradientUnits="userSpaceOnUse">
<stop stop-color="#295296"/>
<stop offset="1" stop-color="#3E78D3"/>
</linearGradient>
<linearGradient id="paint11_linear_1394_8982" x1="39.6184" y1="33.7354" x2="35.4346" y2="38.5731" gradientUnits="userSpaceOnUse">
<stop stop-color="#295296"/>
<stop offset="1" stop-color="#3E78D3"/>
</linearGradient>
</defs>
</svg>
