<svg width="48" height="48" viewBox="0 0 48 48" fill="none" xmlns="http://www.w3.org/2000/svg">
<path opacity="0.34" fill-rule="evenodd" clip-rule="evenodd" d="M16.2509 32.8072C14.2432 30.8143 13 28.0523 13 25C13 18.9249 17.9249 14 24 14C30.0751 14 35 18.9249 35 25C35 28.0523 33.7568 30.8143 31.7491 32.8072C27.2867 29.025 20.7133 29.025 16.2509 32.8072V32.8072Z" fill="url(#paint0_linear_1394_8996)"/>
<path opacity="0.34" d="M38.8492 40.4561L34.6066 36.1956C40.4645 30.3131 40.4645 20.7757 34.6066 14.8932C28.7487 9.01066 19.2513 9.01066 13.3934 14.8932C7.53553 20.7757 7.53553 30.3131 13.3934 36.1956L9.15076 40.4561C0.949748 32.2206 0.949748 18.8682 9.15076 10.6327C17.3518 2.39718 30.6482 2.39718 38.8492 10.6327C47.0503 18.8682 47.0503 32.2206 38.8492 40.4561Z" fill="url(#paint1_linear_1394_8996)"/>
<path opacity="0.34" d="M34.3545 14.6457C28.4793 9.01185 19.1679 9.09433 13.3934 14.8932C7.53553 20.7757 7.53553 30.3131 13.3934 36.1956L9.15076 40.4561C0.949748 32.2206 0.949748 18.8682 9.15076 10.6327C17.2715 2.47779 30.3884 2.39797 38.607 10.3932L34.3545 14.6457Z" fill="url(#paint2_linear_1394_8996)"/>
<rect opacity="0.34" x="15" y="39" width="18" height="5" fill="url(#paint3_linear_1394_8996)"/>
<path fill-rule="evenodd" clip-rule="evenodd" d="M22.0247 22.7422L22.0201 22.7376L22.0945 22.6829C22.1814 22.6113 22.2713 22.5454 22.3638 22.485L35.3758 12.9252C35.5942 12.7648 35.9047 12.8143 36.0694 13.0358C36.2004 13.212 36.2027 13.4508 36.0751 13.6245L26.5153 26.6365C26.455 26.729 26.389 26.819 26.3174 26.9058L26.2627 26.9802L26.2581 26.9756C26.2144 27.0254 26.1688 27.0741 26.1213 27.1216C24.9497 28.2932 23.0503 28.2932 21.8787 27.1216C20.7071 25.9501 20.7071 24.0506 21.8787 22.879C21.9262 22.8315 21.9749 22.7859 22.0247 22.7422V22.7422Z" fill="url(#paint4_linear_1394_8996)"/>
<defs>
<linearGradient id="paint0_linear_1394_8996" x1="9.50613" y1="24.7858" x2="23.3824" y2="39.0973" gradientUnits="userSpaceOnUse">
<stop stop-color="#70B1FF"/>
<stop offset="1" stop-color="#005CCD"/>
</linearGradient>
<linearGradient id="paint1_linear_1394_8996" x1="70.585" y1="32.558" x2="41.8271" y2="-14.3255" gradientUnits="userSpaceOnUse">
<stop stop-color="#70B1FF"/>
<stop offset="1" stop-color="#005CCD"/>
</linearGradient>
<linearGradient id="paint2_linear_1394_8996" x1="60.2976" y1="32.558" x2="29.6546" y2="-9.79453" gradientUnits="userSpaceOnUse">
<stop stop-color="#70B1FF"/>
<stop offset="1" stop-color="#005CCD"/>
</linearGradient>
<linearGradient id="paint3_linear_1394_8996" x1="43.965" y1="42.903" x2="42.2513" y2="34.2821" gradientUnits="userSpaceOnUse">
<stop stop-color="#70B1FF"/>
<stop offset="1" stop-color="#005CCD"/>
</linearGradient>
<linearGradient id="paint4_linear_1394_8996" x1="37.8217" y1="32.2138" x2="37.8217" y2="13.7396" gradientUnits="userSpaceOnUse">
<stop stop-color="#295296"/>
<stop offset="1" stop-color="#3E78D3"/>
</linearGradient>
</defs>
</svg>
