<svg width="48" height="48" viewBox="0 0 48 48" fill="none" xmlns="http://www.w3.org/2000/svg">
<path opacity="0.4" fill-rule="evenodd" clip-rule="evenodd" d="M9 14C13.9706 14 18 11.3137 18 8C18 4.68629 13.9706 2 9 2C4.02944 2 0 4.68629 0 8C0 11.3137 4.02944 14 9 14Z" fill="url(#paint0_linear_1394_9030)"/>
<path opacity="0.4" fill-rule="evenodd" clip-rule="evenodd" d="M3.14277 12.5556C1.21885 11.4552 0 9.8225 0 8H9L3.14277 12.5556V12.5556Z" fill="url(#paint1_linear_1394_9030)"/>
<path opacity="0.4" fill-rule="evenodd" clip-rule="evenodd" d="M14.8572 3.44434C16.7811 4.54474 18 6.17746 18 7.99996H9L14.8572 3.44434V3.44434Z" fill="url(#paint2_linear_1394_9030)"/>
<path opacity="0.4" fill-rule="evenodd" clip-rule="evenodd" d="M39 45C43.9706 45 48 42.3137 48 39C48 35.6863 43.9706 33 39 33C34.0294 33 30 35.6863 30 39C30 42.3137 34.0294 45 39 45Z" fill="url(#paint3_linear_1394_9030)"/>
<path opacity="0.45" fill-rule="evenodd" clip-rule="evenodd" d="M33.1428 43.5556C31.2189 42.4552 30 40.8225 30 39H39L33.1428 43.5556V43.5556Z" fill="url(#paint4_linear_1394_9030)"/>
<path opacity="0.45" fill-rule="evenodd" clip-rule="evenodd" d="M44.8572 34.4443C46.7811 35.5447 48 37.1775 48 39H39L44.8572 34.4443V34.4443Z" fill="url(#paint5_linear_1394_9030)"/>
<path opacity="0.4" fill-rule="evenodd" clip-rule="evenodd" d="M39 14C34.0294 14 30 11.3137 30 8C30 4.68629 34.0294 2 39 2C43.9706 2 48 4.68629 48 8C48 11.3137 43.9706 14 39 14Z" fill="url(#paint6_linear_1394_9030)"/>
<path opacity="0.4" fill-rule="evenodd" clip-rule="evenodd" d="M44.8572 12.5556L39 8H48C48 9.8225 46.7811 11.4552 44.8572 12.5556V12.5556Z" fill="url(#paint7_linear_1394_9030)"/>
<path opacity="0.4" fill-rule="evenodd" clip-rule="evenodd" d="M39 7.99996H30C30 6.17746 31.2189 4.54474 33.1428 3.44434L39 7.99996Z" fill="url(#paint8_linear_1394_9030)"/>
<path opacity="0.4" fill-rule="evenodd" clip-rule="evenodd" d="M9 45C4.02944 45 0 42.3137 0 39C0 35.6863 4.02944 33 9 33C13.9706 33 18 35.6863 18 39C18 42.3137 13.9706 45 9 45Z" fill="url(#paint9_linear_1394_9030)"/>
<path opacity="0.45" fill-rule="evenodd" clip-rule="evenodd" d="M14.8572 43.5556L9 39H18C18 40.8225 16.7811 42.4552 14.8572 43.5556V43.5556Z" fill="url(#paint10_linear_1394_9030)"/>
<path opacity="0.45" fill-rule="evenodd" clip-rule="evenodd" d="M3.14277 34.4443L9 39H0C0 37.1775 1.21885 35.5447 3.14277 34.4443V34.4443Z" fill="url(#paint11_linear_1394_9030)"/>
<path opacity="0.52" fill-rule="evenodd" clip-rule="evenodd" d="M16.6379 14.3649C20.9026 17.9188 27.0974 17.9188 31.3621 14.3649L39 8V14L34.6062 17.6615C30.96 20.7 30.96 26.3 34.6062 29.3385L39 33V39L31.3621 32.6351C27.0974 29.0812 20.9026 29.0812 16.6379 32.6351L9 39V33L13.3938 29.3385C17.04 26.3 17.04 20.7 13.3938 17.6615L9 14V8L16.6379 14.3649Z" fill="url(#paint12_linear_1394_9030)"/>
<path fill-rule="evenodd" clip-rule="evenodd" d="M24 27C20.6863 27 18 25.2091 18 23C18 20.7909 20.6863 19 24 19C27.3137 19 30 20.7909 30 23C30 25.2091 27.3137 27 24 27Z" fill="url(#paint13_linear_1394_9030)"/>
<defs>
<linearGradient id="paint0_linear_1394_9030" x1="21.4325" y1="7.53114" x2="12.9353" y2="-4.11586" gradientUnits="userSpaceOnUse">
<stop stop-color="#70B1FF"/>
<stop offset="1" stop-color="#005CCD"/>
</linearGradient>
<linearGradient id="paint1_linear_1394_9030" x1="9" y1="5.72219" x2="0" y2="5.72219" gradientUnits="userSpaceOnUse">
<stop stop-color="#C6DDF9"/>
<stop offset="1" stop-color="#005CCD"/>
</linearGradient>
<linearGradient id="paint2_linear_1394_9030" x1="9" y1="10.2778" x2="18" y2="10.2778" gradientUnits="userSpaceOnUse">
<stop stop-color="#C6DDF9"/>
<stop offset="1" stop-color="#005CCD"/>
</linearGradient>
<linearGradient id="paint3_linear_1394_9030" x1="51.4325" y1="38.5311" x2="42.9353" y2="26.8841" gradientUnits="userSpaceOnUse">
<stop stop-color="#70B1FF"/>
<stop offset="1" stop-color="#005CCD"/>
</linearGradient>
<linearGradient id="paint4_linear_1394_9030" x1="39" y1="36.7222" x2="30" y2="36.7222" gradientUnits="userSpaceOnUse">
<stop stop-color="#C6DDF9"/>
<stop offset="1" stop-color="#005CCD"/>
</linearGradient>
<linearGradient id="paint5_linear_1394_9030" x1="39" y1="41.2778" x2="48" y2="41.2778" gradientUnits="userSpaceOnUse">
<stop stop-color="#C6DDF9"/>
<stop offset="1" stop-color="#005CCD"/>
</linearGradient>
<linearGradient id="paint6_linear_1394_9030" x1="26.5675" y1="7.53114" x2="35.0647" y2="-4.11586" gradientUnits="userSpaceOnUse">
<stop stop-color="#70B1FF"/>
<stop offset="1" stop-color="#005CCD"/>
</linearGradient>
<linearGradient id="paint7_linear_1394_9030" x1="39" y1="10.2778" x2="48" y2="10.2778" gradientUnits="userSpaceOnUse">
<stop stop-color="#C6DDF9"/>
<stop offset="1" stop-color="#005CCD"/>
</linearGradient>
<linearGradient id="paint8_linear_1394_9030" x1="39" y1="5.72215" x2="30" y2="5.72215" gradientUnits="userSpaceOnUse">
<stop stop-color="#C6DDF9"/>
<stop offset="1" stop-color="#005CCD"/>
</linearGradient>
<linearGradient id="paint9_linear_1394_9030" x1="-3.43246" y1="38.5311" x2="5.0647" y2="26.8841" gradientUnits="userSpaceOnUse">
<stop stop-color="#70B1FF"/>
<stop offset="1" stop-color="#005CCD"/>
</linearGradient>
<linearGradient id="paint10_linear_1394_9030" x1="9" y1="41.2778" x2="18" y2="41.2778" gradientUnits="userSpaceOnUse">
<stop stop-color="#C6DDF9"/>
<stop offset="1" stop-color="#005CCD"/>
</linearGradient>
<linearGradient id="paint11_linear_1394_9030" x1="9" y1="36.7221" x2="0" y2="36.7221" gradientUnits="userSpaceOnUse">
<stop stop-color="#C6DDF9"/>
<stop offset="1" stop-color="#005CCD"/>
</linearGradient>
<linearGradient id="paint12_linear_1394_9030" x1="20.83" y1="1.44864" x2="20.83" y2="39" gradientUnits="userSpaceOnUse">
<stop stop-color="#70B1FF"/>
<stop offset="1" stop-color="#005CCD"/>
</linearGradient>
<linearGradient id="paint13_linear_1394_9030" x1="13.1491" y1="33.4679" x2="13.1491" y2="19" gradientUnits="userSpaceOnUse">
<stop stop-color="#295296"/>
<stop offset="1" stop-color="#3E78D3"/>
</linearGradient>
</defs>
</svg>
