<svg width="48" height="48" viewBox="0 0 48 48" fill="none" xmlns="http://www.w3.org/2000/svg">
<g clip-path="url(#clip0_1394_9045)">
<path opacity="0.45" fill-rule="evenodd" clip-rule="evenodd" d="M48 32H0V24L2 21H6L10.3709 18.6688C16.9539 15.1579 24.9054 15.4033 31.2593 19.3134L34 21C39.7671 21.4987 42.7407 22.4387 46 24.0036L48 27V32Z" fill="url(#paint0_linear_1394_9045)"/>
<path fill-rule="evenodd" clip-rule="evenodd" d="M6 21L10.3709 18.6688C16.9539 15.1579 24.9054 15.4033 31.2593 19.3134L34 21H6V21Z" fill="url(#paint1_linear_1394_9045)"/>
<path fill-rule="evenodd" clip-rule="evenodd" d="M45.9925 24L46 24.0036L48 27H44.1623C42.871 27 41.7246 26.1737 41.3162 24.9487L41 24H45.9925V24Z" fill="url(#paint2_linear_1394_9045)"/>
<path opacity="0.5" fill-rule="evenodd" clip-rule="evenodd" d="M8 36C10.2091 36 12 34.2091 12 32C12 29.7909 10.2091 28 8 28C5.79086 28 4 29.7909 4 32C4 34.2091 5.79086 36 8 36Z" fill="url(#paint3_linear_1394_9045)"/>
<path opacity="0.5" fill-rule="evenodd" clip-rule="evenodd" d="M38 36C40.2091 36 42 34.2091 42 32C42 29.7909 40.2091 28 38 28C35.7909 28 34 29.7909 34 32C34 34.2091 35.7909 36 38 36Z" fill="url(#paint4_linear_1394_9045)"/>
<path fill-rule="evenodd" clip-rule="evenodd" d="M12 32H4C4 29.7909 5.79086 28 8 28C10.2091 28 12 29.7909 12 32V32Z" fill="url(#paint5_linear_1394_9045)"/>
<path fill-rule="evenodd" clip-rule="evenodd" d="M42 32H34C34 29.7909 35.7909 28 38 28C40.2091 28 42 29.7909 42 32V32Z" fill="url(#paint6_linear_1394_9045)"/>
<path fill-rule="evenodd" clip-rule="evenodd" d="M0 24H5L3 27H0V24Z" fill="url(#paint7_linear_1394_9045)"/>
<path opacity="0.23" fill-rule="evenodd" clip-rule="evenodd" d="M9.00745 5.25788C13.1151 1.96776 18.3277 0 23.9999 0C29.6722 0 34.8848 1.96776 38.9924 5.25788L23.9999 21L9.00745 5.25788H9.00745Z" fill="url(#paint8_linear_1394_9045)"/>
<path fill-rule="evenodd" clip-rule="evenodd" d="M19.4418 16.2139C22.1288 16.1102 24.8276 16.5224 27.3849 17.4458L24 21L19.4418 16.2139H19.4418Z" fill="url(#paint9_linear_1394_9045)"/>
<path opacity="0.35" fill-rule="evenodd" clip-rule="evenodd" d="M16.6461 13.2784L13.8605 10.3535C16.6913 8.24676 20.2 7 24 7C27.7999 7 31.3087 8.24676 34.1395 10.3535L31.3539 13.2784C29.2624 11.8412 26.7294 11 24 11C21.2705 11 18.7375 11.8412 16.6461 13.2784V13.2784Z" fill="url(#paint10_linear_1394_9045)"/>
<path opacity="0.35" fill-rule="evenodd" clip-rule="evenodd" d="M11.7784 8.16737L9.00745 5.25788C13.1151 1.96776 18.3277 0 23.9999 0C29.6722 0 34.8848 1.96776 38.9924 5.25788L36.2215 8.16737C32.8417 5.55461 28.6024 4 23.9999 4C19.3975 4 15.1582 5.55461 11.7784 8.16737V8.16737Z" fill="url(#paint11_linear_1394_9045)"/>
<path opacity="0.25" fill-rule="evenodd" clip-rule="evenodd" d="M9 42.7421C13.1076 46.0322 18.3203 48 23.9925 48C29.6647 48 34.8774 46.0322 38.985 42.7421L23.9925 27L9 42.7421H9Z" fill="url(#paint12_linear_1394_9045)"/>
<path fill-rule="evenodd" clip-rule="evenodd" d="M28.7544 32H19.2306L23.9925 27L28.7544 32Z" fill="url(#paint13_linear_1394_9045)"/>
<path opacity="0.35" fill-rule="evenodd" clip-rule="evenodd" d="M16.6461 34.7216L13.8605 37.6465C16.6913 39.7532 20.2 41 24 41C27.7999 41 31.3087 39.7532 34.1395 37.6465L31.3539 34.7216C29.2624 36.1588 26.7294 37 24 37C21.2705 37 18.7375 36.1588 16.6461 34.7216V34.7216Z" fill="url(#paint14_linear_1394_9045)"/>
<path opacity="0.35" fill-rule="evenodd" clip-rule="evenodd" d="M11.7784 39.8326L9.00745 42.7421C13.1151 46.0322 18.3277 48 23.9999 48C29.6722 48 34.8848 46.0322 38.9924 42.7421L36.2215 39.8326C32.8417 42.4454 28.6024 44 23.9999 44C19.3975 44 15.1582 42.4454 11.7784 39.8326V39.8326Z" fill="url(#paint15_linear_1394_9045)"/>
</g>
<defs>
<linearGradient id="paint0_linear_1394_9045" x1="69.3911" y1="24.8012" x2="60.2924" y2="-0.84685" gradientUnits="userSpaceOnUse">
<stop stop-color="#70B1FF"/>
<stop offset="1" stop-color="#005CCD"/>
</linearGradient>
<linearGradient id="paint1_linear_1394_9045" x1="34" y1="18.6592" x2="6.70104" y2="18.6592" gradientUnits="userSpaceOnUse">
<stop stop-color="#8DB9F6"/>
<stop offset="1" stop-color="#6F9CDE"/>
</linearGradient>
<linearGradient id="paint2_linear_1394_9045" x1="49.8755" y1="25.2152" x2="47.9914" y2="20.9276" gradientUnits="userSpaceOnUse">
<stop stop-color="#91BFFE"/>
<stop offset="1" stop-color="#6EA1E8"/>
</linearGradient>
<linearGradient id="paint3_linear_1394_9045" x1="7.60091" y1="26.2735" x2="2.18701" y2="32.1982" gradientUnits="userSpaceOnUse">
<stop stop-color="#70B1FF"/>
<stop offset="1" stop-color="#005CCD"/>
</linearGradient>
<linearGradient id="paint4_linear_1394_9045" x1="37.6009" y1="26.2735" x2="32.187" y2="32.1982" gradientUnits="userSpaceOnUse">
<stop stop-color="#70B1FF"/>
<stop offset="1" stop-color="#005CCD"/>
</linearGradient>
<linearGradient id="paint5_linear_1394_9045" x1="8.39132" y1="27.5873" x2="5.01424" y2="32.6734" gradientUnits="userSpaceOnUse">
<stop stop-color="#70A2EE"/>
<stop offset="1" stop-color="#5085D8"/>
</linearGradient>
<linearGradient id="paint6_linear_1394_9045" x1="38.3913" y1="27.5873" x2="35.0142" y2="32.6734" gradientUnits="userSpaceOnUse">
<stop stop-color="#70A2EE"/>
<stop offset="1" stop-color="#5085D8"/>
</linearGradient>
<linearGradient id="paint7_linear_1394_9045" x1="5.89355" y1="25.9819" x2="4.36294" y2="22.2233" gradientUnits="userSpaceOnUse">
<stop stop-color="#6C9DE5"/>
<stop offset="1" stop-color="#5B8ED9"/>
</linearGradient>
<linearGradient id="paint8_linear_1394_9045" x1="9.00745" y1="24.9255" x2="38.9924" y2="24.9255" gradientUnits="userSpaceOnUse">
<stop stop-color="#70B1FF"/>
<stop offset="1" stop-color="#005CCD"/>
</linearGradient>
<linearGradient id="paint9_linear_1394_9045" x1="24.6992" y1="11.7083" x2="21.5327" y2="20.3075" gradientUnits="userSpaceOnUse">
<stop stop-color="#295296"/>
<stop offset="1" stop-color="#3E78D3"/>
</linearGradient>
<linearGradient id="paint10_linear_1394_9045" x1="13.8605" y1="11.7643" x2="34.1395" y2="11.7643" gradientUnits="userSpaceOnUse">
<stop stop-color="#70B1FF"/>
<stop offset="1" stop-color="#005CCD"/>
</linearGradient>
<linearGradient id="paint11_linear_1394_9045" x1="9.00745" y1="6.19766" x2="38.9924" y2="6.19766" gradientUnits="userSpaceOnUse">
<stop stop-color="#70B1FF"/>
<stop offset="1" stop-color="#005CCD"/>
</linearGradient>
<linearGradient id="paint12_linear_1394_9045" x1="38.985" y1="43.7214" x2="9" y2="43.7214" gradientUnits="userSpaceOnUse">
<stop stop-color="#70B1FF"/>
<stop offset="1" stop-color="#005CCD"/>
</linearGradient>
<linearGradient id="paint13_linear_1394_9045" x1="19.505" y1="35.8785" x2="25.458" y2="28.5287" gradientUnits="userSpaceOnUse">
<stop stop-color="#295296"/>
<stop offset="1" stop-color="#3E78D3"/>
</linearGradient>
<linearGradient id="paint14_linear_1394_9045" x1="34.1395" y1="42.4862" x2="13.8605" y2="42.4862" gradientUnits="userSpaceOnUse">
<stop stop-color="#70B1FF"/>
<stop offset="1" stop-color="#005CCD"/>
</linearGradient>
<linearGradient id="paint15_linear_1394_9045" x1="38.9924" y1="49.9334" x2="9.00745" y2="49.9334" gradientUnits="userSpaceOnUse">
<stop stop-color="#70B1FF"/>
<stop offset="1" stop-color="#005CCD"/>
</linearGradient>
<clipPath id="clip0_1394_9045">
<rect width="48" height="48" fill="white"/>
</clipPath>
</defs>
</svg>
