<svg width="48" height="48" viewBox="0 0 48 48" fill="none" xmlns="http://www.w3.org/2000/svg">
<g clip-path="url(#clip0_1394_9070)">
<path opacity="0.35" fill-rule="evenodd" clip-rule="evenodd" d="M38 5L43 10V38L38 43H10L5 38V10L10 5H38Z" fill="url(#paint0_linear_1394_9070)"/>
<rect opacity="0.3" x="18" width="4" height="12" fill="url(#paint1_linear_1394_9070)"/>
<rect opacity="0.3" x="10" width="4" height="12" fill="url(#paint2_linear_1394_9070)"/>
<rect opacity="0.3" x="26" width="4" height="12" fill="url(#paint3_linear_1394_9070)"/>
<rect opacity="0.3" x="34" width="4" height="12" fill="url(#paint4_linear_1394_9070)"/>
<rect x="18" y="5" width="4" height="7" fill="url(#paint5_linear_1394_9070)"/>
<rect x="10" y="5" width="4" height="7" fill="url(#paint6_linear_1394_9070)"/>
<rect x="26" y="5" width="4" height="7" fill="url(#paint7_linear_1394_9070)"/>
<rect x="34" y="5" width="4" height="7" fill="url(#paint8_linear_1394_9070)"/>
<path opacity="0.3" fill-rule="evenodd" clip-rule="evenodd" d="M18 36H22V48H18V36Z" fill="url(#paint9_linear_1394_9070)"/>
<path opacity="0.3" fill-rule="evenodd" clip-rule="evenodd" d="M10 36H14V48H10V36Z" fill="url(#paint10_linear_1394_9070)"/>
<path opacity="0.3" fill-rule="evenodd" clip-rule="evenodd" d="M26 36H30V48H26V36Z" fill="url(#paint11_linear_1394_9070)"/>
<path opacity="0.3" fill-rule="evenodd" clip-rule="evenodd" d="M34 36H38V48H34V36Z" fill="url(#paint12_linear_1394_9070)"/>
<path fill-rule="evenodd" clip-rule="evenodd" d="M18 36H22V43H18V36Z" fill="url(#paint13_linear_1394_9070)"/>
<path fill-rule="evenodd" clip-rule="evenodd" d="M10 36H14V43H10V36Z" fill="url(#paint14_linear_1394_9070)"/>
<path fill-rule="evenodd" clip-rule="evenodd" d="M26 36H30V43H26V36Z" fill="url(#paint15_linear_1394_9070)"/>
<path fill-rule="evenodd" clip-rule="evenodd" d="M34 36H38V43H34V36Z" fill="url(#paint16_linear_1394_9070)"/>
<path opacity="0.3" fill-rule="evenodd" clip-rule="evenodd" d="M48 18V22H36V18H48Z" fill="url(#paint17_linear_1394_9070)"/>
<path opacity="0.3" fill-rule="evenodd" clip-rule="evenodd" d="M48 10V14H36V10H48Z" fill="url(#paint18_linear_1394_9070)"/>
<path opacity="0.3" fill-rule="evenodd" clip-rule="evenodd" d="M48 26V30H36V26H48Z" fill="url(#paint19_linear_1394_9070)"/>
<path opacity="0.3" fill-rule="evenodd" clip-rule="evenodd" d="M48 34V38H36V34H48Z" fill="url(#paint20_linear_1394_9070)"/>
<path opacity="0.3" fill-rule="evenodd" clip-rule="evenodd" d="M43 18V22H36V18H43Z" fill="url(#paint21_linear_1394_9070)"/>
<path opacity="0.3" fill-rule="evenodd" clip-rule="evenodd" d="M43 10V14H36V10H43Z" fill="url(#paint22_linear_1394_9070)"/>
<path opacity="0.3" fill-rule="evenodd" clip-rule="evenodd" d="M43 26V30H36V26H43Z" fill="url(#paint23_linear_1394_9070)"/>
<path opacity="0.3" fill-rule="evenodd" clip-rule="evenodd" d="M43 34V38H36V34H43Z" fill="url(#paint24_linear_1394_9070)"/>
<path opacity="0.3" fill-rule="evenodd" clip-rule="evenodd" d="M12 18V22H0V18H12Z" fill="url(#paint25_linear_1394_9070)"/>
<path opacity="0.3" fill-rule="evenodd" clip-rule="evenodd" d="M12 10V14H0V10H12Z" fill="url(#paint26_linear_1394_9070)"/>
<path opacity="0.3" fill-rule="evenodd" clip-rule="evenodd" d="M12 26V30H0V26H12Z" fill="url(#paint27_linear_1394_9070)"/>
<path opacity="0.3" fill-rule="evenodd" clip-rule="evenodd" d="M12 34V38H0V34H12Z" fill="url(#paint28_linear_1394_9070)"/>
<path fill-rule="evenodd" clip-rule="evenodd" d="M12 18V22H5V18H12Z" fill="url(#paint29_linear_1394_9070)"/>
<path fill-rule="evenodd" clip-rule="evenodd" d="M12 10V14H5V10H12Z" fill="url(#paint30_linear_1394_9070)"/>
<path fill-rule="evenodd" clip-rule="evenodd" d="M12 26V30H5V26H12Z" fill="url(#paint31_linear_1394_9070)"/>
<path fill-rule="evenodd" clip-rule="evenodd" d="M12 34V38H5V34H12Z" fill="url(#paint32_linear_1394_9070)"/>
<rect x="10" y="10" width="4" height="4" fill="url(#paint33_linear_1394_9070)"/>
<rect x="34" y="10" width="4" height="4" fill="url(#paint34_linear_1394_9070)"/>
<rect x="17" y="17" width="14" height="14" rx="2" fill="url(#paint35_linear_1394_9070)"/>
<rect x="34" y="34" width="4" height="4" fill="url(#paint36_linear_1394_9070)"/>
<rect x="10" y="34" width="4" height="4" fill="url(#paint37_linear_1394_9070)"/>
</g>
<defs>
<linearGradient id="paint0_linear_1394_9070" x1="24" y1="-14" x2="-14" y2="24" gradientUnits="userSpaceOnUse">
<stop stop-color="#70B1FF"/>
<stop offset="1" stop-color="#005CCD"/>
</linearGradient>
<linearGradient id="paint1_linear_1394_9070" x1="20" y1="-6" x2="12.8" y2="-3.6" gradientUnits="userSpaceOnUse">
<stop stop-color="#70B1FF"/>
<stop offset="1" stop-color="#005CCD"/>
</linearGradient>
<linearGradient id="paint2_linear_1394_9070" x1="12" y1="-6" x2="4.8" y2="-3.6" gradientUnits="userSpaceOnUse">
<stop stop-color="#70B1FF"/>
<stop offset="1" stop-color="#005CCD"/>
</linearGradient>
<linearGradient id="paint3_linear_1394_9070" x1="28" y1="-6" x2="20.8" y2="-3.6" gradientUnits="userSpaceOnUse">
<stop stop-color="#70B1FF"/>
<stop offset="1" stop-color="#005CCD"/>
</linearGradient>
<linearGradient id="paint4_linear_1394_9070" x1="36" y1="-6" x2="28.8" y2="-3.6" gradientUnits="userSpaceOnUse">
<stop stop-color="#70B1FF"/>
<stop offset="1" stop-color="#005CCD"/>
</linearGradient>
<linearGradient id="paint5_linear_1394_9070" x1="20" y1="1.5" x2="13.9692" y2="4.94615" gradientUnits="userSpaceOnUse">
<stop stop-color="#8EBAF7"/>
<stop offset="1" stop-color="#80AEF0"/>
</linearGradient>
<linearGradient id="paint6_linear_1394_9070" x1="12" y1="1.5" x2="5.96923" y2="4.94615" gradientUnits="userSpaceOnUse">
<stop stop-color="#8EBAF7"/>
<stop offset="1" stop-color="#80AEF0"/>
</linearGradient>
<linearGradient id="paint7_linear_1394_9070" x1="28" y1="1.5" x2="21.9692" y2="4.94615" gradientUnits="userSpaceOnUse">
<stop stop-color="#8EBAF7"/>
<stop offset="1" stop-color="#80AEF0"/>
</linearGradient>
<linearGradient id="paint8_linear_1394_9070" x1="36" y1="1.5" x2="29.9692" y2="4.94615" gradientUnits="userSpaceOnUse">
<stop stop-color="#8EBAF7"/>
<stop offset="1" stop-color="#80AEF0"/>
</linearGradient>
<linearGradient id="paint9_linear_1394_9070" x1="20" y1="30" x2="12.8" y2="32.4" gradientUnits="userSpaceOnUse">
<stop stop-color="#70B1FF"/>
<stop offset="1" stop-color="#005CCD"/>
</linearGradient>
<linearGradient id="paint10_linear_1394_9070" x1="12" y1="30" x2="4.8" y2="32.4" gradientUnits="userSpaceOnUse">
<stop stop-color="#70B1FF"/>
<stop offset="1" stop-color="#005CCD"/>
</linearGradient>
<linearGradient id="paint11_linear_1394_9070" x1="28" y1="30" x2="20.8" y2="32.4" gradientUnits="userSpaceOnUse">
<stop stop-color="#70B1FF"/>
<stop offset="1" stop-color="#005CCD"/>
</linearGradient>
<linearGradient id="paint12_linear_1394_9070" x1="36" y1="30" x2="28.8" y2="32.4" gradientUnits="userSpaceOnUse">
<stop stop-color="#70B1FF"/>
<stop offset="1" stop-color="#005CCD"/>
</linearGradient>
<linearGradient id="paint13_linear_1394_9070" x1="20.3285" y1="33.6496" x2="14.7962" y2="36.2917" gradientUnits="userSpaceOnUse">
<stop stop-color="#7EACEE"/>
<stop offset="1" stop-color="#6C9AE1"/>
</linearGradient>
<linearGradient id="paint14_linear_1394_9070" x1="12.3285" y1="33.6496" x2="6.79621" y2="36.2917" gradientUnits="userSpaceOnUse">
<stop stop-color="#7EACEE"/>
<stop offset="1" stop-color="#6C9AE1"/>
</linearGradient>
<linearGradient id="paint15_linear_1394_9070" x1="28.3285" y1="33.6496" x2="22.7962" y2="36.2917" gradientUnits="userSpaceOnUse">
<stop stop-color="#7EACEE"/>
<stop offset="1" stop-color="#6C9AE1"/>
</linearGradient>
<linearGradient id="paint16_linear_1394_9070" x1="36.3285" y1="33.6496" x2="30.7962" y2="36.2917" gradientUnits="userSpaceOnUse">
<stop stop-color="#7EACEE"/>
<stop offset="1" stop-color="#6C9AE1"/>
</linearGradient>
<linearGradient id="paint17_linear_1394_9070" x1="42" y1="16" x2="39.6" y2="23.2" gradientUnits="userSpaceOnUse">
<stop stop-color="#70B1FF"/>
<stop offset="1" stop-color="#005CCD"/>
</linearGradient>
<linearGradient id="paint18_linear_1394_9070" x1="42" y1="8" x2="39.6" y2="15.2" gradientUnits="userSpaceOnUse">
<stop stop-color="#70B1FF"/>
<stop offset="1" stop-color="#005CCD"/>
</linearGradient>
<linearGradient id="paint19_linear_1394_9070" x1="42" y1="24" x2="39.6" y2="31.2" gradientUnits="userSpaceOnUse">
<stop stop-color="#70B1FF"/>
<stop offset="1" stop-color="#005CCD"/>
</linearGradient>
<linearGradient id="paint20_linear_1394_9070" x1="42" y1="32" x2="39.6" y2="39.2" gradientUnits="userSpaceOnUse">
<stop stop-color="#70B1FF"/>
<stop offset="1" stop-color="#005CCD"/>
</linearGradient>
<linearGradient id="paint21_linear_1394_9070" x1="39.5" y1="16" x2="36.0538" y2="22.0308" gradientUnits="userSpaceOnUse">
<stop stop-color="#70B1FF"/>
<stop offset="1" stop-color="#005CCD"/>
</linearGradient>
<linearGradient id="paint22_linear_1394_9070" x1="39.5" y1="8" x2="36.0538" y2="14.0308" gradientUnits="userSpaceOnUse">
<stop stop-color="#70B1FF"/>
<stop offset="1" stop-color="#005CCD"/>
</linearGradient>
<linearGradient id="paint23_linear_1394_9070" x1="39.5" y1="24" x2="36.0538" y2="30.0308" gradientUnits="userSpaceOnUse">
<stop stop-color="#70B1FF"/>
<stop offset="1" stop-color="#005CCD"/>
</linearGradient>
<linearGradient id="paint24_linear_1394_9070" x1="39.5" y1="32" x2="36.0538" y2="38.0308" gradientUnits="userSpaceOnUse">
<stop stop-color="#70B1FF"/>
<stop offset="1" stop-color="#005CCD"/>
</linearGradient>
<linearGradient id="paint25_linear_1394_9070" x1="6" y1="16" x2="3.6" y2="23.2" gradientUnits="userSpaceOnUse">
<stop stop-color="#70B1FF"/>
<stop offset="1" stop-color="#005CCD"/>
</linearGradient>
<linearGradient id="paint26_linear_1394_9070" x1="6" y1="8" x2="3.6" y2="15.2" gradientUnits="userSpaceOnUse">
<stop stop-color="#70B1FF"/>
<stop offset="1" stop-color="#005CCD"/>
</linearGradient>
<linearGradient id="paint27_linear_1394_9070" x1="6" y1="24" x2="3.6" y2="31.2" gradientUnits="userSpaceOnUse">
<stop stop-color="#70B1FF"/>
<stop offset="1" stop-color="#005CCD"/>
</linearGradient>
<linearGradient id="paint28_linear_1394_9070" x1="6" y1="32" x2="3.6" y2="39.2" gradientUnits="userSpaceOnUse">
<stop stop-color="#70B1FF"/>
<stop offset="1" stop-color="#005CCD"/>
</linearGradient>
<linearGradient id="paint29_linear_1394_9070" x1="9.07479" y1="16.6569" x2="5.28733" y2="22.1965" gradientUnits="userSpaceOnUse">
<stop stop-color="#7CAAEC"/>
<stop offset="1" stop-color="#6C9AE1"/>
</linearGradient>
<linearGradient id="paint30_linear_1394_9070" x1="9.07479" y1="8.6569" x2="5.28733" y2="14.1965" gradientUnits="userSpaceOnUse">
<stop stop-color="#7CAAEC"/>
<stop offset="1" stop-color="#6C9AE1"/>
</linearGradient>
<linearGradient id="paint31_linear_1394_9070" x1="9.07479" y1="24.6569" x2="5.28733" y2="30.1965" gradientUnits="userSpaceOnUse">
<stop stop-color="#7CAAEC"/>
<stop offset="1" stop-color="#6C9AE1"/>
</linearGradient>
<linearGradient id="paint32_linear_1394_9070" x1="9.07479" y1="32.6569" x2="5.28733" y2="38.1965" gradientUnits="userSpaceOnUse">
<stop stop-color="#7CAAEC"/>
<stop offset="1" stop-color="#6C9AE1"/>
</linearGradient>
<linearGradient id="paint33_linear_1394_9070" x1="17.6791" y1="12.5598" x2="12.5597" y2="7.44033" gradientUnits="userSpaceOnUse">
<stop stop-color="#295296"/>
<stop offset="1" stop-color="#3E78D3"/>
</linearGradient>
<linearGradient id="paint34_linear_1394_9070" x1="41.6791" y1="12.5598" x2="36.5597" y2="7.44033" gradientUnits="userSpaceOnUse">
<stop stop-color="#295296"/>
<stop offset="1" stop-color="#3E78D3"/>
</linearGradient>
<linearGradient id="paint35_linear_1394_9070" x1="24" y1="38" x2="38" y2="24" gradientUnits="userSpaceOnUse">
<stop stop-color="#75A7F1"/>
<stop offset="1" stop-color="#6C9EEB"/>
</linearGradient>
<linearGradient id="paint36_linear_1394_9070" x1="41.6791" y1="36.5598" x2="36.5597" y2="31.4403" gradientUnits="userSpaceOnUse">
<stop stop-color="#295296"/>
<stop offset="1" stop-color="#3E78D3"/>
</linearGradient>
<linearGradient id="paint37_linear_1394_9070" x1="17.6791" y1="36.5598" x2="12.5597" y2="31.4403" gradientUnits="userSpaceOnUse">
<stop stop-color="#295296"/>
<stop offset="1" stop-color="#3E78D3"/>
</linearGradient>
<clipPath id="clip0_1394_9070">
<rect width="48" height="48" fill="white"/>
</clipPath>
</defs>
</svg>
