<svg width="48" height="48" viewBox="0 0 48 48" fill="none" xmlns="http://www.w3.org/2000/svg">
<g clip-path="url(#clip0_1394_9109)">
<path opacity="0.32" fill-rule="evenodd" clip-rule="evenodd" d="M35.7831 9.5957C36.2681 10.4894 36.9564 11.2567 37.7862 11.8353L32.6441 16.9773C31.9587 16.2423 31.1857 15.59 30.3418 15.037L35.7831 9.5957Z" fill="url(#paint0_linear_1394_9109)"/>
<path opacity="0.28" fill-rule="evenodd" clip-rule="evenodd" d="M41.5 13C45.0899 13 48 10.0899 48 6.5C48 2.91015 45.0899 0 41.5 0C37.9101 0 35 2.91015 35 6.5C35 10.0899 37.9101 13 41.5 13Z" fill="url(#paint1_linear_1394_9109)"/>
<path opacity="0.22" fill-rule="evenodd" clip-rule="evenodd" d="M23.5 41C32.0604 41 39 34.0604 39 25.5C39 16.9396 32.0604 10 23.5 10C14.9396 10 8 16.9396 8 25.5C8 34.0604 14.9396 41 23.5 41Z" fill="url(#paint2_linear_1394_9109)"/>
<path opacity="0.42" d="M23.5 10C32.0604 10 39 16.9396 39 25.5C39 34.0604 32.0604 41 23.5 41C14.9396 41 8 34.0604 8 25.5C8 16.9396 14.9396 10 23.5 10ZM23.5 13C16.5964 13 11 18.5964 11 25.5C11 32.4036 16.5964 38 23.5 38C30.4036 38 36 32.4036 36 25.5C36 18.5964 30.4036 13 23.5 13Z" fill="url(#paint3_linear_1394_9109)"/>
<path opacity="0.32" fill-rule="evenodd" clip-rule="evenodd" d="M10.1148 39.5066C9.56092 38.6544 8.77739 37.9653 7.85193 37.5268L13.037 32.3418C13.5899 33.1857 14.2422 33.9587 14.9773 34.6441L10.1148 39.5066Z" fill="url(#paint4_linear_1394_9109)"/>
<path opacity="0.48" fill-rule="evenodd" clip-rule="evenodd" d="M5.5 48C8.53757 48 11 45.5376 11 42.5C11 39.4624 8.53757 37 5.5 37C2.46243 37 0 39.4624 0 42.5C0 45.5376 2.46243 48 5.5 48Z" fill="url(#paint5_linear_1394_9109)"/>
<path opacity="0.32" fill-rule="evenodd" clip-rule="evenodd" d="M41.3368 27H35.9109C35.9697 26.5082 36 26.0076 36 25.5C36 24.9924 35.9697 24.4918 35.9109 24H41.3368C41.1208 24.4546 41 24.9632 41 25.5C41 26.0368 41.1208 26.5454 41.3368 27Z" fill="url(#paint6_linear_1394_9109)"/>
<path opacity="0.4" fill-rule="evenodd" clip-rule="evenodd" d="M44.5 29C46.433 29 48 27.433 48 25.5C48 23.567 46.433 22 44.5 22C42.567 22 41 23.567 41 25.5C41 27.433 42.567 29 44.5 29Z" fill="url(#paint7_linear_1394_9109)"/>
<path opacity="0.54" d="M25.5 24C27.9853 24 30 26.0147 30 28.5C30 30.9853 27.9853 33 25.5 33H17.5V30H25.5C26.3284 30 27 29.3284 27 28.5C27 27.6716 26.3284 27 25.5 27H20.5C18.0147 27 16 24.9853 16 22.5C16 20.0147 18.0147 18 20.5 18H28.5V21H20.5C19.6716 21 19 21.6716 19 22.5C19 23.3284 19.6716 24 20.5 24H25.5Z" fill="url(#paint8_linear_1394_9109)"/>
<path opacity="0.32" fill-rule="evenodd" clip-rule="evenodd" d="M6.08984 8.71086C7.06049 8.34423 7.87112 7.65164 8.38823 6.7666L16.6583 15.0367C15.8144 15.5896 15.0414 16.2419 14.356 16.977L6.08984 8.71086H6.08984Z" fill="url(#paint9_linear_1394_9109)"/>
<path opacity="0.32" fill-rule="evenodd" clip-rule="evenodd" d="M4.5 9C6.98528 9 9 6.98528 9 4.5C9 2.01472 6.98528 0 4.5 0C2.01472 0 0 2.01472 0 4.5C0 6.98528 2.01472 9 4.5 9Z" fill="url(#paint10_linear_1394_9109)"/>
<path fill-rule="evenodd" clip-rule="evenodd" d="M24 24V27H20.5C18.0147 27 16 24.9853 16 22.5C16 20.0147 18.0147 18 20.5 18H29V21H20.5C19.6716 21 19 21.6716 19 22.5C19 23.3284 19.6716 24 20.5 24H24Z" fill="#D8D8D8"/>
<path fill-rule="evenodd" clip-rule="evenodd" d="M22 27V24H25.5C27.9853 24 30 26.0147 30 28.5C30 30.9853 27.9853 33 25.5 33H17V30H25.5C26.3284 30 27 29.3284 27 28.5C27 27.6716 26.3284 27 25.5 27H22Z" fill="#D8D8D8"/>
<path opacity="0.54" fill-rule="evenodd" clip-rule="evenodd" d="M25.5 27H20.5C18.0147 27 16 24.9853 16 22.5C16 20.0147 18.0147 18 20.5 18H29V21H20.5C19.6716 21 19 21.6716 19 22.5C19 23.3284 19.6716 24 20.5 24H25.5C27.9853 24 30 26.0147 30 28.5C30 30.9853 27.9853 33 25.5 33H17V30H25.5C26.3284 30 27 29.3284 27 28.5C27 27.6716 26.3284 27 25.5 27Z" fill="url(#paint11_linear_1394_9109)"/>
<path opacity="0.45" fill-rule="evenodd" clip-rule="evenodd" d="M22 15H25V36H22V15Z" fill="url(#paint12_linear_1394_9109)"/>
<path fill-rule="evenodd" clip-rule="evenodd" d="M22 18H25V21H22V18ZM22 24H25V27H22V24ZM22 30H25V33H22V30Z" fill="url(#paint13_linear_1394_9109)"/>
</g>
<defs>
<linearGradient id="paint0_linear_1394_9109" x1="34.2894" y1="7.76605" x2="28.8821" y2="13.1809" gradientUnits="userSpaceOnUse">
<stop stop-color="#70B1FF"/>
<stop offset="1" stop-color="#005CCD"/>
</linearGradient>
<linearGradient id="paint1_linear_1394_9109" x1="36.5141" y1="-5.80246" x2="30.1324" y2="7.13413" gradientUnits="userSpaceOnUse">
<stop stop-color="#70B1FF"/>
<stop offset="1" stop-color="#005CCD"/>
</linearGradient>
<linearGradient id="paint2_linear_1394_9109" x1="11.6105" y1="-3.83664" x2="-3.60726" y2="27.0122" gradientUnits="userSpaceOnUse">
<stop stop-color="#70B1FF"/>
<stop offset="1" stop-color="#005CCD"/>
</linearGradient>
<linearGradient id="paint3_linear_1394_9109" x1="11.6105" y1="-3.83664" x2="-3.60726" y2="27.0122" gradientUnits="userSpaceOnUse">
<stop stop-color="#70B1FF"/>
<stop offset="1" stop-color="#005CCD"/>
</linearGradient>
<linearGradient id="paint4_linear_1394_9109" x1="9.77844" y1="39.4035" x2="14.4517" y2="35.5545" gradientUnits="userSpaceOnUse">
<stop stop-color="#70B1FF"/>
<stop offset="1" stop-color="#005CCD"/>
</linearGradient>
<linearGradient id="paint5_linear_1394_9109" x1="1.28116" y1="32.0902" x2="-4.1187" y2="43.0366" gradientUnits="userSpaceOnUse">
<stop stop-color="#70B1FF"/>
<stop offset="1" stop-color="#005CCD"/>
</linearGradient>
<linearGradient id="paint6_linear_1394_9109" x1="41.3368" y1="24.8827" x2="35.9109" y2="24.8827" gradientUnits="userSpaceOnUse">
<stop stop-color="#70B1FF"/>
<stop offset="1" stop-color="#005CCD"/>
</linearGradient>
<linearGradient id="paint7_linear_1394_9109" x1="41.8153" y1="18.8756" x2="38.379" y2="25.8415" gradientUnits="userSpaceOnUse">
<stop stop-color="#70B1FF"/>
<stop offset="1" stop-color="#005CCD"/>
</linearGradient>
<linearGradient id="paint8_linear_1394_9109" x1="17.6306" y1="11.3049" x2="9.96319" y2="25.8116" gradientUnits="userSpaceOnUse">
<stop stop-color="#70B1FF"/>
<stop offset="1" stop-color="#005CCD"/>
</linearGradient>
<linearGradient id="paint9_linear_1394_9109" x1="3.04925" y1="11.6068" x2="11.0103" y2="20.3843" gradientUnits="userSpaceOnUse">
<stop stop-color="#70B1FF"/>
<stop offset="1" stop-color="#005CCD"/>
</linearGradient>
<linearGradient id="paint10_linear_1394_9109" x1="1.04822" y1="-4.01709" x2="-3.36985" y2="4.93901" gradientUnits="userSpaceOnUse">
<stop stop-color="#70B1FF"/>
<stop offset="1" stop-color="#005CCD"/>
</linearGradient>
<linearGradient id="paint11_linear_1394_9109" x1="17.6306" y1="11.3049" x2="9.96319" y2="25.8116" gradientUnits="userSpaceOnUse">
<stop stop-color="#70B1FF"/>
<stop offset="1" stop-color="#005CCD"/>
</linearGradient>
<linearGradient id="paint12_linear_1394_9109" x1="22.3494" y1="5.62679" x2="15.4071" y2="7.63723" gradientUnits="userSpaceOnUse">
<stop stop-color="#70B1FF"/>
<stop offset="1" stop-color="#005CCD"/>
</linearGradient>
<linearGradient id="paint13_linear_1394_9109" x1="23.5" y1="40.5" x2="29.2692" y2="39.3462" gradientUnits="userSpaceOnUse">
<stop stop-color="#295296"/>
<stop offset="1" stop-color="#3E78D3"/>
</linearGradient>
<clipPath id="clip0_1394_9109">
<rect width="48" height="48" fill="white"/>
</clipPath>
</defs>
</svg>
