<svg width="48" height="48" viewBox="0 0 48 48" fill="none" xmlns="http://www.w3.org/2000/svg">
<path opacity="0.4" fill-rule="evenodd" clip-rule="evenodd" d="M10 13C10 10.2386 12.2386 8 15 8H33C35.7614 8 38 10.2386 38 13V35C38 37.7614 35.7614 40 33 40H15C12.2386 40 10 37.7614 10 35V13Z" fill="url(#paint0_linear_1394_9151)"/>
<path fill-rule="evenodd" clip-rule="evenodd" d="M24 28C26.2091 28 28 26.2091 28 24C28 21.7909 26.2091 20 24 20C21.7909 20 20 21.7909 20 24C20 26.2091 21.7909 28 24 28Z" fill="url(#paint1_linear_1394_9151)"/>
<path d="M13 24H17C17 27.866 20.134 31 24 31C27.866 31 31 27.866 31 24C31 20.134 27.866 17 24 17V13C30.0751 13 35 17.9249 35 24C35 30.0751 30.0751 35 24 35C17.9249 35 13 30.0751 13 24Z" fill="url(#paint2_linear_1394_9151)"/>
<path opacity="0.36" fill-rule="evenodd" clip-rule="evenodd" d="M32 6.87539C32 8.27259 32.3253 9.65061 32.9502 10.9003L33 11H15L15.0498 10.9003C15.6747 9.65061 16 8.27259 16 6.87539V1C16 0.447715 16.4477 0 17 0H31C31.5523 0 32 0.447715 32 1V6.87539Z" fill="url(#paint3_linear_1394_9151)"/>
<path opacity="0.36" fill-rule="evenodd" clip-rule="evenodd" d="M32 41.1246C32 39.7274 32.3253 38.3494 32.9502 37.0997L33 37H15L15.0498 37.0997C15.6747 38.3494 16 39.7274 16 41.1246V47C16 47.5523 16.4477 48 17 48H31C31.5523 48 32 47.5523 32 47V41.1246Z" fill="url(#paint4_linear_1394_9151)"/>
<defs>
<linearGradient id="paint0_linear_1394_9151" x1="52" y1="24" x2="20.2832" y2="-3.75221" gradientUnits="userSpaceOnUse">
<stop stop-color="#70B1FF"/>
<stop offset="1" stop-color="#005CCD"/>
</linearGradient>
<linearGradient id="paint1_linear_1394_9151" x1="34.6263" y1="27.7256" x2="28.9987" y2="17.7282" gradientUnits="userSpaceOnUse">
<stop stop-color="#295296"/>
<stop offset="1" stop-color="#3E78D3"/>
</linearGradient>
<linearGradient id="paint2_linear_1394_9151" x1="37.4415" y1="14.0568" x2="17.5552" y2="9.17373" gradientUnits="userSpaceOnUse">
<stop stop-color="#74A6F0"/>
<stop offset="1" stop-color="#6497E5"/>
</linearGradient>
<linearGradient id="paint3_linear_1394_9151" x1="24.9519" y1="-4.33656" x2="14.6394" y2="10.7536" gradientUnits="userSpaceOnUse">
<stop stop-color="#70B1FF"/>
<stop offset="1" stop-color="#005CCD"/>
</linearGradient>
<linearGradient id="paint4_linear_1394_9151" x1="24.9519" y1="52.3366" x2="14.6394" y2="37.2464" gradientUnits="userSpaceOnUse">
<stop stop-color="#70B1FF"/>
<stop offset="1" stop-color="#005CCD"/>
</linearGradient>
</defs>
</svg>
