<svg width="48" height="48" viewBox="0 0 48 48" fill="none" xmlns="http://www.w3.org/2000/svg">
<path opacity="0.3" fill-rule="evenodd" clip-rule="evenodd" d="M16 36.1562C18.1451 37.9304 20.9467 39 24.0002 39C27.0535 39 29.8549 37.9305 32 36.1565V38.8812C32 41.4233 33.3782 43.7657 35.6005 45.0003L41 48H7L12.3995 45.0003C14.6218 43.7657 16 41.4233 16 38.8812V36.1563V36.1562Z" fill="url(#paint0_linear_1394_9157)"/>
<path opacity="0.3" fill-rule="evenodd" clip-rule="evenodd" d="M24.0002 0C31.1798 0 37 5.52947 37 12.3504C37 12.5614 36.9943 12.7723 36.9829 12.9829L36.1716 28.0144C35.8393 34.1705 30.4885 39 24.0002 39C17.5118 39 12.161 34.1705 11.8288 28.0144L11.0174 12.9829C10.6497 6.17094 16.1642 0.365541 23.3344 0.0162079C23.5561 0.00540441 23.7781 0 24.0002 0Z" fill="url(#paint1_linear_1394_9157)"/>
<path opacity="0.4" fill-rule="evenodd" clip-rule="evenodd" d="M9 29C6.23858 29 4 26.6975 4 23.8571V16.1429C4 13.3025 6.23858 11 9 11H39C41.7614 11 44 13.3025 44 16.1429V23.8571C44 26.6975 41.7614 29 39 29C29.3048 29 28.3795 25.4686 24 25.3477C19.6205 25.2268 18.6952 29 9 29Z" fill="url(#paint2_linear_1394_9157)"/>
<path fill-rule="evenodd" clip-rule="evenodd" d="M36.9232 11C36.9739 11.4435 37 11.8941 37 12.3504C37 12.5614 36.9943 12.7723 36.9829 12.9829L36.1716 28.0144C36.1545 28.3297 36.1244 28.6415 36.0815 28.9493C28.293 28.5168 28.0692 25.4601 24 25.3477C19.9308 25.2354 19.707 28.485 11.9183 28.9459C11.8757 28.6392 11.8457 28.3285 11.8288 28.0144L11.0174 12.9829C10.9811 12.3107 11.0021 11.6483 11.0763 11H36.9232Z" fill="url(#paint3_linear_1394_9157)"/>
<path opacity="0.55" fill-rule="evenodd" clip-rule="evenodd" d="M8 18C9.10457 18 10 17.1046 10 16C10 14.8954 9.10457 14 8 14C6.89543 14 6 14.8954 6 16C6 17.1046 6.89543 18 8 18Z" fill="url(#paint4_linear_1394_9157)"/>
<path fill-rule="evenodd" clip-rule="evenodd" d="M14 18C15.1046 18 16 17.1046 16 16C16 14.8954 15.1046 14 14 14C12.8954 14 12 14.8954 12 16C12 17.1046 12.8954 18 14 18Z" fill="url(#paint5_linear_1394_9157)"/>
<path opacity="0.52" d="M8.005 26.0002V23.0002H10C12.9625 23.0002 14.5796 22.6727 16.1137 21.8643C16.2071 21.8151 16.2701 21.7799 17.0244 21.3558C17.5343 21.0692 17.8039 20.9193 17.9716 20.8313C20.0171 19.7581 21.9144 19.288 24.1656 19.3502C26.303 19.4092 28.0699 19.9042 30.0425 20.9459C30.1771 21.017 30.3672 21.1218 30.8917 21.4128C31.3965 21.6928 31.6005 21.8053 31.6962 21.8553C33.2637 22.6748 34.9041 23.0002 38 23.0002H40V26.0002H38C34.456 26.0002 32.3502 25.5825 30.3062 24.5138C30.1765 24.446 29.9833 24.3395 29.4365 24.0362C28.9439 23.7629 28.7482 23.655 28.6416 23.5987C27.0622 22.7647 25.7421 22.3948 24.0828 22.349C22.3615 22.3015 20.9691 22.6465 19.3655 23.4879C19.2353 23.5562 18.9709 23.7032 18.502 23.9668C17.6591 24.4406 17.6449 24.4485 17.5121 24.5185C15.5023 25.5775 13.4151 26.0002 10 26.0002H8.005Z" fill="url(#paint6_linear_1394_9157)"/>
<path fill-rule="evenodd" clip-rule="evenodd" d="M36.4441 22.9667L36.2824 25.9614C33.7291 25.8361 31.9966 25.3976 30.3062 24.5138C30.1765 24.446 29.9833 24.3395 29.4365 24.0362C28.9439 23.7629 28.7482 23.655 28.6416 23.5987C27.0622 22.7647 25.7421 22.3948 24.0829 22.349C22.3615 22.3015 20.9691 22.6465 19.3655 23.4879C19.2353 23.5562 18.9709 23.7032 18.502 23.9668C17.6591 24.4406 17.6449 24.4485 17.5122 24.5185C15.863 25.3874 14.1618 25.8279 11.7178 25.9581L11.5562 22.9634C13.576 22.8578 14.872 22.5186 16.1137 21.8643C16.2071 21.8151 16.2701 21.7799 17.0244 21.3558C17.5343 21.0692 17.804 20.9193 17.9717 20.8313C20.0171 19.7581 21.9144 19.288 24.1657 19.3502C26.303 19.4092 28.0699 19.9042 30.0425 20.9459C30.1771 21.017 30.3672 21.1218 30.8917 21.4128C31.3965 21.6928 31.6006 21.8053 31.6962 21.8553C32.978 22.5254 34.3086 22.8652 36.4441 22.9667V22.9667Z" fill="url(#paint7_linear_1394_9157)"/>
<defs>
<linearGradient id="paint0_linear_1394_9157" x1="42.1572" y1="47.7984" x2="42.0166" y2="35.9426" gradientUnits="userSpaceOnUse">
<stop stop-color="#70B1FF"/>
<stop offset="1" stop-color="#005CCD"/>
</linearGradient>
<linearGradient id="paint1_linear_1394_9157" x1="28.5564" y1="47.3373" x2="53.3702" y2="24.7257" gradientUnits="userSpaceOnUse">
<stop stop-color="#70B1FF"/>
<stop offset="1" stop-color="#005CCD"/>
</linearGradient>
<linearGradient id="paint2_linear_1394_9157" x1="-19.1348" y1="18.1744" x2="-4.84883" y2="48.8562" gradientUnits="userSpaceOnUse">
<stop stop-color="#70B1FF"/>
<stop offset="1" stop-color="#005CCD"/>
</linearGradient>
<linearGradient id="paint3_linear_1394_9157" x1="25.7683" y1="37.3136" x2="41.0302" y2="13.5931" gradientUnits="userSpaceOnUse">
<stop stop-color="#8BB7F6"/>
<stop offset="1" stop-color="#709FE5"/>
</linearGradient>
<linearGradient id="paint4_linear_1394_9157" x1="1.09635" y1="15.2708" x2="7.1276" y2="21.0156" gradientUnits="userSpaceOnUse">
<stop stop-color="#70B1FF"/>
<stop offset="1" stop-color="#005CCD"/>
</linearGradient>
<linearGradient id="paint5_linear_1394_9157" x1="18.3311" y1="15.8397" x2="14.0105" y2="11.1776" gradientUnits="userSpaceOnUse">
<stop stop-color="#295296"/>
<stop offset="1" stop-color="#3E78D3"/>
</linearGradient>
<linearGradient id="paint6_linear_1394_9157" x1="-7.99251" y1="22.6724" x2="-5.3385" y2="35.4312" gradientUnits="userSpaceOnUse">
<stop stop-color="#70B1FF"/>
<stop offset="1" stop-color="#005CCD"/>
</linearGradient>
<linearGradient id="paint7_linear_1394_9157" x1="17.7781" y1="29.2698" x2="24.6351" y2="16.374" gradientUnits="userSpaceOnUse">
<stop stop-color="#6398F3"/>
<stop offset="1" stop-color="#4377D7"/>
</linearGradient>
</defs>
</svg>
