<svg width="48" height="48" viewBox="0 0 48 48" fill="none" xmlns="http://www.w3.org/2000/svg">
<g clip-path="url(#clip0_1394_9166)">
<path d="M17 44C17 46.2091 15.2091 48 13 48L13 25C13 18.3726 18.3726 13 25 13H48C48 15.2091 46.2091 17 44 17L25 17C20.5817 17 17 20.5817 17 25V44Z" fill="url(#paint0_linear_1394_9166)"/>
<path opacity="0.5" d="M9.6213 35L17 42.3787V44C17 44.7511 16.793 45.4538 16.4329 46.0542L5.37866 35H9.6213Z" fill="url(#paint1_linear_1394_9166)"/>
<path d="M13 38.3789V42.6215L16.4329 46.0545C16.793 45.454 17 44.7513 17 44.0002V42.3789L13 38.3789Z" fill="url(#paint2_linear_1394_9166)"/>
<path opacity="0.5" d="M35 4.87891L46.355 16.2339C45.6943 16.7158 44.8804 17.0002 44 17.0002H42.8787L35 9.12155V4.87891Z" fill="url(#paint3_linear_1394_9166)"/>
<path d="M35 0V23C35 29.6274 29.6274 35 23 35H0C0 32.7909 1.79086 31 4 31H23C27.4183 31 31 27.4183 31 23V4C31 1.79086 32.7909 0 35 0Z" fill="url(#paint4_linear_1394_9166)"/>
<path opacity="0.5" fill-rule="evenodd" clip-rule="evenodd" d="M23.4552 13.0986L31.0001 20.6435V23.0001C31.0001 23.5849 30.9373 24.1551 30.8182 24.7043L20.1393 14.0254C21.1756 13.5657 22.2892 13.2485 23.4552 13.0986V13.0986Z" fill="url(#paint5_linear_1394_9166)"/>
<path opacity="0.5" fill-rule="evenodd" clip-rule="evenodd" d="M13.8762 20.4902L24.2836 30.8976C23.8657 30.965 23.4369 31 23 31H20.1434L13.0492 23.9058C13.1575 22.7078 13.4419 21.5606 13.8762 20.4902V20.4902Z" fill="url(#paint6_linear_1394_9166)"/>
<path opacity="0.5" fill-rule="evenodd" clip-rule="evenodd" d="M32.3695 30.4986C31.7421 31.2816 31.0186 31.9842 30.2169 32.5886L18.2825 20.6542C18.8315 19.8073 19.5363 19.0709 20.3563 18.4854L32.3695 30.4986V30.4986Z" fill="url(#paint7_linear_1394_9166)"/>
<path opacity="0.35" fill-rule="evenodd" clip-rule="evenodd" d="M13.1213 48.0002H8.87868L0 39.1215L0 34.8789L13.1213 48.0002Z" fill="url(#paint8_linear_1394_9166)"/>
<path opacity="0.35" fill-rule="evenodd" clip-rule="evenodd" d="M48 8.87868V13.1213L34.8787 0H39.1213L48 8.87868V8.87868Z" fill="url(#paint9_linear_1394_9166)"/>
<rect x="31" y="13" width="4" height="4" fill="url(#paint10_linear_1394_9166)"/>
<rect x="13" y="31" width="4" height="4" fill="url(#paint11_linear_1394_9166)"/>
</g>
<defs>
<linearGradient id="paint0_linear_1394_9166" x1="-4.5" y1="13" x2="-4.5" y2="48" gradientUnits="userSpaceOnUse">
<stop stop-color="#C5DBFF"/>
<stop offset="1" stop-color="#6691DB"/>
</linearGradient>
<linearGradient id="paint1_linear_1394_9166" x1="1.78947" y1="39.473" x2="10.6832" y2="49.7306" gradientUnits="userSpaceOnUse">
<stop stop-color="#8FC1FF"/>
<stop offset="1" stop-color="#005CCD"/>
</linearGradient>
<linearGradient id="paint2_linear_1394_9166" x1="23.2882" y1="45.3175" x2="12.4156" y2="39.4645" gradientUnits="userSpaceOnUse">
<stop stop-color="#295296"/>
<stop offset="1" stop-color="#3E78D3"/>
</linearGradient>
<linearGradient id="paint3_linear_1394_9166" x1="31.4931" y1="9.7837" x2="41.3411" y2="19.9046" gradientUnits="userSpaceOnUse">
<stop stop-color="#8FC1FF"/>
<stop offset="1" stop-color="#005CCD"/>
</linearGradient>
<linearGradient id="paint4_linear_1394_9166" x1="52.5" y1="35" x2="52.5" y2="0" gradientUnits="userSpaceOnUse">
<stop stop-color="#C5DBFF"/>
<stop offset="1" stop-color="#6691DB"/>
</linearGradient>
<linearGradient id="paint5_linear_1394_9166" x1="35.282" y1="19.3055" x2="24.5101" y2="9.25318" gradientUnits="userSpaceOnUse">
<stop stop-color="#8FC1FF"/>
<stop offset="1" stop-color="#005CCD"/>
</linearGradient>
<linearGradient id="paint6_linear_1394_9166" x1="28.7128" y1="26.111" x2="18.9547" y2="15.7093" gradientUnits="userSpaceOnUse">
<stop stop-color="#8FC1FF"/>
<stop offset="1" stop-color="#005CCD"/>
</linearGradient>
<linearGradient id="paint7_linear_1394_9166" x1="13.9317" y1="24.1921" x2="25.3465" y2="36.7005" gradientUnits="userSpaceOnUse">
<stop stop-color="#8FC1FF"/>
<stop offset="1" stop-color="#005CCD"/>
</linearGradient>
<linearGradient id="paint8_linear_1394_9166" x1="18.2945" y1="41.8964" x2="6.08677" y2="29.7228" gradientUnits="userSpaceOnUse">
<stop stop-color="#8FC1FF"/>
<stop offset="1" stop-color="#005CCD"/>
</linearGradient>
<linearGradient id="paint9_linear_1394_9166" x1="53.1732" y1="7.01745" x2="40.9654" y2="-5.15609" gradientUnits="userSpaceOnUse">
<stop stop-color="#8FC1FF"/>
<stop offset="1" stop-color="#005CCD"/>
</linearGradient>
<linearGradient id="paint10_linear_1394_9166" x1="31" y1="13" x2="31" y2="17" gradientUnits="userSpaceOnUse">
<stop stop-color="#648FE9"/>
<stop offset="1" stop-color="#6690E8"/>
</linearGradient>
<linearGradient id="paint11_linear_1394_9166" x1="19" y1="35" x2="19" y2="31" gradientUnits="userSpaceOnUse">
<stop stop-color="#648FE9"/>
<stop offset="1" stop-color="#6690E8"/>
</linearGradient>
<clipPath id="clip0_1394_9166">
<rect width="48" height="48" fill="white"/>
</clipPath>
</defs>
</svg>
