<svg width="48" height="48" viewBox="0 0 48 48" fill="none" xmlns="http://www.w3.org/2000/svg">
<path opacity="0.36" fill-rule="evenodd" clip-rule="evenodd" d="M7.90268 48L9.94976 41.7012C11.6479 36.4759 10.9846 30.7702 8.13303 26.0736C6.04434 22.6335 5 19.2193 5 15.831C5 7.70409 10.747 0 23.2729 0C35.7988 0 41.5201 8.9613 41.5201 13.6696C41.5201 14.9684 41.1332 17.1425 40.8626 18.5041C40.7051 19.2964 40.8311 20.1213 41.2376 20.8195L45.0666 27.3967C45.4806 28.1078 44.9676 29 44.1448 29H42V31C42 32.2713 41.5394 32.2515 40.885 33.3414C40.5488 33.9013 40.3807 34.564 40.3807 35.3297C40.3807 37.3137 40.8603 38.65 39.0933 39.9081C37.9153 40.7469 35.1076 40.3977 31.2818 38.8606L28.8796 48H7.90268Z" fill="url(#paint0_linear_1394_9202)"/>
<path opacity="0.45" fill-rule="evenodd" clip-rule="evenodd" d="M30.018 11.3019C30.0061 11.2029 30 11.1022 30 11C30 9.61929 31.1193 8.5 32.5 8.5C33.8807 8.5 35 9.61929 35 11C35 12.3807 33.8807 13.5 32.5 13.5C32.3619 13.5 32.2264 13.4888 32.0944 13.4673L25 20.2888V48H22V19H22.012L30.018 11.3019Z" fill="url(#paint1_linear_1394_9202)"/>
<path opacity="0.45" fill-rule="evenodd" clip-rule="evenodd" d="M17 7.50018C16.3928 7.04408 16 6.31791 16 5.5C16 4.11929 17.1193 3 18.5 3C19.8807 3 21 4.11929 21 5.5C21 6.31791 20.6072 7.04408 20 7.50018V32.6945L25 37.5022V41.664L17 33.9717V7.50018V7.50018Z" fill="url(#paint2_linear_1394_9202)"/>
<path opacity="0.48" fill-rule="evenodd" clip-rule="evenodd" d="M22 31.5486L11 20.9717V12.5002C10.3928 12.0441 10 11.3179 10 10.5C10 9.11929 11.1193 8 12.5 8C13.8807 8 15 9.11929 15 10.5C15 11.3179 14.6072 12.0441 14 12.5002V19.6945L24.939 30.2127L25 30.2925V48H22V31.5486Z" fill="url(#paint3_linear_1394_9202)"/>
<path fill-rule="evenodd" clip-rule="evenodd" d="M22 27.3867L24.939 30.2127L25 30.2924V47.9999H22V27.3867Z" fill="url(#paint4_linear_1394_9202)"/>
<path fill-rule="evenodd" clip-rule="evenodd" d="M20 29.6256L17 26.741V22.5791L20 25.4637V29.6256Z" fill="url(#paint5_linear_1394_9202)"/>
<defs>
<linearGradient id="paint0_linear_1394_9202" x1="19.1162" y1="56.4165" x2="61.6814" y2="29.9655" gradientUnits="userSpaceOnUse">
<stop stop-color="#70B1FF"/>
<stop offset="1" stop-color="#005CCD"/>
</linearGradient>
<linearGradient id="paint1_linear_1394_9202" x1="32.532" y1="60.5678" x2="55.1765" y2="48.8561" gradientUnits="userSpaceOnUse">
<stop stop-color="#70B1FF"/>
<stop offset="1" stop-color="#005CCD"/>
</linearGradient>
<linearGradient id="paint2_linear_1394_9202" x1="29.732" y1="47.7949" x2="29.732" y2="3" gradientUnits="userSpaceOnUse">
<stop stop-color="#70B1FF"/>
<stop offset="1" stop-color="#005CCD"/>
</linearGradient>
<linearGradient id="paint3_linear_1394_9202" x1="15.2657" y1="55.0137" x2="35.6945" y2="49.3311" gradientUnits="userSpaceOnUse">
<stop stop-color="#70B1FF"/>
<stop offset="1" stop-color="#005CCD"/>
</linearGradient>
<linearGradient id="paint4_linear_1394_9202" x1="23.5194" y1="66.6094" x2="31.7471" y2="65.4092" gradientUnits="userSpaceOnUse">
<stop stop-color="#295296"/>
<stop offset="1" stop-color="#3E78D3"/>
</linearGradient>
<linearGradient id="paint5_linear_1394_9202" x1="21.3395" y1="26.2908" x2="16.3416" y2="24.0427" gradientUnits="userSpaceOnUse">
<stop stop-color="#5B92F0"/>
<stop offset="1" stop-color="#578EED"/>
</linearGradient>
</defs>
</svg>
