<svg width="48" height="48" viewBox="0 0 48 48" fill="none" xmlns="http://www.w3.org/2000/svg">
<path opacity="0.37" fill-rule="evenodd" clip-rule="evenodd" d="M46 24L37 42L28 24L37 6L46 24Z" fill="url(#paint0_linear_1394_9250)"/>
<path opacity="0.47" fill-rule="evenodd" clip-rule="evenodd" d="M35 24L24 46L13 24L24 2L35 24Z" fill="url(#paint1_linear_1394_9250)"/>
<path fill-rule="evenodd" clip-rule="evenodd" d="M31.5 31L28 24L31.5 17L35 24L31.5 31Z" fill="url(#paint2_linear_1394_9250)"/>
<path opacity="0.37" fill-rule="evenodd" clip-rule="evenodd" d="M20 24L11 42L2 24L11 6L20 24Z" fill="url(#paint3_linear_1394_9250)"/>
<path fill-rule="evenodd" clip-rule="evenodd" d="M16.5 31L13 24L16.5 17L20 24L16.5 31Z" fill="url(#paint4_linear_1394_9250)"/>
<defs>
<linearGradient id="paint0_linear_1394_9250" x1="14.2895" y1="13.1236" x2="44.4542" y2="35.6278" gradientUnits="userSpaceOnUse">
<stop stop-color="#70B1FF" stop-opacity="0.7"/>
<stop offset="1" stop-color="#005CCD"/>
</linearGradient>
<linearGradient id="paint1_linear_1394_9250" x1="-3.75726" y1="10.7067" x2="33.1107" y2="38.2118" gradientUnits="userSpaceOnUse">
<stop stop-color="#70B1FF" stop-opacity="0.7"/>
<stop offset="1" stop-color="#005CCD"/>
</linearGradient>
<linearGradient id="paint2_linear_1394_9250" x1="29.0501" y1="17" x2="29.0501" y2="31" gradientUnits="userSpaceOnUse">
<stop stop-color="#6D9DEA"/>
<stop offset="1" stop-color="#5183D9"/>
</linearGradient>
<linearGradient id="paint3_linear_1394_9250" x1="-11.7105" y1="13.1236" x2="18.4542" y2="35.6278" gradientUnits="userSpaceOnUse">
<stop stop-color="#70B1FF" stop-opacity="0.7"/>
<stop offset="1" stop-color="#005CCD"/>
</linearGradient>
<linearGradient id="paint4_linear_1394_9250" x1="14.0501" y1="17" x2="14.0501" y2="31" gradientUnits="userSpaceOnUse">
<stop stop-color="#6D9DEA"/>
<stop offset="1" stop-color="#5183D9"/>
</linearGradient>
</defs>
</svg>
