<svg width="48" height="48" viewBox="0 0 48 48" fill="none" xmlns="http://www.w3.org/2000/svg">
<path opacity="0.32" fill-rule="evenodd" clip-rule="evenodd" d="M23 2H35V45H23V2Z" fill="url(#paint0_linear_1394_9274)"/>
<path opacity="0.3" fill-rule="evenodd" clip-rule="evenodd" d="M28 10H40V42H28V10Z" fill="url(#paint1_linear_1394_9274)"/>
<path opacity="0.3" fill-rule="evenodd" clip-rule="evenodd" d="M32 18H44V39H32V18Z" fill="url(#paint2_linear_1394_9274)"/>
<path opacity="0.32" fill-rule="evenodd" clip-rule="evenodd" d="M25 2H13V45H25V2Z" fill="url(#paint3_linear_1394_9274)"/>
<path opacity="0.3" fill-rule="evenodd" clip-rule="evenodd" d="M20 10H8V42H20V10Z" fill="url(#paint4_linear_1394_9274)"/>
<path opacity="0.3" fill-rule="evenodd" clip-rule="evenodd" d="M16 18H4V39H16V18Z" fill="url(#paint5_linear_1394_9274)"/>
<path fill-rule="evenodd" clip-rule="evenodd" d="M35 18V39H32V18H35Z" fill="url(#paint6_linear_1394_9274)"/>
<path fill-rule="evenodd" clip-rule="evenodd" d="M16 18V39H13V18H16Z" fill="url(#paint7_linear_1394_9274)"/>
<defs>
<linearGradient id="paint0_linear_1394_9274" x1="18.2473" y1="21.2652" x2="40.2571" y2="28.12" gradientUnits="userSpaceOnUse">
<stop stop-color="#70B1FF"/>
<stop offset="1" stop-color="#005CCD"/>
</linearGradient>
<linearGradient id="paint1_linear_1394_9274" x1="34" y1="58" x2="55.0411" y2="50.1096" gradientUnits="userSpaceOnUse">
<stop stop-color="#70B1FF"/>
<stop offset="1" stop-color="#005CCD"/>
</linearGradient>
<linearGradient id="paint2_linear_1394_9274" x1="27.2473" y1="27.4086" x2="44.4116" y2="38.3545" gradientUnits="userSpaceOnUse">
<stop stop-color="#70B1FF"/>
<stop offset="1" stop-color="#005CCD"/>
</linearGradient>
<linearGradient id="paint3_linear_1394_9274" x1="29.7527" y1="21.2652" x2="7.74286" y2="28.12" gradientUnits="userSpaceOnUse">
<stop stop-color="#70B1FF"/>
<stop offset="1" stop-color="#005CCD"/>
</linearGradient>
<linearGradient id="paint4_linear_1394_9274" x1="14" y1="58" x2="-7.0411" y2="50.1096" gradientUnits="userSpaceOnUse">
<stop stop-color="#70B1FF"/>
<stop offset="1" stop-color="#005CCD"/>
</linearGradient>
<linearGradient id="paint5_linear_1394_9274" x1="20.7527" y1="27.4086" x2="3.58837" y2="38.3545" gradientUnits="userSpaceOnUse">
<stop stop-color="#70B1FF"/>
<stop offset="1" stop-color="#005CCD"/>
</linearGradient>
<linearGradient id="paint6_linear_1394_9274" x1="30.8118" y1="27.4086" x2="36.6984" y2="28.3471" gradientUnits="userSpaceOnUse">
<stop stop-color="#6B9DF0"/>
<stop offset="1" stop-color="#5687DD"/>
</linearGradient>
<linearGradient id="paint7_linear_1394_9274" x1="11.8118" y1="27.4086" x2="17.6984" y2="28.3471" gradientUnits="userSpaceOnUse">
<stop stop-color="#6B9DF0"/>
<stop offset="1" stop-color="#5687DD"/>
</linearGradient>
</defs>
</svg>
