<svg width="48" height="48" viewBox="0 0 48 48" fill="none" xmlns="http://www.w3.org/2000/svg">
<g clip-path="url(#clip0_1394_9308)">
<path opacity="0.35" d="M24 48C36.1503 48 46 38.1503 46 26C46 13.8497 36.1503 4 24 4C11.8497 4 2 13.8497 2 26C2 38.1503 11.8497 48 24 48Z" fill="url(#paint0_linear_1394_9308)"/>
<path opacity="0.36" d="M11.1447 8.14468C14.7608 5.53662 19.2009 4 24 4C33.703 4 41.9389 10.2816 44.8629 19H28L19 10H13L11.1447 8.14468H11.1447Z" fill="url(#paint1_linear_1394_9308)"/>
<path opacity="0.5" fill-rule="evenodd" clip-rule="evenodd" d="M45.26 2.35018C48.5626 5.60234 48.9232 10.755 46.1048 14.4225L39.5133 23L32.8999 14.4164C30.0777 10.7535 30.435 5.60132 33.7365 2.35018C36.9186 -0.783393 42.0779 -0.783393 45.26 2.35018ZM39.5636 12.0028C41.5837 12.0028 43.2212 10.3903 43.2212 8.40106C43.2212 6.41187 41.5837 4.79931 39.5636 4.79931C37.5436 4.79931 35.9061 6.41187 35.9061 8.40106C35.9061 10.3903 37.5436 12.0028 39.5636 12.0028Z" fill="url(#paint2_linear_1394_9308)"/>
<path d="M36.0059 7.562C35.9406 7.83131 35.9061 8.11236 35.9061 8.40135C35.9061 10.3905 37.5436 12.0031 39.5636 12.0031C39.9968 12.0031 40.4123 11.929 40.7979 11.7929C42.13 13.3663 43.245 15.1294 44.0968 17.0358L39.5133 23.0003L32.8999 14.4167C30.8511 11.7576 30.4779 8.31359 31.6904 5.38184C33.2163 5.95121 34.662 6.68513 36.0059 7.562V7.562Z" fill="url(#paint3_linear_1394_9308)"/>
<path opacity="0.47" fill-rule="evenodd" clip-rule="evenodd" d="M8 43.9291C7.6734 43.9758 7.33952 44 7 44C3.13401 44 0 40.866 0 37C0 33.134 3.13401 30 7 30C7.48685 30 7.9621 30.0497 8.42094 30.1443C10.0213 27.6516 12.8178 26 16 26C20.2832 26 23.8675 28.992 24.777 33H27.5C30.5376 33 33 35.4624 33 38.5C33 41.5376 30.5376 44 27.5 44H8V43.9291Z" fill="url(#paint4_linear_1394_9308)"/>
<path d="M11.3477 44C7.13263 41.0318 4.00699 36.6205 2.68909 31.4845C3.87741 30.5544 5.37395 30 6.99997 30C7.48682 30 7.96207 30.0497 8.42091 30.1443C10.0213 27.6516 12.8177 26 16 26C20.2831 26 23.8675 28.992 24.777 33H27.5C30.5375 33 33 35.4624 33 38.5C33 41.5376 30.5375 44 27.5 44H11.3477V44Z" fill="url(#paint5_linear_1394_9308)"/>
<path d="M18.2831 41.9355C17.7024 41.9773 17.1186 41.9992 16.5311 42H14.1815V40H16.5292C17.0684 39.9993 17.6057 39.9798 18.1395 39.9414L18.2831 41.9355ZM25.4764 40.3027C24.1835 40.8121 22.8466 41.2107 21.4784 41.4932L21.0741 39.5352C22.3299 39.2759 23.5565 38.9098 24.743 38.4424L25.4764 40.3027ZM31.8182 36.6211C30.7321 37.4923 29.5734 38.2706 28.3553 38.9453L27.3866 37.1953C28.5051 36.5757 29.5696 35.8618 30.5673 35.0615L31.8182 36.6211ZM36.7509 31.293C35.9664 32.4425 35.0853 33.5236 34.118 34.5244L32.6796 33.1348C33.5684 32.2152 34.3788 31.2221 35.0995 30.166L36.7509 31.293ZM39.9198 24.7158C39.5094 26.049 38.9854 27.3428 38.3553 28.583L36.5721 27.6768C37.1505 26.5383 37.6311 25.3515 38.0077 24.1279L39.9198 24.7158Z" fill="url(#paint6_linear_1394_9308)"/>
</g>
<defs>
<linearGradient id="paint0_linear_1394_9308" x1="16.6419" y1="-2.51134" x2="-6.05192" y2="31.9286" gradientUnits="userSpaceOnUse">
<stop stop-color="#70B1FF"/>
<stop offset="1" stop-color="#005CCD"/>
</linearGradient>
<linearGradient id="paint1_linear_1394_9308" x1="22.3651" y1="1.78023" x2="17.8196" y2="17.2866" gradientUnits="userSpaceOnUse">
<stop stop-color="#70B1FF"/>
<stop offset="1" stop-color="#005CCD"/>
</linearGradient>
<linearGradient id="paint2_linear_1394_9308" x1="32.2943" y1="28.2505" x2="52.0795" y2="26.02" gradientUnits="userSpaceOnUse">
<stop stop-color="#70B1FF"/>
<stop offset="1" stop-color="#005CCD"/>
</linearGradient>
<linearGradient id="paint3_linear_1394_9308" x1="38.3855" y1="26.1783" x2="45.5291" y2="16.811" gradientUnits="userSpaceOnUse">
<stop stop-color="#295296"/>
<stop offset="1" stop-color="#3E78D3"/>
</linearGradient>
<linearGradient id="paint4_linear_1394_9308" x1="28.1307" y1="23.6582" x2="0.379886" y2="38.6723" gradientUnits="userSpaceOnUse">
<stop stop-color="#70B1FF"/>
<stop offset="1" stop-color="#005CCD"/>
</linearGradient>
<linearGradient id="paint5_linear_1394_9308" x1="10.1572" y1="26.064" x2="5.28942" y2="40.8436" gradientUnits="userSpaceOnUse">
<stop stop-color="#7BAAEE"/>
<stop offset="1" stop-color="#6899E3"/>
</linearGradient>
<linearGradient id="paint6_linear_1394_9308" x1="28.3568" y1="17.6684" x2="12.6887" y2="39.5663" gradientUnits="userSpaceOnUse">
<stop stop-color="#295296"/>
<stop offset="1" stop-color="#3E78D3"/>
</linearGradient>
<clipPath id="clip0_1394_9308">
<rect width="48" height="48" fill="white"/>
</clipPath>
</defs>
</svg>
