<svg width="48" height="48" viewBox="0 0 48 48" fill="none" xmlns="http://www.w3.org/2000/svg">
<path opacity="0.3" fill-rule="evenodd" clip-rule="evenodd" d="M37 22V47H1L1 19H15L19 22H37Z" fill="url(#paint0_linear_1394_9336)"/>
<path opacity="0.3" fill-rule="evenodd" clip-rule="evenodd" d="M46 26H10.2045L1 47H37L46 26Z" fill="url(#paint1_linear_1394_9336)"/>
<path fill-rule="evenodd" clip-rule="evenodd" d="M37 26V47H1L10.2045 26H37Z" fill="url(#paint2_linear_1394_9336)"/>
<rect opacity="0.38" x="19" y="1" width="18" height="33" rx="2" fill="url(#paint3_linear_1394_9336)"/>
<path fill-rule="evenodd" clip-rule="evenodd" d="M19 22H37V32C37 33.1046 36.1046 34 35 34H21C19.8954 34 19 33.1046 19 32V22Z" fill="url(#paint4_linear_1394_9336)"/>
<path fill-rule="evenodd" clip-rule="evenodd" d="M20.8 1L35.2 1C36.1941 1 37 1.89543 37 3V5H19V3C19 1.89543 19.8059 1 20.8 1Z" fill="url(#paint5_linear_1394_9336)"/>
<path fill-rule="evenodd" clip-rule="evenodd" d="M19 26H37V32C37 33.1046 36.1046 34 35 34H21C19.8954 34 19 33.1046 19 32V26ZM28 32C29.1046 32 30 31.1046 30 30C30 28.8954 29.1046 28 28 28C26.8954 28 26 28.8954 26 30C26 31.1046 26.8954 32 28 32Z" fill="url(#paint6_linear_1394_9336)"/>
<path fill-rule="evenodd" clip-rule="evenodd" d="M48 13L40 19V16H22V10H40V7L48 13Z" fill="url(#paint7_linear_1394_9336)"/>
<path fill-rule="evenodd" clip-rule="evenodd" d="M37 16H22V10H37V16Z" fill="url(#paint8_linear_1394_9336)"/>
<defs>
<linearGradient id="paint0_linear_1394_9336" x1="55" y1="33" x2="27.8615" y2="-1.89231" gradientUnits="userSpaceOnUse">
<stop stop-color="#70B1FF"/>
<stop offset="1" stop-color="#005CCD"/>
</linearGradient>
<linearGradient id="paint1_linear_1394_9336" x1="25.2597" y1="13.1457" x2="7.91796" y2="50.2346" gradientUnits="userSpaceOnUse">
<stop stop-color="#70B1FF"/>
<stop offset="1" stop-color="#005CCD"/>
</linearGradient>
<linearGradient id="paint2_linear_1394_9336" x1="19" y1="57.5" x2="37.2798" y2="26.1632" gradientUnits="userSpaceOnUse">
<stop stop-color="#7DA8E6"/>
<stop offset="1" stop-color="#9ABFF8"/>
</linearGradient>
<linearGradient id="paint3_linear_1394_9336" x1="29.7042" y1="48.9378" x2="56.2472" y2="32.9457" gradientUnits="userSpaceOnUse">
<stop stop-color="#70B1FF"/>
<stop offset="1" stop-color="#005CCD"/>
</linearGradient>
<linearGradient id="paint4_linear_1394_9336" x1="33.6737" y1="33.6322" x2="36.7147" y2="23.1516" gradientUnits="userSpaceOnUse">
<stop stop-color="#6EA0F1"/>
<stop offset="1" stop-color="#85B1F0"/>
</linearGradient>
<linearGradient id="paint5_linear_1394_9336" x1="46" y1="3" x2="44.3059" y2="-4.62353" gradientUnits="userSpaceOnUse">
<stop stop-color="#618FDB"/>
<stop offset="1" stop-color="#729FE8"/>
</linearGradient>
<linearGradient id="paint6_linear_1394_9336" x1="36.3875" y1="51.1849" x2="44.6338" y2="21.47" gradientUnits="userSpaceOnUse">
<stop stop-color="#295296"/>
<stop offset="1" stop-color="#3E78D3"/>
</linearGradient>
<linearGradient id="paint7_linear_1394_9336" x1="38.484" y1="9.44719" x2="47.6185" y2="13.8005" gradientUnits="userSpaceOnUse">
<stop stop-color="#9FC3F3"/>
<stop offset="1" stop-color="#90B8EC"/>
</linearGradient>
<linearGradient id="paint8_linear_1394_9336" x1="14.5" y1="13" x2="18.6379" y2="23.3448" gradientUnits="userSpaceOnUse">
<stop stop-color="#7CABF3"/>
<stop offset="1" stop-color="#6A9CE7"/>
</linearGradient>
</defs>
</svg>
