<svg width="48" height="48" viewBox="0 0 48 48" fill="none" xmlns="http://www.w3.org/2000/svg">
<path opacity="0.38" fill-rule="evenodd" clip-rule="evenodd" d="M31.4519 0C33.6741 0.448783 35.7423 1.32237 37.5682 2.53236C37.0111 3.14777 36.6718 3.96402 36.6718 4.85953C36.6718 6.77524 38.2248 8.32823 40.1405 8.32823C41.036 8.32823 41.8522 7.98888 42.4676 7.43176C43.6776 9.25766 44.5512 11.3259 45 13.5481C43.2456 13.7206 41.8748 15.2002 41.8748 17C41.8748 18.7998 43.2456 20.2794 45 20.4519C44.5512 22.6741 43.6776 24.7423 42.4676 26.5682C41.8522 26.0111 41.036 25.6718 40.1405 25.6718C38.2248 25.6718 36.6718 27.2248 36.6718 29.1405C36.6718 30.036 37.0111 30.8522 37.5682 31.4676C35.7423 32.6776 33.6741 33.5512 31.4519 34C31.2794 32.2456 29.7998 30.8748 28 30.8748C26.2002 30.8748 24.7206 32.2456 24.5481 34C22.3259 33.5512 20.2577 32.6776 18.4318 31.4676C18.9889 30.8522 19.3282 30.036 19.3282 29.1405C19.3282 27.2248 17.7752 25.6718 15.8595 25.6718C14.964 25.6718 14.1478 26.0111 13.5324 26.5682C12.3224 24.7423 11.4488 22.6741 11 20.4519C12.7544 20.2794 14.1252 18.7998 14.1252 17C14.1252 15.2002 12.7544 13.7206 11 13.5481C11.4488 11.3259 12.3224 9.25766 13.5324 7.43176C14.1478 7.98888 14.964 8.32823 15.8595 8.32823C17.7752 8.32823 19.3282 6.77524 19.3282 4.85953C19.3282 3.96402 18.9889 3.14777 18.4318 2.53236C20.2577 1.32237 22.3259 0.448783 24.5481 0C24.7206 1.75445 26.2002 3.12517 28 3.12517C29.7998 3.12517 31.2794 1.75445 31.4519 0ZM28 8.5C23.3056 8.5 19.5 12.3056 19.5 17C19.5 21.6944 23.3056 25.5 28 25.5C32.6944 25.5 36.5 21.6944 36.5 17C36.5 12.3056 32.6944 8.5 28 8.5Z" fill="url(#paint0_linear_1394_9398)"/>
<path fill-rule="evenodd" clip-rule="evenodd" d="M28 21C30.2091 21 32 19.2091 32 17C32 14.7909 30.2091 13 28 13C25.7909 13 24 14.7909 24 17C24 19.2091 25.7909 21 28 21Z" fill="url(#paint1_linear_1394_9398)"/>
<path opacity="0.55" fill-rule="evenodd" clip-rule="evenodd" d="M1.17188 31.3848L7.75944 26.6144C8.30504 26.2193 8.97927 26.0439 9.64825 26.1229L31.5941 28.7158C32.9565 28.8767 33.9711 30.0504 33.9333 31.4217C33.8938 32.857 32.7189 34 31.283 34H19L25.541 38.8756C26.9763 39.9456 28.8751 40.164 30.5159 39.448L37.8014 36.2686C41.0472 34.8522 44.7872 35.16 47.7578 37.0879C47.8631 37.1563 47.852 37.3139 47.7381 37.3668L29.0309 46.0566C27.7099 46.6702 26.237 46.8564 24.7993 46.6233C20.1093 45.8629 8.91302 44.276 1 45L1.17188 31.3848Z" fill="url(#paint2_linear_1394_9398)"/>
<path fill-rule="evenodd" clip-rule="evenodd" d="M18.7326 27.1963L31.5163 28.7066C32.9227 28.8728 33.9701 30.0844 33.9312 31.5C33.903 32.5222 33.281 33.3914 32.4011 33.781L31.9363 33.895V33.895L31.4526 33.9984C31.2794 32.2456 29.7998 30.8749 28 30.8749C26.2002 30.8749 24.7206 32.2456 24.5481 34C22.3259 33.5513 20.2577 32.6777 18.4318 31.4677C18.9889 30.8523 19.3282 30.036 19.3282 29.1405C19.3282 28.42 19.1086 27.7508 18.7326 27.1963Z" fill="url(#paint3_linear_1394_9398)"/>
<defs>
<linearGradient id="paint0_linear_1394_9398" x1="-7.56543" y1="7.27832" x2="13.2529" y2="44.4092" gradientUnits="userSpaceOnUse">
<stop stop-color="#70B1FF"/>
<stop offset="1" stop-color="#005CCD"/>
</linearGradient>
<linearGradient id="paint1_linear_1394_9398" x1="25.1873" y1="27.0923" x2="34.1853" y2="18.4229" gradientUnits="userSpaceOnUse">
<stop stop-color="#295296"/>
<stop offset="1" stop-color="#3E78D3"/>
</linearGradient>
<linearGradient id="paint2_linear_1394_9398" x1="66.0277" y1="36.5" x2="47.1161" y2="4.03039" gradientUnits="userSpaceOnUse">
<stop stop-color="#70B1FF"/>
<stop offset="1" stop-color="#005CCD"/>
</linearGradient>
<linearGradient id="paint3_linear_1394_9398" x1="9.96787" y1="29.9716" x2="14.6947" y2="41.7321" gradientUnits="userSpaceOnUse">
<stop stop-color="#558ADF"/>
<stop offset="1" stop-color="#598FE2"/>
</linearGradient>
</defs>
</svg>
