<svg width="48" height="48" viewBox="0 0 48 48" fill="none" xmlns="http://www.w3.org/2000/svg">
<path opacity="0.5" fill-rule="evenodd" clip-rule="evenodd" d="M30.3712 27.2326C29.8326 28.4622 29.1951 29.5941 28.4564 30.6347C27.4495 32.0534 26.6251 33.0353 25.9897 33.5806C25.0048 34.4757 23.9496 34.9341 22.8196 34.9602C22.0084 34.9602 21.03 34.732 19.8913 34.2693C18.7487 33.8087 17.6987 33.5806 16.7387 33.5806C15.7318 33.5806 14.6519 33.8087 13.4969 34.2693C12.34 34.732 11.4081 34.9732 10.6956 34.9971C9.61197 35.0427 8.53188 34.5713 7.45376 33.5806C6.76565 32.9875 5.90495 31.9708 4.87388 30.5304C3.76762 28.9923 2.85813 27.2087 2.14561 25.1752C1.38253 22.9788 1 20.8519 1 18.7928C1 16.4341 1.51576 14.3998 2.54881 12.695C3.36069 11.3257 4.44079 10.2456 5.79261 9.45259C7.14444 8.65962 8.60509 8.25554 10.1781 8.22969C11.0388 8.22969 12.1674 8.49278 13.5701 9.00983C14.9687 9.52862 15.8668 9.79172 16.2605 9.79172C16.5549 9.79172 17.5525 9.48409 19.2438 8.87079C20.8432 8.30203 22.193 8.06653 23.2988 8.1593C26.2953 8.39827 28.5465 9.56556 30.0437 11.6685C27.3638 13.2732 26.0381 15.5206 26.0645 18.4037C26.0887 20.6495 26.9131 22.5182 28.5333 24.0021C29.2676 24.6907 30.0876 25.223 31 25.601C30.8021 26.168 30.5933 26.7112 30.3712 27.2326Z" fill="url(#paint0_linear_1394_9405)"/>
<path fill-rule="evenodd" clip-rule="evenodd" d="M23.5 0.687647C23.5 2.40667 22.8493 4.01172 21.5524 5.49733C19.9873 7.26343 18.0942 8.28397 16.0413 8.12293C16.0152 7.9167 16 7.69965 16 7.47157C16 5.82131 16.7443 4.05521 18.0661 2.61118C18.726 1.88004 19.5652 1.27211 20.583 0.787154C21.5986 0.309432 22.5592 0.0452415 23.4626 0C23.489 0.229806 23.5 0.459627 23.5 0.687625V0.687647Z" fill="url(#paint1_linear_1394_9405)"/>
<path opacity="0.8" fill-rule="evenodd" clip-rule="evenodd" d="M47 44L42 40H10L5 44V46H47V44Z" fill="url(#paint2_linear_1394_9405)"/>
<path opacity="0.36" fill-rule="evenodd" clip-rule="evenodd" d="M10 20H42V40H10V20Z" fill="url(#paint3_linear_1394_9405)"/>
<path fill-rule="evenodd" clip-rule="evenodd" d="M28.5333 24.002C29.2676 24.6906 30.0876 25.2229 31 25.6009C30.8021 26.1679 30.5933 26.7111 30.3712 27.2325C29.8326 28.4621 29.1951 29.594 28.4564 30.6346C27.5166 31.9587 26.7358 32.9023 26.1193 33.4656L25.9897 33.5805C25.0048 34.4756 23.9496 34.934 22.8196 34.9601C22.0895 34.9601 21.224 34.7753 20.2281 34.401L19.8913 34.2692C18.7487 33.8086 17.6987 33.5805 16.7387 33.5805C15.8437 33.5805 14.891 33.7608 13.8791 34.1243L13.4969 34.2692C12.34 34.7319 11.4081 34.9731 10.6956 34.997C10.4637 35.0067 10.2321 34.9928 10.0005 34.9552L10 20L26.2291 20C26.545 21.5498 27.3137 22.885 28.5333 24.002Z" fill="url(#paint4_linear_1394_9405)"/>
<defs>
<linearGradient id="paint0_linear_1394_9405" x1="16" y1="48.4303" x2="42.6972" y2="18.6127" gradientUnits="userSpaceOnUse">
<stop stop-color="#70B1FF"/>
<stop offset="1" stop-color="#005CCD"/>
</linearGradient>
<linearGradient id="paint1_linear_1394_9405" x1="19.75" y1="-4.06977" x2="11.6376" y2="3.40519" gradientUnits="userSpaceOnUse">
<stop stop-color="#295296"/>
<stop offset="1" stop-color="#3E78D3"/>
</linearGradient>
<linearGradient id="paint2_linear_1394_9405" x1="-16" y1="43" x2="-14.32" y2="54.76" gradientUnits="userSpaceOnUse">
<stop stop-color="#8DBCFF"/>
<stop offset="1" stop-color="#4D82D5"/>
</linearGradient>
<linearGradient id="paint3_linear_1394_9405" x1="58" y1="30" x2="40.0225" y2="1.23596" gradientUnits="userSpaceOnUse">
<stop stop-color="#70B1FF"/>
<stop offset="1" stop-color="#005CCD"/>
</linearGradient>
<linearGradient id="paint4_linear_1394_9405" x1="0.692187" y1="25.8936" x2="11.4247" y2="42.8436" gradientUnits="userSpaceOnUse">
<stop stop-color="#6093E3"/>
<stop offset="1" stop-color="#6194E3"/>
</linearGradient>
</defs>
</svg>
