<svg width="48" height="48" viewBox="0 0 48 48" fill="none" xmlns="http://www.w3.org/2000/svg">
<path opacity="0.4" fill-rule="evenodd" clip-rule="evenodd" d="M16 46C24.8366 46 32 38.8366 32 30C32 21.1634 24.8366 14 16 14C7.16344 14 0 21.1634 0 30C0 38.8366 7.16344 46 16 46Z" fill="url(#paint0_linear_1394_9411)"/>
<path fill-rule="evenodd" clip-rule="evenodd" d="M16.9853 18.5V27.9853H22.9706L14.9853 41.4706V31.9853H9L16.9853 18.5Z" fill="url(#paint1_linear_1394_9411)"/>
<path opacity="0.5" fill-rule="evenodd" clip-rule="evenodd" d="M25.8923 5.00032C31.6318 1.68662 38.9709 3.65312 42.2846 9.39263C45.2574 14.5418 43.9805 20.9783 39.542 24.6407L47.1243 37.7753L43.6602 39.7753L36.0774 26.6412C30.6862 28.6544 24.473 26.5421 21.5 21.3926C18.1862 15.6531 20.1528 8.31403 25.8923 5.00032ZM27.8923 8.46443C24.0659 10.6736 22.7549 15.5663 24.9641 19.3926C27.1732 23.219 32.0659 24.53 35.8923 22.3208C39.7186 20.1117 41.0296 15.219 38.8205 11.3926C36.6113 7.56629 31.7186 6.25529 27.8923 8.46443Z" fill="url(#paint2_linear_1394_9411)"/>
<path fill-rule="evenodd" clip-rule="evenodd" d="M19.926 14.4854C21.343 14.8428 22.6849 15.3893 23.9231 16.0965C24.0203 17.2239 24.361 18.3479 24.9641 19.3924C26.1975 21.5289 28.2676 22.8811 30.5216 23.2743C31.1197 24.5627 31.5513 25.945 31.7886 27.3927C27.6811 27.3541 23.7018 25.2062 21.5 21.3924C20.2902 19.2971 19.7842 16.9885 19.9086 14.7404L19.926 14.4854Z" fill="url(#paint3_linear_1394_9411)"/>
<path opacity="0.25" fill-rule="evenodd" clip-rule="evenodd" d="M35.8923 22.3202C39.7187 20.111 41.0297 15.2183 38.8205 11.392C36.6114 7.56562 31.7187 6.25462 27.8923 8.46376C24.066 10.6729 22.755 15.5656 24.9641 19.392C27.1733 23.2183 32.066 24.5293 35.8923 22.3202Z" fill="url(#paint4_linear_1394_9411)"/>
<path fill-rule="evenodd" clip-rule="evenodd" d="M38.1603 30.249L41.6244 28.249L47.1244 37.7753L43.6603 39.7753L38.1603 30.249Z" fill="url(#paint5_linear_1394_9411)"/>
<defs>
<linearGradient id="paint0_linear_1394_9411" x1="44.0311" y1="30" x2="12.0311" y2="5.93782" gradientUnits="userSpaceOnUse">
<stop stop-color="#70B1FF"/>
<stop offset="1" stop-color="#005CCD"/>
</linearGradient>
<linearGradient id="paint1_linear_1394_9411" x1="22.9706" y1="41.4706" x2="22.9706" y2="18.5" gradientUnits="userSpaceOnUse">
<stop stop-color="#295296"/>
<stop offset="1" stop-color="#3E78D3"/>
</linearGradient>
<linearGradient id="paint2_linear_1394_9411" x1="44.7452" y1="22.2717" x2="26.8932" y2="3.87845" gradientUnits="userSpaceOnUse">
<stop stop-color="#70B1FF"/>
<stop offset="1" stop-color="#005CCD"/>
</linearGradient>
<linearGradient id="paint3_linear_1394_9411" x1="37.7377" y1="20.939" x2="24.873" y2="9.08002" gradientUnits="userSpaceOnUse">
<stop stop-color="#75A7F3"/>
<stop offset="1" stop-color="#558ADE"/>
</linearGradient>
<linearGradient id="paint4_linear_1394_9411" x1="20.3199" y1="15.8377" x2="31.2921" y2="26.965" gradientUnits="userSpaceOnUse">
<stop stop-color="#7FB8FF"/>
<stop offset="1" stop-color="#005CCD"/>
</linearGradient>
<linearGradient id="paint5_linear_1394_9411" x1="59.4279" y1="36.3155" x2="40.6805" y2="18.7941" gradientUnits="userSpaceOnUse">
<stop stop-color="#295296"/>
<stop offset="1" stop-color="#3E78D3"/>
</linearGradient>
</defs>
</svg>
