<svg width="48" height="48" viewBox="0 0 48 48" fill="none" xmlns="http://www.w3.org/2000/svg">
<path opacity="0.45" fill-rule="evenodd" clip-rule="evenodd" d="M5.5 12C3.567 12 2 13.567 2 15.5V42.5C2 44.433 3.567 46 5.5 46H23.5C25.433 46 27 44.433 27 42.5V15.5C27 13.567 25.433 12 23.5 12H5.5ZM22.5 41C23.3284 41 24 41.6716 24 42.5C24 43.3284 23.3284 44 22.5 44C21.6716 44 21 43.3284 21 42.5C21 41.6716 21.6716 41 22.5 41Z" fill="url(#paint0_linear_1394_9420)"/>
<path opacity="0.5" fill-rule="evenodd" clip-rule="evenodd" d="M15.9982 16.9995C15.9995 13.1164 17.5061 9.2807 20.3934 6.3934C26.2513 0.535534 35.7487 0.535534 41.6066 6.3934C47.4645 12.2513 47.4645 21.7487 41.6066 27.6066C36.1601 33.0531 27.5672 33.4356 21.6788 28.7541L24.0341 25.5143C28.355 29.058 34.7437 28.8127 38.7782 24.7782C43.0739 20.4824 43.0739 13.5176 38.7782 9.22183C34.4824 4.92606 27.5176 4.92606 23.2218 9.22183C21.1057 11.3379 20.0008 14.1484 19.9982 16.9941L20 17H23L18 24L13 17L15.9982 16.9995Z" fill="url(#paint1_linear_1394_9420)"/>
<path fill-rule="evenodd" clip-rule="evenodd" d="M24.0341 25.5146C24.9448 26.2615 25.9473 26.8401 27.0003 27.2504L27.0004 31.46C25.104 30.9373 23.2901 30.0354 21.6788 28.7544L24.0341 25.5146Z" fill="url(#paint2_linear_1394_9420)"/>
<path fill-rule="evenodd" clip-rule="evenodd" d="M19.9982 16.9943L20 17.0002H23L18 24.0002L13 17.0002L15.9982 16.9996C15.9987 15.2989 16.2881 13.6072 16.8557 12.0003L21.2003 12C20.4072 13.5536 19.9998 15.2675 19.9982 16.9943Z" fill="url(#paint3_linear_1394_9420)"/>
<path fill-rule="evenodd" clip-rule="evenodd" d="M5.5 39C3.567 39 2 40.567 2 42.5C2 44.433 3.567 46 5.5 46H23.5C25.433 46 27 44.433 27 42.5C27 40.567 25.433 39 23.5 39H5.5ZM22.5 41C23.3284 41 24 41.6716 24 42.5C24 43.3284 23.3284 44 22.5 44C21.6716 44 21 43.3284 21 42.5C21 41.6716 21.6716 41 22.5 41Z" fill="url(#paint4_linear_1394_9420)"/>
<path opacity="0.6" fill-rule="evenodd" clip-rule="evenodd" d="M32.5 9.04297V16.3795L38.0607 21.9398L35.9393 24.0611L29.5 17.6218V9.04297H32.5Z" fill="url(#paint5_linear_1394_9420)"/>
<defs>
<linearGradient id="paint0_linear_1394_9420" x1="13.8035" y1="-5" x2="-19.183" y2="20.6062" gradientUnits="userSpaceOnUse">
<stop stop-color="#70B1FF"/>
<stop offset="1" stop-color="#005CCD"/>
</linearGradient>
<linearGradient id="paint1_linear_1394_9420" x1="67.7876" y1="25.0331" x2="39.2437" y2="-9.56944" gradientUnits="userSpaceOnUse">
<stop stop-color="#70B1FF"/>
<stop offset="1" stop-color="#005CCD"/>
</linearGradient>
<linearGradient id="paint2_linear_1394_9420" x1="19.7162" y1="30.0472" x2="25.4386" y2="33.8254" gradientUnits="userSpaceOnUse">
<stop stop-color="#5E92E7"/>
<stop offset="1" stop-color="#6397EA"/>
</linearGradient>
<linearGradient id="paint3_linear_1394_9420" x1="23" y1="24.0002" x2="23" y2="12" gradientUnits="userSpaceOnUse">
<stop stop-color="#295296"/>
<stop offset="1" stop-color="#3E78D3"/>
</linearGradient>
<linearGradient id="paint4_linear_1394_9420" x1="-10.5" y1="42.5" x2="-6.86499" y2="55.4822" gradientUnits="userSpaceOnUse">
<stop stop-color="#5180D4"/>
<stop offset="1" stop-color="#689AED"/>
</linearGradient>
<linearGradient id="paint5_linear_1394_9420" x1="25.2197" y1="16.5521" x2="38.1422" y2="23.9181" gradientUnits="userSpaceOnUse">
<stop stop-color="#70B1FF"/>
<stop offset="1" stop-color="#005CCD"/>
</linearGradient>
</defs>
</svg>
