<svg width="48" height="48" viewBox="0 0 48 48" fill="none" xmlns="http://www.w3.org/2000/svg">
<g clip-path="url(#clip0_1394_9453)">
<path opacity="0.275529" fill-rule="evenodd" clip-rule="evenodd" d="M0 5H44V34H0V5Z" fill="url(#paint0_linear_1394_9453)"/>
<path opacity="0.55" fill-rule="evenodd" clip-rule="evenodd" d="M42 0C43.0544 0 43.9182 0.815878 43.9945 1.85074L44 2V5H0V2C0 0.945638 0.815878 0.0818349 1.85074 0.00548574L2 0H42ZM36 1C35.1716 1 34.5 1.67157 34.5 2.5C34.5 3.32843 35.1716 4 36 4C36.8284 4 37.5 3.32843 37.5 2.5C37.5 1.67157 36.8284 1 36 1Z" fill="url(#paint1_linear_1394_9453)"/>
<path fill-rule="evenodd" clip-rule="evenodd" d="M40.5 4C41.3284 4 42 3.32843 42 2.5C42 1.67157 41.3284 1 40.5 1C39.6716 1 39 1.67157 39 2.5C39 3.32843 39.6716 4 40.5 4Z" fill="url(#paint2_linear_1394_9453)"/>
<path opacity="0.345529" fill-rule="evenodd" clip-rule="evenodd" d="M16 10H48V13H16V10Z" fill="url(#paint3_linear_1394_9453)"/>
<path fill-rule="evenodd" clip-rule="evenodd" d="M16 10H44V13H16V10Z" fill="url(#paint4_linear_1394_9453)"/>
<path fill-rule="evenodd" clip-rule="evenodd" d="M16 16H38V19H16V16Z" fill="url(#paint5_linear_1394_9453)"/>
<path fill-rule="evenodd" clip-rule="evenodd" d="M16 22H28V25H16V22Z" fill="url(#paint6_linear_1394_9453)"/>
<path opacity="0.6" fill-rule="evenodd" clip-rule="evenodd" d="M40.2791 34L24 28L30.0465 44.2791L33.7674 40.5581L41.2093 48L44 45.2093L36.5581 37.7674L40.2791 34Z" fill="url(#paint7_linear_1394_9453)"/>
<path fill-rule="evenodd" clip-rule="evenodd" d="M24 28L40.2791 34H26.228L24 28Z" fill="url(#paint8_linear_1394_9453)"/>
<path opacity="0.55" fill-rule="evenodd" clip-rule="evenodd" d="M3 10H13V25H3V10Z" fill="url(#paint9_linear_1394_9453)"/>
</g>
<defs>
<linearGradient id="paint0_linear_1394_9453" x1="22" y1="-9.5" x2="-4.65034" y2="30.935" gradientUnits="userSpaceOnUse">
<stop stop-color="#70B1FF"/>
<stop offset="1" stop-color="#005CCD"/>
</linearGradient>
<linearGradient id="paint1_linear_1394_9453" x1="22" y1="-2.5" x2="20.8781" y2="7.37251" gradientUnits="userSpaceOnUse">
<stop stop-color="#70B1FF"/>
<stop offset="1" stop-color="#005CCD"/>
</linearGradient>
<linearGradient id="paint2_linear_1394_9453" x1="49.755" y1="3.57091" x2="42.2244" y2="-4.04056" gradientUnits="userSpaceOnUse">
<stop stop-color="#295296"/>
<stop offset="1" stop-color="#3E78D3"/>
</linearGradient>
<linearGradient id="paint3_linear_1394_9453" x1="32" y1="14.5" x2="32.5576" y2="8.55227" gradientUnits="userSpaceOnUse">
<stop stop-color="#70B1FF"/>
<stop offset="1" stop-color="#005CCD"/>
</linearGradient>
<linearGradient id="paint4_linear_1394_9453" x1="30" y1="14.5" x2="30.6356" y2="8.5681" gradientUnits="userSpaceOnUse">
<stop stop-color="#97BFF7"/>
<stop offset="1" stop-color="#88B2EF"/>
</linearGradient>
<linearGradient id="paint5_linear_1394_9453" x1="27" y1="20.5" x2="27.8032" y2="14.6095" gradientUnits="userSpaceOnUse">
<stop stop-color="#97BFF7"/>
<stop offset="1" stop-color="#88B2EF"/>
</linearGradient>
<linearGradient id="paint6_linear_1394_9453" x1="22" y1="26.5" x2="23.4118" y2="20.8529" gradientUnits="userSpaceOnUse">
<stop stop-color="#97BFF7"/>
<stop offset="1" stop-color="#88B2EF"/>
</linearGradient>
<linearGradient id="paint7_linear_1394_9453" x1="48.833" y1="39.9702" x2="32.7734" y2="25.0269" gradientUnits="userSpaceOnUse">
<stop stop-color="#70B1FF"/>
<stop offset="1" stop-color="#005CCD"/>
</linearGradient>
<linearGradient id="paint8_linear_1394_9453" x1="13.8878" y1="29.8405" x2="15.5213" y2="38.8151" gradientUnits="userSpaceOnUse">
<stop stop-color="#295296"/>
<stop offset="1" stop-color="#3E78D3"/>
</linearGradient>
<linearGradient id="paint9_linear_1394_9453" x1="-7.16166" y1="13.9315" x2="11.502" y2="27.12" gradientUnits="userSpaceOnUse">
<stop stop-color="#70B1FF" stop-opacity="0.7"/>
<stop offset="1" stop-color="#005CCD"/>
</linearGradient>
<clipPath id="clip0_1394_9453">
<rect width="48" height="48" fill="white"/>
</clipPath>
</defs>
</svg>
