<svg width="48" height="48" viewBox="0 0 48 48" fill="none" xmlns="http://www.w3.org/2000/svg">
<path opacity="0.5" d="M22.9495 2.88482C29.5953 -0.995114 38.0939 1.30716 41.9309 8.02739C45.4308 14.1572 43.8438 21.8457 38.4944 26.0938L47.0003 40.9922L43.5618 43.0001L35.0559 28.1016C28.7428 30.6628 21.3636 28.2083 17.8635 22.0782C14.0266 15.3581 16.3039 6.76484 22.9495 2.88482ZM38.4924 10.0342C35.7516 5.23439 29.6817 3.59008 24.9348 6.36138C20.1879 9.13271 18.5616 15.2703 21.302 20.0704C24.0427 24.8705 30.1126 26.5155 34.8596 23.7442C39.6067 20.9728 41.2331 14.8344 38.4924 10.0342Z" fill="url(#paint0_linear_1394_9478)"/>
<path d="M21.302 20.0712C23.1568 23.3198 26.5366 25.1231 29.9991 25.0904L29.999 29.1057C25.1657 29.1369 20.4534 26.6137 17.8639 22.0784C15.6804 18.2542 15.4768 13.8236 16.9315 10.0001L21.3202 10C19.5909 13.0077 19.4584 16.8421 21.302 20.0712Z" fill="url(#paint1_linear_1394_9478)"/>
<path fill-rule="evenodd" clip-rule="evenodd" d="M41.12 30.6934L47 40.9931L43.5619 43.0004L37.672 32.6844L41.12 30.6934Z" fill="url(#paint2_linear_1394_9478)"/>
<path opacity="0.34" fill-rule="evenodd" clip-rule="evenodd" d="M24.9348 6.3609C20.1878 9.13228 18.5614 15.2702 21.3021 20.0704C24.0428 24.8706 30.1128 26.5152 34.8598 23.7439C39.6068 20.9725 41.2333 14.8345 38.4926 10.0344C35.7519 5.23418 29.6819 3.58952 24.9348 6.3609Z" fill="url(#paint3_linear_1394_9478)"/>
<path opacity="0.35" fill-rule="evenodd" clip-rule="evenodd" d="M30 10H11L3 18V45H30L30 10Z" fill="url(#paint4_linear_1394_9478)"/>
<path fill-rule="evenodd" clip-rule="evenodd" d="M11 10L3 18H11V10Z" fill="url(#paint5_linear_1394_9478)"/>
<path opacity="0.5" d="M41.8915 5L44 7.09746L30.0241 21L24 15.0075L26.1085 12.91L30.0241 16.8054L41.8915 5Z" fill="url(#paint6_linear_1394_9478)"/>
<path d="M41.9307 8.02752C42.0699 8.27138 42.2011 8.5177 42.3243 8.76618L39.2847 11.7888C39.0805 11.1905 38.8172 10.6033 38.4926 10.0347C38.2919 9.68335 38.0735 9.34887 37.839 9.0318L40.6877 6.19727C41.142 6.76466 41.5583 7.37529 41.9307 8.02752Z" fill="url(#paint7_linear_1394_9478)"/>
<path fill-rule="evenodd" clip-rule="evenodd" d="M26.1085 13L30 16.839V21L24 15.0806L26.1085 13Z" fill="url(#paint8_linear_1394_9478)"/>
<defs>
<linearGradient id="paint0_linear_1394_9478" x1="50.4883" y1="22.1504" x2="23.4829" y2="2.56167" gradientUnits="userSpaceOnUse">
<stop stop-color="#70B1FF"/>
<stop offset="1" stop-color="#005CCD"/>
</linearGradient>
<linearGradient id="paint1_linear_1394_9478" x1="36.9987" y1="20.3097" x2="19.7971" y2="6.6217" gradientUnits="userSpaceOnUse">
<stop stop-color="#74A4F0"/>
<stop offset="1" stop-color="#5C92E2"/>
</linearGradient>
<linearGradient id="paint2_linear_1394_9478" x1="48.334" y1="41.2229" x2="43.897" y2="29.58" gradientUnits="userSpaceOnUse">
<stop stop-color="#295296"/>
<stop offset="1" stop-color="#3E78D3"/>
</linearGradient>
<linearGradient id="paint3_linear_1394_9478" x1="29.9068" y1="0.72968" x2="15.521" y2="14.5278" gradientUnits="userSpaceOnUse">
<stop stop-color="#84B4FA"/>
<stop offset="1" stop-color="#4E82D5"/>
</linearGradient>
<linearGradient id="paint4_linear_1394_9478" x1="43.5" y1="27.5" x2="9.64637" y2="53.6157" gradientUnits="userSpaceOnUse">
<stop stop-color="#70B1FF"/>
<stop offset="1" stop-color="#005CCD"/>
</linearGradient>
<linearGradient id="paint5_linear_1394_9478" x1="12.1125" y1="10.8445" x2="14.0847" y2="17.0139" gradientUnits="userSpaceOnUse">
<stop stop-color="#85B0F3"/>
<stop offset="1" stop-color="#699BE6"/>
</linearGradient>
<linearGradient id="paint6_linear_1394_9478" x1="32.0911" y1="0.257682" x2="23.7198" y2="17.9101" gradientUnits="userSpaceOnUse">
<stop stop-color="#70B1FF"/>
<stop offset="1" stop-color="#005CCD"/>
</linearGradient>
<linearGradient id="paint7_linear_1394_9478" x1="40.7149" y1="13.4563" x2="44.1718" y2="9.80516" gradientUnits="userSpaceOnUse">
<stop stop-color="#5B91E7"/>
<stop offset="1" stop-color="#6096EB"/>
</linearGradient>
<linearGradient id="paint8_linear_1394_9478" x1="22.5498" y1="19.8845" x2="29.8667" y2="22.2158" gradientUnits="userSpaceOnUse">
<stop stop-color="#295296"/>
<stop offset="1" stop-color="#3E78D3"/>
</linearGradient>
</defs>
</svg>
