<svg width="48" height="48" viewBox="0 0 48 48" fill="none" xmlns="http://www.w3.org/2000/svg">
<path opacity="0.35" fill-rule="evenodd" clip-rule="evenodd" d="M24.2617 47.1933L11.7648 37.0396C8.73484 34.5777 6.97559 30.8816 6.97559 26.9776V5.59863H41.5478V26.9776C41.5478 30.8816 39.7885 34.5777 36.7586 37.0396L24.2617 47.1933Z" fill="url(#paint0_linear_1394_9502)"/>
<path d="M23.1943 9.7002H19.9268C19.9086 20.3541 11.528 29.1436 1 29.1436V23.626C8.30862 23.626 14.3912 17.4818 14.4092 9.7002H11.1484L17.1709 1L23.1943 9.7002Z" fill="url(#paint1_linear_1394_9502)"/>
<path d="M23.1943 9.7002H19.9248C19.8566 18.1652 14.5104 25.4314 7.0166 28.0117C6.98921 27.6691 6.97559 27.3241 6.97559 26.9775V22.0332C11.3123 19.781 14.3475 15.1503 14.4072 9.7002H11.1484L13.9873 5.59863H20.3545L23.1943 9.7002Z" fill="url(#paint2_linear_1394_9502)"/>
<path opacity="0.45" fill-rule="evenodd" clip-rule="evenodd" d="M24.2615 47.1933V5.59863H41.5476V26.9776C41.5476 30.8816 39.7883 34.5777 36.7584 37.0396L24.2615 47.1933Z" fill="url(#paint3_linear_1394_9502)"/>
<path opacity="0.5" d="M47.0963 36.166H18.9264L33.0114 11.6709L47.0963 36.166ZM33.0114 30.043C31.9967 30.043 31.1744 30.8653 31.1744 31.8799C31.1745 32.8945 31.9968 33.7168 33.0114 33.7168C34.0259 33.7168 34.8482 32.8945 34.8483 31.8799C34.8483 30.8652 34.026 30.043 33.0114 30.043ZM31.7906 28.2051H34.233L34.8483 19.6318H31.1744L31.7906 28.2051Z" fill="url(#paint4_linear_1394_9502)"/>
<path d="M41.5474 26.5156V26.9775C41.5474 30.4441 40.1592 33.7459 37.7271 36.166H24.2612V26.8877L33.0112 11.6709L41.5474 26.5156ZM33.0112 30.043C31.9966 30.043 31.1743 30.8652 31.1743 31.8799C31.1745 32.8944 31.9967 33.7168 33.0112 33.7168C34.0256 33.7166 34.848 32.8943 34.8481 31.8799C34.8481 30.8654 34.0257 30.0432 33.0112 30.043ZM31.7896 28.2051H34.2319L34.8481 19.6318H31.1743L31.7896 28.2051Z" fill="url(#paint5_linear_1394_9502)"/>
<defs>
<linearGradient id="paint0_linear_1394_9502" x1="-13.4195" y1="60.6622" x2="36.268" y2="71.4688" gradientUnits="userSpaceOnUse">
<stop stop-color="#70B1FF"/>
<stop offset="1" stop-color="#005CCD"/>
</linearGradient>
<linearGradient id="paint1_linear_1394_9502" x1="12.0972" y1="39.0586" x2="33.0225" y2="15.6387" gradientUnits="userSpaceOnUse">
<stop stop-color="#AACDF6"/>
<stop offset="1" stop-color="#A8CBF5"/>
</linearGradient>
<linearGradient id="paint2_linear_1394_9502" x1="6.75736" y1="16.5463" x2="14.6014" y2="22.4435" gradientUnits="userSpaceOnUse">
<stop stop-color="#295296"/>
<stop offset="1" stop-color="#3E78D3"/>
</linearGradient>
<linearGradient id="paint3_linear_1394_9502" x1="14.0639" y1="60.6622" x2="39.7788" y2="63.4586" gradientUnits="userSpaceOnUse">
<stop stop-color="#70B1FF"/>
<stop offset="1" stop-color="#005CCD"/>
</linearGradient>
<linearGradient id="paint4_linear_1394_9502" x1="20.5356" y1="3.3458" x2="5.04248" y2="32.7468" gradientUnits="userSpaceOnUse">
<stop stop-color="#70B1FF"/>
<stop offset="1" stop-color="#005CCD"/>
</linearGradient>
<linearGradient id="paint5_linear_1394_9502" x1="24.0286" y1="23.5689" x2="32.506" y2="29.8191" gradientUnits="userSpaceOnUse">
<stop stop-color="#295296"/>
<stop offset="1" stop-color="#3E78D3"/>
</linearGradient>
</defs>
</svg>
