<svg width="48" height="48" viewBox="0 0 48 48" fill="none" xmlns="http://www.w3.org/2000/svg">
<path opacity="0.4" fill-rule="evenodd" clip-rule="evenodd" d="M22.5 41.5H5.5V45.5H44V41.5H26.5V20H22.5V41.5Z" fill="url(#paint0_linear_1394_9552)"/>
<rect x="17.5" y="40.5" width="14" height="6" fill="url(#paint1_linear_1394_9552)"/>
<path opacity="0.4" fill-rule="evenodd" clip-rule="evenodd" d="M12.0821 33.9997C12.1026 33.9999 12.123 34 12.1435 34H36.8565C39.9736 34 42.5 31.314 42.5 28C42.5 24.686 39.9736 22 36.8565 22H34.4893C34.2275 15.8808 29.1837 11 23 11C19.4063 11 16.1976 12.6484 14.0888 15.2304C13.4167 15.0796 12.7176 15 12 15C6.75396 15 2.5 19.2533 2.5 24.5C2.5 29.7467 6.75396 34 12 34C12.0274 34 12.0548 33.9999 12.0821 33.9997V33.9997Z" fill="url(#paint2_linear_1394_9552)"/>
<path opacity="0.4" fill-rule="evenodd" clip-rule="evenodd" d="M39.5859 15H40.3565C43.4736 15 46 17.686 46 21C46 24.314 43.4736 27 40.3565 27C21.5205 26.9999 12.0684 26.9999 12 27C6.75396 27 2.5 22.7467 2.5 17.5C2.5 12.6635 6.11481 8.67112 10.7893 8.07643C11.6094 5.42567 14.0798 3.5 17 3.5C18.4048 3.5 19.7054 3.94562 20.7684 4.70321C22.7835 2.4316 25.7246 1 29 1C35.0751 1 40 5.92487 40 12C40 13.04 39.8557 14.0463 39.5859 15V15Z" fill="url(#paint3_linear_1394_9552)"/>
<path d="M42.3491 26.6154C41.7295 26.864 41.058 27 40.3565 27C21.5206 26.9999 12.0684 26.9999 12.0001 27C7.98986 27 4.55938 24.5146 3.16565 21C4.55938 17.4854 7.98986 15 12.0001 15C12.7177 15 13.4167 15.0796 14.0888 15.2304C16.1977 12.6484 19.4064 11 23.0001 11C29.1837 11 34.2276 15.8808 34.4894 22H36.8565C39.5254 22 41.7612 23.969 42.3491 26.6154Z" fill="url(#paint4_linear_1394_9552)"/>
<path d="M22.5 20H26.5V27H22.5V20Z" fill="url(#paint5_linear_1394_9552)"/>
<defs>
<linearGradient id="paint0_linear_1394_9552" x1="-27.6309" y1="38.9456" x2="0.137415" y2="77.276" gradientUnits="userSpaceOnUse">
<stop stop-color="#70B1FF"/>
<stop offset="1" stop-color="#005CCD"/>
</linearGradient>
<linearGradient id="paint1_linear_1394_9552" x1="20.9222" y1="51.59" x2="27.3543" y2="39.2565" gradientUnits="userSpaceOnUse">
<stop stop-color="#295296"/>
<stop offset="1" stop-color="#3E78D3"/>
</linearGradient>
<linearGradient id="paint2_linear_1394_9552" x1="24.6153" y1="1.93264" x2="3.55821" y2="34.6804" gradientUnits="userSpaceOnUse">
<stop stop-color="#70B1FF"/>
<stop offset="1" stop-color="#005CCD"/>
</linearGradient>
<linearGradient id="paint3_linear_1394_9552" x1="26.5504" y1="-9.25005" x2="2.37632" y2="26.9173" gradientUnits="userSpaceOnUse">
<stop stop-color="#70B1FF"/>
<stop offset="1" stop-color="#005CCD"/>
</linearGradient>
<linearGradient id="paint4_linear_1394_9552" x1="23.5397" y1="7.56507" x2="9.99768" y2="26.542" gradientUnits="userSpaceOnUse">
<stop stop-color="#87B3F4"/>
<stop offset="1" stop-color="#6293DE"/>
</linearGradient>
<linearGradient id="paint5_linear_1394_9552" x1="20.5" y1="24.4615" x2="25.436" y2="28.3505" gradientUnits="userSpaceOnUse">
<stop stop-color="#4A80DD"/>
<stop offset="1" stop-color="#4176D5"/>
</linearGradient>
</defs>
</svg>
