<svg width="48" height="48" viewBox="0 0 48 48" fill="none" xmlns="http://www.w3.org/2000/svg">
<path opacity="0.45" d="M38.4998 31.9873H3.99976V22H38.4998V31.9873ZM8.99292 25.6318C8.24099 25.6319 7.63178 26.2413 7.63159 26.9932C7.63159 27.7452 8.24088 28.3554 8.99292 28.3555C9.74504 28.3555 10.3552 27.7453 10.3552 26.9932C10.355 26.2412 9.74493 25.6318 8.99292 25.6318Z" fill="url(#paint0_linear_1394_9566)"/>
<rect opacity="0.45" x="3.99976" y="34.5" width="34.5" height="10" fill="url(#paint1_linear_1394_9566)"/>
<path fill-rule="evenodd" clip-rule="evenodd" d="M38.4998 32V34.5H3.99976V32H38.4998Z" fill="url(#paint2_linear_1394_9566)"/>
<path fill-rule="evenodd" clip-rule="evenodd" d="M8.99988 40.5C9.82831 40.5 10.4999 39.9404 10.4999 39.25C10.4999 38.5596 9.82831 38 8.99988 38C8.17145 38 7.49988 38.5596 7.49988 39.25C7.49988 39.9404 8.17145 40.5 8.99988 40.5Z" fill="url(#paint3_linear_1394_9566)"/>
<path fill-rule="evenodd" clip-rule="evenodd" d="M14.4998 28C15.3282 28 15.9998 27.3284 15.9998 26.5C15.9998 25.6716 15.3282 25 14.4998 25C13.6713 25 12.9998 25.6716 12.9998 26.5C12.9998 27.3284 13.6713 28 14.4998 28Z" fill="url(#paint4_linear_1394_9566)"/>
<path fill-rule="evenodd" clip-rule="evenodd" d="M14.4998 40.5C15.3282 40.5 15.9998 39.9404 15.9998 39.25C15.9998 38.5596 15.3282 38 14.4998 38C13.6713 38 12.9998 38.5596 12.9998 39.25C12.9998 39.9404 13.6713 40.5 14.4998 40.5Z" fill="url(#paint5_linear_1394_9566)"/>
<path opacity="0.45" fill-rule="evenodd" clip-rule="evenodd" d="M26.5 4H40.5C42.433 4 44 5.567 44 7.5V26.5002C44 28.4332 42.433 30.0002 40.5 30.0002H26.5C24.567 30.0002 23 28.4332 23 26.5002V7.5C23 5.567 24.567 4 26.5 4ZM27.4998 28.0003C28.3282 28.0003 28.9998 27.3287 28.9998 26.5003C28.9998 25.6719 28.3282 25.0003 27.4998 25.0003C26.6714 25.0003 25.9998 25.6719 25.9998 26.5003C25.9998 27.3287 26.6714 28.0003 27.4998 28.0003Z" fill="url(#paint6_linear_1394_9566)"/>
<path d="M40.5 23C42.433 23 44 24.567 44 26.5C44 28.433 42.433 30 40.5 30H26.5C24.567 30 23 28.433 23 26.5C23 24.567 24.567 23 26.5 23H40.5ZM27.5 25C26.6716 25 26 25.6716 26 26.5C26.0001 27.3284 26.6716 28 27.5 28C28.3283 27.9999 28.9999 27.3283 29 26.5C29 25.6717 28.3283 25.0001 27.5 25Z" fill="#386DC1"/>
<defs>
<linearGradient id="paint0_linear_1394_9566" x1="21.2498" y1="17.0063" x2="15.9145" y2="35.4365" gradientUnits="userSpaceOnUse">
<stop stop-color="#70B1FF"/>
<stop offset="1" stop-color="#005CCD"/>
</linearGradient>
<linearGradient id="paint1_linear_1394_9566" x1="-13.2502" y1="39.5" x2="-7.90244" y2="57.9499" gradientUnits="userSpaceOnUse">
<stop stop-color="#70B1FF"/>
<stop offset="1" stop-color="#005CCD"/>
</linearGradient>
<linearGradient id="paint2_linear_1394_9566" x1="21.4725" y1="36.757" x2="21.9749" y2="29.8076" gradientUnits="userSpaceOnUse">
<stop stop-color="#295296"/>
<stop offset="1" stop-color="#3E78D3"/>
</linearGradient>
<linearGradient id="paint3_linear_1394_9566" x1="9.12341" y1="34.896" x2="4.52197" y2="39.8098" gradientUnits="userSpaceOnUse">
<stop stop-color="#6FA2EC"/>
<stop offset="1" stop-color="#5C90DF"/>
</linearGradient>
<linearGradient id="paint4_linear_1394_9566" x1="14.6233" y1="21.2752" x2="9.12708" y2="26.1663" gradientUnits="userSpaceOnUse">
<stop stop-color="#6FA2EC"/>
<stop offset="1" stop-color="#5C90DF"/>
</linearGradient>
<linearGradient id="paint5_linear_1394_9566" x1="14.5191" y1="42.757" x2="17.9533" y2="38.6262" gradientUnits="userSpaceOnUse">
<stop stop-color="#295296"/>
<stop offset="1" stop-color="#3E78D3"/>
</linearGradient>
<linearGradient id="paint6_linear_1394_9566" x1="33.5" y1="43.0003" x2="58.9182" y2="22.4703" gradientUnits="userSpaceOnUse">
<stop stop-color="#70B1FF"/>
<stop offset="1" stop-color="#005CCD"/>
</linearGradient>
</defs>
</svg>
