<svg width="48" height="48" viewBox="0 0 48 48" fill="none" xmlns="http://www.w3.org/2000/svg">
<g clip-path="url(#clip0_1394_9583)">
<rect opacity="0.5" x="15.2893" y="7.63672" width="17.4118" height="26.1176" rx="8.70588" fill="url(#paint0_linear_1394_9583)"/>
<path opacity="0.5" d="M24 0C25.1046 4.82824e-08 26 0.895431 26 2V20C26 21.1046 25.1046 22 24 22C22.8954 22 22 21.1046 22 20V2C22 0.895431 22.8954 -4.82824e-08 24 0ZM17 3C18.1046 3 19 3.89543 19 5V17C19 18.1046 18.1046 19 17 19C15.8954 19 15 18.1046 15 17V5C15 3.89543 15.8954 3 17 3ZM31 3C32.1046 3 33 3.89543 33 5V17C33 18.1046 32.1046 19 31 19C29.8954 19 29 18.1046 29 17V5C29 3.89543 29.8954 3 31 3ZM10 5.5C11.1046 5.5 12 6.39543 12 7.5V14.5C12 15.6046 11.1046 16.5 10 16.5C8.89543 16.5 8 15.6046 8 14.5V7.5C8 6.39543 8.89543 5.5 10 5.5ZM38 5.5C39.1046 5.5 40 6.39543 40 7.5V14.5C40 15.6046 39.1046 16.5 38 16.5C36.8954 16.5 36 15.6046 36 14.5V7.5C36 6.39543 36.8954 5.5 38 5.5ZM3 8.5C4.10457 8.5 5 9.39543 5 10.5V11.5C5 12.6046 4.10457 13.5 3 13.5C1.89543 13.5 1 12.6046 1 11.5V10.5C1 9.39543 1.89543 8.5 3 8.5ZM45 8.5C46.1046 8.5 47 9.39543 47 10.5V11.5C47 12.6046 46.1046 13.5 45 13.5C43.8954 13.5 43 12.6046 43 11.5V10.5C43 9.39543 43.8954 8.5 45 8.5Z" fill="url(#paint1_linear_1394_9583)"/>
<path opacity="0.5" d="M36.4386 23.1816C37.493 23.1816 38.3478 24.0365 38.3478 25.0908C38.3477 32.4589 32.8633 38.5448 25.754 39.4912V44.1816H30.0909C31.1452 44.1818 32.0001 45.0365 32.0001 46.0908C32.0001 47.1451 31.1452 47.9999 30.0909 48H17.4093C16.355 48 15.5002 47.1451 15.5001 46.0908C15.5001 45.0365 16.3549 44.1816 17.4093 44.1816H21.9357V39.498C14.8009 38.5747 9.28923 32.477 9.28918 25.0908C9.28918 24.0365 10.144 23.1816 11.1984 23.1816C12.2527 23.1817 13.1075 24.0365 13.1075 25.0908C13.1076 31.0064 17.9029 35.8017 23.8185 35.8018C29.7341 35.8018 34.5294 31.0064 34.5294 25.0908C34.5294 24.0366 35.3844 23.1818 36.4386 23.1816Z" fill="url(#paint2_linear_1394_9583)"/>
<path d="M23.9954 7.63672C24.6855 7.63673 25.3564 7.71929 26.0002 7.87109V20C26.0002 21.1045 25.1047 21.9999 24.0002 22C22.8957 22 22.0002 21.1046 22.0002 20V7.86914C22.6411 7.71885 23.3087 7.63672 23.9954 7.63672ZM19.0002 17C19.0002 18.1045 18.1047 18.9999 17.0002 19C16.2734 19 15.6395 18.6111 15.2893 18.0312V16.3428C15.2893 13.3937 16.7569 10.7887 19.0002 9.21387V17ZM29.0002 9.2207C31.238 10.7962 32.7014 13.3981 32.7014 16.3428V18.0479C32.3493 18.6186 31.7201 18.9999 31.0002 19C29.8957 19 29.0002 18.1046 29.0002 17V9.2207Z" fill="url(#paint3_linear_1394_9583)"/>
</g>
<defs>
<linearGradient id="paint0_linear_1394_9583" x1="23.9952" y1="46.8132" x2="48.1038" y2="30.7408" gradientUnits="userSpaceOnUse">
<stop stop-color="#70B1FF"/>
<stop offset="1" stop-color="#005CCD"/>
</linearGradient>
<linearGradient id="paint1_linear_1394_9583" x1="24" y1="33" x2="41.1262" y2="-2.80923" gradientUnits="userSpaceOnUse">
<stop stop-color="#70B1FF"/>
<stop offset="1" stop-color="#005CCD"/>
</linearGradient>
<linearGradient id="paint2_linear_1394_9583" x1="23.8185" y1="60.4092" x2="48.3313" y2="31.7083" gradientUnits="userSpaceOnUse">
<stop stop-color="#70B1FF"/>
<stop offset="1" stop-color="#005CCD"/>
</linearGradient>
<linearGradient id="paint3_linear_1394_9583" x1="15.7909" y1="33.1416" x2="32.7771" y2="19.7944" gradientUnits="userSpaceOnUse">
<stop stop-color="#295296"/>
<stop offset="1" stop-color="#3E78D3"/>
</linearGradient>
<clipPath id="clip0_1394_9583">
<rect width="48" height="48" fill="white"/>
</clipPath>
</defs>
</svg>
