<svg width="48" height="48" viewBox="0 0 48 48" fill="none" xmlns="http://www.w3.org/2000/svg">
<path opacity="0.35" fill-rule="evenodd" clip-rule="evenodd" d="M3 5.5C3 4.39543 3.89543 3.5 5 3.5H38C39.1046 3.5 40 4.39543 40 5.5V33.5C40 34.6046 39.1046 35.5 38 35.5H5C3.89543 35.5 3 34.6046 3 33.5V5.5Z" fill="url(#paint0_linear_1394_9607)"/>
<g opacity="0.55" style="mix-blend-mode:multiply">
<path fill-rule="evenodd" clip-rule="evenodd" d="M13.5 19C17.6421 19 21 22.3579 21 26.5V29.5H6V26.5C6 22.3579 9.35786 19 13.5 19V19ZM13.5 17.5C11.0147 17.5 9 15.4853 9 13C9 10.5147 11.0147 8.5 13.5 8.5C15.9853 8.5 18 10.5147 18 13C18 15.4853 15.9853 17.5 13.5 17.5Z" fill="url(#paint1_linear_1394_9607)"/>
</g>
<path opacity="0.6" fill-rule="evenodd" clip-rule="evenodd" d="M34.5 26.5C38.9183 26.5 42.5 30.0817 42.5 34.5C42.5 38.9183 38.9183 42.5 34.5 42.5C30.0817 42.5 26.5 38.9183 26.5 34.5C26.5 32.7587 27.0563 31.1474 28.0009 29.834L24.7514 27.501C23.3345 29.471 22.5 31.8881 22.5 34.5C22.5 41.1274 27.8726 46.5 34.5 46.5C41.1274 46.5 46.5 41.1274 46.5 34.5C46.5 27.8726 41.1274 22.5 34.5 22.5V20L28 24.5L34.5 29V26.5Z" fill="url(#paint2_linear_1394_9607)"/>
<path fill-rule="evenodd" clip-rule="evenodd" d="M40 23.8318V28.6905C38.5663 27.3328 36.6304 26.5 34.5 26.5V29L28 24.5L34.5 20V22.5C36.4823 22.5 38.3524 22.9807 40 23.8318Z" fill="url(#paint3_linear_1394_9607)"/>
<path fill-rule="evenodd" clip-rule="evenodd" d="M26.5619 35.5H22.5411C22.5139 35.1703 22.5 34.8367 22.5 34.5C22.5 31.8881 23.3345 29.471 24.7514 27.501L28.0009 29.834C27.0563 31.1474 26.5 32.7587 26.5 34.5C26.5 34.8386 26.521 35.1724 26.5619 35.5Z" fill="url(#paint4_linear_1394_9607)"/>
<g opacity="0.55" style="mix-blend-mode:multiply">
<path fill-rule="evenodd" clip-rule="evenodd" d="M29.9286 7.5H35.5V13.0714H29.9286V7.5ZM23.5 7.5H29.0714V13.0714H23.5V7.5ZM29.9286 13.9285H35.5V19.4999H29.9286V13.9285ZM23.5 13.9285H29.0714V19.4999H23.5V13.9285Z" fill="url(#paint5_linear_1394_9607)"/>
</g>
<defs>
<linearGradient id="paint0_linear_1394_9607" x1="-18.6546" y1="18.6108" x2="14.8224" y2="57.2908" gradientUnits="userSpaceOnUse">
<stop stop-color="#70B1FF"/>
<stop offset="1" stop-color="#005CCD"/>
</linearGradient>
<linearGradient id="paint1_linear_1394_9607" x1="12.399" y1="3.28333" x2="-4.2192" y2="14.9762" gradientUnits="userSpaceOnUse">
<stop stop-color="#70B1FF"/>
<stop offset="1" stop-color="#005CCD"/>
</linearGradient>
<linearGradient id="paint2_linear_1394_9607" x1="34.5" y1="59.75" x2="60.8704" y2="35.8673" gradientUnits="userSpaceOnUse">
<stop stop-color="#70B1FF"/>
<stop offset="1" stop-color="#005CCD"/>
</linearGradient>
<linearGradient id="paint3_linear_1394_9607" x1="29.6309" y1="17.8535" x2="28.234" y2="28.2232" gradientUnits="userSpaceOnUse">
<stop stop-color="#295296"/>
<stop offset="1" stop-color="#3E78D3"/>
</linearGradient>
<linearGradient id="paint4_linear_1394_9607" x1="23.2476" y1="25.5932" x2="20.9532" y2="34.3776" gradientUnits="userSpaceOnUse">
<stop stop-color="#295296"/>
<stop offset="1" stop-color="#3E78D3"/>
</linearGradient>
<linearGradient id="paint5_linear_1394_9607" x1="28.6192" y1="4.51906" x2="18.5315" y2="14.4561" gradientUnits="userSpaceOnUse">
<stop stop-color="#70B1FF"/>
<stop offset="1" stop-color="#005CCD"/>
</linearGradient>
</defs>
</svg>
