<svg width="48" height="48" viewBox="0 0 48 48" fill="none" xmlns="http://www.w3.org/2000/svg">
<path opacity="0.4" fill-rule="evenodd" clip-rule="evenodd" d="M27.5 35C36.3366 35 43.5 27.8366 43.5 19C43.5 10.1634 36.3366 3 27.5 3C18.6634 3 11.5 10.1634 11.5 19C11.5 27.8366 18.6634 35 27.5 35Z" fill="url(#paint0_linear_1394_9620)"/>
<path opacity="0.45" d="M13.75 19C17.2018 19 20 21.7982 20 25.25V29H23V44.5H4.5V29H7.5V25.25C7.5 21.7982 10.2982 19 13.75 19ZM13.75 22C11.9551 22 10.5 23.4551 10.5 25.25V29H17V25.25C17 23.4551 15.5449 22 13.75 22Z" fill="url(#paint1_linear_1394_9620)"/>
<path fill-rule="evenodd" clip-rule="evenodd" d="M12.4783 13.4784C14.727 7.36256 20.604 3 27.4999 3C27.6497 3 27.7989 3.00206 27.9476 3.00614L22.4999 7.99747V10.7572L15.9999 17L12.4783 13.4784Z" fill="url(#paint2_linear_1394_9620)"/>
<path fill-rule="evenodd" clip-rule="evenodd" d="M43.4305 20.5C42.7214 28.1263 36.66 34.1995 29.0391 34.9269L29.0391 25.5H34.4847L39.0474 20.5H43.4305Z" fill="url(#paint3_linear_1394_9620)"/>
<path d="M13.7504 19C17.202 19.0002 20.0004 21.7984 20.0004 25.25V29H23.0004V34.3564C19.812 33.4238 17.0365 31.5263 15.0111 29H17.0004V25.25C17.0004 23.4552 15.5451 22.0002 13.7504 22C13.0636 22 12.4265 22.2136 11.9017 22.5771C11.6688 21.5571 11.5329 20.5 11.5052 19.416C12.202 19.1478 12.9591 19 13.7504 19Z" fill="url(#paint4_linear_1394_9620)"/>
<defs>
<linearGradient id="paint0_linear_1394_9620" x1="34.3881" y1="45.0701" x2="56.4759" y2="15.032" gradientUnits="userSpaceOnUse">
<stop stop-color="#70B1FF"/>
<stop offset="1" stop-color="#005CCD"/>
</linearGradient>
<linearGradient id="paint1_linear_1394_9620" x1="13.75" y1="6.25" x2="-10.4911" y2="23.8366" gradientUnits="userSpaceOnUse">
<stop stop-color="#70B1FF"/>
<stop offset="1" stop-color="#005CCD"/>
</linearGradient>
<linearGradient id="paint2_linear_1394_9620" x1="23.4104" y1="21.3176" x2="32.5786" y2="7.54068" gradientUnits="userSpaceOnUse">
<stop stop-color="#8FBBF9"/>
<stop offset="1" stop-color="#6293DE"/>
</linearGradient>
<linearGradient id="paint3_linear_1394_9620" x1="36.2348" y1="42.1404" x2="50.6617" y2="27.749" gradientUnits="userSpaceOnUse">
<stop stop-color="#96C0FC"/>
<stop offset="1" stop-color="#6595DF"/>
</linearGradient>
<linearGradient id="paint4_linear_1394_9620" x1="42.7692" y1="26.4942" x2="17.6734" y2="15.0317" gradientUnits="userSpaceOnUse">
<stop stop-color="#295296"/>
<stop offset="1" stop-color="#3E78D3"/>
</linearGradient>
</defs>
</svg>
