<svg width="48" height="48" viewBox="0 0 48 48" fill="none" xmlns="http://www.w3.org/2000/svg">
<path opacity="0.45" fill-rule="evenodd" clip-rule="evenodd" d="M2 23C2 22.4477 2.44772 22 3 22H33C33.5523 22 34 22.4477 34 23V44C34 44.5523 33.5523 45 33 45H3C2.44772 45 2 44.5523 2 44V23Z" fill="url(#paint0_linear_1394_9646)"/>
<path opacity="0.45" fill-rule="evenodd" clip-rule="evenodd" d="M3 22H33C33.5523 22 34 22.4477 34 23V26H2V23C2 22.4477 2.44772 22 3 22Z" fill="url(#paint1_linear_1394_9646)"/>
<path opacity="0.4" fill-rule="evenodd" clip-rule="evenodd" d="M34 34L24.9632 26.7025C22.7722 24.9332 21.5 22.2768 21.5 19.471V2H46.5V19.471C46.5 22.2768 45.2278 24.9332 43.0368 26.7025L34 34Z" fill="url(#paint2_linear_1394_9646)"/>
<path fill-rule="evenodd" clip-rule="evenodd" d="M21.8518 22H32.9999C33.5522 22 33.9999 22.4477 33.9999 23V26H24.1864C23.077 24.8775 22.2773 23.4993 21.8518 22L21.8518 22Z" fill="url(#paint3_linear_1394_9646)"/>
<path opacity="0.25" fill-rule="evenodd" clip-rule="evenodd" d="M34 2H46.5V19.471C46.5 22.2768 45.2278 24.9332 43.0368 26.7025L34 34V2Z" fill="url(#paint4_linear_1394_9646)"/>
<path d="M13.3867 41.5H9.97754L15.6592 29H19.0684L13.3867 41.5ZM19.6367 41.5H16.2275L21.9092 29H25.3184L19.6367 41.5ZM7.98828 36.3867C9.08657 36.3867 9.97754 37.2767 9.97754 38.375C9.97753 39.4733 9.08657 40.3633 7.98828 40.3633C6.89015 40.3631 6.00001 39.4732 6 38.375C6 37.2768 6.89015 36.3869 7.98828 36.3867ZM7.98828 30.1367C9.08657 30.1367 9.97754 31.0267 9.97754 32.125C9.97753 33.2233 9.08657 34.1133 7.98828 34.1133C6.89015 34.1131 6.00001 33.2232 6 32.125C6 31.0268 6.89015 30.1369 7.98828 30.1367Z" fill="url(#paint5_linear_1394_9646)"/>
<defs>
<linearGradient id="paint0_linear_1394_9646" x1="18" y1="10.5" x2="-3.80039" y2="40.831" gradientUnits="userSpaceOnUse">
<stop stop-color="#70B1FF"/>
<stop offset="1" stop-color="#005CCD"/>
</linearGradient>
<linearGradient id="paint1_linear_1394_9646" x1="18" y1="20" x2="17.0154" y2="27.8769" gradientUnits="userSpaceOnUse">
<stop stop-color="#70B1FF"/>
<stop offset="1" stop-color="#005CCD"/>
</linearGradient>
<linearGradient id="paint2_linear_1394_9646" x1="6.75179" y1="43.3868" x2="42.5582" y2="51.4672" gradientUnits="userSpaceOnUse">
<stop stop-color="#70B1FF"/>
<stop offset="1" stop-color="#005CCD"/>
</linearGradient>
<linearGradient id="paint3_linear_1394_9646" x1="24.8213" y1="29.3933" x2="28.4322" y2="20.3815" gradientUnits="userSpaceOnUse">
<stop stop-color="#295296"/>
<stop offset="1" stop-color="#3E78D3"/>
</linearGradient>
<linearGradient id="paint4_linear_1394_9646" x1="40.25" y1="50" x2="61.9403" y2="41.5272" gradientUnits="userSpaceOnUse">
<stop stop-color="#70B1FF"/>
<stop offset="1" stop-color="#005CCD"/>
</linearGradient>
<linearGradient id="paint5_linear_1394_9646" x1="19.3081" y1="27.5451" x2="8.5082" y2="38.2458" gradientUnits="userSpaceOnUse">
<stop stop-color="#70B1FF"/>
<stop offset="1" stop-color="#4A82D9"/>
</linearGradient>
</defs>
</svg>
