<svg width="48" height="48" viewBox="0 0 48 48" fill="none" xmlns="http://www.w3.org/2000/svg">
<path opacity="0.2" fill-rule="evenodd" clip-rule="evenodd" d="M34.8497 33.3847L25.7043 25.9995C23.4869 24.2089 22.1995 21.5205 22.1995 18.681V1H47.5V18.681C47.5 21.5205 46.2126 24.2089 43.9952 25.9995L34.8497 33.3847Z" fill="url(#paint0_linear_1394_9657)"/>
<path opacity="0.2" fill-rule="evenodd" clip-rule="evenodd" d="M30.8014 37.4326L21.656 30.0473C19.4386 28.2567 18.1511 25.5684 18.1511 22.7288V5.04785H43.4517V22.7288C43.4517 25.5684 42.1642 28.2567 39.9468 30.0473L30.8014 37.4326Z" fill="url(#paint1_linear_1394_9657)"/>
<path opacity="0.6" fill-rule="evenodd" clip-rule="evenodd" d="M26.1503 41.5702L17.0048 34.185C14.7875 32.3944 13.5 29.7061 13.5 26.8665V9.18555H38.8005V26.8665C38.8005 29.7061 37.5131 32.3944 35.2957 34.185L26.1503 41.5702Z" fill="url(#paint2_linear_1394_9657)"/>
<path opacity="0.6" fill-rule="evenodd" clip-rule="evenodd" d="M12.75 46.5C19.5155 46.5 25 41.0155 25 34.25C25 27.4845 19.5155 22 12.75 22C5.98451 22 0.5 27.4845 0.5 34.25C0.5 41.0155 5.98451 46.5 12.75 46.5Z" fill="url(#paint3_linear_1394_9657)"/>
<path d="M13.5 22.0225C19.9162 22.41 25 27.7364 25 34.25C25 36.182 24.5506 38.0086 23.7539 39.6338L17.0049 34.1846C14.7876 32.394 13.5 29.7057 13.5 26.8662V22.0225Z" fill="url(#paint4_linear_1394_9657)"/>
<path opacity="0.8" d="M6.97326 32.8951L4.76099 35.121L10.2472 40.641L20.7392 30.0843L18.527 27.8584L10.2472 36.1892L6.97326 32.8951Z" fill="url(#paint5_linear_1394_9657)"/>
<defs>
<linearGradient id="paint0_linear_1394_9657" x1="7.27395" y1="42.8843" x2="43.5108" y2="51.0619" gradientUnits="userSpaceOnUse">
<stop stop-color="#70B1FF"/>
<stop offset="1" stop-color="#005CCD"/>
</linearGradient>
<linearGradient id="paint1_linear_1394_9657" x1="3.22561" y1="46.9322" x2="39.4625" y2="55.1097" gradientUnits="userSpaceOnUse">
<stop stop-color="#70B1FF"/>
<stop offset="1" stop-color="#005CCD"/>
</linearGradient>
<linearGradient id="paint2_linear_1394_9657" x1="23.8405" y1="0.736631" x2="-2.38693" y2="21.5697" gradientUnits="userSpaceOnUse">
<stop stop-color="#70B1FF"/>
<stop offset="1" stop-color="#005CCD"/>
</linearGradient>
<linearGradient id="paint3_linear_1394_9657" x1="10.5133" y1="15.6081" x2="-9.85409" y2="36.3163" gradientUnits="userSpaceOnUse">
<stop stop-color="#70B1FF"/>
<stop offset="1" stop-color="#005CCD"/>
</linearGradient>
<linearGradient id="paint4_linear_1394_9657" x1="17.657" y1="43.1621" x2="33.143" y2="36.6301" gradientUnits="userSpaceOnUse">
<stop stop-color="#295296"/>
<stop offset="1" stop-color="#3E78D3"/>
</linearGradient>
<linearGradient id="paint5_linear_1394_9657" x1="12.964" y1="22.3529" x2="1.70242" y2="33.7275" gradientUnits="userSpaceOnUse">
<stop stop-color="#70B1FF"/>
<stop offset="1" stop-color="#477ED8"/>
</linearGradient>
</defs>
</svg>
