<svg width="48" height="48" viewBox="0 0 48 48" fill="none" xmlns="http://www.w3.org/2000/svg">
<path opacity="0.4" d="M23.8904 43.7609C34.1571 43.7609 42.4799 35.4381 42.4799 25.1714C42.4799 14.9048 34.1571 6.58203 23.8904 6.58203C13.6238 6.58203 5.30103 14.9048 5.30103 25.1714C5.30103 35.4381 13.6238 43.7609 23.8904 43.7609Z" fill="url(#paint0_linear_1394_9693)"/>
<path d="M18.9106 7.25977C9.47859 9.88488 3.6963 19.3723 5.68593 28.9586C6.27887 28.7362 11.46 25.1398 11.46 25.1398L19.0165 28.2104L22.1083 26.0927L22.7718 17.2409L27.5295 10.9162L18.9106 7.25977Z" fill="url(#paint1_linear_1394_9693)"/>
<path d="M32.0505 32.7456H25.6975V43.6867C34.5563 42.8189 41.5572 35.7942 42.3952 26.9326H37.3516L32.0505 32.7456Z" fill="url(#paint2_linear_1394_9693)"/>
<path opacity="0.9" fill-rule="evenodd" clip-rule="evenodd" d="M37.7647 29.7181C39.5059 27.4313 39.2761 24.2067 37.2282 22.1899C36.296 21.2467 35.025 20.7158 33.6988 20.7158C32.3726 20.7158 31.1016 21.2467 30.1694 22.1899C28.1258 24.2104 27.9021 27.4347 29.647 29.7181L33.7164 35.0687L37.7647 29.7181ZM35.7132 26.7669C35.3754 27.5795 34.5818 28.1088 33.702 28.1087C33.701 28.1087 33.6999 28.1087 33.6988 28.1087H33.7023C33.7022 28.1087 33.7021 28.1087 33.702 28.1087C33.1229 28.1143 32.5658 27.8868 32.1562 27.4772C31.7466 27.0676 31.519 26.5103 31.5247 25.9311C31.5247 25.05 32.0556 24.2557 32.8698 23.9188C33.684 23.582 34.6209 23.7689 35.2434 24.3925C35.8659 25.016 36.0514 25.9532 35.7132 26.7669Z" fill="url(#paint3_linear_1394_9693)"/>
<path opacity="0.8" d="M32.0506 32.746H31.9482L33.7129 35.0684L37.7647 29.7178C38.3825 28.9014 38.7723 27.9355 38.8941 26.9189H37.3659L32.0506 32.746Z" fill="url(#paint4_linear_1394_9693)"/>
<path opacity="0.9" fill-rule="evenodd" clip-rule="evenodd" d="M16.9624 9.91394C18.709 7.63104 18.4851 4.40551 16.4401 2.3857C15.5082 1.44574 14.2395 0.916992 12.916 0.916992C11.5924 0.916992 10.3237 1.44574 9.39184 2.3857C7.3498 4.40691 7.12616 7.63008 8.86949 9.91394L12.9177 15.2645L16.9624 9.91394ZM14.923 6.95589C14.5862 7.77005 13.7919 8.301 12.9108 8.301H12.9178C12.3377 8.30959 11.7786 8.08364 11.3673 7.67435C10.956 7.26506 10.7274 6.70709 10.7331 6.12688C10.7317 5.24579 11.2614 4.45066 12.075 4.11249C12.8886 3.77432 13.8258 3.95975 14.4494 4.58228C15.0729 5.2048 15.2599 6.14172 14.923 6.95589Z" fill="url(#paint5_linear_1394_9693)"/>
<path opacity="0.8" d="M10.5884 12.1875L12.9178 15.2652L16.9625 9.91458C17.4921 9.21137 17.8543 8.39657 18.0213 7.53223C15.2088 8.47093 12.6606 10.0668 10.5884 12.1875H10.5884Z" fill="url(#paint6_linear_1394_9693)"/>
<defs>
<linearGradient id="paint0_linear_1394_9693" x1="16.8298" y1="-0.399146" x2="-1.45956" y2="32.1667" gradientUnits="userSpaceOnUse">
<stop stop-color="#70B1FF"/>
<stop offset="1" stop-color="#005CCD"/>
</linearGradient>
<linearGradient id="paint1_linear_1394_9693" x1="9.69567" y1="-0.594557" x2="-4.5815" y2="25.8289" gradientUnits="userSpaceOnUse">
<stop stop-color="#8FBBF9"/>
<stop offset="1" stop-color="#6293DE"/>
</linearGradient>
<linearGradient id="paint2_linear_1394_9693" x1="26.199" y1="2.49495" x2="5.20521" y2="39.2564" gradientUnits="userSpaceOnUse">
<stop stop-color="#8FBBF9"/>
<stop offset="1" stop-color="#6293DE"/>
</linearGradient>
<linearGradient id="paint3_linear_1394_9693" x1="26.7176" y1="19.3169" x2="26.7176" y2="38.4887" gradientUnits="userSpaceOnUse">
<stop stop-color="#3E78D3"/>
<stop offset="1" stop-color="#295296"/>
</linearGradient>
<linearGradient id="paint4_linear_1394_9693" x1="47.0493" y1="41.6174" x2="61.9695" y2="11.9062" gradientUnits="userSpaceOnUse">
<stop stop-color="#295296"/>
<stop offset="1" stop-color="#3E78D3"/>
</linearGradient>
<linearGradient id="paint5_linear_1394_9693" x1="3.26975" y1="-14.3944" x2="-26.1697" y2="13.0791" gradientUnits="userSpaceOnUse">
<stop stop-color="#3E78D3"/>
<stop offset="1" stop-color="#295296"/>
</linearGradient>
<linearGradient id="paint6_linear_1394_9693" x1="5.40219" y1="-3.97633" x2="-10.3077" y2="21.604" gradientUnits="userSpaceOnUse">
<stop offset="0.04" stop-color="#295296"/>
<stop offset="1" stop-color="#3E78D3"/>
</linearGradient>
</defs>
</svg>
