<svg width="48" height="48" viewBox="0 0 48 48" fill="none" xmlns="http://www.w3.org/2000/svg">
<rect opacity="0.35" x="9.55786" y="1.61523" width="29.3208" height="29.0628" fill="url(#paint0_linear_1394_9720)"/>
<path fill-rule="evenodd" clip-rule="evenodd" d="M23.5527 6.97881C22.7761 6.97854 22.0011 7.0489 21.2371 7.18903C21.0355 7.21646 20.8485 7.07849 20.8145 6.8772C20.7931 6.77385 20.8145 6.66621 20.8738 6.579C20.933 6.49178 21.0251 6.43249 21.1288 6.41472C21.9379 6.28813 22.7549 6.21905 23.5737 6.20801C28.2399 6.20801 30.573 8.77618 31.3623 9.86582C31.4253 9.94857 31.4483 10.0551 31.4252 10.1566C31.4028 10.2579 31.3444 10.3476 31.261 10.4089C31.0859 10.53 30.8469 10.4932 30.7162 10.3248C29.9897 9.31925 27.8417 6.97881 23.5527 6.97881ZM25.1348 18.6004C25.7391 16.8486 24.9881 15.6749 23.9892 15.2754C23.7225 15.1751 23.4393 15.1264 23.1545 15.1318C22.1754 15.1332 21.2981 15.7389 20.9471 16.6559C20.4058 17.9102 19.0087 20.1035 17.3637 21.0249C17.2742 21.0736 17.2081 21.1566 17.1805 21.2549C17.1528 21.3532 17.166 21.4585 17.217 21.547C17.2662 21.636 17.3489 21.7017 17.4466 21.7293C17.5444 21.757 17.649 21.7443 17.7374 21.6941C19.6968 20.643 21.1777 18.1204 21.6771 16.9502C21.913 16.3237 22.5078 15.9064 23.1754 15.8991C23.3607 15.9012 23.5441 15.9368 23.7168 16.0042C24.3629 16.2565 24.8624 16.9887 24.4153 18.3236C23.7168 20.3522 21.1462 23.0676 19.4558 23.989C19.3646 24.0361 19.2972 24.1193 19.27 24.2185C19.2428 24.3177 19.2582 24.4238 19.3126 24.5111C19.4176 24.6924 19.6422 24.765 19.833 24.6792C21.6561 23.6772 24.3839 20.7937 25.1348 18.6004ZM23.4478 17.679C23.4898 17.5866 23.4898 17.4805 23.4478 17.3881C23.4066 17.2942 23.3318 17.2192 23.2382 17.1779C23.1917 17.1592 23.1414 17.152 23.0915 17.1569C22.9281 17.1592 22.7815 17.2582 22.7178 17.4092C22.1346 18.8912 20.0914 21.7362 18.1983 22.7803C18.105 22.8245 18.036 22.9079 18.0097 23.008C17.9795 23.1075 17.9948 23.2153 18.0516 23.3023C18.1009 23.3914 18.1836 23.457 18.2813 23.4847C18.379 23.5123 18.4837 23.4996 18.5721 23.4495C20.7375 22.2792 22.8226 19.2906 23.4478 17.679ZM24.6354 13.6252C23.9323 13.35 23.1663 13.2784 22.4246 13.4185C21.0406 13.7 19.882 14.6438 19.3231 15.9446C18.8081 17.2568 17.8484 18.3448 16.6128 19.0173C16.4199 19.1141 16.3417 19.3494 16.4382 19.5429C16.5346 19.7364 16.7692 19.8148 16.9621 19.7181C18.3589 18.9614 19.4429 17.7324 20.0216 16.2495C20.4705 15.176 21.4248 14.3989 22.5643 14.1788C22.763 14.1372 22.9655 14.1161 23.1685 14.1157C23.5749 14.121 23.9771 14.1993 24.356 14.347C25.7531 14.89 26.8986 16.5613 26.1023 18.9227C25.3339 21.1616 23.0393 23.6667 21.2126 24.9841C21.0436 25.113 21.0066 25.353 21.1288 25.5271C21.1785 25.6166 21.2648 25.6797 21.3649 25.6999C21.4649 25.7201 21.5688 25.6954 21.6492 25.6322C23.6086 24.2308 26.001 21.5575 26.8148 19.196C27.7788 16.3441 26.3643 14.3154 24.6354 13.6252ZM26.9896 8.77619C29.6176 9.8657 31.5472 12.177 32.1552 14.9636C32.1888 15.0663 32.1733 15.1788 32.1133 15.2684C32.0528 15.3512 31.9649 15.4096 31.8653 15.4331H31.7815C31.6063 15.4282 31.4541 15.3109 31.4043 15.1423C30.8498 12.6015 29.0915 10.4935 26.6962 9.49794C25.6471 9.05846 24.522 8.83105 23.3851 8.82874C21.8274 8.82497 20.2988 9.25167 18.9669 10.062C18.7826 10.1762 18.5409 10.1199 18.4256 9.93589C18.3659 9.84843 18.3456 9.73987 18.3695 9.63664C18.3934 9.53342 18.4593 9.44497 18.5513 9.39283C20.0124 8.51717 21.6831 8.0558 23.3851 8.05794C24.6223 8.05431 25.8477 8.2985 26.9896 8.77619ZM25.2816 11.975C24.2744 11.5804 23.1782 11.4725 22.1137 11.6632C20.1544 12.0381 18.656 13.1242 17.8632 14.7324L17.8213 14.7955L17.8082 14.8218C17.5225 15.3987 17.2302 15.9889 16.7176 16.1339C16.5759 16.1655 16.464 16.2747 16.4286 16.416C16.3931 16.5572 16.4401 16.7065 16.55 16.8017C16.6599 16.8969 16.8139 16.9219 16.9481 16.8661C17.7794 16.6139 18.1985 15.78 18.5093 15.1143L18.5303 15.0723C19.2666 13.6329 20.6534 12.6415 22.25 12.413C22.5515 12.3547 22.858 12.3265 23.165 12.3289C23.7927 12.3294 24.4147 12.4482 24.9987 12.6793C27.227 13.5552 28.8965 16.1829 27.7509 19.4904C27.227 20.9969 26.1023 22.6892 24.6075 24.2974C24.5018 24.3958 24.4599 24.5453 24.4991 24.6846C24.5383 24.8238 24.652 24.9293 24.7934 24.9577C24.9348 24.9861 25.0802 24.9327 25.1698 24.8194C26.752 23.1482 27.9185 21.3508 28.4808 19.7426C29.8011 15.9867 27.8626 12.9631 25.2816 11.975ZM23.1963 9.78172C24.1378 9.78614 25.0705 9.96306 25.9486 10.3038C29.2351 11.5791 31.8441 15.5277 30.1572 20.3347C29.9113 21.0464 29.5978 21.7328 29.2212 22.3844C29.1092 22.5713 28.8693 22.635 28.6798 22.528C28.5903 22.4793 28.5242 22.3964 28.4966 22.298C28.469 22.1997 28.4821 22.0944 28.5331 22.006C28.873 21.3877 29.166 20.7448 29.4098 20.0825C30.9081 15.7589 28.575 12.1852 25.6168 11.015C24.8386 10.706 24.0088 10.5491 23.1719 10.5525C22.752 10.553 22.3331 10.5953 21.9215 10.6787C20.0913 11.0228 18.4893 12.1225 17.5068 13.7093C17.3837 13.8843 17.1448 13.9307 16.9655 13.8144C16.88 13.7544 16.8202 13.6644 16.7978 13.5622C16.7747 13.4607 16.7977 13.3541 16.8607 13.2714C17.9656 11.5061 19.7564 10.2852 21.7993 9.90435C22.2606 9.82336 22.728 9.78233 23.1963 9.78172Z" fill="url(#paint1_linear_1394_9720)"/>
<path d="M14.5418 47.0304L28.0967 39.1787L27.7475 38.5761C26.9825 37.2498 25.2907 36.7965 23.9684 37.5635L20.7692 39.4135L26.9896 28.6082C27.4568 27.8263 27.2609 26.8168 26.5355 26.2678C26.1371 25.9881 25.6405 25.8877 25.1652 25.9907C24.6899 26.0938 24.2789 26.391 24.0313 26.8108L20.5736 32.8196C20.4974 32.2123 20.1107 31.689 19.5537 31.4392C18.7199 31.0939 17.7605 31.4298 17.3219 32.2205L17.0111 32.76C16.9396 32.1509 16.5514 31.6255 15.9912 31.3796C15.1584 31.0364 14.2013 31.372 13.7629 32.1609L13.4521 32.7005C13.1854 32.1066 12.6124 31.7101 11.9643 31.6712C11.3162 31.6322 10.7 31.9571 10.3646 32.5148L6.46328 42.3776C6.25921 42.8947 6.48183 43.4826 6.9767 43.7335L13.5184 47.0584C13.8421 47.2242 14.2276 47.2137 14.5418 47.0304Z" fill="url(#paint2_linear_1394_9720)"/>
<path opacity="0.9" d="M25.8024 30.6776H21.807L24.0277 26.8106C24.2753 26.3898 24.6869 26.0918 25.1631 25.9887C25.6393 25.8856 26.1368 25.9867 26.5354 26.2676C27.2596 26.8177 27.4539 27.827 26.986 28.608L25.8024 30.6776Z" fill="url(#paint3_linear_1394_9720)"/>
<defs>
<linearGradient id="paint0_linear_1394_9720" x1="25.0351" y1="-18.0176" x2="-5.73002" y2="15.4506" gradientUnits="userSpaceOnUse">
<stop stop-color="#70B1FF"/>
<stop offset="1" stop-color="#005CCD"/>
</linearGradient>
<linearGradient id="paint1_linear_1394_9720" x1="20.8693" y1="0.154168" x2="9.36461" y2="17.0956" gradientUnits="userSpaceOnUse">
<stop stop-color="#3E78D3"/>
<stop offset="0.96" stop-color="#295296"/>
</linearGradient>
<linearGradient id="paint2_linear_1394_9720" x1="13.2368" y1="54.6874" x2="33.5241" y2="38.1242" gradientUnits="userSpaceOnUse">
<stop stop-color="#8FBBF9"/>
<stop offset="1" stop-color="#6293DE"/>
</linearGradient>
<linearGradient id="paint3_linear_1394_9720" x1="28.4377" y1="-13.6356" x2="1.17214" y2="27.1584" gradientUnits="userSpaceOnUse">
<stop stop-color="#295296"/>
<stop offset="1" stop-color="#3E78D3"/>
</linearGradient>
</defs>
</svg>
