<svg width="48" height="48" viewBox="0 0 48 48" fill="none" xmlns="http://www.w3.org/2000/svg">
<path opacity="0.35" fill-rule="evenodd" clip-rule="evenodd" d="M23.9412 46.5L11.6936 36.5489C8.72415 34.1362 7 30.5138 7 26.6877V1.5H40.8824V26.6877C40.8824 30.5138 39.1582 34.1362 36.1887 36.5489L23.9412 46.5Z" fill="url(#paint0_linear_1394_9749)"/>
<path opacity="0.45" fill-rule="evenodd" clip-rule="evenodd" d="M23.9414 46.5V1.5H40.8826V26.6877C40.8826 30.5138 39.1584 34.1362 36.1889 36.5489L23.9414 46.5Z" fill="url(#paint1_linear_1394_9749)"/>
<path opacity="0.52" d="M23.9414 8.5C17.0379 8.5 11.4414 14.0965 11.4414 21C11.4414 27.9035 17.0379 33.5 23.9414 33.5C30.8449 33.5 36.4414 27.9035 36.4414 21C36.4414 14.0965 30.8449 8.5 23.9414 8.5ZM24.9246 21.0304C24.9222 21.605 24.4989 22.0175 23.913 22.0165C23.3339 22.0155 22.9146 21.5947 22.9156 21.0152C22.9161 20.4405 23.3418 20.0134 23.9159 20.0109C24.4999 20.0085 24.9271 20.4401 24.9246 21.0304ZM24.8854 17.3342C24.858 17.85 24.5126 18.213 23.9855 18.2493C23.0753 18.312 22.2719 18.6025 21.7256 19.3697C21.1407 20.1902 20.9565 21.1043 21.3651 22.0479C21.7844 23.0164 22.5438 23.639 23.6029 23.7688C24.7958 23.9153 26.5354 23.1227 26.65 21.2165C26.6706 20.8751 26.7078 20.5258 27.0047 20.2882C27.3226 20.0334 27.6778 19.9619 28.053 20.1427C28.4356 20.3269 28.613 20.6468 28.6061 21.0696C28.6051 21.1264 28.5963 21.1832 28.5929 21.2185C28.5895 23.328 26.7911 25.31 24.6929 25.65C22.2155 26.0517 19.8611 24.4033 19.3369 22.0293C18.7912 19.5592 20.3353 16.9682 22.9763 16.4166C23.3354 16.3416 23.7219 16.3196 24.0854 16.3612C24.6003 16.421 24.9109 16.8438 24.8854 17.3342ZM30.2624 26.5681C29.0426 27.9721 27.5102 28.8681 25.6957 29.2595C25.1117 29.3854 24.5087 29.4256 23.9145 29.505C20.1129 29.4922 16.3462 26.7253 15.6108 22.5118C14.806 17.899 17.7943 13.683 22.1758 12.7532C22.7431 12.6327 23.3364 12.616 23.9194 12.592C24.4445 12.5705 24.8604 12.9781 24.8756 13.468C24.8928 14.0416 24.5533 14.4468 23.987 14.484C23.0488 14.5462 22.1249 14.6643 21.2656 15.0758C19.1336 16.0967 17.8776 17.7785 17.4866 20.1079C16.8988 23.6101 19.4408 26.8463 22.8039 27.4415C26.3061 28.0613 29.6937 25.6971 30.3119 22.2115C30.3854 21.7966 30.4114 21.3733 30.4545 20.9535C30.5113 20.4009 30.9042 20.0491 31.4524 20.0663C31.9575 20.0819 32.3557 20.4959 32.3533 21.0328C32.3454 23.1364 31.64 24.9833 30.2624 26.5681Z" fill="url(#paint2_linear_1394_9749)"/>
<path d="M23.9414 8.5C30.8449 8.5 36.4414 14.0965 36.4414 21C36.4414 27.9035 30.8449 33.5 23.9414 33.5V29.501C24.5268 29.424 25.1203 29.3837 25.6953 29.2598C27.5098 28.8683 29.0429 27.9724 30.2627 26.5684C31.6402 24.9837 32.3456 23.1366 32.3535 21.0332C32.356 20.4963 31.9572 20.0821 31.4521 20.0664C30.9042 20.0494 30.511 20.4008 30.4541 20.9531C30.411 21.373 30.385 21.797 30.3115 22.2119C29.7605 25.3174 27.0114 27.5305 23.9414 27.5381V25.709C24.1894 25.7092 24.441 25.6913 24.6934 25.6504C26.7913 25.3102 28.5892 23.328 28.5928 21.2188C28.5962 21.1835 28.6055 21.1262 28.6064 21.0693C28.6132 20.6467 28.4353 20.3267 28.0527 20.1426C27.6777 19.962 27.3227 20.0335 27.0049 20.2881C26.708 20.5257 26.671 20.8753 26.6504 21.2168C26.5461 22.9488 25.0996 23.7583 23.9414 23.7822V22.0146C24.5125 22.0025 24.9224 21.5956 24.9248 21.0303C24.9272 20.4486 24.5122 20.0217 23.9414 20.0117V18.2529C23.956 18.2518 23.9707 18.25 23.9854 18.249C24.5125 18.2128 24.8583 17.8498 24.8857 17.334C24.9111 16.8437 24.5998 16.4211 24.085 16.3613C24.0375 16.3559 23.9895 16.3539 23.9414 16.3506V14.4873C23.9566 14.4863 23.9721 14.4854 23.9873 14.4844C24.5534 14.447 24.8931 14.0413 24.876 13.4678C24.8609 12.9848 24.4561 12.5824 23.9414 12.5918V8.5Z" fill="url(#paint3_linear_1394_9749)"/>
<defs>
<linearGradient id="paint0_linear_1394_9749" x1="-12.9882" y1="59.7001" x2="35.708" y2="70.2912" gradientUnits="userSpaceOnUse">
<stop stop-color="#70B1FF"/>
<stop offset="1" stop-color="#005CCD"/>
</linearGradient>
<linearGradient id="paint1_linear_1394_9749" x1="13.9473" y1="59.7001" x2="39.1491" y2="62.4407" gradientUnits="userSpaceOnUse">
<stop stop-color="#70B1FF"/>
<stop offset="1" stop-color="#005CCD"/>
</linearGradient>
<linearGradient id="paint2_linear_1394_9749" x1="41.5546" y1="-12.9114" x2="3.74922" y2="2.47295" gradientUnits="userSpaceOnUse">
<stop stop-color="#70B1FF"/>
<stop offset="1" stop-color="#005CCD"/>
</linearGradient>
<linearGradient id="paint3_linear_1394_9749" x1="28.4598" y1="38.5085" x2="46.4143" y2="32.7097" gradientUnits="userSpaceOnUse">
<stop stop-color="#295296"/>
<stop offset="1" stop-color="#3E78D3"/>
</linearGradient>
</defs>
</svg>
