<svg width="48" height="48" viewBox="0 0 48 48" fill="none" xmlns="http://www.w3.org/2000/svg">
<path opacity="0.45" fill-rule="evenodd" clip-rule="evenodd" d="M4 34H44V44H4V34Z" fill="url(#paint0_linear_1394_9773)"/>
<rect opacity="0.45" x="4" y="14" width="40" height="20" fill="url(#paint1_linear_1394_9773)"/>
<path opacity="0.55" d="M37 4.2002C40.9182 4.99557 44.0044 8.08176 44.7998 12H48V16H44.7998C44.0044 19.9182 40.9182 23.0044 37 23.7998V28H33V23.7998C29.0818 23.0044 25.9956 19.9182 25.2002 16H22V12H25.2002C25.9956 8.08176 29.0818 4.99557 33 4.2002V0H37V4.2002ZM35 8C31.6863 8 29 10.6863 29 14C29 17.3137 31.6863 20 35 20C38.3137 20 41 17.3137 41 14C41 10.6863 38.3137 8 35 8Z" fill="url(#paint2_linear_1394_9773)"/>
<path fill-rule="evenodd" clip-rule="evenodd" d="M35 17C36.6569 17 38 15.6569 38 14C38 12.3431 36.6569 11 35 11C33.3431 11 32 12.3431 32 14C32 15.6569 33.3431 17 35 17Z" fill="url(#paint3_linear_1394_9773)"/>
<path opacity="0.45" fill-rule="evenodd" clip-rule="evenodd" d="M15 17V32H12V17H15Z" fill="url(#paint4_linear_1394_9773)"/>
<path opacity="0.45" fill-rule="evenodd" clip-rule="evenodd" d="M10 17V32H7V17H10Z" fill="url(#paint5_linear_1394_9773)"/>
<path opacity="0.45" fill-rule="evenodd" clip-rule="evenodd" d="M20 17V32H17V17H20Z" fill="url(#paint6_linear_1394_9773)"/>
<path fill-rule="evenodd" clip-rule="evenodd" d="M9.5 41C10.3284 41 11 40.3284 11 39.5C11 38.6716 10.3284 38 9.5 38C8.67157 38 8 38.6716 8 39.5C8 40.3284 8.67157 41 9.5 41Z" fill="white"/>
<path fill-rule="evenodd" clip-rule="evenodd" d="M15.5 41C16.3284 41 17 40.3284 17 39.5C17 38.6716 16.3284 38 15.5 38C14.6716 38 14 38.6716 14 39.5C14 40.3284 14.6716 41 15.5 41Z" fill="url(#paint7_linear_1394_9773)"/>
<defs>
<linearGradient id="paint0_linear_1394_9773" x1="-16" y1="39" x2="-11.2941" y2="57.8235" gradientUnits="userSpaceOnUse">
<stop stop-color="#70B1FF"/>
<stop offset="1" stop-color="#005CCD"/>
</linearGradient>
<linearGradient id="paint1_linear_1394_9773" x1="-16" y1="24" x2="0" y2="56" gradientUnits="userSpaceOnUse">
<stop stop-color="#70B1FF"/>
<stop offset="1" stop-color="#005CCD"/>
</linearGradient>
<linearGradient id="paint2_linear_1394_9773" x1="12.0734" y1="7.91364" x2="28.2057" y2="28.1496" gradientUnits="userSpaceOnUse">
<stop stop-color="#70B1FF"/>
<stop offset="1" stop-color="#005CCD"/>
</linearGradient>
<linearGradient id="paint3_linear_1394_9773" x1="46.2352" y1="15.199" x2="36.6167" y2="3.64021" gradientUnits="userSpaceOnUse">
<stop stop-color="#295296"/>
<stop offset="1" stop-color="#3E78D3"/>
</linearGradient>
<linearGradient id="paint4_linear_1394_9773" x1="10.3663" y1="20.5762" x2="17.0274" y2="22.7911" gradientUnits="userSpaceOnUse">
<stop stop-color="#70B1FF"/>
<stop offset="1" stop-color="#005CCD"/>
</linearGradient>
<linearGradient id="paint5_linear_1394_9773" x1="5.3663" y1="20.5762" x2="12.0274" y2="22.7911" gradientUnits="userSpaceOnUse">
<stop stop-color="#70B1FF"/>
<stop offset="1" stop-color="#005CCD"/>
</linearGradient>
<linearGradient id="paint6_linear_1394_9773" x1="15.3663" y1="20.5762" x2="22.0274" y2="22.7911" gradientUnits="userSpaceOnUse">
<stop stop-color="#70B1FF"/>
<stop offset="1" stop-color="#005CCD"/>
</linearGradient>
<linearGradient id="paint7_linear_1394_9773" x1="15.6235" y1="34.2752" x2="10.1273" y2="39.1663" gradientUnits="userSpaceOnUse">
<stop stop-color="#6FA2EC"/>
<stop offset="1" stop-color="#5C90DF"/>
</linearGradient>
</defs>
</svg>
