<svg width="48" height="48" viewBox="0 0 48 48" fill="none" xmlns="http://www.w3.org/2000/svg">
<path opacity="0.45" d="M31.5 11C33.433 11 35 12.567 35 14.5V39.5C35 41.433 33.433 43 31.5 43H14.5C12.567 43 11 41.433 11 39.5V14.5C11 12.567 12.567 11 14.5 11H31.5ZM15.5 38C14.6716 38 14 38.6716 14 39.5C14 40.3284 14.6716 41 15.5 41C16.3284 41 17 40.3284 17 39.5C17 38.6716 16.3284 38 15.5 38Z" fill="url(#paint0_linear_1394_9785)"/>
<path opacity="0.55" d="M37 4.2002C40.9182 4.99557 44.0044 8.08176 44.7998 12H48V16H44.7998C44.0044 19.9182 40.9182 23.0044 37 23.7998V28H33V23.7998C29.0818 23.0044 25.9956 19.9182 25.2002 16H22V12H25.2002C25.9956 8.08176 29.0818 4.99557 33 4.2002V0H37V4.2002ZM35 8C31.6863 8 29 10.6863 29 14C29 17.3137 31.6863 20 35 20C38.3137 20 41 17.3137 41 14C41 10.6863 38.3137 8 35 8Z" fill="url(#paint1_linear_1394_9785)"/>
<path fill-rule="evenodd" clip-rule="evenodd" d="M35 17C36.6569 17 38 15.6569 38 14C38 12.3431 36.6569 11 35 11C33.3431 11 32 12.3431 32 14C32 15.6569 33.3431 17 35 17Z" fill="url(#paint2_linear_1394_9785)"/>
<path d="M31.5 36C33.433 36 35 37.567 35 39.5C35 41.433 33.433 43 31.5 43H14.5C12.567 43 11 41.433 11 39.5C11 37.567 12.567 36 14.5 36H31.5ZM15.5 38C14.6716 38 14 38.6716 14 39.5C14 40.3284 14.6716 41 15.5 41C16.3284 41 17 40.3284 17 39.5C17 38.6716 16.3284 38 15.5 38Z" fill="url(#paint3_linear_1394_9785)"/>
<defs>
<linearGradient id="paint0_linear_1394_9785" x1="24.2692" y1="-1.61545" x2="-5.52216" y2="18.3649" gradientUnits="userSpaceOnUse">
<stop stop-color="#70B1FF"/>
<stop offset="1" stop-color="#005CCD"/>
</linearGradient>
<linearGradient id="paint1_linear_1394_9785" x1="12.0734" y1="7.91364" x2="28.2057" y2="28.1496" gradientUnits="userSpaceOnUse">
<stop stop-color="#70B1FF"/>
<stop offset="1" stop-color="#005CCD"/>
</linearGradient>
<linearGradient id="paint2_linear_1394_9785" x1="46.2352" y1="15.199" x2="36.6167" y2="3.64021" gradientUnits="userSpaceOnUse">
<stop stop-color="#295296"/>
<stop offset="1" stop-color="#3E78D3"/>
</linearGradient>
<linearGradient id="paint3_linear_1394_9785" x1="-1" y1="39.5" x2="2.7632" y2="52.4024" gradientUnits="userSpaceOnUse">
<stop stop-color="#6CA0EC"/>
<stop offset="1" stop-color="#5B90DF"/>
</linearGradient>
</defs>
</svg>
