<svg width="48" height="48" viewBox="0 0 48 48" fill="none" xmlns="http://www.w3.org/2000/svg">
<path fill-rule="evenodd" clip-rule="evenodd" d="M33.75 18C35.2688 18 36.5 16.7688 36.5 15.25C36.5 13.7312 35.2688 12.5 33.75 12.5C32.2312 12.5 31 13.7312 31 15.25C31 16.7688 32.2312 18 33.75 18Z" fill="url(#paint0_linear_1394_9796)"/>
<path opacity="0.35" fill-rule="evenodd" clip-rule="evenodd" d="M1.5 12.5H29.5V31.7088C29.5 35.0253 27.8557 38.126 25.1103 39.9867L15.5 46.5L5.8897 39.9867C3.1443 38.126 1.5 35.0253 1.5 31.7088V12.5Z" fill="url(#paint1_linear_1394_9796)"/>
<path opacity="0.6" d="M36.4404 2C38.1724 2.34825 39.7849 3.02592 41.208 3.96484C40.7739 4.4423 40.5089 5.07576 40.5088 5.77051C40.5088 7.25706 41.7198 8.46289 43.2129 8.46289C43.9107 8.46277 44.5468 8.19882 45.0264 7.7666C45.9694 9.18337 46.6502 10.7884 47 12.5127C45.6326 12.6465 44.5646 13.7949 44.5645 15.1914C44.5645 16.588 45.6326 17.7363 47 17.8701C46.6502 19.5944 45.9694 21.1994 45.0264 22.6162C44.5468 22.184 43.9107 21.921 43.2129 21.9209C41.7198 21.9209 40.5088 23.1258 40.5088 24.6123C40.5088 25.3072 40.7738 25.9404 41.208 26.418C39.6038 27.4764 37.759 28.2033 35.7734 28.5C35.6954 27.0832 34.5168 25.9581 33.0742 25.958C31.7231 25.958 30.6031 26.9453 30.4023 28.2344C28.9191 27.8581 27.5335 27.2371 26.292 26.418C26.7262 25.9404 26.9912 25.3072 26.9912 24.6123C26.9912 23.1258 25.7802 21.9209 24.2871 21.9209C23.5893 21.921 22.9532 22.184 22.4736 22.6162C21.5306 21.1994 20.8498 19.5944 20.5 17.8701C21.8674 17.7363 22.9355 16.588 22.9355 15.1914C22.9354 13.7949 21.8674 12.6465 20.5 12.5127C20.8498 10.7884 21.5306 9.18337 22.4736 7.7666C22.9532 8.19882 23.5893 8.46277 24.2871 8.46289C25.7802 8.46289 26.9912 7.25706 26.9912 5.77051C26.9911 5.07576 26.7261 4.4423 26.292 3.96484C27.7151 3.02592 29.3276 2.34825 31.0596 2C31.194 3.36141 32.3472 4.4248 33.75 4.4248C35.1528 4.4248 36.306 3.36141 36.4404 2ZM33.75 8.97363C30.2837 8.97363 27.4737 11.7837 27.4736 15.25C27.4736 18.7163 30.2837 21.5264 33.75 21.5264C37.2163 21.5263 40.0264 18.7163 40.0264 15.25C40.0263 11.7837 37.2163 8.97366 33.75 8.97363Z" fill="url(#paint2_linear_1394_9796)"/>
<path opacity="0.35" fill-rule="evenodd" clip-rule="evenodd" d="M15.5 12.5H29.5V32.5C29.5 33.6566 28 38 26 39.5L15.5 46.5V12.5Z" fill="url(#paint3_linear_1394_9796)"/>
<path d="M28.1074 12.5C27.7019 13.3305 27.4736 14.2635 27.4736 15.25C27.4736 17.0763 28.2549 18.7193 29.5 19.8662V27.9688C28.3556 27.5915 27.2779 27.0685 26.292 26.418C26.7262 25.9404 26.9912 25.3072 26.9912 24.6123C26.9912 23.1258 25.7802 21.9209 24.2871 21.9209C23.5893 21.921 22.9532 22.184 22.4736 22.6162C21.5306 21.1994 20.8498 19.5944 20.5 17.8701C21.8674 17.7363 22.9355 16.588 22.9355 15.1914C22.9354 13.7949 21.8674 12.6465 20.5 12.5127C20.5009 12.5084 20.5021 12.5043 20.5029 12.5H28.1074Z" fill="url(#paint4_linear_1394_9796)"/>
<defs>
<linearGradient id="paint0_linear_1394_9796" x1="44.0489" y1="16.3491" x2="35.232" y2="5.75352" gradientUnits="userSpaceOnUse">
<stop stop-color="#295296"/>
<stop offset="1" stop-color="#3E78D3"/>
</linearGradient>
<linearGradient id="paint1_linear_1394_9796" x1="-1.06509" y1="17.2432" x2="-1.06509" y2="57.4727" gradientUnits="userSpaceOnUse">
<stop stop-color="#70B1FF"/>
<stop offset="1" stop-color="#005CCD"/>
</linearGradient>
<linearGradient id="paint2_linear_1394_9796" x1="63.7034" y1="-20.0794" x2="10.0502" y2="-8.44416" gradientUnits="userSpaceOnUse">
<stop stop-color="#70B1FF"/>
<stop offset="1" stop-color="#005CCD"/>
</linearGradient>
<linearGradient id="paint3_linear_1394_9796" x1="8.5" y1="12.5" x2="8.5" y2="46.5" gradientUnits="userSpaceOnUse">
<stop stop-color="#70B1FF"/>
<stop offset="1" stop-color="#005CCD"/>
</linearGradient>
<linearGradient id="paint4_linear_1394_9796" x1="41.8527" y1="23.3255" x2="18.168" y2="6.76534" gradientUnits="userSpaceOnUse">
<stop stop-color="#295296"/>
<stop offset="1" stop-color="#3E78D3"/>
</linearGradient>
</defs>
</svg>
