<svg width="48" height="48" viewBox="0 0 48 48" fill="none" xmlns="http://www.w3.org/2000/svg">
<path opacity="0.4" fill-rule="evenodd" clip-rule="evenodd" d="M9 4.44444C9 3.09441 10.0944 2 11.4444 2H30L41 13V43.5556C41 44.9056 39.9056 46 38.5556 46H11.4444C10.0944 46 9 44.9056 9 43.5556V4.44444Z" fill="url(#paint0_linear_1394_9831)"/>
<path fill-rule="evenodd" clip-rule="evenodd" d="M30 2L41 13H32.4444C31.0944 13 30 11.9056 30 10.5556V2Z" fill="url(#paint1_linear_1394_9831)"/>
<rect opacity="0.4" x="6" y="13" width="23" height="13" fill="url(#paint2_linear_1394_9831)"/>
<rect opacity="0.4" x="13" y="29" width="24" height="3" fill="url(#paint3_linear_1394_9831)"/>
<rect opacity="0.4" x="13" y="34" width="24" height="3" fill="url(#paint4_linear_1394_9831)"/>
<rect opacity="0.4" x="13" y="39" width="18" height="3" fill="url(#paint5_linear_1394_9831)"/>
<path d="M9 29L6 26H9V29Z" fill="url(#paint6_linear_1394_9831)"/>
<path d="M16.146 18.627C16.146 19.2233 15.9507 19.6803 15.5601 19.998C15.1694 20.3158 14.6134 20.4746 13.8921 20.4746H13.2983V22.6113H12.3647V16.9004H14.0093C14.7228 16.9004 15.2567 17.0462 15.6108 17.3379C15.9676 17.6296 16.146 18.0592 16.146 18.627ZM13.2983 19.6895H13.7944C14.2736 19.6895 14.6252 19.6061 14.8491 19.4395C15.0731 19.2728 15.1851 19.0124 15.1851 18.6582C15.1851 18.3301 15.0848 18.0853 14.8843 17.9238C14.6838 17.7624 14.3713 17.6816 13.9468 17.6816H13.2983V19.6895ZM21.9312 19.7012C21.9312 20.6439 21.6694 21.3652 21.146 21.8652C20.6226 22.3626 19.8687 22.6113 18.8843 22.6113H17.2866V16.9004H19.0522C19.9611 16.9004 20.6681 17.1452 21.1733 17.6348C21.6785 18.1243 21.9312 18.8132 21.9312 19.7012ZM20.9468 19.7324C20.9468 18.3652 20.3075 17.6816 19.0288 17.6816H18.2202V21.8262H18.8843C20.2593 21.8262 20.9468 21.1283 20.9468 19.7324ZM24.0874 22.6113H23.1616V16.9004H26.3843V17.6895H24.0874V19.4746H26.2397V20.2676H24.0874V22.6113Z" fill="url(#paint7_linear_1394_9831)"/>
<defs>
<linearGradient id="paint0_linear_1394_9831" x1="28.0297" y1="65.9171" x2="67.12" y2="34.5147" gradientUnits="userSpaceOnUse">
<stop stop-color="#70B1FF"/>
<stop offset="1" stop-color="#005CCD"/>
</linearGradient>
<linearGradient id="paint1_linear_1394_9831" x1="56.0978" y1="9.69816" x2="38.464" y2="-11.493" gradientUnits="userSpaceOnUse">
<stop stop-color="#295296"/>
<stop offset="1" stop-color="#3E78D3"/>
</linearGradient>
<linearGradient id="paint2_linear_1394_9831" x1="17.5" y1="6.5" x2="6.36246" y2="26.2049" gradientUnits="userSpaceOnUse">
<stop stop-color="#70B1FF"/>
<stop offset="1" stop-color="#005CCD"/>
</linearGradient>
<linearGradient id="paint3_linear_1394_9831" x1="21.7273" y1="29.2609" x2="27.7369" y2="38.7737" gradientUnits="userSpaceOnUse">
<stop stop-color="#297BE0"/>
<stop offset="1" stop-color="#005CCD"/>
</linearGradient>
<linearGradient id="paint4_linear_1394_9831" x1="21.7273" y1="34.2609" x2="27.7369" y2="43.7737" gradientUnits="userSpaceOnUse">
<stop stop-color="#297BE0"/>
<stop offset="1" stop-color="#005CCD"/>
</linearGradient>
<linearGradient id="paint5_linear_1394_9831" x1="19.5455" y1="39.2609" x2="26.1034" y2="47.0464" gradientUnits="userSpaceOnUse">
<stop stop-color="#297BE0"/>
<stop offset="1" stop-color="#005CCD"/>
</linearGradient>
<linearGradient id="paint6_linear_1394_9831" x1="13.1176" y1="28.0995" x2="8.30837" y2="22.3201" gradientUnits="userSpaceOnUse">
<stop stop-color="#295296"/>
<stop offset="1" stop-color="#3E78D3"/>
</linearGradient>
<linearGradient id="paint7_linear_1394_9831" x1="50.7575" y1="21.6442" x2="34.5311" y2="-6.38682" gradientUnits="userSpaceOnUse">
<stop stop-color="#295296"/>
<stop offset="1" stop-color="#3E78D3"/>
</linearGradient>
</defs>
</svg>
