<svg width="48" height="48" viewBox="0 0 48 48" fill="none" xmlns="http://www.w3.org/2000/svg">
<g clip-path="url(#clip0_1394_9869)">
<path opacity="0.35" fill-rule="evenodd" clip-rule="evenodd" d="M15.5536 48.0002L5.75511 40.0389C3.37939 38.1087 2 35.2106 2 32.1496V14.9092H29.1073V32.1496C29.1073 35.2106 27.7279 38.1087 25.3522 40.0389L15.5536 48.0002Z" fill="url(#paint0_linear_1394_9869)"/>
<path opacity="0.35" d="M46.434 30.2857C46.4133 30.6377 46.1589 30.901 45.6886 31.185C44.7479 31.7529 43.0765 32.2469 42.0116 33.5396C41.0857 34.6401 39.9557 35.2465 38.9618 35.3234C37.9678 35.4033 37.11 34.9891 36.6041 33.9745V33.9715V33.9686C36.2906 33.371 36.4207 32.4303 36.684 31.4364C36.9473 30.4425 37.3289 29.4219 37.3792 28.5936V28.5907C37.4324 27.5287 37.4916 26.5998 37.6691 25.884C37.8465 25.1681 38.1276 24.683 38.6275 24.4108C38.6512 24.399 38.6748 24.3871 38.6955 24.3753C38.7517 25.2953 39.2073 26.233 40.0119 26.4371C40.8934 26.6679 42.1625 25.9135 42.6979 25.2982C42.8044 25.2953 42.9109 25.2894 43.0115 25.2864C43.4818 25.2746 43.8752 25.3012 44.2805 25.6532C44.5911 25.9165 44.739 26.4105 44.8662 26.9666C44.9934 27.5228 45.097 28.1262 45.4786 28.5581C46.2181 29.3834 46.4547 29.9337 46.434 30.2857ZM28.5373 32.8918V32.8977C28.4515 34.0129 27.8214 34.6223 26.857 34.8412C25.8897 35.0631 24.5822 34.8412 23.2718 34.1579C21.8252 33.3917 20.1036 33.4686 18.9972 33.2379C18.4441 33.1225 18.0832 32.948 17.9205 32.6256C17.7548 32.3031 17.7519 31.7411 18.1039 30.7826L18.1068 30.7797V30.7767C18.2814 30.2413 18.1512 29.6526 18.0684 29.1024C17.9826 28.5522 17.9441 28.0493 18.1305 27.7003L18.1335 27.6973C18.3731 27.2329 18.728 27.0672 19.1658 26.9104C19.6037 26.7537 20.1243 26.6294 20.5355 26.2182L20.5384 26.2153L20.5414 26.2123C20.92 25.813 21.207 25.3101 21.5383 24.9551C21.8193 24.6534 22.1003 24.4552 22.5263 24.4522C22.5322 24.4522 22.5352 24.4522 22.5411 24.4522C22.615 24.4522 22.6949 24.4581 22.7777 24.4729C23.3398 24.5587 23.8338 24.9521 24.3071 25.5941L25.6738 28.0848C26.0376 28.8451 26.8067 29.6793 27.4575 30.5312C28.0994 31.3802 28.6023 32.2351 28.5373 32.8918ZM35.3528 9.67036C35.2434 9.45442 35.0186 9.25031 34.637 9.09352C33.8442 8.75334 33.4981 8.72967 33.0573 8.44273C32.3355 7.9783 31.7409 7.8156 31.2469 7.81856C30.9866 7.81856 30.7559 7.86589 30.5488 7.93689C29.9453 8.14396 29.546 8.57585 29.2945 8.81546C29.2443 8.86279 29.1821 8.9042 29.0283 9.01661C28.8745 9.12902 28.6408 9.30059 28.3065 9.54908C28.0107 9.77094 27.9131 10.0608 28.0166 10.401C28.1202 10.7412 28.4456 11.1317 29.0461 11.4719C29.4188 11.6908 29.6702 11.9836 29.9631 12.2173C30.108 12.3357 30.2619 12.4392 30.4453 12.5161C30.6287 12.593 30.8446 12.6492 31.1138 12.664C31.7468 12.6995 32.2113 12.5102 32.6225 12.2765C33.0336 12.0428 33.3827 11.7529 33.785 11.6227C34.6044 11.3654 35.1901 10.8507 35.3735 10.3596C35.4652 10.12 35.4623 9.88631 35.3528 9.67036ZM43.2659 24.8131C43.1742 24.8102 43.0854 24.8102 42.9996 24.8131C42.9908 24.8131 42.9848 24.8131 42.976 24.8131C43.2008 24.1061 42.7038 23.5825 41.3815 22.985C40.0119 22.3815 38.9203 22.4407 38.734 23.6654C38.7222 23.7304 38.7133 23.7955 38.7044 23.8606C38.6009 23.8961 38.5003 23.9405 38.3968 23.9967C37.7548 24.3487 37.4028 24.9876 37.2076 25.7716C37.0123 26.5555 36.9561 27.5021 36.9029 28.564C36.8704 29.0995 36.6485 29.8213 36.4266 30.5904C34.1814 32.1907 31.0665 32.8859 28.4219 31.0814C28.2414 30.7974 28.0373 30.5164 27.8243 30.2413C27.6883 30.0638 27.5492 29.8893 27.4132 29.7148C27.6853 29.7148 27.916 29.6704 28.1024 29.5876C28.3331 29.4811 28.4958 29.3125 28.5787 29.0965C28.7384 28.6617 28.5787 28.0523 28.061 27.3512C27.5433 26.6531 26.6707 25.8633 25.3839 25.0764C24.4402 24.4877 23.9107 23.7689 23.6652 22.9879C23.4167 22.207 23.4522 21.361 23.6445 20.5268C24.0113 18.9264 24.949 17.3675 25.5495 16.3883C25.7093 16.27 25.6057 16.6102 24.9431 17.8437C24.3485 18.9708 23.2333 21.5739 24.7597 23.6062C24.8011 22.1597 25.1472 20.6865 25.727 19.305C26.5701 17.3911 28.3361 14.0721 28.4781 11.4245C28.552 11.4778 28.8005 11.6464 28.91 11.7085C29.2354 11.8978 29.4779 12.1789 29.7915 12.4303C30.108 12.6847 30.5015 12.9036 31.099 12.9391C31.1552 12.9421 31.2114 12.945 31.2676 12.945C31.8829 12.945 32.3621 12.7439 32.7615 12.5161C33.1963 12.2676 33.5424 11.9925 33.8708 11.886C34.566 11.6701 35.1162 11.2855 35.4297 10.8388C35.9681 12.9657 37.2224 16.0333 38.0299 17.5331C38.4589 18.3289 39.3108 20.018 39.6806 22.0502C39.9143 22.0443 40.1716 22.0768 40.4468 22.1478C41.4111 19.6511 39.6303 16.9622 38.8168 16.2138C38.4885 15.8943 38.4737 15.7523 38.6364 15.7582C39.5179 16.5392 40.6775 18.11 41.1005 19.8819C41.2928 20.6895 41.3342 21.5384 41.1271 22.3786C41.2277 22.42 41.3312 22.4643 41.4348 22.5146C42.9701 23.266 43.541 23.9227 43.2659 24.8131ZM35.4238 7.22398C35.4268 7.64403 35.3558 8.00493 35.196 8.36878C35.1043 8.57881 35.0008 8.75334 34.8736 8.9042C34.8322 8.8835 34.7878 8.86279 34.7405 8.84504C34.5807 8.777 34.4417 8.7208 34.3145 8.67347C34.1873 8.62614 34.0897 8.5936 33.9891 8.5581C34.0631 8.46936 34.208 8.36582 34.2613 8.2327C34.3441 8.03451 34.3826 7.83927 34.3914 7.60854C34.3914 7.59966 34.3944 7.59079 34.3944 7.58191C34.4003 7.36005 34.3707 7.17073 34.3056 6.97845C34.2376 6.77434 34.1518 6.62939 34.0276 6.5081C33.9033 6.38682 33.7791 6.33062 33.6282 6.32766C33.6223 6.32766 33.6134 6.32766 33.6075 6.32766C33.4685 6.32766 33.3442 6.37795 33.22 6.48148C33.0869 6.59093 32.9893 6.73292 32.9064 6.93112C32.8236 7.12932 32.7852 7.32455 32.7763 7.55529C32.7763 7.56416 32.7763 7.57304 32.7763 7.58191C32.7733 7.70911 32.7822 7.82744 32.7999 7.93985C32.513 7.79786 32.1462 7.69136 31.8918 7.6322C31.877 7.52275 31.8681 7.41034 31.8652 7.29201V7.25947C31.8593 6.83942 31.9302 6.47852 32.09 6.11467C32.2527 5.74786 32.4509 5.48459 32.7319 5.2716C33.0129 5.05861 33.291 4.96099 33.6194 4.95508H33.6341C33.9536 4.95508 34.2287 5.04974 34.5098 5.25385C34.7967 5.46092 35.0008 5.72124 35.1694 6.08509C35.3321 6.44007 35.412 6.78617 35.4179 7.19439C35.4209 7.20327 35.4209 7.21214 35.4238 7.22398ZM30.5784 7.64107C30.537 7.65291 30.4955 7.66474 30.4541 7.67953C30.2234 7.7594 30.043 7.84519 29.8655 7.96351C29.8832 7.84223 29.8862 7.71799 29.8714 7.57895C29.8714 7.57008 29.8714 7.56416 29.8714 7.55825C29.8536 7.37484 29.8152 7.22102 29.7501 7.06719C29.6821 6.9045 29.6051 6.79209 29.5016 6.70334C29.4099 6.62347 29.3241 6.58797 29.2265 6.58797C29.2176 6.58797 29.2058 6.58797 29.1969 6.58797C29.0904 6.59685 28.9987 6.6501 28.9159 6.75363C28.8301 6.85717 28.7769 6.98437 28.7355 7.15298C28.694 7.32159 28.6852 7.48725 28.7029 7.67953C28.7029 7.68841 28.7059 7.69432 28.7059 7.70024C28.7236 7.8866 28.7621 8.03747 28.8272 8.19425C28.8952 8.35399 28.9721 8.46936 29.0756 8.55514C29.0934 8.56993 29.1082 8.58177 29.1259 8.5936C29.0194 8.67643 28.9514 8.73263 28.8627 8.79475C28.8064 8.83617 28.7414 8.8835 28.6645 8.9397C28.4958 8.78292 28.3657 8.58472 28.2533 8.32441C28.1172 8.01676 28.0462 7.70911 28.0255 7.34526V7.3423C28.0048 6.97845 28.0403 6.66784 28.1409 6.34245C28.2414 6.02001 28.3746 5.78632 28.5698 5.59404C28.7621 5.40176 28.9603 5.30414 29.194 5.29231C29.2117 5.29231 29.2295 5.29231 29.2472 5.29231C29.4602 5.29231 29.6495 5.3633 29.8477 5.52008C30.0607 5.69166 30.2234 5.91056 30.3595 6.21821C30.4955 6.52585 30.5665 6.8335 30.5873 7.19735V7.20031C30.5932 7.36005 30.5902 7.50204 30.5784 7.64107Z" fill="url(#paint1_linear_1394_9869)"/>
<path d="M33.27 10.883C32.6163 11.2232 31.856 11.6373 31.0425 11.6373C30.232 11.6373 29.5901 11.2617 29.1286 10.8978C28.8979 10.7144 28.7115 10.534 28.5695 10.4008C28.324 10.2086 28.3536 9.93641 28.4542 9.94529C28.6228 9.966 28.6494 10.1879 28.7529 10.2884C28.8979 10.4215 29.0754 10.5961 29.2943 10.7706C29.7291 11.1167 30.3119 11.451 31.0396 11.451C31.7673 11.451 32.6133 11.025 33.131 10.7351C33.4239 10.5695 33.7966 10.2766 34.1013 10.0518C34.335 9.88021 34.3261 9.6761 34.5184 9.6968C34.7106 9.71751 34.5687 9.92458 34.2995 10.1612C34.0332 10.392 33.6132 10.7055 33.27 10.883ZM45.8333 28.2473C45.5789 27.9604 45.4576 27.4309 45.3274 26.8659C45.1973 26.3009 45.0523 25.6915 44.5909 25.2981L44.5879 25.2951C44.4962 25.2152 44.4015 25.1472 44.3069 25.091C44.2122 25.0348 44.1146 24.9875 44.0199 24.952C44.6648 23.041 44.4104 21.1389 43.7626 19.4202C42.9639 17.3111 41.5706 15.4741 40.5086 14.2169C39.3165 12.7141 38.1539 11.2883 38.1746 9.18209C38.2101 5.96954 38.5267 0.00887444 32.8707 0C32.6399 0 32.4003 0.00887444 32.1518 0.0295815C25.8303 0.538383 27.5076 7.21788 27.4129 9.45424C27.2975 11.0901 26.9662 12.3798 25.8421 13.9772C24.5198 15.548 22.6592 18.092 21.7776 20.7396C21.3605 21.9879 21.1653 23.2629 21.3457 24.4668C21.2895 24.5171 21.2333 24.5733 21.183 24.6266C20.7955 25.0407 20.5086 25.5436 20.1891 25.8808C19.8903 26.1796 19.4644 26.292 18.997 26.4606C18.5296 26.6292 18.0178 26.8748 17.7043 27.4723C17.7043 27.4723 17.7043 27.4753 17.7013 27.4753C17.5534 27.7474 17.5061 28.0432 17.5061 28.342C17.5061 28.6201 17.5475 28.8981 17.5889 29.1703C17.6747 29.7323 17.7634 30.2648 17.6451 30.6227C17.2753 31.6344 17.228 32.3325 17.4883 32.8413C17.7486 33.3501 18.287 33.575 18.8934 33.7022C20.1063 33.9566 21.748 33.8915 23.0437 34.5778L23.1561 34.3677L23.0467 34.5778C24.4311 35.3025 25.8362 35.5599 26.9573 35.3025C27.7708 35.1162 28.4305 34.634 28.7677 33.8885C29.6433 33.8856 30.6077 33.5128 32.1489 33.4271C33.1931 33.3413 34.5006 33.7998 36.0034 33.714C36.0418 33.8767 36.098 34.0335 36.1779 34.1814L36.1808 34.1843C36.7636 35.3498 37.8463 35.8823 38.997 35.7906C40.1507 35.6989 41.3783 35.0185 42.3722 33.8382L42.1888 33.6844L42.3722 33.8353C43.3188 32.6875 44.8867 32.2142 45.9309 31.5841C46.4515 31.2706 46.8745 30.8771 46.9071 30.3062C46.9396 29.7442 46.6053 29.1052 45.8333 28.2473ZM31.8679 7.25633C31.8619 6.83628 31.9329 6.47538 32.0927 6.11153C32.2554 5.74472 32.4536 5.48145 32.7346 5.26846C33.0156 5.05547 33.2937 4.95785 33.622 4.95194H33.6368C33.9563 4.95194 34.2314 5.0466 34.5124 5.25071C34.7994 5.45778 35.0035 5.7181 35.1721 6.08195C35.3348 6.43693 35.4147 6.78303 35.4206 7.19125C35.4206 7.20309 35.4206 7.21196 35.4236 7.22084C35.4265 7.64089 35.3555 8.00179 35.1958 8.36564C35.1041 8.57567 35.0005 8.7502 34.8733 8.90106C34.8319 8.88036 34.7876 8.85965 34.7402 8.8419C34.5805 8.77386 34.4415 8.71766 34.3143 8.67033C34.1871 8.623 34.0894 8.59046 33.9889 8.55496C34.0628 8.46622 34.2078 8.36268 34.261 8.22956C34.3438 8.03137 34.3823 7.83613 34.3912 7.60539C34.3912 7.59652 34.3941 7.58765 34.3941 7.57877C34.4 7.35691 34.3705 7.16759 34.3054 6.97531C34.2373 6.7712 34.1516 6.62625 34.0273 6.50496C33.9031 6.38368 33.7788 6.32748 33.628 6.32452C33.622 6.32452 33.6132 6.32452 33.6073 6.32452C33.4682 6.32452 33.344 6.37481 33.2197 6.47834C33.0866 6.58779 32.989 6.72978 32.9062 6.92798C32.8233 7.12617 32.7849 7.32141 32.776 7.55215C32.776 7.56102 32.776 7.5699 32.776 7.57877C32.7731 7.70597 32.7819 7.8243 32.7997 7.93671C32.5127 7.79472 32.1459 7.68822 31.8915 7.62906C31.8767 7.51961 31.8679 7.4072 31.8649 7.28887V7.25633H31.8679ZM28.1376 6.35114C28.2382 6.0287 28.3713 5.79501 28.5666 5.60273C28.7589 5.41045 28.957 5.31283 29.1907 5.301C29.2085 5.301 29.2262 5.301 29.244 5.301C29.457 5.301 29.6463 5.37199 29.8445 5.52878C30.0575 5.70035 30.2202 5.91925 30.3563 6.2269C30.4923 6.53455 30.5633 6.84219 30.584 7.20604V7.209C30.5929 7.36283 30.5929 7.50482 30.5811 7.64385C30.5397 7.65568 30.4982 7.66752 30.4568 7.68231C30.2261 7.76218 30.0456 7.84796 29.8682 7.96629C29.8859 7.845 29.8889 7.72076 29.8741 7.58173C29.8741 7.57285 29.8741 7.56694 29.8741 7.56102C29.8563 7.37762 29.8179 7.22379 29.7528 7.06997C29.6848 6.90727 29.6078 6.79486 29.5043 6.70612C29.4126 6.62625 29.3268 6.59075 29.2292 6.59075C29.2203 6.59075 29.2085 6.59075 29.1996 6.59075C29.0931 6.59962 29.0014 6.65287 28.9186 6.75641C28.8328 6.85994 28.7796 6.98714 28.7381 7.15576C28.6967 7.32437 28.6879 7.49003 28.7056 7.68231C28.7056 7.69118 28.7086 7.6971 28.7086 7.70301C28.7263 7.88938 28.7648 8.04024 28.8298 8.19702C28.8979 8.35676 28.9748 8.47213 29.0783 8.55792C29.0961 8.57271 29.1109 8.58454 29.1286 8.59637C29.0221 8.6792 28.9541 8.73541 28.8653 8.79753C28.8091 8.83894 28.7441 8.88627 28.6672 8.94248C28.4985 8.78569 28.3684 8.5875 28.256 8.32718C28.1199 8.01953 28.0489 7.71189 28.0282 7.34804V7.34508C28.0016 6.98714 28.0371 6.67358 28.1376 6.35114ZM28.3003 9.55185C28.6346 9.30041 28.8653 9.1318 29.0221 9.01939C29.176 8.90698 29.2381 8.86556 29.2884 8.81823C29.5398 8.58158 29.9392 8.14673 30.5426 7.93966C30.7497 7.86867 30.9804 7.82134 31.2407 7.82134C31.7347 7.81838 32.3323 7.98108 33.0511 8.44551C33.4948 8.73245 33.838 8.75907 34.6308 9.0963C35.0124 9.25308 35.2372 9.45719 35.3466 9.67314C35.4561 9.88908 35.4591 10.1198 35.3674 10.3653C35.1839 10.8564 34.5982 11.3711 33.7788 11.6285C33.3795 11.7586 33.0304 12.0456 32.6163 12.2822C32.2051 12.5189 31.7407 12.7082 31.1076 12.6697C30.8384 12.6549 30.6225 12.6017 30.4391 12.5218C30.2557 12.442 30.1019 12.3384 29.9569 12.2231C29.667 11.9894 29.4126 11.6936 29.0399 11.4776C28.4423 11.1404 28.114 10.7469 28.0104 10.4068C27.9069 10.0636 28.0045 9.77372 28.3003 9.55185ZM28.537 32.8916V32.8975C28.4512 34.0128 27.8211 34.6221 26.8568 34.841C25.8895 35.0629 24.582 34.841 23.2715 34.1577C21.825 33.3916 20.1033 33.4685 18.997 33.2377C18.4438 33.1224 18.0829 32.9478 17.9202 32.6254C17.7545 32.303 17.7516 31.7409 18.1036 30.7825L18.1066 30.7795V30.7766C18.2811 30.2411 18.1509 29.6525 18.0681 29.1022C17.9823 28.552 17.9439 28.0491 18.1302 27.7001L18.1332 27.6971C18.3728 27.2327 18.7278 27.067 19.1656 26.9103C19.6034 26.7535 20.124 26.6292 20.5352 26.2181L20.5382 26.2151L20.5411 26.2121C20.9198 25.8128 21.2067 25.3099 21.538 24.9549C21.819 24.6532 22.1001 24.455 22.526 24.452C22.532 24.452 22.5349 24.452 22.5408 24.452C22.6148 24.452 22.6947 24.458 22.7775 24.4727C23.3395 24.5585 23.8335 24.952 24.3068 25.5939L25.6735 28.0846C26.0374 28.8449 26.8065 29.6791 27.4573 30.531C28.0992 31.38 28.6021 32.2349 28.537 32.8916ZM28.4216 31.0812C28.2412 30.7973 28.0371 30.5162 27.8241 30.2411C27.688 30.0636 27.549 29.8891 27.4129 29.7146C27.685 29.7146 27.9158 29.6702 28.1021 29.5874C28.3329 29.4809 28.4956 29.3123 28.5784 29.0963C28.7381 28.6615 28.5784 28.0521 28.0607 27.351C27.5431 26.6529 26.6704 25.8631 25.3836 25.0762C24.44 24.4875 23.9105 23.7687 23.6649 22.9878C23.4164 22.2068 23.4519 21.3608 23.6442 20.5266C24.011 18.9262 24.9488 17.3673 25.5493 16.3881C25.709 16.2698 25.6055 16.61 24.9428 17.8435C24.3483 18.9706 23.233 21.5738 24.7594 23.606C24.8009 22.1595 25.147 20.6863 25.7268 19.3049C26.5698 17.3909 28.3358 14.0719 28.4778 11.4244C28.5518 11.4776 28.8003 11.6462 28.9097 11.7083C29.2351 11.8977 29.4777 12.1787 29.7912 12.4301C30.1078 12.6845 30.5012 12.9034 31.0987 12.9389C31.155 12.9419 31.2112 12.9448 31.2674 12.9448C31.8827 12.9448 32.3619 12.7437 32.7612 12.5159C33.1961 12.2674 33.5422 11.9923 33.8705 11.8858C34.5657 11.6699 35.1159 11.2853 35.4295 10.8386C35.9679 12.9656 37.2221 16.0332 38.0297 17.5329C38.4586 18.3287 39.3106 20.0178 39.6803 22.05C39.914 22.0441 40.1714 22.0766 40.4465 22.1476C41.4108 19.651 39.63 16.962 38.8166 16.2136C38.4882 15.8941 38.4734 15.7521 38.6361 15.758C39.5176 16.539 40.6772 18.1098 41.1002 19.8817C41.2925 20.6893 41.3339 21.5383 41.1269 22.3784C41.2274 22.4198 41.331 22.4642 41.4345 22.5145C42.9816 23.2658 43.5525 23.9225 43.2774 24.8159C43.1857 24.8129 43.097 24.8129 43.0112 24.8159C43.0023 24.8159 42.9964 24.8159 42.9875 24.8159C43.2124 24.1089 42.7154 23.5853 41.3931 22.9878C40.0235 22.3843 38.9319 22.4435 38.7456 23.6681C38.7337 23.7332 38.7248 23.7983 38.716 23.8634C38.6124 23.8989 38.5119 23.9432 38.4083 23.9994C37.7664 24.3515 37.4144 24.9904 37.2192 25.7743C37.0239 26.5582 36.9677 27.5048 36.9145 28.5668C36.8819 29.1022 36.6601 29.824 36.4382 30.5931C34.1811 32.1935 31.0662 32.8887 28.4216 31.0812ZM46.4338 30.2855C46.4131 30.6375 46.1587 30.9008 45.6883 31.1848C44.7476 31.7527 43.0763 32.2468 42.0113 33.5395C41.0854 34.6399 39.9554 35.2463 38.9615 35.3232C37.9676 35.4031 37.1097 34.989 36.6039 33.9743V33.9714V33.9684C36.2903 33.3708 36.4205 32.4302 36.6837 31.4362C36.947 30.4423 37.3286 29.4217 37.3789 28.5934V28.5905C37.4321 27.5285 37.4913 26.5997 37.6688 25.8838C37.8463 25.1679 38.1273 24.6828 38.6272 24.4106C38.6509 24.3988 38.6746 24.387 38.6953 24.3751C38.7515 25.2951 39.207 26.2328 40.0116 26.437C40.8932 26.6677 42.1622 25.9134 42.6976 25.2981C42.8041 25.2951 42.9106 25.2892 43.0112 25.2862C43.4815 25.2744 43.875 25.301 44.2802 25.653C44.5909 25.9163 44.7388 26.4103 44.866 26.9665C44.9932 27.5226 45.0967 28.1261 45.4783 28.5579C46.2178 29.3833 46.4545 29.9335 46.4338 30.2855ZM31.649 8.51059C31.6756 8.59637 31.8146 8.58158 31.8974 8.623C31.9684 8.65849 32.0246 8.73836 32.1045 8.74132C32.1814 8.74428 32.2998 8.7147 32.3086 8.64075C32.3205 8.54017 32.1755 8.47805 32.0838 8.44255C31.9625 8.39522 31.8087 8.37155 31.6963 8.43368C31.6697 8.44847 31.6401 8.48396 31.649 8.51059ZM30.8236 8.51059C30.797 8.59637 30.658 8.58158 30.5752 8.623C30.5042 8.65849 30.448 8.73836 30.3681 8.74132C30.2912 8.74428 30.1728 8.7147 30.164 8.64075C30.1521 8.54017 30.2971 8.47805 30.3888 8.44255C30.5101 8.39522 30.6639 8.37155 30.7763 8.43368C30.8059 8.44847 30.8325 8.48396 30.8236 8.51059Z" fill="url(#paint2_linear_1394_9869)" fill-opacity="0.5"/>
<path opacity="0.45" fill-rule="evenodd" clip-rule="evenodd" d="M15.5537 48.0002V14.9092H29.1073V32.1496C29.1073 35.2106 27.7279 38.1087 25.3522 40.0389L15.5537 48.0002Z" fill="url(#paint3_linear_1394_9869)"/>
<path opacity="0.3" d="M33.27 10.883C32.6163 11.2232 31.856 11.6373 31.0425 11.6373C30.232 11.6373 29.5901 11.2617 29.1286 10.8978C28.8979 10.7144 28.7115 10.534 28.5695 10.4008C28.324 10.2086 28.3536 9.93641 28.4542 9.94529C28.6228 9.966 28.6494 10.1879 28.7529 10.2884C28.8979 10.4215 29.0754 10.5961 29.2943 10.7706C29.7291 11.1167 30.3119 11.451 31.0396 11.451C31.7673 11.451 32.6133 11.025 33.131 10.7351C33.4239 10.5695 33.7966 10.2766 34.1013 10.0518C34.335 9.88021 34.3261 9.6761 34.5184 9.6968C34.7106 9.71751 34.5687 9.92458 34.2995 10.1612C34.0332 10.392 33.6132 10.7055 33.27 10.883ZM45.8333 28.2473C45.5789 27.9604 45.4576 27.4309 45.3274 26.8659C45.1973 26.3009 45.0523 25.6915 44.5909 25.2981L44.5879 25.2951C44.4962 25.2152 44.4015 25.1472 44.3069 25.091C44.2122 25.0348 44.1146 24.9875 44.0199 24.952C44.6648 23.041 44.4104 21.1389 43.7626 19.4202C42.9639 17.3111 41.5706 15.4741 40.5086 14.2169C39.3165 12.7141 38.1539 11.2883 38.1746 9.18209C38.2101 5.96954 38.5267 0.00887444 32.8707 0C32.6399 0 32.4003 0.00887444 32.1518 0.0295815C25.8303 0.538383 27.5076 7.21788 27.4129 9.45424C27.2975 11.0901 26.9662 12.3798 25.8421 13.9772C24.5198 15.548 22.6592 18.092 21.7776 20.7396C21.3605 21.9879 21.1653 23.2629 21.3457 24.4668C21.2895 24.5171 21.2333 24.5733 21.183 24.6266C20.7955 25.0407 20.5086 25.5436 20.1891 25.8808C19.8903 26.1796 19.4644 26.292 18.997 26.4606C18.5296 26.6292 18.0178 26.8748 17.7043 27.4723C17.7043 27.4723 17.7043 27.4753 17.7013 27.4753C17.5534 27.7474 17.5061 28.0432 17.5061 28.342C17.5061 28.6201 17.5475 28.8981 17.5889 29.1703C17.6747 29.7323 17.7634 30.2648 17.6451 30.6227C17.2753 31.6344 17.228 32.3325 17.4883 32.8413C17.7486 33.3501 18.287 33.575 18.8934 33.7022C20.1063 33.9566 21.748 33.8915 23.0437 34.5778L23.1561 34.3677L23.0467 34.5778C24.4311 35.3025 25.8362 35.5599 26.9573 35.3025C27.7708 35.1162 28.4305 34.634 28.7677 33.8885C29.6433 33.8856 30.6077 33.5128 32.1489 33.4271C33.1931 33.3413 34.5006 33.7998 36.0034 33.714C36.0418 33.8767 36.098 34.0335 36.1779 34.1814L36.1808 34.1843C36.7636 35.3498 37.8463 35.8823 38.997 35.7906C40.1507 35.6989 41.3783 35.0185 42.3722 33.8382L42.1888 33.6844L42.3722 33.8353C43.3188 32.6875 44.8867 32.2142 45.9309 31.5841C46.4515 31.2706 46.8745 30.8771 46.9071 30.3062C46.9396 29.7442 46.6053 29.1052 45.8333 28.2473ZM31.8679 7.25633C31.8619 6.83628 31.9329 6.47538 32.0927 6.11153C32.2554 5.74472 32.4536 5.48145 32.7346 5.26846C33.0156 5.05547 33.2937 4.95785 33.622 4.95194H33.6368C33.9563 4.95194 34.2314 5.0466 34.5124 5.25071C34.7994 5.45778 35.0035 5.7181 35.1721 6.08195C35.3348 6.43693 35.4147 6.78303 35.4206 7.19125C35.4206 7.20309 35.4206 7.21196 35.4236 7.22084C35.4265 7.64089 35.3555 8.00179 35.1958 8.36564C35.1041 8.57567 35.0005 8.7502 34.8733 8.90106C34.8319 8.88036 34.7876 8.85965 34.7402 8.8419C34.5805 8.77386 34.4415 8.71766 34.3143 8.67033C34.1871 8.623 34.0894 8.59046 33.9889 8.55496C34.0628 8.46622 34.2078 8.36268 34.261 8.22956C34.3438 8.03137 34.3823 7.83613 34.3912 7.60539C34.3912 7.59652 34.3941 7.58765 34.3941 7.57877C34.4 7.35691 34.3705 7.16759 34.3054 6.97531C34.2373 6.7712 34.1516 6.62625 34.0273 6.50496C33.9031 6.38368 33.7788 6.32748 33.628 6.32452C33.622 6.32452 33.6132 6.32452 33.6073 6.32452C33.4682 6.32452 33.344 6.37481 33.2197 6.47834C33.0866 6.58779 32.989 6.72978 32.9062 6.92798C32.8233 7.12617 32.7849 7.32141 32.776 7.55215C32.776 7.56102 32.776 7.5699 32.776 7.57877C32.7731 7.70597 32.7819 7.8243 32.7997 7.93671C32.5127 7.79472 32.1459 7.68822 31.8915 7.62906C31.8767 7.51961 31.8679 7.4072 31.8649 7.28887V7.25633H31.8679ZM28.1376 6.35114C28.2382 6.0287 28.3713 5.79501 28.5666 5.60273C28.7589 5.41045 28.957 5.31283 29.1907 5.301C29.2085 5.301 29.2262 5.301 29.244 5.301C29.457 5.301 29.6463 5.37199 29.8445 5.52878C30.0575 5.70035 30.2202 5.91925 30.3563 6.2269C30.4923 6.53455 30.5633 6.84219 30.584 7.20604V7.209C30.5929 7.36283 30.5929 7.50482 30.5811 7.64385C30.5397 7.65568 30.4982 7.66752 30.4568 7.68231C30.2261 7.76218 30.0456 7.84796 29.8682 7.96629C29.8859 7.845 29.8889 7.72076 29.8741 7.58173C29.8741 7.57285 29.8741 7.56694 29.8741 7.56102C29.8563 7.37762 29.8179 7.22379 29.7528 7.06997C29.6848 6.90727 29.6078 6.79486 29.5043 6.70612C29.4126 6.62625 29.3268 6.59075 29.2292 6.59075C29.2203 6.59075 29.2085 6.59075 29.1996 6.59075C29.0931 6.59962 29.0014 6.65287 28.9186 6.75641C28.8328 6.85994 28.7796 6.98714 28.7381 7.15576C28.6967 7.32437 28.6879 7.49003 28.7056 7.68231C28.7056 7.69118 28.7086 7.6971 28.7086 7.70301C28.7263 7.88938 28.7648 8.04024 28.8298 8.19702C28.8979 8.35676 28.9748 8.47213 29.0783 8.55792C29.0961 8.57271 29.1109 8.58454 29.1286 8.59637C29.0221 8.6792 28.9541 8.73541 28.8653 8.79753C28.8091 8.83894 28.7441 8.88627 28.6672 8.94248C28.4985 8.78569 28.3684 8.5875 28.256 8.32718C28.1199 8.01953 28.0489 7.71189 28.0282 7.34804V7.34508C28.0016 6.98714 28.0371 6.67358 28.1376 6.35114ZM28.3003 9.55185C28.6346 9.30041 28.8653 9.1318 29.0221 9.01939C29.176 8.90698 29.2381 8.86556 29.2884 8.81823C29.5398 8.58158 29.9392 8.14673 30.5426 7.93966C30.7497 7.86867 30.9804 7.82134 31.2407 7.82134C31.7347 7.81838 32.3323 7.98108 33.0511 8.44551C33.4948 8.73245 33.838 8.75907 34.6308 9.0963C35.0124 9.25308 35.2372 9.45719 35.3466 9.67314C35.4561 9.88908 35.4591 10.1198 35.3674 10.3653C35.1839 10.8564 34.5982 11.3711 33.7788 11.6285C33.3795 11.7586 33.0304 12.0456 32.6163 12.2822C32.2051 12.5189 31.7407 12.7082 31.1076 12.6697C30.8384 12.6549 30.6225 12.6017 30.4391 12.5218C30.2557 12.442 30.1019 12.3384 29.9569 12.2231C29.667 11.9894 29.4126 11.6936 29.0399 11.4776C28.4423 11.1404 28.114 10.7469 28.0104 10.4068C27.9069 10.0636 28.0045 9.77372 28.3003 9.55185ZM28.537 32.8916V32.8975C28.4512 34.0128 27.8211 34.6221 26.8568 34.841C25.8895 35.0629 24.582 34.841 23.2715 34.1577C21.825 33.3916 20.1033 33.4685 18.997 33.2377C18.4438 33.1224 18.0829 32.9478 17.9202 32.6254C17.7545 32.303 17.7516 31.7409 18.1036 30.7825L18.1066 30.7795V30.7766C18.2811 30.2411 18.1509 29.6525 18.0681 29.1022C17.9823 28.552 17.9439 28.0491 18.1302 27.7001L18.1332 27.6971C18.3728 27.2327 18.7278 27.067 19.1656 26.9103C19.6034 26.7535 20.124 26.6292 20.5352 26.2181L20.5382 26.2151L20.5411 26.2121C20.9198 25.8128 21.2067 25.3099 21.538 24.9549C21.819 24.6532 22.1001 24.455 22.526 24.452C22.532 24.452 22.5349 24.452 22.5408 24.452C22.6148 24.452 22.6947 24.458 22.7775 24.4727C23.3395 24.5585 23.8335 24.952 24.3068 25.5939L25.6735 28.0846C26.0374 28.8449 26.8065 29.6791 27.4573 30.531C28.0992 31.38 28.6021 32.2349 28.537 32.8916ZM28.4216 31.0812C28.2412 30.7973 28.0371 30.5162 27.8241 30.2411C27.688 30.0636 27.549 29.8891 27.4129 29.7146C27.685 29.7146 27.9158 29.6702 28.1021 29.5874C28.3329 29.4809 28.4956 29.3123 28.5784 29.0963C28.7381 28.6615 28.5784 28.0521 28.0607 27.351C27.5431 26.6529 26.6704 25.8631 25.3836 25.0762C24.44 24.4875 23.9105 23.7687 23.6649 22.9878C23.4164 22.2068 23.4519 21.3608 23.6442 20.5266C24.011 18.9262 24.9488 17.3673 25.5493 16.3881C25.709 16.2698 25.6055 16.61 24.9428 17.8435C24.3483 18.9706 23.233 21.5738 24.7594 23.606C24.8009 22.1595 25.147 20.6863 25.7268 19.3049C26.5698 17.3909 28.3358 14.0719 28.4778 11.4244C28.5518 11.4776 28.8003 11.6462 28.9097 11.7083C29.2351 11.8977 29.4777 12.1787 29.7912 12.4301C30.1078 12.6845 30.5012 12.9034 31.0987 12.9389C31.155 12.9419 31.2112 12.9448 31.2674 12.9448C31.8827 12.9448 32.3619 12.7437 32.7612 12.5159C33.1961 12.2674 33.5422 11.9923 33.8705 11.8858C34.5657 11.6699 35.1159 11.2853 35.4295 10.8386C35.9679 12.9656 37.2221 16.0332 38.0297 17.5329C38.4586 18.3287 39.3106 20.0178 39.6803 22.05C39.914 22.0441 40.1714 22.0766 40.4465 22.1476C41.4108 19.651 39.63 16.962 38.8166 16.2136C38.4882 15.8941 38.4734 15.7521 38.6361 15.758C39.5176 16.539 40.6772 18.1098 41.1002 19.8817C41.2925 20.6893 41.3339 21.5383 41.1269 22.3784C41.2274 22.4198 41.331 22.4642 41.4345 22.5145C42.9816 23.2658 43.5525 23.9225 43.2774 24.8159C43.1857 24.8129 43.097 24.8129 43.0112 24.8159C43.0023 24.8159 42.9964 24.8159 42.9875 24.8159C43.2124 24.1089 42.7154 23.5853 41.3931 22.9878C40.0235 22.3843 38.9319 22.4435 38.7456 23.6681C38.7337 23.7332 38.7248 23.7983 38.716 23.8634C38.6124 23.8989 38.5119 23.9432 38.4083 23.9994C37.7664 24.3515 37.4144 24.9904 37.2192 25.7743C37.0239 26.5582 36.9677 27.5048 36.9145 28.5668C36.8819 29.1022 36.6601 29.824 36.4382 30.5931C34.1811 32.1935 31.0662 32.8887 28.4216 31.0812ZM46.4338 30.2855C46.4131 30.6375 46.1587 30.9008 45.6883 31.1848C44.7476 31.7527 43.0763 32.2468 42.0113 33.5395C41.0854 34.6399 39.9554 35.2463 38.9615 35.3232C37.9676 35.4031 37.1097 34.989 36.6039 33.9743V33.9714V33.9684C36.2903 33.3708 36.4205 32.4302 36.6837 31.4362C36.947 30.4423 37.3286 29.4217 37.3789 28.5934V28.5905C37.4321 27.5285 37.4913 26.5997 37.6688 25.8838C37.8463 25.1679 38.1273 24.6828 38.6272 24.4106C38.6509 24.3988 38.6746 24.387 38.6953 24.3751C38.7515 25.2951 39.207 26.2328 40.0116 26.437C40.8932 26.6677 42.1622 25.9134 42.6976 25.2981C42.8041 25.2951 42.9106 25.2892 43.0112 25.2862C43.4815 25.2744 43.875 25.301 44.2802 25.653C44.5909 25.9163 44.7388 26.4103 44.866 26.9665C44.9932 27.5226 45.0967 28.1261 45.4783 28.5579C46.2178 29.3833 46.4545 29.9335 46.4338 30.2855ZM31.649 8.51059C31.6756 8.59637 31.8146 8.58158 31.8974 8.623C31.9684 8.65849 32.0246 8.73836 32.1045 8.74132C32.1814 8.74428 32.2998 8.7147 32.3086 8.64075C32.3205 8.54017 32.1755 8.47805 32.0838 8.44255C31.9625 8.39522 31.8087 8.37155 31.6963 8.43368C31.6697 8.44847 31.6401 8.48396 31.649 8.51059ZM30.8236 8.51059C30.797 8.59637 30.658 8.58158 30.5752 8.623C30.5042 8.65849 30.448 8.73836 30.3681 8.74132C30.2912 8.74428 30.1728 8.7147 30.164 8.64075C30.1521 8.54017 30.2971 8.47805 30.3888 8.44255C30.5101 8.39522 30.6639 8.37155 30.7763 8.43368C30.8059 8.44847 30.8325 8.48396 30.8236 8.51059Z" fill="url(#paint4_linear_1394_9869)"/>
<path d="M27.6464 14.9092C27.031 16.5782 26.2206 18.1829 25.7264 19.3047C25.1466 20.6861 24.801 22.1599 24.7596 23.6064C23.2333 21.5743 24.3476 18.9709 24.9422 17.8438C25.6049 16.6102 25.7084 16.2703 25.5487 16.3887C24.9482 17.3678 24.0112 18.9272 23.6444 20.5273C23.4522 21.3614 23.4165 22.2074 23.6649 22.9883C23.9105 23.7691 24.4401 24.4876 25.3837 25.0762C26.6704 25.863 27.5427 26.6534 28.0604 27.3516C28.5781 28.0526 28.7377 28.6618 28.578 29.0967C28.4952 29.3125 28.333 29.4814 28.1024 29.5879C27.9161 29.6707 27.685 29.7148 27.413 29.7148C27.549 29.8893 27.688 30.0638 27.8241 30.2412C28.0371 30.5163 28.2413 30.798 28.4217 31.082C28.6468 31.2358 28.8762 31.3697 29.1073 31.4883V32.1494C29.1073 32.7347 29.0561 33.3141 28.9579 33.8818C28.8939 33.8856 28.8304 33.8885 28.7674 33.8887C28.4302 34.6341 27.7704 35.1164 26.9569 35.3027C25.8359 35.56 24.431 35.3027 23.0467 34.5781L23.1561 34.3682L23.0438 34.5781C21.7482 33.8918 20.1063 33.9565 18.8934 33.7021C18.287 33.575 17.7485 33.3505 17.4881 32.8418C17.2278 32.333 17.2756 31.6347 17.6454 30.623C17.7636 30.2652 17.6745 29.7328 17.5887 29.1709C17.5473 28.8989 17.5058 28.6207 17.5057 28.3428C17.5057 28.044 17.5532 27.7477 17.701 27.4756C17.7038 27.4756 17.704 27.4731 17.704 27.4727C18.0175 26.8751 18.5295 26.6296 18.9969 26.4609C19.4643 26.2923 19.8906 26.1796 20.1893 25.8809C20.5086 25.5437 20.7952 25.0409 21.1825 24.627C21.2328 24.5737 21.2894 24.5171 21.3456 24.4668C21.1652 23.2631 21.3602 21.9883 21.7772 20.7402C22.5013 18.5654 23.8892 16.4622 25.0936 14.9092H27.6464ZM22.5262 24.4521C22.1003 24.4551 21.8189 24.6534 21.538 24.9551C21.2066 25.3101 20.9195 25.8135 20.5409 26.2129L20.535 26.2188C20.124 26.6296 19.6035 26.7535 19.1659 26.9102C18.7281 27.0669 18.3723 27.2328 18.1327 27.6973L18.1297 27.7002C17.9434 28.0493 17.9824 28.5523 18.0682 29.1025C18.1511 29.6527 18.2808 30.2419 18.1063 30.7773V30.7803L18.1034 30.7832C17.7515 31.7414 17.7542 32.3036 17.9198 32.626C18.0825 32.9483 18.4438 33.1229 18.9969 33.2383C20.1033 33.469 21.8249 33.3921 23.2714 34.1582C24.5816 34.8414 25.8891 35.0635 26.8563 34.8418C27.8207 34.6229 28.4512 34.0127 28.537 32.8975V32.8916C28.6018 32.2349 28.0987 31.3801 27.4569 30.5312C26.8062 29.6794 26.0375 28.8451 25.6737 28.085L24.3065 25.5938C23.8333 24.9521 23.3391 24.5584 22.7772 24.4727C22.6945 24.4579 22.6147 24.4522 22.5409 24.4521H22.5262Z" fill="url(#paint5_linear_1394_9869)"/>
</g>
<defs>
<linearGradient id="paint0_linear_1394_9869" x1="-13.9913" y1="58.5609" x2="24.9675" y2="67.0341" gradientUnits="userSpaceOnUse">
<stop stop-color="#70B1FF"/>
<stop offset="1" stop-color="#005CCD"/>
</linearGradient>
<linearGradient id="paint1_linear_1394_9869" x1="49.6558" y1="20.2528" x2="29.1684" y2="1.28202" gradientUnits="userSpaceOnUse">
<stop stop-color="#70B1FF"/>
<stop offset="1" stop-color="#005CCD"/>
</linearGradient>
<linearGradient id="paint2_linear_1394_9869" x1="28.0184" y1="42.9731" x2="64.5395" y2="23.4781" gradientUnits="userSpaceOnUse">
<stop stop-color="#295296"/>
<stop offset="1" stop-color="#3E78D3"/>
</linearGradient>
<linearGradient id="paint3_linear_1394_9869" x1="7.55804" y1="58.5609" x2="27.7205" y2="60.7535" gradientUnits="userSpaceOnUse">
<stop stop-color="#70B1FF"/>
<stop offset="1" stop-color="#005CCD"/>
</linearGradient>
<linearGradient id="paint4_linear_1394_9869" x1="-0.128825" y1="46.3024" x2="42.0018" y2="56.3592" gradientUnits="userSpaceOnUse">
<stop stop-color="#70B1FF"/>
<stop offset="1" stop-color="#005CCD"/>
</linearGradient>
<linearGradient id="paint5_linear_1394_9869" x1="21.5835" y1="39.5052" x2="38.0077" y2="33.4044" gradientUnits="userSpaceOnUse">
<stop stop-color="#295296"/>
<stop offset="1" stop-color="#3E78D3"/>
</linearGradient>
<clipPath id="clip0_1394_9869">
<rect width="48" height="48" fill="white"/>
</clipPath>
</defs>
</svg>
