<svg width="48" height="48" viewBox="0 0 48 48" fill="none" xmlns="http://www.w3.org/2000/svg">
<path opacity="0.45" fill-rule="evenodd" clip-rule="evenodd" d="M2 14.5H27V31.8575C27 34.5262 25.6692 37.0192 23.4519 38.5043L14.5 44.5L5.54814 38.5043C3.33078 37.0192 2 34.5262 2 31.8575V14.5Z" fill="url(#paint0_linear_1394_9906)"/>
<path fill-rule="evenodd" clip-rule="evenodd" d="M14.5 14.5H27V31.8575C27 34.5262 25.6692 37.0192 23.4519 38.5043L14.5 44.5V14.5Z" fill="url(#paint1_linear_1394_9906)"/>
<path opacity="0.42" fill-rule="evenodd" clip-rule="evenodd" d="M39.5449 6.44552L46 11.5L39.5449 16.5545C34.5292 20.4818 27.4708 20.4818 22.4551 16.5545L16 11.5L22.4551 6.44552C27.4708 2.51816 34.5292 2.51816 39.5449 6.44552Z" fill="url(#paint2_linear_1394_9906)"/>
<path fill-rule="evenodd" clip-rule="evenodd" d="M31 17C34.0376 17 36.5 14.5376 36.5 11.5C36.5 8.46243 34.0376 6 31 6C27.9624 6 25.5 8.46243 25.5 11.5C25.5 14.5376 27.9624 17 31 17Z" fill="url(#paint3_linear_1394_9906)"/>
<path fill-rule="evenodd" clip-rule="evenodd" d="M34.5 11.7596C34.367 13.5714 32.8529 15 31.0047 15C29.0691 15 27.5 13.433 27.5 11.5C27.5 9.567 29.0691 8 31.0047 8C31.3911 8 31.7628 8.06242 32.1104 8.17772C31.6987 8.57542 31.4428 9.13287 31.4428 9.75C31.4428 10.9581 32.4235 11.9375 33.6333 11.9375C33.9412 11.9375 34.2342 11.8741 34.5 11.7596V11.7596Z" fill="url(#paint4_linear_1394_9906)"/>
<defs>
<linearGradient id="paint0_linear_1394_9906" x1="-12.7482" y1="53.3001" x2="22.8207" y2="61.862" gradientUnits="userSpaceOnUse">
<stop stop-color="#70B1FF"/>
<stop offset="1" stop-color="#005CCD"/>
</linearGradient>
<linearGradient id="paint1_linear_1394_9906" x1="9.43551" y1="24.9854" x2="26.041" y2="33.0059" gradientUnits="userSpaceOnUse">
<stop stop-color="#8AB8F6"/>
<stop offset="1" stop-color="#6395DE"/>
</linearGradient>
<linearGradient id="paint2_linear_1394_9906" x1="4.11829" y1="10.6685" x2="15.3409" y2="34.1519" gradientUnits="userSpaceOnUse">
<stop stop-color="#70B1FF"/>
<stop offset="1" stop-color="#005CCD"/>
</linearGradient>
<linearGradient id="paint3_linear_1394_9906" x1="22.6884" y1="10.7989" x2="28.8437" y2="20.0776" gradientUnits="userSpaceOnUse">
<stop stop-color="#7AAAF1"/>
<stop offset="1" stop-color="#6395E2"/>
</linearGradient>
<linearGradient id="paint4_linear_1394_9906" x1="31.0452" y1="21.3196" x2="40.8252" y2="11.5163" gradientUnits="userSpaceOnUse">
<stop stop-color="#295296"/>
<stop offset="1" stop-color="#3E78D3"/>
</linearGradient>
</defs>
</svg>
