<svg width="48" height="48" viewBox="0 0 48 48" fill="none" xmlns="http://www.w3.org/2000/svg">
<rect opacity="0.275529" x="6.3269" y="8.48438" width="34.8462" height="19.1654" fill="url(#paint0_linear_1394_9912)"/>
<path opacity="0.55" fill-rule="evenodd" clip-rule="evenodd" d="M39.7162 5C40.4964 5 41.1334 5.61332 41.1713 6.38413L41.1731 6.45684V8.48462H6.3269V6.45684C6.3269 5.67663 6.94022 5.03967 7.71104 5.00178L7.78375 5H39.7162ZM35.8424 5.72839C35.3395 5.72839 34.9319 6.13605 34.9319 6.63892C34.9319 7.14179 35.3395 7.54945 35.8424 7.54945C36.3453 7.54945 36.7529 7.14179 36.7529 6.63892C36.7529 6.13605 36.3453 5.72839 35.8424 5.72839Z" fill="url(#paint1_linear_1394_9912)"/>
<path fill-rule="evenodd" clip-rule="evenodd" d="M38.7565 7.54957C39.2593 7.54957 39.667 7.14191 39.667 6.63904C39.667 6.13617 39.2593 5.72852 38.7565 5.72852C38.2536 5.72852 37.8459 6.13617 37.8459 6.63904C37.8459 7.14191 38.2536 7.54957 38.7565 7.54957Z" fill="url(#paint2_linear_1394_9912)"/>
<path opacity="0.25" fill-rule="evenodd" clip-rule="evenodd" d="M5.1654 11.3887H42.3346C43.2969 11.3887 44.0769 12.1009 44.0769 12.9795V34.1902C44.0769 35.0688 43.2969 35.781 42.3346 35.781H5.1654C4.20315 35.781 3.4231 35.0688 3.4231 34.1902V12.9795C3.4231 12.1009 4.20315 11.3887 5.1654 11.3887Z" fill="url(#paint3_linear_1394_9912)"/>
<path opacity="0.5" fill-rule="evenodd" clip-rule="evenodd" d="M19.8299 35.7812H27.6703L28.977 42.7505H18.5232L19.8299 35.7812Z" fill="url(#paint4_linear_1394_9912)"/>
<path opacity="0.35" d="M3.4231 32.2959H44.0769V34.0382C44.0769 35.0005 43.2969 35.7805 42.3346 35.7805H5.16541C4.20316 35.7805 3.4231 35.0005 3.4231 34.0382V32.2959Z" fill="url(#paint5_linear_1394_9912)"/>
<path fill-rule="evenodd" clip-rule="evenodd" d="M28.3962 13.7119L33.0423 20.3468L30.4611 20.3468L30.4611 30.5542L26.3312 30.5542L26.3312 20.3468L23.75 20.3468L28.3962 13.7119Z" fill="url(#paint6_linear_1394_9912)"/>
<path fill-rule="evenodd" clip-rule="evenodd" d="M19.1038 30.5537L14.4577 23.9189L17.0389 23.9189L17.0389 13.7114L21.1688 13.7114L21.1688 23.9189L23.75 23.9189L19.1038 30.5537Z" fill="url(#paint7_linear_1394_9912)"/>
<defs>
<linearGradient id="paint0_linear_1394_9912" x1="41.1731" y1="18.0671" x2="6.3269" y2="18.0671" gradientUnits="userSpaceOnUse">
<stop stop-color="#70B1FF"/>
<stop offset="1" stop-color="#005CCD"/>
</linearGradient>
<linearGradient id="paint1_linear_1394_9912" x1="23.75" y1="3.25769" x2="23.06" y2="10.1579" gradientUnits="userSpaceOnUse">
<stop stop-color="#70B1FF"/>
<stop offset="1" stop-color="#005CCD"/>
</linearGradient>
<linearGradient id="paint2_linear_1394_9912" x1="44.3744" y1="7.28911" x2="39.8032" y2="2.6688" gradientUnits="userSpaceOnUse">
<stop stop-color="#295296"/>
<stop offset="1" stop-color="#3E78D3"/>
</linearGradient>
<linearGradient id="paint3_linear_1394_9912" x1="21.6018" y1="6.69272" x2="8.94998" y2="32.0414" gradientUnits="userSpaceOnUse">
<stop stop-color="#70B1FF"/>
<stop offset="1" stop-color="#005CCD"/>
</linearGradient>
<linearGradient id="paint4_linear_1394_9912" x1="22.8849" y1="25.6983" x2="15.3174" y2="41.1839" gradientUnits="userSpaceOnUse">
<stop stop-color="#70B1FF"/>
<stop offset="1" stop-color="#005CCD"/>
</linearGradient>
<linearGradient id="paint5_linear_1394_9912" x1="21.6018" y1="31.625" x2="21.2809" y2="36.1255" gradientUnits="userSpaceOnUse">
<stop stop-color="#70B1FF"/>
<stop offset="1" stop-color="#005CCD"/>
</linearGradient>
<linearGradient id="paint6_linear_1394_9912" x1="23.75" y1="13.7119" x2="23.75" y2="30.5542" gradientUnits="userSpaceOnUse">
<stop stop-color="#295296"/>
<stop offset="1" stop-color="#3E78D3"/>
</linearGradient>
<linearGradient id="paint7_linear_1394_9912" x1="23.75" y1="30.5537" x2="23.75" y2="13.7114" gradientUnits="userSpaceOnUse">
<stop stop-color="#295296"/>
<stop offset="1" stop-color="#3E78D3"/>
</linearGradient>
</defs>
</svg>
