<svg width="48" height="48" viewBox="0 0 48 48" fill="none" xmlns="http://www.w3.org/2000/svg">
<path opacity="0.3" fill-rule="evenodd" clip-rule="evenodd" d="M17.0888 33.8C25.594 33.8 32.4888 26.9052 32.4888 18.4C32.4888 9.89481 25.594 3 17.0888 3C8.58366 3 1.68884 9.89481 1.68884 18.4C1.68884 26.9052 8.58366 33.8 17.0888 33.8Z" fill="url(#paint0_linear_1394_9933)"/>
<path opacity="0.6" fill-rule="evenodd" clip-rule="evenodd" d="M20.3555 14.4397V11.168C23.1075 12.413 25.0222 15.1827 25.0222 18.3997C25.0222 22.7811 21.4703 26.333 17.0889 26.333C12.7074 26.333 9.15552 22.7811 9.15552 18.3997C9.15552 15.1827 11.0702 12.413 13.8222 11.168V14.4397C12.6821 15.3812 11.9555 16.8056 11.9555 18.3997C11.9555 21.2347 14.2538 23.533 17.0889 23.533C19.9239 23.533 22.2222 21.2347 22.2222 18.3997C22.2222 16.8056 21.4956 15.3812 20.3555 14.4397V14.4397Z" fill="url(#paint1_linear_1394_9933)"/>
<path opacity="0.6" fill-rule="evenodd" clip-rule="evenodd" d="M15.689 9.06641H18.489V15.5997H15.689V9.06641Z" fill="url(#paint2_linear_1394_9933)"/>
<path opacity="0.45" fill-rule="evenodd" clip-rule="evenodd" d="M26.9246 39.7243L16.9585 22.409C16.7451 22.0563 16.6221 21.6428 16.6221 21.2005C16.6221 19.9119 17.6667 18.8672 18.9554 18.8672C19.8403 18.8672 20.6101 19.3598 21.0057 20.0857L27.3015 31.0241L27.3047 30.917C27.3907 30.2134 27.797 29.5572 28.4623 29.1755C29.5857 28.5312 31.0221 28.9136 31.6707 30.0296L32.1403 30.8377C32.2262 30.1341 32.6325 29.4779 33.2979 29.0962C34.4212 28.4519 35.8577 28.8343 36.5062 29.9503L36.9759 30.7585C37.1684 30.3098 37.5036 29.9171 37.9615 29.6545C39.0849 29.0101 40.5213 29.3925 41.1698 30.5085L46.9554 45.0005H26.7287L17.0887 39.4712L17.5585 38.6629C18.5962 36.8773 20.8945 36.2655 22.6918 37.2964L26.9246 39.7243Z" fill="url(#paint3_linear_1394_9933)"/>
<path fill-rule="evenodd" clip-rule="evenodd" d="M23.0495 23.6362C22.0151 24.8129 20.6377 25.6807 19.0736 26.0835L17.592 23.5094C19.2715 23.346 20.7139 22.3733 21.5243 20.9863L23.0495 23.6362V23.6362Z" fill="url(#paint4_linear_1394_9933)"/>
<defs>
<linearGradient id="paint0_linear_1394_9933" x1="18.4747" y1="-10.6099" x2="-8.74508" y2="17.4184" gradientUnits="userSpaceOnUse">
<stop stop-color="#70B1FF"/>
<stop offset="1" stop-color="#005CCD"/>
</linearGradient>
<linearGradient id="paint1_linear_1394_9933" x1="-1.27947" y1="16.428" x2="13.2875" y2="32.5379" gradientUnits="userSpaceOnUse">
<stop stop-color="#70B1FF"/>
<stop offset="1" stop-color="#005CCD"/>
</linearGradient>
<linearGradient id="paint2_linear_1394_9933" x1="13.8475" y1="11.3325" x2="18.5892" y2="13.4805" gradientUnits="userSpaceOnUse">
<stop stop-color="#70B1FF"/>
<stop offset="1" stop-color="#005CCD"/>
</linearGradient>
<linearGradient id="paint3_linear_1394_9933" x1="62.1221" y1="31.3732" x2="34.9988" y2="1.1861" gradientUnits="userSpaceOnUse">
<stop stop-color="#70B1FF"/>
<stop offset="1" stop-color="#005CCD"/>
</linearGradient>
<linearGradient id="paint4_linear_1394_9933" x1="19.3312" y1="33.1259" x2="25.809" y2="23.87" gradientUnits="userSpaceOnUse">
<stop stop-color="#295296"/>
<stop offset="1" stop-color="#3E78D3"/>
</linearGradient>
</defs>
</svg>
