<svg width="48" height="48" viewBox="0 0 48 48" fill="none" xmlns="http://www.w3.org/2000/svg">
<path opacity="0.45" fill-rule="evenodd" clip-rule="evenodd" d="M12.5403 31.0438C12.5628 31.044 12.5853 31.0441 12.6079 31.0441H39.7921C43.2209 31.0441 46 28.0895 46 24.4441C46 20.7987 43.2209 17.8441 39.7921 17.8441H37.1883C36.9003 11.113 31.352 5.74414 24.55 5.74414C20.597 5.74414 17.0674 7.55741 14.7477 10.3975C14.0083 10.2317 13.2394 10.1441 12.45 10.1441C6.67936 10.1441 2 14.8228 2 20.5941C2 26.3655 6.67936 31.0441 12.45 31.0441C12.4801 31.0441 12.5103 31.044 12.5403 31.0438V31.0438Z" fill="url(#paint0_linear_1394_9945)"/>
<path opacity="0.6" fill-rule="evenodd" clip-rule="evenodd" d="M24.0007 20.5943C28.8608 20.5943 32.8007 24.5342 32.8007 29.3943C32.8007 34.2544 28.8608 38.1943 24.0007 38.1943C19.1406 38.1943 15.2007 34.2544 15.2007 29.3943C15.2007 27.4789 15.8126 25.7064 16.8517 24.2617L13.2772 21.6954C11.7186 23.8625 10.8007 26.5212 10.8007 29.3943C10.8007 36.6845 16.7105 42.5943 24.0007 42.5943C31.2908 42.5943 37.2007 36.6845 37.2007 29.3943C37.2007 22.1042 31.2908 16.1943 24.0007 16.1943V13.4443L16.8507 18.3943L24.0007 23.3443V20.5943Z" fill="url(#paint1_linear_1394_9945)"/>
<path d="M24.0009 16.1943C31.2909 16.1944 37.201 22.1044 37.201 29.3945C37.201 29.9531 37.1659 30.5036 37.0985 31.0439H32.6444C32.7458 30.5096 32.8006 29.9584 32.8007 29.3945C32.8007 24.5345 28.8609 20.5948 24.0009 20.5947V23.3447L16.8505 18.3945L24.0009 13.4443V16.1943ZM16.8514 24.2617C15.8124 25.7064 15.201 27.4792 15.201 29.3945C15.2011 29.9584 15.2559 30.5095 15.3573 31.0439H12.4501C11.9198 31.0439 11.3986 31.004 10.8895 30.9277C10.8313 30.4247 10.8007 29.9132 10.8007 29.3945C10.8007 26.5214 11.7186 23.8624 13.2772 21.6953L16.8514 24.2617Z" fill="url(#paint2_linear_1394_9945)"/>
<defs>
<linearGradient id="paint0_linear_1394_9945" x1="-20" y1="18.3941" x2="1.86566" y2="56.4214" gradientUnits="userSpaceOnUse">
<stop stop-color="#70B1FF"/>
<stop offset="1" stop-color="#005CCD"/>
</linearGradient>
<linearGradient id="paint1_linear_1394_9945" x1="24.0007" y1="57.1693" x2="53.0081" y2="30.8984" gradientUnits="userSpaceOnUse">
<stop stop-color="#70B1FF"/>
<stop offset="1" stop-color="#005CCD"/>
</linearGradient>
<linearGradient id="paint2_linear_1394_9945" x1="24.1713" y1="46.9328" x2="46.848" y2="12.8357" gradientUnits="userSpaceOnUse">
<stop stop-color="#295296"/>
<stop offset="1" stop-color="#3E78D3"/>
</linearGradient>
</defs>
</svg>
