<svg width="48" height="48" viewBox="0 0 48 48" fill="none" xmlns="http://www.w3.org/2000/svg">
<path opacity="0.45" fill-rule="evenodd" clip-rule="evenodd" d="M4 16H30.5V34.5146C30.5 37.3613 29.0894 40.0205 26.739 41.6046L17.25 48L7.76103 41.6046C5.41063 40.0205 4 37.3613 4 34.5146V16Z" fill="url(#paint0_linear_1394_9999)"/>
<path fill-rule="evenodd" clip-rule="evenodd" d="M17.5 16H30.5V34.5146C30.5 37.3613 29.116 40.0205 26.8099 41.6046L17.5 48V16Z" fill="url(#paint1_linear_1394_9999)"/>
<path opacity="0.45" fill-rule="evenodd" clip-rule="evenodd" d="M34.25 23.5C40.1871 23.5 45 18.6871 45 12.75C45 6.81294 40.1871 2 34.25 2C28.3129 2 23.5 6.81294 23.5 12.75C23.5 18.6871 28.3129 23.5 34.25 23.5Z" fill="url(#paint2_linear_1394_9999)"/>
<path d="M30.5 22.8262C27.4152 21.6777 25.0013 19.1542 24.002 16H30.5V22.8262Z" fill="url(#paint3_linear_1394_9999)"/>
<path fill-rule="evenodd" clip-rule="evenodd" d="M35.9375 11.0625V6H32.5625V11.0625H27.5V14.4375H32.5625V19.5H35.9375V14.4375H41V11.0625H35.9375Z" fill="url(#paint4_linear_1394_9999)"/>
<defs>
<linearGradient id="paint0_linear_1394_9999" x1="-11.6331" y1="57.3868" x2="26.0957" y2="66.4119" gradientUnits="userSpaceOnUse">
<stop stop-color="#70B1FF"/>
<stop offset="1" stop-color="#005CCD"/>
</linearGradient>
<linearGradient id="paint1_linear_1394_9999" x1="12.2329" y1="27.1844" x2="29.6655" y2="35.3939" gradientUnits="userSpaceOnUse">
<stop stop-color="#8AB8F6"/>
<stop offset="1" stop-color="#6395DE"/>
</linearGradient>
<linearGradient id="paint2_linear_1394_9999" x1="31.7557" y1="33.2322" x2="51.2201" y2="20.792" gradientUnits="userSpaceOnUse">
<stop stop-color="#70B1FF"/>
<stop offset="1" stop-color="#005CCD"/>
</linearGradient>
<linearGradient id="paint3_linear_1394_9999" x1="39.4187" y1="20.7772" x2="28.3905" y2="8.16124" gradientUnits="userSpaceOnUse">
<stop stop-color="#295296"/>
<stop offset="1" stop-color="#3E78D3"/>
</linearGradient>
<linearGradient id="paint4_linear_1394_9999" x1="59.5291" y1="15.4477" x2="37.8877" y2="-10.5595" gradientUnits="userSpaceOnUse">
<stop stop-color="#295296"/>
<stop offset="1" stop-color="#3E78D3"/>
</linearGradient>
</defs>
</svg>
