<svg width="48" height="48" viewBox="0 0 48 48" fill="none" xmlns="http://www.w3.org/2000/svg">
<path fill-rule="evenodd" clip-rule="evenodd" d="M32.9194 3L42.2098 12.2903H32.9194V3Z" fill="url(#paint0_linear_1394_10011)"/>
<path opacity="0.4" fill-rule="evenodd" clip-rule="evenodd" d="M15.5 3H32.9194L42.2097 12.2903V39H15.5V3Z" fill="url(#paint1_linear_1394_10011)"/>
<path opacity="0.45" d="M15.25 19C18.7018 19 21.5 21.7982 21.5 25.25V29H24.5V44.5H6V29H9V25.25C9 21.7982 11.7982 19 15.25 19ZM15.25 22C13.4551 22 12 23.4551 12 25.25V29H18.5V25.25C18.5 23.4551 17.0449 22 15.25 22Z" fill="url(#paint2_linear_1394_10011)"/>
<path d="M15.5 19.0059C18.8359 19.1371 21.5 21.882 21.5 25.25V29H24.5V39H15.5V29H18.5V25.25C18.5 23.5392 17.1781 22.1374 15.5 22.0098V19.0059Z" fill="url(#paint3_linear_1394_10011)"/>
<defs>
<linearGradient id="paint0_linear_1394_10011" x1="54.961" y1="9.50167" x2="40.0679" y2="-8.39581" gradientUnits="userSpaceOnUse">
<stop stop-color="#295296"/>
<stop offset="1" stop-color="#3E78D3"/>
</linearGradient>
<linearGradient id="paint1_linear_1394_10011" x1="31.3836" y1="55.2958" x2="63.4984" y2="28.9769" gradientUnits="userSpaceOnUse">
<stop stop-color="#70B1FF"/>
<stop offset="1" stop-color="#005CCD"/>
</linearGradient>
<linearGradient id="paint2_linear_1394_10011" x1="15.25" y1="6.25" x2="-8.99106" y2="23.8366" gradientUnits="userSpaceOnUse">
<stop stop-color="#70B1FF"/>
<stop offset="1" stop-color="#005CCD"/>
</linearGradient>
<linearGradient id="paint3_linear_1394_10011" x1="20.0581" y1="57.0506" x2="41.0026" y2="47.6004" gradientUnits="userSpaceOnUse">
<stop stop-color="#295296"/>
<stop offset="1" stop-color="#3E78D3"/>
</linearGradient>
</defs>
</svg>
