<svg width="48" height="48" viewBox="0 0 48 48" fill="none" xmlns="http://www.w3.org/2000/svg">
<path d="M24.5 16C20.0817 16 16.5 19.5817 16.5 24L19 24L14.5 30.5L10 24L12.5 24C12.5 17.3726 17.8726 12 24.5 12C27.0029 12 29.3268 12.7663 31.25 14.077L28.7958 17.25C27.5548 16.4586 26.081 16 24.5 16Z" fill="url(#paint0_linear_1394_10022)"/>
<path d="M23.75 32.25C28.1683 32.25 31.75 28.6683 31.75 24.25L29.25 24.25L33.75 17.75L38.25 24.25L35.75 24.25C35.75 30.8774 30.3774 36.25 23.75 36.25C21.2471 36.25 18.9232 35.4837 17 34.173L19.4542 31C20.6952 31.7914 22.169 32.25 23.75 32.25Z" fill="url(#paint1_linear_1394_10022)"/>
<path opacity="0.38" d="M27.96 4.5C30.5088 5.0148 32.8813 6.01645 34.9756 7.4043C34.3365 8.11021 33.9473 9.04702 33.9473 10.0742C33.9473 12.2716 35.7284 14.0527 37.9258 14.0527C38.953 14.0527 39.8898 13.6635 40.5957 13.0244C41.9835 15.1187 42.9852 17.4912 43.5 20.04C41.4875 20.2379 39.915 21.9355 39.915 24C39.915 26.0645 41.4875 27.7621 43.5 27.96C42.9852 30.5088 41.9835 32.8813 40.5957 34.9756C39.8898 34.3365 38.953 33.9473 37.9258 33.9473C35.7284 33.9473 33.9473 35.7284 33.9473 37.9258C33.9473 38.953 34.3365 39.8898 34.9756 40.5957C32.8813 41.9835 30.5088 42.9852 27.96 43.5C27.7621 41.4875 26.0645 39.915 24 39.915C21.9355 39.915 20.2379 41.4875 20.04 43.5C17.4912 42.9852 15.1187 41.9835 13.0244 40.5957C13.6635 39.8898 14.0527 38.953 14.0527 37.9258C14.0527 35.7284 12.2716 33.9473 10.0742 33.9473C9.04702 33.9473 8.11021 34.3365 7.4043 34.9756C6.01645 32.8813 5.0148 30.5088 4.5 27.96C6.51246 27.7621 8.08496 26.0645 8.08496 24C8.08496 21.9355 6.51246 20.2379 4.5 20.04C5.0148 17.4912 6.01645 15.1187 7.4043 13.0244C8.11021 13.6635 9.04702 14.0527 10.0742 14.0527C12.2716 14.0527 14.0527 12.2716 14.0527 10.0742C14.0527 9.04702 13.6635 8.11021 13.0244 7.4043C15.1187 6.01645 17.4912 5.0148 20.04 4.5C20.2379 6.51246 21.9355 8.08496 24 8.08496C26.0645 8.08496 27.7621 6.51246 27.96 4.5ZM24 20C21.7909 20 20 21.7909 20 24C20 26.2091 21.7909 28 24 28C26.2091 28 28 26.2091 28 24C28 21.7909 26.2091 20 24 20Z" fill="url(#paint2_linear_1394_10022)"/>
<defs>
<linearGradient id="paint0_linear_1394_10022" x1="50.4344" y1="21.1305" x2="24.7643" y2="-8.28554" gradientUnits="userSpaceOnUse">
<stop stop-color="#295296"/>
<stop offset="1" stop-color="#3E78D3"/>
</linearGradient>
<linearGradient id="paint1_linear_1394_10022" x1="-2.18441" y1="27.1195" x2="23.4857" y2="56.5355" gradientUnits="userSpaceOnUse">
<stop stop-color="#295296"/>
<stop offset="1" stop-color="#3E78D3"/>
</linearGradient>
<linearGradient id="paint2_linear_1394_10022" x1="-16.7956" y1="12.8487" x2="7.08424" y2="55.4399" gradientUnits="userSpaceOnUse">
<stop stop-color="#70B1FF"/>
<stop offset="1" stop-color="#005CCD"/>
</linearGradient>
</defs>
</svg>
