<svg width="48" height="48" viewBox="0 0 48 48" fill="none" xmlns="http://www.w3.org/2000/svg">
<path opacity="0.45" d="M45.45 5.97222C45.8167 5.54444 46 4.99444 46 4.44444C46 3.1 44.9 2 43.5556 2H4.44444C3.46667 2 2.55 2.61111 2.18333 3.52778C2.06111 3.83333 2 4.13889 2 4.44444C2 4.99444 2.18333 5.54444 2.55 5.97222L4.07778 7.86667L12.8167 18.5L18.3167 25.2222C18.8056 25.7111 19.1111 26.3222 19.05 27.0556V43.5556C19.05 44.9 20.15 46 21.4944 46C21.9833 46 22.4722 45.8167 22.9 45.5722L23.0222 45.45L27.7278 41.9056L27.85 41.7833C28.4611 41.2944 28.8278 40.6222 28.8278 39.8278V27.0556C28.8278 26.3833 29.0722 25.7722 29.5611 25.2833L35.1833 18.5L45.45 5.97222Z" fill="url(#paint0_linear_1394_10041)"/>
<path opacity="0.45" d="M21.5916 4.9156C23.3712 4.68331 25.1397 4.77686 26.908 5.07282C28.6726 5.36505 30.3812 5.97942 31.9735 6.78864C33.5965 7.61505 35.1009 8.73423 36.3953 10.0201C36.4046 10.0284 36.4145 10.0361 36.4236 10.0445C36.4802 10.096 36.5328 10.1535 36.5828 10.2144C37.2214 10.8735 37.7962 11.5873 38.3387 12.3267C39.4102 13.7879 40.2158 15.4399 40.7928 17.1558C41.3585 18.8379 41.6471 20.6436 41.6883 22.4156C41.707 23.2061 41.6664 23.9969 41.5652 24.7799C41.4379 25.769 41.2802 26.7436 41.0067 27.7027C40.5159 29.4296 39.7591 31.1152 38.7664 32.6099C37.7361 34.161 36.492 35.5849 35.0272 36.7388C34.2442 37.357 33.4461 37.9414 32.577 38.4322C31.7078 38.923 30.7862 39.3281 29.8533 39.6802C28.1824 40.3097 26.3986 40.6388 24.619 40.7437C22.8581 40.8449 21.0557 40.6585 19.3436 40.2388C18.5643 40.0478 17.7961 39.7921 17.0506 39.4849C16.1366 39.1066 15.2487 38.7022 14.4022 38.189C12.8211 37.2299 11.3527 36.0158 10.1463 34.6109C9.48315 33.8391 8.86484 33.0223 8.33283 32.1568C7.8158 31.3138 7.40345 30.4256 7.0213 29.5152C6.32453 27.8518 5.94933 26.1058 5.77326 24.315C5.60097 22.543 5.74353 20.7446 6.09943 19.0025C6.45911 17.2529 7.11891 15.5405 7.9881 13.982C8.88352 12.3748 10.0566 10.8759 11.409 9.62458C12.7464 8.38088 14.2787 7.30563 15.9383 6.53767C16.8224 6.12931 17.7331 5.76232 18.6697 5.48884C19.6287 5.20791 20.6027 5.04671 21.5916 4.9156ZM33.6844 15.9605L21.6883 27.9566C20.7142 28.9307 19.7365 29.9094 18.7586 30.8873C17.9606 31.6853 17.1621 32.4828 16.3641 33.2808C16.1988 33.4461 16.0327 33.6112 15.867 33.7769C16.6836 34.3415 17.5509 34.8279 18.4598 35.232C19.5749 35.6739 20.7345 35.9887 21.9207 36.1695C23.0997 36.3001 24.2918 36.2994 25.4735 36.1685C26.6618 35.9871 27.8233 35.6714 28.9402 35.2281C30.0163 34.7513 31.0332 34.1528 31.9774 33.4498C32.8581 32.7375 33.6635 31.9331 34.3758 31.0523C35.0814 30.1043 35.6787 29.0825 36.159 28.0015C36.6006 26.886 36.9151 25.7262 37.0955 24.5396C37.2259 23.359 37.2254 22.1652 37.0936 20.982C36.9117 19.7956 36.5951 18.6362 36.1522 17.5211C35.7512 16.6169 35.2656 15.7537 34.7029 14.941C34.363 15.2809 34.0233 15.6216 33.6844 15.9605ZM25.4676 9.36872C24.2906 9.23855 23.1003 9.23926 21.9207 9.3697C20.7294 9.55127 19.5646 9.86727 18.4451 10.3121C17.3725 10.7878 16.3584 11.3848 15.4168 12.0855C14.5389 12.7949 13.7359 13.5963 13.0252 14.4732C12.3129 15.428 11.7097 16.4576 11.2264 17.5474C10.7862 18.6613 10.4736 19.8198 10.2938 21.0045C10.1648 22.1753 10.1649 23.3593 10.2938 24.5328C10.4738 25.7203 10.7877 26.8813 11.2293 27.9976C11.6323 28.9102 12.1226 29.7806 12.6902 30.6002C13.0309 30.2595 13.3721 29.9193 13.7117 29.5797L22.5086 20.7828C23.5763 19.715 24.6401 18.6503 25.7078 17.5826C26.6819 16.6085 27.6606 15.6308 28.6385 14.6529C29.4364 13.855 30.2341 13.0563 31.032 12.2584C31.1963 12.0941 31.3605 11.929 31.5252 11.7642C30.7082 11.1992 29.8409 10.7115 28.9315 10.3072C27.8154 9.86499 26.6548 9.54946 25.4676 9.36872Z" fill="url(#paint1_linear_1394_10041)"/>
<path d="M28.8281 39.8277C28.8281 39.894 28.8234 39.9594 28.8184 40.024C27.455 40.4303 26.0363 40.6602 24.6191 40.7437C22.8583 40.8449 21.0559 40.6584 19.3438 40.2388C19.2453 40.2147 19.1479 40.1859 19.0498 40.1597V35.4498C19.9822 35.7775 20.9422 36.0203 21.9209 36.1695C23.0998 36.3001 24.292 36.2994 25.4736 36.1685C26.6225 35.9932 27.7455 35.6905 28.8281 35.2701V39.8277ZM21.5918 4.91559C23.3713 4.68332 25.1399 4.77686 26.9082 5.07281C28.6727 5.36505 30.3814 5.97944 31.9736 6.78863C33.5966 7.61503 35.1011 8.73427 36.3955 10.0201C36.4047 10.0283 36.4148 10.0361 36.4238 10.0445C36.4804 10.096 36.533 10.1535 36.583 10.2144C37.2215 10.8735 37.7964 11.5873 38.3389 12.3267C38.6432 12.7417 38.9233 13.1738 39.1855 13.6168L36.0928 17.3902C35.7035 16.5337 35.2385 15.7143 34.7031 14.941C34.3632 15.2809 34.0234 15.6216 33.6846 15.9605L19.0498 30.5953V27.0552C19.1108 26.3221 18.8052 25.711 18.3164 25.2222L18.2051 25.0855L19.2793 24.0123C20.3583 22.9333 21.4335 21.8571 22.5088 20.7818L25.708 17.5826C26.6821 16.6085 27.6608 15.6307 28.6387 14.6529C29.4366 13.8549 30.2343 13.0563 31.0322 12.2584C31.1965 12.0941 31.3606 11.929 31.5254 11.7642C30.7084 11.1992 29.841 10.7115 28.9316 10.3072C27.8156 9.865 26.655 9.54945 25.4678 9.36871C24.2908 9.23854 23.1005 9.23927 21.9209 9.36969C20.7296 9.55125 19.5648 9.86728 18.4453 10.3121C17.3727 10.7878 16.3585 11.3848 15.417 12.0855C14.5391 12.7949 13.7361 13.5963 13.0254 14.4732C12.4506 15.2437 11.9476 16.0632 11.5205 16.9234L8.45703 13.1949C9.27872 11.8867 10.2805 10.6688 11.4092 9.62457C12.7466 8.38087 14.2789 7.30562 15.9385 6.53766C16.8226 6.12931 17.7333 5.76231 18.6699 5.48883C19.6289 5.20791 20.6029 5.0467 21.5918 4.91559Z" fill="url(#paint2_linear_1394_10041)"/>
<defs>
<linearGradient id="paint0_linear_1394_10041" x1="-23.9568" y1="58.9068" x2="37.1714" y2="76.5641" gradientUnits="userSpaceOnUse">
<stop stop-color="#70B1FF"/>
<stop offset="1" stop-color="#005CCD"/>
</linearGradient>
<linearGradient id="paint1_linear_1394_10041" x1="-15.5326" y1="51.3266" x2="34.4693" y2="65.7727" gradientUnits="userSpaceOnUse">
<stop stop-color="#70B1FF"/>
<stop offset="1" stop-color="#005CCD"/>
</linearGradient>
<linearGradient id="paint2_linear_1394_10041" x1="24.0197" y1="61.0853" x2="65.3253" y2="18.0857" gradientUnits="userSpaceOnUse">
<stop stop-color="#295296"/>
<stop offset="1" stop-color="#3E78D3"/>
</linearGradient>
</defs>
</svg>
