<svg width="48" height="48" viewBox="0 0 48 48" fill="none" xmlns="http://www.w3.org/2000/svg">
<rect opacity="0.275529" x="3" y="12.8848" width="42" height="27" fill="url(#paint0_linear_1394_10070)"/>
<path opacity="0.55" fill-rule="evenodd" clip-rule="evenodd" d="M42.846 8C43.9995 8 44.9412 8.91004 44.9972 10.0538L44.9999 10.1617V12.8637H3V10.1617C3 9.00398 3.90675 8.05886 5.04634 8.00265L5.15384 8H42.846ZM37.1923 9.08093C36.4489 9.08093 35.8462 9.68581 35.8462 10.432C35.8462 11.1781 36.4489 11.783 37.1923 11.783C37.9358 11.783 38.5385 11.1781 38.5385 10.432C38.5385 9.68581 37.9358 9.08093 37.1923 9.08093Z" fill="url(#paint1_linear_1394_10070)"/>
<path fill-rule="evenodd" clip-rule="evenodd" d="M41.5 11.8848C42.3284 11.8848 43 11.2132 43 10.3848C43 9.55634 42.3284 8.88477 41.5 8.88477C40.6716 8.88477 40 9.55634 40 10.3848C40 11.2132 40.6716 11.8848 41.5 11.8848Z" fill="url(#paint2_linear_1394_10070)"/>
<path fill-rule="evenodd" clip-rule="evenodd" d="M11.5 19.5C11.5 18.3954 12.3954 17.5 13.5 17.5H30.5C31.6046 17.5 32.5 18.3954 32.5 19.5V36.5C32.5 37.6046 31.6046 38.5 30.5 38.5C29.3954 38.5 28.5 37.6046 28.5 36.5V21.5H13.5C12.3954 21.5 11.5 20.6046 11.5 19.5Z" fill="url(#paint3_linear_1394_10070)"/>
<path fill-rule="evenodd" clip-rule="evenodd" d="M36.5 32.5C36.5 33.6046 35.6046 34.5 34.5 34.5L17.5 34.5C16.3954 34.5 15.5 33.6046 15.5 32.5L15.5 15.5C15.5 14.3954 16.3954 13.5 17.5 13.5C18.6046 13.5 19.5 14.3954 19.5 15.5L19.5 30.5L34.5 30.5C35.6046 30.5 36.5 31.3954 36.5 32.5Z" fill="url(#paint4_linear_1394_10070)"/>
<rect x="15.5" y="17.5" width="4" height="4" fill="url(#paint5_linear_1394_10070)"/>
<rect x="28.5" y="30.5" width="4" height="4" fill="url(#paint6_linear_1394_10070)"/>
<defs>
<linearGradient id="paint0_linear_1394_10070" x1="45" y1="26.3848" x2="3" y2="26.3848" gradientUnits="userSpaceOnUse">
<stop stop-color="#70B1FF"/>
<stop offset="1" stop-color="#005CCD"/>
</linearGradient>
<linearGradient id="paint1_linear_1394_10070" x1="23.9999" y1="5.56814" x2="22.8884" y2="15.1668" gradientUnits="userSpaceOnUse">
<stop stop-color="#70B1FF"/>
<stop offset="1" stop-color="#005CCD"/>
</linearGradient>
<linearGradient id="paint2_linear_1394_10070" x1="50.755" y1="11.4557" x2="43.2244" y2="3.8442" gradientUnits="userSpaceOnUse">
<stop stop-color="#295296"/>
<stop offset="1" stop-color="#3E78D3"/>
</linearGradient>
<linearGradient id="paint3_linear_1394_10070" x1="22" y1="49" x2="43" y2="28" gradientUnits="userSpaceOnUse">
<stop stop-color="#75A8F3"/>
<stop offset="1" stop-color="#4E86DA"/>
</linearGradient>
<linearGradient id="paint4_linear_1394_10070" x1="26" y1="3" x2="5" y2="24" gradientUnits="userSpaceOnUse">
<stop stop-color="#75A8F3"/>
<stop offset="1" stop-color="#4E86DA"/>
</linearGradient>
<linearGradient id="paint5_linear_1394_10070" x1="29.8399" y1="20.9279" x2="19.7992" y2="10.7792" gradientUnits="userSpaceOnUse">
<stop stop-color="#295296"/>
<stop offset="1" stop-color="#3E78D3"/>
</linearGradient>
<linearGradient id="paint6_linear_1394_10070" x1="42.8399" y1="33.9279" x2="32.7992" y2="23.7792" gradientUnits="userSpaceOnUse">
<stop stop-color="#295296"/>
<stop offset="1" stop-color="#3E78D3"/>
</linearGradient>
</defs>
</svg>
