<svg width="48" height="48" viewBox="0 0 48 48" fill="none" xmlns="http://www.w3.org/2000/svg">
<path opacity="0.55" fill-rule="evenodd" clip-rule="evenodd" d="M0.671875 29.8848L7.25944 25.1144C7.80504 24.7193 8.47927 24.5439 9.14825 24.6229L31.0941 27.2158C32.4565 27.3767 33.4711 28.5504 33.4333 29.9217C33.3938 31.357 32.2189 32.5 30.783 32.5H18.5L25.041 37.3756C26.4763 38.4456 28.3751 38.664 30.0159 37.948L37.3014 34.7686C40.5472 33.3522 44.2872 33.66 47.2578 35.5879C47.3631 35.6563 47.352 35.8139 47.2381 35.8668L27.5154 45.0283C26.855 45.3351 26.1175 45.4285 25.3996 45.3061C21.6495 44.6669 9.12457 42.7109 0.5 43.5L0.671875 29.8848Z" fill="url(#paint0_linear_1394_10080)"/>
<path opacity="0.38" d="M39.5111 16.6357C38.4891 18.6924 37.1375 20.5859 35.5221 22.1855C32.1924 25.646 28.3353 28.4209 24.2474 30.902C24.1155 31 23.8847 31 23.7529 30.902C20.4562 28.9433 17.3573 26.6907 14.5221 24.1769C12.4781 22.3814 10.6979 20.3247 9.24736 18.0395C7.63198 15.5257 7.10451 12.4244 7.82978 9.51887C9.3133 2.95701 17.588 0.247391 22.7638 4.65461C23.1924 5.01371 23.588 5.47076 24.0496 5.89516C24.0825 5.86251 24.1155 5.79722 24.1485 5.76457C26.4562 3.21818 29.3243 2.07557 32.7199 2.63055C36.4452 3.28347 38.8847 5.47076 40.0715 9.02918C40.599 10.6941 40.8298 13.8281 39.5111 16.6357Z" fill="url(#paint1_linear_1394_10080)"/>
<path d="M29.9431 27.0791C28.1193 28.4495 26.21 29.7099 24.2468 30.9014C24.1149 30.9992 23.8845 30.9993 23.7527 30.9014C21.0146 29.2745 18.4135 27.4442 15.9861 25.4307L29.9431 27.0791Z" fill="url(#paint2_linear_1394_10080)"/>
<defs>
<linearGradient id="paint0_linear_1394_10080" x1="65.5277" y1="35" x2="46.6161" y2="2.53039" gradientUnits="userSpaceOnUse">
<stop stop-color="#70B1FF"/>
<stop offset="1" stop-color="#005CCD"/>
</linearGradient>
<linearGradient id="paint1_linear_1394_10080" x1="-10.4969" y1="8.59032" x2="5.53979" y2="41.708" gradientUnits="userSpaceOnUse">
<stop stop-color="#70B1FF"/>
<stop offset="1" stop-color="#005CCD"/>
</linearGradient>
<linearGradient id="paint2_linear_1394_10080" x1="18.0574" y1="35.1968" x2="22.4553" y2="24.5298" gradientUnits="userSpaceOnUse">
<stop stop-color="#295296"/>
<stop offset="1" stop-color="#3E78D3"/>
</linearGradient>
</defs>
</svg>
