<svg width="48" height="48" viewBox="0 0 48 48" fill="none" xmlns="http://www.w3.org/2000/svg">
<g clip-path="url(#paint0_diamond_1394_10086_clip_path)" data-figma-skip-parse="true"><g transform="matrix(0.0226152 -2.95023e-10 0.016604 0.0209883 24.1152 34.0959)"><rect x="0" y="0" width="1381.44" height="519.531" fill="url(#paint0_diamond_1394_10086)" opacity="1" shape-rendering="crispEdges"/><rect x="0" y="0" width="1381.44" height="519.531" transform="scale(1 -1)" fill="url(#paint0_diamond_1394_10086)" opacity="1" shape-rendering="crispEdges"/><rect x="0" y="0" width="1381.44" height="519.531" transform="scale(-1 1)" fill="url(#paint0_diamond_1394_10086)" opacity="1" shape-rendering="crispEdges"/><rect x="0" y="0" width="1381.44" height="519.531" transform="scale(-1)" fill="url(#paint0_diamond_1394_10086)" opacity="1" shape-rendering="crispEdges"/></g></g><path opacity="0.45" d="M24.1152 23.5957C36.6054 23.5957 46.7305 28.3873 46.7305 34.2979C46.7302 40.2083 36.6052 45 24.1152 45C11.6253 45 1.50026 40.2082 1.5 34.2979C1.5 28.3874 11.6252 23.5957 24.1152 23.5957ZM24.1152 31.6729C20.9927 31.6729 18.4619 32.8481 18.4619 34.2979C18.4622 35.7475 20.9929 36.9228 24.1152 36.9229C27.2376 36.9229 29.7693 35.7475 29.7695 34.2979C29.7695 32.8481 27.2378 31.6729 24.1152 31.6729Z" data-figma-gradient-fill="{&#34;type&#34;:&#34;GRADIENT_DIAMOND&#34;,&#34;stops&#34;:[{&#34;color&#34;:{&#34;r&#34;:0.44075521826744080,&#34;g&#34;:0.69254785776138306,&#34;b&#34;:1.0,&#34;a&#34;:1.0},&#34;position&#34;:0.0},{&#34;color&#34;:{&#34;r&#34;:0.0,&#34;g&#34;:0.36261111497879028,&#34;b&#34;:0.80537837743759155,&#34;a&#34;:1.0},&#34;position&#34;:1.0}],&#34;stopsVar&#34;:[],&#34;transform&#34;:{&#34;m00&#34;:45.230472564697266,&#34;m01&#34;:33.207950592041016,&#34;m02&#34;:-15.103975296020508,&#34;m10&#34;:-5.9004639751947252e-07,&#34;m11&#34;:41.976638793945312,&#34;m12&#34;:13.107605934143066},&#34;opacity&#34;:1.0,&#34;blendMode&#34;:&#34;NORMAL&#34;,&#34;visible&#34;:true}"/>
<path opacity="0.6" fill-rule="evenodd" clip-rule="evenodd" d="M24.1153 9.43868C28.4274 9.43868 31.923 12.9866 31.923 17.3632C31.923 21.7398 28.4274 25.2877 24.1153 25.2877C19.8033 25.2877 16.3077 21.7398 16.3077 17.3632C16.3077 15.6383 16.8506 14.0422 17.7725 12.7412L14.6011 10.4302C13.2182 12.3817 12.4038 14.7759 12.4038 17.3632C12.4038 23.9281 17.6472 29.25 24.1153 29.25C30.5835 29.25 35.8269 23.9281 35.8269 17.3632C35.8269 10.7983 30.5835 5.47642 24.1153 5.47642V3L17.7716 7.45755L24.1153 11.9151V9.43868Z" fill="url(#paint1_linear_1394_10086)"/>
<path d="M28.6503 23.8115C30.3226 23.9726 31.9273 24.2236 33.4432 24.5488C31.3043 27.4046 27.9232 29.2499 24.1161 29.25C20.3088 29.25 16.927 27.4048 14.788 24.5488C16.3036 24.2236 17.908 23.9726 19.58 23.8115C20.8587 24.7397 22.4241 25.2871 24.1161 25.2871C25.8075 25.287 27.3718 24.7393 28.6503 23.8115Z" fill="url(#paint2_linear_1394_10086)"/>
<defs>
<clipPath id="paint0_diamond_1394_10086_clip_path"><path opacity="0.45" d="M24.1152 23.5957C36.6054 23.5957 46.7305 28.3873 46.7305 34.2979C46.7302 40.2083 36.6052 45 24.1152 45C11.6253 45 1.50026 40.2082 1.5 34.2979C1.5 28.3874 11.6252 23.5957 24.1152 23.5957ZM24.1152 31.6729C20.9927 31.6729 18.4619 32.8481 18.4619 34.2979C18.4622 35.7475 20.9929 36.9228 24.1152 36.9229C27.2376 36.9229 29.7693 35.7475 29.7695 34.2979C29.7695 32.8481 27.2378 31.6729 24.1152 31.6729Z"/></clipPath><linearGradient id="paint0_diamond_1394_10086" x1="0" y1="0" x2="500" y2="500" gradientUnits="userSpaceOnUse">
<stop stop-color="#70B1FF"/>
<stop offset="1" stop-color="#005CCD"/>
</linearGradient>
<linearGradient id="paint1_linear_1394_10086" x1="24.1153" y1="42.375" x2="50.1959" y2="19.1032" gradientUnits="userSpaceOnUse">
<stop stop-color="#70B1FF"/>
<stop offset="1" stop-color="#005CCD"/>
</linearGradient>
<linearGradient id="paint2_linear_1394_10086" x1="24.2361" y1="34.1598" x2="28.3111" y2="20.1483" gradientUnits="userSpaceOnUse">
<stop stop-color="#295296"/>
<stop offset="1" stop-color="#3E78D3"/>
</linearGradient>
</defs>
</svg>
