<svg width="48" height="48" viewBox="0 0 48 48" fill="none" xmlns="http://www.w3.org/2000/svg">
<path opacity="0.45" fill-rule="evenodd" clip-rule="evenodd" d="M3 4.5H31.5V24.3353C31.5 27.385 29.9829 30.2339 27.4551 31.931L17.25 38.7826L7.04488 31.931C4.51709 30.2339 3 27.385 3 24.3353V4.5Z" fill="url(#paint0_linear_1394_10124)"/>
<path fill-rule="evenodd" clip-rule="evenodd" d="M17.4565 4.5H31.5V24.3353C31.5 27.385 30.0049 30.2339 27.5138 31.931L17.4565 38.7826V4.5Z" fill="url(#paint1_linear_1394_10124)"/>
<path opacity="0.5" fill-rule="evenodd" clip-rule="evenodd" d="M44.997 37.7826C44.5661 38.7668 44.0561 39.6728 43.4651 40.5058C42.6596 41.6413 42.0001 42.4273 41.4918 42.8638C40.7039 43.5802 39.8597 43.9472 38.9557 43.968C38.3067 43.968 37.524 43.7854 36.613 43.415C35.699 43.0464 34.859 42.8638 34.0909 42.8638C33.2854 42.8638 32.4215 43.0464 31.4975 43.415C30.572 43.7854 29.8265 43.9785 29.2565 43.9976C28.3896 44.0341 27.5255 43.6567 26.663 42.8638C26.1125 42.3891 25.424 41.5752 24.5991 40.4223C23.7141 39.1911 22.9865 37.7635 22.4165 36.1358C21.806 34.3778 21.5 32.6753 21.5 31.0272C21.5 29.1392 21.9126 27.5108 22.739 26.1463C23.3886 25.0502 24.2526 24.1856 25.3341 23.5509C26.4156 22.9162 27.5841 22.5928 28.8425 22.5721C29.531 22.5721 30.434 22.7827 31.556 23.1965C32.675 23.6118 33.3934 23.8224 33.7084 23.8224C33.9439 23.8224 34.742 23.5761 36.095 23.0852C37.3745 22.63 38.4544 22.4415 39.3391 22.5157C41.7363 22.707 43.5372 23.6413 44.7349 25.3246C42.591 26.609 41.5305 28.408 41.5516 30.7157C41.5709 32.5133 42.2305 34.0091 43.5267 35.1968C44.1141 35.748 44.7701 36.1741 45.5 36.4767C45.3417 36.9305 45.1746 37.3653 44.997 37.7826Z" fill="url(#paint2_linear_1394_10124)"/>
<path d="M28.8428 22.5723C29.5198 22.5723 30.4041 22.7756 31.5 23.1758V24.3359C31.4999 27.3855 30.0047 30.2346 27.5137 31.9316L22.2207 35.5371C21.7412 33.9905 21.5 32.4878 21.5 31.0273C21.5 29.1394 21.9128 27.511 22.7393 26.1465C23.3888 25.0505 24.2526 24.1855 25.334 23.5508C26.4154 22.9161 27.5844 22.593 28.8428 22.5723Z" fill="url(#paint3_linear_1394_10124)"/>
<path opacity="0.5" fill-rule="evenodd" clip-rule="evenodd" d="M39.5 16.5491C39.5 17.9219 38.9795 19.2036 37.9419 20.39C36.6898 21.8004 35.1754 22.6153 33.5331 22.4867C33.5121 22.3221 33.5 22.1487 33.5 21.9666C33.5 20.6487 34.0954 19.2384 35.1529 18.0852C35.6808 17.5013 36.3522 17.0159 37.1664 16.6286C37.9789 16.2471 38.7473 16.0361 39.4701 16C39.4912 16.1835 39.5 16.367 39.5 16.5491V16.5491Z" fill="url(#paint4_linear_1394_10124)"/>
<defs>
<linearGradient id="paint0_linear_1394_10124" x1="-13.813" y1="48.839" x2="26.7463" y2="58.5786" gradientUnits="userSpaceOnUse">
<stop stop-color="#70B1FF"/>
<stop offset="1" stop-color="#005CCD"/>
</linearGradient>
<linearGradient id="paint1_linear_1394_10124" x1="11.7667" y1="16.4822" x2="30.5414" y2="25.3975" gradientUnits="userSpaceOnUse">
<stop stop-color="#8AB8F6"/>
<stop offset="1" stop-color="#6395DE"/>
</linearGradient>
<linearGradient id="paint2_linear_1394_10124" x1="33.5" y1="54.75" x2="54.8706" y2="30.8945" gradientUnits="userSpaceOnUse">
<stop stop-color="#70B1FF"/>
<stop offset="1" stop-color="#005CCD"/>
</linearGradient>
<linearGradient id="paint3_linear_1394_10124" x1="26.5646" y1="42.856" x2="41.43" y2="28.8778" gradientUnits="userSpaceOnUse">
<stop stop-color="#295296"/>
<stop offset="1" stop-color="#3E78D3"/>
</linearGradient>
<linearGradient id="paint4_linear_1394_10124" x1="36.5" y1="25.75" x2="42.9792" y2="19.7692" gradientUnits="userSpaceOnUse">
<stop stop-color="#70B1FF"/>
<stop offset="1" stop-color="#005CCD"/>
</linearGradient>
</defs>
</svg>
