<svg width="48" height="48" viewBox="0 0 48 48" fill="none" xmlns="http://www.w3.org/2000/svg">
<path opacity="0.45" fill-rule="evenodd" clip-rule="evenodd" d="M2.5 9.5C2.5 8.94772 2.94772 8.5 3.5 8.5H45C45.5523 8.5 46 8.94772 46 9.5V39C46 39.5523 45.5523 40 45 40H3.5C2.94771 40 2.5 39.5523 2.5 39V9.5Z" fill="url(#paint0_linear_1394_10132)"/>
<path opacity="0.45" fill-rule="evenodd" clip-rule="evenodd" d="M3.85938 8.5H44.6406C45.3914 8.5 46 9.11561 46 9.875V14H2.5V9.875C2.5 9.11561 3.10861 8.5 3.85938 8.5Z" fill="url(#paint1_linear_1394_10132)"/>
<path d="M41.5 26.4678L33.3096 34.6572L30.9736 32.3213L36.8271 26.4678L30.9736 20.6143L33.3096 18.2773L41.5 26.4678ZM30.0732 19.6045L21.8125 34.4746L18.9238 32.8701L27.1846 18L30.0732 19.6045ZM18.0264 20.4072L12.1729 26.2607L18.0264 32.1143L15.6904 34.4512L7.5 26.2607L15.6904 18.0713L18.0264 20.4072Z" fill="url(#paint2_linear_1394_10132)"/>
<defs>
<linearGradient id="paint0_linear_1394_10132" x1="24.25" y1="-7.25" x2="-5.67746" y2="34.0784" gradientUnits="userSpaceOnUse">
<stop stop-color="#70B1FF"/>
<stop offset="1" stop-color="#005CCD"/>
</linearGradient>
<linearGradient id="paint1_linear_1394_10132" x1="24.25" y1="5.75" x2="22.8811" y2="16.5769" gradientUnits="userSpaceOnUse">
<stop stop-color="#70B1FF"/>
<stop offset="1" stop-color="#005CCD"/>
</linearGradient>
<linearGradient id="paint2_linear_1394_10132" x1="15.8111" y1="48.7882" x2="34.9674" y2="16.6555" gradientUnits="userSpaceOnUse">
<stop stop-color="#295296"/>
<stop offset="1" stop-color="#3E78D3"/>
</linearGradient>
</defs>
</svg>
