<svg width="48" height="48" viewBox="0 0 48 48" fill="none" xmlns="http://www.w3.org/2000/svg">
<path opacity="0.5" d="M26.8428 19C28.6728 19.3696 30.3762 20.0895 31.8799 21.0859C31.4212 21.5927 31.1416 22.2646 31.1416 23.002C31.1416 24.5796 32.4204 25.8584 33.998 25.8584C34.7354 25.8584 35.4073 25.5788 35.9141 25.1201C36.9105 26.6238 37.6304 28.3272 38 30.1572C36.5552 30.2993 35.4268 31.5178 35.4268 33C35.4268 34.4822 36.5552 35.7007 38 35.8428C37.6304 37.6728 36.9105 39.3762 35.9141 40.8799C35.4073 40.4212 34.7354 40.1416 33.998 40.1416C32.4204 40.1416 31.1416 41.4204 31.1416 42.998C31.1416 43.7354 31.4212 44.4073 31.8799 44.9141C30.3762 45.9105 28.6728 46.6304 26.8428 47C26.7007 45.5552 25.4822 44.4268 24 44.4268C22.5178 44.4268 21.2993 45.5552 21.1572 47C19.3272 46.6304 17.6238 45.9105 16.1201 44.9141C16.5788 44.4073 16.8584 43.7354 16.8584 42.998C16.8584 41.4204 15.5796 40.1416 14.002 40.1416C13.2646 40.1416 12.5927 40.4212 12.0859 40.8799C11.0895 39.3762 10.3696 37.6728 10 35.8428C11.4448 35.7007 12.5732 34.4822 12.5732 33C12.5732 31.5178 11.4448 30.2993 10 30.1572C10.3696 28.3272 11.0895 26.6238 12.0859 25.1201C12.5927 25.5788 13.2646 25.8584 14.002 25.8584C15.5796 25.8584 16.8584 24.5796 16.8584 23.002C16.8584 22.2646 16.5788 21.5927 16.1201 21.0859C17.6238 20.0895 19.3272 19.3696 21.1572 19C21.2993 20.4448 22.5178 21.5732 24 21.5732C25.4822 21.5732 26.7007 20.4448 26.8428 19ZM24 27.9746C21.2245 27.9747 18.9746 30.2245 18.9746 33C18.9746 35.7755 21.2245 38.0253 24 38.0254C26.7756 38.0254 29.0264 35.7756 29.0264 33C29.0264 30.2244 26.7756 27.9746 24 27.9746Z" fill="url(#paint0_linear_1394_10151)"/>
<path opacity="0.5" d="M14 33H4V19.5H14V33ZM28.5 33H19V9.5H28.5V33ZM43.5 33H33.5V1H43.5V33Z" fill="url(#paint1_linear_1394_10151)"/>
<path d="M35.9141 25.1201C36.9105 26.6238 37.6304 28.3272 38 30.1572C36.5552 30.2993 35.4268 31.5178 35.4268 33H33.5V25.8125C33.6619 25.841 33.828 25.8584 33.998 25.8584C34.7354 25.8584 35.4073 25.5788 35.9141 25.1201ZM12.0859 25.1201C12.5923 25.5784 13.2634 25.8569 14 25.8574V33H12.5732C12.5732 31.5178 11.4448 30.2993 10 30.1572C10.3696 28.3272 11.0895 26.6238 12.0859 25.1201ZM26.8428 19C27.408 19.1141 27.9611 19.2616 28.5 19.4404V30.7617C27.6764 29.1099 25.9711 27.9746 24 27.9746C21.3936 27.9747 19.2514 29.9588 19 32.499V19.6172C19.6951 19.3573 20.4157 19.1498 21.1572 19C21.2993 20.4448 22.5178 21.5732 24 21.5732C25.4822 21.5732 26.7007 20.4448 26.8428 19Z" fill="url(#paint2_linear_1394_10151)"/>
<defs>
<linearGradient id="paint0_linear_1394_10151" x1="25.9844" y1="64.9689" x2="53.9844" y2="33" gradientUnits="userSpaceOnUse">
<stop stop-color="#72B2FF"/>
<stop offset="1" stop-color="#005CCD"/>
</linearGradient>
<linearGradient id="paint1_linear_1394_10151" x1="26.5495" y1="53.5358" x2="57.0197" y2="10.5929" gradientUnits="userSpaceOnUse">
<stop stop-color="#72B2FF"/>
<stop offset="1" stop-color="#005CCD"/>
</linearGradient>
<linearGradient id="paint2_linear_1394_10151" x1="19.7225" y1="48.3123" x2="31.6556" y2="18.6696" gradientUnits="userSpaceOnUse">
<stop stop-color="#295296"/>
<stop offset="1" stop-color="#3E78D3"/>
</linearGradient>
</defs>
</svg>
