<svg width="48" height="48" viewBox="0 0 48 48" fill="none" xmlns="http://www.w3.org/2000/svg">
<path opacity="0.5" d="M6 12.5C6 10.2909 7.79086 8.5 10 8.5H38.1885C40.3976 8.5 42.1885 10.2909 42.1885 12.5V30.0448C42.1885 32.254 40.3976 34.0448 38.1885 34.0448H10C7.79086 34.0448 6 32.254 6 30.0448V12.5Z" fill="url(#paint0_linear_1394_10198)"/>
<path opacity="0.45" d="M35.2187 26.5312C35.4062 26.3125 35.5 26.0312 35.5 25.75C35.5 25.0625 34.9375 24.5 34.25 24.5H14.25C13.75 24.5 13.2813 24.8125 13.0938 25.2812C13.0313 25.4375 13 25.5938 13 25.75C13 26.0312 13.0937 26.3125 13.2812 26.5312L14.0625 27.5L18.5313 32.9375L21.3438 36.375C21.5938 36.625 21.75 36.9375 21.7187 37.3125V45.75C21.7187 46.4375 22.2812 47 22.9687 47C23.2187 47 23.4688 46.9063 23.6875 46.7813L23.75 46.7187L26.1562 44.9063L26.2187 44.8437C26.5312 44.5937 26.7188 44.25 26.7188 43.8438V37.3125C26.7188 36.9687 26.8437 36.6562 27.0937 36.4062L29.9687 32.9375L35.2187 26.5312Z" fill="url(#paint1_linear_1394_10198)"/>
<path d="M34.25 24.5C34.9375 24.5 35.5 25.0625 35.5 25.75C35.5 26.0312 35.4062 26.3125 35.2188 26.5312L29.9688 32.9375L29.0508 34.0449H19.4375L18.5312 32.9375L14.0625 27.5L13.2812 26.5312C13.0937 26.3125 13 26.0312 13 25.75C13 25.5938 13.0312 25.4375 13.0938 25.2812C13.2813 24.8125 13.75 24.5 14.25 24.5H34.25Z" fill="url(#paint2_linear_1394_10198)"/>
<path opacity="0.5" d="M24 14.5C20.6863 14.5 18 11.8137 18 8.5C18 5.18629 20.6863 2.5 24 2.5C27.3137 2.5 30 5.18629 30 8.5C30 11.8137 27.3137 14.5 24 14.5ZM20.9893 11.1465C21.1845 11.3417 21.501 11.3417 21.6963 11.1465L23.8184 9.02539L25.9395 11.1465C26.1347 11.3417 26.4512 11.3417 26.6465 11.1465C26.8417 10.9512 26.8417 10.6347 26.6465 10.4395L24.5254 8.31836L26.6465 6.19629C26.8413 6.00099 26.8416 5.68436 26.6465 5.48926C26.4514 5.29423 26.1347 5.2945 25.9395 5.48926L23.8184 7.61133L21.6963 5.48926C21.501 5.29448 21.1844 5.29421 20.9893 5.48926C20.7942 5.68437 20.7945 6.001 20.9893 6.19629L23.1113 8.31836L20.9893 10.4395C20.7941 10.6347 20.7941 10.9512 20.9893 11.1465Z" fill="url(#paint3_linear_1394_10198)"/>
<path opacity="0.5" d="M38.1895 8.5C40.2072 8.50007 41.8745 9.99434 42.1484 11.9365L26.5391 21.418C25.1231 22.2779 22.8273 22.2778 21.4111 21.418L6.02344 12.0713C6.23734 10.0637 7.93667 8.5 10.001 8.5H38.1895Z" fill="url(#paint4_linear_1394_10198)"/>
<path d="M24 14.5C20.6863 14.5 18 11.8137 18 8.5C18 8.48501 18.0009 8.47004 18.001 8.45508L22.9746 8.45508L20.9893 10.4395C20.7941 10.6347 20.7941 10.9512 20.9893 11.1465C21.1845 11.3417 21.501 11.3417 21.6963 11.1465L23.8184 9.02539L25.9395 11.1465C26.1347 11.3417 26.4512 11.3417 26.6465 11.1465C26.8417 10.9512 26.8417 10.6347 26.6465 10.4395L24.6621 8.45508L29.999 8.45508C29.9991 8.47004 30 8.48501 30 8.5C30 11.8137 27.3137 14.5 24 14.5Z" fill="url(#paint5_linear_1394_10198)"/>
<defs>
<linearGradient id="paint0_linear_1394_10198" x1="27.4028" y1="-2.78229" x2="5.19363" y2="26.3233" gradientUnits="userSpaceOnUse">
<stop stop-color="#70B1FF"/>
<stop offset="1" stop-color="#005CCD"/>
</linearGradient>
<linearGradient id="paint1_linear_1394_10198" x1="-0.273389" y1="53.6001" x2="30.9854" y2="62.6294" gradientUnits="userSpaceOnUse">
<stop stop-color="#70B1FF"/>
<stop offset="1" stop-color="#005CCD"/>
</linearGradient>
<linearGradient id="paint2_linear_1394_10198" x1="24.3953" y1="39.4331" x2="31.202" y2="19.8721" gradientUnits="userSpaceOnUse">
<stop stop-color="#295296"/>
<stop offset="1" stop-color="#3E78D3"/>
</linearGradient>
<linearGradient id="paint3_linear_1394_10198" x1="22.9029" y1="19.8" x2="33.687" y2="9.8239" gradientUnits="userSpaceOnUse">
<stop stop-color="#70B1FF"/>
<stop offset="1" stop-color="#005CCD"/>
</linearGradient>
<linearGradient id="paint4_linear_1394_10198" x1="31.1697" y1="-63.503" x2="-26.9361" y2="-1.79491" gradientUnits="userSpaceOnUse">
<stop stop-color="#70B1FF"/>
<stop offset="1" stop-color="#005CCD"/>
</linearGradient>
<linearGradient id="paint5_linear_1394_10198" x1="23.9225" y1="5.04276" x2="19.0208" y2="16.9055" gradientUnits="userSpaceOnUse">
<stop stop-color="#295296"/>
<stop offset="1" stop-color="#3E78D3"/>
</linearGradient>
</defs>
</svg>
