<svg width="48" height="48" viewBox="0 0 48 48" fill="none" xmlns="http://www.w3.org/2000/svg">
<path opacity="0.5" d="M0.5 9C0.5 6.79086 2.29086 5 4.5 5H32.6885C34.8976 5 36.6885 6.79086 36.6885 9V26.5448C36.6885 28.754 34.8976 30.5448 32.6885 30.5448H4.5C2.29086 30.5448 0.5 28.754 0.5 26.5448V9Z" fill="url(#paint0_linear_1394_10221)"/>
<path opacity="0.45" d="M47.7125 22.5764C47.9042 22.3528 48 22.0653 48 21.7778C48 21.075 47.425 20.5 46.7222 20.5H26.2778C25.7667 20.5 25.2875 20.8194 25.0958 21.2986C25.0319 21.4583 25 21.6181 25 21.7778C25 22.0653 25.0958 22.3528 25.2875 22.5764L26.0861 23.5667L30.6542 29.125L33.5292 32.6389C33.7847 32.8944 33.9444 33.2139 33.9125 33.5972V42.2222C33.9125 42.925 34.4875 43.5 35.1903 43.5C35.4458 43.5 35.7014 43.4042 35.925 43.2764L35.9889 43.2125L38.4486 41.3597L38.5125 41.2958C38.8319 41.0403 39.0236 40.6889 39.0236 40.2736V33.5972C39.0236 33.2458 39.1514 32.9264 39.4069 32.6708L42.3458 29.125L47.7125 22.5764Z" fill="url(#paint1_linear_1394_10221)"/>
<path opacity="0.5" d="M32.6893 5C34.7071 5.0001 36.3744 6.49435 36.6483 8.43652L21.0389 17.918C19.6228 18.7778 17.327 18.778 15.911 17.918L0.523315 8.57129C0.737224 6.56374 2.43655 5 4.50085 5H32.6893Z" fill="url(#paint2_linear_1394_10221)"/>
<path d="M36.6885 20.5V26.5449C36.6884 28.754 34.8976 30.5449 32.6885 30.5449H31.8164L30.6543 29.125L26.0859 23.5664L25.2871 22.5762C25.0956 22.3526 25 22.0647 25 21.7773C25.0001 21.6178 25.0319 21.4583 25.0957 21.2988C25.2873 20.8198 25.7664 20.5002 26.2773 20.5H36.6885Z" fill="url(#paint3_linear_1394_10221)"/>
<defs>
<linearGradient id="paint0_linear_1394_10221" x1="21.9028" y1="-6.28229" x2="-0.306373" y2="22.8233" gradientUnits="userSpaceOnUse">
<stop stop-color="#70B1FF"/>
<stop offset="1" stop-color="#005CCD"/>
</linearGradient>
<linearGradient id="paint1_linear_1394_10221" x1="11.4316" y1="50.2467" x2="43.385" y2="59.4767" gradientUnits="userSpaceOnUse">
<stop stop-color="#70B1FF"/>
<stop offset="1" stop-color="#005CCD"/>
</linearGradient>
<linearGradient id="paint2_linear_1394_10221" x1="25.6695" y1="-67.0032" x2="-32.4364" y2="-5.29511" gradientUnits="userSpaceOnUse">
<stop stop-color="#70B1FF"/>
<stop offset="1" stop-color="#005CCD"/>
</linearGradient>
<linearGradient id="paint3_linear_1394_10221" x1="30.9197" y1="36.2153" x2="41.7876" y2="20.7981" gradientUnits="userSpaceOnUse">
<stop stop-color="#295296"/>
<stop offset="1" stop-color="#3E78D3"/>
</linearGradient>
</defs>
</svg>
