<svg width="48" height="48" viewBox="0 0 48 48" fill="none" xmlns="http://www.w3.org/2000/svg">
<g clip-path="url(#clip0_1394_10232)">
<path opacity="0.5" d="M16.2665 4.51079C17.0358 3.17484 18.9641 3.17474 19.7333 4.51079L34.2734 29.7657C35.041 31.099 34.0785 32.7637 32.54 32.7637H3.4589C1.9204 32.7637 0.957854 31.099 1.7255 29.7657L16.2665 4.51079ZM17.9999 25.501C16.8953 25.501 15.9999 26.3965 15.9999 27.501C16.0002 28.6054 16.8955 29.501 17.9999 29.501C19.1042 29.5009 19.9997 28.6053 19.9999 27.501C19.9999 26.3965 19.1044 25.5012 17.9999 25.501ZM17.9999 11C16.9131 11 16.0481 11.9128 16.1064 12.9981L16.5986 22.1729C16.6385 22.9173 17.2544 23.5 17.9999 23.5C18.7453 23.4999 19.3604 22.9173 19.4003 22.1729L19.8925 12.9981C19.9507 11.9129 19.0866 11.0002 17.9999 11Z" fill="url(#paint0_linear_1394_10232)"/>
<path opacity="0.5" d="M27.5838 20.3574C31.9671 17.0495 38.1827 17.9665 41.4668 22.4058C44.4623 26.4553 43.9843 32.0372 40.5509 35.4975L46.9944 44.2101C47.4577 44.8365 47.3298 45.7189 46.7079 46.1883C46.0775 46.664 45.1804 46.5341 44.7107 45.8991L38.2827 37.2093C34.0242 39.5551 28.5889 38.4367 25.5931 34.387C22.309 29.9473 23.2004 23.6658 27.5838 20.3574ZM39.1996 24.1175C36.8538 20.9465 32.4142 20.2918 29.2833 22.6546C26.1524 25.0177 25.5156 29.504 27.8613 32.6752C30.2071 35.8463 34.6468 36.5018 37.7777 34.139C40.9087 31.7759 41.5454 27.2887 39.1996 24.1175Z" fill="url(#paint1_linear_1394_10232)"/>
<path fill-rule="evenodd" clip-rule="evenodd" d="M42.7984 38.5362L47.8314 45.3408L45.5637 47.0523L40.5224 40.2371L42.7984 38.5362Z" fill="url(#paint2_linear_1394_10232)"/>
<path opacity="0.34" fill-rule="evenodd" clip-rule="evenodd" d="M29.2829 22.6548C26.1519 25.0179 25.5155 29.5043 27.8613 32.6755C30.2072 35.8468 34.647 36.5018 37.778 34.1387C40.9089 31.7756 41.5454 27.2892 39.1996 24.118C36.8537 20.9468 32.4139 20.2917 29.2829 22.6548Z" fill="url(#paint3_linear_1394_10232)"/>
<path d="M29.9297 22.2207C29.7091 22.3521 29.4931 22.4969 29.2832 22.6553C26.1524 25.0184 25.5156 29.5046 27.8613 32.6758C27.8832 32.7053 27.9065 32.7336 27.9287 32.7627H24.6143C22.5672 28.5197 23.7128 23.2803 27.584 20.3584C27.8822 20.1333 28.1893 19.9283 28.5029 19.7422L29.9297 22.2207Z" fill="url(#paint4_linear_1394_10232)"/>
</g>
<defs>
<linearGradient id="paint0_linear_1394_10232" x1="2.05572" y1="-9.12485" x2="-17.7036" y2="28.4209" gradientUnits="userSpaceOnUse">
<stop stop-color="#70B1FF"/>
<stop offset="1" stop-color="#005CCD"/>
</linearGradient>
<linearGradient id="paint1_linear_1394_10232" x1="48.123" y1="31.497" x2="27.7498" y2="20.1864" gradientUnits="userSpaceOnUse">
<stop stop-color="#70B1FF"/>
<stop offset="1" stop-color="#005CCD"/>
</linearGradient>
<linearGradient id="paint2_linear_1394_10232" x1="48.7961" y1="45.3915" x2="44.6727" y2="37.5138" gradientUnits="userSpaceOnUse">
<stop stop-color="#295296"/>
<stop offset="1" stop-color="#3E78D3"/>
</linearGradient>
<linearGradient id="paint3_linear_1394_10232" x1="32.3328" y1="18.2461" x2="23.2985" y2="29.2339" gradientUnits="userSpaceOnUse">
<stop stop-color="#84B4FA"/>
<stop offset="1" stop-color="#4E82D5"/>
</linearGradient>
<linearGradient id="paint4_linear_1394_10232" x1="30.8329" y1="30.8822" x2="24.6315" y2="20.4682" gradientUnits="userSpaceOnUse">
<stop stop-color="#295296"/>
<stop offset="1" stop-color="#3E78D3"/>
</linearGradient>
<clipPath id="clip0_1394_10232">
<rect width="48" height="48" fill="white"/>
</clipPath>
</defs>
</svg>
