<svg width="48" height="48" viewBox="0 0 48 48" fill="none" xmlns="http://www.w3.org/2000/svg">
<path opacity="0.5" d="M35.1886 3C37.2064 3.00011 38.8747 4.4943 39.1486 6.43652L23.5392 15.918C22.1231 16.778 19.8274 16.778 18.4113 15.918L3.02258 6.57129C3.23649 4.56374 4.93581 3 7.00012 3H35.1886Z" fill="url(#paint0_linear_1394_10267)"/>
<path opacity="0.5" d="M3 7C3 4.79086 4.79086 3 7 3H35.1885C37.3976 3 39.1885 4.79086 39.1885 7V24.5448C39.1885 26.754 37.3976 28.5448 35.1885 28.5448H7C4.79086 28.5448 3 26.754 3 24.5448V7Z" fill="url(#paint1_linear_1394_10267)"/>
<path opacity="0.52" d="M19.7903 20.167C23.4823 16.6338 29.3394 16.7627 32.8726 20.4546C36.146 23.8751 36.2762 29.154 33.3417 32.7216L37.9938 37.5829L36.3887 39.1184L31.7376 34.2569C28.0445 37.032 22.7761 36.67 19.5027 33.2493C15.9695 29.5573 16.0983 23.7002 19.7903 20.167ZM31.2695 21.9897C28.5843 19.1838 24.1325 19.0859 21.3265 21.7709C18.5206 24.456 18.4227 28.9078 21.1077 31.7138C23.7929 34.5198 28.2447 34.6178 31.0507 31.9326C33.8565 29.2474 33.9547 24.7956 31.2695 21.9897Z" fill="url(#paint2_linear_1394_10267)"/>
<path d="M19.7899 20.1672C23.4819 16.6341 29.3388 16.7634 32.8719 20.4553C35.0103 22.6898 35.8064 25.7168 35.284 28.5422C35.2522 28.5429 35.2203 28.5451 35.1883 28.5451H33.0125C33.571 26.285 32.9979 23.7969 31.2694 21.9904C28.5843 19.1846 24.132 19.0867 21.326 21.7717C19.4398 23.577 18.7797 26.1799 19.3641 28.5451H17.0917C16.5428 25.5809 17.4493 22.4071 19.7899 20.1672Z" fill="url(#paint3_linear_1394_10267)"/>
<path fill-rule="evenodd" clip-rule="evenodd" d="M33.8065 37.491L36.4805 34.932L44.9251 43.7563L42.2511 46.3153L33.8065 37.491Z" fill="url(#paint4_linear_1394_10267)"/>
<path opacity="0.34" fill-rule="evenodd" clip-rule="evenodd" d="M27.8589 33.6831C31.6315 32.7606 33.942 28.9544 33.0195 25.1818C32.0971 21.4091 28.2909 19.0986 24.5182 20.0211C20.7456 20.9436 18.4351 24.7497 19.3576 28.5224C20.28 32.295 24.0862 34.6056 27.8589 33.6831Z" fill="url(#paint5_linear_1394_10267)"/>
<defs>
<linearGradient id="paint0_linear_1394_10267" x1="28.1695" y1="-69.0036" x2="-29.9367" y2="-7.2939" gradientUnits="userSpaceOnUse">
<stop stop-color="#70B1FF"/>
<stop offset="1" stop-color="#005CCD"/>
</linearGradient>
<linearGradient id="paint1_linear_1394_10267" x1="24.4028" y1="-8.28229" x2="2.19363" y2="20.8233" gradientUnits="userSpaceOnUse">
<stop stop-color="#70B1FF"/>
<stop offset="1" stop-color="#005CCD"/>
</linearGradient>
<linearGradient id="paint2_linear_1394_10267" x1="37.824" y1="26.7105" x2="20.006" y2="18.8181" gradientUnits="userSpaceOnUse">
<stop stop-color="#70B1FF"/>
<stop offset="1" stop-color="#005CCD"/>
</linearGradient>
<linearGradient id="paint3_linear_1394_10267" x1="60.8347" y1="25.2596" x2="46.694" y2="-3.46661" gradientUnits="userSpaceOnUse">
<stop stop-color="#295296"/>
<stop offset="1" stop-color="#3E78D3"/>
</linearGradient>
<linearGradient id="paint4_linear_1394_10267" x1="56.8941" y1="38.8944" x2="33.0116" y2="26.0559" gradientUnits="userSpaceOnUse">
<stop stop-color="#295296"/>
<stop offset="1" stop-color="#3E78D3"/>
</linearGradient>
<linearGradient id="paint5_linear_1394_10267" x1="23.8117" y1="17.1035" x2="16.3405" y2="28.9972" gradientUnits="userSpaceOnUse">
<stop stop-color="#84B4FA"/>
<stop offset="1" stop-color="#4E82D5"/>
</linearGradient>
</defs>
</svg>
