<svg width="48" height="48" viewBox="0 0 48 48" fill="none" xmlns="http://www.w3.org/2000/svg">
<path opacity="0.89" d="M22.25 4C32.6053 4 41 10.3093 41 18.0918C40.9998 25.8741 32.6052 32.1826 22.25 32.1826C20.8653 32.1826 19.516 32.0685 18.2168 31.8545C15.5431 34.3089 12.0491 35.9461 7.51758 36C9.81566 34.7902 10.9469 32.2494 11.4346 29.6035C6.63427 27.0516 3.50015 22.8469 3.5 18.0918C3.5 10.3093 11.8947 4 22.25 4Z" fill="url(#paint0_linear_1394_10284)"/>
<path fill-rule="evenodd" clip-rule="evenodd" d="M42.4655 28.2022V24.9607C42.4718 21.0569 39.3178 17.8844 35.4141 17.8678C33.5456 17.8436 31.7454 18.5692 30.416 19.8824C29.0865 21.1955 28.3388 22.9866 28.34 24.8553V28.1946H25.9004V39.7488C25.9054 40.8778 26.3589 41.9585 27.1611 42.7529C27.9632 43.5473 29.0483 43.9902 30.1772 43.9842H40.6358C42.986 43.9946 44.9002 42.099 44.9127 39.7488V28.2022H42.4655ZM36.3571 36.1156L36.7466 39.5H34.2482L34.6429 36.1156C33.798 35.7349 33.3436 34.8488 33.549 33.9822C33.7545 33.1156 34.5648 32.5 35.5 32.5C36.4352 32.5 37.2455 33.1156 37.451 33.9822C37.6564 34.8488 37.202 35.7349 36.3571 36.1156ZM32.022 28.2021H38.7873L38.7685 24.8627C38.6039 23.1227 37.1429 21.7935 35.3952 21.7935C33.6475 21.7935 32.1866 23.1227 32.022 24.8627V28.2021Z" fill="url(#paint1_linear_1394_10284)"/>
<path opacity="0.9" d="M35.4141 17.8678C37.5546 17.8769 39.4684 18.8362 40.7607 20.3434C40.4227 21.9251 39.7347 23.4186 38.7578 24.7779C38.5544 23.08 37.1145 21.7937 35.3955 21.7936C33.6478 21.7936 32.1871 23.123 32.0225 24.8629V28.2027H35.3076C32.7622 30.0596 29.5185 31.3771 25.9004 31.9137V28.1949H28.3398V24.8551C28.3388 22.9866 29.0867 21.1955 30.416 19.8824C31.7454 18.5693 33.5456 17.8436 35.4141 17.8678Z" fill="url(#paint2_linear_1394_10284)"/>
<defs>
<linearGradient id="paint0_linear_1394_10284" x1="22.4534" y1="-15.227" x2="-8.64158" y2="24.6046" gradientUnits="userSpaceOnUse">
<stop offset="0.07" stop-color="#D4E6FF"/>
<stop offset="0.24" stop-color="#CBE0FD"/>
<stop offset="0.52" stop-color="#B2CFF9"/>
<stop offset="0.87" stop-color="#8AB4F3"/>
<stop offset="1" stop-color="#7AA9F0"/>
</linearGradient>
<linearGradient id="paint1_linear_1394_10284" x1="15.6507" y1="34.517" x2="40.6348" y2="48.919" gradientUnits="userSpaceOnUse">
<stop stop-color="#8FBBF9"/>
<stop offset="1" stop-color="#6293DE"/>
</linearGradient>
<linearGradient id="paint2_linear_1394_10284" x1="38.2356" y1="9.19145" x2="20.0069" y2="25.4695" gradientUnits="userSpaceOnUse">
<stop stop-color="#295296"/>
<stop offset="1" stop-color="#3E78D3"/>
</linearGradient>
</defs>
</svg>
