<svg width="48" height="48" viewBox="0 0 48 48" fill="none" xmlns="http://www.w3.org/2000/svg">
<path opacity="0.4" fill-rule="evenodd" clip-rule="evenodd" d="M11.5 10.3477H27.615L36.2097 18.9423V43.652H11.5V10.3477Z" fill="url(#paint0_linear_1394_10361)"/>
<path d="M7.59224 11.2432L6 12.8975L9.94859 17L17.5 9.15429L15.9078 7.5L9.94859 13.6914L7.59224 11.2432Z" fill="url(#paint1_linear_1394_10361)"/>
<path fill-rule="evenodd" clip-rule="evenodd" d="M27.6152 10.3477L36.2099 18.9423H27.6152V10.3477Z" fill="url(#paint2_linear_1394_10361)"/>
<path opacity="0.5" fill-rule="evenodd" clip-rule="evenodd" d="M42.2381 18.9142C43.0192 18.1332 44.2855 18.1332 45.0666 18.9142C45.8476 19.6953 45.8476 20.9616 45.0666 21.7426L29.1567 37.6525L24.914 39.0668L26.3282 34.8241L42.2381 18.9142Z" fill="url(#paint3_linear_1394_10361)"/>
<path d="M36.21 30.5986L29.1562 37.6523L24.9141 39.0664L26.3281 34.8242L36.21 24.9424V30.5986Z" fill="url(#paint4_linear_1394_10361)"/>
<path opacity="0.5" fill-rule="evenodd" clip-rule="evenodd" d="M11.75 21C16.5825 21 20.5 17.0825 20.5 12.25C20.5 7.41751 16.5825 3.5 11.75 3.5C6.91751 3.5 3 7.41751 3 12.25C3 17.0825 6.91751 21 11.75 21Z" fill="url(#paint5_linear_1394_10361)"/>
<path d="M11.5 15.3877V12.0791L13.167 10.3477H16.3516L11.5 15.3877Z" fill="url(#paint6_linear_1394_10361)"/>
<defs>
<linearGradient id="paint0_linear_1394_10361" x1="26.1943" y1="58.7276" x2="55.9043" y2="34.3794" gradientUnits="userSpaceOnUse">
<stop stop-color="#70B1FF"/>
<stop offset="1" stop-color="#005CCD"/>
</linearGradient>
<linearGradient id="paint1_linear_1394_10361" x1="11.904" y1="3.4083" x2="3.53599" y2="11.5934" gradientUnits="userSpaceOnUse">
<stop stop-color="#70B1FF"/>
<stop offset="1" stop-color="#477ED8"/>
</linearGradient>
<linearGradient id="paint2_linear_1394_10361" x1="48.0063" y1="16.3625" x2="34.2285" y2="-0.194843" gradientUnits="userSpaceOnUse">
<stop stop-color="#295296"/>
<stop offset="1" stop-color="#3E78D3"/>
</linearGradient>
<linearGradient id="paint3_linear_1394_10361" x1="10.3458" y1="52.9604" x2="17.3923" y2="58.3512" gradientUnits="userSpaceOnUse">
<stop stop-color="#70B1FF"/>
<stop offset="1" stop-color="#005CCD"/>
</linearGradient>
<linearGradient id="paint4_linear_1394_10361" x1="51.7133" y1="34.8269" x2="28.7062" y2="12.7151" gradientUnits="userSpaceOnUse">
<stop stop-color="#295296"/>
<stop offset="1" stop-color="#3E78D3"/>
</linearGradient>
<linearGradient id="paint5_linear_1394_10361" x1="10.1523" y1="-1.06561" x2="-4.39578" y2="13.7259" gradientUnits="userSpaceOnUse">
<stop stop-color="#70B1FF"/>
<stop offset="1" stop-color="#005CCD"/>
</linearGradient>
<linearGradient id="paint6_linear_1394_10361" x1="23.0105" y1="13.8748" x2="14.8805" y2="4.47015" gradientUnits="userSpaceOnUse">
<stop stop-color="#295296"/>
<stop offset="1" stop-color="#3E78D3"/>
</linearGradient>
</defs>
</svg>
