<svg width="48" height="48" viewBox="0 0 48 48" fill="none" xmlns="http://www.w3.org/2000/svg">
<path opacity="0.3" d="M22.5 5.5H25.5V30.5H22.5V5.5Z" fill="url(#paint0_linear_1394_10419)"/>
<path d="M22.5 5C22.5 4.17157 23.1716 3.5 24 3.5C24.8284 3.5 25.5 4.17157 25.5 5V5.5H22.5V5Z" fill="url(#paint1_linear_1394_10419)"/>
<path opacity="0.3" d="M4 7.5C4 6.39543 4.89543 5.5 6 5.5H42C43.1046 5.5 44 6.39543 44 7.5V28.5C44 29.6046 43.1046 30.5 42 30.5H6C4.89543 30.5 4 29.6046 4 28.5V7.5Z" fill="url(#paint2_linear_1394_10419)"/>
<path opacity="0.35" d="M15 25.5C19.1421 25.5 22.5 22.1421 22.5 18C22.5 13.8579 19.1421 10.5 15 10.5C10.8579 10.5 7.5 13.8579 7.5 18C7.5 22.1421 10.8579 25.5 15 25.5Z" fill="url(#paint3_linear_1394_10419)"/>
<path d="M22.5 18C22.5 20.0711 21.6605 21.9461 20.3033 23.3033L15 18H22.5Z" fill="url(#paint4_linear_1394_10419)"/>
<path d="M15 10.5C19.1421 10.5 22.5 13.8579 22.5 18H15V10.5Z" fill="url(#paint5_linear_1394_10419)"/>
<path opacity="0.35" d="M26.25 14.5C26.9404 14.5 27.5 13.9404 27.5 13.25C27.5 12.5596 26.9404 12 26.25 12C25.5596 12 25 12.5596 25 13.25C25 13.9404 25.5596 14.5 26.25 14.5Z" fill="url(#paint6_linear_1394_10419)"/>
<path opacity="0.6" d="M26.25 19.5C26.9404 19.5 27.5 18.9404 27.5 18.25C27.5 17.5596 26.9404 17 26.25 17C25.5596 17 25 17.5596 25 18.25C25 18.9404 25.5596 19.5 26.25 19.5Z" fill="url(#paint7_linear_1394_10419)"/>
<path d="M29 12H40.5V14.5H29V12Z" fill="url(#paint8_linear_1394_10419)"/>
<path d="M29 17H38.5V19.5H29V17Z" fill="url(#paint9_linear_1394_10419)"/>
<path d="M29 22H40.5V24.5H29V22Z" fill="url(#paint10_linear_1394_10419)"/>
<path d="M26.25 24.5C26.9404 24.5 27.5 23.9404 27.5 23.25C27.5 22.5596 26.9404 22 26.25 22C25.5596 22 25 22.5596 25 23.25C25 23.9404 25.5596 24.5 26.25 24.5Z" fill="url(#paint11_linear_1394_10419)"/>
<path d="M25.5 33.5L34 44.5H31L24 35.4404L17 44.5H14L22.5 33.5V30.5H25.5V33.5Z" fill="url(#paint12_linear_1394_10419)"/>
<defs>
<linearGradient id="paint0_linear_1394_10419" x1="23.7819" y1="4.23779" x2="19.7759" y2="4.66011" gradientUnits="userSpaceOnUse">
<stop stop-color="#7CACF6"/>
<stop offset="1" stop-color="#6093E3"/>
</linearGradient>
<linearGradient id="paint1_linear_1394_10419" x1="23.7819" y1="3.39902" x2="22.3018" y2="5.34956" gradientUnits="userSpaceOnUse">
<stop stop-color="#7CACF6"/>
<stop offset="1" stop-color="#6093E3"/>
</linearGradient>
<linearGradient id="paint2_linear_1394_10419" x1="-4.77745" y1="25.6764" x2="29.1021" y2="46.7731" gradientUnits="userSpaceOnUse">
<stop stop-color="#70B1FF"/>
<stop offset="1" stop-color="#005CCD"/>
</linearGradient>
<linearGradient id="paint3_linear_1394_10419" x1="14.6649" y1="8.01059" x2="5.15702" y2="18.9454" gradientUnits="userSpaceOnUse">
<stop stop-color="#70B1FF"/>
<stop offset="1" stop-color="#005CCD"/>
</linearGradient>
<linearGradient id="paint4_linear_1394_10419" x1="18.079" y1="23.7858" x2="23.0198" y2="20.0118" gradientUnits="userSpaceOnUse">
<stop stop-color="#295296"/>
<stop offset="1" stop-color="#3E78D3"/>
</linearGradient>
<linearGradient id="paint5_linear_1394_10419" x1="18.2048" y1="10.1213" x2="12.4895" y2="15.1423" gradientUnits="userSpaceOnUse">
<stop stop-color="#7CACF6"/>
<stop offset="1" stop-color="#6093E3"/>
</linearGradient>
<linearGradient id="paint6_linear_1394_10419" x1="25.7826" y1="11.047" x2="23.1218" y2="13.6927" gradientUnits="userSpaceOnUse">
<stop stop-color="#70B1FF"/>
<stop offset="1" stop-color="#005CCD"/>
</linearGradient>
<linearGradient id="paint7_linear_1394_10419" x1="26.2551" y1="15.7551" x2="23.7551" y2="18.2449" gradientUnits="userSpaceOnUse">
<stop stop-color="#70B1FF"/>
<stop offset="1" stop-color="#005CCD"/>
</linearGradient>
<linearGradient id="paint8_linear_1394_10419" x1="40.5" y1="11.9412" x2="29" y2="11.9412" gradientUnits="userSpaceOnUse">
<stop stop-color="#93BCF3"/>
<stop offset="1" stop-color="#7AA6E6"/>
</linearGradient>
<linearGradient id="paint9_linear_1394_10419" x1="38.5" y1="16.9412" x2="29" y2="16.9412" gradientUnits="userSpaceOnUse">
<stop stop-color="#93BCF3"/>
<stop offset="1" stop-color="#7AA6E6"/>
</linearGradient>
<linearGradient id="paint10_linear_1394_10419" x1="40.5" y1="21.9412" x2="29" y2="21.9412" gradientUnits="userSpaceOnUse">
<stop stop-color="#93BCF3"/>
<stop offset="1" stop-color="#7AA6E6"/>
</linearGradient>
<linearGradient id="paint11_linear_1394_10419" x1="25.8053" y1="26.1427" x2="28.3627" y2="23.7032" gradientUnits="userSpaceOnUse">
<stop stop-color="#295296"/>
<stop offset="1" stop-color="#3E78D3"/>
</linearGradient>
<linearGradient id="paint12_linear_1394_10419" x1="24.2181" y1="33.3485" x2="26.5042" y2="35.3569" gradientUnits="userSpaceOnUse">
<stop stop-color="#7CACF6"/>
<stop offset="1" stop-color="#6093E3"/>
</linearGradient>
</defs>
</svg>
