<svg width="48" height="48" viewBox="0 0 48 48" fill="none" xmlns="http://www.w3.org/2000/svg">
<path opacity="0.55" fill-rule="evenodd" clip-rule="evenodd" d="M26.2397 24.4986L25.629 23.888L22.3033 27.2279C20.9365 28.5948 18.7204 28.5948 17.3536 27.2279L25.5815 18.5H48V29.5H39.2779L28.1066 39.6023C27.5208 40.1881 26.5711 40.1881 25.9853 39.6023C25.5521 39.1691 25.4392 38.5369 25.6467 38H25.4663L23.864 39.6023C23.2782 40.1881 22.3284 40.1881 21.7426 39.6023C21.3095 39.1691 21.1966 38.5369 21.4041 38H21.2236L19.6213 39.6023C19.0355 40.1881 18.0858 40.1881 17.5 39.6023C16.9142 39.0165 16.9142 38.0668 17.5 37.481L17.9896 36.9914V36.7779C17.4643 36.9588 16.8586 36.8396 16.4393 36.4203C15.8536 35.8345 15.8536 34.8848 16.4393 34.299L26.2397 24.4986Z" fill="url(#paint0_linear_1394_10443)"/>
<path opacity="0.42" fill-rule="evenodd" clip-rule="evenodd" d="M21.2603 29.4986L31.0607 39.299C31.6464 39.8848 31.6464 40.8345 31.0607 41.4203C30.6414 41.8396 30.0357 41.9588 29.5104 41.7779V41.9914L30 42.481C30.5858 43.0668 30.5858 44.0165 30 44.6023C29.4142 45.1881 28.4645 45.1881 27.8787 44.6023L26.2764 43H26.0959C26.3034 43.5369 26.1905 44.1691 25.7574 44.6023C25.1716 45.1881 24.2218 45.1881 23.636 44.6023L22.0337 43H21.8533C22.0608 43.5369 21.9479 44.1691 21.5147 44.6023C20.9289 45.1881 19.9792 45.1881 19.3934 44.6023L8.22205 34.5H0V23.5H21.9185L30.1464 32.2279C28.7796 33.5948 26.5635 33.5948 25.1967 32.2279L21.871 28.888L21.2603 29.4986Z" fill="url(#paint1_linear_1394_10443)"/>
<path fill-rule="evenodd" clip-rule="evenodd" d="M23.9109 25.6135L22.3033 27.2279C20.9364 28.5948 18.7204 28.5948 17.3535 27.2279L20.8679 23.5H21.9185L23.9109 25.6135V25.6135Z" fill="url(#paint2_linear_1394_10443)"/>
<path fill-rule="evenodd" clip-rule="evenodd" d="M28.1066 39.6022C27.5208 40.188 26.5711 40.188 25.9853 39.6022C25.5521 39.169 25.4392 38.5368 25.6467 37.9999H25.4663L23.864 39.6022C23.2782 40.188 22.3284 40.188 21.7426 39.6022C21.3095 39.169 21.1966 38.5368 21.4041 37.9999H21.2236L19.6213 39.6022C19.0355 40.188 18.0858 40.188 17.5 39.6022C16.9142 39.0164 16.9142 38.0667 17.5 37.4809L17.9896 36.9913V36.7778C17.4643 36.9587 16.8586 36.8395 16.4393 36.4203C15.8536 35.8345 15.8536 34.8847 16.4393 34.2989L24.5 26.2383L30.1464 32.2279C28.7796 33.5947 26.5635 33.5947 25.1967 32.2279L21.871 28.8879L21.2603 29.4986L29.8171 38.0554L28.1066 39.6022Z" fill="url(#paint3_linear_1394_10443)"/>
<g opacity="0.7" style="mix-blend-mode:multiply">
<path d="M35.8105 26H32.5361L30.3486 21H17.9619L15.7744 26H12.5L22.7812 2.5H25.5293L35.8105 26ZM19.0557 18.5H29.2549L28.3799 16.5H19.9307L19.0557 18.5ZM21.0244 14H27.2861L24.1553 6.84375L21.0244 14Z" fill="url(#paint4_linear_1394_10443)"/>
</g>
<path d="M15.7744 26H12.5L13.5938 23.5H16.8682L15.7744 26ZM35.8105 26H32.5361L30.3486 21H23.2246L25.5811 18.5H32.5293L35.8105 26Z" fill="url(#paint5_linear_1394_10443)"/>
<defs>
<linearGradient id="paint0_linear_1394_10443" x1="32" y1="8.70656" x2="14.4782" y2="37.3328" gradientUnits="userSpaceOnUse">
<stop stop-color="#70B1FF"/>
<stop offset="1" stop-color="#005CCD"/>
</linearGradient>
<linearGradient id="paint1_linear_1394_10443" x1="13.8577" y1="12.7205" x2="-5.63784" y2="43.739" gradientUnits="userSpaceOnUse">
<stop stop-color="#70B1FF"/>
<stop offset="1" stop-color="#005CCD"/>
</linearGradient>
<linearGradient id="paint2_linear_1394_10443" x1="10.7075" y1="21.9861" x2="8.4775" y2="38.5358" gradientUnits="userSpaceOnUse">
<stop stop-color="#689CEF"/>
<stop offset="1" stop-color="#4B82DA"/>
</linearGradient>
<linearGradient id="paint3_linear_1394_10443" x1="13.7971" y1="21.4739" x2="9.73117" y2="37.6366" gradientUnits="userSpaceOnUse">
<stop stop-color="#689CEF"/>
<stop offset="1" stop-color="#4B82DA"/>
</linearGradient>
<linearGradient id="paint4_linear_1394_10443" x1="25.388" y1="-6.76447" x2="1.90994" y2="14.0611" gradientUnits="userSpaceOnUse">
<stop stop-color="#70B1FF"/>
<stop offset="1" stop-color="#005CCD"/>
</linearGradient>
<linearGradient id="paint5_linear_1394_10443" x1="25.6543" y1="28.492" x2="27.739" y2="17.4877" gradientUnits="userSpaceOnUse">
<stop stop-color="#295296"/>
<stop offset="1" stop-color="#3E78D3"/>
</linearGradient>
</defs>
</svg>
