<svg width="48" height="48" viewBox="0 0 48 48" fill="none" xmlns="http://www.w3.org/2000/svg">
<rect x="38.2948" y="15.6377" width="1.25155" height="9.38659" fill="white"/>
<path opacity="0.5" d="M37.802 14.2627C38.5713 12.9268 40.4996 12.9267 41.2688 14.2627L46.218 22.8604C46.9856 24.1937 46.0231 25.8585 44.4846 25.8585H34.5852C33.0468 25.8584 32.0845 24.1937 32.8518 22.8604L37.802 14.2627ZM39.5344 22.4649C39.0184 22.4649 38.5999 22.8834 38.5999 23.3995C38.6 23.9154 39.0185 24.3331 39.5344 24.3331C40.0503 24.333 40.4688 23.9153 40.469 23.3995C40.469 22.8835 40.0504 22.465 39.5344 22.4649ZM39.5344 15.6905C39.0267 15.6905 38.6225 16.1171 38.6497 16.6241L38.8801 20.9102C38.8988 21.258 39.1861 21.5303 39.5344 21.5303C39.8827 21.5303 40.1701 21.258 40.1887 20.9102L40.4182 16.6241C40.4454 16.1171 40.0421 15.6905 39.5344 15.6905Z" fill="url(#paint0_linear_1394_10460)"/>
<mask id="mask0_1394_10460" style="mask-type:alpha" maskUnits="userSpaceOnUse" x="30" y="10" width="10" height="19">
<rect x="30.7863" y="10.6318" width="8.76082" height="17.5216" fill="url(#paint1_linear_1394_10460)"/>
</mask>
<g mask="url(#mask0_1394_10460)">
<path d="M37.8033 14.2627C38.5727 12.9268 40.5009 12.9267 41.2701 14.2627L46.2194 22.8604C46.9869 24.1937 46.0245 25.8585 44.486 25.8585H34.5866C33.0482 25.8584 32.0858 24.1937 32.8532 22.8604L37.8033 14.2627ZM39.5358 22.4649C39.0197 22.4649 38.6012 22.8834 38.6012 23.3995C38.6014 23.9154 39.0198 24.3331 39.5358 24.3331C40.0516 24.333 40.4702 23.9153 40.4703 23.3995C40.4703 22.8835 40.0517 22.465 39.5358 22.4649ZM39.5358 15.6905C39.028 15.6905 38.6238 16.1171 38.651 16.6241L38.8815 20.9102C38.9001 21.258 39.1875 21.5303 39.5358 21.5303C39.884 21.5303 40.1714 21.258 40.1901 20.9102L40.4196 16.6241C40.4467 16.1171 40.0434 15.6905 39.5358 15.6905Z" fill="url(#paint2_linear_1394_10460)"/>
<g opacity="0.35" style="mix-blend-mode:multiply">
<path fill-rule="evenodd" clip-rule="evenodd" d="M2 30.0309C2 30.9525 2.74711 31.6996 3.66873 31.6996H37.8776C38.7992 31.6996 39.5464 30.9525 39.5464 30.0309V6.66873C39.5464 5.74711 38.7992 5 37.8776 5H3.66873C2.74711 5 2 5.74711 2 6.66873L2 30.0309Z" fill="url(#paint3_linear_1394_10460)"/>
</g>
<path opacity="0.45" fill-rule="evenodd" clip-rule="evenodd" d="M16.875 42.9636L8.2572 38.0206L8.67713 37.298C9.6048 35.7017 11.6594 35.1548 13.2661 36.0764L17.1499 38.3041L9.55412 25.2337C8.97433 24.236 9.3184 22.9603 10.3226 22.3843C11.3269 21.8083 12.611 22.1501 13.1908 23.1478L17.3899 30.3734C17.4667 29.7445 17.8299 29.1578 18.4247 28.8167C19.429 28.2406 20.7131 28.5825 21.2929 29.5801L21.7127 30.3026C21.7895 29.6736 22.1527 29.087 22.7475 28.7458C23.7518 28.1698 25.0359 28.5116 25.6157 29.5093L26.0355 30.2317C26.2076 29.8306 26.5073 29.4796 26.9166 29.2448C27.9209 28.6688 29.205 29.0106 29.7848 30.0083L34.9568 42.9636H16.875Z" fill="url(#paint4_linear_1394_10460)"/>
<g opacity="0.345529" style="mix-blend-mode:multiply">
<path fill-rule="evenodd" clip-rule="evenodd" d="M33.9151 8.75488V11.8837H5.12952V8.75488H33.9151Z" fill="url(#paint5_linear_1394_10460)"/>
</g>
</g>
<defs>
<linearGradient id="paint0_linear_1394_10460" x1="32.8344" y1="7.82045" x2="24.2093" y2="23.8153" gradientUnits="userSpaceOnUse">
<stop stop-color="#70B1FF"/>
<stop offset="1" stop-color="#005CCD"/>
</linearGradient>
<linearGradient id="paint1_linear_1394_10460" x1="17.7803" y1="0.131638" x2="39.6532" y2="24.0507" gradientUnits="userSpaceOnUse">
<stop stop-color="#295296"/>
<stop offset="1" stop-color="#3E78D3"/>
</linearGradient>
<linearGradient id="paint2_linear_1394_10460" x1="11.9402" y1="5.71131" x2="23.1051" y2="32.6647" gradientUnits="userSpaceOnUse">
<stop stop-color="#295296"/>
<stop offset="1" stop-color="#3E78D3"/>
</linearGradient>
<linearGradient id="paint3_linear_1394_10460" x1="20.7732" y1="45.0495" x2="45.9929" y2="9.58422" gradientUnits="userSpaceOnUse">
<stop stop-color="#70B1FF"/>
<stop offset="1" stop-color="#005CCD"/>
</linearGradient>
<linearGradient id="paint4_linear_1394_10460" x1="47.4312" y1="33.1039" x2="28.2437" y2="8.82808" gradientUnits="userSpaceOnUse">
<stop stop-color="#70B1FF"/>
<stop offset="1" stop-color="#005CCD"/>
</linearGradient>
<linearGradient id="paint5_linear_1394_10460" x1="19.5223" y1="13.4482" x2="20.1945" y2="7.26352" gradientUnits="userSpaceOnUse">
<stop stop-color="#70B1FF"/>
<stop offset="1" stop-color="#005CCD"/>
</linearGradient>
</defs>
</svg>
