<svg width="48" height="48" viewBox="0 0 48 48" fill="none" xmlns="http://www.w3.org/2000/svg">
<g opacity="0.45" style="mix-blend-mode:multiply">
<path fill-rule="evenodd" clip-rule="evenodd" d="M21 35.5C30.665 35.5 38.5 27.665 38.5 18C38.5 8.33502 30.665 0.5 21 0.5C11.335 0.5 3.5 8.33502 3.5 18C3.5 27.665 11.335 35.5 21 35.5Z" fill="url(#paint0_linear_1394_10477)"/>
</g>
<g opacity="0.45" style="mix-blend-mode:multiply">
<path fill-rule="evenodd" clip-rule="evenodd" d="M33.2955 14L41.2045 14L41.2045 37.9412L44.5 37.9412L37.25 47L30 37.9412L33.2955 37.9412L33.2955 14Z" fill="url(#paint1_linear_1394_10477)"/>
</g>
<path d="M22.5 8.52262C25.3022 8.77627 27.4978 11.1317 27.4978 14V15H24.4978V14C24.4978 12.6193 23.3785 11.5 21.9978 11.5H20C18.6193 11.5 17.5 12.6193 17.5 14C17.5 15.3807 18.6193 16.5 20 16.5H21.9995C25.0361 16.5 27.4978 18.9617 27.4978 21.9983C27.4978 24.8662 25.3021 27.2213 22.5 27.4741V31.5H19.5V27.4742C16.6967 27.2215 14.5 24.8656 14.5 21.9966V21H17.5V21.9966C17.5 23.3773 18.6193 24.4966 20 24.4966H21.9995C23.3793 24.4966 24.4978 23.3781 24.4978 21.9983C24.4978 20.6185 23.3793 19.5 21.9995 19.5H20C16.9624 19.5 14.5 17.0376 14.5 14C14.5 11.131 16.6967 8.77504 19.5 8.52242V4.5H22.5V8.52262V8.52262Z" fill="url(#paint2_linear_1394_10477)"/>
<path d="M38.041 14C38.3414 15.2847 38.5 16.6238 38.5 18C38.5 22.8721 36.5086 27.2784 33.2959 30.4512V14H38.041Z" fill="url(#paint3_linear_1394_10477)"/>
<defs>
<linearGradient id="paint0_linear_1394_10477" x1="-8.80831" y1="18.1108" x2="18.4671" y2="42.7275" gradientUnits="userSpaceOnUse">
<stop stop-color="#70B1FF" stop-opacity="0.7"/>
<stop offset="1" stop-color="#005CCD"/>
</linearGradient>
<linearGradient id="paint1_linear_1394_10477" x1="37.2041" y1="2.39502" x2="18.8386" y2="11.3363" gradientUnits="userSpaceOnUse">
<stop stop-color="#70B1FF" stop-opacity="0.7"/>
<stop offset="1" stop-color="#005CCD"/>
</linearGradient>
<linearGradient id="paint2_linear_1394_10477" x1="49.8509" y1="17.6765" x2="18.2787" y2="8.4025" gradientUnits="userSpaceOnUse">
<stop stop-color="#295296"/>
<stop offset="1" stop-color="#3E78D3"/>
</linearGradient>
<linearGradient id="paint3_linear_1394_10477" x1="37.1751" y1="38.5259" x2="37.1751" y2="14" gradientUnits="userSpaceOnUse">
<stop stop-color="#295296"/>
<stop offset="1" stop-color="#3E78D3"/>
</linearGradient>
</defs>
</svg>
