<svg width="48" height="48" viewBox="0 0 48 48" fill="none" xmlns="http://www.w3.org/2000/svg">
<path opacity="0.4" fill-rule="evenodd" clip-rule="evenodd" d="M22 40.5H5V44.5H43.5V40.5H26V24H22V40.5Z" fill="url(#paint0_linear_1394_10520)"/>
<path opacity="0.4" fill-rule="evenodd" clip-rule="evenodd" d="M24 35.5L14.9632 28.2025C12.7722 26.4332 11.5 23.7768 11.5 20.971V3.5H36.5V20.971C36.5 23.7768 35.2278 26.4332 33.0368 28.2025L24 35.5Z" fill="url(#paint1_linear_1394_10520)"/>
<rect x="17" y="39.5" width="14" height="6" fill="url(#paint2_linear_1394_10520)"/>
<path opacity="0.25" fill-rule="evenodd" clip-rule="evenodd" d="M24 3.5H36.5V20.971C36.5 23.7768 35.2278 26.4332 33.0368 28.2025L24 35.5V3.5Z" fill="url(#paint3_linear_1394_10520)"/>
<path d="M26 24V33.8848L24 35.5L22 33.8848V24H26Z" fill="url(#paint4_linear_1394_10520)"/>
<defs>
<linearGradient id="paint0_linear_1394_10520" x1="-28.1309" y1="37.9456" x2="-0.362586" y2="76.276" gradientUnits="userSpaceOnUse">
<stop stop-color="#70B1FF"/>
<stop offset="1" stop-color="#005CCD"/>
</linearGradient>
<linearGradient id="paint1_linear_1394_10520" x1="-3.24821" y1="44.8868" x2="32.5582" y2="52.9672" gradientUnits="userSpaceOnUse">
<stop stop-color="#70B1FF"/>
<stop offset="1" stop-color="#005CCD"/>
</linearGradient>
<linearGradient id="paint2_linear_1394_10520" x1="20.4222" y1="50.59" x2="26.8543" y2="38.2565" gradientUnits="userSpaceOnUse">
<stop stop-color="#295296"/>
<stop offset="1" stop-color="#3E78D3"/>
</linearGradient>
<linearGradient id="paint3_linear_1394_10520" x1="30.25" y1="51.5" x2="51.9403" y2="43.0272" gradientUnits="userSpaceOnUse">
<stop stop-color="#70B1FF"/>
<stop offset="1" stop-color="#005CCD"/>
</linearGradient>
<linearGradient id="paint4_linear_1394_10520" x1="22.9778" y1="45.2559" x2="30.9234" y2="42.9847" gradientUnits="userSpaceOnUse">
<stop stop-color="#295296"/>
<stop offset="1" stop-color="#3E78D3"/>
</linearGradient>
</defs>
</svg>
