<svg width="48" height="48" viewBox="0 0 48 48" fill="none" xmlns="http://www.w3.org/2000/svg">
<path opacity="0.4" fill-rule="evenodd" clip-rule="evenodd" d="M3.5 2.97461H21.8013L31.5621 12.7353V40.7974H3.5V2.97461Z" fill="url(#paint0_linear_1394_10528)"/>
<path opacity="0.4" d="M45.0002 30.8588L35.1338 21.8857V26.2291C21.2778 27.8651 21.8903 41.0507 21.8903 45.525C26.3517 34.5969 35.1338 34.7687 35.1338 34.7687V39.5375L45.0002 30.8588Z" fill="url(#paint1_linear_1394_10528)"/>
<path fill-rule="evenodd" clip-rule="evenodd" d="M21.8013 2.97461L31.562 12.7353H21.8013V2.97461Z" fill="url(#paint2_linear_1394_10528)"/>
<path d="M31.5616 35.4766C29.4828 36.2144 26.8255 37.7202 24.5216 40.7969H22.0157C22.4411 35.8501 24.2268 29.373 31.5616 26.9922V35.4766Z" fill="url(#paint3_linear_1394_10528)"/>
<path d="M17.6988 15.0576C18.7974 15.0407 19.8885 15.2411 20.9095 15.6472C21.9305 16.0532 22.8611 16.657 23.6481 17.4239L26.1196 15.0576V21.7942H19.3829L21.8039 19.268C20.7239 18.2016 19.2712 17.5976 17.7535 17.5839C16.506 17.614 15.2999 18.0373 14.3072 18.7933C13.3145 19.5494 12.5859 20.5996 12.2253 21.7942H9.43799C9.82653 19.8908 10.8612 18.1803 12.3668 16.9525C13.8723 15.7247 15.7561 15.0553 17.6988 15.0576V15.0576Z" fill="url(#paint4_linear_1394_10528)"/>
<path d="M9.27832 25.1631H16.0149L13.594 27.5293C14.6739 28.5957 16.1267 29.1998 17.6444 29.2135C18.8775 29.2168 20.0793 28.8254 21.074 28.0966C22.0687 27.3678 22.8041 26.3399 23.1726 25.1631H25.9599C25.5442 27.0529 24.502 28.7468 23.0024 29.9697C21.5028 31.1926 19.6339 31.8727 17.6991 31.8997C15.4603 31.8761 13.3216 30.9679 11.7498 29.3735L9.27832 31.8997V25.1631Z" fill="url(#paint5_linear_1394_10528)"/>
<defs>
<linearGradient id="paint0_linear_1394_10528" x1="20.1879" y1="57.9183" x2="53.9287" y2="30.2668" gradientUnits="userSpaceOnUse">
<stop stop-color="#70B1FF"/>
<stop offset="1" stop-color="#005CCD"/>
</linearGradient>
<linearGradient id="paint1_linear_1394_10528" x1="8.25067" y1="52.4592" x2="40.4714" y2="61.5596" gradientUnits="userSpaceOnUse">
<stop stop-color="#70B1FF"/>
<stop offset="1" stop-color="#005CCD"/>
</linearGradient>
<linearGradient id="paint2_linear_1394_10528" x1="44.9588" y1="9.80548" x2="29.3117" y2="-8.9982" gradientUnits="userSpaceOnUse">
<stop stop-color="#295296"/>
<stop offset="1" stop-color="#3E78D3"/>
</linearGradient>
<linearGradient id="paint3_linear_1394_10528" x1="44.6636" y1="36.6532" x2="22.5393" y2="18.2679" gradientUnits="userSpaceOnUse">
<stop stop-color="#295296"/>
<stop offset="1" stop-color="#3E78D3"/>
</linearGradient>
<linearGradient id="paint4_linear_1394_10528" x1="13.5157" y1="27.51" x2="20.4894" y2="13.3209" gradientUnits="userSpaceOnUse">
<stop stop-color="#295296"/>
<stop offset="1" stop-color="#3E78D3"/>
</linearGradient>
<linearGradient id="paint5_linear_1394_10528" x1="13.356" y1="37.6146" x2="20.3281" y2="23.4268" gradientUnits="userSpaceOnUse">
<stop stop-color="#295296"/>
<stop offset="1" stop-color="#3E78D3"/>
</linearGradient>
</defs>
</svg>
