<svg width="48" height="48" viewBox="0 0 48 48" fill="none" xmlns="http://www.w3.org/2000/svg">
<path opacity="0.35" fill-rule="evenodd" clip-rule="evenodd" d="M3.375 7.75H44.625C45.6605 7.75 46.5 8.58947 46.5 9.625V34.625C46.5 35.6605 45.6605 36.5 44.625 36.5H3.375C2.33947 36.5 1.5 35.6605 1.5 34.625V9.625C1.5 8.58947 2.33947 7.75 3.375 7.75Z" fill="url(#paint0_linear_1394_10537)"/>
<path opacity="0.5" fill-rule="evenodd" clip-rule="evenodd" d="M18.8125 36.5H29.6875L31.5 43H17L18.8125 36.5Z" fill="url(#paint1_linear_1394_10537)"/>
<path fill-rule="evenodd" clip-rule="evenodd" d="M1.5 32.125H46.5V34.625C46.5 35.6605 45.6605 36.5 44.625 36.5H3.375C2.33947 36.5 1.5 35.6605 1.5 34.625V32.125Z" fill="url(#paint2_linear_1394_10537)"/>
<path opacity="0.7" d="M31.0609 25.5742L29.0538 23.5646C29.1493 23.3254 29.1971 23.0383 29.1971 22.7512C29.1971 22.512 29.1254 22.2727 29.006 22.0813C29.4839 21.244 29.7706 20.2632 29.7706 19.2105C29.7706 18.2057 29.5078 17.2727 29.0777 16.4593L31.0848 14.4498C31.7539 15.1196 32.8292 15.1196 33.4982 14.4498C34.1673 13.7799 34.1673 12.7033 33.4982 12.0335C33.2115 11.7464 32.853 11.5789 32.4707 11.5311C32.4229 11.1722 32.2557 10.7895 31.9928 10.5263C31.3238 9.85646 30.2485 9.85646 29.5794 10.5263C28.9104 11.1962 28.9104 12.2727 29.5794 12.9426L27.6918 14.7847C26.6882 13.9474 25.3978 13.445 23.9881 13.445C22.5783 13.445 21.2879 13.9474 20.2843 14.7847L18.4205 12.9187C19.0896 12.2488 19.0896 11.1722 18.4205 10.5024C17.7515 9.83254 16.6762 9.83254 16.0072 10.5024C15.7204 10.7895 15.5532 11.1483 15.5293 11.5072C15.147 11.555 14.7885 11.7225 14.5018 12.0096C13.8327 12.6794 13.8327 13.756 14.5018 14.4258C15.1708 15.0957 16.2461 15.0957 16.9152 14.4258L18.9223 16.4354C18.4683 17.2488 18.2294 18.2057 18.2294 19.1866C18.2294 20.2392 18.5161 21.2201 18.994 22.0574C18.8746 22.2488 18.8029 22.488 18.8029 22.7273C18.8029 23.0144 18.8507 23.2775 18.9462 23.5407L16.9391 25.5502C16.5806 25.2392 16.1505 25.0718 15.7204 25.0718C15.2903 25.0718 14.8363 25.2392 14.5018 25.5742C13.8327 26.244 13.8327 27.3206 14.5018 27.9904C14.7885 28.2775 15.147 28.445 15.5293 28.4928C15.5771 28.8517 15.7443 29.2344 16.0072 29.4976C16.6762 30.1675 17.7515 30.1675 18.4205 29.4976C19.0896 28.8278 19.0896 27.7512 18.4205 27.0813L20.4277 25.0718C20.6906 25.1675 20.9773 25.2153 21.264 25.2153H21.5508V25.5981C21.5508 26.1244 21.9809 26.555 22.5066 26.555H25.4934C26.0191 26.555 26.4492 26.1244 26.4492 25.5981V25.2153H26.736C27.0227 25.2153 27.3094 25.1675 27.5723 25.0718L29.5794 27.0813C28.9104 27.7512 28.9104 28.8278 29.5794 29.4976C30.2485 30.1675 31.3238 30.1675 31.9928 29.4976C32.2796 29.2105 32.4468 28.8517 32.4707 28.4928C32.853 28.445 33.2115 28.2775 33.4982 27.9904C34.1673 27.3206 34.1673 26.244 33.4982 25.5742C32.8292 24.9282 31.73 24.9043 31.0609 25.5742ZM28.2652 20.2392C28.2652 20.933 27.8112 21.5072 27.19 21.7225C27.0466 21.7703 26.8793 21.7943 26.7121 21.7943C25.8519 21.7943 25.1589 21.1005 25.1589 20.2392C25.1589 19.378 25.8519 18.6842 26.7121 18.6842C26.736 18.6842 26.7838 18.6842 26.8076 18.6842C27.6201 18.7321 28.2652 19.4019 28.2652 20.2392ZM19.7109 20.2392C19.7109 19.4258 20.356 18.756 21.1685 18.6842C21.1924 18.6842 21.2401 18.6842 21.264 18.6842C22.1243 18.6842 22.8172 19.378 22.8172 20.2392C22.8172 21.1005 22.1243 21.7943 21.264 21.7943C21.0968 21.7943 20.9295 21.7703 20.7861 21.7225C20.1649 21.5072 19.7109 20.933 19.7109 20.2392ZM24.4182 23.2775H24.3704C24.2509 23.2775 24.1553 23.2057 24.1314 23.11L24.0119 22.799L23.8925 23.11C23.8447 23.2057 23.7491 23.2775 23.6535 23.2775H23.6057C23.2951 23.2775 23.1039 23.0144 23.2473 22.7751L23.4624 22.488L23.9164 21.8421C23.9642 21.7703 24.0836 21.7703 24.1314 21.8421L24.5854 22.488L24.8005 22.7751C24.92 22.9904 24.7288 23.2775 24.4182 23.2775Z" fill="url(#paint3_linear_1394_10537)"/>
<defs>
<linearGradient id="paint0_linear_1394_10537" x1="21.6221" y1="2.21512" x2="6.15631" y2="31.3157" gradientUnits="userSpaceOnUse">
<stop stop-color="#70B1FF"/>
<stop offset="1" stop-color="#005CCD"/>
</linearGradient>
<linearGradient id="paint1_linear_1394_10537" x1="21.4527" y1="30.7421" x2="17.4415" y2="43.1428" gradientUnits="userSpaceOnUse">
<stop stop-color="#70B1FF"/>
<stop offset="1" stop-color="#005CCD"/>
</linearGradient>
<linearGradient id="paint2_linear_1394_10537" x1="24" y1="29.9375" x2="23.1573" y2="38.6056" gradientUnits="userSpaceOnUse">
<stop stop-color="#95C0FC"/>
<stop offset="1" stop-color="#5C8EDA"/>
</linearGradient>
<linearGradient id="paint3_linear_1394_10537" x1="38.0906" y1="-7.12914" x2="7.84625" y2="5.17836" gradientUnits="userSpaceOnUse">
<stop stop-color="#70B1FF"/>
<stop offset="0.846016" stop-color="#005CCD"/>
</linearGradient>
</defs>
</svg>
