<svg width="48" height="48" viewBox="0 0 48 48" fill="none" xmlns="http://www.w3.org/2000/svg">
<circle opacity="0.35" cx="10.75" cy="29.25" r="10.75" fill="url(#paint0_linear_1394_10555)"/>
<g opacity="0.55" style="mix-blend-mode:multiply">
<path fill-rule="evenodd" clip-rule="evenodd" d="M31.5 24.5C40.6127 24.5 48 31.9193 48 41.0714V44.5H15V41.0714C15 31.9193 22.3873 24.5 31.5 24.5ZM31.6041 21.6429C26.4561 21.6429 22.2827 17.4695 22.2827 12.3214C22.2827 7.17335 26.4561 3 31.6041 3C36.7522 3 40.9256 7.17335 40.9256 12.3214C40.9256 17.4695 36.7522 21.6429 31.6041 21.6429Z" fill="url(#paint1_linear_1394_10555)"/>
</g>
<path d="M21.4188 27.9521C21.4701 28.3777 21.4999 28.8106 21.4999 29.25C21.4999 33.6307 18.8779 37.3965 15.119 39.0713C15.66 34.5553 18.0094 30.5985 21.4188 27.9521Z" fill="url(#paint2_linear_1394_10555)"/>
<path d="M10.7119 24.8472C11.2322 24.327 12.0764 24.327 12.5967 24.8472L16.0508 28.3022L16.1426 28.4038C16.5691 28.9271 16.5384 29.6983 16.0508 30.186L12.5967 33.6411C12.0763 34.1614 11.2323 34.1614 10.7119 33.6411C10.1917 33.1208 10.1916 32.2767 10.7119 31.7563L11.9004 30.5679H5.77246C5.03677 30.5677 4.44043 29.9706 4.44043 29.2349C4.44061 28.4993 5.03688 27.903 5.77246 27.9028H11.8828L10.7119 26.7319C10.1917 26.2116 10.1916 25.3675 10.7119 24.8472Z" fill="url(#paint3_linear_1394_10555)"/>
<defs>
<linearGradient id="paint0_linear_1394_10555" x1="-12.5831" y1="28.6526" x2="10.1444" y2="51.3637" gradientUnits="userSpaceOnUse">
<stop stop-color="#70B1FF"/>
<stop offset="1" stop-color="#005CCD"/>
</linearGradient>
<linearGradient id="paint1_linear_1394_10555" x1="29.3239" y1="-7.0607" x2="-3.43294" y2="17.695" gradientUnits="userSpaceOnUse">
<stop stop-color="#70B1FF"/>
<stop offset="1" stop-color="#005CCD"/>
</linearGradient>
<linearGradient id="paint2_linear_1394_10555" x1="15.9863" y1="25.3002" x2="12.2677" y2="37.1802" gradientUnits="userSpaceOnUse">
<stop stop-color="#295296"/>
<stop offset="1" stop-color="#3E78D3"/>
</linearGradient>
<linearGradient id="paint3_linear_1394_10555" x1="6.07145" y1="22.1736" x2="4.49427" y2="33.1792" gradientUnits="userSpaceOnUse">
<stop stop-color="#295296"/>
<stop offset="1" stop-color="#3E78D3"/>
</linearGradient>
</defs>
</svg>
