<svg width="48" height="48" viewBox="0 0 48 48" fill="none" xmlns="http://www.w3.org/2000/svg">
<path opacity="0.4" fill-rule="evenodd" clip-rule="evenodd" d="M8.5 3H29.0433L39.9997 13.9564V45.4561H8.5V3Z" fill="url(#paint0_linear_1394_10569)"/>
<path fill-rule="evenodd" clip-rule="evenodd" d="M29.0435 3L39.9999 13.9564H29.0435V3Z" fill="url(#paint1_linear_1394_10569)"/>
<path d="M29.6778 23.2969C30.3361 23.9551 30.3361 25.0224 29.6778 25.6807L25.3087 30.0508C24.7325 30.6269 23.8429 30.6981 23.1886 30.2656C23.0952 30.204 23.0061 30.132 22.9239 30.0498L18.5548 25.6797C17.8966 25.0215 17.8966 23.9541 18.5548 23.2959C19.2129 22.6382 20.2795 22.6383 20.9376 23.2959L22.4435 24.8018L22.4435 17.0488C22.4435 16.1181 23.1974 15.3635 24.128 15.3633C25.0589 15.3633 25.8136 16.118 25.8136 17.0488L25.8136 24.7783L27.295 23.2969C27.9532 22.6389 29.0197 22.6389 29.6778 23.2969Z" fill="url(#paint2_linear_1394_10569)"/>
<path d="M32.4033 28.6895C33.2833 28.6896 33.9961 29.4032 33.9961 30.2832V35.3633C33.9962 35.3695 33.9971 35.3756 33.9971 35.3818C33.9971 36.2068 33.3698 36.886 32.5664 36.9678L32.4033 36.9756H15.8311C14.951 36.9756 14.2373 36.2619 14.2373 35.3818V30.2832C14.2373 29.4031 14.951 28.6895 15.8311 28.6895C16.711 28.6896 17.4238 29.4032 17.4238 30.2832V33.7891H30.8096V30.2832C30.8096 29.4031 31.5233 28.6895 32.4033 28.6895Z" fill="url(#paint3_linear_1394_10569)"/>
<defs>
<linearGradient id="paint0_linear_1394_10569" x1="27.2322" y1="64.6744" x2="65.1063" y2="33.6355" gradientUnits="userSpaceOnUse">
<stop stop-color="#70B1FF"/>
<stop offset="1" stop-color="#005CCD"/>
</linearGradient>
<linearGradient id="paint1_linear_1394_10569" x1="55.0379" y1="10.6677" x2="37.474" y2="-10.4395" gradientUnits="userSpaceOnUse">
<stop stop-color="#295296"/>
<stop offset="1" stop-color="#3E78D3"/>
</linearGradient>
<linearGradient id="paint2_linear_1394_10569" x1="33.0598" y1="17.4265" x2="19.139" y2="15.4318" gradientUnits="userSpaceOnUse">
<stop stop-color="#295296"/>
<stop offset="1" stop-color="#3E78D3"/>
</linearGradient>
<linearGradient id="paint3_linear_1394_10569" x1="33.9971" y1="32.8325" x2="15.4968" y2="35.2559" gradientUnits="userSpaceOnUse">
<stop stop-color="#295296"/>
<stop offset="1" stop-color="#3E78D3"/>
</linearGradient>
</defs>
</svg>
