<svg width="48" height="48" viewBox="0 0 48 48" fill="none" xmlns="http://www.w3.org/2000/svg">
<g clip-path="url(#clip0_1394_10580)">
<path opacity="0.45" d="M31.5 22.5H0V13.5H31.5V22.5ZM4.55859 16.7725C3.87199 16.7726 3.31543 17.3223 3.31543 18C3.31544 18.6777 3.872 19.2274 4.55859 19.2275C5.24531 19.2275 5.80272 18.6778 5.80273 18C5.80273 17.3222 5.24532 16.7725 4.55859 16.7725Z" fill="url(#paint0_linear_1394_10580)"/>
<rect opacity="0.45" y="25.5" width="31.5" height="9" fill="url(#paint1_linear_1394_10580)"/>
<rect opacity="0.45" y="2" width="31.5" height="9" fill="url(#paint2_linear_1394_10580)"/>
<path fill-rule="evenodd" clip-rule="evenodd" d="M31.5 22.5V25.5H0V22.5H31.5Z" fill="#609DE8"/>
<path fill-rule="evenodd" clip-rule="evenodd" d="M31.5 11V13.5H0V11H31.5Z" fill="#609DE8"/>
<path fill-rule="evenodd" clip-rule="evenodd" d="M4.51177 31.0968C5.19137 31.0968 5.7423 30.5459 5.7423 29.8663C5.7423 29.1867 5.19137 28.6357 4.51177 28.6357C3.83217 28.6357 3.28125 29.1867 3.28125 29.8663C3.28125 30.5459 3.83217 31.0968 4.51177 31.0968Z" fill="url(#paint3_linear_1394_10580)"/>
<path fill-rule="evenodd" clip-rule="evenodd" d="M4.51177 7.7423C5.19137 7.7423 5.7423 7.19137 5.7423 6.51177C5.7423 5.83217 5.19137 5.28125 4.51177 5.28125C3.83217 5.28125 3.28125 5.83217 3.28125 6.51177C3.28125 7.19137 3.83217 7.7423 4.51177 7.7423Z" fill="url(#paint4_linear_1394_10580)"/>
<path fill-rule="evenodd" clip-rule="evenodd" d="M9.43365 19.2423C10.1132 19.2423 10.6642 18.6914 10.6642 18.0118C10.6642 17.3322 10.1132 16.7812 9.43365 16.7812C8.75405 16.7812 8.20312 17.3322 8.20312 18.0118C8.20312 18.6914 8.75405 19.2423 9.43365 19.2423Z" fill="url(#paint5_linear_1394_10580)"/>
<path fill-rule="evenodd" clip-rule="evenodd" d="M9.43365 31.0968C10.1132 31.0968 10.6642 30.5459 10.6642 29.8663C10.6642 29.1867 10.1132 28.6357 9.43365 28.6357C8.75405 28.6357 8.20312 29.1867 8.20312 29.8663C8.20312 30.5459 8.75405 31.0968 9.43365 31.0968Z" fill="url(#paint6_linear_1394_10580)"/>
<path fill-rule="evenodd" clip-rule="evenodd" d="M9.43365 7.7423C10.1132 7.7423 10.6642 7.19137 10.6642 6.51177C10.6642 5.83217 10.1132 5.28125 9.43365 5.28125C8.75405 5.28125 8.20312 5.83217 8.20312 6.51177C8.20312 7.19137 8.75405 7.7423 9.43365 7.7423Z" fill="url(#paint7_linear_1394_10580)"/>
<path opacity="0.4" fill-rule="evenodd" clip-rule="evenodd" d="M38.5584 38.4637C37.7699 38.1054 36.8649 38.1054 36.0764 38.4637L35.8045 38.5872C34.2235 39.3056 32.3647 38.5356 31.7547 36.9097L31.6498 36.6302C31.3456 35.8192 30.7057 35.1793 29.8948 34.8751L29.6152 34.7702C27.9893 34.1602 27.2193 32.3014 27.9377 30.7204L28.0612 30.4485C28.4195 29.66 28.4195 28.7551 28.0612 27.9665L27.9377 27.6947C27.2193 26.1136 27.9893 24.2548 29.6152 23.6448L29.8948 23.5399C30.7057 23.2357 31.3456 22.5958 31.6498 21.7849L31.7547 21.5053C32.3647 19.8794 34.2235 19.1095 35.8045 19.8278L36.0764 19.9513C36.8649 20.3096 37.7699 20.3096 38.5584 19.9513L38.8302 19.8278C40.4113 19.1095 42.2701 19.8794 42.8801 21.5053L42.985 21.7849C43.2892 22.5958 43.9291 23.2357 44.74 23.5399L45.0196 23.6448C46.6455 24.2548 47.4155 26.1136 46.6971 27.6947L46.5736 27.9665C46.2153 28.7551 46.2153 29.66 46.5736 30.4485L46.6971 30.7204C47.4155 32.3014 46.6455 34.1602 45.0196 34.7702L44.74 34.8751C43.9291 35.1793 43.2892 35.8192 42.985 36.6302L42.8801 36.9097C42.2701 38.5357 40.4113 39.3056 38.8302 38.5872L38.5584 38.4637Z" fill="url(#paint8_linear_1394_10580)"/>
<path opacity="0.4" fill-rule="evenodd" clip-rule="evenodd" d="M37.3305 36.569L34.2246 48.1605L32.1565 45.5279L29.0532 46.7749L32.3137 34.6064C33.6271 35.8244 35.3856 36.569 37.3181 36.569L37.3305 36.569V36.569Z" fill="url(#paint9_linear_1394_10580)"/>
<path opacity="0.4" fill-rule="evenodd" clip-rule="evenodd" d="M42.3502 34.5811L45.6176 46.7752L42.5144 45.5282L40.4463 48.1608L37.3403 36.5693C39.2777 36.5636 41.0389 35.8096 42.3502 34.5811V34.5811Z" fill="url(#paint10_linear_1394_10580)"/>
<path d="M31.5 34.5H29.0713C27.8275 33.7195 27.3052 32.1129 27.9375 30.7207L28.0616 30.4482C28.4197 29.6599 28.4196 28.7552 28.0616 27.9668L27.9375 27.6943C27.2194 26.1134 27.9894 24.2545 29.6153 23.6445L29.8946 23.54C30.5904 23.279 31.1601 22.7704 31.5 22.1191V34.5Z" fill="url(#paint11_linear_1394_10580)"/>
<path opacity="0.6" fill-rule="evenodd" clip-rule="evenodd" d="M37.3175 36.5686C41.3831 36.5686 44.6789 33.2727 44.6789 29.2071C44.6789 25.1415 41.3831 21.8457 37.3175 21.8457C33.2519 21.8457 29.9561 25.1415 29.9561 29.2071C29.9561 33.2727 33.2519 36.5686 37.3175 36.5686Z" fill="url(#paint12_linear_1394_10580)"/>
<path d="M34.031 27.8178L32.6328 29.2181L36.018 32.5538L42.0019 26.584L40.595 25.1924L36.0093 29.7672L34.031 27.8178Z" fill="url(#paint13_linear_1394_10580)"/>
</g>
<defs>
<linearGradient id="paint0_linear_1394_10580" x1="15.75" y1="9" x2="10.9953" y2="25.6415" gradientUnits="userSpaceOnUse">
<stop stop-color="#70B1FF"/>
<stop offset="1" stop-color="#005CCD"/>
</linearGradient>
<linearGradient id="paint1_linear_1394_10580" x1="-15.75" y1="30" x2="-10.9953" y2="46.6415" gradientUnits="userSpaceOnUse">
<stop stop-color="#70B1FF"/>
<stop offset="1" stop-color="#005CCD"/>
</linearGradient>
<linearGradient id="paint2_linear_1394_10580" x1="-15.75" y1="6.5" x2="-10.9953" y2="23.1415" gradientUnits="userSpaceOnUse">
<stop stop-color="#70B1FF"/>
<stop offset="1" stop-color="#005CCD"/>
</linearGradient>
<linearGradient id="paint3_linear_1394_10580" x1="4.61312" y1="25.5801" x2="0.104301" y2="29.5925" gradientUnits="userSpaceOnUse">
<stop stop-color="#6FA2EC"/>
<stop offset="1" stop-color="#5C90DF"/>
</linearGradient>
<linearGradient id="paint4_linear_1394_10580" x1="4.61312" y1="2.22562" x2="0.104301" y2="6.23804" gradientUnits="userSpaceOnUse">
<stop stop-color="#6FA2EC"/>
<stop offset="1" stop-color="#5C90DF"/>
</linearGradient>
<linearGradient id="paint5_linear_1394_10580" x1="9.53499" y1="13.7256" x2="5.02618" y2="17.738" gradientUnits="userSpaceOnUse">
<stop stop-color="#6FA2EC"/>
<stop offset="1" stop-color="#5C90DF"/>
</linearGradient>
<linearGradient id="paint6_linear_1394_10580" x1="9.44954" y1="33.3186" x2="12.888" y2="29.872" gradientUnits="userSpaceOnUse">
<stop stop-color="#295296"/>
<stop offset="1" stop-color="#3E78D3"/>
</linearGradient>
<linearGradient id="paint7_linear_1394_10580" x1="9.44954" y1="9.96412" x2="12.888" y2="6.51751" gradientUnits="userSpaceOnUse">
<stop stop-color="#295296"/>
<stop offset="1" stop-color="#3E78D3"/>
</linearGradient>
<linearGradient id="paint8_linear_1394_10580" x1="36.6058" y1="16.4792" x2="25.1099" y2="34.1671" gradientUnits="userSpaceOnUse">
<stop stop-color="#70B1FF"/>
<stop offset="1" stop-color="#005CCD"/>
</linearGradient>
<linearGradient id="paint9_linear_1394_10580" x1="35.7888" y1="31.929" x2="25.2441" y2="34.5375" gradientUnits="userSpaceOnUse">
<stop stop-color="#70B1FF"/>
<stop offset="1" stop-color="#005CCD"/>
</linearGradient>
<linearGradient id="paint10_linear_1394_10580" x1="44.0759" y1="31.8986" x2="33.5289" y2="34.5027" gradientUnits="userSpaceOnUse">
<stop stop-color="#70B1FF"/>
<stop offset="1" stop-color="#005CCD"/>
</linearGradient>
<linearGradient id="paint11_linear_1394_10580" x1="28.6023" y1="36.2425" x2="33.24" y2="35.5425" gradientUnits="userSpaceOnUse">
<stop stop-color="#295296"/>
<stop offset="1" stop-color="#3E78D3"/>
</linearGradient>
<linearGradient id="paint12_linear_1394_10580" x1="36.5913" y1="19.4605" x2="27.851" y2="31.0914" gradientUnits="userSpaceOnUse">
<stop stop-color="#99C3FC"/>
<stop offset="1" stop-color="#6B9AE0"/>
</linearGradient>
<linearGradient id="paint13_linear_1394_10580" x1="34.9173" y1="33.5899" x2="43.2894" y2="28.3937" gradientUnits="userSpaceOnUse">
<stop stop-color="#295296"/>
<stop offset="1" stop-color="#3E78D3"/>
</linearGradient>
<clipPath id="clip0_1394_10580">
<rect width="48" height="48" fill="white"/>
</clipPath>
</defs>
</svg>
