<svg width="48" height="48" viewBox="0 0 48 48" fill="none" xmlns="http://www.w3.org/2000/svg">
<path opacity="0.35" fill-rule="evenodd" clip-rule="evenodd" d="M32 48L20.4329 39.3757C17.6284 37.2847 16 34.1453 16 30.8293V9H48V30.8293C48 34.1453 46.3716 37.2847 43.5671 39.3757L32 48Z" fill="url(#paint0_linear_1394_10601)"/>
<path opacity="0.45" fill-rule="evenodd" clip-rule="evenodd" d="M32 48V9H48V30.8293C48 34.1453 46.3716 37.2847 43.5671 39.3757L32 48Z" fill="url(#paint1_linear_1394_10601)"/>
<path opacity="0.35" d="M9.99873 22.9975C15.5209 22.9975 19.9975 18.5209 19.9975 12.9987C19.9975 7.47658 15.5209 3 9.99873 3C4.47658 3 0 7.47658 0 12.9987C0 18.5209 4.47658 22.9975 9.99873 22.9975Z" fill="url(#paint2_linear_1394_10601)"/>
<path d="M19.1641 9C19.6992 10.2247 19.9971 11.577 19.9971 12.999C19.997 16.269 18.4271 19.1719 16 20.9961V9H19.1641Z" fill="url(#paint3_linear_1394_10601)"/>
<path d="M14.7521 16.3194C14.6454 16.4763 14.5017 16.6047 14.3337 16.6931C14.1657 16.7815 13.9786 16.8273 13.7888 16.8264C13.5465 16.8218 13.31 16.7517 13.1043 16.6236L9.31417 13.9718C9.16108 13.8612 9.03566 13.7167 8.9477 13.5496C8.85974 13.3824 8.81163 13.1972 8.80713 13.0084V6.63499C8.8068 6.47842 8.83739 6.32333 8.89715 6.17861C8.95691 6.0339 9.04467 5.90241 9.15538 5.7917C9.26609 5.68099 9.39758 5.59324 9.54229 5.53348C9.687 5.47371 9.8421 5.44312 9.99866 5.44346C10.1563 5.44144 10.3128 5.47079 10.4589 5.5298C10.6051 5.5888 10.7381 5.67629 10.8502 5.78717C10.9622 5.89805 11.0511 6.03011 11.1117 6.17566C11.1722 6.32121 11.2032 6.47735 11.2029 6.63499V12.3898L14.4733 14.6968C14.6001 14.7835 14.7082 14.8947 14.7912 15.0239C14.8742 15.1531 14.9303 15.2977 14.9564 15.449C14.9824 15.6004 14.9777 15.7554 14.9426 15.9049C14.9075 16.0544 14.8427 16.1954 14.7521 16.3194V16.3194Z" fill="url(#paint4_linear_1394_10601)"/>
<defs>
<linearGradient id="paint0_linear_1394_10601" x1="-2.87771" y1="59.4401" x2="42.7268" y2="70.2489" gradientUnits="userSpaceOnUse">
<stop stop-color="#70B1FF"/>
<stop offset="1" stop-color="#005CCD"/>
</linearGradient>
<linearGradient id="paint1_linear_1394_10601" x1="22.5611" y1="59.4401" x2="46.3108" y2="62.2546" gradientUnits="userSpaceOnUse">
<stop stop-color="#70B1FF"/>
<stop offset="1" stop-color="#005CCD"/>
</linearGradient>
<linearGradient id="paint2_linear_1394_10601" x1="-11.7971" y1="28.8635" x2="15.985" y2="36.8885" gradientUnits="userSpaceOnUse">
<stop stop-color="#70B1FF"/>
<stop offset="1" stop-color="#005CCD"/>
</linearGradient>
<linearGradient id="paint3_linear_1394_10601" x1="17.4448" y1="23.3994" x2="23.5043" y2="22.0952" gradientUnits="userSpaceOnUse">
<stop stop-color="#295296"/>
<stop offset="1" stop-color="#3E78D3"/>
</linearGradient>
<linearGradient id="paint4_linear_1394_10601" x1="11.0359" y1="19.1069" x2="19.7493" y2="16.0582" gradientUnits="userSpaceOnUse">
<stop stop-color="#295296"/>
<stop offset="1" stop-color="#3E78D3"/>
</linearGradient>
</defs>
</svg>
