<svg width="48" height="48" viewBox="0 0 48 48" fill="none" xmlns="http://www.w3.org/2000/svg">
<g clip-path="url(#clip0_1394_10609)">
<g opacity="0.55" style="mix-blend-mode:multiply">
<path fill-rule="evenodd" clip-rule="evenodd" d="M32.5 25.7118C41.0604 25.7118 48 32.6814 48 41.2789V44.4997H17V41.2789C17 32.6814 23.9396 25.7118 32.5 25.7118ZM32.5982 23.0276C27.7621 23.0276 23.8417 19.1072 23.8417 14.2711C23.8417 9.43506 27.7621 5.51465 32.5982 5.51465C37.4342 5.51465 41.3547 9.43506 41.3547 14.2711C41.3547 19.1072 37.4342 23.0276 32.5982 23.0276Z" fill="url(#paint0_linear_1394_10609)"/>
</g>
<path opacity="0.5" d="M11.5771 13.0021C12.3464 11.666 14.2747 11.666 15.0439 13.0021L26.3515 32.6417C27.1188 33.9749 26.1564 35.6396 24.6181 35.6398H2.00291C0.464594 35.6397 -0.497763 33.9749 0.269513 32.6417L11.5771 13.0021ZM13.3105 29.6808C12.4044 29.6808 11.67 30.4153 11.6699 31.3214C11.6699 32.2276 12.4044 32.962 13.3105 32.962C14.2167 32.962 14.9512 32.2276 14.9512 31.3214C14.951 30.4153 14.2166 29.6808 13.3105 29.6808ZM13.3105 17.7853C12.4189 17.7853 11.71 18.5336 11.7578 19.4239L12.1611 26.9513C12.1941 27.5618 12.6991 28.0401 13.3105 28.0402C13.922 28.0402 14.427 27.5618 14.4599 26.9513L14.8633 19.4239C14.911 18.5336 14.2021 17.7853 13.3105 17.7853Z" fill="url(#paint1_linear_1394_10609)"/>
<path d="M26.3514 32.6416C27.1184 33.9748 26.1562 35.6395 24.618 35.6396H18.0487C19.2068 32.6481 21.2589 30.105 23.8759 28.3418L26.3514 32.6416Z" fill="url(#paint2_linear_1394_10609)"/>
</g>
<defs>
<linearGradient id="paint0_linear_1394_10609" x1="30.4558" y1="-3.93635" x2="-0.315884" y2="19.3189" gradientUnits="userSpaceOnUse">
<stop stop-color="#70B1FF"/>
<stop offset="1" stop-color="#005CCD"/>
</linearGradient>
<linearGradient id="paint1_linear_1394_10609" x1="0.482673" y1="1.79123" x2="-15.5232" y2="32.0734" gradientUnits="userSpaceOnUse">
<stop stop-color="#70B1FF"/>
<stop offset="1" stop-color="#005CCD"/>
</linearGradient>
<linearGradient id="paint2_linear_1394_10609" x1="27.8468" y1="34.5856" x2="26.0133" y2="27.1298" gradientUnits="userSpaceOnUse">
<stop stop-color="#295296"/>
<stop offset="1" stop-color="#3E78D3"/>
</linearGradient>
<clipPath id="clip0_1394_10609">
<rect width="48" height="48" fill="white"/>
</clipPath>
</defs>
</svg>
