<svg width="48" height="48" viewBox="0 0 48 48" fill="none" xmlns="http://www.w3.org/2000/svg">
<path opacity="0.55" fill-rule="evenodd" clip-rule="evenodd" d="M44.641 7C45.9044 7 46.9358 7.93554 46.9971 9.11131L47 9.22222V12H1V9.22222C1 8.03211 1.99311 7.06051 3.24124 7.00272L3.35897 7H44.641ZM38.5 11C39.3284 11 40 10.3284 40 9.5C40 8.67157 39.3284 8 38.5 8C37.6716 8 37 8.67157 37 9.5C37 10.3284 37.6716 11 38.5 11Z" fill="url(#paint0_linear_1394_10625)"/>
<rect opacity="0.275529" x="1" y="12" width="46" height="29" fill="url(#paint1_linear_1394_10625)"/>
<path fill-rule="evenodd" clip-rule="evenodd" d="M43.5 11C44.3284 11 45 10.3284 45 9.5C45 8.67157 44.3284 8 43.5 8C42.6716 8 42 8.67157 42 9.5C42 10.3284 42.6716 11 43.5 11Z" fill="url(#paint2_linear_1394_10625)"/>
<path d="M34.5183 30.4607C35.6895 31.6322 35.6895 33.5314 34.5183 34.7029L32.2195 37.0017C31.048 38.1729 29.1488 38.1729 27.9773 37.0017L23.8445 32.8689L30.3855 26.3279L34.5183 30.4607ZM23.8445 32.8689L19.7215 36.9929C18.5499 38.1645 16.6498 38.1645 15.4783 36.9929L13.197 34.7117C12.0256 33.5401 12.0256 31.6401 13.197 30.4685L17.3201 26.3445L23.8445 32.8689ZM15.4861 15.6716C16.6577 14.5001 18.5577 14.5001 19.7293 15.6716L23.8611 19.8035L17.3201 26.3445L13.1882 22.2127C12.0167 21.0411 12.0167 19.1411 13.1882 17.9695L15.4861 15.6716ZM27.9861 15.6795C29.1576 14.5079 31.0577 14.508 32.2293 15.6795L34.5105 17.9607C35.6821 19.1323 35.6821 21.0323 34.5105 22.2039L30.3855 26.3279L23.8611 19.8035L27.9861 15.6795Z" fill="url(#paint3_linear_1394_10625)"/>
<path opacity="0.275529" d="M30.3955 26.335L23.8535 32.877L17.3125 26.335L23.8535 19.7939L30.3955 26.335Z" fill="url(#paint4_linear_1394_10625)"/>
<circle cx="23.8535" cy="22.8757" r="1.2234" transform="rotate(45 23.8535 22.8757)" fill="url(#paint5_linear_1394_10625)"/>
<circle cx="20.3936" cy="26.3356" r="1.2234" transform="rotate(45 20.3936 26.3356)" fill="url(#paint6_linear_1394_10625)"/>
<circle cx="27.3135" cy="26.3356" r="1.2234" transform="rotate(45 27.3135 26.3356)" fill="url(#paint7_linear_1394_10625)"/>
<circle cx="23.8535" cy="29.7966" r="1.2234" transform="rotate(45 23.8535 29.7966)" fill="url(#paint8_linear_1394_10625)"/>
<circle cx="23.8535" cy="26.3356" r="1.2234" transform="rotate(45 23.8535 26.3356)" fill="url(#paint9_linear_1394_10625)"/>
<defs>
<linearGradient id="paint0_linear_1394_10625" x1="24" y1="4.5" x2="22.9257" y2="14.3832" gradientUnits="userSpaceOnUse">
<stop stop-color="#70B1FF"/>
<stop offset="1" stop-color="#005CCD"/>
</linearGradient>
<linearGradient id="paint1_linear_1394_10625" x1="47" y1="26.5" x2="1" y2="26.5" gradientUnits="userSpaceOnUse">
<stop stop-color="#70B1FF"/>
<stop offset="1" stop-color="#005CCD"/>
</linearGradient>
<linearGradient id="paint2_linear_1394_10625" x1="52.755" y1="10.5709" x2="45.2244" y2="2.95944" gradientUnits="userSpaceOnUse">
<stop stop-color="#295296"/>
<stop offset="1" stop-color="#3E78D3"/>
</linearGradient>
<linearGradient id="paint3_linear_1394_10625" x1="7.83557" y1="-3.00386" x2="27.2144" y2="42.0182" gradientUnits="userSpaceOnUse">
<stop stop-color="#295296"/>
<stop offset="1" stop-color="#3E78D3"/>
</linearGradient>
<linearGradient id="paint4_linear_1394_10625" x1="20.5831" y1="23.065" x2="27.1246" y2="29.6065" gradientUnits="userSpaceOnUse">
<stop stop-color="#70B1FF"/>
<stop offset="1" stop-color="#005CCD"/>
</linearGradient>
<linearGradient id="paint5_linear_1394_10625" x1="31.4019" y1="23.7491" x2="25.26" y2="17.5412" gradientUnits="userSpaceOnUse">
<stop stop-color="#295296"/>
<stop offset="1" stop-color="#3E78D3"/>
</linearGradient>
<linearGradient id="paint6_linear_1394_10625" x1="27.9419" y1="27.2091" x2="21.8" y2="21.0011" gradientUnits="userSpaceOnUse">
<stop stop-color="#295296"/>
<stop offset="1" stop-color="#3E78D3"/>
</linearGradient>
<linearGradient id="paint7_linear_1394_10625" x1="34.8618" y1="27.2091" x2="28.7199" y2="21.0011" gradientUnits="userSpaceOnUse">
<stop stop-color="#295296"/>
<stop offset="1" stop-color="#3E78D3"/>
</linearGradient>
<linearGradient id="paint8_linear_1394_10625" x1="31.4019" y1="30.67" x2="25.26" y2="24.4621" gradientUnits="userSpaceOnUse">
<stop stop-color="#295296"/>
<stop offset="1" stop-color="#3E78D3"/>
</linearGradient>
<linearGradient id="paint9_linear_1394_10625" x1="31.4019" y1="27.2091" x2="25.26" y2="21.0011" gradientUnits="userSpaceOnUse">
<stop stop-color="#295296"/>
<stop offset="1" stop-color="#3E78D3"/>
</linearGradient>
</defs>
</svg>
