<svg width="96" height="96" viewBox="0 0 96 96" fill="none" xmlns="http://www.w3.org/2000/svg">
<path opacity="0.8" fill-rule="evenodd" clip-rule="evenodd" d="M90 77L80 69H16L6 77V81H90V77Z" fill="url(#paint0_linear_1394_10642)"/>
<path opacity="0.36" fill-rule="evenodd" clip-rule="evenodd" d="M16 32C16 30.3431 17.3431 29 19 29H77C78.6569 29 80 30.3431 80 32V69H16V32Z" fill="url(#paint1_linear_1394_10642)"/>
<rect opacity="0.275529" x="19" y="23" width="68" height="44" fill="url(#paint2_linear_1394_10642)"/>
<path opacity="0.55" fill-rule="evenodd" clip-rule="evenodd" d="M83.5128 15C85.3804 15 86.905 16.4969 86.9957 18.3781L87 18.5556V23H19V18.5556C19 16.6514 20.4681 15.0968 22.3131 15.0044L22.4872 15H83.5128ZM74.3592 16.7778C73.1555 16.7778 72.1797 17.7728 72.1797 19.0001C72.1797 20.2274 73.1555 21.2223 74.3592 21.2223C75.5629 21.2223 76.5387 20.2274 76.5387 19.0001C76.5387 17.7728 75.5629 16.7778 74.3592 16.7778Z" fill="url(#paint3_linear_1394_10642)"/>
<path fill-rule="evenodd" clip-rule="evenodd" d="M81.5 21.4355C82.8807 21.4355 84 20.3163 84 18.9355C84 17.5548 82.8807 16.4355 81.5 16.4355C80.1193 16.4355 79 17.5548 79 18.9355C79 20.3163 80.1193 21.4355 81.5 21.4355Z" fill="url(#paint4_linear_1394_10642)"/>
<path d="M63.5759 53.5564C64.7474 54.728 64.7474 56.627 63.5759 57.7986L59.7986 61.5759C58.627 62.7474 56.728 62.7474 55.5564 61.5759L50.0095 56.0291L58.0291 48.0095L63.5759 53.5564ZM50.0095 56.0291L44.4744 61.5652C43.3028 62.7368 41.4028 62.7368 40.2312 61.5652L36.4754 57.8093C35.3038 56.6378 35.3038 54.7378 36.4754 53.5662L42.0105 48.03L50.0095 56.0291ZM40.241 34.4646C41.4126 33.293 43.3126 33.293 44.4841 34.4646L50.03 40.0105L42.0105 48.03L36.4646 42.4841C35.293 41.3126 35.293 39.4126 36.4646 38.241L40.241 34.4646ZM55.5672 34.4744C56.7387 33.3029 58.6388 33.3028 59.8103 34.4744L63.5662 38.2312C64.7376 39.4028 64.7376 41.3019 63.5662 42.4734L58.0291 48.0095L50.03 40.0105L55.5672 34.4744Z" fill="url(#paint5_linear_1394_10642)"/>
<path opacity="0.275529" d="M58.04 48.0195L50.0195 56.04L42 48.0205L50.0205 40L58.04 48.0195Z" fill="url(#paint6_linear_1394_10642)"/>
<circle cx="50.0205" cy="43.7776" r="1.5" transform="rotate(45 50.0205 43.7776)" fill="url(#paint7_linear_1394_10642)"/>
<circle cx="45.7783" cy="48.0207" r="1.5" transform="rotate(45 45.7783 48.0207)" fill="url(#paint8_linear_1394_10642)"/>
<circle cx="54.2627" cy="48.0207" r="1.5" transform="rotate(45 54.2627 48.0207)" fill="url(#paint9_linear_1394_10642)"/>
<circle cx="50.0205" cy="52.2639" r="1.5" transform="rotate(45 50.0205 52.2639)" fill="url(#paint10_linear_1394_10642)"/>
<circle cx="50.0205" cy="48.0207" r="1.5" transform="rotate(45 50.0205 48.0207)" fill="url(#paint11_linear_1394_10642)"/>
<defs>
<linearGradient id="paint0_linear_1394_10642" x1="-36" y1="75" x2="-32.64" y2="98.52" gradientUnits="userSpaceOnUse">
<stop stop-color="#8DBCFF"/>
<stop offset="1" stop-color="#4D82D5"/>
</linearGradient>
<linearGradient id="paint1_linear_1394_10642" x1="112" y1="49" x2="76.0449" y2="-8.52809" gradientUnits="userSpaceOnUse">
<stop stop-color="#70B1FF"/>
<stop offset="1" stop-color="#005CCD"/>
</linearGradient>
<linearGradient id="paint2_linear_1394_10642" x1="87" y1="45" x2="19" y2="45" gradientUnits="userSpaceOnUse">
<stop stop-color="#70B1FF"/>
<stop offset="1" stop-color="#005CCD"/>
</linearGradient>
<linearGradient id="paint3_linear_1394_10642" x1="53" y1="11" x2="51.1433" y2="26.7816" gradientUnits="userSpaceOnUse">
<stop stop-color="#70B1FF"/>
<stop offset="1" stop-color="#005CCD"/>
</linearGradient>
<linearGradient id="paint4_linear_1394_10642" x1="96.9249" y1="20.7204" x2="84.374" y2="8.03461" gradientUnits="userSpaceOnUse">
<stop stop-color="#295296"/>
<stop offset="1" stop-color="#3E78D3"/>
</linearGradient>
<linearGradient id="paint5_linear_1394_10642" x1="29.9916" y1="11.3327" x2="54.223" y2="67.6285" gradientUnits="userSpaceOnUse">
<stop stop-color="#295296"/>
<stop offset="1" stop-color="#3E78D3"/>
</linearGradient>
<linearGradient id="paint6_linear_1394_10642" x1="46.0098" y1="44.0104" x2="54.0298" y2="52.0304" gradientUnits="userSpaceOnUse">
<stop stop-color="#70B1FF"/>
<stop offset="1" stop-color="#005CCD"/>
</linearGradient>
<linearGradient id="paint7_linear_1394_10642" x1="59.2755" y1="44.8485" x2="51.7449" y2="37.237" gradientUnits="userSpaceOnUse">
<stop stop-color="#295296"/>
<stop offset="1" stop-color="#3E78D3"/>
</linearGradient>
<linearGradient id="paint8_linear_1394_10642" x1="55.0333" y1="49.0916" x2="47.5027" y2="41.4802" gradientUnits="userSpaceOnUse">
<stop stop-color="#295296"/>
<stop offset="1" stop-color="#3E78D3"/>
</linearGradient>
<linearGradient id="paint9_linear_1394_10642" x1="63.5177" y1="49.0916" x2="55.9871" y2="41.4802" gradientUnits="userSpaceOnUse">
<stop stop-color="#295296"/>
<stop offset="1" stop-color="#3E78D3"/>
</linearGradient>
<linearGradient id="paint10_linear_1394_10642" x1="59.2755" y1="53.3348" x2="51.7449" y2="45.7233" gradientUnits="userSpaceOnUse">
<stop stop-color="#295296"/>
<stop offset="1" stop-color="#3E78D3"/>
</linearGradient>
<linearGradient id="paint11_linear_1394_10642" x1="59.2755" y1="49.0916" x2="51.7449" y2="41.4802" gradientUnits="userSpaceOnUse">
<stop stop-color="#295296"/>
<stop offset="1" stop-color="#3E78D3"/>
</linearGradient>
</defs>
</svg>
