<svg width="48" height="48" viewBox="0 0 48 48" fill="none" xmlns="http://www.w3.org/2000/svg">
<g clip-path="url(#clip0_1394_10661)">
<path opacity="0.38" fill-rule="evenodd" clip-rule="evenodd" d="M2.88889 0H23.1111C24.7066 0 26 1.29177 26 2.88525V41.1148C26 42.7082 24.7066 44 23.1111 44H2.88889C1.2934 44 0 42.7082 0 41.1148V2.88525C0 1.29177 1.2934 0 2.88889 0Z" fill="url(#paint0_linear_1394_10661)"/>
<path opacity="0.6" fill-rule="evenodd" clip-rule="evenodd" d="M34 8.38679C38.0501 8.38679 41.3333 11.6306 41.3333 15.6321C41.3333 19.6335 38.0501 22.8774 34 22.8774C29.9499 22.8774 26.6667 19.6335 26.6667 15.6321C26.6667 14.0551 27.1766 12.5957 28.0425 11.4063L25.0638 9.29335C23.7649 11.0776 23 13.2666 23 15.6321C23 21.6343 27.9249 26.5 34 26.5C40.0751 26.5 45 21.6343 45 15.6321C45 9.62989 40.0751 4.76415 34 4.76415V2.5L28.0417 6.57547L34 10.6509V8.38679Z" fill="url(#paint1_linear_1394_10661)"/>
<path opacity="0.4" d="M38.8243 42.9421C38.0436 42.9421 37.4086 42.2786 37.4086 41.4636C37.4086 40.6485 38.0436 39.9855 38.8243 39.9855C39.605 39.9855 40.24 40.6485 40.24 41.4636C40.24 42.2786 39.605 42.9421 38.8243 42.9421ZM23.1757 42.9421C22.395 42.9421 21.76 42.2786 21.76 41.4636C21.76 40.6485 22.395 39.9855 23.1757 39.9855C23.9564 39.9855 24.5914 40.6485 24.5914 41.4636C24.5914 42.2786 23.9564 42.9421 23.1757 42.9421ZM39.3321 34.0382L42.1616 28.9217C42.3238 28.6277 42.2273 28.252 41.9461 28.0822C41.6649 27.9128 41.3047 28.0136 41.142 28.3072L38.2771 33.4884C36.0862 32.4445 33.6256 31.863 31 31.863C28.3744 31.863 25.9138 32.4445 23.7229 33.4884L20.858 28.3072C20.6953 28.0136 20.3351 27.9128 20.0539 28.0822C19.7727 28.252 19.6757 28.6277 19.8384 28.9217L22.6679 34.0382C17.8092 36.7971 14.4861 41.9327 14 48H48C47.5134 41.9327 44.1903 36.7971 39.3321 34.0382Z" fill="url(#paint2_linear_1394_10661)"/>
<rect x="9.5" y="3" width="7" height="1.5" rx="0.75" fill="url(#paint3_linear_1394_10661)"/>
<rect x="17.5" y="3" width="1.5" height="1.5" rx="0.75" fill="url(#paint4_linear_1394_10661)"/>
<path fill-rule="evenodd" clip-rule="evenodd" d="M23.4 44L2.6 44C1.16406 44 5.94259e-07 42.6569 7.39105e-07 41L1.00137e-06 38L26 38L26 41C26 42.6569 24.8359 44 23.4 44Z" fill="url(#paint5_linear_1394_10661)"/>
<path opacity="0.6" d="M26 9.95703V23.0869C24.1414 21.1408 23 18.5187 23 15.6318C23 13.2664 23.7647 11.0771 25.0635 9.29297L26 9.95703Z" fill="url(#paint6_linear_1394_10661)"/>
<path opacity="0.6" d="M20.0529 28.082C20.3341 27.9127 20.6949 28.014 20.8575 28.3076L23.7228 33.4883C24.4529 33.1404 25.213 32.8443 25.9991 32.6035V41.1152C25.9989 42.7085 24.7058 44 23.1105 44H14.7648C16.0882 39.708 18.9201 36.1659 22.6671 34.0381L19.838 28.9219C19.6754 28.6279 19.7719 28.252 20.0529 28.082ZM23.1749 39.9854C22.3943 39.9855 21.7599 40.6489 21.7599 41.4639C21.76 42.2787 22.3944 42.9423 23.1749 42.9424C23.9555 42.9424 24.5908 42.2788 24.5909 41.4639C24.5909 40.6488 23.9556 39.9854 23.1749 39.9854Z" fill="url(#paint7_linear_1394_10661)"/>
</g>
<defs>
<linearGradient id="paint0_linear_1394_10661" x1="15.4616" y1="63.9171" x2="52.1071" y2="39.9983" gradientUnits="userSpaceOnUse">
<stop stop-color="#70B1FF"/>
<stop offset="1" stop-color="#005CCD"/>
</linearGradient>
<linearGradient id="paint1_linear_1394_10661" x1="34" y1="38.5" x2="57.9094" y2="16.583" gradientUnits="userSpaceOnUse">
<stop stop-color="#70B1FF"/>
<stop offset="1" stop-color="#005CCD"/>
</linearGradient>
<linearGradient id="paint2_linear_1394_10661" x1="34.219" y1="57.0532" x2="49.3175" y2="28.7016" gradientUnits="userSpaceOnUse">
<stop stop-color="#70B1FF"/>
<stop offset="1" stop-color="#005CCD"/>
</linearGradient>
<linearGradient id="paint3_linear_1394_10661" x1="6" y1="3.75" x2="6.61463" y2="6.61829" gradientUnits="userSpaceOnUse">
<stop stop-color="#83ACEB"/>
<stop offset="1" stop-color="#628FDD"/>
</linearGradient>
<linearGradient id="paint4_linear_1394_10661" x1="16.75" y1="3.75" x2="18.25" y2="5.25" gradientUnits="userSpaceOnUse">
<stop stop-color="#83ACEB"/>
<stop offset="1" stop-color="#628FDD"/>
</linearGradient>
<linearGradient id="paint5_linear_1394_10661" x1="39" y1="41" x2="36.3708" y2="29.6067" gradientUnits="userSpaceOnUse">
<stop stop-color="#83ACEB"/>
<stop offset="1" stop-color="#628FDD"/>
</linearGradient>
<linearGradient id="paint6_linear_1394_10661" x1="30.1176" y1="18.9464" x2="19.1147" y2="16.0707" gradientUnits="userSpaceOnUse">
<stop stop-color="#295296"/>
<stop offset="1" stop-color="#3E78D3"/>
</linearGradient>
<linearGradient id="paint7_linear_1394_10661" x1="41.4186" y1="39.1973" x2="15.7069" y2="17.5019" gradientUnits="userSpaceOnUse">
<stop stop-color="#295296"/>
<stop offset="1" stop-color="#3E78D3"/>
</linearGradient>
<clipPath id="clip0_1394_10661">
<rect width="48" height="48" fill="white"/>
</clipPath>
</defs>
</svg>
