<svg width="48" height="48" viewBox="0 0 48 48" fill="none" xmlns="http://www.w3.org/2000/svg">
<path opacity="0.4" d="M38.8243 42.9421C38.0436 42.9421 37.4086 42.2786 37.4086 41.4636C37.4086 40.6485 38.0436 39.9855 38.8243 39.9855C39.605 39.9855 40.24 40.6485 40.24 41.4636C40.24 42.2786 39.605 42.9421 38.8243 42.9421ZM23.1757 42.9421C22.395 42.9421 21.76 42.2786 21.76 41.4636C21.76 40.6485 22.395 39.9855 23.1757 39.9855C23.9564 39.9855 24.5914 40.6485 24.5914 41.4636C24.5914 42.2786 23.9564 42.9421 23.1757 42.9421ZM39.3321 34.0382L42.1616 28.9217C42.3238 28.6277 42.2273 28.252 41.9461 28.0822C41.6649 27.9128 41.3047 28.0136 41.142 28.3072L38.2771 33.4884C36.0862 32.4445 33.6256 31.863 31 31.863C28.3744 31.863 25.9138 32.4445 23.7229 33.4884L20.858 28.3072C20.6953 28.0136 20.3351 27.9128 20.0539 28.0822C19.7727 28.252 19.6757 28.6277 19.8384 28.9217L22.6679 34.0382C17.8092 36.7971 14.4861 41.9327 14 48H48C47.5134 41.9327 44.1903 36.7971 39.3321 34.0382Z" fill="url(#paint0_linear_1394_10674)"/>
<path opacity="0.4" fill-rule="evenodd" clip-rule="evenodd" d="M0 2.5H17.3091L25.9636 11.1545V36.5H0V2.5Z" fill="url(#paint1_linear_1394_10674)"/>
<path d="M20.0548 28.0821C20.3359 27.913 20.6958 28.0134 20.8585 28.3067L23.7238 33.4883C24.4426 33.1458 25.1908 32.854 25.964 32.6153V36.5H19.3654C20.3594 35.5488 21.4665 34.7205 22.6681 34.0381L19.839 28.9219C19.6763 28.6278 19.7736 28.2519 20.0548 28.0821Z" fill="url(#paint2_linear_1394_10674)"/>
<path opacity="0.8" fill-rule="evenodd" clip-rule="evenodd" d="M17.3091 2.5L25.9636 11.1545H17.3091V2.5Z" fill="url(#paint3_linear_1394_10674)"/>
<path opacity="0.8" fill-rule="evenodd" clip-rule="evenodd" d="M19.7812 20.0041L8.65398 26.8041V13.2041L19.7812 20.0041Z" fill="url(#paint4_linear_1394_10674)"/>
<path opacity="0.6" fill-rule="evenodd" clip-rule="evenodd" d="M34 11.3868C38.0501 11.3868 41.3333 14.6306 41.3333 18.6321C41.3333 22.6335 38.0501 25.8774 34 25.8774C29.9499 25.8774 26.6667 22.6335 26.6667 18.6321C26.6667 17.0551 27.1766 15.5957 28.0425 14.4063L25.0638 12.2934C23.7649 14.0776 23 16.2666 23 18.6321C23 24.6343 27.9249 29.5 34 29.5C40.0751 29.5 45 24.6343 45 18.6321C45 12.6299 40.0751 7.76415 34 7.76415V5.5L28.0417 9.57547L34 13.6509V11.3868Z" fill="url(#paint5_linear_1394_10674)"/>
<path d="M26 12.957V26.0869C24.1414 24.1408 23 21.5187 23 18.6318C23 16.2664 23.7647 14.0771 25.0635 12.293L26 12.957Z" fill="url(#paint6_linear_1394_10674)"/>
<defs>
<linearGradient id="paint0_linear_1394_10674" x1="34.219" y1="57.0532" x2="49.3175" y2="28.7016" gradientUnits="userSpaceOnUse">
<stop stop-color="#70B1FF"/>
<stop offset="1" stop-color="#005CCD"/>
</linearGradient>
<linearGradient id="paint1_linear_1394_10674" x1="15.44" y1="51.8905" x2="45.9306" y2="26.1717" gradientUnits="userSpaceOnUse">
<stop stop-color="#70B1FF"/>
<stop offset="1" stop-color="#005CCD"/>
</linearGradient>
<linearGradient id="paint2_linear_1394_10674" x1="35.0208" y1="33.9485" x2="21.1976" y2="21.0523" gradientUnits="userSpaceOnUse">
<stop stop-color="#295296"/>
<stop offset="1" stop-color="#3E78D3"/>
</linearGradient>
<linearGradient id="paint3_linear_1394_10674" x1="37.8422" y1="8.55673" x2="23.9684" y2="-8.11594" gradientUnits="userSpaceOnUse">
<stop stop-color="#295296"/>
<stop offset="1" stop-color="#3E78D3"/>
</linearGradient>
<linearGradient id="paint4_linear_1394_10674" x1="11.994" y1="45.4705" x2="36.7831" y2="28.5932" gradientUnits="userSpaceOnUse">
<stop stop-color="#295296"/>
<stop offset="1" stop-color="#3E78D3"/>
</linearGradient>
<linearGradient id="paint5_linear_1394_10674" x1="34" y1="41.5" x2="57.9094" y2="19.583" gradientUnits="userSpaceOnUse">
<stop stop-color="#70B1FF"/>
<stop offset="1" stop-color="#005CCD"/>
</linearGradient>
<linearGradient id="paint6_linear_1394_10674" x1="30.1176" y1="21.9464" x2="19.1147" y2="19.0707" gradientUnits="userSpaceOnUse">
<stop stop-color="#295296"/>
<stop offset="1" stop-color="#3E78D3"/>
</linearGradient>
</defs>
</svg>
