<svg width="96" height="96" viewBox="0 0 96 96" fill="none" xmlns="http://www.w3.org/2000/svg">
<path opacity="0.4" d="M77.6486 85.8842C76.0873 85.8842 74.8172 84.5573 74.8172 82.9271C74.8172 81.297 76.0873 79.971 77.6486 79.971C79.21 79.971 80.48 81.297 80.48 82.9271C80.48 84.5573 79.21 85.8842 77.6486 85.8842ZM46.3514 85.8842C44.79 85.8842 43.52 84.5573 43.52 82.9271C43.52 81.297 44.79 79.971 46.3514 79.971C47.9127 79.971 49.1828 81.297 49.1828 82.9271C49.1828 84.5573 47.9127 85.8842 46.3514 85.8842ZM78.6641 68.0763L84.3233 57.8435C84.6477 57.2553 84.4547 56.504 83.8923 56.1644C83.3298 55.8257 82.6094 56.0272 82.284 56.6144L76.5541 66.9767C72.1723 64.8889 67.2511 63.726 62 63.726C56.7488 63.726 51.8277 64.8889 47.4459 66.9767L41.716 56.6144C41.3906 56.0272 40.6702 55.8257 40.1077 56.1644C39.5453 56.504 39.3514 57.2553 39.6767 57.8435L45.3359 68.0763C35.6184 73.5943 28.9723 83.8655 28 96H96C95.0268 83.8655 88.3807 73.5943 78.6641 68.0763Z" fill="url(#paint0_linear_1394_10686)"/>
<path opacity="0.4" fill-rule="evenodd" clip-rule="evenodd" d="M0 5H34.6182L51.9273 22.3091V73H0V5Z" fill="url(#paint1_linear_1394_10686)"/>
<path d="M40.1077 56.1643C40.6701 55.8257 41.3907 56.0273 41.7161 56.6145L47.4456 66.9768C48.8834 66.2917 50.3804 65.7082 51.927 65.2307V73.0002H38.7288C40.7171 71.0975 42.9326 69.4413 45.3362 68.0764L39.677 57.844C39.3517 57.2558 39.5452 56.504 40.1077 56.1643Z" fill="url(#paint2_linear_1394_10686)"/>
<path opacity="0.8" fill-rule="evenodd" clip-rule="evenodd" d="M34.6182 5L51.9273 22.3091H34.6182V5Z" fill="url(#paint3_linear_1394_10686)"/>
<path opacity="0.8" fill-rule="evenodd" clip-rule="evenodd" d="M39.5625 40.0082L17.308 53.6082V26.4082L39.5625 40.0082Z" fill="url(#paint4_linear_1394_10686)"/>
<path opacity="0.6" fill-rule="evenodd" clip-rule="evenodd" d="M68 22.7736C76.1002 22.7736 82.6667 29.2612 82.6667 37.2642C82.6667 45.2671 76.1002 51.7547 68 51.7547C59.8998 51.7547 53.3333 45.2671 53.3333 37.2642C53.3333 34.1101 54.3533 31.1915 56.085 28.8125L50.1275 24.5867C47.5299 28.1551 46 32.5331 46 37.2642C46 49.2685 55.8497 59 68 59C80.1503 59 90 49.2685 90 37.2642C90 25.2598 80.1503 15.5283 68 15.5283V11L56.0833 19.1509L68 27.3019V22.7736Z" fill="url(#paint5_linear_1394_10686)"/>
<path d="M52 25.9141V52.1807C48.281 48.2881 46.0001 43.0399 46 37.2646C46 32.5336 47.5303 28.1553 50.1279 24.5869L52 25.9141Z" fill="url(#paint6_linear_1394_10686)"/>
<defs>
<linearGradient id="paint0_linear_1394_10686" x1="68.4381" y1="114.106" x2="98.635" y2="57.4032" gradientUnits="userSpaceOnUse">
<stop stop-color="#70B1FF"/>
<stop offset="1" stop-color="#005CCD"/>
</linearGradient>
<linearGradient id="paint1_linear_1394_10686" x1="30.88" y1="103.781" x2="91.8613" y2="52.3434" gradientUnits="userSpaceOnUse">
<stop stop-color="#70B1FF"/>
<stop offset="1" stop-color="#005CCD"/>
</linearGradient>
<linearGradient id="paint2_linear_1394_10686" x1="70.0419" y1="67.8973" x2="42.3944" y2="42.103" gradientUnits="userSpaceOnUse">
<stop stop-color="#295296"/>
<stop offset="1" stop-color="#3E78D3"/>
</linearGradient>
<linearGradient id="paint3_linear_1394_10686" x1="75.6844" y1="17.1135" x2="47.9368" y2="-16.2319" gradientUnits="userSpaceOnUse">
<stop stop-color="#295296"/>
<stop offset="1" stop-color="#3E78D3"/>
</linearGradient>
<linearGradient id="paint4_linear_1394_10686" x1="23.988" y1="90.9409" x2="73.5662" y2="57.1865" gradientUnits="userSpaceOnUse">
<stop stop-color="#295296"/>
<stop offset="1" stop-color="#3E78D3"/>
</linearGradient>
<linearGradient id="paint5_linear_1394_10686" x1="68" y1="83" x2="115.819" y2="39.166" gradientUnits="userSpaceOnUse">
<stop stop-color="#70B1FF"/>
<stop offset="1" stop-color="#005CCD"/>
</linearGradient>
<linearGradient id="paint6_linear_1394_10686" x1="60.2352" y1="43.8979" x2="38.2288" y2="38.1475" gradientUnits="userSpaceOnUse">
<stop stop-color="#295296"/>
<stop offset="1" stop-color="#3E78D3"/>
</linearGradient>
</defs>
</svg>
