<svg width="48" height="48" viewBox="0 0 48 48" fill="none" xmlns="http://www.w3.org/2000/svg">
<rect opacity="0.4" x="4" y="7.07715" width="36.9231" height="36.9231" rx="3.69231" fill="url(#paint0_linear_1394_10698)"/>
<rect opacity="0.4" x="25.5386" y="4" width="18.4615" height="18.4615" rx="2.46154" fill="url(#paint1_linear_1394_10698)"/>
<rect opacity="0.7" x="7.69189" y="10.7695" width="13.5385" height="13.5385" rx="1.84615" fill="url(#paint2_linear_1394_10698)"/>
<path d="M37.2305 7.07715C39.2696 7.07725 40.9229 8.73039 40.9229 10.7695V22.4619H28C26.6405 22.4619 25.5381 21.3595 25.5381 20V7.07715H37.2305Z" fill="url(#paint3_linear_1394_10698)"/>
<rect opacity="0.7" x="7.69189" y="26.7695" width="13.5385" height="13.5385" rx="1.84615" fill="url(#paint4_linear_1394_10698)"/>
<rect opacity="0.7" x="23.6924" y="26.7695" width="13.5385" height="13.5385" rx="1.84615" fill="url(#paint5_linear_1394_10698)"/>
<defs>
<linearGradient id="paint0_linear_1394_10698" x1="25.9573" y1="60.7139" x2="59.3846" y2="23.7908" gradientUnits="userSpaceOnUse">
<stop stop-color="#70B1FF"/>
<stop offset="1" stop-color="#005CCD"/>
</linearGradient>
<linearGradient id="paint1_linear_1394_10698" x1="36.5172" y1="30.8184" x2="53.2309" y2="12.3568" gradientUnits="userSpaceOnUse">
<stop stop-color="#70B1FF"/>
<stop offset="1" stop-color="#005CCD"/>
</linearGradient>
<linearGradient id="paint2_linear_1394_10698" x1="39.8123" y1="20.2442" x2="18.1092" y2="-5.83718" gradientUnits="userSpaceOnUse">
<stop stop-color="#295296"/>
<stop offset="1" stop-color="#3E78D3"/>
</linearGradient>
<linearGradient id="paint3_linear_1394_10698" x1="62.0389" y1="17.8439" x2="37.376" y2="-11.7943" gradientUnits="userSpaceOnUse">
<stop stop-color="#295296"/>
<stop offset="1" stop-color="#3E78D3"/>
</linearGradient>
<linearGradient id="paint4_linear_1394_10698" x1="39.8123" y1="36.2442" x2="18.1092" y2="10.1628" gradientUnits="userSpaceOnUse">
<stop stop-color="#295296"/>
<stop offset="1" stop-color="#3E78D3"/>
</linearGradient>
<linearGradient id="paint5_linear_1394_10698" x1="55.8127" y1="36.2442" x2="34.1097" y2="10.1628" gradientUnits="userSpaceOnUse">
<stop stop-color="#295296"/>
<stop offset="1" stop-color="#3E78D3"/>
</linearGradient>
</defs>
</svg>
