<svg width="48" height="48" viewBox="0 0 48 48" fill="none" xmlns="http://www.w3.org/2000/svg">
<path opacity="0.38" d="M29.5 3C30.3284 3 31 3.67157 31 4.5V7.54395C32.5524 7.94994 34.017 8.57301 35.3594 9.37891L37.6064 7.13281C38.1922 6.54703 39.1427 6.54703 39.7285 7.13281L43.2637 10.6689C43.8493 11.2547 43.8494 12.2043 43.2637 12.79L41.042 15.0107C41.8861 16.3883 42.5359 17.8974 42.9551 19.5H46.25C47.0784 19.5 47.75 20.1716 47.75 21V26C47.75 26.8284 47.0784 27.5 46.25 27.5H43.0781C42.6887 29.2027 42.0384 30.8055 41.1738 32.2666L43.4404 34.5332C44.0261 35.1189 44.0258 36.0685 43.4404 36.6543L39.9043 40.1904C39.3185 40.776 38.3689 40.7761 37.7832 40.1904L35.5781 37.9854C34.1765 38.8564 32.6374 39.5268 31 39.9551V43C31 43.8284 30.3284 44.5 29.5 44.5H24.5C23.6716 44.5 23 43.8284 23 43V40.0781C21.2108 39.6689 19.5307 38.9734 18.0107 38.042L16.04 40.0137C15.4543 40.5993 14.5047 40.5992 13.9189 40.0137L10.3828 36.4775C9.79748 35.8917 9.79726 34.9421 10.3828 34.3564L12.3789 32.3594C11.487 30.8738 10.8195 29.2384 10.4219 27.5H7.75C6.92157 27.5 6.25 26.8284 6.25 26V21C6.25 20.1716 6.92157 19.5 7.75 19.5H10.5449C10.9732 17.8625 11.6425 16.3226 12.5137 14.9209L10.5596 12.9668C9.97386 12.3811 9.97402 11.4315 10.5596 10.8457L14.0957 7.30957C14.6815 6.72415 15.6311 6.72391 16.2168 7.30957L18.2324 9.3252C19.6937 8.4605 21.2971 7.81036 23 7.4209V4.5C23 3.67157 23.6716 3 24.5 3H29.5Z" fill="url(#paint0_linear_1394_10707)"/>
<path d="M36.5 23.5L21.5 34V28.5H0V18.5H21.5V13L36.5 23.5Z" fill="url(#paint1_linear_1394_10707)"/>
<path d="M36.5 23.5L21.5 34V28.5H10.6865C10.5893 28.1705 10.4991 27.8376 10.4219 27.5H7.75C6.92157 27.5 6.25 26.8284 6.25 26V21C6.25 20.1716 6.92157 19.5 7.75 19.5H10.5449C10.6333 19.162 10.7352 18.8293 10.8438 18.5H21.5V13L36.5 23.5Z" fill="url(#paint2_linear_1394_10707)"/>
<defs>
<linearGradient id="paint0_linear_1394_10707" x1="-16.4107" y1="11.8838" x2="8.9999" y2="57.2053" gradientUnits="userSpaceOnUse">
<stop stop-color="#70B1FF"/>
<stop offset="1" stop-color="#005CCD"/>
</linearGradient>
<linearGradient id="paint1_linear_1394_10707" x1="27.4328" y1="38.0075" x2="27.4328" y2="18.6642" gradientUnits="userSpaceOnUse">
<stop stop-color="#A5C8F4"/>
<stop offset="1" stop-color="#8DB7E9"/>
</linearGradient>
<linearGradient id="paint2_linear_1394_10707" x1="21.5703" y1="52.9587" x2="49.0363" y2="13.3006" gradientUnits="userSpaceOnUse">
<stop stop-color="#295296"/>
<stop offset="1" stop-color="#3E78D3"/>
</linearGradient>
</defs>
</svg>
