<svg width="48" height="48" viewBox="0 0 48 48" fill="none" xmlns="http://www.w3.org/2000/svg">
<g clip-path="url(#clip0_1394_10738)">
<g opacity="0.55" style="mix-blend-mode:multiply">
<path fill-rule="evenodd" clip-rule="evenodd" d="M15.5 20.197C24.0604 20.197 31 27.1666 31 35.7641V38.9849H0V35.7641C0 27.1666 6.93959 20.197 15.5 20.197ZM15.5978 17.513C10.7617 17.513 6.84131 13.5926 6.84131 8.75649C6.84131 3.92042 10.7617 0 15.5978 0C20.4339 0 24.3543 3.92042 24.3543 8.75649C24.3543 13.5926 20.4339 17.513 15.5978 17.513Z" fill="url(#paint0_linear_1394_10738)"/>
</g>
<path opacity="0.6" fill-rule="evenodd" clip-rule="evenodd" d="M33.75 24.2264C38.9967 24.2264 43.25 28.4839 43.25 33.7358C43.25 38.9878 38.9967 43.2453 33.75 43.2453C28.5033 43.2453 24.25 38.9878 24.25 33.7358C24.25 31.666 24.9106 29.7506 26.0323 28.1895L22.1735 25.4163C20.4909 27.758 19.5 30.6311 19.5 33.7358C19.5 41.6137 25.8799 48 33.75 48C41.6201 48 48 41.6137 48 33.7358C48 25.858 41.6201 19.4717 33.75 19.4717V16.5L26.0312 21.8491L33.75 27.1981V24.2264Z" fill="url(#paint1_linear_1394_10738)"/>
<path d="M26.0322 28.1895C24.9107 29.7505 24.2501 31.6657 24.25 33.7354C24.25 35.6757 24.8314 37.48 25.8281 38.9844H20.4961C19.8535 37.3598 19.5 35.5888 19.5 33.7354C19.5001 30.6307 20.4913 27.7577 22.1738 25.416L26.0322 28.1895Z" fill="url(#paint2_linear_1394_10738)"/>
</g>
<defs>
<linearGradient id="paint0_linear_1394_10738" x1="13.4558" y1="-9.45096" x2="-17.3158" y2="13.8044" gradientUnits="userSpaceOnUse">
<stop stop-color="#70B1FF"/>
<stop offset="1" stop-color="#005CCD"/>
</linearGradient>
<linearGradient id="paint1_linear_1394_10738" x1="33.75" y1="63.75" x2="65.0929" y2="35.3921" gradientUnits="userSpaceOnUse">
<stop stop-color="#70B1FF"/>
<stop offset="1" stop-color="#005CCD"/>
</linearGradient>
<linearGradient id="paint2_linear_1394_10738" x1="19.4121" y1="32.0436" x2="23.3675" y2="34.022" gradientUnits="userSpaceOnUse">
<stop stop-color="#295296"/>
<stop offset="1" stop-color="#3E78D3"/>
</linearGradient>
<clipPath id="clip0_1394_10738">
<rect width="48" height="48" fill="white"/>
</clipPath>
</defs>
</svg>
