<svg width="48" height="48" viewBox="0 0 48 48" fill="none" xmlns="http://www.w3.org/2000/svg">
<g clip-path="url(#clip0_1394_10748)">
<path opacity="0.35" fill-rule="evenodd" clip-rule="evenodd" d="M19.446 48.0003L7.60622 38.3804C4.7356 36.0481 3.06885 32.5463 3.06885 28.8476V8.59277H35.8231V28.8476C35.8231 32.5463 34.1564 36.0481 31.2857 38.3804L19.446 48.0003Z" fill="url(#paint0_linear_1394_10748)"/>
<path opacity="0.45" fill-rule="evenodd" clip-rule="evenodd" d="M19.446 48.0003V8.59277H35.8232V28.8476C35.8232 32.5463 34.1564 36.0481 31.2858 38.3804L19.446 48.0003Z" fill="url(#paint1_linear_1394_10748)"/>
<path opacity="0.6" fill-rule="evenodd" clip-rule="evenodd" d="M34.1661 5.66417C38.0025 5.66417 41.1126 8.78533 41.1126 12.6355C41.1126 16.4856 38.0025 19.6068 34.1661 19.6068C30.3296 19.6068 27.2196 16.4856 27.2196 12.6355C27.2196 11.1181 27.7026 9.71394 28.5229 8.56946L25.7012 6.53645C24.4709 8.25318 23.7463 10.3594 23.7463 12.6355C23.7463 18.4107 28.4114 23.0924 34.1661 23.0924C39.9207 23.0924 44.5858 18.4107 44.5858 12.6355C44.5858 6.86026 39.9207 2.17853 34.1661 2.17853V0L28.5221 3.92135L34.1661 7.8427V5.66417Z" fill="url(#paint2_linear_1394_10748)"/>
<path d="M28.5065 8.59277C27.6961 9.73309 27.2194 11.1284 27.2194 12.6357C27.2194 16.4858 30.3292 19.6064 34.1656 19.6064C34.7366 19.6064 35.291 19.5357 35.8219 19.4053V22.959C35.2824 23.0455 34.7294 23.0928 34.1656 23.0928C28.411 23.0928 23.7458 18.4109 23.7457 12.6357C23.7457 11.2023 24.0342 9.83661 24.5543 8.59277H28.5065Z" fill="url(#paint3_linear_1394_10748)"/>
</g>
<defs>
<linearGradient id="paint0_linear_1394_10748" x1="-16.2538" y1="60.7609" x2="30.821" y2="70.9993" gradientUnits="userSpaceOnUse">
<stop stop-color="#70B1FF"/>
<stop offset="1" stop-color="#005CCD"/>
</linearGradient>
<linearGradient id="paint1_linear_1394_10748" x1="9.78471" y1="60.7609" x2="34.1474" y2="63.4103" gradientUnits="userSpaceOnUse">
<stop stop-color="#70B1FF"/>
<stop offset="1" stop-color="#005CCD"/>
</linearGradient>
<linearGradient id="paint2_linear_1394_10748" x1="34.1661" y1="34.6386" x2="57.1373" y2="13.9084" gradientUnits="userSpaceOnUse">
<stop stop-color="#70B1FF"/>
<stop offset="1" stop-color="#005CCD"/>
</linearGradient>
<linearGradient id="paint3_linear_1394_10748" x1="23.5832" y1="15.6753" x2="28.811" y2="20.1987" gradientUnits="userSpaceOnUse">
<stop stop-color="#295296"/>
<stop offset="1" stop-color="#3E78D3"/>
</linearGradient>
<clipPath id="clip0_1394_10748">
<rect width="48" height="48" fill="white"/>
</clipPath>
</defs>
</svg>
