<svg width="48" height="48" viewBox="0 0 48 48" fill="none" xmlns="http://www.w3.org/2000/svg">
<g clip-path="url(#clip0_1394_10755)">
<g opacity="0.55" style="mix-blend-mode:multiply">
<path d="M36.5 11.5H19V29H36.5V11.5Z" fill="url(#paint0_linear_1394_10755)"/>
</g>
<g opacity="0.55" style="mix-blend-mode:multiply">
<path fill-rule="evenodd" clip-rule="evenodd" d="M46.0417 19C45.782 19 45.5329 18.8946 45.3493 18.7071C45.1657 18.5196 45.0625 18.2652 45.0625 18V12C45.0627 10.0046 44.4135 8.06573 43.2171 6.48817C42.0207 4.91062 40.3449 3.78385 38.4531 3.285V2.25C38.4531 1.65326 38.221 1.08097 37.8078 0.65901C37.3947 0.237053 36.8343 0 36.25 0C35.6657 0 35.1053 0.237053 34.6922 0.65901C34.279 1.08097 34.0469 1.65326 34.0469 2.25V3.285C32.1551 3.78385 30.4793 4.91062 29.2829 6.48817C28.0865 8.06573 27.4373 10.0046 27.4375 12V18C27.4375 18.2652 27.3343 18.5196 27.1507 18.7071C26.9671 18.8946 26.718 19 26.4583 19C25.939 19 25.4408 19.2107 25.0736 19.5858C24.7063 19.9609 24.5 20.4696 24.5 21C24.5 21.5304 24.7063 22.0391 25.0736 22.4142C25.4408 22.7893 25.939 23 26.4583 23H32.8229C32.8229 23.9283 33.184 24.8185 33.8267 25.4749C34.4694 26.1312 35.3411 26.5 36.25 26.5C37.1589 26.5 38.0306 26.1312 38.6733 25.4749C39.316 24.8185 39.6771 23.9283 39.6771 23H46.0417C46.561 23 47.0592 22.7893 47.4264 22.4142C47.7937 22.0391 48 21.5304 48 21C48 20.4696 47.7937 19.9609 47.4264 19.5858C47.0592 19.2107 46.561 19 46.0417 19Z" fill="url(#paint1_linear_1394_10755)"/>
</g>
<g opacity="0.55" style="mix-blend-mode:multiply">
<path d="M17.5 11.5H0V29H17.5V11.5Z" fill="url(#paint2_linear_1394_10755)"/>
</g>
<g opacity="0.55" style="mix-blend-mode:multiply">
<path d="M17.5 30.5H0V48H17.5V30.5Z" fill="url(#paint3_linear_1394_10755)"/>
</g>
<g opacity="0.55" style="mix-blend-mode:multiply">
<path d="M36.5 30.5H19V48H36.5V30.5Z" fill="url(#paint4_linear_1394_10755)"/>
</g>
<path d="M36.5 26.4893C36.417 26.4955 36.3337 26.5 36.25 26.5C35.3411 26.5 34.4698 26.1309 33.8271 25.4746C33.1844 24.8182 32.8232 23.9283 32.8232 23H26.458C25.9387 22.9999 25.4404 22.7891 25.0732 22.4141C24.7061 22.039 24.5 21.5303 24.5 21C24.5 20.4697 24.7061 19.961 25.0732 19.5859C25.3946 19.2578 25.8164 19.0553 26.2646 19.0098L26.5547 18.9951C26.7789 18.9725 26.9896 18.8712 27.1504 18.707C27.334 18.5195 27.4375 18.2652 27.4375 18V12C27.4375 11.8328 27.4441 11.6662 27.4531 11.5H36.5V26.4893Z" fill="url(#paint5_linear_1394_10755)"/>
</g>
<defs>
<linearGradient id="paint0_linear_1394_10755" x1="26.596" y1="7.25754" x2="12.2562" y2="20.8861" gradientUnits="userSpaceOnUse">
<stop stop-color="#70B1FF"/>
<stop offset="1" stop-color="#005CCD"/>
</linearGradient>
<linearGradient id="paint1_linear_1394_10755" x1="41.6791" y1="10.8551" x2="31.4964" y2="19.4388" gradientUnits="userSpaceOnUse">
<stop stop-color="#70B1FF"/>
<stop offset="1" stop-color="#005CCD"/>
</linearGradient>
<linearGradient id="paint2_linear_1394_10755" x1="7.59603" y1="7.25754" x2="-6.7438" y2="20.8861" gradientUnits="userSpaceOnUse">
<stop stop-color="#70B1FF"/>
<stop offset="1" stop-color="#005CCD"/>
</linearGradient>
<linearGradient id="paint3_linear_1394_10755" x1="7.59603" y1="26.2575" x2="-6.7438" y2="39.8861" gradientUnits="userSpaceOnUse">
<stop stop-color="#70B1FF"/>
<stop offset="1" stop-color="#005CCD"/>
</linearGradient>
<linearGradient id="paint4_linear_1394_10755" x1="26.596" y1="26.2575" x2="12.2562" y2="39.8861" gradientUnits="userSpaceOnUse">
<stop stop-color="#70B1FF"/>
<stop offset="1" stop-color="#005CCD"/>
</linearGradient>
<linearGradient id="paint5_linear_1394_10755" x1="24.3385" y1="18.8268" x2="29.7111" y2="23.2921" gradientUnits="userSpaceOnUse">
<stop stop-color="#295296"/>
<stop offset="1" stop-color="#3E78D3"/>
</linearGradient>
<clipPath id="clip0_1394_10755">
<rect width="48" height="48" fill="white"/>
</clipPath>
</defs>
</svg>
