<svg width="48" height="48" viewBox="0 0 48 48" fill="none" xmlns="http://www.w3.org/2000/svg">
<g clip-path="url(#clip0_1394_10824)">
<path opacity="0.5" d="M22.5781 3.51667C23.3473 2.18061 25.2755 2.18067 26.0448 3.51667L33.2333 16.002C34.001 17.3354 33.0385 19.0001 31.4999 19.0001H17.123C15.5845 19 14.6219 17.3353 15.3896 16.002L22.5781 3.51667ZM24.3124 14.7032C23.6591 14.7033 23.1298 15.2334 23.1298 15.8868C23.1298 16.5401 23.6591 17.0693 24.3124 17.0694C24.9658 17.0694 25.496 16.5402 25.496 15.8868C25.496 15.2334 24.9658 14.7032 24.3124 14.7032ZM24.3124 6.12604C23.6696 6.12616 23.1589 6.66577 23.1933 7.30769L23.4843 12.7354C23.508 13.1756 23.8716 13.5205 24.3124 13.5206C24.7534 13.5206 25.1178 13.1757 25.1415 12.7354L25.4325 7.30769C25.467 6.66571 24.9553 6.12604 24.3124 6.12604Z" fill="url(#paint0_linear_1394_10824)"/>
<path opacity="0.5" fill-rule="evenodd" clip-rule="evenodd" d="M27.892 27.0316L25.7688 24.9084L23.8068 29.2622L21.224 30.0599L13.0298 38.2541C11.0197 40.2642 10.413 42.9167 12.4232 44.9269C14.4333 46.937 17.0858 46.3304 19.096 44.3202L27.2888 36.1274L28.0425 33.4011L32.4416 31.5813L30.3184 29.4581L42.1475 17.629L44.2707 14.2926L43.0574 13.0794L39.721 15.2026L27.892 27.0316Z" fill="url(#paint1_linear_1394_10824)"/>
<path opacity="0.55" d="M10.6816 12.501C14.324 12.6674 17.2264 15.673 17.2266 19.3564C17.2266 19.9712 17.1458 20.5678 16.9941 21.1348L36.3438 40.4844C37.6837 41.8244 37.6836 43.9968 36.3438 45.3369C35.0036 46.677 32.8303 46.677 31.4902 45.3369L12.1406 25.9873C11.5737 26.1389 10.978 26.2197 10.3633 26.2197C6.57289 26.2197 3.5 23.1468 3.5 19.3564C3.50009 17.6594 4.11608 16.1061 5.13672 14.9082L8.62109 20.9424L12.5078 21.6699L13.8213 17.9395L10.6816 12.501ZM33.9551 41.6621C33.2446 41.6622 32.6692 42.2378 32.6689 42.9482C32.6689 43.6589 33.2445 44.2352 33.9551 44.2354C34.6658 44.2354 35.2422 43.6589 35.2422 42.9482C35.2419 42.2378 34.6656 41.6621 33.9551 41.6621Z" fill="url(#paint2_linear_1394_10824)"/>
<path fill-rule="evenodd" clip-rule="evenodd" d="M42.1479 17.6289L44.271 14.2925L43.0578 13.0793L39.7214 15.2024L42.1479 17.6289Z" fill="url(#paint3_linear_1394_10824)"/>
<path d="M28.9023 33.0449L28.042 33.4014L27.2881 36.1279L24.7832 38.6318L18.7178 32.5654L21.2236 30.0596L23.8066 29.2627L24.2139 28.3564L28.9023 33.0449Z" fill="url(#paint4_linear_1394_10824)"/>
</g>
<defs>
<linearGradient id="paint0_linear_1394_10824" x1="15.4532" y1="-4.60456" x2="4.22976" y2="16.422" gradientUnits="userSpaceOnUse">
<stop stop-color="#70B1FF"/>
<stop offset="1" stop-color="#005CCD"/>
</linearGradient>
<linearGradient id="paint1_linear_1394_10824" x1="11.43" y1="52.488" x2="46.948" y2="16.97" gradientUnits="userSpaceOnUse">
<stop stop-color="#70B1FF"/>
<stop offset="1" stop-color="#005CCD"/>
</linearGradient>
<linearGradient id="paint2_linear_1394_10824" x1="56.4083" y1="28.7516" x2="14.8026" y2="1.56485" gradientUnits="userSpaceOnUse">
<stop stop-color="#70B1FF"/>
<stop offset="1" stop-color="#005CCD"/>
</linearGradient>
<linearGradient id="paint3_linear_1394_10824" x1="40.8671" y1="12.9026" x2="40.4429" y2="17.4706" gradientUnits="userSpaceOnUse">
<stop stop-color="#5B92E5"/>
<stop offset="1" stop-color="#457BD3"/>
</linearGradient>
<linearGradient id="paint4_linear_1394_10824" x1="18.2242" y1="48.8002" x2="30.1693" y2="34.4231" gradientUnits="userSpaceOnUse">
<stop stop-color="#295296"/>
<stop offset="1" stop-color="#3E78D3"/>
</linearGradient>
<clipPath id="clip0_1394_10824">
<rect width="48" height="48" fill="white"/>
</clipPath>
</defs>
</svg>
