<svg width="48" height="48" viewBox="0 0 48 48" fill="none" xmlns="http://www.w3.org/2000/svg">
<path opacity="0.5" d="M12.9218 4.50184C13.6911 3.16605 15.6183 3.16606 16.3876 4.50184L24.8847 19.2587C25.6524 20.592 24.6898 22.2567 23.1513 22.2567H6.15813C4.61962 22.2567 3.65706 20.592 4.42473 19.2587L12.9218 4.50184ZM14.6562 17.4325C13.9225 17.4325 13.3281 18.0279 13.3281 18.7616C13.3283 19.495 13.9227 20.0897 14.6562 20.0897C15.3897 20.0897 15.984 19.4951 15.9843 18.7616C15.9843 18.0279 15.3898 17.4325 14.6562 17.4325ZM14.6562 7.80164C13.9344 7.80165 13.3609 8.40713 13.3993 9.12781L13.7255 15.2225C13.752 15.717 14.161 16.1044 14.6562 16.1044C15.1514 16.1044 15.5603 15.717 15.5868 15.2225L15.913 9.12781C15.9515 8.40712 15.3779 7.80164 14.6562 7.80164Z" fill="url(#paint0_linear_1394_10839)"/>
<path opacity="0.55" fill-rule="evenodd" clip-rule="evenodd" d="M24.6008 43.5C24.6008 43.5 13 41.196 13 29.9485C13 20.8473 24.901 16.7934 27.501 7.5C37.0163 14.7271 34.0265 26.22 34.0265 26.22C34.0265 26.22 36.9503 22.2383 37.6517 18.3C40.2713 20.7418 47.6325 35.7398 34.0265 43.5C26.0718 38.8076 25.4381 33.5275 24.4365 29.413C21.8013 35.2724 24.6008 43.5 24.6008 43.5Z" fill="url(#paint1_linear_1394_10839)"/>
<path d="M24.8849 19.2588C25.6526 20.5921 24.69 22.2568 23.1515 22.2568H16.0997C17.987 19.9025 20.446 17.7393 22.6417 15.3652L24.8849 19.2588Z" fill="url(#paint2_linear_1394_10839)"/>
<defs>
<linearGradient id="paint0_linear_1394_10839" x1="4.53577" y1="-4.60004" x2="-8.20557" y2="19.3656" gradientUnits="userSpaceOnUse">
<stop stop-color="#70B1FF"/>
<stop offset="1" stop-color="#005CCD"/>
</linearGradient>
<linearGradient id="paint1_linear_1394_10839" x1="40.9147" y1="-0.401398" x2="7.55627" y2="7.17538" gradientUnits="userSpaceOnUse">
<stop stop-color="#72B2FF"/>
<stop offset="1" stop-color="#005CCD"/>
</linearGradient>
<linearGradient id="paint2_linear_1394_10839" x1="15.6609" y1="29.0767" x2="22.9952" y2="17.3747" gradientUnits="userSpaceOnUse">
<stop stop-color="#295296"/>
<stop offset="1" stop-color="#3E78D3"/>
</linearGradient>
</defs>
</svg>
