<svg width="48" height="48" viewBox="0 0 48 48" fill="none" xmlns="http://www.w3.org/2000/svg">
<path opacity="0.7" d="M17.5804 28C17.8112 28 18 27.7885 18 27.5299V17.4701C18 17.2115 17.8112 17 17.5804 17H15.4196C15.1888 17 15 17.2115 15 17.4701V27.5299C15 27.7885 15.1888 28 15.4196 28H17.5804Z" fill="url(#paint0_linear_1394_10875)"/>
<path opacity="0.7" d="M30.8134 17.2346H26.1069L26.8129 13.4063C26.907 12.8958 26.6717 12.4086 26.201 12.1533C25.7303 11.8981 25.1891 11.9677 24.789 12.3158L19.5883 16.979C19.2118 17.3038 19 17.791 19 18.2783V25.7958C19 27.0255 20.0119 28 21.2356 28H28.013C28.8602 28 29.6368 27.4896 29.9427 26.7239L32.8372 20.2041C33.1196 19.5312 33.0255 18.7887 32.6254 18.1855C32.2254 17.5822 31.5429 17.2342 30.8134 17.2342V17.2346Z" fill="url(#paint1_linear_1394_10875)"/>
<path opacity="0.4" d="M37.5 6C41.0899 6 44 8.91015 44 12.5V28.5C44 32.0899 41.0899 35 37.5 35H20.8184L13.5137 41.6963C12.5516 42.578 11 41.8949 11 40.5898V35H10.5C6.91015 35 4 32.0899 4 28.5V12.5C4 8.91015 6.91015 6 10.5 6H37.5Z" fill="url(#paint2_linear_1394_10875)"/>
<defs>
<linearGradient id="paint0_linear_1394_10875" x1="11.9515" y1="19.8831" x2="19.699" y2="22.1228" gradientUnits="userSpaceOnUse">
<stop stop-color="#70B1FF" stop-opacity="0.7"/>
<stop offset="1" stop-color="#005CCD"/>
</linearGradient>
<linearGradient id="paint1_linear_1394_10875" x1="4.77368" y1="16.1936" x2="25.8341" y2="35.7264" gradientUnits="userSpaceOnUse">
<stop stop-color="#70B1FF" stop-opacity="0.7"/>
<stop offset="1" stop-color="#005CCD"/>
</linearGradient>
<linearGradient id="paint2_linear_1394_10875" x1="17" y1="27.5" x2="6.04151" y2="39.4547" gradientUnits="userSpaceOnUse">
<stop stop-color="#70B1FF"/>
<stop offset="1" stop-color="#005CCD"/>
</linearGradient>
</defs>
</svg>
