<svg width="96" height="96" viewBox="0 0 96 96" fill="none" xmlns="http://www.w3.org/2000/svg">
<path opacity="0.4" d="M78.7314 10C86.6116 10 93 16.3884 93 24.2686V54.7314C93 62.6116 86.6116 69 78.7314 69H43.1787L26.6631 86.127C24.6068 88.2594 21 86.8042 21 83.8418V69H17.2686C9.38837 69 3 62.6116 3 54.7314V24.2686C3 16.3884 9.38837 10 17.2686 10H78.7314Z" fill="url(#paint0_linear_1394_10881)"/>
<path d="M26.8776 31.3803L28.9365 35.5084L33.5404 36.1702C34.4526 36.3017 34.817 37.4107 34.1569 38.0476L30.8255 41.2608L31.612 45.7977C31.7677 46.6969 30.8144 47.3826 29.998 46.958L25.8802 44.816L21.7623 46.958C20.9465 47.3826 19.9926 46.6969 20.1484 45.7977L20.9348 41.2608L17.604 38.0476C16.9439 37.4107 17.3083 36.3017 18.2205 36.1702L22.8244 35.5084L24.8827 31.3803C25.2906 30.562 26.4697 30.562 26.8776 31.3803Z" fill="url(#paint1_linear_1394_10881)"/>
<path d="M49.5449 31.3803L51.6039 35.5084L56.2077 36.1702C57.1199 36.3017 57.4844 37.4107 56.8243 38.0476L53.4929 41.2608L54.2793 45.7977C54.4351 46.6969 53.4817 47.3826 52.6653 46.958L48.5475 44.816L44.4297 46.958C43.6139 47.3826 42.66 46.6969 42.8157 45.7977L43.6021 41.2608L40.2713 38.0476C39.6113 37.4107 39.9757 36.3017 40.8879 36.1702L45.4918 35.5084L47.5501 31.3803C47.958 30.562 49.137 30.562 49.5449 31.3803Z" fill="url(#paint2_linear_1394_10881)"/>
<path d="M72.2132 31.3803L74.2721 35.5084L78.876 36.1702C79.7882 36.3017 80.1526 37.4107 79.4925 38.0476L76.1611 41.2608L76.9475 45.7977C77.1033 46.6969 76.1499 47.3826 75.3336 46.958L71.2157 44.816L67.0979 46.958C66.2821 47.3826 65.3282 46.6969 65.4839 45.7977L66.2704 41.2608L62.9395 38.0476C62.2795 37.4107 62.6439 36.3017 63.5561 36.1702L68.16 35.5084L70.2183 31.3803C70.6262 30.562 71.8053 30.562 72.2132 31.3803Z" fill="url(#paint3_linear_1394_10881)"/>
<defs>
<linearGradient id="paint0_linear_1394_10881" x1="34.5" y1="49.9999" x2="6.51861" y2="76.982" gradientUnits="userSpaceOnUse">
<stop stop-color="#70B1FF"/>
<stop offset="1" stop-color="#005CCD"/>
</linearGradient>
<linearGradient id="paint1_linear_1394_10881" x1="-0.238499" y1="35.0442" x2="21.1693" y2="58.9962" gradientUnits="userSpaceOnUse">
<stop stop-color="#70B1FF" stop-opacity="0.7"/>
<stop offset="1" stop-color="#005CCD"/>
</linearGradient>
<linearGradient id="paint2_linear_1394_10881" x1="22.4289" y1="35.0442" x2="43.8367" y2="58.9962" gradientUnits="userSpaceOnUse">
<stop stop-color="#70B1FF" stop-opacity="0.7"/>
<stop offset="1" stop-color="#005CCD"/>
</linearGradient>
<linearGradient id="paint3_linear_1394_10881" x1="45.0971" y1="35.0442" x2="66.5049" y2="58.9962" gradientUnits="userSpaceOnUse">
<stop stop-color="#70B1FF" stop-opacity="0.7"/>
<stop offset="1" stop-color="#005CCD"/>
</linearGradient>
</defs>
</svg>
