<svg width="48" height="48" viewBox="0 0 48 48" fill="none" xmlns="http://www.w3.org/2000/svg">
<rect opacity="0.4" x="2" y="11.625" width="44" height="33" fill="url(#paint0_linear_1394_10888)"/>
<path opacity="0.35" fill-rule="evenodd" clip-rule="evenodd" d="M2 11.625H46V24C46 27.0376 43.5376 29.5 40.5 29.5H7.5C4.46243 29.5 2 27.0376 2 24V11.625Z" fill="url(#paint1_linear_1394_10888)"/>
<rect x="19.875" y="26.0625" width="8.25" height="8.25" fill="url(#paint2_linear_1394_10888)"/>
<path opacity="0.45" d="M17.125 15.75V9.5625C17.125 8.42341 18.0484 7.5 19.1875 7.5H28.8125C29.9516 7.5 30.875 8.42341 30.875 9.5625V15.75H35V9.5625C35 6.14524 32.2298 3.375 28.8125 3.375H19.1875C15.7702 3.375 13 6.14524 13 9.5625V15.75H17.125Z" fill="url(#paint3_linear_1394_10888)"/>
<rect x="30.875" y="11.625" width="4.125" height="4.125" fill="#548AE3"/>
<rect x="13" y="11.625" width="4.125" height="4.125" fill="#568AE3"/>
<defs>
<linearGradient id="paint0_linear_1394_10888" x1="24" y1="-4.875" x2="-7.68" y2="37.365" gradientUnits="userSpaceOnUse">
<stop stop-color="#70B1FF"/>
<stop offset="1" stop-color="#005CCD"/>
</linearGradient>
<linearGradient id="paint1_linear_1394_10888" x1="46" y1="20.5625" x2="2" y2="20.5625" gradientUnits="userSpaceOnUse">
<stop stop-color="#70B1FF"/>
<stop offset="1" stop-color="#005CCD"/>
</linearGradient>
<linearGradient id="paint2_linear_1394_10888" x1="13.3934" y1="28.7692" x2="22.9614" y2="39.0965" gradientUnits="userSpaceOnUse">
<stop stop-color="#295296"/>
<stop offset="1" stop-color="#3E78D3"/>
</linearGradient>
<linearGradient id="paint3_linear_1394_10888" x1="-9.81789" y1="6.16327" x2="3.56265" y2="32.019" gradientUnits="userSpaceOnUse">
<stop stop-color="#70B1FF"/>
<stop offset="1" stop-color="#005CCD"/>
</linearGradient>
</defs>
</svg>
