<svg width="48" height="48" viewBox="0 0 48 48" fill="none" xmlns="http://www.w3.org/2000/svg">
<g clip-path="url(#clip0_1394_10895)">
<path opacity="0.6" d="M18.5986 7.76367C16.3533 8.21512 14.2638 9.09436 12.4189 10.3115C12.9816 10.9306 13.3242 11.7517 13.3242 12.6523C13.3241 14.5794 11.755 16.1416 9.81934 16.1416C8.91457 16.1416 8.08956 15.8006 7.46777 15.2402C6.24532 17.0769 5.36261 19.1573 4.90918 21.3926C6.68192 21.5661 8.06738 23.0547 8.06738 24.8652C8.06735 26.6757 6.6819 28.1644 4.90918 28.3379C5.36263 30.5732 6.24531 32.6536 7.46777 34.4902C8.08957 33.9298 8.91454 33.5889 9.81934 33.5889C11.755 33.5889 13.3242 35.151 13.3242 37.0781C13.3242 37.9788 12.9817 38.7999 12.4189 39.4189C14.4985 40.7909 16.889 41.7335 19.4629 42.1182C19.5641 40.2813 21.0927 38.8232 22.9629 38.8232C24.7143 38.8233 26.1655 40.1023 26.4258 41.7734C28.3488 41.2857 30.1453 40.4809 31.7549 39.4189C31.192 38.7999 30.8486 37.979 30.8486 37.0781C30.8486 35.151 32.4178 33.5889 34.3535 33.5889C35.2583 33.5889 36.0833 33.9298 36.7051 34.4902C37.9275 32.6536 38.8102 30.5732 39.2637 28.3379C37.491 28.1644 36.1055 26.6757 36.1055 24.8652C36.1055 23.0547 37.4909 21.5661 39.2637 21.3926C38.8102 19.1573 37.9275 17.0769 36.7051 15.2402C36.0833 15.8006 35.2583 16.1416 34.3535 16.1416C32.4179 16.1416 30.8487 14.5794 30.8486 12.6523C30.8486 11.7515 31.192 10.9306 31.7549 10.3115C29.91 9.09431 27.8196 8.21513 25.5742 7.76367C25.3999 9.52844 23.9053 10.907 22.0869 10.9072C20.2684 10.9072 18.7729 9.52859 18.5986 7.76367ZM22.0869 16.5352C26.7292 16.5352 30.492 20.2982 30.4922 24.9404C30.4922 29.5828 26.7293 33.3466 22.0869 33.3467C17.4445 33.3467 13.6807 29.5829 13.6807 24.9404C13.6809 20.2982 17.4446 16.5352 22.0869 16.5352Z" fill="url(#paint0_linear_1394_10895)"/>
<path opacity="0.6" d="M44.6885 16.2666L42.0537 13.6318L24.0215 31.665L18.624 26.2676L3.7793 41.1123L0 37.333L18.624 18.71L24.0215 24.1074L38.2754 9.85352L35.6416 7.21973L48 3.9082L44.6885 16.2666Z" fill="url(#paint1_linear_1394_10895)"/>
<path d="M13.8008 23.5322C13.7235 23.9902 13.6807 24.4604 13.6807 24.9404C13.6807 26.7156 14.2326 28.3618 15.1719 29.7188L11.0713 33.8193C10.6825 33.6713 10.2604 33.5889 9.81934 33.5889C8.9147 33.589 8.08948 33.9299 7.46777 34.4902C6.83811 33.5441 6.29943 32.533 5.8623 31.4697L13.8008 23.5322ZM36.7051 15.2402C37.2114 16.001 37.6586 16.8045 38.042 17.6426L30.4854 25.2002C30.488 25.114 30.4922 25.0272 30.4922 24.9404C30.492 22.8996 29.7643 21.0292 28.5547 19.5732L32.5088 15.6191C33.0447 15.9502 33.6765 16.1415 34.3535 16.1416C35.2583 16.1416 36.0833 15.8006 36.7051 15.2402Z" fill="#3261AE"/>
</g>
<defs>
<linearGradient id="paint0_linear_1394_10895" x1="-16.7449" y1="-20.86" x2="52.8108" y2="-5.77607" gradientUnits="userSpaceOnUse">
<stop stop-color="#70B1FF"/>
<stop offset="1" stop-color="#005CCD"/>
</linearGradient>
<linearGradient id="paint1_linear_1394_10895" x1="75.644" y1="-24.1631" x2="-15.441" y2="1.57571" gradientUnits="userSpaceOnUse">
<stop stop-color="#70B1FF"/>
<stop offset="1" stop-color="#005CCD"/>
</linearGradient>
<clipPath id="clip0_1394_10895">
<rect width="48" height="48" fill="white"/>
</clipPath>
</defs>
</svg>
