<svg width="48" height="48" viewBox="0 0 48 48" fill="none" xmlns="http://www.w3.org/2000/svg">
<g clip-path="url(#clip0_1394_10909)">
<path opacity="0.45" fill-rule="evenodd" clip-rule="evenodd" d="M23 0H48V17.3575C48 20.0262 46.6692 22.5192 44.4519 24.0043L35.5 30L26.5481 24.0043C24.3308 22.5192 23 20.0262 23 17.3575V0Z" fill="url(#paint0_linear_1394_10909)"/>
<path opacity="0.42" fill-rule="evenodd" clip-rule="evenodd" d="M16.75 48C26.0008 48 33.5 40.5008 33.5 31.25C33.5 21.9992 26.0008 14.5 16.75 14.5C7.49923 14.5 0 21.9992 0 31.25C0 40.5008 7.49923 48 16.75 48Z" fill="url(#paint1_linear_1394_10909)"/>
<path fill-rule="evenodd" clip-rule="evenodd" d="M35.5 0H48V17.3575C48 20.0262 46.6692 22.5192 44.4519 24.0043L35.5 30V0Z" fill="url(#paint2_linear_1394_10909)"/>
<path opacity="0.3" d="M23 15.7051C28.339 17.8538 32.3149 22.6728 33.2754 28.5088L26.5479 24.0039C24.3305 22.5188 23 20.0252 23 17.3564V15.7051Z" fill="#3567B7"/>
<path fill-rule="evenodd" clip-rule="evenodd" d="M4.90586 19.3398C-1.63529 25.8844 -1.63529 36.4955 4.90586 43.0407C11.447 49.5853 22.0525 49.5853 28.5941 43.0407C31.869 39.7635 33.5035 35.4678 33.4997 31.1732H16.733L4.90586 19.3398Z" fill="url(#paint3_linear_1394_10909)"/>
<path fill-rule="evenodd" clip-rule="evenodd" d="M8.34463 22.7988C3.70218 27.4437 3.70218 34.9739 8.34463 39.6188C12.9871 44.2631 20.5132 44.2631 25.1557 39.6188L8.34463 22.7988Z" fill="url(#paint4_linear_1394_10909)"/>
<path opacity="0.8" fill-rule="evenodd" clip-rule="evenodd" d="M8.13548 40.8208C9.19271 40.8208 10.0498 39.9637 10.0498 38.9065C10.0498 37.8492 9.19271 36.9922 8.13548 36.9922C7.07825 36.9922 6.22119 37.8492 6.22119 38.9065C6.22119 39.9637 7.07825 40.8208 8.13548 40.8208Z" fill="url(#paint5_linear_1394_10909)"/>
<path fill-rule="evenodd" clip-rule="evenodd" d="M16.7498 34.1218C18.3357 34.1218 19.6213 32.8362 19.6213 31.2503C19.6213 29.6645 18.3357 28.3789 16.7498 28.3789C15.164 28.3789 13.8784 29.6645 13.8784 31.2503C13.8784 32.8362 15.164 34.1218 16.7498 34.1218Z" fill="url(#paint6_linear_1394_10909)"/>
</g>
<defs>
<linearGradient id="paint0_linear_1394_10909" x1="8.25179" y1="38.8001" x2="43.8207" y2="47.362" gradientUnits="userSpaceOnUse">
<stop stop-color="#70B1FF"/>
<stop offset="1" stop-color="#005CCD"/>
</linearGradient>
<linearGradient id="paint1_linear_1394_10909" x1="14.9798" y1="8.05066" x2="-6.39984" y2="33.7519" gradientUnits="userSpaceOnUse">
<stop stop-color="#70B1FF"/>
<stop offset="1" stop-color="#005CCD"/>
</linearGradient>
<linearGradient id="paint2_linear_1394_10909" x1="53.5" y1="24.5" x2="28.2823" y2="19.4862" gradientUnits="userSpaceOnUse">
<stop stop-color="#70B1FF" stop-opacity="0.01"/>
<stop offset="1" stop-color="#4378D7"/>
</linearGradient>
<linearGradient id="paint3_linear_1394_10909" x1="23.4454" y1="26.3409" x2="13.8775" y2="12.8672" gradientUnits="userSpaceOnUse">
<stop stop-color="#70B1FF" stop-opacity="0.01"/>
<stop offset="1" stop-color="#6093E1"/>
</linearGradient>
<linearGradient id="paint4_linear_1394_10909" x1="21.0039" y1="27.0244" x2="12.5525" y2="18.9196" gradientUnits="userSpaceOnUse">
<stop stop-color="#70B1FF" stop-opacity="0.01"/>
<stop offset="1" stop-color="#4378D7"/>
</linearGradient>
<linearGradient id="paint5_linear_1394_10909" x1="4.75947" y1="38.0743" x2="6.92361" y2="40.9977" gradientUnits="userSpaceOnUse">
<stop stop-color="#70B1FF"/>
<stop offset="1" stop-color="#005CCD"/>
</linearGradient>
<linearGradient id="paint6_linear_1394_10909" x1="16.7869" y1="39.3064" x2="24.8105" y2="31.2637" gradientUnits="userSpaceOnUse">
<stop stop-color="#295296"/>
<stop offset="1" stop-color="#3E78D3"/>
</linearGradient>
<clipPath id="clip0_1394_10909">
<rect width="48" height="48" fill="white"/>
</clipPath>
</defs>
</svg>
