<svg width="96" height="96" viewBox="0 0 96 96" fill="none" xmlns="http://www.w3.org/2000/svg">
<path d="M65.7277 83.9783L48.0004 92.3996L30.2731 83.9783C19.6589 78.9382 12.9004 68.2518 12.9004 56.5184V9.0778L48.0004 3.59961L83.1004 9.0778V56.5184C83.1004 68.2518 76.3388 78.9382 65.7277 83.9783Z" fill="url(#paint0_linear_1394_10925)"/>
<path d="M82.1006 9.93262L48 4.61133L13.9004 9.93262V56.5186C13.9004 67.8653 20.4364 78.2005 30.7021 83.0752L48 91.292L65.2988 83.0752C75.5617 78.2004 82.1005 67.8651 82.1006 56.5186V9.93262ZM84.1006 56.5186C84.1005 68.6385 77.1163 79.6763 66.1572 84.8818L48 93.5068L29.8438 84.8818C18.8815 79.6762 11.9004 68.6384 11.9004 56.5186V8.22168L47.8457 2.61133L48 2.58789L48.1543 2.61133L84.1006 8.22168V56.5186Z" fill="url(#paint1_linear_1394_10925)"/>
<path d="M28.4493 58.8H31.5993C31.9623 58.8 32.2743 58.854 32.5323 58.965C32.7903 59.076 33.0033 59.223 33.1683 59.406C33.3333 59.592 33.4563 59.802 33.5343 60.039C33.6123 60.276 33.6513 60.525 33.6513 60.783C33.6513 61.041 33.6063 61.308 33.5193 61.557C33.4323 61.806 33.2973 62.028 33.1143 62.223C32.9313 62.418 32.7033 62.574 32.4243 62.694C32.1453 62.814 31.8123 62.874 31.4223 62.874H29.4183V65.412H28.4463V58.797L28.4493 58.8ZM31.4253 61.98C31.8273 61.98 32.1303 61.872 32.3343 61.659C32.5383 61.446 32.6403 61.164 32.6403 60.813C32.6403 60.462 32.5353 60.174 32.3283 59.982C32.1213 59.79 31.8213 59.694 31.4343 59.694H29.4213V61.98H31.4253ZM36.6873 65.508C36.3033 65.508 35.9523 65.442 35.6283 65.31C35.3043 65.178 35.0253 64.995 34.7913 64.761C34.5573 64.527 34.3743 64.248 34.2423 63.921C34.1103 63.594 34.0443 63.234 34.0443 62.847C34.0443 62.46 34.1103 62.1 34.2423 61.773C34.3743 61.446 34.5573 61.164 34.7913 60.933C35.0253 60.699 35.3043 60.516 35.6283 60.384C35.9523 60.252 36.3063 60.186 36.6873 60.186C37.0683 60.186 37.4223 60.252 37.7463 60.384C38.0703 60.516 38.3523 60.699 38.5863 60.933C38.8233 61.167 39.0063 61.446 39.1413 61.773C39.2733 62.1 39.3393 62.46 39.3393 62.847C39.3393 63.234 39.2733 63.594 39.1413 63.921C39.0093 64.248 38.8233 64.53 38.5863 64.761C38.3493 64.995 38.0703 65.178 37.7463 65.31C37.4223 65.442 37.0683 65.508 36.6873 65.508ZM36.6963 64.674C36.9363 64.674 37.1553 64.632 37.3563 64.548C37.5573 64.464 37.7313 64.341 37.8813 64.182C38.0313 64.023 38.1483 63.831 38.2323 63.606C38.3163 63.381 38.3583 63.129 38.3583 62.847C38.3583 62.565 38.3163 62.313 38.2323 62.088C38.1483 61.863 38.0313 61.671 37.8813 61.512C37.7313 61.353 37.5543 61.23 37.3503 61.146C37.1463 61.062 36.9243 61.02 36.6843 61.02C36.4443 61.02 36.2223 61.062 36.0183 61.146C35.8143 61.23 35.6403 61.353 35.4933 61.512C35.3463 61.671 35.2323 61.863 35.1483 62.088C35.0643 62.313 35.0223 62.565 35.0223 62.847C35.0223 63.129 35.0643 63.381 35.1483 63.606C35.2323 63.831 35.3463 64.023 35.4933 64.182C35.6403 64.341 35.8143 64.464 36.0183 64.548C36.2223 64.632 36.4473 64.674 36.6933 64.674H36.6963ZM39.5283 60.276H40.5093L41.3643 63.369C41.4153 63.552 41.4693 63.756 41.5233 63.981C41.5773 64.209 41.6253 64.416 41.6643 64.602H41.6823C41.7093 64.479 41.7333 64.365 41.7543 64.263C41.7783 64.158 41.8023 64.056 41.8263 63.957C41.8533 63.858 41.8773 63.75 41.9043 63.636C41.9313 63.522 41.9613 63.399 42.0003 63.261L42.7773 60.276H43.8873L44.6943 63.33C44.7603 63.576 44.8113 63.789 44.8533 63.972C44.8953 64.155 44.9463 64.365 45.0033 64.605H45.0333C45.0603 64.476 45.0843 64.356 45.1053 64.251C45.1293 64.143 45.1533 64.038 45.1773 63.936C45.2043 63.831 45.2283 63.726 45.2553 63.621C45.2823 63.513 45.3123 63.393 45.3513 63.255L46.1283 60.279H47.1003L45.6123 65.415H44.3673L43.6953 62.886C43.6053 62.529 43.5303 62.223 43.4703 61.968C43.4133 61.713 43.3593 61.47 43.3143 61.242H43.2753C43.2483 61.461 43.2033 61.716 43.1343 62.001C43.0653 62.286 42.9933 62.58 42.9153 62.886L42.2433 65.415H41.0073L39.5103 60.279L39.5283 60.276ZM49.8033 65.508C49.4343 65.508 49.0953 65.442 48.7863 65.31C48.4773 65.178 48.2133 64.995 47.9943 64.761C47.7753 64.527 47.6043 64.248 47.4843 63.924C47.3643 63.6 47.3043 63.243 47.3043 62.853C47.3043 62.463 47.3703 62.106 47.4993 61.779C47.6283 61.452 47.8053 61.17 48.0303 60.933C48.2553 60.696 48.5193 60.513 48.8283 60.378C49.1373 60.246 49.4703 60.18 49.8363 60.18C50.2383 60.18 50.5953 60.255 50.9073 60.408C51.2193 60.561 51.4773 60.765 51.6813 61.02C51.8853 61.275 52.0353 61.578 52.1343 61.926C52.2303 62.274 52.2693 62.64 52.2513 63.03H48.2643C48.2703 63.282 48.3183 63.51 48.4053 63.717C48.4923 63.921 48.6093 64.092 48.7563 64.233C48.9033 64.371 49.0683 64.482 49.2573 64.56C49.4463 64.638 49.6473 64.677 49.8603 64.677C50.1903 64.677 50.4723 64.608 50.7003 64.467C50.9313 64.329 51.1113 64.125 51.2403 63.858H52.1643C52.0803 64.11 51.9603 64.338 51.8103 64.539C51.6573 64.74 51.4803 64.914 51.2763 65.058C51.0723 65.205 50.8443 65.316 50.5953 65.394C50.3463 65.472 50.0853 65.511 49.8123 65.511L49.8033 65.508ZM51.2913 62.301C51.2403 61.917 51.0933 61.602 50.8473 61.353C50.6043 61.104 50.2653 60.978 49.8303 60.978C49.6233 60.978 49.4313 61.011 49.2573 61.08C49.0833 61.149 48.9273 61.242 48.7893 61.356C48.6513 61.47 48.5403 61.611 48.4533 61.773C48.3663 61.935 48.3093 62.109 48.2823 62.298H51.2883L51.2913 62.301ZM53.1153 60.276H53.9913L54.0213 61.074H54.0513C54.2133 60.801 54.4113 60.6 54.6483 60.471C54.8853 60.342 55.1583 60.276 55.4703 60.276H55.7733V61.218H55.3173C55.1673 61.218 55.0203 61.242 54.8703 61.287C54.7203 61.332 54.5853 61.413 54.4653 61.524C54.3453 61.638 54.2493 61.791 54.1743 61.986C54.0993 62.181 54.0633 62.43 54.0633 62.736V65.412H53.1213V60.276H53.1153ZM58.4973 65.508C58.1283 65.508 57.7893 65.442 57.4803 65.31C57.1713 65.178 56.9073 64.995 56.6883 64.761C56.4693 64.527 56.2983 64.248 56.1783 63.924C56.0583 63.6 55.9983 63.243 55.9983 62.853C55.9983 62.463 56.0643 62.106 56.1933 61.779C56.3223 61.452 56.4993 61.17 56.7243 60.933C56.9493 60.696 57.2133 60.513 57.5223 60.378C57.8313 60.246 58.1643 60.18 58.5303 60.18C58.9323 60.18 59.2893 60.255 59.6013 60.408C59.9133 60.561 60.1713 60.765 60.3753 61.02C60.5793 61.275 60.7293 61.578 60.8283 61.926C60.9243 62.274 60.9633 62.64 60.9453 63.03H56.9583C56.9643 63.282 57.0123 63.51 57.0993 63.717C57.1863 63.921 57.3033 64.092 57.4503 64.233C57.5973 64.371 57.7623 64.482 57.9513 64.56C58.1403 64.638 58.3413 64.677 58.5543 64.677C58.8843 64.677 59.1663 64.608 59.3943 64.467C59.6253 64.329 59.8053 64.125 59.9343 63.858H60.8583C60.7743 64.11 60.6543 64.338 60.5043 64.539C60.3513 64.74 60.1743 64.914 59.9703 65.058C59.7663 65.205 59.5383 65.316 59.2893 65.394C59.0403 65.472 58.7793 65.511 58.5063 65.511L58.4973 65.508ZM59.9853 62.301C59.9343 61.917 59.7873 61.602 59.5413 61.353C59.2983 61.104 58.9593 60.978 58.5243 60.978C58.3173 60.978 58.1253 61.011 57.9513 61.08C57.7773 61.149 57.6213 61.242 57.4833 61.356C57.3453 61.47 57.2343 61.611 57.1473 61.773C57.0603 61.935 57.0033 62.109 56.9763 62.298H59.9823L59.9853 62.301ZM64.0623 65.508C63.6723 65.508 63.3213 65.442 63.0063 65.313C62.6913 65.184 62.4243 65.001 62.2053 64.764C61.9863 64.527 61.8153 64.248 61.6953 63.924C61.5753 63.6 61.5153 63.243 61.5153 62.853C61.5153 62.439 61.5813 62.064 61.7133 61.734C61.8453 61.404 62.0283 61.122 62.2623 60.894C62.4963 60.663 62.7693 60.486 63.0783 60.363C63.3873 60.24 63.7263 60.177 64.0893 60.177C64.7823 60.177 65.3313 60.372 65.7333 60.762V58.263H66.6573V65.412H65.8113L65.7543 64.827C65.5473 65.046 65.3013 65.217 65.0163 65.334C64.7313 65.451 64.4133 65.508 64.0623 65.508ZM64.1793 64.674C64.6863 64.674 65.0793 64.506 65.3673 64.17C65.6523 63.834 65.7963 63.396 65.7963 62.853C65.7963 62.583 65.7603 62.334 65.6853 62.109C65.6103 61.884 65.5023 61.689 65.3583 61.53C65.2143 61.368 65.0433 61.242 64.8423 61.152C64.6413 61.062 64.4133 61.017 64.1613 61.017C63.9093 61.017 63.6813 61.062 63.4743 61.152C63.2673 61.242 63.0963 61.368 62.9493 61.53C62.8023 61.692 62.6913 61.884 62.6133 62.109C62.5353 62.334 62.4963 62.583 62.4963 62.853C62.4963 63.123 62.5353 63.372 62.6193 63.594C62.7003 63.816 62.8143 64.008 62.9643 64.17C63.1143 64.332 63.2913 64.455 63.4983 64.542C63.7053 64.629 63.9333 64.674 64.1793 64.674ZM38.2443 29.22L28.4493 52.674H32.0373L33.7623 48.396H46.4913L48.1803 52.674H51.7683L41.9733 29.22H38.2473H38.2443ZM45.3153 45.465H34.9323L36.0003 42.774H44.2083L45.3123 45.465H45.3153ZM43.1433 40.017H37.1073L37.7283 38.499C38.7273 36.015 39.5913 33.945 40.1073 32.394C40.6593 33.945 41.5203 36.015 42.5223 38.499L43.1433 40.017ZM54.8163 52.674H58.1973V34.461H54.8163V52.674ZM59.8263 28.335C58.2003 28.008 56.9193 26.724 56.5923 25.098C56.5833 25.059 56.5503 25.032 56.5113 25.032C56.4723 25.032 56.4393 25.059 56.4303 25.098C56.1033 26.724 54.8193 28.005 53.1933 28.332C53.1543 28.341 53.1273 28.374 53.1273 28.413C53.1273 28.452 53.1543 28.485 53.1933 28.494C54.8193 28.821 56.1003 30.105 56.4273 31.731C56.4363 31.77 56.4693 31.797 56.5083 31.797C56.5473 31.797 56.5803 31.77 56.5893 31.731C56.9163 30.105 58.2003 28.824 59.8263 28.497C59.8653 28.488 59.8923 28.455 59.8923 28.416C59.8923 28.377 59.8653 28.344 59.8263 28.335ZM67.4523 22.329C65.0133 21.837 63.0903 19.914 62.6013 17.475C62.5893 17.418 62.5383 17.373 62.4783 17.373C62.4183 17.373 62.3673 17.415 62.3553 17.475C61.8633 19.914 59.9403 21.837 57.5013 22.326C57.4443 22.338 57.3993 22.389 57.3993 22.449C57.3993 22.509 57.4413 22.56 57.5013 22.572C59.9403 23.064 61.8633 24.987 62.3523 27.426C62.3643 27.483 62.4153 27.528 62.4753 27.528C62.5353 27.528 62.5863 27.486 62.5983 27.426C63.0903 24.987 65.0133 23.064 67.4523 22.575C67.5093 22.563 67.5543 22.512 67.5543 22.452C67.5543 22.392 67.5123 22.341 67.4523 22.329Z" fill="white"/>
<defs>
<linearGradient id="paint0_linear_1394_10925" x1="23.0878" y1="79.9492" x2="68.717" y2="0.78525" gradientUnits="userSpaceOnUse">
<stop stop-color="#00204D"/>
<stop offset="0.5" stop-color="#3849E0"/>
<stop offset="1" stop-color="#FC2DF1"/>
</linearGradient>
<linearGradient id="paint1_linear_1394_10925" x1="22.3781" y1="80.7593" x2="68.9902" y2="-0.475642" gradientUnits="userSpaceOnUse">
<stop stop-color="#00204D"/>
<stop offset="0.5" stop-color="#3849E0"/>
<stop offset="1" stop-color="#FC2DF1"/>
</linearGradient>
</defs>
</svg>
