<svg width="48" height="48" viewBox="0 0 48 48" fill="none" xmlns="http://www.w3.org/2000/svg">
<path d="M32.8638 41.9901L24.0002 46.2008L15.1365 41.9901C9.82947 39.4701 6.4502 34.1269 6.4502 28.2602V4.53987L24.0002 1.80078L41.5502 4.53987V28.2602C41.5502 34.1269 38.1694 39.4701 32.8638 41.9901Z" fill="url(#paint0_linear_1394_10920)"/>
<path d="M41.0498 4.96777L24 2.30664L6.9502 4.96777V28.2598C6.9502 33.933 10.218 39.1006 15.3506 41.5381L24 45.6465L32.6494 41.5381C37.7808 39.1006 41.0498 33.933 41.0498 28.2598V4.96777ZM42.0498 28.2598C42.0498 34.3198 38.5578 39.8386 33.0781 42.4414L24.2148 46.6523L24 46.7539L14.9219 42.4414C9.44082 39.8386 5.9502 34.3196 5.9502 28.2598V4.1123L23.9229 1.30664L24 1.29492L24.0771 1.30664L42.0498 4.1123V28.2598Z" fill="url(#paint1_linear_1394_10920)"/>
<path d="M23.1459 29.2381C20.4402 28.6932 18.3095 26.5606 17.7665 23.853C17.7533 23.7892 17.697 23.7422 17.6312 23.7422C17.5654 23.7422 17.5091 23.7892 17.4959 23.853C16.951 26.5587 14.8184 28.6895 12.1109 29.2325C12.047 29.2457 12 29.302 12 29.3678C12 29.4335 12.047 29.4899 12.1109 29.5031C14.8165 30.048 16.9473 32.1806 17.4903 34.8882C17.5034 34.952 17.5598 34.999 17.6256 34.999C17.6913 34.999 17.7477 34.952 17.7609 34.8882C18.3057 32.1825 20.4384 30.0517 23.1459 29.5068C23.2098 29.4937 23.2568 29.4373 23.2568 29.3715C23.2568 29.3058 23.2098 29.2494 23.1459 29.2363V29.2381Z" fill="white"/>
<path d="M35.8328 19.2449C31.7743 18.4256 28.5782 15.2277 27.7627 11.1672C27.7439 11.0695 27.6594 11 27.5598 11C27.4602 11 27.3757 11.0695 27.3569 11.1672C26.5395 15.2258 23.3397 18.4219 19.2793 19.2373C19.1816 19.2561 19.1121 19.3407 19.1121 19.4403C19.1121 19.5399 19.1816 19.6244 19.2793 19.6432C23.3378 20.4624 26.5339 23.6604 27.3494 27.7208C27.3682 27.8185 27.4527 27.8881 27.5523 27.8881C27.6519 27.8881 27.7364 27.8185 27.7552 27.7208C28.5726 23.6623 31.7724 20.4662 35.8328 19.6507C35.9305 19.6319 36 19.5474 36 19.4478C36 19.3482 35.9305 19.2637 35.8328 19.2449Z" fill="white"/>
<defs>
<linearGradient id="paint0_linear_1394_10920" x1="11.5439" y1="39.9756" x2="34.3585" y2="0.393601" gradientUnits="userSpaceOnUse">
<stop stop-color="#00204D"/>
<stop offset="0.5" stop-color="#3849E0"/>
<stop offset="1" stop-color="#FC2DF1"/>
</linearGradient>
<linearGradient id="paint1_linear_1394_10920" x1="11.189" y1="40.3802" x2="34.4948" y2="-0.236772" gradientUnits="userSpaceOnUse">
<stop stop-color="#00204D"/>
<stop offset="0.5" stop-color="#3849E0"/>
<stop offset="1" stop-color="#FC2DF1"/>
</linearGradient>
</defs>
</svg>
