<svg width="96" height="96" viewBox="0 0 96 96" fill="none" xmlns="http://www.w3.org/2000/svg">
<path d="M82.3799 10.2588L48.2793 4.9375L14.1797 10.2588V56.8447C14.1797 68.1915 20.7157 78.5266 30.9814 83.4014L48.2793 91.6182L65.5781 83.4014C75.841 78.5266 82.3798 68.1913 82.3799 56.8447V10.2588ZM84.3799 56.8447C84.3798 68.9647 77.3956 80.0024 66.4365 85.208L48.2793 93.833L30.123 85.208C19.1608 80.0024 12.1797 68.9646 12.1797 56.8447V8.54785L48.125 2.9375L48.2793 2.91406L48.4336 2.9375L84.3799 8.54785V56.8447Z" fill="url(#paint0_linear_1394_10957)"/>
<path d="M28.4489 58.8007H31.5989C31.9619 58.8007 32.2739 58.8547 32.5319 58.9657C32.7899 59.0767 33.0029 59.2237 33.1679 59.4067C33.3329 59.5927 33.4559 59.8027 33.5339 60.0397C33.6119 60.2767 33.6509 60.5257 33.6509 60.7837C33.6509 61.0417 33.6059 61.3087 33.5189 61.5577C33.4319 61.8067 33.2969 62.0287 33.1139 62.2237C32.9309 62.4187 32.7029 62.5747 32.4239 62.6947C32.1449 62.8147 31.8119 62.8747 31.4219 62.8747H29.4179V65.4127H28.4459V58.7977L28.4489 58.8007ZM31.4249 61.9807C31.8269 61.9807 32.1299 61.8727 32.3339 61.6597C32.5379 61.4467 32.6399 61.1647 32.6399 60.8137C32.6399 60.4627 32.5349 60.1747 32.3279 59.9827C32.1209 59.7907 31.8209 59.6947 31.4339 59.6947H29.4209V61.9807H31.4249ZM36.6869 65.5087C36.3029 65.5087 35.9519 65.4427 35.6279 65.3107C35.3039 65.1787 35.0249 64.9957 34.7909 64.7617C34.5569 64.5277 34.3739 64.2487 34.2419 63.9217C34.1099 63.5947 34.0439 63.2347 34.0439 62.8477C34.0439 62.4607 34.1099 62.1007 34.2419 61.7737C34.3739 61.4467 34.5569 61.1647 34.7909 60.9337C35.0249 60.6997 35.3039 60.5167 35.6279 60.3847C35.9519 60.2527 36.3059 60.1867 36.6869 60.1867C37.0679 60.1867 37.4219 60.2527 37.7459 60.3847C38.0699 60.5167 38.3519 60.6997 38.5859 60.9337C38.8229 61.1677 39.0059 61.4467 39.1409 61.7737C39.2729 62.1007 39.3389 62.4607 39.3389 62.8477C39.3389 63.2347 39.2729 63.5947 39.1409 63.9217C39.0089 64.2487 38.8229 64.5307 38.5859 64.7617C38.3489 64.9957 38.0699 65.1787 37.7459 65.3107C37.4219 65.4427 37.0679 65.5087 36.6869 65.5087ZM36.6959 64.6747C36.9359 64.6747 37.1549 64.6327 37.3559 64.5487C37.5569 64.4647 37.7309 64.3417 37.8809 64.1827C38.0309 64.0237 38.1479 63.8317 38.2319 63.6067C38.3159 63.3817 38.3579 63.1297 38.3579 62.8477C38.3579 62.5657 38.3159 62.3137 38.2319 62.0887C38.1479 61.8637 38.0309 61.6717 37.8809 61.5127C37.7309 61.3537 37.5539 61.2307 37.3499 61.1467C37.1459 61.0627 36.9239 61.0207 36.6839 61.0207C36.4439 61.0207 36.2219 61.0627 36.0179 61.1467C35.8139 61.2307 35.6399 61.3537 35.4929 61.5127C35.3459 61.6717 35.2319 61.8637 35.1479 62.0887C35.0639 62.3137 35.0219 62.5657 35.0219 62.8477C35.0219 63.1297 35.0639 63.3817 35.1479 63.6067C35.2319 63.8317 35.3459 64.0237 35.4929 64.1827C35.6399 64.3417 35.8139 64.4647 36.0179 64.5487C36.2219 64.6327 36.4469 64.6747 36.6929 64.6747H36.6959ZM39.5279 60.2767H40.5089L41.3639 63.3697C41.4149 63.5527 41.4689 63.7567 41.5229 63.9817C41.5769 64.2097 41.6249 64.4167 41.6639 64.6027H41.6819C41.7089 64.4797 41.7329 64.3657 41.7539 64.2637C41.7779 64.1587 41.8019 64.0567 41.8259 63.9577C41.8529 63.8587 41.8769 63.7507 41.9039 63.6367C41.9309 63.5227 41.9609 63.3997 41.9999 63.2617L42.7769 60.2767H43.8869L44.6939 63.3307C44.7599 63.5767 44.8109 63.7897 44.8529 63.9727C44.8949 64.1557 44.9459 64.3657 45.0029 64.6057H45.0329C45.0599 64.4767 45.0839 64.3567 45.1049 64.2517C45.1289 64.1437 45.1529 64.0387 45.1769 63.9367C45.2039 63.8317 45.2279 63.7267 45.2549 63.6217C45.2819 63.5137 45.3119 63.3937 45.3509 63.2557L46.1279 60.2797H47.0999L45.6119 65.4157H44.3669L43.6949 62.8867C43.6049 62.5297 43.5299 62.2237 43.4699 61.9687C43.4129 61.7137 43.3589 61.4707 43.3139 61.2427H43.2749C43.2479 61.4617 43.2029 61.7167 43.1339 62.0017C43.0649 62.2867 42.9929 62.5807 42.9149 62.8867L42.2429 65.4157H41.0069L39.5099 60.2797L39.5279 60.2767ZM49.8029 65.5087C49.4339 65.5087 49.0949 65.4427 48.7859 65.3107C48.4769 65.1787 48.2129 64.9957 47.9939 64.7617C47.7749 64.5277 47.6039 64.2487 47.4839 63.9247C47.3639 63.6007 47.3039 63.2437 47.3039 62.8537C47.3039 62.4637 47.3699 62.1067 47.4989 61.7797C47.6279 61.4527 47.8049 61.1707 48.0299 60.9337C48.2549 60.6967 48.5189 60.5137 48.8279 60.3787C49.1369 60.2467 49.4699 60.1807 49.8359 60.1807C50.2379 60.1807 50.5949 60.2557 50.9069 60.4087C51.2189 60.5617 51.4769 60.7657 51.6809 61.0207C51.8849 61.2757 52.0349 61.5787 52.1339 61.9267C52.2299 62.2747 52.2689 62.6407 52.2509 63.0307H48.2639C48.2699 63.2827 48.3179 63.5107 48.4049 63.7177C48.4919 63.9217 48.6089 64.0927 48.7559 64.2337C48.9029 64.3717 49.0679 64.4827 49.2569 64.5607C49.4459 64.6387 49.6469 64.6777 49.8599 64.6777C50.1899 64.6777 50.4719 64.6087 50.6999 64.4677C50.9309 64.3297 51.1109 64.1257 51.2399 63.8587H52.1639C52.0799 64.1107 51.9599 64.3387 51.8099 64.5397C51.6569 64.7407 51.4799 64.9147 51.2759 65.0587C51.0719 65.2057 50.8439 65.3167 50.5949 65.3947C50.3459 65.4727 50.0849 65.5117 49.8119 65.5117L49.8029 65.5087ZM51.2909 62.3017C51.2399 61.9177 51.0929 61.6027 50.8469 61.3537C50.6039 61.1047 50.2649 60.9787 49.8299 60.9787C49.6229 60.9787 49.4309 61.0117 49.2569 61.0807C49.0829 61.1497 48.9269 61.2427 48.7889 61.3567C48.6509 61.4707 48.5399 61.6117 48.4529 61.7737C48.3659 61.9357 48.3089 62.1097 48.2819 62.2987H51.2879L51.2909 62.3017ZM53.1149 60.2767H53.9909L54.0209 61.0747H54.0509C54.2129 60.8017 54.4109 60.6007 54.6479 60.4717C54.8849 60.3427 55.1579 60.2767 55.4699 60.2767H55.7729V61.2187H55.3169C55.1669 61.2187 55.0199 61.2427 54.8699 61.2877C54.7199 61.3327 54.5849 61.4137 54.4649 61.5247C54.3449 61.6387 54.2489 61.7917 54.1739 61.9867C54.0989 62.1817 54.0629 62.4307 54.0629 62.7367V65.4127H53.1209V60.2767H53.1149ZM58.4969 65.5087C58.1279 65.5087 57.7889 65.4427 57.4799 65.3107C57.1709 65.1787 56.9069 64.9957 56.6879 64.7617C56.4689 64.5277 56.2979 64.2487 56.1779 63.9247C56.0579 63.6007 55.9979 63.2437 55.9979 62.8537C55.9979 62.4637 56.0639 62.1067 56.1929 61.7797C56.3219 61.4527 56.4989 61.1707 56.7239 60.9337C56.9489 60.6967 57.2129 60.5137 57.5219 60.3787C57.8309 60.2467 58.1639 60.1807 58.5299 60.1807C58.9319 60.1807 59.2889 60.2557 59.6009 60.4087C59.9129 60.5617 60.1709 60.7657 60.3749 61.0207C60.5789 61.2757 60.7289 61.5787 60.8279 61.9267C60.9239 62.2747 60.9629 62.6407 60.9449 63.0307H56.9579C56.9639 63.2827 57.0119 63.5107 57.0989 63.7177C57.1859 63.9217 57.3029 64.0927 57.4499 64.2337C57.5969 64.3717 57.7619 64.4827 57.9509 64.5607C58.1399 64.6387 58.3409 64.6777 58.5539 64.6777C58.8839 64.6777 59.1659 64.6087 59.3939 64.4677C59.6249 64.3297 59.8049 64.1257 59.9339 63.8587H60.8579C60.7739 64.1107 60.6539 64.3387 60.5039 64.5397C60.3509 64.7407 60.1739 64.9147 59.9699 65.0587C59.7659 65.2057 59.5379 65.3167 59.2889 65.3947C59.0399 65.4727 58.7789 65.5117 58.5059 65.5117L58.4969 65.5087ZM59.9849 62.3017C59.9339 61.9177 59.7869 61.6027 59.5409 61.3537C59.2979 61.1047 58.9589 60.9787 58.5239 60.9787C58.3169 60.9787 58.1249 61.0117 57.9509 61.0807C57.7769 61.1497 57.6209 61.2427 57.4829 61.3567C57.3449 61.4707 57.2339 61.6117 57.1469 61.7737C57.0599 61.9357 57.0029 62.1097 56.9759 62.2987H59.9819L59.9849 62.3017ZM64.0619 65.5087C63.6719 65.5087 63.3209 65.4427 63.0059 65.3137C62.6909 65.1847 62.4239 65.0017 62.2049 64.7647C61.9859 64.5277 61.8149 64.2487 61.6949 63.9247C61.5749 63.6007 61.5149 63.2437 61.5149 62.8537C61.5149 62.4397 61.5809 62.0647 61.7129 61.7347C61.8449 61.4047 62.0279 61.1227 62.2619 60.8947C62.4959 60.6637 62.7689 60.4867 63.0779 60.3637C63.3869 60.2407 63.7259 60.1777 64.0889 60.1777C64.7819 60.1777 65.3309 60.3727 65.7329 60.7627V58.2637H66.6569V65.4127H65.8109L65.7539 64.8277C65.5469 65.0467 65.3009 65.2177 65.0159 65.3347C64.7309 65.4517 64.4129 65.5087 64.0619 65.5087ZM64.1789 64.6747C64.6859 64.6747 65.0789 64.5067 65.3669 64.1707C65.6519 63.8347 65.7959 63.3967 65.7959 62.8537C65.7959 62.5837 65.7599 62.3347 65.6849 62.1097C65.6099 61.8847 65.5019 61.6897 65.3579 61.5307C65.2139 61.3687 65.0429 61.2427 64.8419 61.1527C64.6409 61.0627 64.4129 61.0177 64.1609 61.0177C63.9089 61.0177 63.6809 61.0627 63.4739 61.1527C63.2669 61.2427 63.0959 61.3687 62.9489 61.5307C62.8019 61.6927 62.6909 61.8847 62.6129 62.1097C62.5349 62.3347 62.4959 62.5837 62.4959 62.8537C62.4959 63.1237 62.5349 63.3727 62.6189 63.5947C62.6999 63.8167 62.8139 64.0087 62.9639 64.1707C63.1139 64.3327 63.2909 64.4557 63.4979 64.5427C63.7049 64.6297 63.9329 64.6747 64.1789 64.6747Z" fill="white"/>
<path d="M38.244 29.2207L28.449 52.6747H32.037L33.762 48.3967H46.491L48.18 52.6747H51.768L41.973 29.2207H38.247H38.244ZM45.315 45.4657H34.932L36 42.7747H44.208L45.312 45.4657H45.315ZM43.143 40.0177H37.107L37.728 38.4997C38.727 36.0157 39.591 33.9457 40.107 32.3947C40.659 33.9457 41.52 36.0157 42.522 38.4997L43.143 40.0177Z" fill="url(#paint1_linear_1394_10957)"/>
<path d="M58.197 34.4609H54.816V52.6739H58.197V34.4609Z" fill="url(#paint2_linear_1394_10957)"/>
<path d="M59.826 28.3342C58.2 28.0072 56.919 26.7233 56.592 25.0973C56.583 25.0583 56.55 25.0312 56.511 25.0312C56.472 25.0312 56.439 25.0583 56.43 25.0973C56.103 26.7233 54.819 28.0042 53.193 28.3312C53.154 28.3402 53.127 28.3732 53.127 28.4122C53.127 28.4512 53.154 28.4843 53.193 28.4933C54.819 28.8203 56.1 30.1042 56.427 31.7302C56.436 31.7692 56.469 31.7962 56.508 31.7962C56.547 31.7962 56.58 31.7692 56.589 31.7302C56.916 30.1042 58.2 28.8232 59.826 28.4962C59.865 28.4872 59.892 28.4542 59.892 28.4152C59.892 28.3762 59.865 28.3432 59.826 28.3342Z" fill="url(#paint3_linear_1394_10957)"/>
<path d="M67.452 22.329C65.013 21.837 63.09 19.914 62.601 17.475C62.589 17.418 62.538 17.373 62.478 17.373C62.418 17.373 62.367 17.415 62.355 17.475C61.863 19.914 59.94 21.837 57.501 22.326C57.444 22.338 57.399 22.389 57.399 22.449C57.399 22.509 57.441 22.56 57.501 22.572C59.94 23.064 61.863 24.987 62.352 27.426C62.364 27.483 62.415 27.528 62.475 27.528C62.535 27.528 62.586 27.486 62.598 27.426C63.09 24.987 65.013 23.064 67.452 22.575C67.509 22.563 67.554 22.512 67.554 22.452C67.554 22.392 67.512 22.341 67.452 22.329Z" fill="url(#paint4_linear_1394_10957)"/>
<defs>
<linearGradient id="paint0_linear_1394_10957" x1="14.9561" y1="72.464" x2="81.373" y2="5.82008" gradientUnits="userSpaceOnUse">
<stop offset="0.5" stop-color="#3849E0"/>
<stop offset="1" stop-color="#FC2DF1"/>
</linearGradient>
<linearGradient id="paint1_linear_1394_10957" x1="65.655" y1="20.2987" x2="31.287" y2="54.6667" gradientUnits="userSpaceOnUse">
<stop stop-color="#FC2DF1"/>
<stop offset="0.5" stop-color="white"/>
<stop offset="1" stop-color="white"/>
</linearGradient>
<linearGradient id="paint2_linear_1394_10957" x1="72.717" y1="27.3599" x2="38.349" y2="61.728" gradientUnits="userSpaceOnUse">
<stop stop-color="#FC2DF1"/>
<stop offset="0.5" stop-color="white"/>
<stop offset="1" stop-color="white"/>
</linearGradient>
<linearGradient id="paint3_linear_1394_10957" x1="65.142" y1="19.7813" x2="30.774" y2="54.1493" gradientUnits="userSpaceOnUse">
<stop stop-color="#FC2DF1"/>
<stop offset="0.5" stop-color="white"/>
<stop offset="1" stop-color="white"/>
</linearGradient>
<linearGradient id="paint4_linear_1394_10957" x1="65.142" y1="19.782" x2="30.774" y2="54.15" gradientUnits="userSpaceOnUse">
<stop stop-color="#FC2DF1"/>
<stop offset="0.5" stop-color="white"/>
<stop offset="1" stop-color="white"/>
</linearGradient>
</defs>
</svg>
