<svg width="48" height="48" viewBox="0 0 48 48" fill="none" xmlns="http://www.w3.org/2000/svg">
<path d="M41.0496 4.96582L23.9998 2.30469L6.94995 4.96582V28.2578C6.94995 33.931 10.2177 39.0987 15.3503 41.5361L23.9998 45.6445L32.6492 41.5361C37.7805 39.0987 41.0496 33.9311 41.0496 28.2578V4.96582ZM42.0496 28.2578C42.0496 34.3179 38.5575 39.8367 33.0779 42.4395L24.2146 46.6504L23.9998 46.752L14.9216 42.4395C9.44057 39.8366 5.94995 34.3177 5.94995 28.2578V4.11035L23.9226 1.30469L23.9998 1.29297L24.0769 1.30469L42.0496 4.11035V28.2578Z" fill="url(#paint0_linear_1394_10953)"/>
<path d="M23.146 29.2382C20.4403 28.6933 18.3096 26.5606 17.7665 23.853C17.7534 23.7892 17.697 23.7422 17.6313 23.7422C17.5655 23.7422 17.5091 23.7892 17.496 23.853C16.9511 26.5588 14.8184 28.6895 12.1109 29.2325C12.047 29.2457 12 29.302 12 29.3678C12 29.4336 12.047 29.4899 12.1109 29.5031C14.8166 30.048 16.9473 32.1806 17.4903 34.8882C17.5035 34.9521 17.5599 34.9991 17.6256 34.9991C17.6914 34.9991 17.7478 34.9521 17.7609 34.8882C18.3058 32.1825 20.4384 30.0517 23.146 29.5068C23.2099 29.4937 23.2569 29.4373 23.2569 29.3716C23.2569 29.3058 23.2099 29.2494 23.146 29.2363V29.2382Z" fill="url(#paint1_linear_1394_10953)"/>
<path d="M35.8327 19.2449C31.7742 18.4257 28.578 15.2277 27.7626 11.1672C27.7438 11.0695 27.6592 11 27.5596 11C27.4601 11 27.3755 11.0695 27.3567 11.1672C26.5394 15.2258 23.3395 18.4219 19.279 19.2374C19.1813 19.2562 19.1118 19.3407 19.1118 19.4403C19.1118 19.5399 19.1813 19.6244 19.279 19.6432C23.3376 20.4625 26.5337 23.6605 27.3492 27.7209C27.368 27.8186 27.4525 27.8881 27.5521 27.8881C27.6517 27.8881 27.7363 27.8186 27.755 27.7209C28.5724 23.6623 31.7723 20.4662 35.8327 19.6507C35.9304 19.632 35.9999 19.5474 35.9999 19.4478C35.9999 19.3482 35.9304 19.2637 35.8327 19.2449Z" fill="url(#paint2_linear_1394_10953)"/>
<defs>
<linearGradient id="paint0_linear_1394_10953" x1="7.33815" y1="36.0675" x2="40.5463" y2="2.74605" gradientUnits="userSpaceOnUse">
<stop offset="0.5" stop-color="#3849E0"/>
<stop offset="1" stop-color="#FC2DF1"/>
</linearGradient>
<linearGradient id="paint1_linear_1394_10953" x1="10.6321" y1="41.194" x2="27.9562" y2="11.9179" gradientUnits="userSpaceOnUse">
<stop stop-color="white"/>
<stop offset="0.5" stop-color="white"/>
<stop offset="0.81" stop-color="#FD7FF6"/>
<stop offset="1" stop-color="#FC2DF1"/>
</linearGradient>
<linearGradient id="paint2_linear_1394_10953" x1="13.6328" y1="42.9706" x2="30.9587" y2="13.6944" gradientUnits="userSpaceOnUse">
<stop stop-color="white"/>
<stop offset="0.5" stop-color="white"/>
<stop offset="0.81" stop-color="#FD7FF6"/>
<stop offset="1" stop-color="#FC2DF1"/>
</linearGradient>
</defs>
</svg>
