<svg width="96" height="96" viewBox="0 0 96 96" fill="none" xmlns="http://www.w3.org/2000/svg">
<path d="M82.1006 9.93262L48 4.61133L13.9004 9.93262V56.5186C13.9004 67.8653 20.4364 78.2005 30.7021 83.0752L48 91.292L65.2988 83.0752C75.5617 78.2004 82.1005 67.8651 82.1006 56.5186V9.93262ZM84.1006 56.5186C84.1005 68.6385 77.1163 79.6763 66.1572 84.8818L48 93.5068L29.8438 84.8818C18.8815 79.6762 11.9004 68.6384 11.9004 56.5186V8.22168L47.8457 2.61133L48 2.58789L48.1543 2.61133L84.1006 8.22168V56.5186Z" fill="url(#paint0_linear_1394_10946)"/>
<path d="M28.4493 58.8007H31.5993C31.9623 58.8007 32.2743 58.8547 32.5323 58.9657C32.7903 59.0767 33.0033 59.2237 33.1683 59.4067C33.3333 59.5927 33.4563 59.8027 33.5343 60.0397C33.6123 60.2767 33.6513 60.5257 33.6513 60.7837C33.6513 61.0417 33.6063 61.3087 33.5193 61.5577C33.4323 61.8067 33.2973 62.0287 33.1143 62.2237C32.9313 62.4187 32.7033 62.5747 32.4243 62.6947C32.1453 62.8147 31.8123 62.8747 31.4223 62.8747H29.4183V65.4127H28.4463V58.7977L28.4493 58.8007ZM31.4253 61.9807C31.8273 61.9807 32.1303 61.8727 32.3343 61.6597C32.5383 61.4467 32.6403 61.1647 32.6403 60.8137C32.6403 60.4627 32.5353 60.1747 32.3283 59.9827C32.1213 59.7907 31.8213 59.6947 31.4343 59.6947H29.4213V61.9807H31.4253ZM36.6873 65.5087C36.3033 65.5087 35.9523 65.4427 35.6283 65.3107C35.3043 65.1787 35.0253 64.9957 34.7913 64.7617C34.5573 64.5277 34.3743 64.2487 34.2423 63.9217C34.1103 63.5947 34.0443 63.2347 34.0443 62.8477C34.0443 62.4607 34.1103 62.1007 34.2423 61.7737C34.3743 61.4467 34.5573 61.1647 34.7913 60.9337C35.0253 60.6997 35.3043 60.5167 35.6283 60.3847C35.9523 60.2527 36.3063 60.1867 36.6873 60.1867C37.0683 60.1867 37.4223 60.2527 37.7463 60.3847C38.0703 60.5167 38.3523 60.6997 38.5863 60.9337C38.8233 61.1677 39.0063 61.4467 39.1413 61.7737C39.2733 62.1007 39.3393 62.4607 39.3393 62.8477C39.3393 63.2347 39.2733 63.5947 39.1413 63.9217C39.0093 64.2487 38.8233 64.5307 38.5863 64.7617C38.3493 64.9957 38.0703 65.1787 37.7463 65.3107C37.4223 65.4427 37.0683 65.5087 36.6873 65.5087ZM36.6963 64.6747C36.9363 64.6747 37.1553 64.6327 37.3563 64.5487C37.5573 64.4647 37.7313 64.3417 37.8813 64.1827C38.0313 64.0237 38.1483 63.8317 38.2323 63.6067C38.3163 63.3817 38.3583 63.1297 38.3583 62.8477C38.3583 62.5657 38.3163 62.3137 38.2323 62.0887C38.1483 61.8637 38.0313 61.6717 37.8813 61.5127C37.7313 61.3537 37.5543 61.2307 37.3503 61.1467C37.1463 61.0627 36.9243 61.0207 36.6843 61.0207C36.4443 61.0207 36.2223 61.0627 36.0183 61.1467C35.8143 61.2307 35.6403 61.3537 35.4933 61.5127C35.3463 61.6717 35.2323 61.8637 35.1483 62.0887C35.0643 62.3137 35.0223 62.5657 35.0223 62.8477C35.0223 63.1297 35.0643 63.3817 35.1483 63.6067C35.2323 63.8317 35.3463 64.0237 35.4933 64.1827C35.6403 64.3417 35.8143 64.4647 36.0183 64.5487C36.2223 64.6327 36.4473 64.6747 36.6933 64.6747H36.6963ZM39.5283 60.2767H40.5093L41.3643 63.3697C41.4153 63.5527 41.4693 63.7567 41.5233 63.9817C41.5773 64.2097 41.6253 64.4167 41.6643 64.6027H41.6823C41.7093 64.4797 41.7333 64.3657 41.7543 64.2637C41.7783 64.1587 41.8023 64.0567 41.8263 63.9577C41.8533 63.8587 41.8773 63.7507 41.9043 63.6367C41.9313 63.5227 41.9613 63.3997 42.0003 63.2617L42.7773 60.2767H43.8873L44.6943 63.3307C44.7603 63.5767 44.8113 63.7897 44.8533 63.9727C44.8953 64.1557 44.9463 64.3657 45.0033 64.6057H45.0333C45.0603 64.4767 45.0843 64.3567 45.1053 64.2517C45.1293 64.1437 45.1533 64.0387 45.1773 63.9367C45.2043 63.8317 45.2283 63.7267 45.2553 63.6217C45.2823 63.5137 45.3123 63.3937 45.3513 63.2557L46.1283 60.2797H47.1003L45.6123 65.4157H44.3673L43.6953 62.8867C43.6053 62.5297 43.5303 62.2237 43.4703 61.9687C43.4133 61.7137 43.3593 61.4707 43.3143 61.2427H43.2753C43.2483 61.4617 43.2033 61.7167 43.1343 62.0017C43.0653 62.2867 42.9933 62.5807 42.9153 62.8867L42.2433 65.4157H41.0073L39.5103 60.2797L39.5283 60.2767ZM49.8033 65.5087C49.4343 65.5087 49.0953 65.4427 48.7863 65.3107C48.4773 65.1787 48.2133 64.9957 47.9943 64.7617C47.7753 64.5277 47.6043 64.2487 47.4843 63.9247C47.3643 63.6007 47.3043 63.2437 47.3043 62.8537C47.3043 62.4637 47.3703 62.1067 47.4993 61.7797C47.6283 61.4527 47.8053 61.1707 48.0303 60.9337C48.2553 60.6967 48.5193 60.5137 48.8283 60.3787C49.1373 60.2467 49.4703 60.1807 49.8363 60.1807C50.2383 60.1807 50.5953 60.2557 50.9073 60.4087C51.2193 60.5617 51.4773 60.7657 51.6813 61.0207C51.8853 61.2757 52.0353 61.5787 52.1343 61.9267C52.2303 62.2747 52.2693 62.6407 52.2513 63.0307H48.2643C48.2703 63.2827 48.3183 63.5107 48.4053 63.7177C48.4923 63.9217 48.6093 64.0927 48.7563 64.2337C48.9033 64.3717 49.0683 64.4827 49.2573 64.5607C49.4463 64.6387 49.6473 64.6777 49.8603 64.6777C50.1903 64.6777 50.4723 64.6087 50.7003 64.4677C50.9313 64.3297 51.1113 64.1257 51.2403 63.8587H52.1643C52.0803 64.1107 51.9603 64.3387 51.8103 64.5397C51.6573 64.7407 51.4803 64.9147 51.2763 65.0587C51.0723 65.2057 50.8443 65.3167 50.5953 65.3947C50.3463 65.4727 50.0853 65.5117 49.8123 65.5117L49.8033 65.5087ZM51.2913 62.3017C51.2403 61.9177 51.0933 61.6027 50.8473 61.3537C50.6043 61.1047 50.2653 60.9787 49.8303 60.9787C49.6233 60.9787 49.4313 61.0117 49.2573 61.0807C49.0833 61.1497 48.9273 61.2427 48.7893 61.3567C48.6513 61.4707 48.5403 61.6117 48.4533 61.7737C48.3663 61.9357 48.3093 62.1097 48.2823 62.2987H51.2883L51.2913 62.3017ZM53.1153 60.2767H53.9913L54.0213 61.0747H54.0513C54.2133 60.8017 54.4113 60.6007 54.6483 60.4717C54.8853 60.3427 55.1583 60.2767 55.4703 60.2767H55.7733V61.2187H55.3173C55.1673 61.2187 55.0203 61.2427 54.8703 61.2877C54.7203 61.3327 54.5853 61.4137 54.4653 61.5247C54.3453 61.6387 54.2493 61.7917 54.1743 61.9867C54.0993 62.1817 54.0633 62.4307 54.0633 62.7367V65.4127H53.1213V60.2767H53.1153ZM58.4973 65.5087C58.1283 65.5087 57.7893 65.4427 57.4803 65.3107C57.1713 65.1787 56.9073 64.9957 56.6883 64.7617C56.4693 64.5277 56.2983 64.2487 56.1783 63.9247C56.0583 63.6007 55.9983 63.2437 55.9983 62.8537C55.9983 62.4637 56.0643 62.1067 56.1933 61.7797C56.3223 61.4527 56.4993 61.1707 56.7243 60.9337C56.9493 60.6967 57.2133 60.5137 57.5223 60.3787C57.8313 60.2467 58.1643 60.1807 58.5303 60.1807C58.9323 60.1807 59.2893 60.2557 59.6013 60.4087C59.9133 60.5617 60.1713 60.7657 60.3753 61.0207C60.5793 61.2757 60.7293 61.5787 60.8283 61.9267C60.9243 62.2747 60.9633 62.6407 60.9453 63.0307H56.9583C56.9643 63.2827 57.0123 63.5107 57.0993 63.7177C57.1863 63.9217 57.3033 64.0927 57.4503 64.2337C57.5973 64.3717 57.7623 64.4827 57.9513 64.5607C58.1403 64.6387 58.3413 64.6777 58.5543 64.6777C58.8843 64.6777 59.1663 64.6087 59.3943 64.4677C59.6253 64.3297 59.8053 64.1257 59.9343 63.8587H60.8583C60.7743 64.1107 60.6543 64.3387 60.5043 64.5397C60.3513 64.7407 60.1743 64.9147 59.9703 65.0587C59.7663 65.2057 59.5383 65.3167 59.2893 65.3947C59.0403 65.4727 58.7793 65.5117 58.5063 65.5117L58.4973 65.5087ZM59.9853 62.3017C59.9343 61.9177 59.7873 61.6027 59.5413 61.3537C59.2983 61.1047 58.9593 60.9787 58.5243 60.9787C58.3173 60.9787 58.1253 61.0117 57.9513 61.0807C57.7773 61.1497 57.6213 61.2427 57.4833 61.3567C57.3453 61.4707 57.2343 61.6117 57.1473 61.7737C57.0603 61.9357 57.0033 62.1097 56.9763 62.2987H59.9823L59.9853 62.3017ZM64.0623 65.5087C63.6723 65.5087 63.3213 65.4427 63.0063 65.3137C62.6913 65.1847 62.4243 65.0017 62.2053 64.7647C61.9863 64.5277 61.8153 64.2487 61.6953 63.9247C61.5753 63.6007 61.5153 63.2437 61.5153 62.8537C61.5153 62.4397 61.5813 62.0647 61.7133 61.7347C61.8453 61.4047 62.0283 61.1227 62.2623 60.8947C62.4963 60.6637 62.7693 60.4867 63.0783 60.3637C63.3873 60.2407 63.7263 60.1777 64.0893 60.1777C64.7823 60.1777 65.3313 60.3727 65.7333 60.7627V58.2637H66.6573V65.4127H65.8113L65.7543 64.8277C65.5473 65.0467 65.3013 65.2177 65.0163 65.3347C64.7313 65.4517 64.4133 65.5087 64.0623 65.5087ZM64.1793 64.6747C64.6863 64.6747 65.0793 64.5067 65.3673 64.1707C65.6523 63.8347 65.7963 63.3967 65.7963 62.8537C65.7963 62.5837 65.7603 62.3347 65.6853 62.1097C65.6103 61.8847 65.5023 61.6897 65.3583 61.5307C65.2143 61.3687 65.0433 61.2427 64.8423 61.1527C64.6413 61.0627 64.4133 61.0177 64.1613 61.0177C63.9093 61.0177 63.6813 61.0627 63.4743 61.1527C63.2673 61.2427 63.0963 61.3687 62.9493 61.5307C62.8023 61.6927 62.6913 61.8847 62.6133 62.1097C62.5353 62.3347 62.4963 62.5837 62.4963 62.8537C62.4963 63.1237 62.5353 63.3727 62.6193 63.5947C62.7003 63.8167 62.8143 64.0087 62.9643 64.1707C63.1143 64.3327 63.2913 64.4557 63.4983 64.5427C63.7053 64.6297 63.9333 64.6747 64.1793 64.6747Z" fill="url(#paint1_radial_1394_10946)"/>
<path d="M38.2442 29.2207L28.4492 52.6747H32.0372L33.7622 48.3967H46.4912L48.1802 52.6747H51.7682L41.9732 29.2207H38.2472H38.2442ZM45.3152 45.4657H34.9322L36.0002 42.7747H44.2082L45.3122 45.4657H45.3152ZM43.1432 40.0177H37.1072L37.7282 38.4997C38.7272 36.0157 39.5912 33.9457 40.1072 32.3947C40.6592 33.9457 41.5202 36.0157 42.5222 38.4997L43.1432 40.0177Z" fill="url(#paint2_linear_1394_10946)"/>
<path d="M58.1974 34.4609H54.8164V52.6739H58.1974V34.4609Z" fill="url(#paint3_linear_1394_10946)"/>
<path d="M59.826 28.3342C58.2 28.0072 56.919 26.7233 56.592 25.0973C56.583 25.0583 56.55 25.0312 56.511 25.0312C56.472 25.0312 56.439 25.0583 56.43 25.0973C56.103 26.7233 54.819 28.0042 53.193 28.3312C53.154 28.3402 53.127 28.3732 53.127 28.4122C53.127 28.4512 53.154 28.4843 53.193 28.4933C54.819 28.8203 56.1 30.1042 56.427 31.7302C56.436 31.7692 56.469 31.7962 56.508 31.7962C56.547 31.7962 56.58 31.7692 56.589 31.7302C56.916 30.1042 58.2 28.8232 59.826 28.4962C59.865 28.4872 59.892 28.4542 59.892 28.4152C59.892 28.3762 59.865 28.3432 59.826 28.3342Z" fill="url(#paint4_linear_1394_10946)"/>
<path d="M67.4524 22.329C65.0134 21.837 63.0904 19.914 62.6014 17.475C62.5894 17.418 62.5384 17.373 62.4784 17.373C62.4184 17.373 62.3674 17.415 62.3554 17.475C61.8634 19.914 59.9404 21.837 57.5014 22.326C57.4444 22.338 57.3994 22.389 57.3994 22.449C57.3994 22.509 57.4414 22.56 57.5014 22.572C59.9404 23.064 61.8634 24.987 62.3524 27.426C62.3644 27.483 62.4154 27.528 62.4754 27.528C62.5354 27.528 62.5864 27.486 62.5984 27.426C63.0904 24.987 65.0134 23.064 67.4524 22.575C67.5094 22.563 67.5544 22.512 67.5544 22.452C67.5544 22.392 67.5124 22.341 67.4524 22.329Z" fill="url(#paint5_linear_1394_10946)"/>
<defs>
<linearGradient id="paint0_linear_1394_10946" x1="22.3781" y1="80.7593" x2="68.9902" y2="-0.475642" gradientUnits="userSpaceOnUse">
<stop stop-color="#00204D"/>
<stop offset="0.5" stop-color="#3849E0"/>
<stop offset="1" stop-color="#FC2DF1"/>
</linearGradient>
<radialGradient id="paint1_radial_1394_10946" cx="0" cy="0" r="1" gradientUnits="userSpaceOnUse" gradientTransform="translate(64.9143 28.7527) scale(60.681 60.681)">
<stop stop-color="#FF0067"/>
<stop offset="0.15" stop-color="#C223D6"/>
<stop offset="0.43" stop-color="#5757FF"/>
<stop offset="0.91" stop-color="#00204D"/>
</radialGradient>
<linearGradient id="paint2_linear_1394_10946" x1="35.7182" y1="57.0337" x2="63.7652" y2="8.45471" gradientUnits="userSpaceOnUse">
<stop stop-color="#00204D"/>
<stop offset="0.5" stop-color="#3849E0"/>
<stop offset="1" stop-color="#FC2DF1"/>
</linearGradient>
<linearGradient id="paint3_linear_1394_10946" x1="40.6354" y1="71.0579" x2="72.1684" y2="16.4459" gradientUnits="userSpaceOnUse">
<stop stop-color="#00204D"/>
<stop offset="0.5" stop-color="#3849E0"/>
<stop offset="1" stop-color="#FC2DF1"/>
</linearGradient>
<linearGradient id="paint4_linear_1394_10946" x1="34.701" y1="66.1852" x2="66.0719" y2="11.8492" gradientUnits="userSpaceOnUse">
<stop stop-color="#00204D"/>
<stop offset="0.5" stop-color="#3849E0"/>
<stop offset="1" stop-color="#FC2DF1"/>
</linearGradient>
<linearGradient id="paint5_linear_1394_10946" x1="35.7274" y1="68.778" x2="67.0984" y2="14.4421" gradientUnits="userSpaceOnUse">
<stop stop-color="#00204D"/>
<stop offset="0.5" stop-color="#3849E0"/>
<stop offset="1" stop-color="#FC2DF1"/>
</linearGradient>
</defs>
</svg>
