<svg width="48" height="48" viewBox="0 0 48 48" fill="none" xmlns="http://www.w3.org/2000/svg">
<path d="M41.0498 4.96777L24 2.30664L6.9502 4.96777V28.2598C6.9502 33.933 10.218 39.1006 15.3506 41.5381L24 45.6465L32.6494 41.5381C37.7808 39.1006 41.0498 33.933 41.0498 28.2598V4.96777ZM42.0498 28.2598C42.0498 34.3198 38.5578 39.8386 33.0781 42.4414L24.2148 46.6523L24 46.7539L14.9219 42.4414C9.44082 39.8386 5.9502 34.3196 5.9502 28.2598V4.1123L23.9229 1.30664L24 1.29492L24.0771 1.30664L42.0498 4.1123V28.2598Z" fill="url(#paint0_linear_1394_10942)"/>
<path d="M23.1459 28.2381C20.4402 27.6932 18.3095 25.5606 17.7665 22.853C17.7533 22.7892 17.697 22.7422 17.6312 22.7422C17.5654 22.7422 17.5091 22.7892 17.4959 22.853C16.951 25.5587 14.8184 27.6894 12.1109 28.2325C12.047 28.2456 12 28.302 12 28.3677C12 28.4335 12.047 28.4899 12.1109 28.503C14.8165 29.0479 16.9473 31.1805 17.4903 33.8881C17.5034 33.952 17.5598 33.9989 17.6256 33.9989C17.6913 33.9989 17.7477 33.952 17.7608 33.8881C18.3057 31.1824 20.4383 29.0517 23.1459 28.5068C23.2098 28.4936 23.2567 28.4373 23.2567 28.3715C23.2567 28.3057 23.2098 28.2494 23.1459 28.2362V28.2381Z" fill="url(#paint1_linear_1394_10942)"/>
<path d="M35.8328 18.2448C31.7743 17.4256 28.5782 14.2276 27.7627 10.1672C27.7439 10.0695 27.6594 10 27.5598 10C27.4602 10 27.3757 10.0695 27.3569 10.1672C26.5395 14.2257 23.3397 17.4218 19.2793 18.2373C19.1816 18.2561 19.1121 18.3406 19.1121 18.4402C19.1121 18.5398 19.1816 18.6243 19.2793 18.6431C23.3378 19.4624 26.5339 22.6603 27.3493 26.7207C27.3681 26.8184 27.4527 26.8879 27.5523 26.8879C27.6519 26.8879 27.7364 26.8184 27.7552 26.7207C28.5725 22.6622 31.7724 19.4661 35.8328 18.6507C35.9305 18.6319 36 18.5473 36 18.4477C36 18.3481 35.9305 18.2636 35.8328 18.2448Z" fill="url(#paint2_linear_1394_10942)"/>
<defs>
<linearGradient id="paint0_linear_1394_10942" x1="11.189" y1="40.3802" x2="34.4948" y2="-0.236772" gradientUnits="userSpaceOnUse">
<stop stop-color="#00204D"/>
<stop offset="0.5" stop-color="#3849E0"/>
<stop offset="1" stop-color="#FC2DF1"/>
</linearGradient>
<linearGradient id="paint1_linear_1394_10942" x1="10.6321" y1="40.1938" x2="27.956" y2="10.918" gradientUnits="userSpaceOnUse">
<stop stop-color="#00204D"/>
<stop offset="0.13" stop-color="#0C296D"/>
<stop offset="0.4" stop-color="#2C40C0"/>
<stop offset="0.5" stop-color="#3849E0"/>
<stop offset="0.83" stop-color="#B736EB"/>
<stop offset="1" stop-color="#FC2DF1"/>
</linearGradient>
<linearGradient id="paint2_linear_1394_10942" x1="13.6331" y1="41.9702" x2="30.9588" y2="12.6944" gradientUnits="userSpaceOnUse">
<stop stop-color="#00204D"/>
<stop offset="0.13" stop-color="#0C296D"/>
<stop offset="0.4" stop-color="#2C40C0"/>
<stop offset="0.5" stop-color="#3849E0"/>
<stop offset="0.83" stop-color="#B736EB"/>
<stop offset="1" stop-color="#FC2DF1"/>
</linearGradient>
</defs>
</svg>
