<svg width="48" height="48" viewBox="0 0 48 48" fill="none" xmlns="http://www.w3.org/2000/svg">
<path d="M12.06 14.6016L0.0725098 43.3066H4.46251L6.57251 38.0716H22.15L24.2175 43.3066H28.6075L16.62 14.6016H12.06ZM20.715 34.4841H8.01001L9.31751 31.1916H19.365L20.715 34.4841ZM18.055 27.8141H10.6675L11.4275 25.9566C12.6525 22.9166 13.7075 20.3841 14.34 18.4841C15.015 20.3841 16.07 22.9166 17.295 25.9566L18.055 27.8141Z" fill="url(#paint0_linear_1394_10969)"/>
<path d="M36.48 21.0176H32.3425V43.3051H36.48V21.0176Z" fill="url(#paint1_linear_1394_10969)"/>
<path d="M38.4725 13.5191C36.4825 13.1166 34.915 11.5491 34.515 9.55906C34.505 9.51156 34.465 9.47656 34.415 9.47656C34.3675 9.47656 34.325 9.51156 34.315 9.55906C33.915 11.5491 32.345 13.1166 30.355 13.5166C30.3075 13.5266 30.2725 13.5666 30.2725 13.6166C30.2725 13.6666 30.3075 13.7066 30.355 13.7166C32.345 14.1191 33.9125 15.6866 34.3125 17.6766C34.3225 17.7241 34.3625 17.7591 34.4125 17.7591C34.46 17.7591 34.5025 17.7241 34.5125 17.6766C34.9125 15.6866 36.4825 14.1191 38.4725 13.7191C38.52 13.7091 38.555 13.6691 38.555 13.6191C38.555 13.5691 38.52 13.5291 38.4725 13.5191Z" fill="url(#paint2_linear_1394_10969)"/>
<path d="M47.8049 6.16656C44.8199 5.56406 42.4674 3.21156 41.8674 0.224063C41.8524 0.151563 41.7899 0.101562 41.7174 0.101562C41.6449 0.101562 41.5824 0.154063 41.5674 0.224063C40.9649 3.20906 38.6124 5.56156 35.6249 6.16156C35.5524 6.17656 35.5024 6.23906 35.5024 6.31156C35.5024 6.38406 35.5549 6.44656 35.6249 6.46156C38.6099 7.06406 40.9624 9.41656 41.5624 12.4041C41.5774 12.4766 41.6399 12.5266 41.7124 12.5266C41.7849 12.5266 41.8474 12.4741 41.8624 12.4041C42.4649 9.41906 44.8174 7.06656 47.8049 6.46656C47.8774 6.45156 47.9274 6.38906 47.9274 6.31656C47.9274 6.24406 47.8749 6.18156 47.8049 6.16656Z" fill="url(#paint3_linear_1394_10969)"/>
<defs>
<linearGradient id="paint0_linear_1394_10969" x1="45.6075" y1="3.68156" x2="3.54501" y2="45.7416" gradientUnits="userSpaceOnUse">
<stop stop-color="#FC2DF1"/>
<stop offset="0.19" stop-color="#FD7FF6"/>
<stop offset="0.5" stop-color="white"/>
<stop offset="1" stop-color="white"/>
</linearGradient>
<linearGradient id="paint1_linear_1394_10969" x1="54.25" y1="12.3251" x2="12.19" y2="54.3851" gradientUnits="userSpaceOnUse">
<stop stop-color="#FC2DF1"/>
<stop offset="0.19" stop-color="#FD7FF6"/>
<stop offset="0.5" stop-color="white"/>
<stop offset="1" stop-color="white"/>
</linearGradient>
<linearGradient id="paint2_linear_1394_10969" x1="44.9775" y1="3.05156" x2="2.91747" y2="45.1141" gradientUnits="userSpaceOnUse">
<stop stop-color="#FC2DF1"/>
<stop offset="0.19" stop-color="#FD7FF6"/>
<stop offset="0.5" stop-color="white"/>
<stop offset="1" stop-color="white"/>
</linearGradient>
<linearGradient id="paint3_linear_1394_10969" x1="44.9774" y1="3.05156" x2="2.91744" y2="45.1141" gradientUnits="userSpaceOnUse">
<stop stop-color="#FC2DF1"/>
<stop offset="0.19" stop-color="#FD7FF6"/>
<stop offset="0.5" stop-color="white"/>
<stop offset="1" stop-color="white"/>
</linearGradient>
</defs>
</svg>
