<svg xmlns="http://www.w3.org/2000/svg" fill="none" viewBox="0 0 32 32"><path fill="currentColor" fill-rule="evenodd" d="M3 16c0 7.1797 5.8203 13 13 13s13-5.8203 13-13S23.1797 3 16 3 3 8.8203 3 16m7.5444 6.9775c-1.0132.1562-1.8239.3976-2.4322.6895C6.1862 21.6858 5 18.9814 5 16 5 9.9249 9.9249 5 16 5s11 4.9249 11 11c0 2.9814-1.1861 5.6858-3.1122 7.667-.6083-.2919-1.419-.5333-2.4322-.6895q-2.8115-.4337-2.9481-2.0211v-2.1603C19.4177 17.8852 20 16.6768 20 15.9847q1-.4933 1-2.0077-.0609-.6316-.6892-.9011c.1179-.5266.2054-1.2154.2054-2.1283q-.0655-2.6546-2.2708-2.9677-.8847-1.1253-2.7558-.9583c-3.2479.3286-3.7699 2.2394-3.9582 3.4553q-.1049 1.529.111 2.62-.5839.2724-.6424.8801 0 1.5144 1 2.0077c0 .6921.5823 1.9005 1.4925 2.8114v2.1603q-.1366 1.5874-2.9481 2.0211" clip-rule="evenodd"/></svg>