<svg xmlns="http://www.w3.org/2000/svg" fill="none" viewBox="0 0 16 16"><path fill="currentColor" d="M8.021 6.195h-.041l-.045.128-.874 2.038h1.879l-.871-2.038zM6.716 9.147l-.287.654h3.144l-.287-.654z"/><path fill="currentColor" fill-rule="evenodd" d="M14 6.25c0 .4783-.0609.9416-.175 1.382C15.1066 8.232 16 9.5813 16 11.15c0 2.1263-1.6416 3.85-3.6667 3.85H3c-1.6568 0-3-1.4103-3-3.15 0-1.1689.6063-2.189 1.5068-2.7327A3.66 3.66 0 0 1 1.3333 8c0-1.7944 1.2861-3.2735 2.9433-3.4763C4.9566 2.4723 6.8146 1 9 1c2.7614 0 5 2.3505 5 5.25M4.5 12l3.075-7h.85l3.075 7h-.9805l-.6027-1.4131H6.0832L5.4805 12z" clip-rule="evenodd"/></svg>