<svg xmlns="http://www.w3.org/2000/svg" fill="none" viewBox="0 0 72 72"><path fill="url(#acronis-cloud-ill--72-a)" d="M64 34.5c0 .7735-.0374 1.5382-.1104 2.2925C68.6278 38.5698 72 43.1411 72 48.5c0 6.7361-5.3282 12.2277-12 12.4902V61H11C4.9249 61 0 56.0751 0 50c0-4.8648 3.158-8.992 7.5358-10.4434C7.1876 38.4328 7 37.2383 7 36c0-6.6274 5.3726-12 12-12q.2341 0 .466.0089C23.3203 16.2963 31.2916 11 40.5 11 53.4787 11 64 21.5213 64 34.5"/><path fill="url(#acronis-cloud-ill--72-b)" d="M63.9161 32.5001a24 24 0 0 1-.0265.2924l.0507.0191a25 25 0 0 0-.0242-.3115"/><path fill="url(#acronis-cloud-ill--72-c)" d="M71.8409 46.5C70.9093 52.2927 65.9975 56.7542 60 56.9902V57H11C5.6079 57 1.1219 53.1202.1814 48A11.06 11.06 0 0 0 0 50c0 6.0751 4.9249 11 11 11h49v-.0098c6.6718-.2625 12-5.7541 12-12.4902 0-.6808-.0544-1.3488-.1591-2"/><path fill="url(#acronis-cloud-ill--72-d)" d="M7.0026 35.7489a11 11 0 0 1 .5332-.1923A11.9 11.9 0 0 1 7.166 34a12.06 12.06 0 0 0-.1633 1.7489"/><path fill="url(#acronis-cloud-ill--72-e)" d="M71.9109 47C71.1893 53.0341 66.169 57.7475 60 57.9902V58H11C5.4337 58 .833 53.8655.1014 48.5A11.1 11.1 0 0 0 0 50c0 6.0751 4.9249 11 11 11h49v-.0098c6.6718-.2625 12-5.7541 12-12.4902a12.6 12.6 0 0 0-.0891-1.5"/><path fill="#61cbfa" d="M71.9606 47.4999C71.4641 53.7718 66.3384 58.7407 60 58.9901v.0098H11c-5.738 0-10.45-4.3935-10.9552-10a11.1 11.1 0 0 0-.0448 1c0 6.0752 4.9249 11 11 11h49v-.0098c6.6718-.2624 12-5.754 12-12.4902q-.0001-.505-.0394-1"/><path fill="#54c5fb" d="M71.9902 47.9999C71.7343 54.5059 66.5059 59.7342 60 59.9901v.0098H11c-5.9076 0-10.7274-4.6569-10.9888-10.5a11 11 0 0 0-.0112.5c0 6.0752 4.9249 11 11 11h49v-.0098c6.6718-.2624 12-5.754 12-12.4902q0-.2511-.0098-.5"/><path fill="url(#acronis-cloud-ill--72-f)" d="M57.6095 18.3905C53.4029 14.4282 47.735 12 41.5 12 28.5213 12 18 22.5213 18 35.5c0 6.235 2.4282 11.9029 6.3905 16.1095C19.8406 47.324 17 41.2437 17 34.5 17 21.5213 27.5213 11 40.5 11c6.7437 0 12.824 2.8406 17.1095 7.3905" opacity=".6"/><path fill="url(#acronis-cloud-ill--72-g)" d="M71.9902 49Q72 48.7512 72 48.5C72 41.5964 66.4036 36 59.5 36S47 41.5964 47 48.5q0 .2512.0098.5c.2625-6.6718 5.7541-12 12.4902-12s12.2277 5.3282 12.4902 12" opacity=".8"/><path fill="url(#acronis-cloud-ill--72-h)" d="M27 47h2.7692l1.3314-3.2824h9.8254L42.2308 47H45l-7.5621-18h-2.8758zm6.6834-9.7147.4793-1.1647c.7722-1.9059 1.4379-3.4941 1.8373-4.6853.426 1.1912 1.0917 2.7794 1.8639 4.6853l.4793 1.1647zm-1.6775 4.1823.8255-2.0647h6.3372l.8521 2.0647z"/><defs><linearGradient id="acronis-cloud-ill--72-a" x1="72" x2="0" y1="11" y2="61" gradientUnits="userSpaceOnUse"><stop stop-color="#6accfc"/><stop offset="1" stop-color="#8addfe"/></linearGradient><linearGradient id="acronis-cloud-ill--72-b" x1="37.5" x2="37.5" y1="61" y2="46" gradientUnits="userSpaceOnUse"><stop stop-color="#73d3fd"/><stop offset="1" stop-color="#73d3fd" stop-opacity="0"/></linearGradient><linearGradient id="acronis-cloud-ill--72-c" x1="37.5" x2="37.5" y1="61" y2="46" gradientUnits="userSpaceOnUse"><stop stop-color="#73d3fd"/><stop offset="1" stop-color="#73d3fd" stop-opacity="0"/></linearGradient><linearGradient id="acronis-cloud-ill--72-d" x1="37.5" x2="37.5" y1="61" y2="46" gradientUnits="userSpaceOnUse"><stop stop-color="#73d3fd"/><stop offset="1" stop-color="#73d3fd" stop-opacity="0"/></linearGradient><linearGradient id="acronis-cloud-ill--72-e" x1="36" x2="36" y1="47" y2="59" gradientUnits="userSpaceOnUse"><stop stop-color="#6ad0fd"/><stop offset="1" stop-color="#6ad0fd"/></linearGradient><linearGradient id="acronis-cloud-ill--72-f" x1="37.3048" x2="37.3048" y1="11" y2="41.5" gradientUnits="userSpaceOnUse"><stop stop-color="#fff"/><stop offset="1" stop-color="#fff" stop-opacity="0"/></linearGradient><linearGradient id="acronis-cloud-ill--72-g" x1="72" x2="47" y1="49" y2="49" gradientUnits="userSpaceOnUse"><stop stop-color="#fff"/><stop offset="1" stop-color="#fff" stop-opacity="0"/></linearGradient><linearGradient id="acronis-cloud-ill--72-h" x1="37" x2="36.5" y1="47" y2="29" gradientUnits="userSpaceOnUse"><stop stop-color="#1f4880"/><stop offset="1" stop-color="#215094"/></linearGradient></defs></svg>