<svg xmlns="http://www.w3.org/2000/svg" fill="none" viewBox="0 0 24 24"><path fill="currentColor" d="M12 2C7.5 2 5 4.791 5 7v.139c.589.257 1 .845 1 1.528V12c0 .921-.746 1.667-1.667 1.667C2.492 13.667 1 12.174 1 10.333c0-1.367.823-2.542 2-3.056V7c0-3.314 4-7 9-7s9 3.686 9 7v.277c1.177.514 2 1.689 2 3.056 0 1.305-.749 2.434-1.841 2.982C20.479 13.111 19.753 13 19 13c-.342 0-.679.023-1.008.067A.7.7 0 0 0 18 12.96v-4.293c0-.683.411-1.271 1-1.528V7c0-2.209-2.5-5-7-5M12.123 18.279c-.705.014-1.422-.093-1.959-.322l-1.236-.527c-.515-.219-1.347-.246-1.865-.062L3.422 18.661C2.642 18.938 2 19.839 2 20.669v1.337C2 23.113 2.891 24 3.991 24h9.958c-.595-.575-1.077-1.252-1.412-2H4v-1.331c0 .02.105-.128.091-.123l3.641-1.292c.044-.016.358-.005.412.018l1.236.527c.77.328 1.722.489 2.67.483a6.11 6.11 0 0 1 .073-2.001"/><path fill="currentColor" fill-rule="evenodd" d="M12 16c2.961 0 5-3.345 5-8.185C17 3.98 12 4 12 4s-5-.02-5 3.815C7 12.655 9.048 16 12 16m1.79-9.661C14.644 6.663 15 7.072 15 7.815 15 11.695 13.593 14 12 14c-1.588 0-3-2.31-3-6.185 0-.743.356-1.152 1.21-1.476.379-.144.809-.242 1.244-.296.262-.033.457-.043.551-.043.085 0 .28.01.542.043.435.055.865.152 1.244.296M22.866 18.258c.503-.181 1.028.151 1.094.638.027.201.04.404.04.604s-.014.403-.04.604c-.053.393-.399.69-.805.69a.83.83 0 0 1-.284-.05c-.209-.076-.419.031-.505.215a3.53 3.53 0 0 1-.372.622c-.129.173-.105.399.056.527.192.153.299.377.294.616-.005.243-.124.466-.326.614-.332.243-.695.445-1.078.6a.85.85 0 0 1-.322.063c-.399 0-.736-.273-.801-.65-.034-.198-.229-.331-.448-.31a3.67 3.67 0 0 1-.74 0c-.219-.021-.414.112-.448.31-.065.377-.402.65-.801.65a.86.86 0 0 1-.322-.063 5.06 5.06 0 0 1-1.078-.6c-.202-.148-.321-.371-.326-.614-.005-.239.102-.463.294-.615.16-.128.185-.354.056-.527a3.53 3.53 0 0 1-.371-.622c-.085-.183-.312-.285-.5-.216-.504.181-1.029-.152-1.094-.638A4.6 4.6 0 0 1 14 19.5c0-.201.014-.405.04-.604.053-.393.399-.689.805-.689a.84.84 0 0 1 .284.05c.21.076.42-.032.504-.215a3.54 3.54 0 0 1 .372-.622c.129-.173.105-.399-.056-.526-.192-.153-.299-.377-.294-.616.005-.243.124-.466.325-.614a5.04 5.04 0 0 1 1.078-.6.85.85 0 0 1 .322-.063c.399 0 .736.274.801.65.034.198.23.333.448.31a3.67 3.67 0 0 1 .74 0c.219.023.414-.112.448-.31.065-.377.402-.65.801-.65a.86.86 0 0 1 .322.063 5.06 5.06 0 0 1 1.078.6c.202.148.321.371.326.614.005.239-.102.463-.294.615-.16.128-.185.354-.056.527.145.194.27.404.371.622.085.183.312.285.5.216M17.5 19.5c0 .827.673 1.5 1.5 1.5s1.5-.673 1.5-1.5S19.827 18 19 18s-1.5.673-1.5 1.5" clip-rule="evenodd"/></svg>