<svg xmlns="http://www.w3.org/2000/svg" fill="none" viewBox="0 0 32 32"><path fill="currentColor" d="M19.66 18.911h-7.314l.582-1.281h6.149zM18.168 15.63a9875 9875 0 0 0-2.167-4.758l-2.163 4.759z"/><path fill="currentColor" fill-rule="evenodd" d="M3 2c-.5523 0-1 .4477-1 1v26c0 .5523.4477 1 1 1h26c.5523 0 1-.4477 1-1V3c0-.5523-.4477-1-1-1zm18.9495 21.9576h2.1952c-2.3763-5.2582-4.7703-10.5083-7.1643-15.7584l-.0715-.1567-1.8201.0013-7.2336 15.9138h2.1969l1.385-3.0469h9.1312c.4788 1.0548.9461 2.0856 1.3812 3.0469" clip-rule="evenodd"/></svg>