<svg xmlns="http://www.w3.org/2000/svg" fill="none" viewBox="0 0 32 32"><path fill="currentColor" d="m30 16-5-5-5 5v2.5l3.86-3.86A7.7 7.7 0 0 1 24 16c-.0055 3.2314-1.9546 6.1422-4.9404 7.3781s-6.4219.5541-8.7096-1.7281l-1.42 1.42c2.8599 2.8591 7.1604 3.7142 10.8965 2.1668C23.5627 23.6893 25.9991 20.044 26 16a9.6 9.6 0 0 0-.17-1.69L30 18.36zm-18-2.36-3.86 3.75A7.7 7.7 0 0 1 8 16c.0055-3.2314 1.9546-6.1423 4.9404-7.3781s6.4219-.5541 8.7096 1.7281l1.41-1.41c-2.8596-2.8507-7.153-3.702-10.8839-2.158S6.0089 11.9623 6 16a9.6 9.6 0 0 0 .16 1.66L2 13.5V16l5 5 5-5z"/></svg>