<svg xmlns="http://www.w3.org/2000/svg" fill="none" viewBox="0 0 16 16"><path fill="currentColor" fill-rule="evenodd" d="M6 2c0 .279.0572.5448.1604.7861l-3.921 5.228A2 2 0 0 0 2 8c-1.1046 0-2 .8954-2 2s.8954 2 2 2c.3185 0 .6196-.0745.8869-.2069l3.1172 2.0781A2 2 0 0 0 6 14c0 1.1046.8954 2 2 2s2-.8954 2-2q0-.065-.004-.1288l3.1171-2.0781c.2673.1324.5684.2069.8869.2069 1.1046 0 2-.8954 2-2s-.8954-2-2-2q-.1216 0-.2394.0142l-3.921-5.228A1.99 1.99 0 0 0 10 2c0-1.1046-.8954-2-2-2S6 .8954 6 2m1 3L3.8396 9.2139a1.99 1.99 0 0 1 .1563.9148L7 12.1315zm2 7.1315 3.0041-2.0028a1.9945 1.9945 0 0 1 .1563-.9148L9 4.9999z" clip-rule="evenodd"/></svg>