<svg xmlns="http://www.w3.org/2000/svg" fill="none" viewBox="0 0 24 24"><path fill="currentColor" fill-rule="evenodd" d="M13.5656 4.2447A1.992 1.992 0 0 0 14 3c0-1.1046-.8954-2-2-2s-2 .8954-2 2c0 .4705.1625.9031.4344 1.2447l-7.2982 8.1091A1.99 1.99 0 0 0 2 12c-1.1046 0-2 .8954-2 2s.8954 2 2 2a1.993 1.993 0 0 0 1.3753-.5479l6.873 4.5819A1.99 1.99 0 0 0 10 21c0 1.1046.8954 2 2 2s2-.8954 2-2c0-.3503-.0901-.6796-.2483-.966l6.873-4.5819A1.993 1.993 0 0 0 22 16c1.1046 0 2-.8954 2-2s-.8954-2-2-2c-.422 0-.8135.1307-1.1362.3538zM13 18.1315l6.4831-4.3221L13 6.6059zm-2 0V6.6059l-6.4831 7.2035z" clip-rule="evenodd"/></svg>