<svg xmlns="http://www.w3.org/2000/svg" fill="none" viewBox="0 0 16 16"><path fill="currentColor" d="M6.4958 8H7v2.4988c0 .2768.222.5012.4957.5012a.494.494 0 0 0 .4104-.2201l2.0085-2.9977c.1536-.2291.0943-.5407-.1324-.696A.49.49 0 0 0 9.5042 7H9V4.5012C9 4.2244 8.778 4 8.5043 4a.494.494 0 0 0-.4104.22L6.0854 7.2179c-.1536.2291-.0943.5407.1323.696A.49.49 0 0 0 6.4957 8"/><path fill="currentColor" fill-rule="evenodd" d="M15 10.527q0 2.9817-6.659 5.4127a.994.994 0 0 1-.682 0Q1 13.5087 1 10.527V2.7317c0-.4494.296-.8443.7253-.9677l6-1.7253a.994.994 0 0 1 .5494 0l6 1.7253c.4293.1234.7253.5183.7253.9677zM8 2 3 3.4537v7.1146C3 11.3935 4.5267 12.674 8 14c3.4733-1.326 5-2.6065 5-3.4317V3.4537z" clip-rule="evenodd"/></svg>