<svg xmlns="http://www.w3.org/2000/svg" fill="none" viewBox="0 0 32 32"><path fill="currentColor" d="M7.342 8.1935C7.7246 6.3342 9.3614 5 11.2597 5h9.4792c1.8982 0 3.535 1.334 3.9178 3.1933l1.5382 7.4702C25.2164 15.2367 24.1359 15 23 15c-2.5264 0-4.7793 1.1711-6.2454 3h-8.255c-1.259 0-2.4276.3879-3.3927 1.0507z"/><path fill="currentColor" fill-rule="evenodd" d="M15 23c0-1.061.207-2.074.582-3H8c-2.209 0-4 1.791-4 4s1.791 4 4 4h8.755C15.657 26.63 15 24.892 15 23m-8 1c0-.552.448-1 1-1h3c.552 0 1 .448 1 1s-.448 1-1 1H8c-.552 0-1-.448-1-1M29 23c0 3.314-2.686 6-6 6s-6-2.686-6-6 2.686-6 6-6 6 2.686 6 6m-6-4c-.552 0-1 .448-1 1v2h-2c-.552 0-1 .448-1 1s.448 1 1 1h2v2c0 .552.448 1 1 1s1-.448 1-1v-2h2c.552 0 1-.448 1-1s-.448-1-1-1h-2v-2c0-.552-.448-1-1-1" clip-rule="evenodd"/></svg>