<svg xmlns="http://www.w3.org/2000/svg" fill="none" viewBox="0 0 32 32"><path fill="currentColor" d="M3 8.0243 11 1h18v20h-1.9299L27 3H12L5 9v20h14v2H3z"/><path fill="currentColor" d="M17 11h-2v4h-4v2h4v4h2v-4h4v-2h-4zM30.574 26c0 .273-.043.538-.125.79.914.343 1.551 1.114 1.551 2.01 0 1.215-1.17 2.2-2.614 2.2h-6.654c-1.181 0-2.139-.806-2.139-1.8 0-.668.432-1.251 1.074-1.561A1.71 1.71 0 0 1 21.543 27c0-1.025.917-1.871 2.099-1.986C24.126 23.841 25.451 23 27.009 23c1.969 0 3.565 1.343 3.565 3"/></svg>