<svg xmlns="http://www.w3.org/2000/svg" fill="none" viewBox="0 0 24 24"><path fill="currentColor" d="M20.9798 10.5734A8 8 0 0 0 21 10c0-1.921-.6771-3.6839-1.8056-5.063l1.5713-1.5713a.8.8 0 0 0-1.1314-1.1314L18.063 3.8056C16.6839 2.6771 14.921 2 13 2s-3.6839.677-5.063 1.8056L6.3657 2.2343a.8.8 0 0 0-1.1314 1.1314L6.8056 4.937C5.6771 6.3161 5 8.079 5 10c0 .5738.0604 1.1336.1753 1.6732A.75.75 0 0 0 4.5 11.25h-2a.75.75 0 0 0 0 1.5h2a.75.75 0 0 0 .75-.7581 7.975 7.975 0 0 0 1.5556 3.0711l-1.5713 1.5713a.8.8 0 0 0 1.1314 1.1314l1.5713-1.5713a8 8 0 0 0 2.0832 1.2322 7.97 7.97 0 0 1 .2843-1.6202 6.4 6.4 0 0 1-1.229-.7505l1.6902-1.6902a.8.8 0 0 0-1.1314-1.1314l-1.6902 1.6902C7.1017 12.8408 6.6 11.479 6.6 10s.5017-2.8408 1.3441-3.9245l1.6902 1.6902a.8.8 0 0 0 1.1314-1.1314L9.0755 4.9441C10.1592 4.1017 11.521 3.6 13 3.6s2.8408.5017 3.9245 1.3441l-1.6902 1.6902a.8.8 0 0 0 1.1314 1.1314l1.6902-1.6902C18.8983 7.1592 19.4 8.521 19.4 10q0 .061-.0011.1219a7.94 7.94 0 0 1 1.5809.4515"/><path fill="currentColor" d="M13.2191 11.5851A1.6 1.6 0 0 1 13 11.6c-.8837 0-1.6-.7163-1.6-1.6s.7163-1.6 1.6-1.6 1.6.7163 1.6 1.6c0 .3292-.0994.6352-.2699.8895a8 8 0 0 0-1.111.6956"/><path fill="currentColor" fill-rule="evenodd" d="M24 18c0 3.3137-2.6863 6-6 6s-6-2.6863-6-6 2.6863-6 6-6 6 2.6863 6 6m-5 3v-3.5858l1.2929 1.2929c.3905.3905 1.0237.3905 1.4142 0s.3905-1.0237 0-1.4142l-3-3c-.3905-.3905-1.0237-.3905-1.4142 0l-3 3c-.3905.3905-.3905 1.0237 0 1.4142s1.0237.3905 1.4142 0L17 17.4142V21c0 .5523.4477 1 1 1s1-.4477 1-1" clip-rule="evenodd"/><path fill="currentColor" d="M2.5 5.25a.75.75 0 0 0 0 1.5h2a.75.75 0 0 0 0-1.5zM1 8.25a.75.75 0 0 0 0 1.5h2a.75.75 0 0 0 0-1.5zM1 14.25a.75.75 0 0 0 0 1.5h2a.75.75 0 0 0 0-1.5z"/></svg>