<svg xmlns="http://www.w3.org/2000/svg" fill="none" viewBox="0 0 24 24"><path fill="currentColor" d="M22 1H2c-.552 0-1 .448-1 1v12c0 .552.448 1 1 1h8.582a8 8 0 0 1 1.173-2H3V3h18v7.582a8 8 0 0 1 2 1.173V2c0-.552-.448-1-1-1M5 18h5c0 .691.088 1.361.252 2H5c-.552 0-1-.448-1-1s.448-1 1-1"/><path fill="currentColor" d="M4 5c0-.552.448-1 1-1s1 .448 1 1v6c0 .552-.448 1-1 1s-1-.448-1-1zM18 5c0 .552.448 1 1 1s1-.448 1-1-.448-1-1-1-1 .448-1 1M7 5c0-.552.448-1 1-1s1 .448 1 1v6c0 .552-.448 1-1 1s-1-.448-1-1zM10 5c0-.552.448-1 1-1s1 .448 1 1v6c0 .552-.448 1-1 1s-1-.448-1-1z"/><path fill="currentColor" fill-rule="evenodd" d="M24 18c0 3.3137-2.6863 6-6 6s-6-2.6863-6-6 2.6863-6 6-6 6 2.6863 6 6m-5 3v-3.5858l1.2929 1.2929c.3905.3905 1.0237.3905 1.4142 0s.3905-1.0237 0-1.4142l-3-3c-.3905-.3905-1.0237-.3905-1.4142 0l-3 3c-.3905.3905-.3905 1.0237 0 1.4142s1.0237.3905 1.4142 0L17 17.4142V21c0 .5523.4477 1 1 1s1-.4477 1-1" clip-rule="evenodd"/></svg>