<svg xmlns="http://www.w3.org/2000/svg" fill="none" viewBox="0 0 24 24"><path fill="currentColor" d="M4 5c-.552 0-1-.448-1-1s.448-1 1-1 1 .448 1 1-.448 1-1 1M14 4c0 .552.448 1 1 1s1-.448 1-1-.448-1-1-1-1 .448-1 1M17 4c0 .552.448 1 1 1s1-.448 1-1-.448-1-1-1-1 .448-1 1"/><path fill="currentColor" fill-rule="evenodd" d="M.9918 0C.4553 0 0 .444 0 .9918v18.0164C0 19.5447.444 20 .9918 20h9.2602A8.02 8.02 0 0 1 10 18H2v-4h9.0703a8.03 8.03 0 0 1 1.6381-2H2V8h18v2.252a7.95 7.95 0 0 1 2 .8183V.9918C22 .4553 21.556 0 21.0082 0zM20 6H2V2h18z" clip-rule="evenodd"/><path fill="currentColor" d="M14.444 10.832a7.95 7.95 0 0 1 1.521-.571A1 1 0 0 0 16 10c0-.552-.448-1-1-1s-1 .448-1 1a.999.999 0 0 0 .444.832M18 10c.338 0 .671.021.998.062A1 1 0 0 0 19 10c0-.552-.448-1-1-1s-1 .448-1 1q0 .031.002.062A8.1 8.1 0 0 1 18 10M4 11c-.552 0-1-.448-1-1s.448-1 1-1 1 .448 1 1-.448 1-1 1M12 11c-.552 0-1-.448-1-1s.448-1 1-1 1 .448 1 1-.448 1-1 1M4 17c-.552 0-1-.448-1-1s.448-1 1-1 1 .448 1 1-.448 1-1 1"/><path fill="currentColor" fill-rule="evenodd" d="M18 24c3.3137 0 6-2.6863 6-6s-2.6863-6-6-6-6 2.6863-6 6 2.6863 6 6 6m1-6.5858V21c0 .5523-.4477 1-1 1s-1-.4477-1-1v-3.5858l-1.2929 1.2929c-.3905.3905-1.0237.3905-1.4142 0s-.3905-1.0237 0-1.4142l3-3c.3905-.3905 1.0237-.3905 1.4142 0l3 3c.3905.3905.3905 1.0237 0 1.4142s-1.0237.3905-1.4142 0z" clip-rule="evenodd"/></svg>