<svg xmlns="http://www.w3.org/2000/svg" fill="none" viewBox="0 0 16 16"><path fill="currentColor" fill-rule="evenodd" d="M13 10c1.6568 0 2.9999 1.3431 3 2.9999 0 1.6569-1.3431 3-3 3s-3-1.3431-3-3c.0001-1.6568 1.3432-3 3-3m.3535 1.1464a.5003.5003 0 0 0-.707 0l-1 1a.4999.4999 0 1 0 .707.707l.1465-.1465v1.793a.5.5 0 1 0 1 0v-1.793l.1465.1465a.4999.4999 0 1 0 .707-.707z" clip-rule="evenodd"/><path fill="currentColor" d="M8.326 11.223A4.99 4.99 0 0 0 8 13c0 1.052.326 2.029.881 2.834A3.12 3.12 0 0 1 8 15.963a3.11 3.11 0 0 1-1.614-.451l-2.96-1.793c.557-.013 1.111-.176 1.614-.484zM5.252 1.123c-.239.457-.368.975-.368 1.515v5.157c0 1.084.577 2.105 1.502 2.665l.965.584-2.658 1.624c-.819.5-1.807.52-2.645.05-.401-.225-.726-.537-.955-.908-.245-.451-.384-.965-.384-1.492V5.627c0-1.084.577-2.104 1.505-2.664z"/><path fill="currentColor" d="M6.8701.3603C7.4335.0389 8.07-.0606 8.6797.0653a2.5 2.5 0 0 1 .5.1563c.1491.0596.2954.1287.4346.2148l4.1728 2.5264c.928.56 1.5047 1.5804 1.5049 2.664l-.0029 2.9278a4.97 4.97 0 0 0-.9082-.3604 3.4 3.4 0 0 0-.126-.081l-4.7334-2.831a2.987 2.987 0 0 0-3.046-.0098l-.9286.5469V2.6376c0-.9546.4946-1.8033 1.3232-2.2773"/><path fill="currentColor" d="M12.7803 8.0048a4.98 4.98 0 0 0-1.7305.3887 3.1 3.1 0 0 0 .0664-.625v-.7588z"/></svg>