<svg xmlns="http://www.w3.org/2000/svg" fill="none" viewBox="0 0 24 24"><path fill="currentColor" fill-rule="evenodd" d="M17.9997 12.0002c3.3136 0 5.9999 2.6862 5.9999 5.9999C23.9993 21.3135 21.3132 24 17.9997 24S12 21.3135 11.9998 18.0001c0-3.3137 2.6862-5.9999 5.9999-5.9999m.707 2.2919c-.3905-.3901-1.0236-.3901-1.414 0l-3 3c-.3905.3905-.3905 1.0245 0 1.415.3905.3902 1.0236.3902 1.4141 0l1.2929-1.2929V21c.0002.5521.4478 1 1 1s.9997-.4479 1-1v-3.5858l1.2929 1.2929c.3905.3902 1.0236.3902 1.414 0 .3906-.3905.3906-1.0245 0-1.415z" clip-rule="evenodd"/><path fill="currentColor" d="M10 18c0 1.888.656 3.623 1.75 4.991a4.29 4.29 0 0 1-1.976-.613l-4.083-2.474c.768-.018 1.532-.242 2.227-.667l2.084-1.276c0 .013-.001.026-.001.039M8.21 2.532c-.329.631-.508 1.344-.508 2.089v7.114c0 1.495.796 2.903 2.071 3.676l.551.333a7.95 7.95 0 0 0-.24 1.094l-2.646 1.618c-1.129.69-2.492.717-3.648.068-.553-.311-1.002-.74-1.317-1.252-.338-.622-.53-1.331-.53-2.058V8.744c0-1.495.796-2.903 2.076-3.676z"/><path fill="currentColor" d="M10.4402 1.4799c.7773-.4435 1.6558-.581 2.4971-.4072.2331.0457.4664.1188.6904.2148.2056.0823.4067.179.5986.2978l5.7558 3.4834c1.2799.7726 2.076 2.1808 2.0761 3.6757l-.0029 2.3603c-1.1894-.7011-2.5751-1.1045-4.0556-1.1045-.3105 0-.6167.0183-.918.0528l-2.9833-1.7842a4.12 4.12 0 0 0-4.202-.0137l-1.2794.755V4.6203c.0002-1.3163.6806-2.4868 1.8232-3.1405"/></svg>