<svg xmlns="http://www.w3.org/2000/svg" fill="none" viewBox="0 0 16 16"><path fill="currentColor" d="M13 8c.7111 0 1.3875.1485 2 .416V2.7317c0-.4494-.296-.8443-.7253-.9677l-6-1.7253a.994.994 0 0 0-.5494 0l-6 1.7253C1.296 1.8874 1 2.2823 1 2.7317v7.7953q0 2.9817 6.659 5.4127a.994.994 0 0 0 .682 0q.2483-.0907.4875-.1821a4.97 4.97 0 0 1-.7356-1.7932L8 14c-3.4733-1.326-5-2.6065-5-3.4317V3.4537L8 2l5 1.4537z"/><path fill="currentColor" fill-rule="evenodd" d="M13 16c1.657 0 3-1.343 3-3s-1.343-3-3-3-3 1.343-3 3 1.343 3 3 3m-1.354-3.854 1-1a.5.5 0 0 1 .707 0l1 1a.5.5 0 0 1 0 .707.5.5 0 0 1-.707 0l-.146-.146V14.5a.5.5 0 0 1-1 0v-1.793l-.146.147a.5.5 0 0 1-.707 0 .5.5 0 0 1 0-.707M8 4c.947 0 1.714.768 1.714 1.714v.857h.857A.429.429 0 0 1 11 7v1.416A5.018 5.018 0 0 0 8.416 11H5.429A.429.429 0 0 1 5 10.571V7a.429.429 0 0 1 .429-.429h.857v-.857C6.286 4.768 7.053 4 8 4m0 3.857a.429.429 0 0 0-.426.379l-.003.05v.857a.429.429 0 0 0 .854.05l.003-.05v-.857A.429.429 0 0 0 8 7.857m-.857-2.143a.857.857 0 1 1 1.714 0v.857H7.143z" clip-rule="evenodd"/></svg>