<svg xmlns="http://www.w3.org/2000/svg" fill="none" viewBox="0 0 16 16"><path fill="currentColor" d="M8.021 4c-1.108 0-2.006-.895-2.006-2s.898-2 2.006-2 2.006.895 2.006 2-.898 2-2.006 2M12.534 5c-.831 0-1.504-.672-1.504-1.5S11.703 2 12.534 2s1.505.672 1.505 1.5S13.365 5 12.534 5M2.003 3.5c0 .828.674 1.5 1.504 1.5S5.012 4.328 5.012 3.5 4.338 2 3.507 2 2.003 2.672 2.003 3.5M8 13c0-1.98 1.151-3.692 2.821-4.501l.159-1.872a1.5 1.5 0 0 0 .005-.127c0-.828-.674-1.5-1.504-1.5h-2.921q-.064 0-.127.005c-.828.07-1.442.796-1.372 1.621l.267 3.137a1 1 0 0 0 .384.705L6.398 11l.429 4.547A.501.501 0 0 0 7.327 16H8.715a.5.5 0 0 0 .24-.061A4.977 4.977 0 0 1 8 13M14.922 8.383A4.985 4.985 0 0 0 13 8q-.091 0-.181.003L12.983 6h.513C14.326 6 15 6.672 15 7.5q0 .072-.007.144zM3.494 16h1.476l-.444-4.909-.837-.676a1 1 0 0 1-.368-.696L3.018 6h-.513C1.674 6 1 6.672 1 7.5q0 .072.007.144l.298 3.092a1 1 0 0 0 .431.729L2.52 12l.477 3.566a.501.501 0 0 0 .497.434"/><path fill="currentColor" fill-rule="evenodd" d="M16 13c0 1.6569-1.3431 3-3 3s-3-1.3431-3-3 1.3431-3 3-3 3 1.3431 3 3m-3.3536-1.8536-1 1a.5.5 0 0 0 0 .7072.5.5 0 0 0 .7072 0l.1464-.1465V14.5a.5.5 0 0 0 1 0v-1.7929l.1464.1465a.5.5 0 0 0 .7072 0 .5.5 0 0 0 0-.7072l-.9998-.9997a.5005.5005 0 0 0-.7074-.0003" clip-rule="evenodd"/></svg>