<svg xmlns="http://www.w3.org/2000/svg" fill="none" viewBox="0 0 16 16"><path fill="currentColor" d="M8.0012 13.1107a6.53 6.53 0 0 1-3.4939-1.2922l-2.9069 2.9069a.9375.9375 0 0 1-1.3258-1.3258l2.907-2.9069C2.361 9.3971 1.875 8.0366 1.875 6.5625 1.875 2.9381 4.8131 0 8.4375 0S15 2.9381 15 6.5625a6.57 6.57 0 0 1-.2378 1.7569 4.99 4.99 0 0 0-1.862-.3184 4.69 4.69 0 0 0 .2248-1.4385c0-2.5888-2.0987-4.6875-4.6875-4.6875S3.75 3.9737 3.75 6.5625c0 2.548 2.033 4.6212 4.5654 4.6859a4.99 4.99 0 0 0-.3142 1.8623"/><path fill="currentColor" fill-rule="evenodd" d="M16 13c0 1.6569-1.3431 3-3 3s-3-1.3431-3-3 1.3431-3 3-3 3 1.3431 3 3m-3.3536-1.8536-1 1a.5.5 0 0 0 0 .7072.5.5 0 0 0 .7072 0l.1464-.1465V14.5a.5.5 0 0 0 1 0v-1.7929l.1464.1465a.5.5 0 0 0 .7072 0 .5.5 0 0 0 0-.7072l-.9998-.9997a.5005.5005 0 0 0-.7074-.0003" clip-rule="evenodd"/><path fill="currentColor" d="m9.1855 6.0002.2784-2.2233c.014-.1372-.079-.2605-.208-.2754-.082-.0095-.1626.0274-.2124.0973l-2.4957 3c-.0784.11-.0582.2667.045.3502a.226.226 0 0 0 .142.0508h.8297L7.286 9.2231c-.014.1372.079.2605.208.2754.082.0095.1626-.0274.2124-.0973l2.4957-3c.0784-.11.0582-.2667-.0451-.3502a.225.225 0 0 0-.1419-.0508z"/></svg>