<svg xmlns="http://www.w3.org/2000/svg" fill="none" viewBox="0 0 16 16"><path fill="currentColor" d="M0 2c0-.5523.4477-1 1-1h14c.5523 0 1 .4477 1 1v6.9996A4.98 4.98 0 0 0 14 8.1V3H2v7h6.9996A4.978 4.978 0 0 0 8 13c0 .7111.1485 1.3875.416 2H5c-.5523 0-1-.4477-1-1s.4477-1 1-1h2v-1H1c-.5523 0-1-.4477-1-1z"/><path fill="currentColor" d="M4 4c-.552 0-1 .448-1 1v3c0 .552.448 1 1 1s1-.448 1-1V5c0-.552-.448-1-1-1M6 5c0-.552.448-1 1-1s1 .448 1 1v3c0 .552-.448 1-1 1s-1-.448-1-1zM12 6c.552 0 1-.448 1-1s-.448-1-1-1-1 .448-1 1 .448 1 1 1"/><path fill="currentColor" fill-rule="evenodd" d="M16 13c0 1.6569-1.3431 3-3 3s-3-1.3431-3-3 1.3431-3 3-3 3 1.3431 3 3m-3.3536-1.8536-1 1a.5.5 0 0 0 0 .7072.5.5 0 0 0 .7072 0l.1464-.1465V14.5a.5.5 0 0 0 1 0v-1.7929l.1464.1465a.5.5 0 0 0 .7072 0 .5.5 0 0 0 0-.7072l-.9998-.9997a.5005.5005 0 0 0-.7074-.0003" clip-rule="evenodd"/></svg>