<svg xmlns="http://www.w3.org/2000/svg" fill="none" viewBox="0 0 16 16"><path fill="currentColor" d="M14.9881 8.4109Q15 8.2069 15 8c0-1.5723-.5184-3.0236-1.3936-4.1922l1.1007-1.1007c.3905-.3905.3905-1.0237 0-1.4142s-1.0237-.3905-1.4142 0l-1.1007 1.1007C11.0236 1.5184 9.5723 1 8 1s-3.0236.5184-4.1922 1.3936L2.7071 1.293c-.3905-.3905-1.0237-.3905-1.4142 0s-.3905 1.0237 0 1.4142l1.1007 1.1007C1.5184 4.9764 1 6.4277 1 8s.5184 3.0236 1.3936 4.1922L1.293 13.2929c-.3905.3905-.3905 1.0237 0 1.4142s1.0237.3905 1.4142 0l1.1007-1.1007C4.9764 14.4816 6.4277 15 8 15q.207 0 .4109-.0119A4.98 4.98 0 0 1 8 13c-1.019 0-1.967-.3049-2.7574-.8284l.4645-.4645c.3905-.3905.3905-1.0237 0-1.4142s-1.0237-.3905-1.4142 0l-.4645.4645C3.3049 9.967 3 9.0191 3 8c0-1.019.3049-1.967.8284-2.7574l.4645.4645c.3905.3905 1.0237.3905 1.4142 0s.3905-1.0237 0-1.4142l-.4645-.4645C6.033 3.3049 6.981 3 8 3c1.019 0 1.967.3049 2.7574.8284l-.4645.4645c-.3905.3905-.3905 1.0237 0 1.4142s1.0237.3905 1.4142 0l.4645-.4645C12.6951 6.033 13 6.981 13 8c.7065 0 1.3788.1465 1.9881.4109"/><path fill="currentColor" d="M9 8c0 .5523-.4477 1-1 1s-1-.4477-1-1 .4477-1 1-1 1 .4477 1 1"/><path fill="currentColor" fill-rule="evenodd" d="M16 13c0 1.6569-1.3431 3-3 3s-3-1.3431-3-3 1.3431-3 3-3 3 1.3431 3 3m-3.3536-1.8536-1 1a.5.5 0 0 0 0 .7072.5.5 0 0 0 .7072 0l.1464-.1465V14.5a.5.5 0 0 0 1 0v-1.7929l.1464.1465a.5.5 0 0 0 .7072 0 .5.5 0 0 0 0-.7072l-.9998-.9997a.5005.5005 0 0 0-.7074-.0003" clip-rule="evenodd"/></svg>