<svg xmlns="http://www.w3.org/2000/svg" fill="none" viewBox="0 0 16 16"><path fill="currentColor" d="M13.7646 8.058a2 2 0 0 0-1.1461-.9608 1 1 0 0 1-.6766-.7815C11.6143 4.412 9.9545 3 8 3S4.3857 4.412 4.0582 6.3157a1 1 0 0 1-.6767.7815 2.0012 2.0012 0 0 0-.0462 3.79c.5209.1834.7944.7545.611 1.2754-.1836.5209-.7546.7944-1.2755.611C1.0832 12.2144 0 10.7103 0 9c0-1.541.8791-2.9122 2.2098-3.578C2.9086 2.8477 5.2608 1 8 1s5.0914 1.8477 5.7902 4.422c1.3306.6658 2.2097 2.0369 2.2098 3.5776a4.975 4.975 0 0 0-2.2354-.9415"/><path fill="currentColor" d="M9.9995 9H5.5a.5.5 0 0 0-.5.5v2a.5.5 0 0 0 .5.5h2.6c.2477-1.22.9396-2.2788 1.8995-3"/><path fill="currentColor" fill-rule="evenodd" d="M5.5 13H8a4.978 4.978 0 0 0 1 3H5.5a.5.5 0 0 1-.5-.5v-2a.5.5 0 0 1 .5-.5M8 14.5a.5.5 0 1 1-1 0 .5.5 0 0 1 1 0M16 13c0 1.657-1.343 3-3 3s-3-1.343-3-3 1.343-3 3-3 3 1.343 3 3m-3.354-1.854-1 1a.5.5 0 0 0 0 .707.5.5 0 0 0 .707 0l.146-.146V14.5a.5.5 0 0 0 1 0v-1.793l.146.147a.5.5 0 0 0 .707 0 .5.5 0 0 0 0-.707l-1-1a.5.5 0 0 0-.707 0" clip-rule="evenodd"/></svg>