<svg xmlns="http://www.w3.org/2000/svg" fill="none" viewBox="0 0 24 24"><path fill="currentColor" d="M18.965 5.831C17.975 2.419 14.7392 0 11 0 7.603 0 4.5943 1.9993 3.3385 4.9767 1.324 5.9427 0 7.9427 0 10.1875c0 2.3426 1.4421 4.4221 3.6144 5.3347.5092.2139 1.0953-.0254 1.3093-.5346s-.0255-1.0954-.5347-1.3093C2.9452 13.0718 2 11.7088 2 10.1875c0-1.5563.9895-2.945 2.4834-3.5291a1 1 0 0 0 .5778-.5955C5.9187 3.6576 8.29 2 11 2c2.9895 0 5.5387 2.0141 6.14 4.7653a1 1 0 0 0 .623.7218c1.2201.4617 2.0691 1.5262 2.2147 2.7592a7.95 7.95 0 0 1 2.0041.8135A5.2 5.2 0 0 0 22 10.625c0-2.0585-1.2031-3.8926-3.035-4.794"/><path fill="currentColor" fill-rule="evenodd" d="M10.062 17A8.1 8.1 0 0 0 10 18c0 .691.088 1.361.252 2H6.5a.5.5 0 0 1-.5-.5v-2a.5.5 0 0 1 .5-.5zM8 18.5a.5.5 0 1 1-1 0 .5.5 0 0 1 1 0M6.5 13h5.255a8 8 0 0 0-.822 1.249.5.5 0 1 0-.348.744A7.9 7.9 0 0 0 10.252 16H6.5a.5.5 0 0 1-.5-.5v-2a.5.5 0 0 1 .5-.5M8 14.5a.5.5 0 1 1-1 0 .5.5 0 0 1 1 0M16 10.252V9.5a.5.5 0 0 0-.5-.5h-9a.5.5 0 0 0-.5.5v2a.5.5 0 0 0 .5.5h6.208a8.02 8.02 0 0 1 1.54-1.068.5.5 0 1 1 .744-.348A7.9 7.9 0 0 1 16 10.252M12.5 11a.5.5 0 1 0 0-1A.5.5 0 0 0 12.5 11M8 10.5a.5.5 0 1 1-1 0 .5.5 0 0 1 1 0M18 24c3.314 0 6-2.686 6-6s-2.686-6-6-6-6 2.686-6 6 2.686 6 6 6m1-6.586V21c0 .552-.448 1-1 1s-1-.448-1-1v-3.586l-1.293 1.293c-.39.391-1.024.391-1.414 0s-.39-1.024 0-1.414l3-3c.391-.39 1.024-.39 1.414 0l3 3c.391.391.391 1.024 0 1.414s-1.024.391-1.414 0z" clip-rule="evenodd"/></svg>