<svg xmlns="http://www.w3.org/2000/svg" fill="none" viewBox="0 0 24 24"><path fill="currentColor" d="M17.2206 2.8342A1 1 0 0 1 18 3.8107L17.9926 10a8.01 8.01 0 0 0-1.9996.2538l.006-5.6454L9 2.0253 1.9999 4.6086l-.0012 9.1979c.082 1.6185 1.3068 3.1623 3.341 4.485C6.7633 19.2172 8.6717 20 9 20c.1433 0 .5877-.1492 1.1612-.3942a7.94 7.94 0 0 0 .6419 1.8919C10.0284 21.8102 9.3663 22 9 22c-.8036 0-3.031-.9136-4.7506-2.0318C1.7324 18.3314.1226 16.3025 0 13.8571V3.8095a1 1 0 0 1 .7794-.9753l8-2.8096a1 1 0 0 1 .4412 0z"/><path fill="currentColor" fill-rule="evenodd" d="M24 18c0 3.314-2.686 6-6 6s-6-2.686-6-6 2.686-6 6-6 6 2.686 6 6m-5 3v-3.586l1.293 1.293c.391.391 1.024.391 1.414 0s.391-1.024 0-1.414l-3-3c-.39-.39-1.024-.39-1.414 0l-3 3c-.39.391-.39 1.024 0 1.414s1.024.391 1.414 0L17 17.414V21c0 .552.448 1 1 1s1-.448 1-1M9 5c1.657 0 3 1.343 3 3v1h1.25a.75.75 0 0 1 .75.75v1.32c-1.834 1.061-3.207 2.828-3.748 4.93H4.75a.75.75 0 0 1-.75-.75V9.75A.75.75 0 0 1 4.75 9H6V8c0-1.657 1.343-3 3-3m0 5.751a.75.75 0 0 0-.745.663l-.005.087v1.5a.75.75 0 0 0 1.495.088l.005-.087v-1.5a.75.75 0 0 0-.75-.75M7.5 8c0-.828.672-1.5 1.5-1.5s1.5.672 1.5 1.5v1h-3z" clip-rule="evenodd"/></svg>