<svg xmlns="http://www.w3.org/2000/svg" fill="none" viewBox="0 0 16 16"><path fill="currentColor" d="M14.847 8.3522A6.02 6.02 0 0 0 15 7c0-1.3477-.4443-2.5916-1.1945-3.5933l.9434-.9435a.857.857 0 0 0 0-1.2121.857.857 0 0 0-1.2121 0l-.9435.9434C11.5916 1.4443 10.3477 1 9 1s-2.5916.4444-3.5933 1.1945l-.9435-.9435a.8571.8571 0 0 0-1.2121 1.2122l.9434.9435C3.4444 4.4084 3 5.6523 3 7s.4444 2.5916 1.1945 3.5933l-.9434.9435a.857.857 0 0 0 0 1.2121.857.857 0 0 0 1.2121 0l.9435-.9434a5.97 5.97 0 0 0 2.594 1.1117 4.99 4.99 0 0 1 .3208-1.6849 4.26 4.26 0 0 1-1.685-.6566l.3982-.3982a.8571.8571 0 1 0-1.2122-1.2122l-.3982.3982A4.266 4.266 0 0 1 4.7143 7c0-.8735.2613-1.686.71-2.3635l.3982.3982a.8571.8571 0 1 0 1.2122-1.2122l-.3982-.3982A4.266 4.266 0 0 1 9 2.7143c.8735 0 1.686.2613 2.3635.71l-.3982.3982a.8572.8572 0 0 0 1.2122 1.2122l.3982-.3982c.4487.6775.71 1.49.71 2.3635 0 .3453-.0408.681-.1179 1.0028a4.98 4.98 0 0 1 1.6792.3494"/><path fill="currentColor" d="M9.8571 7A.8571.8571 0 1 1 8.143 7 .8571.8571 0 0 1 9.857 7"/><path fill="currentColor" fill-rule="evenodd" d="M13 16c1.6569 0 3-1.3431 3-3s-1.3431-3-3-3-3 1.3431-3 3 1.3431 3 3 3m-1.3536-3.8536 1-1a.5005.5005 0 0 1 .7074.0003l.9998.9997a.5.5 0 0 1 0 .7072.5.5 0 0 1-.7072 0l-.1464-.1465V14.5a.5.5 0 0 1-1 0v-1.7929l-.1464.1465a.5.5 0 0 1-.7072 0 .5.5 0 0 1 0-.7072" clip-rule="evenodd"/><path fill="currentColor" d="M1.643 3.5a.5.5 0 1 0 0 1H2.5a.5.5 0 0 0 0-1zM1 5.5a.5.5 0 0 0 0 1h.857a.5.5 0 0 0 0-1zM1.643 7.5a.5.5 0 1 0 0 1H2.5a.5.5 0 0 0 0-1zM1 9.5a.5.5 0 0 0 0 1h.857a.5.5 0 0 0 0-1z"/></svg>