<svg xmlns="http://www.w3.org/2000/svg" fill="none" viewBox="0 0 24 24"><path fill="currentColor" fill-rule="evenodd" d="M9 3c0 1.657 1.343 3 3 3s3-1.343 3-3-1.343-3-3-3-3 1.343-3 3m4.3 0c0 .718-.582 1.3-1.3 1.3s-1.3-.582-1.3-1.3.582-1.3 1.3-1.3c.718 0 1.3.582 1.3 1.3M5 8C3.343 8 2 6.657 2 5s1.343-3 3-3 3 1.343 3 3-1.343 3-3 3m0-1.7c.718 0 1.3-.582 1.3-1.3S5.718 3.7 5 3.7 3.7 4.282 3.7 5 4.282 6.3 5 6.3M19 8c-1.657 0-3-1.343-3-3s1.343-3 3-3 3 1.343 3 3-1.343 3-3 3m0-1.7c.718 0 1.3-.582 1.3-1.3s-.582-1.3-1.3-1.3-1.3.582-1.3 1.3.582 1.3 1.3 1.3" clip-rule="evenodd"/><path fill="currentColor" d="M10.207 19.815c-.53-.17-.821-.484-.819-1.042l-.484-3.957a5 5 0 0 1-.137-.081c-.566-.35-.947-.75-.982-1.331l-.749-3.478C6.771 8.344 8.016 7 9.754 7h4.493c1.734 0 2.984 1.34 2.718 2.926l-.031.145a7.95 7.95 0 0 0-2.184.617l.209-.941C15.033 9.31 14.738 9 14.246 9H9.754c-.492 0-.787.311-.712.747l.747 3.365c.028.021.064.045.107.071.136.082.283.149.361.178.347.131.585.425.619.763l.023.187C10.325 15.415 10 16.67 10 18c0 .624.072 1.232.207 1.815M20.325 9c1.593 0 2.745 1.228 2.672 2.752-1.343-1.075-3.039-1.727-4.887-1.752 0-.552.448-1 1-1zM3.811 14.655c.134.089.278.16.354.192a1 1 0 0 1 .616.841l.36 2.298c.093.009.195.014.301.013a3.3 3.3 0 0 0 .293-.013l.268-2.277c.035-.551.51-.97 1.061-.935s.97.51.935 1.061l-.305 2.83c.002 1.069-.938 1.334-2.251 1.335-1.312.001-2.254-.265-2.254-1.399l-.355-2.195a4 4 0 0 1-.131-.083c-.554-.368-.931-.794-.97-1.408l-.685-2.769C.74 10.444 1.947 9 3.675 9h1.216c.552 0 1 .448 1 1s-.448 1-1 1H3.675c-.481 0-.745.315-.659.786l.689 2.792c.027.023.063.049.105.077"/><path fill="currentColor" fill-rule="evenodd" d="M18 24c3.3137 0 6-2.6863 6-6s-2.6863-6-6-6-6 2.6863-6 6 2.6863 6 6 6m1-6.5858V21c0 .5523-.4477 1-1 1s-1-.4477-1-1v-3.5858l-1.2929 1.2929c-.3905.3905-1.0237.3905-1.4142 0s-.3905-1.0237 0-1.4142l3-3c.3905-.3905 1.0237-.3905 1.4142 0l3 3c.3905.3905.3905 1.0237 0 1.4142s-1.0237.3905-1.4142 0z" clip-rule="evenodd"/></svg>