<svg xmlns="http://www.w3.org/2000/svg" fill="none" viewBox="0 0 16 16"><path fill="currentColor" d="M3 0C1.3432 0 0 1.3432 0 3v7c0 1.6569 1.3432 3 3 3h1v1.9783c0 .8629 1.0122 1.3284 1.6673.7668L8.8699 13H13c1.6569 0 3-1.3431 3-3V8c0-.5523-.4477-1-1-1s-1 .4477-1 1v2c0 .5523-.4477 1-1 1H8.537a1.1 1.1 0 0 0-.7159.2648L6 12.8258V11H3c-.5523 0-1-.4477-1-1V3c0-.5523.4477-1 1-1h5c.5523 0 1-.4477 1-1s-.4477-1-1-1z"/><path fill="currentColor" d="M12.057.487a.562.562 0 0 0-1.115 0c-.049.345-.127.687-.222 1.021-.169.592-.415 1.176-.725 1.486s-.895.557-1.486.725c-.335.096-.676.174-1.021.222a.563.563 0 0 0 0 1.115c.345.049.687.127 1.021.223.592.169 1.176.415 1.486.725.311.31.557.895.725 1.486.095.334.173.677.222 1.021a.562.562 0 0 0 1.115 0c.049-.345.127-.687.223-1.021.169-.592.415-1.176.725-1.486.31-.31.895-.556 1.486-.725.335-.095.676-.174 1.021-.222a.563.563 0 0 0 0-1.115c-.345-.048-.686-.127-1.021-.222-.592-.169-1.176-.415-1.486-.725s-.556-.895-.725-1.486c-.095-.334-.173-.677-.222-1.021M5.81 5.271a.313.313 0 0 0-.619 0 4.3 4.3 0 0 1-.124.567c-.094.329-.23.653-.403.826-.172.172-.497.309-.826.403-.186.053-.375.097-.567.124a.313.313 0 0 0 0 .619c.191.027.382.071.567.124.329.094.653.231.826.403.172.173.309.497.403.826a4.3 4.3 0 0 1 .124.567.313.313 0 0 0 .619 0 4.3 4.3 0 0 1 .124-.567c.094-.329.231-.653.403-.826.172-.172.497-.309.826-.403.186-.053.376-.097.567-.123a.313.313 0 0 0 0-.619c-.192-.027-.381-.07-.567-.124-.329-.094-.653-.23-.826-.403-.172-.172-.309-.497-.403-.826a4.3 4.3 0 0 1-.123-.567"/></svg>