<svg xmlns="http://www.w3.org/2000/svg" fill="none" viewBox="0 0 72 72"><path fill="currentColor" d="M50.42 7.678C50.29 6.717 49.47 6 48.5 6s-1.79.717-1.92 1.678c-.17 1.187-.437 2.365-.766 3.518-.581 2.038-1.429 4.05-2.498 5.12s-3.082 1.917-5.12 2.498c-1.153.329-2.328.6-3.517.766C33.718 19.71 33 20.53 33 21.5s.717 1.79 1.678 1.92c1.187.17 2.365.438 3.518.766 2.038.582 4.05 1.429 5.12 2.498s1.917 3.082 2.498 5.12c.329 1.152.596 2.331.766 3.517C46.71 36.282 47.53 37 48.5 37s1.79-.717 1.92-1.678c.17-1.187.438-2.365.766-3.518.582-2.038 1.429-4.05 2.498-5.12s3.082-1.917 5.12-2.498c1.153-.329 2.329-.6 3.517-.766C63.282 23.29 64 22.47 64 21.5s-.717-1.79-1.678-1.92c-1.189-.166-2.364-.437-3.518-.766-2.038-.581-4.05-1.429-5.12-2.498s-1.917-3.082-2.498-5.12c-.329-1.152-.596-2.331-.766-3.518M28 30a1.125 1.125 0 0 1 1.115.974c.099.689.254 1.374.445 2.043.338 1.183.83 2.352 1.451 2.973.621.621 1.789 1.113 2.973 1.451.67.191 1.352.349 2.043.445a1.125 1.125 0 0 1 0 2.23c-.69.096-1.372.254-2.042.445-1.183.338-2.352.83-2.973 1.451-.621.621-1.113 1.79-1.45 2.973-.191.669-.346 1.353-.445 2.043a1.125 1.125 0 0 1-2.23 0c-.099-.689-.254-1.373-.445-2.042-.338-1.183-.83-2.352-1.45-2.973-.621-.621-1.789-1.113-2.973-1.45-.669-.191-1.353-.346-2.043-.445a1.125 1.125 0 0 1 0-2.23c.69-.096 1.372-.254 2.042-.445 1.183-.338 2.352-.83 2.973-1.45.621-.621 1.113-1.789 1.451-2.973.191-.669.346-1.353.445-2.043A1.125 1.125 0 0 1 28 30"/><path fill="currentColor" d="M16.5 8C11.8056 8 8 11.8056 8 16.5v29c0 4.6944 3.8056 8.5 8.5 8.5H22v8.0931c0 1.6515 1.9616 2.5167 3.1811 1.4032L35.5818 54H53.5c4.6944 0 8.5-3.8056 8.5-8.5v-15c0-.8284-.6716-1.5-1.5-1.5s-1.5.6716-1.5 1.5v15c0 3.0376-2.4624 5.5-5.5 5.5H35c-.3743 0-.735.1399-1.0114.3923L25 59.5993V51h-8.5c-3.0376 0-5.5-2.4624-5.5-5.5v-29c0-3.0376 2.4624-5.5 5.5-5.5h23c.8284 0 1.5-.6716 1.5-1.5S40.3284 8 39.5 8z"/><path fill="currentColor" d="M21.7433 16.6496a.7501.7501 0 0 0-1.4866 0c-.0658.4596-.1693.9157-.2966 1.3617-.2251.7889-.5531 1.5679-.967 1.9818s-1.1929.7419-1.9818.967c-.446.1273-.902.2308-1.3614.2966a.7501.7501 0 0 0-.0003 1.4866c.4596.0658.9157.1693 1.3617.2966.7889.2251 1.5679.5531 1.9818.967s.7419 1.1929.967 1.9818c.1274.4465.2323.9013.2966 1.3614a.7501.7501 0 0 0 1.4866.0003c.0658-.4596.1693-.9157.2966-1.3617.2251-.7889.5531-1.5679.967-1.9818s1.1929-.7419 1.9818-.967c.4465-.1274.9013-.2323 1.3614-.2966a.7501.7501 0 0 0 .0003-1.4866c-.4596-.0658-.9157-.1693-1.3617-.2966-.7889-.2251-1.5679-.5531-1.9818-.967s-.7419-1.1929-.967-1.9818c-.1273-.446-.2308-.9021-.2966-1.3617"/></svg>