<svg xmlns="http://www.w3.org/2000/svg" fill="none" viewBox="0 0 32 32"><path fill="currentColor" d="M22.5 2c.4693 0 .8663.347.9291.812.0822.5745.2117 1.1446.3708 1.7022.2813.986.6913 1.9598 1.2087 2.4772s1.4912.9274 2.4772 1.2087c.5582.1593 1.1269.2906 1.7022.3708a.9375.9375 0 0 1-.0003 1.8582c-.5752.0803-1.1438.2115-1.7019.3708-.986.2813-1.9598.6913-2.4772 1.2087s-.9274 1.4912-1.2087 2.4772c-.1591.5576-.2886 1.1277-.3708 1.7022a.9375.9375 0 0 1-1.8582-.0003c-.0823-.5741-.2117-1.1445-.3708-1.7019-.2813-.986-.6913-1.9598-1.2087-2.4772s-1.4912-.9274-2.4772-1.2087c-.5576-.1591-1.1278-.2886-1.7022-.3708a.9375.9375 0 0 1 .0003-1.8582c.5752-.0804 1.1437-.2115 1.7019-.3708.986-.2813 1.9598-.6913 2.4772-1.2087s.9274-1.4912 1.2087-2.4772c.1591-.5576.2885-1.1277.3708-1.7022A.9375.9375 0 0 1 22.5 2"/><path fill="currentColor" d="M8 3C5.2386 3 3 5.2386 3 8v12c0 2.7614 2.2386 5 5 5h2v3.9774c0 .8768 1.0406 1.3371 1.6894.7473L16.8866 25H24c2.7614 0 5-2.2386 5-5v-6c0-.5523-.4477-1-1-1s-1 .4477-1 1v6c0 1.6569-1.3431 3-3 3h-7.4613a1.1 1.1 0 0 0-.74.2861L12 26.7394V23H8c-1.6569 0-3-1.3431-3-3V8c0-1.6569 1.3431-3 3-3h10c.5523 0 1-.4477 1-1s-.4477-1-1-1z"/><path fill="currentColor" d="M10 7a.375.375 0 0 1 .372.325c.033.23.085.458.148.681.113.394.277.784.484.991.207.207.597.371.991.483.223.064.451.116.681.148a.375.375 0 0 1 0 .743c-.23.032-.457.085-.681.148-.394.113-.784.277-.991.484-.207.207-.371.597-.483.991-.064.223-.115.451-.148.681a.375.375 0 0 1-.743 0c-.032-.23-.085-.457-.148-.681-.113-.394-.277-.784-.484-.991s-.596-.371-.991-.483c-.223-.064-.451-.115-.681-.148a.375.375 0 0 1 0-.743c.23-.033.458-.085.681-.148.394-.113.784-.277.991-.484s.371-.596.483-.991c.064-.223.116-.451.148-.681A.375.375 0 0 1 10 7M13.777 13.46a.531.531 0 0 0-1.053 0c-.047.326-.12.649-.21.965-.159.559-.392 1.111-.685 1.404-.293.293-.845.526-1.404.685-.316.09-.639.164-.964.21a.531.531 0 0 0 0 1.053c.326.047.649.12.965.21.559.159 1.111.392 1.404.685.293.293.526.845.685 1.404.09.316.165.639.21.964a.531.531 0 0 0 1.053 0c.047-.325.12-.648.21-.964.159-.559.392-1.111.685-1.404.293-.293.845-.525 1.404-.685.316-.09.639-.165.964-.21a.531.531 0 0 0 0-1.053c-.325-.047-.648-.12-.964-.21-.559-.159-1.111-.392-1.404-.685-.293-.293-.525-.845-.685-1.404-.09-.316-.163-.639-.21-.964"/></svg>