<svg xmlns="http://www.w3.org/2000/svg" fill="none" viewBox="0 0 17 17"><path fill="currentColor" d="M3.988 9.031a.41.41 0 0 1 .381.258l.02.069c.328 1.634 1.613 2.922 3.244 3.255.003.001.007 0 .01.001a.409.409 0 0 1 .326.4.409.409 0 0 1-.326.401h-.002c-1.637.33-2.926 1.618-3.256 3.254v.002a.409.409 0 0 1-.801 0v-.002c-.328-1.636-1.617-2.926-3.252-3.256a.412.412 0 0 1-.322-.329L.004 13.012l.006-.073a.41.41 0 0 1 .321-.328c1.636-.328 2.927-1.617 3.257-3.252l.001-.001a.409.409 0 0 1 .399-.327M11.119.009a.56.56 0 0 1 .451.442c.503 2.503 2.473 4.476 4.975 4.983l.096.027a.561.561 0 0 1 .359.524.561.561 0 0 1-.455.551l-.001-.001c-2.501.504-4.473 2.474-4.979 4.974l.001.001a.561.561 0 0 1-1.102 0c-.504-2.501-2.474-4.474-4.974-4.98a.559.559 0 0 1-.446-.451L5.035 5.98l.009-.099a.56.56 0 0 1 .442-.451l.233-.052c2.393-.575 4.262-2.502 4.751-4.927A.56.56 0 0 1 11.02 0z"/></svg>