<svg xmlns="http://www.w3.org/2000/svg" fill="none" viewBox="0 0 17 17"><path fill="url(#ai-sparkles-color--16-a)" d="M3.988 9.0312a.41.41 0 0 1 .3808.2583l.0197.0685c.3277 1.6337 1.613 2.9224 3.2442 3.2545.0032.0006.0072.0004.0103.0011a.409.409 0 0 1 .3258.4004.409.409 0 0 1-.3258.4005h-.002c-1.6367.3295-2.9262 1.6184-3.2556 3.2535v.0021a.409.409 0 0 1-.801 0v-.0021c-.3281-1.6365-1.6172-2.9261-3.2524-3.2556a.412.412 0 0 1-.3216-.3289L.004 13.012l.0063-.0727a.41.41 0 0 1 .3206-.3278c1.6364-.3283 2.9272-1.6173 3.2566-3.2525l.001-.001a.409.409 0 0 1 .3994-.3268"/><path fill="url(#ai-sparkles-color--16-b)" d="M11.1186.0093a.56.56 0 0 1 .4513.442c.5027 2.503 2.4733 4.4763 4.9747 4.983l.0964.027a.561.561 0 0 1 .359.5239.561.561 0 0 1-.4554.5509l-.0011-.001c-2.5008.504-4.4735 2.4743-4.9788 4.9736l.001.001a.5609.5609 0 0 1-1.1018 0c-.5042-2.5009-2.4737-4.4736-4.9736-4.9799a.559.559 0 0 1-.4461-.4513L5.0348 5.98l.0094-.0986a.56.56 0 0 1 .442-.4513l.2334-.0518c2.3934-.5754 4.2622-2.5021 4.7506-4.927A.56.56 0 0 1 11.02 0z"/><defs><linearGradient id="ai-sparkles-color--16-a" x1=".0042" x2="19.9993" y1="16.9959" y2="11.9971" gradientUnits="userSpaceOnUse"><stop offset=".2" stop-color="#3849e0"/><stop offset="1" stop-color="#fc2df1"/></linearGradient><linearGradient id="ai-sparkles-color--16-b" x1=".0042" x2="19.9993" y1="16.9959" y2="11.9971" gradientUnits="userSpaceOnUse"><stop offset=".2" stop-color="#3849e0"/><stop offset="1" stop-color="#fc2df1"/></linearGradient></defs></svg>