<svg xmlns="http://www.w3.org/2000/svg" fill="none" viewBox="0 0 72 72"><path fill="currentColor" d="M21.288 37.756c.298.053.545.261.654.538l.042.144.002.002c1.151 5.738 5.617 10.273 11.313 11.529l.263.055c.398.082.694.434.695.851 0 .417-.297.767-.694.85l-.002.002c-5.825 1.172-10.414 5.757-11.587 11.578-.082.398-.434.696-.851.696-.417 0-.769-.296-.851-.695-1.168-5.825-5.754-10.416-11.574-11.589-.398-.082-.696-.434-.696-.851 0-.417.297-.769.695-.851 5.825-1.168 10.417-5.753 11.589-11.574.082-.398.434-.696.851-.696zM44.514 8.02c.483.086.873.458.972.955h.004c1.771 8.82 8.713 15.769 17.528 17.552A1.21 1.21 0 0 1 64 27.716c0 .58-.408 1.08-.981 1.19l-.002-.002C54.201 30.678 47.249 37.62 45.471 46.432l.002.002a1.208 1.208 0 0 1-1.189.981 1.208 1.208 0 0 1-1.189-.977c-1.772-8.822-8.717-15.77-17.535-17.55v-.004a1.204 1.204 0 0 1-.955-.972l-.02-.213.02-.213a1.208 1.208 0 0 1 .755-.917l.208-.058c8.819-1.774 15.771-8.719 17.546-17.535A1.209 1.209 0 0 1 44.301 8z"/></svg>