<svg xmlns="http://www.w3.org/2000/svg" fill="none" viewBox="0 0 24 24"><path fill="currentColor" d="M8 2c0-.552-.448-1-1-1-2.209 0-4 1.791-4 4v13.844a.9.9 0 0 0-.002.117q.001.02.002.039l.005.206C3.112 21.319 4.86 23 7 23H17c2.209 0 4-1.791 4-4v-4c0-.552-.448-1-1-1s-1 .448-1 1v4c0 1.104-.896 2-2 2h-10c-.74 0-1.385-.403-1.73-1H11c.552 0 1-.448 1-1s-.448-1-1-1h-6v-1h8c.552 0 1-.448 1-1s-.448-1-1-1h-8v-1h4l.102-.005C9.606 13.944 10 13.518 10 13c0-.552-.448-1-1-1h-4V5c0-1.104.896-2 2-2 .552 0 1-.448 1-1M20.607 10.192c.391.391.391 1.024 0 1.414s-1.024.391-1.414 0l-8.485-8.485c-.39-.39-.39-1.024 0-1.414s1.024-.39 1.414 0z"/><path fill="currentColor" d="M12.1213 11.6066c-.3905.3905-1.0237.3905-1.4142 0s-.3905-1.0237 0-1.4142l8.4853-8.4853c.3905-.3905 1.0237-.3905 1.4142 0s.3905 1.0237 0 1.4142z"/></svg>