<svg xmlns="http://www.w3.org/2000/svg" fill="none" viewBox="0 0 24 24"><path fill="currentColor" d="M9.9999 1c.5522.0001 1 .4478 1 1s-.4478.9999-1 1h-3c-1.1045.0001-2 .8955-2 2v7h4c.552.0004 1 .448 1 1 0 .5178-.3942.9439-.8985.9951L9 14h-4v1h8c.5519.0004 1 .448 1 1s-.4481.9996-1 1h-8v1h6c.5519.0004 1 .448 1 1s-.4481.9996-1 1H5.2694c.346.5973.9906 1 1.7305 1h10c1.1042-.0004 2-.8957 2-2v-8c0-.5523.4477-1 1-1 .5522.0001 1 .4478 1 1v8c0 2.2089-1.7912 3.9996-4 4h-10c-2.14-.0001-3.888-1.6806-3.9951-3.7939L2.9998 19l-.0019-.0391A.9.9 0 0 1 3 18.8438V5c0-2.209 1.791-3.9999 4-4z"/><path fill="currentColor" d="M12.792 6.822a.161.161 0 0 1 .12.099l.008.027c.212 1.057 1.035 1.892 2.084 2.123l.048.01a.161.161 0 0 1 .128.157.16.16 0 0 1-.128.156l-.198.048c-.977.274-1.733 1.079-1.936 2.084a.162.162 0 0 1-.157.129.161.161 0 0 1-.156-.128c-.215-1.073-1.06-1.919-2.132-2.135a.16.16 0 0 1-.128-.156.161.161 0 0 1 .128-.157c1.073-.215 1.918-1.059 2.134-2.131a.161.161 0 0 1 .157-.128zM17.068 1.347a.223.223 0 0 1 .18.176l.072.3c.415 1.48 1.634 2.625 3.156 2.933a.223.223 0 0 1 .181.219.223.223 0 0 1-.181.219l-.301.072c-1.48.416-2.624 1.634-2.931 3.155l-.027.073a.223.223 0 0 1-.191.107.222.222 0 0 1-.219-.18c-.326-1.624-1.606-2.905-3.229-3.232a.222.222 0 0 1-.176-.179l-.003-.039.003-.04a.224.224 0 0 1 .14-.169l.038-.011c1.624-.327 2.904-1.605 3.23-3.228a.223.223 0 0 1 .219-.18z"/></svg>