<svg xmlns="http://www.w3.org/2000/svg" fill="none" viewBox="0 0 16 16"><g fill="currentColor" clip-path="url(#ai-sparkles-inverse-color--16-a)"><path d="M3.754 8.499a.386.386 0 0 1 .358.243l.019.064c.308 1.538 1.518 2.751 3.054 3.064.003.001.007 0 .01.001a.385.385 0 0 1 .307.377.385.385 0 0 1-.307.377h-.002c-1.54.31-2.754 1.523-3.064 3.063v.002a.385.385 0 0 1-.754 0v-.002C3.065 14.147 1.852 12.933.313 12.623a.387.387 0 0 1-.303-.309l-.006-.067.006-.068a.386.386 0 0 1 .302-.309c1.54-.309 2.755-1.522 3.065-3.061l.001-.001a.385.385 0 0 1 .376-.308M10.466.007a.527.527 0 0 1 .425.416c.473 2.356 2.328 4.214 4.683 4.691l.091.025a.528.528 0 0 1-.091 1.012l-.001-.001c-2.354.475-4.211 2.329-4.687 4.682l.001.001a.528.528 0 0 1-1.037 0C9.375 8.478 7.521 6.621 5.168 6.145a.526.526 0 0 1-.42-.425l-.009-.093.009-.093a.527.527 0 0 1 .416-.425l.22-.049C7.637 4.519 9.396 2.705 9.856.423a.528.528 0 0 1 .518-.425z"/></g><defs><clipPath id="ai-sparkles-inverse-color--16-a"><path fill="#fff" d="M0 0h16v16H0z"/></clipPath></defs></svg>