<svg xmlns="http://www.w3.org/2000/svg" fill="none" viewBox="0 0 24 24"><path fill="currentColor" d="M6.162 12.681a.421.421 0 0 1 .391.266l.021.069v.002c.445 2.216 2.188 3.963 4.401 4.412.003 0 .007 0 .01.001.192.04.336.21.336.411 0 .201-.144.371-.336.41-2.22.447-3.969 2.194-4.416 4.412-.039.192-.21.337-.411.337-.202 0-.371-.144-.41-.336l-.001-.001c-.445-2.219-2.193-3.968-4.41-4.415-.192-.039-.337-.209-.337-.411 0-.202.144-.371.336-.41l.002-.001c2.219-.445 3.967-2.193 4.414-4.41l.001-.001a.42.42 0 0 1 .41-.335M15.365 1.01a.579.579 0 0 1 .467.457l.069.314c.774 3.22 3.366 5.733 6.629 6.394l.1.028a.579.579 0 0 1 .37.541.58.58 0 0 1-.47.569l-.001-.001c-3.368.678-6.024 3.331-6.704 6.697l.001.001a.579.579 0 0 1-.569.47.579.579 0 0 1-.569-.47c-.678-3.368-3.331-6.024-6.697-6.705a.578.578 0 0 1-.461-.467l-.01-.102.01-.102a.579.579 0 0 1 .361-.439l.1-.028c3.37-.678 6.027-3.333 6.705-6.701A.579.579 0 0 1 15.264 1z"/></svg>