<svg xmlns="http://www.w3.org/2000/svg" fill="none" viewBox="0 0 16 16"><path fill="currentColor" d="M4.282 8.439a.338.338 0 0 1 .314.213l.016.056c.27 1.346 1.329 2.407 2.672 2.681.003.001.006 0 .009.001a.337.337 0 0 1 0 .66h-.002c-1.348.271-2.41 1.333-2.682 2.68v.002a.337.337 0 0 1-.66 0v-.002c-.27-1.348-1.332-2.41-2.679-2.682a.339.339 0 0 1-.265-.271L1 11.718l.005-.06a.338.338 0 0 1 .264-.27c1.348-.27 2.411-1.332 2.683-2.679l.001-.001a.337.337 0 0 1 .329-.269M10.155 1.008a.461.461 0 0 1 .372.364c.414 2.062 2.037 3.687 4.098 4.105l.08.022a.462.462 0 0 1-.079.885l-.001-.001c-2.06.415-3.685 2.038-4.101 4.097l.001.001a.462.462 0 0 1-.908 0c-.415-2.06-2.038-3.685-4.097-4.102a.46.46 0 0 1-.367-.372l-.008-.081.008-.081a.461.461 0 0 1 .364-.372l.192-.043c1.972-.474 3.511-2.061 3.913-4.058A.462.462 0 0 1 10.074 1z"/></svg>