<svg xmlns="http://www.w3.org/2000/svg" fill="none" viewBox="0 0 32 32"><path fill="currentColor" d="M8.121 16.939a.467.467 0 0 1 .351.288l.022.077.001.001c.616 3.074 3.009 5.503 6.061 6.176l.141.029a.467.467 0 0 1 .372.456.466.466 0 0 1-.372.455l-.001.001c-3.12.628-5.579 3.084-6.207 6.202-.044.213-.232.373-.456.373a.466.466 0 0 1-.456-.372c-.626-3.12-3.082-5.58-6.2-6.208-.213-.044-.373-.232-.373-.456a.467.467 0 0 1 .372-.456c3.12-.626 5.58-3.082 6.208-6.2.044-.213.233-.373.456-.373zM20.564 1.009a.645.645 0 0 1 .521.512h.002c.949 4.725 4.668 8.447 9.39 9.402a.648.648 0 0 1 .526.637.648.648 0 0 1-.525.638l-.001-.001c-4.723.95-8.447 4.669-9.399 9.39l.001.001a.647.647 0 0 1-.637.525.647.647 0 0 1-.637-.523c-.949-4.726-4.67-8.448-9.393-9.401v-.002a.645.645 0 0 1-.512-.52l-.011-.114.011-.114a.647.647 0 0 1 .404-.491l.111-.031c4.725-.95 8.448-4.671 9.399-9.394a.647.647 0 0 1 .636-.522z"/></svg>