<svg xmlns="http://www.w3.org/2000/svg" fill="none" viewBox="0 0 32 32"><path fill="currentColor" d="M13.9999 2c.5522.0001 1 .4478 1 1s-.4478.9999-1 1h-5c-1.1045.0001-2 .8955-2 2v12h4c.5519.0004 1 .448 1 1 0 .5178-.3942.9439-.8985.9951L10.9999 20h-4v1h11c.5519.0004 1 .448 1 1s-.4481.9996-1 1h-11v1h7c.5523 0 1 .4477 1 1s-.4477 1-1 1H7.0448c.0062.0756.0105.146.0185.2061.0527.3905.2061.7939.2061.7939.346.5973.9906 1 1.7305 1h14c1.1042-.0004 2-.8957 2-2V16c0-.5523.4477-1 1-1 .5521.0001 1 .4478 1 1v10c0 2.2089-1.7912 3.9996-4 4h-14c-2.14-.0001-3.888-1.6806-3.9951-3.7939L4.9998 26l-.0019-.0391A.9.9 0 0 1 5 25.8438V6c0-2.209 1.791-3.9999 4-4z"/><path fill="currentColor" d="M15.807 9.94a.221.221 0 0 1 .165.136l.01.036c.289 1.441 1.411 2.58 2.842 2.896l.065.014c.1.021.175.109.175.214a.219.219 0 0 1-.175.213l-.27.065c-1.333.374-2.362 1.472-2.639 2.842a.22.22 0 0 1-.214.176.219.219 0 0 1-.214-.175c-.293-1.463-1.445-2.616-2.906-2.91a.219.219 0 0 1-.175-.214.219.219 0 0 1 .174-.214c1.463-.293 2.616-1.445 2.91-2.906a.219.219 0 0 1 .214-.175zM21.64 2.473a.303.303 0 0 1 .244.24l.046.206c.509 2.116 2.212 3.768 4.356 4.201a.304.304 0 0 1 .246.299.303.303 0 0 1-.246.298c-2.214.445-3.96 2.189-4.406 4.401a.304.304 0 0 1-.597.002c-.445-2.215-2.189-3.961-4.403-4.408a.303.303 0 0 1-.24-.244l-.005-.054.005-.054a.304.304 0 0 1 .191-.229l.052-.015c2.215-.445 3.96-2.19 4.406-4.403a.304.304 0 0 1 .298-.245z"/></svg>