<svg xmlns="http://www.w3.org/2000/svg" fill="none" viewBox="0 0 16 16"><path fill="currentColor" d="M6 0c.5523 0 1 .4477 1 1s-.4477 1-1 1H4c-.5523 0-1 .4477-1 1v5h2c.5523 0 1 .4477 1 1s-.4477 1-1 1H3v1h5c.5523 0 1 .4477 1 1s-.4477 1-1 1H3l.0049.1025C3.0562 13.6067 3.4823 14 4 14h8l.1025-.0049A1.0003 1.0003 0 0 0 13 13V9c0-.5523.4477-1 1-1s1 .4477 1 1v4c0 1.6569-1.3431 3-3 3H4c-1.6568 0-3-1.3431-3-3V3c0-1.6568 1.3432-3 3-3z"/><path fill="currentColor" d="M8.284 4.764a.132.132 0 0 1 .099.081l.007.022c.173.864.846 1.548 1.704 1.737l.04.008a.132.132 0 0 1 .105.129.132.132 0 0 1-.104.128c-.877.177-1.569.867-1.746 1.744a.133.133 0 0 1-.129.106.132.132 0 0 1-.128-.104c-.176-.878-.867-1.569-1.744-1.746a.132.132 0 0 1-.104-.129.131.131 0 0 1 .105-.128c.878-.176 1.57-.867 1.746-1.744a.132.132 0 0 1 .128-.104zM11.783.283a.183.183 0 0 1 .148.144c.267 1.329 1.313 2.376 2.641 2.645a.183.183 0 0 1 .148.18.182.182 0 0 1-.148.179c-1.328.267-2.376 1.314-2.644 2.642a.182.182 0 0 1-.357 0c-.267-1.329-1.314-2.376-2.643-2.644a.182.182 0 0 1-.143-.146l-.003-.032.003-.032a.182.182 0 0 1 .113-.138l.031-.009c1.329-.267 2.376-1.314 2.644-2.642a.183.183 0 0 1 .18-.146z"/></svg>