<svg xmlns="http://www.w3.org/2000/svg" fill="none" viewBox="0 0 24 24"><path fill="currentColor" fill-rule="evenodd" d="m19.8787 5.6459-1.9973 3.5813C21.3109 11.1584 23.6565 14.753 24 19H0c.3431-4.247 2.689-7.8416 6.1186-9.7728l-1.9974-3.582a.443.443 0 0 1 0-.4301C4.1955 5.082 4.3326 5 4.4811 5s.2856.082.3598.2152l2.0223 3.6265c1.5465-.7302 3.2833-1.1377 5.1366-1.1377s3.5903.407 5.1368 1.1377l2.0225-3.6265c.0743-.1331.2115-.215.36-.215.1485.0001.2856.0822.3598.2154a.443.443 0 0 1-.0002.4303M6.4769 15.4596c-.552.0001-.9995-.4631-.9996-1.0345-.0001-.5715.4473-1.0349.9993-1.035s.9995.4631.9996 1.0346c-.0005.5712-.4475 1.0342-.9993 1.0349m11.0462 0c-.552.0001-.9996-.4631-.9997-1.0345-.0001-.5715.4473-1.0349.9993-1.035s.9995.4631.9996 1.0346c-.0006.5711-.4476 1.0341-.9992 1.0349" clip-rule="evenodd"/></svg>