<svg xmlns="http://www.w3.org/2000/svg" fill="none" viewBox="0 0 16 16"><path fill="currentColor" d="M9.455 4.447C9.873 4.234 10.333 4 11.007 4c.893 0 2.367.797 2.961 1.698-1.131.432-1.934 1.524-1.934 2.802 0 1.291.818 2.391 1.965 2.814-.293.67-.466 1.001-.86 1.622-.575.909-1.362 2.056-2.369 2.063-.414.004-.692-.124-.992-.261-.349-.159-.726-.332-1.379-.327-.647.003-1.011.174-1.345.33-.292.137-.561.263-.978.258C4.606 15 2 11.694 2 8.715c0-3.275 2.202-4.664 3.651-4.665.558 0 1.044.202 1.507.394.421.175.823.342 1.242.342.389 0 .707-.162 1.055-.339M10.39 2.859c-.758.755-1.748 1.087-2.59.954l-.001.001c-.134-.839.199-1.826.957-2.581S10.504.145 11.346.279l.001-.001c.134.839-.199 1.826-.957 2.581"/></svg>