<svg xmlns="http://www.w3.org/2000/svg" fill="none" viewBox="0 0 24 24"><path fill="currentColor" d="M14.183 6.67c.627-.319 1.317-.67 2.328-.67 1.339 0 3.55 1.196 4.442 2.547-1.696.648-2.9 2.285-2.9 4.204 0 1.936 1.227 3.586 2.948 4.221-.44 1.005-.698 1.501-1.289 2.434-.862 1.363-2.043 3.083-3.554 3.095-.621.005-1.038-.186-1.488-.391-.523-.239-1.089-.498-2.068-.491-.971.005-1.516.26-2.018.495-.438.205-.842.394-1.466.388C6.909 22.5 3 17.541 3 13.072c0-4.912 3.303-6.997 5.476-6.998.837 0 1.566.303 2.261.592.632.262 1.234.513 1.863.513.583 0 1.061-.243 1.582-.509M15.584 4.288c-1.137 1.133-2.622 1.631-3.885 1.431l-.001.001c-.201-1.259.299-2.738 1.436-3.871S15.756.218 17.019.418l.001-.001c.201 1.259-.299 2.738-1.436 3.871"/></svg>