<svg xmlns="http://www.w3.org/2000/svg" fill="none" viewBox="0 0 32 32"><path fill="currentColor" d="M18.91 9.536c.836-.432 1.756-.909 3.104-.909 1.785 0 4.734 1.622 5.923 3.453-2.261.878-3.867 3.099-3.867 5.7 0 2.625 1.636 4.863 3.931 5.724-.587 1.362-.931 2.035-1.719 3.3-1.15 1.848-2.723 4.181-4.739 4.197-.827.007-1.384-.252-1.984-.531-.697-.324-1.452-.676-2.758-.666-1.295.007-2.022.353-2.69.671-.583.278-1.122.534-1.955.526C9.213 31 4 24.276 4 18.217c0-6.66 4.404-9.487 7.302-9.488 1.116 0 2.089.411 3.015.802.842.356 1.646.695 2.484.695.777 0 1.414-.33 2.11-.69M20.779 6.306c-1.516 1.536-3.495 2.212-5.179 1.94l-.002.002c-.268-1.707.399-3.713 1.914-5.249 1.516-1.536 3.496-2.212 5.18-1.94l.002-.002c.268 1.707-.399 3.713-1.914 5.249"/></svg>