<svg xmlns="http://www.w3.org/2000/svg" fill="none" viewBox="0 0 24 24"><path fill="currentColor" fill-rule="evenodd" d="M4.727 2C3.221 2 2 3.221 2 4.727v3.636C2 9.87 3.221 11.091 4.727 11.091h3.636c1.506 0 2.727-1.221 2.727-2.727V4.727C11.091 3.221 9.87 2 8.364 2zm-.909 2.727c0-.502.407-.909.909-.909h3.636c.502 0 .909.407.909.909v3.636c0 .502-.407.909-.909.909H4.727a.909.909 0 0 1-.909-.909zM2 15.636c0-1.506 1.221-2.727 2.727-2.727h3.636c1.506 0 2.727 1.221 2.727 2.727v3.636C11.091 20.779 9.87 22 8.364 22H4.727C3.221 22 2 20.779 2 19.273zm2.727-.909a.909.909 0 0 0-.909.909v3.636a.909.909 0 0 0 .909.909h3.636a.909.909 0 0 0 .909-.909v-3.636a.909.909 0 0 0-.909-.909zM15.636 12.909c-1.506 0-2.727 1.221-2.727 2.727v3.636c0 1.506 1.221 2.727 2.727 2.727h3.636C20.779 22 22 20.779 22 19.273v-3.636c0-1.506-1.221-2.727-2.727-2.727zm-.909 2.727a.909.909 0 0 1 .909-.909h3.636a.909.909 0 0 1 .909.909v3.636a.909.909 0 0 1-.909.909h-3.636a.909.909 0 0 1-.909-.909zM15.636 2c-1.506 0-2.727 1.221-2.727 2.727v3.636c0 1.506 1.221 2.727 2.727 2.727h3.636C20.779 11.091 22 9.87 22 8.364V4.727C22 3.221 20.779 2 19.273 2zm-.909 2.727c0-.502.407-.909.909-.909h3.636a.909.909 0 0 1 .909.909v3.636a.909.909 0 0 1-.909.909h-3.636a.909.909 0 0 1-.909-.909z" clip-rule="evenodd"/></svg>