<svg xmlns="http://www.w3.org/2000/svg" fill="none" viewBox="0 0 24 24"><path fill="currentColor" d="M4 2.5c-.828 0-1.5.672-1.5 1.5v5c0 .828.672 1.5 1.5 1.5h5c.828 0 1.5-.672 1.5-1.5V4c0-.828-.672-1.5-1.5-1.5zM4 13.5c-.828 0-1.5.672-1.5 1.5v5c0 .828.672 1.5 1.5 1.5h5c.828 0 1.5-.672 1.5-1.5v-5c0-.828-.672-1.5-1.5-1.5zM13.5 4c0-.828.672-1.5 1.5-1.5h5c.828 0 1.5.672 1.5 1.5v5c0 .828-.672 1.5-1.5 1.5h-5c-.828 0-1.5-.672-1.5-1.5zM15 13.5c-.828 0-1.5.672-1.5 1.5v5c0 .828.672 1.5 1.5 1.5h5c.828 0 1.5-.672 1.5-1.5v-5c0-.828-.672-1.5-1.5-1.5z"/></svg>