<svg xmlns="http://www.w3.org/2000/svg" fill="none" viewBox="0 0 24 24"><path fill="currentColor" d="M6.792 11.182c-.115 0-.208.092-.208.205v.818c0 .113.093.205.208.205h10.417c.115 0 .208-.092.208-.205v-.818c0-.113-.093-.205-.208-.205zM7.417 8.932c0-.113.093-.204.208-.204h8.75c.115 0 .208.092.208.205V9.75c0 .113-.093.205-.208.205h-8.75c-.115 0-.208-.091-.208-.204zM8.458 6.273c-.115 0-.208.092-.208.205v.818c0 .113.093.205.208.205h7.083c.115 0 .208-.092.208-.205v-.818c0-.113-.093-.205-.208-.205z"/><path fill="currentColor" fill-rule="evenodd" d="M7.1798 3h9.6404c1.0975 0 2.0667.7028 2.3895 1.7327l2.6438 8.4362c.0977.3118.1465.6333.1465.9596v4.417C22 19.9011 20.8807 21 19.5 21h-15C3.1193 21 2 19.9011 2 18.5455v-4.417c0-.3263.0488-.6478.1465-.9596l2.6438-8.4362C5.1131 3.7027 6.0823 3 7.1798 3m.0467 2.0454c-.3789 0-.7101.251-.8061.611l-1.8552 6.9545c-.1383.5186.2602 1.0255.8062 1.0255h2.2044a.418.418 0 0 1 .3727.2261l.603 1.1841a.418.418 0 0 0 .3727.2261h6.1516a.418.418 0 0 0 .3727-.2261l.603-1.1841a.418.418 0 0 1 .3727-.2261h2.2044c.546 0 .9445-.5069.8062-1.0255l-1.8552-6.9546c-.096-.3598-.4272-.6109-.8061-.6109z" clip-rule="evenodd"/></svg>