<svg xmlns="http://www.w3.org/2000/svg" fill="none" viewBox="0 0 16 16"><g fill="currentColor" clip-path="url(#attention--16-a)"><path fill-rule="evenodd" d="M8 16c-4.4183 0-8-3.5817-8-8s3.5817-8 8-8 8 3.5817 8 8-3.5817 8-8 8m0-2c3.3137 0 6-2.6863 6-6s-2.6863-6-6-6-6 2.6863-6 6 2.6863 6 6 6" clip-rule="evenodd"/><path d="M7 7.5c0-.552.448-1 1-1s1 .448 1 1v4c0 .552-.448 1-1 1s-1-.448-1-1zM7 4.5c0-.552.448-1 1-1s1 .448 1 1-.448 1-1 1-1-.448-1-1"/></g><defs><clipPath id="attention--16-a"><path fill="#fff" d="M0 0h16v16H0z"/></clipPath></defs></svg>