<svg xmlns="http://www.w3.org/2000/svg" fill="none" viewBox="0 0 32 32"><path fill="currentColor" d="M28.7681 5.378c-.2452-.031-.5124-.0447-.8049-.0447-.553 0-1.0582.0613-1.5302.1924-.4948.1374-.9205.3345-1.298.6023-.3724.2528-.6849.5843-.9213.9735-.2414.3971-.3614.8536-.3614 1.3618 0 .6335.2231 1.2315.6514 1.7603.4242.5354 1.1006.9334 2.0036 1.1968l1.6414.4716.2057.0656c.3895.1312.6483.2626.7714.3829.1299.1269.1892.2687.1892.4575 0 .2874-.1265.5-.3998.6637-.3141.1882-.8006.2898-1.4496.2898-.4253 0-.8424-.0391-1.2742-.1191a6.1 6.1 0 0 1-1.171-.3453l-.3119-.1149a1.08 1.08 0 0 0-.3191-.0489c-.4078 0-.6501.2967-.6501.7112v.5341l.012.1557a1.08 1.08 0 0 0 .0937.3036c.0892.1859.2735.3403.5214.4694.3184.17.777.3161 1.3967.4537.5911.1314 1.2076.1979 1.8269.1979.61 0 1.1785-.0775 1.726-.2352.5415-.1515.9983-.363 1.3812-.6488.3804-.2725.6927-.6243.9302-1.0397.2297-.4249.3448-.8968.3448-1.4052 0-.6378-.2032-1.2147-.6072-1.7092-.4055-.4965-1.0583-.8702-1.9445-1.1323l-1.6068-.4714-.2204-.0693c-.4208-.1403-.7212-.2894-.8757-.4252-.1417-.1247-.2079-.2703-.2079-.454 0-.2865.1025-.4642.3352-.5963.2771-.1572.7182-.2421 1.3106-.2421.7521 0 1.4242.1263 2.0187.3774l.1661.067c.159.0581.2971.0896.4165.0896.4106 0 .6499-.3075.6499-.7218v-.492l-.0071-.1337c-.0192-.1733-.0775-.3268-.1805-.454-.0935-.1309-.2476-.2486-.4599-.3608-.1332-.0741-.3153-.1464-.5427-.2165a7 7 0 0 0-.299-.0844l-.3729-.0905a25 25 0 0 0-.447-.0765z"/><path fill="currentColor" fill-rule="evenodd" d="M7.869 6.304c-.7186-.6416-1.7943-.9497-3.2266-.9497-.6643 0-1.2817.0687-1.858.2103-.5742.13-1.0763.296-1.5001.4979-.2023.0936-.3552.2007-.4576.3335-.1195.1548-.1594.3479-.1594.6014v.513l.0081.1326c.0434.3412.2587.5787.6193.5787.0853 0 .1693-.0148.2815-.0445.1205-.0319.272-.0826.4427-.1517.3515-.13.7378-.2418 1.1604-.337a5.14 5.14 0 0 1 1.1351-.1265c.787 0 1.3073.1354 1.582.3818l.0815.0875.073.1039c.1602.2616.2487.6583.2487 1.1971l-.0013.2917-.3361-.0625a11 11 0 0 0-.5246-.0788c-.4602-.0576-.8648-.0868-1.2476-.0868-1.2449 0-2.2475.296-3.0137.9008C.3957 10.9127 0 11.7453 0 12.7561c0 .9399.324 1.7155.9637 2.2957.6306.5718 1.4819.8552 2.5251.8552l.3059-.008.3282-.0275c.9718-.1117 1.8262-.4863 2.554-1.1202l.0425-.0402.1152.1882.143.1983a3.6 3.6 0 0 0 .3183.3611c.206.1735.4023.2598.615.2598.1695 0 .3414-.0545.5003-.1528l.7123-.4396.1191-.0935c.182-.1598.2797-.3395.2797-.5489 0-.1566-.0495-.3141-.145-.4558l-.115-.2127a5.4 5.4 0 0 1-.2077-.4664l-.0333-.1175-.0271-.1397c-.0239-.1502-.0374-.3311-.0374-.5345l-.0228-.0229.0002-3.3694-.0074-.3062C8.873 7.7576 8.5222 6.8978 7.869 6.304M3.16 11.7546c.2934-.2223.7662-.3394 1.4485-.3394.3338 0 .6693.0198 1.0179.0602l.3309.0446.3644.063.0005.1261-.0066.2201c-.013.2144-.045.4118-.0933.5908-.0477.1768-.1455.3442-.2974.5112-.2562.2632-.5631.4556-.9008.5598-.3726.115-.7182.1711-1.049.1711-.4305 0-.7271-.0961-.9157-.278-.2029-.1807-.3004-.4405-.3004-.8326 0-.4091.1295-.6912.401-.8969" clip-rule="evenodd"/><path fill="currentColor" d="M11.01 5.606c.259 0 .46.037.593.119l.071.055c.146.101.235.242.325.473l.054.151 1.509 5.508 1.403-5.506c.048-.177.105-.321.182-.435l.085-.104.101-.085c.135-.094.315-.149.519-.168l.157-.007h.905c.301 0 .525.051.676.175.149.103.257.271.325.473l.044.158 1.425 5.598 1.57-5.621c.052-.162.114-.298.192-.412l.084-.105.097-.09c.136-.094.309-.149.509-.168l.155-.007h1.052c.393 0 .673.252.673.648l-.002.07c-.003.031-.01.071-.027.166a1.5 1.5 0 0 1-.054.208l-.039.109-2.724 8.089c-.092.283-.209.485-.385.607-.134.094-.307.149-.503.168l-.151.007h-.973c-.301 0-.525-.051-.699-.192-.138-.112-.241-.275-.305-.47L16.438 9.566l-1.365 5.29c-.046.17-.101.31-.174.424l-.079.105-.092.089c-.139.112-.315.168-.53.185l-.169.007h-.973c-.288 0-.504-.052-.654-.175-.138-.096-.239-.243-.324-.444l-.061-.161-2.658-8.095c-.082-.253-.12-.41-.12-.537 0-.342.212-.588.535-.639l.126-.01zM26.078 20.482c-.806.111-.945-.749-.376-1.202 1.787-1.381 5.385-1.438 6.086-.496l.066.11c.534 1.081-.437 4.652-2.042 6.137-.558.523-1.335.127-1.06-.63.765-2.084 1.175-3.618.95-3.93-.207-.293-1.619-.255-3.623.013"/><path fill="currentColor" d="M15.9599 26.6667c-5.9343 0-11.4558-2.3636-15.709-6.5921-.6358-.6322.0442-1.6224.844-1.0987 4.4603 2.849 9.8333 4.4492 15.2281 4.4492 3.8452 0 7.9393-.9038 11.6039-2.6094l.1157-.0506c.955-.3572 1.6701.8583.8054 1.5634-3.3443 2.7195-8.3214 4.3382-12.8881 4.3382"/></svg>