<svg xmlns="http://www.w3.org/2000/svg" fill="none" viewBox="0 0 24 24"><path fill="currentColor" d="M21.576 4.0335C21.3922 4.0103 21.1917 4 20.9724 4c-.4148 0-.7937.046-1.1477.1442-.3711.1031-.6904.251-.9734.4518a2.36 2.36 0 0 0-.691.7301c-.1811.2979-.2711.6402-.2711 1.0213 0 .4752.1674.9237.4886 1.3203.3181.4015.8255.7 1.5026.8976l1.2311.3537.1543.0492c.2921.0984.4863.197.5786.2871.0974.0952.1419.2016.1419.3432 0 .2156-.095.375-.2999.4978-.2356.1411-.6004.2173-1.0872.2173-.319 0-.6318-.0293-.9557-.0893a4.6 4.6 0 0 1-.8782-.259l-.234-.0862a.8.8 0 0 0-.2393-.0366c-.3058 0-.4876.2225-.4876.5334v.4006l.0091.1167a.82.82 0 0 0 .0702.2277c.0669.1394.2052.2552.3911.352.2388.1276.5827.2372 1.0475.3404a6.34 6.34 0 0 0 1.3702.1484c.4575 0 .8839-.0582 1.2945-.1764.4061-.1137.7487-.2723 1.0359-.4867.2853-.2043.5195-.4682.6976-.7797.1723-.3187.2587-.6726.2587-1.0539 0-.4784-.1525-.911-.4554-1.282-.3042-.3723-.7938-.6526-1.4584-.8492l-1.2052-.3535-.1652-.052c-.3157-.1052-.541-.217-.6568-.3188-.1063-.0936-.156-.2028-.156-.3406 0-.2148.0769-.3482.2515-.4472.2078-.118.5386-.1816.9829-.1816.5641 0 1.0682.0948 1.5141.283l.1245.0503c.1193.0436.2229.0672.3124.0672.3079 0 .4875-.2306.4875-.5413v-.369l-.0054-.1003c-.0144-.13-.0582-.2451-.1354-.3405-.0701-.0981-.1857-.1864-.3449-.2706-.0999-.0556-.2365-.1098-.407-.1624a5 5 0 0 0-.2243-.0633l-.2796-.0678a18 18 0 0 0-.3353-.0574z"/><path fill="currentColor" fill-rule="evenodd" d="M5.9018 4.728c-.539-.4812-1.3458-.7123-2.42-.7123-.4982 0-.9612.0515-1.3936.1577-.4305.0976-.8071.2221-1.125.3735-.1517.0702-.2663.1505-.3432.25-.0896.1162-.1195.261-.1195.4511v.3848l.006.0994c.0326.256.194.434.4645.434.064 0 .127-.011.2111-.0333.0904-.0239.204-.062.332-.1138.2637-.0975.5534-.1813.8704-.2527.2839-.064.567-.0949.8513-.0949.5903 0 .9805.1016 1.1865.2863l.0611.0657.0548.0779c.1201.1962.1865.4937.1865.8978l-.001.2188-.252-.047a8.4 8.4 0 0 0-.3935-.059c-.3452-.0432-.6486-.0651-.9357-.0651-.9336 0-1.6856.222-2.2603.6756C.2968 8.1845 0 8.809 0 9.5671c0 .7049.243 1.2866.7228 1.7218.4729.4288 1.1114.6414 1.8938.6414l.2294-.0061.2462-.0206c.7288-.0838 1.3696-.3647 1.9155-.8401l.0318-.0302.0864.1412.1072.1487q.111.144.2389.2708c.1545.1301.3016.1948.4612.1948.1271 0 .256-.0408.3752-.1145l.5342-.3297.0894-.0702c.1364-.1198.2097-.2545.2097-.4116 0-.1175-.037-.2356-.1088-.3419l-.0861-.1595a4 4 0 0 1-.1558-.3498l-.025-.0881-.0204-.1048c-.0178-.1127-.028-.2483-.028-.4009l-.017-.0171V6.8736l-.0055-.2297c-.0404-.8257-.3034-1.4706-.7933-1.9159M2.37 8.816c.22-.1668.5746-.2546 1.0864-.2546.2504 0 .502.0149.7634.0451l.2481.0335.2733.0473.0004.0945-.0049.165a2.2 2.2 0 0 1-.07.4432c-.0358.1326-.1091.2581-.223.3834-.1922.1974-.4223.3417-.6756.4199-.2795.0862-.5386.1283-.7868.1283-.3228 0-.5453-.0721-.6867-.2085-.1522-.1356-.2253-.3304-.2253-.6245 0-.3068.097-.5184.3007-.6727" clip-rule="evenodd"/><path fill="currentColor" d="M8.257 4.204c.194 0 .345.027.445.09l.054.041c.109.076.176.181.244.355l.041.113 1.132 4.131 1.052-4.13c.036-.133.079-.241.137-.326l.064-.078.076-.064c.102-.07.236-.112.389-.126l.118-.005h.679c.226 0 .394.038.507.131.112.078.193.203.244.355l.033.118 1.069 4.198 1.177-4.216c.039-.121.085-.224.144-.309l.063-.079.073-.067c.102-.071.232-.112.382-.126l.117-.005h.789c.294 0 .504.189.504.486l-.001.052c-.002.024-.007.053-.02.124a1.2 1.2 0 0 1-.04.156l-.03.082-2.043 6.067c-.069.212-.157.364-.289.455-.101.07-.23.112-.377.126l-.113.005h-.729c-.226 0-.394-.038-.524-.144-.104-.084-.18-.206-.228-.352l-1.062-4.086-1.024 3.967c-.034.128-.076.233-.13.318l-.059.079-.069.067c-.104.084-.236.126-.397.139l-.127.005h-.729c-.216 0-.378-.039-.49-.131-.104-.072-.179-.183-.243-.333l-.045-.121-1.994-6.071c-.061-.19-.09-.308-.09-.403 0-.256.159-.441.401-.479l.095-.007zM19.559 15.361c-.604.083-.709-.562-.282-.902 1.34-1.036 4.039-1.078 4.564-.372l.049.082c.4.811-.328 3.489-1.531 4.603-.418.393-1.002.096-.795-.473.574-1.563.881-2.713.713-2.948-.155-.22-1.214-.192-2.717.01"/><path fill="currentColor" d="M11.9699 20C7.5192 20 3.378 18.2273.1882 15.0559c-.4769-.4741.0331-1.2168.633-.824 3.3452 2.1368 7.375 3.3369 11.4211 3.3369 2.8839 0 5.9544-.6778 8.7029-1.957l.0867-.0379c.7163-.268 1.2527.6437.6041 1.1725C19.1278 18.786 15.3949 20 11.9699 20"/></svg>