<svg xmlns="http://www.w3.org/2000/svg" fill="none" viewBox="0 0 32 32"><path fill="currentColor" d="M20.5668 19.6126a.5.5 0 0 0-.0668.2494v6.276a.5.5 0 0 0 .2486.4331.5001.5001 0 0 0 .4994.0019l5.492-3.139a.499.499 0 0 0 .2517-.434.5.5 0 0 0-.2517-.434l-5.492-3.138a.5.5 0 0 0-.6812.1846"/><path fill="currentColor" fill-rule="evenodd" d="M4 3c-1.1046 0-2 .8954-2 2v18c0 1.1046.8954 2 2 2h8l-.845 3.379c-.0787.3155.1599.6209.485.621l4.6695.0198q.1584.176.3265.3442a9.0004 9.0004 0 0 0 12.728 0 9.0004 9.0004 0 0 0 .6119-12.0506L30 5c.0022-1.1046-.8954-2-2-2zm13.37 4.975 3.3998 6.3057a9 9 0 0 0-3.5575 1.8271L15.356 13.752l2.013-5.777zm-2.8619 12.0439a9 9 0 0 1 .2118-.5458L11.728 20zM12.025 11.165 16.742 7l-5.113 11.522H8zM30 23a7 7 0 0 1-2.0503 4.9497 6.9997 6.9997 0 0 1-9.8994 0 6.9997 6.9997 0 0 1 0-9.8994 6.9997 6.9997 0 0 1 9.8994 0A7 7 0 0 1 30 23" clip-rule="evenodd"/></svg>