<svg xmlns="http://www.w3.org/2000/svg" fill="none" viewBox="0 0 24 24"><path fill="currentColor" d="M.9727 20.648 7.0377 2.68A1 1 0 0 1 7.9852 2l.0754.0002a.999.999 0 0 1 .946.679l2.5101 7.4363-1.6304 4.83h3.3369l1.9282 5.7126a.998.998 0 0 1-.1349.9015.9994.9994 0 0 1-.7875.4159h-.2322a1.005 1.005 0 0 1-.6854-.27l-4.3399-4.05-1.2252 3.6296a1 1 0 0 1-.9472.6801H1.9187a.998.998 0 0 1-.811-.416.998.998 0 0 1-.135-.9012"/><path fill="currentColor" d="m16.962 2.7137 6.0654 17.9686a.999.999 0 0 1-.1349.9014.998.998 0 0 1-.8109.4163h-6.9892a1 1 0 0 0 .8111-.4162 1 1 0 0 0 .1764-.4344 1 1 0 0 0-.0415-.4671L9.9731 2.7137a.998.998 0 0 0-.946-.6791h6.9889a.998.998 0 0 1 .946.679"/></svg>