<svg xmlns="http://www.w3.org/2000/svg" fill="none" viewBox="0 0 32 32"><path fill="currentColor" d="M15 3c-1.105 0-2 .895-2 2v1h11c1.105 0 2 .895 2 2v10c.853 0 1.676.134 2.447.381A1.993 1.993 0 0 0 29 17V5c0-1.105-.895-2-2-2zM19 22.124c-.637 1.148-1 2.47-1 3.876 0 .853.134 1.676.381 2.447A1.993 1.993 0 0 1 17 29H5c-1.105 0-2-.895-2-2V15c0-1.105.895-2 2-2h12c1.105 0 2 .895 2 2z"/><path fill="currentColor" d="M24 18.252a7.97 7.97 0 0 0-3 1.5026V13c0-1.1046-.8954-2-2-2H8v-1c0-1.1046.8954-2 2-2h12c1.1046 0 2 .8954 2 2z"/></svg>