<svg xmlns="http://www.w3.org/2000/svg" fill="none" viewBox="0 0 24 24"><path fill="currentColor" d="M10.9049 3.473c-.2726-.0132-.4941-.2331-.4941-.506V1.485c0-.2729.222-.495.4946-.4845C17.47 1.2538 22.7462 6.53 22.9996 13.0946c.0106.2726-.2116.4946-.4845.4946H21.033c-.2729 0-.4928-.2215-.5059-.4941-.2498-5.2004-4.4218-9.3724-9.6222-9.6222"/><path fill="currentColor" d="M10.904 8.425c-.272-.026-.493-.244-.493-.517V6.425c0-.273.222-.496.494-.478 3.836.244 6.904 3.312 7.148 7.148.017.272-.205.494-.478.494h-1.482c-.273 0-.492-.222-.517-.493-.233-2.471-2.2-4.438-4.671-4.671M4.482 6.178c.819 0 1.482.664 1.482 1.482v7.905c0 1.364 1.106 2.47 2.47 2.47h.247c1.228 0 2.223-.995 2.223-2.223s-.995-2.223-2.223-2.223h-.247c-.819 0-1.482-.664-1.482-1.482s.664-1.482 1.482-1.482h.247c2.865 0 5.188 2.323 5.188 5.188S11.547 21 8.682 21h-.247C5.433 21 3 18.567 3 15.565V7.661c0-.819.664-1.482 1.482-1.482"/></svg>