<svg xmlns="http://www.w3.org/2000/svg" fill="none" viewBox="0 0 16 16"><path fill="currentColor" d="M15.9863 8.5c.0151.2758-.2102.5-.4863.5h-1c-.2761 0-.4981-.2246-.5176-.5-.2447-3.4675-3.0149-6.2377-6.4823-6.4824C7.2246 1.9982 7 1.7762 7 1.5v-1c0-.2761.2242-.5014.5-.4863C12.0725.264 15.736 3.9275 15.9863 8.5"/><path fill="currentColor" d="M12.478 8.5C12.502 8.775 12.276 9 12 9h-1c-.276 0-.496-.225-.535-.498-.219-1.534-1.432-2.747-2.966-2.966C7.225 5.496 7 5.276 7 5V4c0-.276.225-.502.5-.478 2.639.238 4.74 2.339 4.978 4.978M2 4c.552 0 1 .448 1 1v5.75c0 .967.784 1.75 1.75 1.75s1.75-.783 1.75-1.75v-.25C6.5 9.672 5.828 9 5 9c-.552 0-1-.448-1-1s.448-1 1-1c1.933 0 3.5 1.567 3.5 3.5v.25c0 2.071-1.679 3.75-3.75 3.75S1 12.821 1 10.75V5c0-.552.448-1 1-1"/></svg>