<svg xmlns="http://www.w3.org/2000/svg" fill="none" viewBox="0 0 24 24"><path fill="currentColor" fill-rule="evenodd" d="M15 9v4h-.0037c-.5522 0-1 .4477-1 1v7.5433A10 10 0 0 1 11 22C5.4772 22 1 17.5228 1 12S5.4772 2 11 2c4.1006 0 7.6248 2.4682 9.1679 6H16c-.5523 0-1 .4477-1 1M4.2718 11.4482c-.0436.5506.3674 1.0322.918 1.0757s1.0322-.3675 1.0757-.918a5 5 0 0 1 3.8138-4.467c.5369-.1292.8674-.6693.7381-1.2062-.1293-.537-.6694-.8674-1.2063-.7381a7 7 0 0 0-5.3393 6.2536M12.9974 12c0 1.1046-.8954 2-2 2s-2-.8954-2-2 .8955-2 2-2 2 .8954 2 2" clip-rule="evenodd"/><path fill="currentColor" d="M17 10.5a.5.5 0 0 1 .5-.5h4a.5.5 0 0 1 .5.5V13h-5zM23 15h-7v7c0 .552.448 1 1 1h5c.552 0 1-.448 1-1z"/></svg>