<svg xmlns="http://www.w3.org/2000/svg" fill="none" viewBox="0 0 24 24"><path fill="currentColor" fill-rule="evenodd" d="M2 1c0-.552.448-1 1-1H16.793a1.5 1.5 0 0 1 1.061.439l3.707 3.707A1.5 1.5 0 0 1 22 5.207V9.793c0 .398-.158.779-.439 1.061l-2.5 2.5c-.586.586-1.535.586-2.121 0L15 11.414l-1.939 1.939c-.586.586-1.535.586-2.121 0L9 11.414l-1.939 1.939c-.586.586-1.535.586-2.121 0l-2.5-2.5A1.5 1.5 0 0 1 2 9.793zm2 1v7.586l2 2 1.939-1.939c.586-.586 1.536-.586 2.121 0L12 11.586l1.939-1.939c.586-.586 1.536-.586 2.121 0L18 11.586l2-2V7h-3.5c-.828 0-1.5-.672-1.5-1.5V2zm13 .414V5h2.586zM7.939 14.646c.586-.586 1.536-.586 2.121 0L12 16.586l1.939-1.939c.586-.586 1.536-.586 2.121 0L18 16.586l2.037-2.037c.725-.724 1.963-.211 1.963.813V24H2v-8.638c0-1.024 1.239-1.538 1.963-.813L6 16.586zM15 16.414l-1.939 1.939c-.586.586-1.536.586-2.121 0L9 16.414l-1.939 1.939c-.586.586-1.536.586-2.121 0L4 17.414V22h16v-4.586l-.939.939c-.586.586-1.536.586-2.121 0z" clip-rule="evenodd"/></svg>