<svg xmlns="http://www.w3.org/2000/svg" fill="none" viewBox="0 0 24 24"><path fill="currentColor" fill-rule="evenodd" d="m4.0432 4.8358.0003.0013.518 4.014c-1.146.54-2.5815 1.7131-3.288 3.8327-.6164 1.8492-.1587 3.623 1.054 4.8358.8916.8915 2.1382 1.4315 3.5497 1.5284l.2057.9741C6.623 21.7075 9.738 23 13.5 23s6.877-1.2925 7.4171-2.9779l2.0394-15.185A1.34 1.34 0 0 0 23 4.5C23 2.567 18.7467 1 13.5 1S4 2.567 4 4.5q.0002.17.0431.3358M20.75 4.5c-.2585-.1784-.6572-.3894-1.2239-.5982C18.0806 3.3693 15.9504 3 13.5 3s-4.5806.3693-6.0261.9018c-.5667.2088-.9654.4198-1.224.5982.2586.1784.6573.3894 1.224.5982C8.9194 5.6307 11.0496 6 13.5 6s4.5806-.3693 6.0261-.9018c.5667-.2088.9654-.4198 1.2239-.5982M7.8744 18.8984c1.4312-.307 2.8334-1.021 4-1.7691a20.1 20.1 0 0 0 1.712-1.2325c.1997.0669.4135.1032.6358.1032 1.1045 0 2-.8954 2-2s-.8955-2-2-2-2 .8954-2 2c0 .1354.0134.2676.0391.3955-.4329.3435-.9297.706-1.4664 1.0502-1.0254.6574-2.1332 1.2066-3.1776 1.4601L6.312 6.7885C8.0539 7.5305 10.628 8 13.5 8s5.4461-.4695 7.1881-1.2115l-1.5972 12.3788-.0784.2444q.0012-.0032-.0035.0043c-.033.05-.2959.4487-1.3438.8736C16.6275 20.7104 15.1704 21 13.5 21s-3.1275-.2896-4.1652-.7104c-1.0479-.4249-1.3108-.8237-1.3438-.8736q-.0047-.0075-.0035-.0043l-.0784-.2444zM5.614 17.0078c-.7958-.1284-1.4346-.4649-1.8721-.9024-.6622-.6622-.9545-1.6384-.571-2.7892.3864-1.159 1.0622-1.8881 1.6676-2.3185z" clip-rule="evenodd"/></svg>