<svg xmlns="http://www.w3.org/2000/svg" fill="none" viewBox="0 0 16 16"><path fill="currentColor" fill-rule="evenodd" d="M4.5327 1.4311C5.7117 1.1591 7.2907 1 9.0001 1s3.2883.159 4.4674.4311c.5815.1342 1.1212.3082 1.5399.5367.2089.114.4346.2665.6189.4743.1897.214.3737.5335.3737.9424q0 .0283-.0012.0561Q16 3.47 16 3.5c0 .2098-.0441.3962-.1154.5606l-1.7358 8.679c-.0463.5629-.4.9617-.7024 1.1999-.3354.2644-.7588.4587-1.1929.6034-.8786.2929-2.0288.4569-3.2534.4569s-2.3747-.164-3.2534-.4569c-.434-.1447-.8574-.339-1.1929-.6034-.1887-.1487-.3975-.36-.539-.6347a5.6 5.6 0 0 1-.5626-.0042c-.6776-.0402-1.3931-.216-2.0093-.631-.636-.4282-1.1074-1.0732-1.321-1.9272-.3368-1.3476.0674-2.4506.6839-3.2353.5248-.668 1.2031-1.1125 1.7282-1.355l-.4183-2.0915A1.395 1.395 0 0 1 2.0003 3.5q0-.03.0012-.0593a1 1 0 0 1-.0012-.056c0-.409.184-.7286.3736-.9425.1843-.2078.41-.3604.619-.4743.4186-.2285.9583-.4025 1.5398-.5367M2.9465 8.2146c-.1978.1382-.4012.3156-.5681.528-.3002.382-.4793.8624-.3162 1.5146.0957.3827.2788.606.4977.7534.2375.1599.575.2667 1.0044.2931zm3.5664 4.4731c.2292-.1087.4422-.2282.6338-.3559.7297-.4865 1.3781-.9965 1.8676-1.4125.1523.0522.3158.0804.4858.0804.8284 0 1.5-.6715 1.5-1.5 0-.8283-.6716-1.4999-1.5-1.4999-.6914 0-1.2736.4678-1.4472 1.1042-.4342.3901-1.162.9947-2.0156 1.5637-.1441.0961-.316.1876-.5067.2699L4.4457 5.5131l.0693.0176c1.1859.2964 2.7712.4692 4.4851.4692s3.2992-.1728 4.4851-.4692l.0693-.0176-1.3755 6.8774c-.095.0665-.2731.16-.558.255-.6247.2082-1.5514.3542-2.6209.3542-.9956 0-1.8675-.1265-2.4872-.312m-1.843-9.1878a7 7 0 0 1 .3302-.0905c.9857-.2464 2.4003-.4095 4-.4095s3.0144.163 4 .4095q.1791.045.3302.0905a7 7 0 0 1-.3302.0905c-.9856.2465-2.4003.4095-4 .4095s-3.0143-.163-4-.4095A7 7 0 0 1 4.67 3.5" clip-rule="evenodd"/></svg>