<svg xmlns="http://www.w3.org/2000/svg" fill="none" viewBox="0 0 32 32"><path fill="currentColor" d="M9 2h2v6H9zM21 2h2v6h-2zM10 14H7v2h3zM10 18H7v2h3zM10 22H7v2h3zM12 22h3v2h-3zM17 22h3v2h-3zM22 22h3v2h-3zM15 18h-3v2h3zM20 18h-3v2h3zM25 18h-3v2h3zM12 14h3v2h-3zM17 14h3v2h-3zM22 14h3v2h-3z"/><path fill="currentColor" fill-rule="evenodd" d="M24 5h2a3 3 0 0 1 3 3v17a3 3 0 0 1-3 3H6a3 3 0 0 1-3-3V8a3 3 0 0 1 3-3h2v4h4V5h8v4h4zm2.7071 20.7071A1 1 0 0 0 27 25V12H5v13a1 1 0 0 0 1 1h20c.2652 0 .5196-.1054.7071-.2929" clip-rule="evenodd"/></svg>