<svg xmlns="http://www.w3.org/2000/svg" fill="none" viewBox="0 0 16 16"><g fill="currentColor" clip-path="url(#calendar--16-a)"><path d="M9 7H7v2h2zM6 12v-2H4v2zM9 10H7v2h2zM10 12v-2h2v2zM4 9V7h2v2zM12 9V7h-2v2z"/><path fill-rule="evenodd" d="M11 0c.5523 0 1 .4477 1 1h3c.5523 0 1 .4477 1 1v13c0 .5523-.4477 1-1 1H1c-.5523 0-1-.4477-1-1V2c0-.5523.4477-1 1-1h3c0-.5523.4477-1 1-1s1 .4477 1 1h4c0-.5523.4477-1 1-1m3 14H2V5h12z" clip-rule="evenodd"/></g><defs><clipPath id="calendar--16-a"><path fill="#fff" d="M0 0h16v16H0z"/></clipPath></defs></svg>