<svg xmlns="http://www.w3.org/2000/svg" fill="none" viewBox="0 0 32 32"><path fill="currentColor" fill-rule="evenodd" d="M16 20c3.866 0 7-3.134 7-7s-3.134-7-7-7-7 3.134-7 7 3.134 7 7 7m0-2c2.7614 0 5-2.2386 5-5s-2.2386-5-5-5-5 2.2386-5 5 2.2386 5 5 5" clip-rule="evenodd"/><path fill="currentColor" fill-rule="evenodd" d="M16.978 1.2485a2.049 2.049 0 0 0-1.956 0l-1.7778.965a2.05 2.05 0 0 1-.8183.2423l-2.0129.1576c-.6913.0541-1.3094.4547-1.6454 1.0664L7.7892 5.461a2.08 2.08 0 0 1-.5584.65l-1.6089 1.23c-.5525.4225-.8578 1.0966-.8125 1.7944l.1318 2.0318a2.1 2.1 0 0 1-.1214.8512l-.694 1.9121a2.096 2.096 0 0 0 .2783 1.9524l1.2001 1.6375c.1708.233.2915.4995.3543.7822l.4411 1.987c.1515.6824.6327 1.2424 1.2809 1.4907l1.7495.6704-1.255 6.7606c-.2015 1.2363 1.054 2.1842 2.1505 1.6237L16 27.9342l5.6746 2.9007c1.0965.5605 2.3519-.3874 2.1504-1.6237l-1.255-6.7606 1.7495-.6704c.6482-.2483 1.1294-.8083 1.2809-1.4907l.4412-1.987a2.09 2.09 0 0 1 .3542-.7822l1.2001-1.6375a2.096 2.096 0 0 0 .2783-1.9524l-.694-1.9121a2.1 2.1 0 0 1-.1214-.8512l.1318-2.0318c.0453-.6978-.26-1.3719-.8125-1.7943l-1.6089-1.2301a2.075 2.075 0 0 1-.5584-.65l-.9784-1.781c-.336-.6118-.9541-1.0124-1.6454-1.0665l-2.0129-.1576a2.05 2.05 0 0 1-.8183-.2424zm.7999 2.7976L16 3.0812l-1.7779.965a4.1 4.1 0 0 1-1.6364.4845l-2.0129.1576-.9784 1.7811a4.15 4.15 0 0 1-1.1169 1.3l-1.6088 1.23.1317 2.0318a4.195 4.195 0 0 1-.2427 1.7025l-.694 1.9121 1.2 1.6374c.3416.4661.583.999.7085 1.5646l.4412 1.9869 1.8874.7232a4.12 4.12 0 0 1 1.4347.9299l1.4363 1.431 1.9754-.4207a4.09 4.09 0 0 1 1.7056 0l1.9754.4207 1.4363-1.431a4.12 4.12 0 0 1 1.4347-.9299l1.8874-.7232.4412-1.9869a4.18 4.18 0 0 1 .7084-1.5646l1.2001-1.6374-.694-1.9121a4.19 4.19 0 0 1-.2427-1.7025l.1317-2.0318-1.6088-1.23a4.15 4.15 0 0 1-1.1169-1.3l-.9784-1.781-2.0129-.1577a4.1 4.1 0 0 1-1.6364-.4846m3.0269 19.8289-.5263.5243a2.052 2.052 0 0 1-1.8767.5558l-1.9754-.4207a2.05 2.05 0 0 0-.8528 0l-1.9754.4207a2.052 2.052 0 0 1-1.8767-.5558l-.5263-.5243-.8859 4.6821 5.0199-2.5661a1.47 1.47 0 0 1 1.3416 0l5.02 2.5661z" clip-rule="evenodd"/></svg>