<svg xmlns="http://www.w3.org/2000/svg" fill="none" viewBox="0 0 24 24"><path fill="currentColor" fill-rule="evenodd" d="M12.2759 17H20V4H4v13h5v2.7299zM20 19h-7l-4.3598 3.6332C7.9889 23.176 7 22.7128 7 21.865V19H4c-1.1046 0-2-.8954-2-2V4c0-1.1046.8954-2 2-2h16c1.1046 0 2 .8954 2 2v13c0 1.1046-.8954 2-2 2" clip-rule="evenodd"/><path fill="currentColor" fill-rule="evenodd" d="M6 8c0-.552.448-1 1-1h9c.552 0 1 .448 1 1s-.448 1-1 1H7c-.552 0-1-.448-1-1M6 13c0-.552.448-1 1-1h6c.552 0 1 .448 1 1s-.448 1-1 1H7c-.552 0-1-.448-1-1" clip-rule="evenodd"/></svg>