<svg xmlns="http://www.w3.org/2000/svg" fill="none" viewBox="0 0 32 32"><path fill="currentColor" d="M8 8c0-.552.448-1 1-1h7c.552 0 1 .448 1 1s-.448 1-1 1H9c-.552 0-1-.448-1-1M21 8c0-.552.448-1 1-1h1c.552 0 1 .448 1 1s-.448 1-1 1h-1c-.552 0-1-.448-1-1M22 11c-.552 0-1 .448-1 1s.448 1 1 1h1c.552 0 1-.448 1-1s-.448-1-1-1zM21 16c0-.552.448-1 1-1h1c.552 0 1 .448 1 1s-.448 1-1 1h-1c-.552 0-1-.448-1-1M18 21c-.552 0-1 .448-1 1s.448 1 1 1h5c.552 0 1-.448 1-1s-.448-1-1-1zM8 12c0-.552.448-1 1-1h2c.552 0 1 .448 1 1s-.448 1-1 1H9c-.552 0-1-.448-1-1M9 15c-.552 0-1 .448-1 1s.448 1 1 1h5c.552 0 1-.448 1-1s-.448-1-1-1z"/><path fill="currentColor" fill-rule="evenodd" d="M5.5547 29.8321C4.8901 30.2751 4 29.7987 4 29V3c0-.5523.4477-1 1-1h22c.5523 0 1 .4477 1 1v26c0 .7987-.8901 1.2751-1.5547.8321L24 28.2019l-2.4453 1.6302a1 1 0 0 1-1.1094 0l-2.3179-1.5453-1.4203 1.4203a1 1 0 0 1-1.2618.125l-2.3179-1.5453-1.4203 1.4203a1 1 0 0 1-1.2618.125L8 28.2019zm1.8906-3.6642a1 1 0 0 1 1.1094 0l2.3179 1.5453 1.4203-1.4203a1 1 0 0 1 1.2618-.125l2.3179 1.5453 1.4203-1.4203a1 1 0 0 1 1.2618-.125L21 27.7981l2.4453-1.6302a1 1 0 0 1 1.1094 0L26 27.1315V4H6v23.1315z" clip-rule="evenodd"/></svg>