<svg xmlns="http://www.w3.org/2000/svg" fill="none" viewBox="0 0 32 32"><path fill="currentColor" d="M13 6c0-1.657 1.343-3 3-3s3 1.343 3 3v5h5c1.105 0 2 .895 2 2v1c0 .552-.448 1-1 1H7c-.552 0-1-.448-1-1v-1c0-1.105.895-2 2-2h5zM7 18v4c0 2.772-.96 4.583-1.55 5.434-.152.22.007.566.274.566H9c.933 0 3.607-2.612 3.961-5.398.028-.221.222-.269.284-.055.127.435.255 1.188.255 2.453 0 1.359-.296 2.127-.565 2.545-.086.133.042.455.201.455H22c1.5 0 3-1 3-6v-4.002c0-.552-.448-.998-1-.998H8c-.552 0-1 .448-1 1"/></svg>