<svg xmlns="http://www.w3.org/2000/svg" fill="none" viewBox="0 0 16 16"><path fill="currentColor" d="M6 2c0-1.105.895-2 2-2s2 .895 2 2v2.5h3.5c.828 0 1.5.672 1.5 1.5v.5c0 .552-.448 1-1 1H2c-.552 0-1-.448-1-1V6c0-.828.672-1.5 1.5-1.5H6zM3 9c-.552 0-.997.448-.977.999l.006.158c.074 2.004.154 4.205-1.567 5.497C.314 15.765.392 16 .577 16h2.595c1.943 0 2.456-2.011 2.828-3.5.594 1.04.48 2.357-.3 3.266-.079.092-.013.234.108.234h5.939c.166 0 .33-.039.479-.113A3.21 3.21 0 0 0 14 13.017V10c0-.552-.448-1-1-1z"/></svg>