<svg xmlns="http://www.w3.org/2000/svg" fill="none" viewBox="0 0 24 24"><path fill="currentColor" d="M12 17c.552 0 1 .448 1 1s-.448 1-1 1-1-.448-1-1 .448-1 1-1M11.986 9q.747 0 1.309.222c.379.143.694.342.945.6.507.524.76 1.232.76 2.122q0 .364-.119.678a2.56 2.56 0 0 1-.317.564 3.45 3.45 0 0 1-.423.472 51 51 0 0 1-.23.207l-.226.186a36 36 0 0 0-.416.336c-.123.1-.216.196-.277.286-.026.038-.058.097-.093.178-.035.076-.053.165-.053.265q0 .386-.225.636-.218.25-.687.25-.502 0-.727-.3c-.15-.2-.225-.415-.225-.644q0-.471.152-.813c.101-.219.229-.407.383-.564a3.03 3.03 0 0 1 .496-.422q.29-.2.495-.371.232-.193.384-.429.152-.243.151-.6c0-.295-.052-.519-.158-.672-.106-.152-.24-.254-.403-.307a1.57 1.57 0 0 0-.496-.079q-.601 0-.799.315c-.128.209-.192.462-.192.757q0 .514-.323.772c-.211.171-.434.258-.667.258-.3 0-.542-.088-.728-.265q-.277-.271-.277-.692c0-.129.014-.289.04-.479.027-.195.077-.402.151-.621q.112-.329.317-.657.198-.314.535-.593c.22-.176.49-.319.807-.429Q11.326 9 11.986 9"/><path fill="currentColor" fill-rule="evenodd" d="M15 1c.5523 0 1 .4477 1 1v1h1c.5523 0 1 .4477 1 1h1.001C20.109 4 21 4.8948 21 6v15c0 1.0991-.8975 2-2.001 2H5.001C3.8933 23 3 22.1055 3 21V6c0-1.0987.8961-2 1.999-2H6c0-.5523.4477-1 1-1h1V2c0-.5523.4477-1 1-1zM5 21h13.999C18.9962 20.9841 19 6 19 6h-1v1c0 .5523-.4477 1-1 1H7c-.5523 0-1-.4477-1-1V6H5zm5-18c0 1.1053-.8923 2-2 2v1h8V5c-1.1053 0-2-.8923-2-2z" clip-rule="evenodd"/></svg>