<svg xmlns="http://www.w3.org/2000/svg" fill="none" viewBox="0 0 24 24"><path fill="currentColor" d="M15 11.943q0 .364-.119.679a2.56 2.56 0 0 1-.317.564 3.46 3.46 0 0 1-.423.471 50 50 0 0 1-.231.207l-.225.186a36 36 0 0 0-.416.336q-.185.15-.277.286-.04.057-.092.179-.053.114-.053.264 0 .386-.225.636-.218.25-.687.25-.502 0-.727-.3-.225-.3-.225-.643 0-.471.152-.814.152-.329.383-.564a3.02 3.02 0 0 1 .496-.421q.291-.2.496-.371.231-.193.383-.429.152-.243.152-.6 0-.443-.159-.671t-.403-.307a1.57 1.57 0 0 0-.496-.079q-.601 0-.8.314-.192.314-.192.757 0 .514-.324.772-.317.257-.667.257-.449 0-.727-.264Q9 12.364 9 11.943q0-.193.04-.479.04-.293.152-.621.112-.329.317-.657.198-.314.535-.593.33-.264.806-.429T11.987 9q.747 0 1.308.221.568.214.945.6Q15 10.607 15 11.943M12 19c.552 0 1-.448 1-1s-.448-1-1-1-1 .448-1 1 .448 1 1 1"/><path fill="currentColor" fill-rule="evenodd" d="M18 4h1.001C20.109 4 21 4.8948 21 6v15c0 1.0991-.8974 2-2.0009 2H5.0009C3.8932 23 3 22.1055 3 21V6c0-1.0987.896-2 1.999-2H6c0-.5523.4477-1 1-1h1V2c0-.5523.4477-1 1-1h6c.5523 0 1 .4477 1 1v1h1c.5523 0 1 .4477 1 1m0 2v1c0 .5523-.4477 1-1 1H7c-.5523 0-1-.4477-1-1V6H5v15h13.9991C18.9963 21 19 6 19 6zM8 6h8V5c-1.1053 0-2-.8923-2-2h-4c0 1.1053-.8923 2-2 2z" clip-rule="evenodd"/></svg>