<svg xmlns="http://www.w3.org/2000/svg" fill="none" viewBox="0 0 32 32"><path fill="currentColor" d="M15.75 5.6a2.8 2.8 0 1 0 0-5.6A2.8 2.8 0 0 0 15.75 5.6M28.75 21.12a2.68 2.68 0 1 0 0 5.36A2.68 2.68 0 0 0 28.75 21.12M5.5 23.8c0 1.519-1.231 2.75-2.75 2.75S0 25.319 0 23.8s1.231-2.75 2.75-2.75S5.5 22.281 5.5 23.8M25.23 25.67a12.95 12.95 0 0 1-9.5 4.149 12.95 12.95 0 0 1-9.5-4.149 4 4 0 0 1-1.35 1.48 14.94 14.94 0 0 0 16.723 3.437 14.94 14.94 0 0 0 4.937-3.437 4 4 0 0 1-1.31-1.48"/><path fill="currentColor" fill-rule="evenodd" d="M19.5722 3.9795a4 4 0 0 1-.1307.361A13.08 13.08 0 0 1 27.75 11.8h-24a13.08 13.08 0 0 1 8.3-7.46 3.92 3.92 0 0 1-.3-1.54 3.25 3.25 0 0 1 0-.4499A15 15 0 0 0 .75 16.8a14.68 14.68 0 0 0 .3896 3.3385 4 4 0 0 1 4.2562.6615h20.7084a3.9996 3.9996 0 0 1 4.2562-.6615A14.68 14.68 0 0 0 30.75 16.8a15 15 0 0 0-11-14.4499 3.25 3.25 0 0 1 0 .45 3.92 3.92 0 0 1-.1778 1.1794M12.3127 18.8h1.026v-4.8542h-1.026v1.9025h-1.9225v-1.9025H9.3609V18.8h1.0293v-2.0951h1.9225zm3.4166-3.6291q.3187-.4382.8998-.4382.2657 0 .5412.0963.2756.0962.5479.2257l.332-.8367q-.7138-.342-1.4211-.342-.694 0-1.2119.3055-.5147.3021-.7902.8732-.2757.5679-.2756 1.3248 0 1.202.5611 1.8461.5611.6408 1.6203.6409.737 0 1.3348-.2491v-.8632q-.7272.2556-1.2385.2556-1.2186 0-1.2186-1.6236 0-.7803.3188-1.2153m5.7641.6342q.2755-.3188.2755-.7736 0-.5446-.4382-.85-.435-.3055-1.1887-.3055-.9198 0-1.5838.4781l.4748.7073q.3021-.196.5479-.2756.249-.0797.488-.0797.6907 0 .6907.5512 0 .3586-.2623.508-.259.1461-.8235.1461h-.3752v.7869h.3686q.611 0 .8898.1428.279.1427.2789.4847 0 .3819-.2423.5545-.2424.1727-.7504.1727-.3321 0-.6707-.0897-.3387-.0896-.6209-.2324v.8733q.611.2623 1.4011.2623.943 0 1.451-.3885.508-.3918.508-1.0924 0-.4815-.3021-.7637-.3022-.2855-.8899-.3586v-.0199q.498-.1196.7737-.4383" clip-rule="evenodd"/></svg>