<svg xmlns="http://www.w3.org/2000/svg" fill="none" viewBox="0 0 24 24"><path fill="currentColor" d="M9 12c0 .552-.448 1-1 1s-1-.448-1-1 .448-1 1-1 1 .448 1 1M12 12c0 .552-.448 1-1 1s-1-.448-1-1 .448-1 1-1 1 .448 1 1M9 6c0 .552-.448 1-1 1s-1-.448-1-1 .448-1 1-1 1 .448 1 1M12 6c0 .552-.448 1-1 1s-1-.448-1-1 .448-1 1-1 1 .448 1 1M9 18c0 .552-.448 1-1 1s-1-.448-1-1 .448-1 1-1 1 .448 1 1M12 18c0 .552-.448 1-1 1s-1-.448-1-1 .448-1 1-1 1 .448 1 1"/><path fill="currentColor" fill-rule="evenodd" d="M1 6c0-1.1046.8954-2 2-2h1c0-1.1046.8954-2 2-2h12c1.1046 0 2 .8954 2 2h1c1.1046 0 2 .8954 2 2v12c0 1.1046-.8954 2-2 2h-1c0 1.1046-.8954 2-2 2H6c-1.1046 0-2-.8954-2-2H3c-1.1046 0-2-.8954-2-2zm2 0h1v12H3zm18 0h-1v12h1zM6 10v4h12v-4zm0-6h12v4H6zm0 12h12v4H6z" clip-rule="evenodd"/></svg>