<svg xmlns="http://www.w3.org/2000/svg" fill="none" viewBox="0 0 16 16"><path fill="currentColor" fill-rule="evenodd" d="M12.3623 8.0194a.5.5 0 0 1 .2754 0l3 .8623c.2145.0618.3623.2598.3623.4844v3.8975q-.0001 1.4906-3.3291 2.706a.5.5 0 0 1-.3418 0Q9.0001 14.7542 9 13.2636V9.3661c0-.2246.1478-.4226.3623-.4844zm1.7412 2.877a.5.5 0 0 0-.707 0L12.25 12.0429l-.6465-.6465a.5.5 0 0 0-.707.707l1 1a.5.5 0 0 0 .707 0l1.5-1.5a.5.5 0 0 0 0-.707" clip-rule="evenodd"/><path fill="currentColor" d="M7 13.264c0 1.154.576 2.051 1.257 2.697a3.1 3.1 0 0 1-.258.013 3.113 3.113 0 0 1-1.614-.451l-2.96-1.793c.557-.013 1.11-.176 1.614-.484L7 12.045zM5.251 1.134c-.239.457-.367.975-.367 1.515v5.158c0 1.084.576 2.105 1.501 2.665L7 10.843v.425l-2.309 1.411c-.819.5-1.807.521-2.645.05-.401-.225-.725-.537-.954-.908-.245-.451-.385-.964-.385-1.491V5.639c0-1.084.577-2.105 1.505-2.665z"/><path fill="currentColor" d="M6.8691.371C7.4325.0496 8.069-.0498 8.6787.076c.169.0332.3386.0867.501.1563.1488.0596.2946.1289.4336.2149l4.1738 2.5263c.9278.5602 1.5048 1.5814 1.5049 2.665l-.002 1.0626-2.0996-.6036-.1709-.043a2.5 2.5 0 0 0-1.2099.043l-.6387.1827-1.6504-.9864a2.986 2.986 0 0 0-3.0459-.0097l-.9277.5469V2.6482c0-.9544.4937-1.8034 1.3222-2.2773"/></svg>