<svg xmlns="http://www.w3.org/2000/svg" fill="none" viewBox="0 0 24 24"><path fill="currentColor" fill-rule="evenodd" d="M18.2842 12.0288a.817.817 0 0 1 .4316 0l4.7139 1.2939c.3371.0926.5701.3888.5703.7256v5.8467q-.0002 2.2362-5.2324 4.0595a.816.816 0 0 1-.5352 0C14.7444 22.739 13 21.3858 13 19.895v-5.8467c.0002-.3368.2332-.633.5703-.7256zm3.4228 3.7636c-.3904-.3902-1.0236-.3902-1.414 0L18 18.0854l-1.293-1.293c-.3904-.3902-1.0236-.3902-1.414 0-.3906.3906-.3906 1.0245 0 1.4151l2 2c.3904.3902 1.0236.3902 1.414 0l3-3c.3906-.3906.3906-1.0245 0-1.4151" clip-rule="evenodd"/><path fill="currentColor" d="M11 19.896c0 1.26.587 2.284 1.375 3.085-.125.011-.25.02-.375.02a4.293 4.293 0 0 1-2.227-.622l-4.083-2.474c.768-.018 1.532-.242 2.227-.667L11 17.35zM8.21 2.532c-.329.631-.508 1.344-.508 2.089v7.114c0 1.495.796 2.903 2.071 3.676L11 16.152v.126l-3.563 2.178c-1.129.69-2.492.718-3.648.068-.553-.311-1.001-.74-1.316-1.252-.338-.622-.53-1.331-.53-2.058V8.745c0-1.495.795-2.903 2.075-3.676z"/><path fill="currentColor" d="M10.4404 1.48c.7771-.4434 1.655-.5809 2.4961-.4073.233.0457.4666.119.6905.2149.2057.0822.4075.179.5996.2978l5.7558 3.4834c1.2801.7726 2.0751 2.1809 2.0752 3.6758l-.0019 2.1269-2.8106-.7705a2.82 2.82 0 0 0-1.3066-.0439l-.1836.0439-.4072.1114-3.2491-1.9434a4.12 4.12 0 0 0-4.2021-.0137l-1.2803.755V4.6205c.0002-1.3165.6815-2.487 1.8242-3.1407"/></svg>