<svg xmlns="http://www.w3.org/2000/svg" fill="none" viewBox="0 0 32 32"><path fill="currentColor" d="M11 5c.896 0 1.767.108 2.601.311a13.07 13.07 0 0 0-1.997 1.71A9 9 0 0 0 11 7c-4.971 0-9 4.029-9 9s4.029 9 9 9c.203 0 .403-.009.603-.022.607.635 1.275 1.21 1.998 1.712A11.03 11.03 0 0 1 11 27C4.925 27 0 22.075 0 16S4.925 5 11 5M18.426 9.489c.698-.276 1.479.014 1.88.648.295.467.555.959.778 1.471.014.033.029.066.043.099.179.422.333.856.459 1.303q.015.055.03.11c.09.33.165.667.224 1.009.012.072.023.144.034.216.005.031.01.062.015.093.01.07.019.141.027.212q.014.112.025.224.033.321.047.648.003.061.005.121c.004.119.007.239.007.358 0 .12-.003.239-.007.357-.001.041-.003.081-.005.121a11 11 0 0 1-.117 1.196c-.007.046-.014.093-.021.139a10.9 10.9 0 0 1-.327 1.39c-.007.023-.013.046-.02.068a10.96 10.96 0 0 1-1.197 2.592c-.401.634-1.182.924-1.88.647C15.833 21.485 14 18.957 14 16c0-2.957 1.834-5.485 4.426-6.511"/><path fill="currentColor" fill-rule="evenodd" d="M21 5c6.0751 0 11 4.9249 11 11s-4.9249 11-11 11-11-4.9249-11-11S14.9249 5 21 5m0 2c-4.9706 0-9 4.0294-9 9s4.0294 9 9 9 9-4.0294 9-9-4.0294-9-9-9" clip-rule="evenodd"/></svg>