<svg xmlns="http://www.w3.org/2000/svg" fill="none" viewBox="0 0 32 32"><path fill="currentColor" d="M14.4703 12.0128a2.5 2.5 0 0 1 1.1813-.4911 2.487 2.487 0 0 1 1.3166.1833 2.466 2.466 0 0 1 1.0302.8344c.2613.3442.4274.7504.4819 1.1781a2.46 2.46 0 0 1-.1713 1.2601 2.475 2.475 0 0 1-.7793 1.0089 2.5 2.5 0 0 1-1.1813.491 2.476 2.476 0 0 1-1.3173-.1816 2.455 2.455 0 0 1-1.0295-.836 2.463 2.463 0 0 1-.4819-1.178 2.46 2.46 0 0 1 .1713-1.2601 2.476 2.476 0 0 1 .7793-1.009"/><path fill="currentColor" fill-rule="evenodd" d="M4 3c-1.1046 0-2 .8954-2 2v18c0 1.1046.8954 2 2 2h8l-.8447 3.3787c-.0789.3156.1598.6213.4851.6213h8.7192c.3253 0 .564-.3057.4851-.6213L20 25h8c1.1046 0 2-.8954 2-2V5c0-1.1046-.8954-2-2-2zm18.3999 13.8299.13-.3099a1 1 0 0 0-.54-1.3l-.82-.34c.1-.5824.1-1.1776 0-1.76l.82-.34a1 1 0 0 0 .54-1.3l-.13-.31a1 1 0 0 0-.5389-.5374 1 1 0 0 0-.7611-.0026l-.81.33a5 5 0 0 0-1.23-1.21l.33-.82a1 1 0 0 0-.54-1.3l-.31-.13a1 1 0 0 0-1.3.54l-.34.81a5.28 5.28 0 0 0-1.73 0l-.34-.81a1 1 0 0 0-1.3-.54l-.31.13a1 1 0 0 0-.54 1.3l.34.83a5.22 5.22 0 0 0-1.25 1.23l-.82-.33a.9997.9997 0 0 0-1.3.5399l-.13.3001a1 1 0 0 0 .54 1.3101l.82.3399c-.1.5824-.1 1.1776 0 1.76l-.82.34a1.0003 1.0003 0 0 0-.54 1.3l.13.31a1 1 0 0 0 1.3.54l.81-.3301c.3368.4716.753.8811 1.23 1.2101l-.33.82a1 1 0 0 0 .54 1.3l.31.13a1 1 0 0 0 1.3-.54l.34-.81a5.28 5.28 0 0 0 1.73 0l.34.81a1 1 0 0 0 1.3.54l.31-.13a1 1 0 0 0 .54-1.3l-.34-.83a5.08 5.08 0 0 0 1.25-1.24l.82.34a.9997.9997 0 0 0 1.3-.5401" clip-rule="evenodd"/></svg>