<svg xmlns="http://www.w3.org/2000/svg" fill="none" viewBox="0 0 32 32"><g clip-path="url(#connection-wifi-off--32-a)"><circle cx="16" cy="16" r="16" fill="#dee0e3"/><circle cx="16.3188" cy="20" r="2" fill="#5c6673"/><path fill="#5c6673" d="M20.623 16.468c.223-.39.148-.888-.217-1.15-1.15-.829-2.562-1.317-4.088-1.317s-2.937.488-4.088 1.317c-.364.262-.439.761-.217 1.151.319.559 1.095.644 1.64.301.771-.487 1.685-.768 2.664-.768s1.893.282 2.664.768c.545.344 1.321.258 1.64-.301M22.51 13.166c.23-.402.148-.915-.224-1.192C20.62 10.734 18.555 10 16.319 10c-2.236 0-4.301.734-5.967 1.975-.372.277-.454.789-.224 1.192.316.552 1.068.656 1.588.29C13.018 12.539 14.606 12 16.319 12c1.713 0 3.301.539 4.603 1.456.52.366 1.273.262 1.588-.29"/></g><defs><clipPath id="connection-wifi-off--32-a"><rect width="32" height="32" fill="#fff" rx="16"/></clipPath></defs></svg>