<svg xmlns="http://www.w3.org/2000/svg" fill="none" viewBox="0 0 16 16"><path fill="currentColor" d="M9.793 8.957c.391.391 1.024.391 1.414 0s.391-1.024 0-1.414l-.793-.793.793-.793c.391-.39.391-1.024 0-1.414s-1.024-.39-1.414 0l-1.5 1.5c-.39.391-.39 1.024 0 1.414zM6.207 7.043c-.39-.39-1.024-.39-1.414 0s-.39 1.024 0 1.414l.793.793-.793.793c-.39.391-.39 1.024 0 1.414.391.391 1.024.391 1.414 0l1.5-1.5c.391-.39.391-1.024 0-1.414z"/><path fill="currentColor" fill-rule="evenodd" d="M8 16c4.4183 0 8-3.5817 8-8s-3.5817-8-8-8-8 3.5817-8 8 3.5817 8 8 8m6-8c0 3.3137-2.6863 6-6 6s-6-2.6863-6-6 2.6863-6 6-6 6 2.6863 6 6" clip-rule="evenodd"/></svg>