<svg xmlns="http://www.w3.org/2000/svg" fill="none" viewBox="0 0 72 73"><ellipse cx="36" cy="35.9935" fill="url(#connect-white-label-ill--72-a)" rx="36" ry="35.9935" transform="matrix(-1 0 0 1 72 .053)"/><path fill="#fff" d="M17.4375 31.103 36 43.973l18.5625-12.87L36 17.9855z"/><path fill="#fff" d="M36 47.6854 21.9677 38.049l-4.5302 3.2013L36 54.1203l18.5625-12.87-4.5302-3.2013z"/><path fill="#5d5d64" fill-rule="evenodd" d="M72 36.0265C72 16.1296 55.8822 0 36 0S0 16.1296 0 36.0265 16.1177 72.053 36 72.053s36-16.1296 36-36.0265M36 5.6629c16.757 0 30.3413 13.5942 30.3413 30.3636S52.757 66.3901 36 66.3901 5.6587 52.7958 5.6587 36.0265 19.243 5.6629 36 5.6629" clip-rule="evenodd"/><defs><linearGradient id="connect-white-label-ill--72-a" x1="14" x2="67.2152" y1="62" y2="36.0328" gradientUnits="userSpaceOnUse"><stop stop-color="#1b1b25"/><stop offset="1" stop-color="#414149"/></linearGradient></defs></svg>