<svg xmlns="http://www.w3.org/2000/svg" fill="none" viewBox="0 0 32 32"><path fill="currentColor" fill-rule="evenodd" d="M28.207 5.207c.391-.39.391-1.024 0-1.414s-1.024-.39-1.414 0l-4.5 4.5c-1.941-1.286-4.583-1.074-6.293.636l-1.328 1.328-1.464-1.464c-.39-.39-1.024-.39-1.414 0s-.39 1.024 0 1.414l10 10c.391.391 1.024.391 1.414 0s.391-1.024 0-1.414l-1.464-1.464 1.328-1.328c1.711-1.71 1.923-4.352.636-6.293zm-7.879 10.707-4.243-4.243 1.328-1.328c1.172-1.172 3.071-1.172 4.243 0 1.172 1.172 1.172 3.071 0 4.243zM10.207 11.793c-.39-.39-1.024-.39-1.414 0s-.39 1.024 0 1.414l1.465 1.465-1.329 1.329c-1.71 1.711-1.922 4.352-.636 6.293L3.793 26.793c-.39.391-.39 1.024 0 1.414s1.024.391 1.414 0l4.5-4.499c1.941 1.286 4.583 1.074 6.293-.636l1.329-1.328 1.465 1.464c.391.391 1.024.391 1.414 0s.391-1.024 0-1.414zm1.465 4.293 4.243 4.243-1.328 1.329c-1.172 1.172-3.071 1.172-4.243 0-1.171-1.172-1.171-3.071 0-4.243z" clip-rule="evenodd"/></svg>