<svg xmlns="http://www.w3.org/2000/svg" fill="none" viewBox="0 0 32 32"><path fill="currentColor" d="M19.793 16.207c.391.391 1.024.391 1.414 0s.391-1.024 0-1.414L18.414 12l2.793-2.793c.391-.39.391-1.024 0-1.414s-1.024-.39-1.414 0l-3.5 3.5c-.39.391-.39 1.024 0 1.414zM12.207 10.793c-.39-.39-1.024-.39-1.414 0s-.39 1.024 0 1.414L13.586 15l-2.793 2.793c-.39.391-.39 1.024 0 1.414s1.024.391 1.414 0l3.5-3.5c.391-.39.391-1.024 0-1.414z"/><path fill="currentColor" fill-rule="evenodd" d="M4.5 3C3.6716 3 3 3.6716 3 4.5v18c0 .8284.6716 1.5 1.5 1.5H15v3h-4c-.5523 0-1 .4477-1 1s.4477 1 1 1h10c.5523 0 1-.4477 1-1s-.4477-1-1-1h-4v-3h10.5c.8284 0 1.5-.6716 1.5-1.5v-18c0-.8284-.6716-1.5-1.5-1.5zM5 5h22v17H5z" clip-rule="evenodd"/></svg>