<svg xmlns="http://www.w3.org/2000/svg" fill="none" viewBox="0 0 72 73"><path fill="url(#connect-branded-ill--72-a)" d="M0 36.0465C0 55.9251 16.1177 72.04 36 72.04s36-16.1149 36-35.9935S55.8823.053 36 .053 0 16.1678 0 36.0465"/><path fill="#fff" d="M34.3784 24.0491 24 47.6698h3.309l2.0339-4.7684h12.939l2.034 4.7684h3.3091L37.2466 24.0491zm1.3683 4.0331h.1379l.1568.4321 2.9411 6.8778h-6.3404l2.9511-6.8778zm-5.239 12.1685.9699-2.2077h8.6697l.97 2.2077z"/><path fill="#408bea" fill-rule="evenodd" d="M72 36.0265C72 16.1296 55.8823 0 36 0S0 16.1296 0 36.0265 16.1178 72.053 36 72.053s36-16.1296 36-36.0265M36 5.6629c16.757 0 30.3413 13.5942 30.3413 30.3636S52.757 66.3901 36 66.3901 5.6587 52.7958 5.6587 36.0265 19.243 5.6629 36 5.6629" clip-rule="evenodd"/><defs><linearGradient id="connect-branded-ill--72-a" x1="0" x2="86.7002" y1="72.053" y2="40.8638" gradientUnits="userSpaceOnUse"><stop stop-color="#011345"/><stop offset="1" stop-color="#3b65bf"/></linearGradient></defs></svg>