<svg xmlns="http://www.w3.org/2000/svg" fill="none" viewBox="0 0 24 24"><path fill="currentColor" d="M15.707 7.707 14.414 9l1.293 1.293c.391.391.391 1.024 0 1.414s-1.024.391-1.414 0l-2-2c-.39-.39-.39-1.024 0-1.414l2-2c.391-.39 1.024-.39 1.414 0s.391 1.024 0 1.414M8.293 9.707c-.39-.39-.39-1.024 0-1.414s1.024-.39 1.414 0l2 2c.391.391.391 1.024 0 1.414l-2 2c-.39.391-1.024.391-1.414 0s-.39-1.024 0-1.414L9.586 11z"/><path fill="currentColor" fill-rule="evenodd" d="M11 18H3.5033C2.673 18 2 17.3361 2 16.5069V3.4931C2 2.6685 2.6654 2 3.5033 2h16.9934C21.327 2 22 2.6639 22 3.4931v13.0138C22 17.3315 21.3346 18 20.4967 18H13v2h2.003A.996.996 0 0 1 16 21c0 .5523-.453 1-.997 1H8.997A.996.996 0 0 1 8 21c0-.5523.453-1 .997-1H11zm9-2V4H4v12z" clip-rule="evenodd"/></svg>