<svg xmlns="http://www.w3.org/2000/svg" fill="none" viewBox="0 0 16 16"><path fill="currentColor" d="M4 5.5a.5.5 0 0 1 .5-.5h3a.5.5 0 0 1 0 1h-3a.5.5 0 0 1-.5-.5M7.5 10a.5.5 0 1 0 0-1 .5.5 0 0 0 0 1M4 7.5a.5.5 0 0 1 .5-.5h5a.5.5 0 0 1 0 1h-5a.5.5 0 0 1-.5-.5M4 9.5a.5.5 0 0 1 .5-.5h1a.5.5 0 0 1 0 1h-1a.5.5 0 0 1-.5-.5"/><path fill="currentColor" fill-rule="evenodd" d="M2 1h12c.5523 0 1 .4477 1 1v12c0 .5523-.4477 1-1 1H2c-.5523 0-1-.4477-1-1V2c0-.5523.4477-1 1-1m1 2v10h10V3z" clip-rule="evenodd"/></svg>