<svg xmlns="http://www.w3.org/2000/svg" fill="none" viewBox="0 0 24 24"><path fill="currentColor" d="M18 9c-2.691 0-5-1.155-5-3s2.309-3 5-3 5 1.155 5 3-2.309 3-5 3M13 10.166C13 11.909 15.309 13 18 13s5-1.091 5-2.834c0-.431-.141-.822-.394-1.166 0 0-1.842 1.467-4.606 1.467S13.394 9 13.394 9c-.253.345-.394.736-.394 1.166M13 14.166C13 15.909 15.309 17 18 17s5-1.091 5-2.834c0-.431-.141-.822-.394-1.166 0 0-1.842 1.467-4.606 1.467S13.394 13 13.394 13c-.253.345-.394.736-.394 1.166M13 18.166C13 19.909 15.309 21 18 21s5-1.091 5-2.834c0-.431-.141-.822-.394-1.166 0 0-1.842 1.467-4.606 1.467S13.394 17 13.394 17c-.253.345-.394.736-.394 1.166M6 17c-2.691 0-5-1.155-5-3s2.309-3 5-3 5 1.155 5 3-2.309 3-5 3M1 18.166C1 19.909 3.309 21 6 21s5-1.091 5-2.834c0-.431-.141-.822-.394-1.166 0 0-1.842 1.467-4.606 1.467S1.394 17 1.394 17C1.141 17.345 1 17.736 1 18.166"/></svg>