<svg xmlns="http://www.w3.org/2000/svg" fill="none" viewBox="0 0 24 24"><path fill="currentColor" fill-rule="evenodd" d="M13 6c0 1.8453 2.3094 3 5 3s5-1.1547 5-3-2.3094-3-5-3-5 1.1547-5 3m8 0c0 .5523-1.3431 1-3 1s-3-.4477-3-1 1.3431-1 3-1 3 .4477 3 1" clip-rule="evenodd"/><path fill="currentColor" d="M18 13c-2.691 0-5-1.091-5-2.834 0-.431.141-.822.394-1.166 0 0 1.842 1.467 4.606 1.467S22.606 9 22.606 9c.253.345.394.736.394 1.166C23 11.909 20.691 13 18 13M13 14.166C13 15.909 15.309 17 18 17s5-1.091 5-2.834c0-.431-.141-.822-.394-1.166 0 0-1.842 1.467-4.606 1.467S13.394 13 13.394 13c-.253.345-.394.736-.394 1.166M18 21c-2.691 0-5-1.091-5-2.834 0-.431.141-.822.394-1.166 0 0 1.842 1.467 4.606 1.467S22.606 17 22.606 17c.253.345.394.736.394 1.166C23 19.909 20.691 21 18 21"/><path fill="currentColor" fill-rule="evenodd" d="M1 14c0 1.8453 2.3094 3 5 3s5-1.1547 5-3-2.3094-3-5-3-5 1.1547-5 3m8 0c0 .5523-1.3431 1-3 1s-3-.4477-3-1 1.3431-1 3-1 3 .4477 3 1" clip-rule="evenodd"/><path fill="currentColor" d="M6 21c-2.6906 0-5-1.0907-5-2.8337 0-.4308.141-.8218.3942-1.1663 0 0 1.8422 1.4667 4.6058 1.4667S10.6058 17 10.6058 17c.2531.3445.3942.7355.3942 1.1663C11 19.9093 8.6906 21 6 21"/></svg>