<svg xmlns="http://www.w3.org/2000/svg" fill="none" viewBox="0 0 16 16"><path fill="currentColor" d="M6 0c-.552 0-1 .448-1 1v1c0 .552.448 1 1 1s1-.448 1-1V1c0-.552-.448-1-1-1M10 0c-.552 0-1 .448-1 1v1c0 .552.448 1 1 1s1-.448 1-1V1c0-.552-.448-1-1-1M5 14c0-.552.448-1 1-1s1 .448 1 1v1c0 .552-.448 1-1 1s-1-.448-1-1zM10 13c-.552 0-1 .448-1 1v1c0 .552.448 1 1 1s1-.448 1-1v-1c0-.552-.448-1-1-1M14 11c-.552 0-1-.448-1-1s.448-1 1-1h1c.552 0 1 .448 1 1s-.448 1-1 1zM13 6c0 .552.448 1 1 1h1c.552 0 1-.448 1-1s-.448-1-1-1h-1c-.552 0-1 .448-1 1M2 5c.552 0 1 .448 1 1s-.448 1-1 1H1c-.552 0-1-.448-1-1s.448-1 1-1zM3 10c0-.552-.448-1-1-1H1c-.552 0-1 .448-1 1s.448 1 1 1h1c.552 0 1-.448 1-1M5 4c-.552 0-1 .448-1 1v6c0 .552.448 1 1 1h6c.552 0 1-.448 1-1V5c0-.552-.448-1-1-1z"/></svg>