<svg xmlns="http://www.w3.org/2000/svg" fill="none" viewBox="0 0 24 24"><path fill="currentColor" d="M1 2c0-.552.448-1 1-1h6c.552 0 1 .448 1 1s-.448 1-1 1H3v5c0 .552-.448 1-1 1s-1-.448-1-1zM1 16c0-.552.448-1 1-1s1 .448 1 1v5h5c.552 0 1 .448 1 1s-.448 1-1 1H2c-.552 0-1-.448-1-1zM21 16c0-.552.448-1 1-1s1 .448 1 1v6c0 .552-.448 1-1 1h-6c-.552 0-1-.448-1-1s.448-1 1-1h5zM22 1c.552 0 1 .448 1 1v6c0 .552-.448 1-1 1s-1-.448-1-1V3h-5c-.552 0-1-.448-1-1s.448-1 1-1zM11 8c0-.552.448-1 1-1s1 .448 1 1v3h3c.552 0 1 .448 1 1s-.448 1-1 1h-3v3c0 .552-.448 1-1 1s-1-.448-1-1v-3H8c-.552 0-1-.448-1-1s.448-1 1-1h3z"/></svg>