<svg xmlns="http://www.w3.org/2000/svg" fill="none" viewBox="0 0 16 16"><path fill="currentColor" d="M5 3c.552 0 1-.448 1-1s-.448-1-1-1H2c-.552 0-1 .448-1 1v3c0 .552.448 1 1 1s1-.448 1-1V3zM11 3c-.552 0-1-.448-1-1s.448-1 1-1h3c.552 0 1 .448 1 1v3c0 .552-.448 1-1 1s-1-.448-1-1V3zM10 14c0-.552.448-1 1-1h2v-2c0-.552.448-1 1-1s1 .448 1 1v3c0 .552-.448 1-1 1h-3c-.552 0-1-.448-1-1M5 13c.552 0 1 .448 1 1s-.448 1-1 1H2c-.552 0-1-.448-1-1v-3c0-.552.448-1 1-1s1 .448 1 1v2zM9 6v1h1c.552 0 1 .448 1 1s-.448 1-1 1H9v1c0 .552-.448 1-1 1s-1-.448-1-1V9H6c-.552 0-1-.448-1-1s.448-1 1-1h1V6c0-.552.448-1 1-1s1 .448 1 1"/></svg>