<svg xmlns="http://www.w3.org/2000/svg" fill="none" viewBox="0 0 16 16"><path fill="currentColor" d="M8 4c-1.105 0-2-.895-2-2s.895-2 2-2 2 .895 2 2-.895 2-2 2M12.5 5c-.828 0-1.5-.672-1.5-1.5S11.672 2 12.5 2s1.5.672 1.5 1.5S13.328 5 12.5 5M3.5 5C2.672 5 2 4.328 2 3.5S2.672 2 3.5 2 5 2.672 5 3.5 4.328 5 3.5 5M9.618 11l-.428 4.547A.5.5 0 0 1 8.692 16H7.308a.5.5 0 0 1-.498-.453L6.382 11l-.684-.531a1 1 0 0 1-.383-.705l-.266-3.137c-.07-.825.542-1.551 1.368-1.621A1.5 1.5 0 0 1 6.544 5h2.913c.828 0 1.5.672 1.5 1.5q0 .064-.005.127l-.266 3.137a1 1 0 0 1-.383.705zM11 16l.443-4.909.834-.676a1 1 0 0 0 .367-.696L12.947 6h.512c.828 0 1.5.672 1.5 1.5q0 .072-.007.144l-.297 3.092a1 1 0 0 1-.43.729L13.443 12l-.475 3.566A.5.5 0 0 1 12.472 16zM3.487 16h1.472l-.443-4.909-.834-.676a1 1 0 0 1-.367-.696L3.012 6H2.5C1.672 6 1 6.672 1 7.5q0 .072.007.144l.297 3.092a1 1 0 0 0 .43.729L2.516 12l.476 3.566A.5.5 0 0 0 3.487 16"/></svg>