<svg xmlns="http://www.w3.org/2000/svg" fill="none" viewBox="0 0 16 16"><path fill="currentColor" d="M6 8c2.5 0 3-2.345 3-4.278S7.657 1 6 1s-3 .789-3 2.722S3.5 8 6 8M12 9c1.5 0 2-1.675 2-3.056S13.105 4 12 4s-2 .564-2 1.944S10.5 9 12 9M0 12.444c0-.621.15-1.249.643-1.626C1.4 10.239 2.962 9.5 6 9.5s4.6.739 5.357 1.318c.493.377.643 1.005.643 1.626V14.5c0 .552-.448 1-1 1H1c-.552 0-1-.448-1-1zM15 15.5h-2.5c.552 0 1-.448 1-1v-2.056c0-.502-.098-1.008-.395-1.383 1.18.14 1.901.494 2.329.816.447.337.567.912.567 1.471V14.5c0 .552-.448 1-1 1"/></svg>