<svg xmlns="http://www.w3.org/2000/svg" fill="none" viewBox="0 0 32 32"><path fill="currentColor" d="M17 9.583C17 12.115 16.1 16 12.5 16S8 12.115 8 9.583C8 5.917 10.015 5 12.5 5s4.5.917 4.5 4.583M3 23.444c0-.621.142-1.241.548-1.711C4.553 20.572 7.102 18.5 12.5 18.5s7.947 2.072 8.952 3.234c.406.47.548 1.09.548 1.711V26c0 1.105-.895 2-2 2H5c-1.105 0-2-.895-2-2zM21.5 18.609c2.842 0 3.553-3.041 3.553-5.022 0-2.87-1.59-3.587-3.553-3.587s-3.553.717-3.553 3.587c0 1.981.711 5.022 3.553 5.022M24 26a3.98 3.98 0 0 1-.535 2h3.956C28.293 28 29 27.299 29 26.435v-2c0-.486-.112-.971-.433-1.339-.683-.783-2.27-2.094-5.42-2.443.683.918.853 1.972.853 2.792z"/></svg>