<svg xmlns="http://www.w3.org/2000/svg" fill="none" viewBox="0 0 24 24"><path fill="currentColor" d="M12 10c.552 0 1 .448 1 1v2c0 .552-.448 1-1 1s-1-.448-1-1v-2c0-.552.448-1 1-1M8 15c.552 0 1 .448 1 1v1c0 .552-.448 1-1 1s-1-.448-1-1v-1c0-.552.448-1 1-1M16 15c.552 0 1 .448 1 1v1c0 .552-.448 1-1 1s-1-.448-1-1v-1c0-.552.448-1 1-1M16 11c.552 0 1 .448 1 1v1c0 .552-.448 1-1 1s-1-.448-1-1v-1c0-.552.448-1 1-1M8 11c.552 0 1 .448 1 1v1c0 .552-.448 1-1 1s-1-.448-1-1v-1c0-.552.448-1 1-1"/><path fill="currentColor" fill-rule="evenodd" d="M20.9998 19v-6.4793l.4266.2985c.4524.3167 1.076.2067 1.3927-.2457s.2067-1.076-.2458-1.3927l-3.5734-2.5014V6c0-.5523-.4477-1-1-1s-1 .4477-1 1v1.2794l-4.4266-3.0986a1 1 0 0 0-1.1469 0l-10 7c-.4525.3167-.5625.9402-.2458 1.3927s.9402.5624 1.3927.2457l.4265-.2985V19h-1c-.5522 0-1 .4477-1 1s.4478 1 1 1h20c.5523 0 1-.4477 1-1s-.4477-1-1-1zm-9-12.7793 7 4.9V19h-5.9999v-3c0-.5523-.4477-1-1-1s-1 .4477-1 1v3h-6v-7.8793z" clip-rule="evenodd"/></svg>