<svg xmlns="http://www.w3.org/2000/svg" fill="none" viewBox="0 0 32 32"><path fill="currentColor" d="M20.5 19.8506c.0003-.3837.4148-.624.748-.4336l5.4922 3.1387c.3358.192.3359.6762 0 .8681l-5.4922 3.1377c-.3332.1905-.7479-.0498-.748-.4336z"/><path fill="currentColor" fill-rule="evenodd" d="M28 3c1.1046 0 2 .8954 2 2v12.3447c1.2502 1.5456 2 3.5126 2 5.6553 0 4.9706-4.0294 9-9 9-2.6652 0-5.0591-1.1591-6.707-3h-4.6524c-.3252 0-.5641-.3056-.4853-.6211L12 25H4c-1.1046 0-2-.8954-2-2V5c0-1.1046.8954-2 2-2zm-5 13c-2.5906 0-4.8511 1.4082-6.0615 3.5a6.97 6.97 0 0 0-.7344 1.8203 7 7 0 0 0-.1182.583q-.0045.0297-.0088.0596A7.06 7.06 0 0 0 16 23q.0002.203.0117.4033.0184.3236.0654.6387c.0021.0137.0048.0273.0069.041q.0501.322.1289.6338C16.67 26.529 17.8333 28.0601 19.3936 29c1.0533.6345 2.2871 1 3.6064 1 3.866 0 7-3.134 7-7 0-3.6836-2.8454-6.7008-6.458-6.9775A7 7 0 0 0 23 16m-6.0625-9c-2.0489 0-3.7903 1.3148-4.4277 3.1465-1.5536.1811-2.7598 1.5013-2.7598 3.1035 0 .3488.0576.6848.163.998-.844.4854-1.413 1.3959-1.413 2.4395 0 1.5533 1.2592 2.8125 2.8125 2.8125h3.3936c1.3425-3.1776 4.4578-5.4215 8.1064-5.4961-.3493-.4667-.8128-.8428-1.3516-1.083a4.7 4.7 0 0 0 .1641-1.2334C21.625 9.0987 19.5263 7 16.9375 7" clip-rule="evenodd"/></svg>