<svg xmlns="http://www.w3.org/2000/svg" fill="none" viewBox="0 0 16 16"><path fill="currentColor" d="M12.87 1.653A8 8 0 0 0 8.997.062C8.449-.006 8 .448 8 1s.451.991.996 1.082C11.836 2.557 14 5.026 14 8q0 .05-.001.1a4.975 4.975 0 0 1 1.943.857 8 8 0 0 0-3.072-7.304M8 14q.05 0 .1-.001c.145.715.443 1.375.857 1.943a8 8 0 0 1-6.614-2.286A8 8 0 0 1 .628 4.894c.214-.508.832-.67 1.31-.394.478.276.633.886.44 1.403A5.99 5.99 0 0 0 2 8c0 3.314 2.686 6 6 6"/><path fill="currentColor" d="M11.707 5.293c.391.391.391 1.024 0 1.414l-4 4c-.39.391-1.024.391-1.414 0l-2-2c-.39-.39-.39-1.024 0-1.414s1.024-.39 1.414 0L7 8.586l3.293-3.293c.391-.39 1.024-.39 1.414 0M13 16c1.657 0 3-1.343 3-3s-1.343-3-3-3-3 1.343-3 3 1.343 3 3 3"/></svg>