<svg xmlns="http://www.w3.org/2000/svg" fill="none" viewBox="0 0 16 16"><g clip-path="url(#db--16-a)"><path fill="currentColor" fill-rule="evenodd" d="M16 3.5C16 1.567 12.4183 0 8 0S0 1.567 0 3.5v9C0 14.433 3.5817 16 8 16s8-1.567 8-3.5zM8 12c2.3894 0 4.5341-.5238 6-1.3542q.0543 1.7703 0 1.8264c-.203.2101-.6381.4487-1.1448.6704C11.6333 13.6771 9.8886 14 8 14s-3.6333-.3229-4.8552-.8574c-.5067-.2217-.9417-.4603-1.1448-.6704v-1.8264C3.4659 11.4762 5.6106 12 8 12m6-5.3542C12.5341 7.4763 10.3894 8 8 8s-4.5341-.5238-6-1.3542v1.8264c.203.21.6381.4487 1.1448.6704C4.3667 9.677 6.1114 10 8 10s3.6333-.3229 4.8552-.8574c.5067-.2217.9418-.4603 1.1448-.6704q.0543-.0561 0-1.8264M14 4c0 1.1046-2.6863 2-6 2s-6-.8954-6-2 2.6863-2 6-2 6 .8954 6 2" clip-rule="evenodd"/></g><defs><clipPath id="db--16-a"><path fill="#fff" d="M0 0h16v16H0z"/></clipPath></defs></svg>