<svg xmlns="http://www.w3.org/2000/svg" fill="none" viewBox="0 0 32 32"><path fill="currentColor" d="M12.02 10.9399c6.63 0 12-2.44 12-5.47S18.65 0 12.02 0s-12 2.45-12 5.47 5.37 5.4699 12 5.4699"/><path fill="currentColor" d="M24.02 11.16V7c0 1.66-1.61 3.13-4.15 4.14a9.91 9.91 0 0 1 3.79 1.36c.229-.41.353-.87.36-1.34M13.5 12.4A11.09 11.09 0 0 0 9.57 16.51C4.12 16 .02 13.8.02 11.11V6.92c0 3.03 5.37 5.48 12 5.48z"/><path fill="currentColor" d="M8.86 17.94A12.55 12.55 0 0 0 8.02 22c-4.65-.75-8-2.77-8.02-5.16v-4.18c0 2.53 3.76 4.65 8.86 5.28M18.52 17c1.381 0 2.5-1.119 2.5-2.5s-1.119-2.5-2.5-2.5-2.5 1.119-2.5 2.5 1.119 2.5 2.5 2.5M14.02 25.5c0 1.381-1.119 2.5-2.5 2.5s-2.5-1.119-2.5-2.5 1.119-2.5 2.5-2.5 2.5 1.119 2.5 2.5"/><path fill="currentColor" d="M8.19 24.48c-.05-.32-.1-.64-.12-1-4.69-.75-8-2.78-8-5.17V22.5c0 2.53 3.77 4.65 8.88 5.27a3.46 3.46 0 0 1-.88-2.3 3.41 3.41 0 0 1 .12-.99M21.74 15.86a3.45 3.45 0 0 0 .28-1.36 3.5 3.5 0 0 0-.11-.79 8.52 8.52 0 0 1 5.1 7.79v.83A3.43 3.43 0 0 0 25.55 22a4.8 4.8 0 0 0-.53.05 5 5 0 0 0 0-.55 6.51 6.51 0 0 0-3.28-5.64M22.27 26.8a6.46 6.46 0 0 1-3.75 1.2A6.46 6.46 0 0 1 14.77 26.8a3.48 3.48 0 0 1-1.25 1.56 8.44 8.44 0 0 0 10 0A3.48 3.48 0 0 1 22.27 26.8M15.02 14.5c0 .468.096.93.28 1.36A6.51 6.51 0 0 0 12.01 21.5a5 5 0 0 0 0 .55 4.8 4.8 0 0 0-.53-.05 3.43 3.43 0 0 0-1.46.33V21.5a8.52 8.52 0 0 1 5.1-7.79 3.5 3.5 0 0 0-.1.79M25.52 28c1.381 0 2.5-1.119 2.5-2.5s-1.119-2.5-2.5-2.5-2.5 1.119-2.5 2.5 1.119 2.5 2.5 2.5M21.02 21.5c0 1.381-1.119 2.5-2.5 2.5s-2.5-1.119-2.5-2.5 1.119-2.5 2.5-2.5 2.5 1.119 2.5 2.5"/></svg>