<svg xmlns="http://www.w3.org/2000/svg" fill="none" viewBox="0 0 16 16"><path fill="currentColor" fill-rule="evenodd" d="M13.9998 3.735c0 1.5104-2.6863 2.7349-6 2.7349S2 5.2454 2 3.7349 4.6862 1 7.9999 1c3.3136 0 5.9999 1.2246 5.9999 2.735m0 .765v2.0799a1.42 1.42 0 0 1-.18.67 4.95 4.95 0 0 0-1.895-.68c1.27-.505 2.075-1.24 2.075-2.07m-5.26 2.6998a5.545 5.545 0 0 0-1.9649 2.055C4.05 8.9999 2 7.9 2 6.555V4.4599c0 1.515 2.685 2.74 6 2.74zM6.42 9.9698a6.28 6.28 0 0 0-.42 2.03c-2.325-.375-4-1.3849-4.01-2.5799V7.33c0 1.265 1.88 2.325 4.43 2.64m-4.42 2.295v-2.0949c0 1.1949 1.68 2.2099 4.025 2.5849a6.04 6.04 0 0 0 .58 2.17c-2.64-.29-4.605-1.37-4.605-2.66m7.64-3.3349a1.73 1.73 0 0 1-.14-.68 1.75 1.75 0 0 1 .05-.395 4.26 4.26 0 0 0-2.55 3.8949v.415a1.72 1.72 0 0 1 .73-.165q.1332.005.265.025a2.5 2.5 0 0 1 0-.275 3.255 3.255 0 0 1 1.645-2.8199m3.22 0a1.725 1.725 0 0 0 .14-.68 1.74 1.74 0 0 0-.055-.395 4.26 4.26 0 0 1 2.55 3.8949v.415a1.72 1.72 0 0 0-.73-.165 2.4 2.4 0 0 0-.265.025 2.5 2.5 0 0 0 0-.275 3.255 3.255 0 0 0-1.64-2.8199m.2649 5.4699a3.23 3.23 0 0 1-3.75 0 1.74 1.74 0 0 1-.625.7801 4.22 4.22 0 0 0 5 0 1.74 1.74 0 0 1-.625-.7801m-1.875-4.9c.6904 0 1.25-.5596 1.25-1.25S11.9402 7 11.2498 7s-1.25.5596-1.25 1.25.5597 1.25 1.25 1.25m-3.4999 5.5c.6904 0 1.25-.5596 1.25-1.25s-.5596-1.25-1.25-1.25-1.25.5596-1.25 1.25.5596 1.25 1.25 1.25m6.9999 0c.6904 0 1.25-.5596 1.25-1.25s-.5596-1.25-1.25-1.25-1.25.5596-1.25 1.25.5596 1.25 1.25 1.25" clip-rule="evenodd"/></svg>