<svg xmlns="http://www.w3.org/2000/svg" fill="none" viewBox="0 0 32 32"><path fill="currentColor" d="M24.02 5.47c0 3.021-5.3726 5.4699-12 5.4699s-12-2.449-12-5.47S5.3926 0 12.02 0s12 2.449 12 5.47"/><path fill="currentColor" d="M24.02 7v4.16a2.84 2.84 0 0 1-.36 1.34 9.91 9.91 0 0 0-3.79-1.36c2.54-1.01 4.15-2.48 4.15-4.14M9.57 16.51a11.09 11.09 0 0 1 3.93-4.11h-1.48c-6.63 0-12-2.45-12-5.48v4.19c0 2.69 4.1 4.89 9.55 5.4"/><path fill="currentColor" d="M8.02 22a12.55 12.55 0 0 1 .84-4.0601c-5.1-.63-8.86-2.75-8.86-5.28v4.1802C.02 19.2301 3.37 21.25 8.02 22"/><path fill="currentColor" d="M.02 22.53v-4.19c0 2.39 3.36 4.42 8.05 5.17a12.08 12.08 0 0 0 1.16 4.34C3.95 27.27.02 25.11.02 22.53M18.52 17c1.381 0 2.5-1.119 2.5-2.5s-1.119-2.5-2.5-2.5-2.5 1.119-2.5 2.5 1.119 2.5 2.5 2.5M14.02 25.5c0 1.381-1.119 2.5-2.5 2.5s-2.5-1.119-2.5-2.5 1.119-2.5 2.5-2.5 2.5 1.119 2.5 2.5M22.02 14.5a3.45 3.45 0 0 1-.28 1.36A6.51 6.51 0 0 1 25.02 21.5a5 5 0 0 1 0 .55 4.8 4.8 0 0 1 .53-.05 3.43 3.43 0 0 1 1.46.33V21.5a8.52 8.52 0 0 0-5.1-7.79c.067.258.104.523.11.79M18.52 28A6.46 6.46 0 0 0 22.27 26.8a3.48 3.48 0 0 0 1.25 1.56 8.44 8.44 0 0 1-10 0A3.48 3.48 0 0 0 14.77 26.8a6.46 6.46 0 0 0 3.75 1.2M15.3 15.86a3.45 3.45 0 0 1-.28-1.36 3.5 3.5 0 0 1 .1-.79 8.52 8.52 0 0 0-5.1 7.79v.83A3.43 3.43 0 0 1 11.48 22a4.8 4.8 0 0 1 .53.05 5 5 0 0 1 0-.55 6.51 6.51 0 0 1 3.29-5.64M28.02 25.5c0 1.381-1.119 2.5-2.5 2.5s-2.5-1.119-2.5-2.5 1.119-2.5 2.5-2.5 2.5 1.119 2.5 2.5"/></svg>