<svg xmlns="http://www.w3.org/2000/svg" fill="none" viewBox="0 0 32 32"><path fill="currentColor" d="M4 5h4v4H4zM4 14h4v4H4zM4 23h4v4H4zM10 6h18v2H10zM24.829 21.414c.391.391.391 1.024 0 1.414s-1.024.391-1.414 0L22 21.414l-1.414 1.414c-.391.391-1.024.391-1.414 0-.391-.39-.391-1.024 0-1.414l1.414-1.414-1.414-1.414c-.39-.391-.39-1.024 0-1.414.391-.391 1.024-.391 1.414 0L22 18.586l1.414-1.414c.391-.391 1.024-.391 1.414 0s.391 1.024 0 1.414l-1.414 1.414z"/><path fill="currentColor" fill-rule="evenodd" d="M14.5815 17H10v-2h5.7546c1.4661-1.8289 3.719-3 6.2454-3 4.4183 0 8 3.5817 8 8s-3.5817 8-8 8c-2.0289 0-3.8814-.7553-5.2916-2H10v-2h5.0703C14.3896 22.8233 14 21.4571 14 20c0-1.0609.2065-2.0736.5815-3M22 26c3.3137 0 6-2.6863 6-6s-2.6863-6-6-6-6 2.6863-6 6 2.6863 6 6 6" clip-rule="evenodd"/></svg>