<svg xmlns="http://www.w3.org/2000/svg" fill="none" viewBox="0 0 24 24"><path fill="currentColor" d="M20.934 13.296c.109-.541.636-.892 1.178-.783.541.109.892.636.783 1.178-.382 1.899-1.763 3.432-3.569 4.034-.524.174-1.09-.109-1.265-.633-.175-.524.109-1.09.633-1.265 1.134-.378 2.001-1.343 2.24-2.531m-19.029-.749a.999.999 0 0 1 1.229.699c.306 1.115 1.118 2.025 2.173 2.466.51.213.75.799.537 1.309-.213.509-.798.75-1.308.537-1.617-.675-2.859-2.067-3.33-3.782a.999.999 0 0 1 .699-1.228m14.918-7.801c.417-.362 1.048-.317 1.41.1a8.24 8.24 0 0 1 1.626 2.891l.193.093a5.396 5.396 0 0 1 2.267 2.176c.27.482.098 1.092-.384 1.361-.482.27-1.092.097-1.361-.385a3.396 3.396 0 0 0-1.546-1.427l-.402-.183a1.001 1.001 0 0 1-.538-.607l-.134-.42a6.24 6.24 0 0 0-1.231-2.188c-.362-.417-.316-1.048.101-1.41M5.759 4.855c.361-.418.993-.464 1.411-.102s.463.993.102 1.411a6.26 6.26 0 0 0-.916 1.401l-.101.221-.155.36a1 1 0 0 1-.512.518l-.357.159c-.894.397-1.604 1.134-1.966 2.042-.204.513-.787.763-1.3.559-.513-.205-.763-.786-.559-1.299.556-1.395 1.642-2.52 3.012-3.129l.132-.291a8.26 8.26 0 0 1 1.209-1.849M12 2c1.246 0 2.43.277 3.491.773.5.234.717.83.482 1.33s-.83.716-1.33.482C13.842 4.21 12.947 4 12 4c-.95 0-1.848.212-2.651.589-.5.235-1.095.019-1.33-.48-.235-.5-.02-1.095.48-1.33C9.563 2.279 10.751 2 12 2M12 14.055c.552 0 1 .448 1 1v2c0 .552-.448 1-1 1s-1-.448-1-1v-2c0-.552.448-1 1-1"/><path fill="currentColor" fill-rule="evenodd" d="M11.6074 10.1326a2 2 0 0 1 .7852 0l3.8037.7607c.4672.0935.8035.5041.8037.9805v5.1807c0 3-4 5-5 5s-5-1.9606-5-5v-5.1807a1.0004 1.0004 0 0 1 .8037-.9805zM9 12.6941v4.3604c0 .6442.4683 1.3768 1.3486 2.0576.3997.3091.849.5763 1.2666.7637.1434.0643.2747.1147.3819.1494a3.9 3.9 0 0 0 .3789-.1504c.4181-.1901.8695-.4618 1.2715-.7744.8821-.6863 1.3525-1.42 1.3525-2.0459v-4.3604l-3-.5996z" clip-rule="evenodd"/></svg>