<svg xmlns="http://www.w3.org/2000/svg" fill="none" viewBox="0 0 16 16"><g fill="currentColor" clip-path="url(#demo-dr--16-a)"><path d="M8 9.9678c.5523 0 1 .4477 1 1s-.4477 1-1 1-1-.4478-1-1 .4477-1 1-1"/><path fill-rule="evenodd" d="M7.6836 6.0195a1 1 0 0 1 .6328 0l3 1A1 1 0 0 1 12 7.9678v4c0 1.8363-1.3179 3.1545-3.6816 3.9482a1 1 0 0 1-.6368 0C5.318 15.1223 4 13.8041 4 11.9678l-.001-.001v-2l.001.001v-2c0-.4304.2754-.812.6836-.9483zM6 8.6885v3.2793c0 .7651.5931 1.4103 2 1.9394 1.4069-.5291 2-1.1743 2-1.9394V8.6885l-2-.667z" clip-rule="evenodd"/><path d="M13.607 5.799c.526-.354 1.243-.356 1.626.149.485.638.767 1.438.767 2.292 0 1.253-.603 2.367-1.532 3.043-.623.453-1.393-.049-1.528-.807-.059-.332.15-.647.413-.858.392-.313.647-.811.647-1.378 0-.298-.072-.581-.199-.828a1.62 1.62 0 0 0-.395-.498c-.3-.256-.359-.737-.032-.957zM2.439 5.368c.317.21.297.704.058.999C2.185 6.751 2 7.249 2 7.786c0 .71.298 1.336.772 1.733.228.191.39.47.346.763-.121.805-.951 1.322-1.583.808C.594 10.325 0 9.127 0 7.786c0-.947.31-1.836.844-2.55.275-.367.791-.4 1.173-.147zM8.582 1.058C8.61.485 9.118.045 9.67.203c1.705.487 3.126 1.703 3.913 3.315.185.379.057.827-.268 1.096l-.491.406c-.294.243-.749.081-.886-.275-.485-1.252-1.495-2.209-2.729-2.593-.372-.116-.658-.447-.639-.837zM7.447 1.31c.02.392-.268.726-.643.841-.929.285-1.737.895-2.288 1.72a3.6 3.6 0 0 0-.188.316c-.241.454-.822.628-1.221.304l-.242-.197c-.346-.281-.471-.762-.25-1.15C3.436 1.705 4.776.641 6.347.197c.551-.156 1.057.282 1.086.853z"/></g><defs><clipPath id="demo-dr--16-a"><path fill="#fff" d="M0 0h16v16H0z"/></clipPath></defs></svg>