<svg xmlns="http://www.w3.org/2000/svg" fill="none" viewBox="0 0 96 96"><path fill="url(#desktop-windows-enabled-ill--96-a)" fill-opacity=".2" d="M15 63h66v2H15z"/><path fill="#fff" fill-opacity=".1" d="M15 63h66v1H15z"/><path fill="url(#desktop-windows-enabled-ill--96-b)" d="M15 21h66v42H15z"/><path stroke="url(#desktop-windows-enabled-ill--96-c)" stroke-opacity=".2" d="M80.5 21.5v41h-65v-41z"/><path fill="#2668c5" d="M47 36h-6v6h6zM47 44h-6v6h6zM49 36h6v6h-6zM55 44h-6v6h6z"/><path fill="url(#desktop-windows-enabled-ill--96-d)" d="M32 21h49v42H56z" opacity=".15"/><path fill="url(#desktop-windows-enabled-ill--96-e)" d="M49 21h32v23H63.1224z" opacity=".25"/><path fill="#434c59" fill-rule="evenodd" d="M12 20.25c0-1.2426 1.0074-2.25 2.25-2.25h67.5c1.2426 0 2.25 1.0074 2.25 2.25v47.5c0 1.2426-1.0074 2.25-2.25 2.25H57v4h6c.5523 0 1 .4477 1 1v2c0 .5523-.4477 1-1 1H33c-.5523 0-1-.4477-1-1v-2c0-.5523.4477-1 1-1h6v-4H14.25C13.0074 70 12 68.9926 12 67.75zM42 70h12v1c0 .5523-.4477 1-1 1H43c-.5523 0-1-.4477-1-1z" clip-rule="evenodd"/><path fill="#a1a8b2" d="M14.25 18C13.0074 18 12 19.0074 12 20.25v1c0-1.2426 1.0074-2.25 2.25-2.25h67.5c1.2426 0 2.25 1.0074 2.25 2.25v-1c0-1.2426-1.0074-2.25-2.25-2.25z" opacity=".2"/><path fill="#82e03d" d="M77 67.5a.5.5 0 0 1 .5-.5h3a.5.5 0 0 1 0 1h-3a.5.5 0 0 1-.5-.5"/><path fill="#303640" d="M15.5 67a.5.5 0 0 0 0 1h3a.5.5 0 0 0 0-1zM59 67.5a.5.5 0 0 1 .5-.5h3a.5.5 0 0 1 0 1h-3a.5.5 0 0 1-.5-.5M65.5 67a.5.5 0 0 0 0 1h3a.5.5 0 0 0 0-1zM71.5 67a.5.5 0 0 0 0 1h3a.5.5 0 0 0 0-1z"/><path fill="#303640" d="M12 66.75v1c0 1.243 1.007 2.25 2.25 2.25h67.5c1.243 0 2.25-1.007 2.25-2.25v-1c0 1.243-1.007 2.25-2.25 2.25h-67.5C13.007 69 12 67.993 12 66.75M32 76v1c0 .552.448 1 1 1h30c.552 0 1-.448 1-1v-1c0 .552-.448 1-1 1H33c-.552 0-1-.448-1-1"/><path fill="#6c7480" d="M33 74c-.5523 0-1 .4477-1 1v1c0-.5523.4477-1 1-1h30c.5523 0 1 .4477 1 1v-1c0-.5523-.4477-1-1-1z"/><defs><linearGradient id="desktop-windows-enabled-ill--96-a" x1="48" x2="48" y1="63" y2="65" gradientUnits="userSpaceOnUse"><stop stop-color="#fff"/><stop offset="1" stop-color="#fff" stop-opacity="0"/></linearGradient><linearGradient id="desktop-windows-enabled-ill--96-b" x1="16" x2="81" y1="63" y2="21" gradientUnits="userSpaceOnUse"><stop stop-color="#40a9ff"/><stop offset="1" stop-color="#a6d7ff"/></linearGradient><linearGradient id="desktop-windows-enabled-ill--96-c" x1="48" x2="48" y1="21" y2="63" gradientUnits="userSpaceOnUse"><stop/><stop offset="1" stop-color="#fff" stop-opacity="0"/></linearGradient><linearGradient id="desktop-windows-enabled-ill--96-d" x1="44" x2="44" y1="21" y2="63" gradientUnits="userSpaceOnUse"><stop stop-color="#fff"/><stop offset="1" stop-color="#ebebeb" stop-opacity="0"/></linearGradient><linearGradient id="desktop-windows-enabled-ill--96-e" x1="56.5" x2="56.5" y1="21" y2="44" gradientUnits="userSpaceOnUse"><stop stop-color="#fff"/><stop offset="1" stop-color="#fff" stop-opacity="0"/></linearGradient></defs></svg>