<svg xmlns="http://www.w3.org/2000/svg" fill="none" viewBox="0 0 96 96"><path fill="url(#desktop-imac-enabled-ill--96-a)" fill-opacity=".2" d="M14 59h68v3H14z"/><path fill="#fff" fill-opacity=".1" d="M14 59h68v1.5H14z"/><path fill="url(#desktop-imac-enabled-ill--96-b)" d="M14 20h68v40H14z"/><path stroke="url(#desktop-imac-enabled-ill--96-c)" d="M81.5 20.5v39h-67v-39z" opacity=".1"/><path fill="#2668c5" d="M49.819 36.558c.522-.266 1.097-.558 1.94-.558 1.116 0 2.959.997 3.702 2.122-1.413.54-2.417 1.905-2.417 3.503 0 1.613 1.022 2.989 2.457 3.518-.367.837-.582 1.251-1.075 2.028-.718 1.136-1.702 2.569-2.962 2.579-.517.005-.865-.155-1.24-.326-.436-.199-.908-.415-1.723-.409-.809.004-1.264.217-1.681.412-.365.171-.701.328-1.222.323-1.839 0-5.097-4.133-5.097-7.856 0-4.093 2.753-5.83 4.564-5.831.697 0 1.305.253 1.884.493.526.219 1.029.427 1.552.427.486 0 .884-.203 1.319-.424M50.987 34.573c-.947.944-2.185 1.359-3.237 1.192l-.001.001c-.167-1.049.249-2.282 1.196-3.226s2.185-1.359 3.237-1.192l.001-.001c.168 1.049-.249 2.282-1.196 3.226"/><path fill="url(#desktop-imac-enabled-ill--96-d)" d="M31.5151 20H82v40H56.2424z" opacity=".15"/><path fill="url(#desktop-imac-enabled-ill--96-e)" d="M49.0303 20H82v21.9048H63.5807z" opacity=".25"/><path fill="#dce1e8" fill-rule="evenodd" d="M12 20.25c0-1.2426 1.0074-2.25 2.25-2.25h67.5c1.2426 0 2.25 1.0074 2.25 2.25v47.5c0 1.2426-1.0074 2.25-2.25 2.25H57v5h1c.5523 0 1 .4477 1 1v1c0 .5523-.4477 1-1 1H38c-.5523 0-1-.4477-1-1v-1c0-.5523.4477-1 1-1h1v-5H14.25C13.0074 70 12 68.9926 12 67.75z" clip-rule="evenodd"/><path fill="#a1a8b2" d="M14.25 18C13.0074 18 12 19.0074 12 20.25v1c0-1.2426 1.0074-2.25 2.25-2.25h67.5c1.2426 0 2.25 1.0074 2.25 2.25v-1c0-1.2426-1.0074-2.25-2.25-2.25z" opacity=".1"/><path fill="#ced2d9" d="M12 62h72v8H12z"/><path fill="#b4b8bf" d="M12 65.6667V67c0 1.5 0 3 2.25 3h67.5C84 70 84 68.6568 84 67v-1.3333c0 1.6568-1.0074 3-2.25 3h-67.5c-1.2426 0-2.25-1.3432-2.25-3"/><path fill="#c4cdd9" d="M37 76.5v.75c0 .4142.3078.75.6875.75h20.625c.3797 0 .6875-.3358.6875-.75v-.75c0 .4142-.3078.75-.6875.75h-20.625c-.3797 0-.6875-.3358-.6875-.75"/><path fill="#fff" d="M37.6875 75c-.3797 0-.6875.3358-.6875.75v.75c0-.4142.3078-.75.6875-.75h20.625c.3797 0 .6875.3358.6875.75v-.75c0-.4142-.3078-.75-.6875-.75z"/><path fill="url(#desktop-imac-enabled-ill--96-f)" d="M39 70h18v5H39z"/><defs><linearGradient id="desktop-imac-enabled-ill--96-a" x1="48" x2="48" y1="59" y2="62" gradientUnits="userSpaceOnUse"><stop stop-color="#fff"/><stop offset="1" stop-color="#fff" stop-opacity="0"/></linearGradient><linearGradient id="desktop-imac-enabled-ill--96-b" x1="15.0303" x2="78.8007" y1="60" y2="15.4232" gradientUnits="userSpaceOnUse"><stop stop-color="#40a9ff"/><stop offset="1" stop-color="#a6d7ff"/></linearGradient><linearGradient id="desktop-imac-enabled-ill--96-c" x1="48" x2="48" y1="20" y2="60" gradientUnits="userSpaceOnUse"><stop/><stop offset="1" stop-color="#fff" stop-opacity="0"/></linearGradient><linearGradient id="desktop-imac-enabled-ill--96-d" x1="43.8788" x2="43.8788" y1="20" y2="60" gradientUnits="userSpaceOnUse"><stop stop-color="#fff"/><stop offset="1" stop-color="#ebebeb" stop-opacity="0"/></linearGradient><linearGradient id="desktop-imac-enabled-ill--96-e" x1="56.7575" x2="56.7575" y1="20" y2="41.9048" gradientUnits="userSpaceOnUse"><stop stop-color="#fff"/><stop offset="1" stop-color="#fff" stop-opacity="0"/></linearGradient><linearGradient id="desktop-imac-enabled-ill--96-f" x1="48" x2="48" y1="70" y2="75" gradientUnits="userSpaceOnUse"><stop stop-color="#a1a8b2"/><stop offset="1" stop-color="#d9d9d9" stop-opacity="0"/></linearGradient></defs></svg>