<svg xmlns="http://www.w3.org/2000/svg" fill="none" viewBox="0 0 24 24"><path fill="currentColor" fill-rule="evenodd" d="M21 5v14c0 2.2091-1.7909 4-4 4H7c-2.2091 0-4-1.7909-4-4V5c0-2.2091 1.7909-4 4-4h10c2.2091 0 4 1.7909 4 4m-2 0c0-1.1046-.8954-2-2-2H7c-1.1046 0-2 .8954-2 2v14c0 1.1046.8954 2 2 2h10c1.1046 0 2-.8954 2-2z" clip-rule="evenodd"/><path fill="currentColor" fill-rule="evenodd" d="M8 15c0-2.2091 1.7909-4 4-4s4 1.7909 4 4-1.7909 4-4 4-4-1.7909-4-4m6 0c0-1.1046-.8954-2-2-2s-2 .8954-2 2 .8954 2 2 2 2-.8954 2-2" clip-rule="evenodd"/><path fill="currentColor" d="M12 9c-1.1046 0-2-.8954-2-2s.8954-2 2-2 2 .8954 2 2-.8954 2-2 2"/></svg>