<svg xmlns="http://www.w3.org/2000/svg" fill="none" viewBox="0 0 24 24"><path fill="currentColor" d="M15 13c0-.552.448-1 1-1s1 .448 1 1-.448 1-1 1-1-.448-1-1M16 15c-.552 0-1 .448-1 1s.448 1 1 1 1-.448 1-1-.448-1-1-1"/><path fill="currentColor" fill-rule="evenodd" d="M9.6458 21A3.985 3.985 0 0 1 7 22c-2.2091 0-4-1.7909-4-4V6c0-2.2091 1.7909-4 4-4a3.985 3.985 0 0 1 2.6458 1H17c2.2091 0 4 1.7909 4 4v10c0 2.2091-1.7909 4-4 4zM11 18v-1h2c.5523 0 1-.4477 1-1s-.4477-1-1-1h-2v-1h2c.5523 0 1-.4477 1-1s-.4477-1-1-1h-2v-1h5c.5523 0 1-.4477 1-1V8c0-.5523-.4477-1-1-1h-5V6c0-.3453-.0438-.6804-.126-1H17c1.1046 0 2 .8954 2 2v10c0 1.1046-.8954 2-2 2h-6.126A4 4 0 0 0 11 18M5 6c0-1.1046.8954-2 2-2s2 .8954 2 2v12c0 1.1046-.8954 2-2 2s-2-.8954-2-2z" clip-rule="evenodd"/></svg>