<svg xmlns="http://www.w3.org/2000/svg" fill="none" viewBox="0 0 24 24"><path fill="currentColor" d="M13 4c.552 0 1 .448 1 1s-.448 1-1 1h-2c-.552 0-1-.448-1-1s.448-1 1-1zM13.167 8.957c.286-.378.502-.913.424-1.457-.466.033-1.011.34-1.329.738-.288.362-.527.901-.434 1.421.509.017 1.034-.296 1.34-.702"/><path fill="currentColor" d="M15.92 14.122c-.2167.4647-.3204.6725-.5983 1.0832-.3888.5735-.9375 1.2891-1.6157 1.294-.2789.0021-.4622-.0791-.6594-.1666-.2297-.1019-.4784-.2121-.9192-.2089-.437.002-.6894.1108-.9217.2108-.2029.0874-.3904.1682-.672.1654-.6783-.0056-1.1978-.6507-1.587-1.2231-1.0871-1.6054-1.2016-3.4874-.5295-4.4887.4752-.7101 1.228-1.127 1.9347-1.127.3771 0 .6807.1051.9699.2053.2629.091.5139.1779.7973.1779.2622 0 .4778-.0793.7132-.1659.2827-.104.5939-.2184 1.0483-.2184.6296 0 1.2953.3324 1.7705.9059-1.5552.8262-1.3029 2.9795.2689 3.5561"/><path fill="currentColor" fill-rule="evenodd" d="M21 5v14c0 2.2091-1.7909 4-4 4H7c-2.2091 0-4-1.7909-4-4V5c0-2.2091 1.7909-4 4-4h10c2.2091 0 4 1.7909 4 4m-2 0c0-1.1046-.8954-2-2-2H7c-1.1046 0-2 .8954-2 2v14c0 1.1046.8954 2 2 2h10c1.1046 0 2-.8954 2-2z" clip-rule="evenodd"/></svg>