<svg xmlns="http://www.w3.org/2000/svg" fill="none" viewBox="0 0 24 24"><path fill="currentColor" d="M7.5 7h1.755L12 8.177 14.876 7H16.5v2.496l-1.643.685V8.802l-2.838 1.195-2.838-1.195v3.745l-1.631.68a4.4 4.4 0 0 1-.049-.656zM7.873 14.338C8.566 15.905 10.153 17 12 17c2.485 0 4.5-1.983 4.5-4.43v-1.827l-1.643.685v1.124c0 1.543-1.271 2.794-2.838 2.794-1.155 0-2.149-.68-2.592-1.655z"/><path fill="currentColor" fill-rule="evenodd" d="M6 2C3.7909 2 2 3.7909 2 6v12c0 2.2091 1.7909 4 4 4h12c2.2091 0 4-1.7909 4-4V6c0-2.2091-1.7909-4-4-4zm12 2H6c-1.1046 0-2 .8954-2 2v12c0 1.1046.8954 2 2 2h12c1.1046 0 2-.8954 2-2V6c0-1.1046-.8954-2-2-2" clip-rule="evenodd"/></svg>