<svg xmlns="http://www.w3.org/2000/svg" fill="none" viewBox="0 0 24 24"><path fill="currentColor" fill-rule="evenodd" d="M22 8.1217a3 3 0 0 0-1.4356-2.5599l-7-4.2778a3 3 0 0 0-3.1288 0l-7 4.2778A3 3 0 0 0 2 8.1217v2.9312C2 11.5875 2.4654 12 3 12c4.9706 0 9 4.0294 9 9 0 .5346.4125 1 .9471 1h.1033q.0377 0 .0746-.0028V22H19c1.6569 0 3-1.3432 3-3zM13.9552 20H19c.5523 0 1-.4477 1-1V8.1217a1 1 0 0 0-.4785-.8533l-7-4.2778a1 1 0 0 0-1.043 0l-7 4.2778A1 1 0 0 0 4 8.1217v1.9231c5.2771.4756 9.4796 4.678 9.9552 9.9552" clip-rule="evenodd"/><path fill="currentColor" d="M8.997 21.195c-.015.467-.422.805-.889.805h-.223C7.373 22 7 21.512 7 21c0-2.209-1.791-4-4-4-.512 0-1-.373-1-.885v-.223c0-.467.338-.874.805-.889Q2.902 15 3 15c3.314 0 6 2.686 6 6q0 .098-.003.195M4 21c0 .552-.448 1-1 1s-1-.448-1-1 .448-1 1-1 1 .448 1 1"/></svg>