<svg xmlns="http://www.w3.org/2000/svg" fill="none" viewBox="0 0 24 24"><path fill="currentColor" d="M10.847 6.25H9.428l-.979 4.627q-.166.757-.275 1.694-.13-1.104-.264-1.694L6.92 6.25H5.5l1.772 7.575h1.793zM12.78 7.374l1.44 6.451h1.539l1.435-6.44h.042a12.1 12.1 0 0 0-.073 1.306v5.135H18.5V6.25h-2.197l-1.285 5.953h-.041L13.681 6.25h-2.166v7.575h1.306V8.742q0-.622-.098-1.368z"/><path fill="currentColor" fill-rule="evenodd" d="M11 18H3.5033C2.673 18 2 17.3361 2 16.5069V3.4931C2 2.6685 2.6654 2 3.5033 2h16.9934C21.327 2 22 2.6639 22 3.4931v13.0138C22 17.3315 21.3346 18 20.4967 18H13v2h2.003A.996.996 0 0 1 16 21c0 .5523-.453 1-.997 1H8.997A.996.996 0 0 1 8 21c0-.5523.453-1 .997-1H11zm9-2V4H4v12z" clip-rule="evenodd"/></svg>