<svg xmlns="http://www.w3.org/2000/svg" fill="none" viewBox="0 0 24 24"><path fill="currentColor" d="M2 15V5.3C2 4.03 3.03 3 4.3 3h15.4C20.97 3 22 4.03 22 5.3V15c0 .552-.448 1-1 1s-1-.448-1-1V5.3a.3.3 0 0 0-.3-.3H4.3a.3.3 0 0 0-.3.3V15c0 .552-.448 1-1 1s-1-.448-1-1M0 18v1.5c0 .828.672 1.5 1.5 1.5h21c.828 0 1.5-.672 1.5-1.5V18h-8c0 .552-.448 1-1 1H9c-.552 0-1-.448-1-1z"/><path fill="currentColor" d="M7.83 8.132q-.128.128-.128.352 0 .23.135.358.135.125.358.125.213 0 .348-.125.135-.129.135-.358 0-.223-.132-.352-.132-.132-.352-.132-.233 0-.365.132M7.739 13.234h.899V9.467h-.899zM5 8.291v4.943h2.194v-.805H5.92V8.291zM11.285 13.234v-2.245q0-.409-.098-.619-.098-.21-.318-.21-.291 0-.426.291-.135.287-.135.974v1.809h-.899V9.467h.713l.108.483h.058q.122-.26.348-.406.227-.149.531-.149.514 0 .768.352.257.352.257 1.028v2.458zM14.842 12.75l.112.483h.72V9.467h-.909v1.805q0 .686-.135.977-.132.291-.423.291-.22 0-.318-.21t-.098-.622V9.467h-.909v2.458q0 .686.26 1.031.26.345.768.345.297 0 .527-.145.233-.149.358-.406zM17.076 11.31l-.94-1.842h.933l.5 1.15.463-1.149h.926l-.947 1.843L19 13.234h-.94l-.534-1.204-.497 1.204h-.936z"/></svg>