<svg xmlns="http://www.w3.org/2000/svg" fill="none" viewBox="0 0 24 24"><path fill="currentColor" d="M10.5 5c-.552 0-1 .448-1 1s.448 1 1 1 1-.448 1-1-.448-1-1-1M9.5 8.5c0-.552.448-1 1-1s1 .448 1 1-.448 1-1 1-1-.448-1-1M10.5 10c-.552 0-1 .448-1 1s.448 1 1 1 1-.448 1-1-.448-1-1-1M12.5 11c0-.552.448-1 1-1s1 .448 1 1-.448 1-1 1-1-.448-1-1M13.5 5c-.552 0-1 .448-1 1v2.5c0 .552.448 1 1 1s1-.448 1-1V6c0-.552-.448-1-1-1M15.5 17.5c0-.552.448-1 1-1s1 .448 1 1-.448 1-1 1-1-.448-1-1M7.5 16.5c-.552 0-1 .448-1 1s.448 1 1 1h5c.552 0 1-.448 1-1s-.448-1-1-1z"/><path fill="currentColor" fill-rule="evenodd" d="M6 13h.5V5c0-1.6568 1.3431-3 3-3h5c1.6569 0 3 1.3432 3 3v8h.5c1.6569 0 3 1.3431 3 3v3c0 1.6569-1.3431 3-3 3H6c-1.6569 0-3-1.3431-3-3v-3c0-1.6569 1.3431-3 3-3m9.5 0V5c0-.5523-.4477-1-1-1h-5c-.5523 0-1 .4477-1 1v8zM6 15c-.5523 0-1 .4477-1 1v3c0 .5523.4477 1 1 1h12c.5523 0 1-.4477 1-1v-3c0-.5523-.4477-1-1-1z" clip-rule="evenodd"/></svg>