<svg xmlns="http://www.w3.org/2000/svg" fill="none" viewBox="0 0 24 24"><path fill="currentColor" d="M20.8529 16.6547c-.3081.5849-1.0949.6319-1.5371.1406-.3068-.3409-.3449-.8406-.1415-1.2516C19.7029 14.4756 20 13.2725 20 12c0-4.4183-3.5817-8-8-8s-8 3.5817-8 8c0 1.3999.3596 2.7158.9914 3.8605.2192.3971.2067.8918-.0767 1.2461-.4167.5209-1.2133.5146-1.5504-.0611C2.4971 15.5644 2 13.8403 2 12 2 6.4772 6.4772 2 12 2s10 4.4772 10 10c0 1.6806-.4146 3.2644-1.1471 4.6547"/><path fill="currentColor" d="M17.9021 13.0851c-.1423.7792-1.0935.9245-1.6233.3358-.2495-.2772-.3335-.6596-.2976-1.0307A4 4 0 0 0 16 12c0-2.2091-1.7909-4-4-4s-4 1.7909-4 4q.0002.2562.0314.5038c.0452.3597-.021.7332-.2474 1.0162-.5052.6315-1.4835.5281-1.652-.2628A6.02 6.02 0 0 1 6 12c0-3.3137 2.6863-6 6-6s6 2.6863 6 6c0 .3705-.0336.7332-.0979 1.0851"/><path fill="currentColor" d="M13 14.0095c.7594-.3662 1.2833-1.1434 1.2833-2.0429 0-1.2518-1.0148-2.2667-2.2666-2.2667S9.75 10.7148 9.75 11.9667c0 .8919.5151 1.6634 1.264 2.0334H11v7c0 .5523.4477 1 1 1s1-.4477 1-1z"/></svg>