<svg xmlns="http://www.w3.org/2000/svg" fill="none" viewBox="0 0 24 24"><path fill="currentColor" fill-rule="evenodd" d="M3 12c0 4.9706 4.0294 9 9 9s9-4.0294 9-9-4.0294-9-9-9-9 4.0294-9 9m9-11C5.9249 1 1 5.9249 1 12s4.9249 11 11 11 11-4.9249 11-11S18.0751 1 12 1" clip-rule="evenodd"/><path fill="currentColor" d="M11.2797 14.4309c-.3149 0-.5736-.2576-.5859-.5834.0037-.6902.0883-.8046.2099-1.2126q.1878-.612.5303-.9838.3426-.3775.8342-.6921.337-.2173.6022-.4747.2706-.2631.4253-.5834.1547-.326.1547-.7264 0-.452-.2044-.7836-.2043-.3318-.5524-.5148-.3425-.183-.7679-.183a1.64 1.64 0 0 0-.7458.1772q-.348.1716-.5801.5263c-.2828.4356-.6513.8865-1.1583.8865h-.0401c-.5603 0-1.032-.4885-.8686-1.0433q.1261-.4278.3544-.7756.4862-.732 1.2817-1.0981Q10.9699 6 11.9367 6q1.0552 0 1.8562.3832.8067.3833 1.2541 1.0925.453.7035.453 1.6701 0 .6521-.2044 1.1669a2.85 2.85 0 0 1-.569.9151q-.3702.4005-.8784.715-.4474.286-.7348.5949-.2817.3088-.4198.7264c-.0884.2745-.1381.4104-.1381.5834 0 .3222-.2523.5834-.5635.5834zM11.6771 18q-.4972 0-.8563-.3661t-.3591-.8922q0-.5148.3591-.8809t.8563-.366q.4917 0 .8507.366.3647.3661.3647.8809 0 .3489-.1713.6348a1.29 1.29 0 0 1-.442.4576Q12.0086 18 11.6771 18"/></svg>