<svg xmlns="http://www.w3.org/2000/svg" fill="none" viewBox="0 0 24 24"><path fill="currentColor" fill-rule="evenodd" d="M21 6v12c0 2.2091-1.7909 4-4 4H7c-2.2091 0-4-1.7909-4-4v-2.5c0-.8179.3928-1.5441 1-2.0002v-1.4996C3.3928 11.5441 3 10.8179 3 10v-.6105c0-.7063.2404-1.3915.6816-1.943l3.1562-3.9453A4 4 0 0 1 9.9613 2H17c2.2091 0 4 1.7909 4 4m-2 0c0-1.1046-.8954-2-2-2H9.9613a2 2 0 0 0-1.5618.7506L5.2433 8.6958A1.11 1.11 0 0 0 5 9.3895V10a.5.5 0 0 0 .5.5.5.5 0 0 1 .5.5v3.5a.5.5 0 0 1-.5.5.5.5 0 0 0-.5.5V18c0 1.1046.8954 2 2 2h10c1.1046 0 2-.8954 2-2z" clip-rule="evenodd"/><path fill="currentColor" d="M16 16c.552 0 1 .448 1 1s-.448 1-1 1H8c-.552 0-1-.448-1-1s.448-1 1-1zM17 9c0 .552-.448 1-1 1s-1-.448-1-1V7c0-.552.448-1 1-1s1 .448 1 1zM14 9c0 .552-.448 1-1 1s-1-.448-1-1V7c0-.552.448-1 1-1s1 .448 1 1zM11 9c0 .552-.448 1-1 1s-1-.448-1-1V7c0-.552.448-1 1-1s1 .448 1 1z"/></svg>