<svg xmlns="http://www.w3.org/2000/svg" fill="none" viewBox="0 0 24 24"><path fill="currentColor" d="M8 6h3.429v3.429H8zM8 10.571h3.429V14H8zM16 6h-3.429v3.429H16zM12.571 10.571H16V14h-3.429z"/><path fill="currentColor" fill-rule="evenodd" d="M3.5033 18H11v2H8.997C8.453 20 8 20.4477 8 21c0 .5561.4464 1 .997 1h6.006c.544 0 .997-.4477.997-1a.996.996 0 0 0-.997-1H13v-2h7.4967C21.3346 18 22 17.3315 22 16.5069V3.4931C22 2.6639 21.327 2 20.4967 2H3.5033C2.6654 2 2 2.6685 2 3.4931v13.0138C2 17.3361 2.673 18 3.5033 18M20 4v12H4V4z" clip-rule="evenodd"/></svg>