<svg xmlns="http://www.w3.org/2000/svg" fill="none" viewBox="0 0 24 24"><path fill="currentColor" d="M11.867 9.075c.561.089 1.221-.132 1.727-.636.505-.503.727-1.16.637-1.72-.561-.089-1.221.132-1.726.636-.505.503-.727 1.161-.637 1.72M14.005 9.2c-.449 0-.756.156-1.034.298-.232.118-.444.226-.703.226-.279 0-.547-.111-.828-.228-.309-.128-.633-.263-1.005-.263C9.468 9.234 8 10.16 8 12.343c0 1.986 1.738 4.19 2.718 4.19.278.003.457-.081.652-.172.223-.104.465-.218.897-.22.435-.003.687.112.919.218.2.092.386.176.661.174.672-.005 1.196-.77 1.58-1.375.263-.414.378-.635.573-1.082-.765-.282-1.31-1.016-1.31-1.876 0-.852.535-1.58 1.289-1.868-.396-.6-1.379-1.132-1.974-1.132"/><path fill="currentColor" fill-rule="evenodd" d="M2 6c0-2.2091 1.7909-4 4-4h12c2.2091 0 4 1.7909 4 4v12c0 2.2091-1.7909 4-4 4H6c-2.2091 0-4-1.7909-4-4zm4-2h12c1.1046 0 2 .8954 2 2v12c0 1.1046-.8954 2-2 2H6c-1.1046 0-2-.8954-2-2V6c0-1.1046.8954-2 2-2" clip-rule="evenodd"/></svg>