<svg xmlns="http://www.w3.org/2000/svg" fill="none" viewBox="0 0 24 24"><path fill="currentColor" d="M2 15V5.3C2 4.03 3.03 3 4.3 3h15.4C20.97 3 22 4.03 22 5.3V15c0 .552-.448 1-1 1s-1-.448-1-1V5.3a.3.3 0 0 0-.3-.3H4.3a.3.3 0 0 0-.3.3V15c0 .552-.448 1-1 1s-1-.448-1-1M0 18v1.5c0 .828.672 1.5 1.5 1.5h21c.828 0 1.5-.672 1.5-1.5V18h-8c0 .552-.448 1-1 1H9c-.552 0-1-.448-1-1z"/><path fill="currentColor" d="M11.429 6.5H8v3.429h3.429zM11.429 11.071H8V14.5h3.429zM16 6.5h-3.429v3.429H16zM16 11.071h-3.429V14.5H16z"/></svg>