<svg xmlns="http://www.w3.org/2000/svg" fill="none" viewBox="0 0 24 24"><path fill="currentColor" d="M7.83 7.132q-.128.128-.128.352 0 .23.135.358.135.125.358.125.213 0 .348-.125.135-.129.135-.358 0-.223-.132-.352Q8.415 7 8.195 7q-.233 0-.365.132M7.739 12.234h.899V8.467h-.899zM5 7.291v4.943h2.194v-.805H5.92V7.291zM11.285 12.234V9.989q0-.409-.098-.619-.098-.21-.318-.21-.291 0-.426.291-.135.287-.135.974v1.809h-.899V8.467h.713l.108.483h.058q.122-.26.348-.406.227-.149.531-.149.514 0 .768.352.257.352.257 1.028v2.458zM14.842 11.75l.112.483h.72V8.467h-.909v1.805q0 .686-.135.977-.132.291-.423.291-.22 0-.318-.21t-.098-.622V8.467h-.909v2.458q0 .686.26 1.031.26.345.768.345.297 0 .527-.145.233-.149.358-.406zM17.076 10.31l-.94-1.842h.933l.5 1.15.463-1.149h.926l-.947 1.843L19 12.234h-.94l-.534-1.204-.497 1.204h-.936z"/><path fill="currentColor" fill-rule="evenodd" d="M3.5033 18H11v2H8.997C8.453 20 8 20.4477 8 21c0 .5561.4464 1 .997 1h6.006c.544 0 .997-.4477.997-1a.996.996 0 0 0-.997-1H13v-2h7.4967C21.3346 18 22 17.3315 22 16.5069V3.4931C22 2.6639 21.327 2 20.4967 2H3.5033C2.6654 2 2 2.6685 2 3.4931v13.0138C2 17.3361 2.673 18 3.5033 18M20 4v12H4V4z" clip-rule="evenodd"/></svg>