<svg xmlns="http://www.w3.org/2000/svg" fill="none" viewBox="0 0 32 32"><path fill="currentColor" fill-rule="evenodd" d="M25 13c0-1.3356-.2909-2.6032-.8128-3.743L29 4.4443 27.5558 3 5 25.5558 6.4442 27 12 21.4442V25h8v-3.9355c2.9634-1.4727 5-4.5308 5-8.0645m-11.2544 6.6986L14 19.825V23h4v-3.175l1.1099-.5515C21.4741 18.0986 23 15.6866 23 13a6.99 6.99 0 0 0-.3535-2.2023z" clip-rule="evenodd"/><path fill="currentColor" d="M20 29v-2h-8v2zM20.4 7.556l1.42-1.42C20.251 4.803 18.22 4 16 4c-4.971 0-9 4.029-9 9 0 2.22.803 4.251 2.135 5.821l1.42-1.42A6.988 6.988 0 0 1 9 13c0-3.866 3.134-7 7-7 1.667 0 3.198.583 4.4 1.556"/></svg>