<svg xmlns="http://www.w3.org/2000/svg" fill="none" viewBox="0 0 16 16"><path fill="currentColor" fill-rule="evenodd" d="M10.6371 5.3633a.9.9 0 0 1 0 1.2727l-3.9997 3.9998a.9.9 0 0 1-1.2728 0 .9.9 0 0 1 0-1.2727l3.9998-3.9998a.9.9 0 0 1 1.2727 0" clip-rule="evenodd"/><path fill="currentColor" d="M9.8758 10.9994c.6213 0 1.1249-.5036 1.1249-1.125 0-.6212-.5036-1.1249-1.125-1.1249-.6212 0-1.1249.5037-1.1249 1.125s.5037 1.1249 1.125 1.1249"/><path fill="currentColor" fill-rule="evenodd" d="M9.8758 10.3071a.4327.4327 0 1 0 0-.8654.4327.4327 0 0 0 0 .8654m1.1249-.4326c0 .6213-.5036 1.1249-1.125 1.1249-.6212 0-1.1249-.5036-1.1249-1.125 0-.6212.5037-1.1249 1.125-1.1249s1.1249.5037 1.1249 1.125" clip-rule="evenodd"/><path fill="currentColor" d="M6.126 7.2496c.6213 0 1.125-.5036 1.125-1.125 0-.6212-.5037-1.1249-1.125-1.1249s-1.125.5037-1.125 1.125.5037 1.125 1.125 1.125"/><path fill="currentColor" fill-rule="evenodd" d="M6.126 6.5573a.4327.4327 0 1 0 0-.8653.4327.4327 0 0 0 0 .8653m1.125-.4326c0 .6213-.5037 1.125-1.125 1.125s-1.125-.5037-1.125-1.125.5037-1.125 1.125-1.125 1.125.5037 1.125 1.125" clip-rule="evenodd"/><path fill="currentColor" fill-rule="evenodd" d="m14.4147 4.5364-.0525-.6694c-.0946-1.188-1.0373-2.1306-2.2253-2.2252l-.6693-.0543a2.426 2.426 0 0 1-1.3807-.5712L9.5752.58c-.9059-.7727-2.2393-.7727-3.1469 0l-.5116.4345a2.427 2.427 0 0 1-1.3807.5712l-.6694.0526c-1.188.0946-2.1306 1.0373-2.2252 2.2252l-.0544.6694a2.427 2.427 0 0 1-.5712 1.3807l-.4363.5116c-.7727.9059-.7727 2.2393 0 3.147l.4346.5116c.3311.389.5309.8726.5712 1.3807l.0526.6693c.0946 1.188 1.0372 2.1307 2.2252 2.2253l.6693.0543a2.427 2.427 0 0 1 1.3808.5712l.5134.4346c.9058.7727 2.2392.7727 3.1469 0l.5116-.4346a2.427 2.427 0 0 1 1.3807-.5712l.6694-.0526c1.1879-.0946 2.1306-1.0372 2.2252-2.2252l.0543-.6694a2.427 2.427 0 0 1 .5712-1.3807l.4346-.5116c.7727-.9059.7727-2.2393 0-3.147l-.4346-.5116a2.417 2.417 0 0 1-.5712-1.379m-.9486 2.6788-.0025-.0029a4.417 4.417 0 0 1-1.0425-2.5178l-.0525-.6687c0-.0001 0 .0002 0 0a.4254.4254 0 0 0-.3905-.3904l-.003-.0003-.6656-.054-.0021-.0002a4.427 4.427 0 0 1-2.517-1.0419l-.5128-.4373a.426.426 0 0 0-.5529.001l-.0018.0016-.5098.433-.0011.001a4.427 4.427 0 0 1-2.518 1.041l-.6686.0526c-.0002 0 .0002 0 0 0a.426.426 0 0 0-.3905.3904l-.0002.003-.054.6657-.0002.0022A4.427 4.427 0 0 1 2.5386 7.21l-.4373.5129a.426.426 0 0 0 .001.5528l.0015.0018.433.5099.0007.0007a4.427 4.427 0 0 1 1.0414 2.5183l.0525.6686c0-.0002 0 .0003 0 0a.426.426 0 0 0 .3905.3905l.003.0002.6657.0541.0022.0001a4.427 4.427 0 0 1 2.5168 1.0419l.509.4309.0058.0049a.426.426 0 0 0 .5526-.0012l.0018-.0016.5099-.433c-.0003.0002.0002-.0002 0 0a4.43 4.43 0 0 1 2.519-1.042l.6687-.0525c-.0002 0 .0001 0 0 0a.4256.4256 0 0 0 .3904-.3905l.0003-.003.054-.6657.0002-.0022a4.426 4.426 0 0 1 1.0419-2.5168l.4357-.513a.426.426 0 0 0-.0012-.5527l-.0015-.0018z" clip-rule="evenodd"/></svg>