<svg xmlns="http://www.w3.org/2000/svg" fill="none" viewBox="0 0 32 32"><path fill="currentColor" fill-rule="evenodd" d="M28.207 5.207c.391-.39.391-1.024 0-1.414s-1.024-.39-1.414 0l-2.378 2.378c-1.941-1.286-4.583-1.074-6.293.636l-1.45 1.45-1.464-1.464c-.39-.39-1.024-.39-1.414 0s-.39 1.024 0 1.414l2.543 2.543-2.543 2.543c-.39.391-.39 1.024 0 1.414s1.024.391 1.414 0l2.543-2.543 2.086 2.086-2.543 2.543c-.39.391-.39 1.024 0 1.414s1.024.391 1.414 0l2.543-2.543 2.543 2.543c.391.391 1.024.391 1.414 0s.391-1.024 0-1.414l-1.464-1.464 1.45-1.45c1.711-1.71 1.923-4.352.636-6.293zm-4.429 7.257-1.45 1.45-4.243-4.243 1.45-1.45c1.172-1.171 3.071-1.171 4.243 0s1.172 3.071 0 4.243M8.207 13.793c-.39-.39-1.024-.39-1.414 0s-.39 1.024 0 1.414l1.465 1.465-1.45 1.45c-1.71 1.711-1.923 4.352-.636 6.293L3.793 26.793c-.39.391-.39 1.024 0 1.414s1.024.391 1.414 0l2.378-2.378c1.941 1.286 4.583 1.074 6.293-.636l1.45-1.45 1.465 1.465c.391.391 1.024.391 1.414 0s.391-1.024 0-1.414zm1.465 4.293 4.243 4.243-1.45 1.45c-1.172 1.172-3.071 1.172-4.243 0-1.171-1.172-1.171-3.071 0-4.243z" clip-rule="evenodd"/></svg>