<svg xmlns="http://www.w3.org/2000/svg" fill="none" viewBox="0 0 16 16"><path fill="currentColor" d="m10.007 14.242.04-.071.08-.036a1.22 1.22 0 0 0 .369-.31 1.24 1.24 0 0 0 .222-.431 5.04 5.04 0 0 0 .035-1.996c.006-.185-.068-.39-.14-.592-.126-.352-.25-.699.045-.931.225-.035.485-.035.725-.035.58.031 1.166.041 1.752 0 .134.001.269-.013.4-.041h.035a1.65 1.65 0 0 0 .38-.117 1.07 1.07 0 0 0 .345-.208c.343-.283.299-.644.256-1.002-.041-.337-.082-.672.2-.938.465-.487.21-1.153-.19-1.579-.136-.238-.065-.525.004-.808.089-.363.177-.72-.174-.959-.473-.168-.531-.554-.591-.956-.029-.193-.058-.39-.135-.568-.438-.543-1.139-.566-1.796-.588-.154-.005-.305-.01-.451-.022a28.1 28.1 0 0 0-3.137.112c-.48.064-.891.312-1.305.561-.38.229-.761.459-1.197.546h-.275v6.094a4.85 4.85 0 0 1 2.031 1.207 4.95 4.95 0 0 1 1.236 2.033 9 9 0 0 1 .086.334c.119.488.252 1.032.62 1.225a.58.58 0 0 0 .19.076.84.84 0 0 0 .225 0zM1.5 9.875h2.502c.276 0 .5-.227.5-.508V2.258c0-.28-.224-.508-.5-.508H1.5C1.224 1.75 1 1.977 1 2.258v7.11c0 .281.224.508.5.508"/></svg>