<svg xmlns="http://www.w3.org/2000/svg" fill="none" viewBox="0 0 24 24"><path fill="currentColor" d="M5.72 17.446c.177.045.337.148.456.363-.123.211-.284.309-.461.349-.218.048-.482.012-.754-.073-.256-.081-.5-.199-.687-.303.189-.099.435-.211.693-.284.274-.078.538-.106.754-.051M18.28 17.446c.217-.054.481-.027.754.051.258.074.505.187.694.286-.186.104-.429.223-.685.303-.271.085-.535.12-.753.072-.178-.04-.341-.138-.466-.35.119-.215.279-.317.456-.362M3.368 14.937c.284-.014.547.019.746.122.162.084.295.219.362.456-.169.178-.349.236-.532.234-.224-.002-.473-.097-.718-.242-.231-.137-.44-.308-.598-.451.206-.053.472-.106.74-.119M20.632 14.937c.268.013.533.066.74.119-.158.143-.367.314-.598.451-.245.145-.494.239-.718.242-.182.002-.363-.057-.532-.234.067-.236.2-.372.362-.456.199-.102.462-.135.746-.122M2.027 11.997c.212.015.48.048.738.12.274.077.513.192.67.352.127.131.211.302.199.548-.217.115-.408.112-.58.053-.211-.073-.417-.241-.603-.455-.175-.203-.319-.431-.423-.617M21.974 11.997c-.104.186-.249.415-.425.618-.186.215-.392.383-.603.456-.172.06-.363.061-.58-.054-.012-.246.072-.417.199-.548.156-.16.395-.275.668-.352.259-.073.529-.105.741-.12M2.981 8.599c.167.134.368.317.539.524.182.22.313.451.35.672.03.181 0 .369-.151.564-.244-.029-.399-.139-.507-.287-.132-.181-.205-.437-.236-.721-.029-.268-.016-.54.004-.753M21.019 8.599c.021.213.033.485.004.753-.03.284-.104.54-.236.721-.108.148-.263.258-.507.287-.151-.195-.181-.383-.151-.564.037-.221.169-.452.35-.672.171-.208.372-.39.539-.524M4.891 5.694c.101.187.217.431.295.688.082.273.113.537.062.754-.042.177-.143.339-.356.46-.213-.121-.312-.283-.354-.46-.052-.218-.02-.482.062-.754.077-.257.192-.501.293-.688M19.107 5.694c.101.187.217.432.295.688.082.273.113.537.062.754-.042.177-.143.339-.356.46-.213-.121-.312-.283-.354-.46-.051-.218-.02-.482.062-.754.077-.257.192-.501.293-.688M8.295 4.456c-.061.204-.152.458-.28.694-.135.251-.301.461-.494.58-.157.097-.344.143-.583.079-.065-.236-.02-.422.076-.579.118-.191.328-.356.58-.492.238-.129.495-.221.7-.283M15.705 4.456c.205.062.462.154.7.283.252.136.462.301.58.492.097.156.141.342.076.579-.238.064-.426.018-.583-.079-.192-.119-.358-.329-.494-.58-.127-.236-.219-.49-.28-.694M12 12.803a.697.697 0 1 1 0 1.395.697.697 0 0 1 0-1.395"/><path fill="currentColor" fill-rule="evenodd" d="M14.9473 10.7402v5.5196H9.0527v-5.5196zM12 12.3223c-.6503 0-1.1777.5274-1.1777 1.1777s.5274 1.1777 1.1777 1.1777 1.1777-.5275 1.1777-1.1777-.5274-1.1777-1.1777-1.1777" clip-rule="evenodd"/><path fill="currentColor" d="M12 6.8027c.533 0 1.044.212 1.4209.5889s.5889.8879.5889 1.4209v1.4473H9.9902V8.8125c0-.533.212-1.044.5889-1.4209A2.01 2.01 0 0 1 12 6.8027"/><path fill="currentColor" fill-rule="evenodd" d="M12 .6152c6.2877 0 11.3848 5.097 11.3848 11.3848C23.3847 18.2877 18.2877 23.3847 12 23.3848S.6153 18.2877.6152 12 5.7122.6152 12 .6152m3.4189 3.274a.241.241 0 0 0-.2138.0659.24.24 0 0 0-.0659.2124v.003l.0058.0292a4.9546 4.9546 0 0 0 .0908.3618c.0663.227.1713.5294.3267.8174.1538.2851.368.5783.6621.7603.2726.1687.5987.2311.9683.1303 1.5922 1.3542 2.6057 3.5254 2.6059 5.7862v.0029a7.262 7.262 0 0 1-1.4414 4.3916c-.204.2735-.4283.5289-.6665.769a1.2 1.2 0 0 0-.123.1231 7.26 7.26 0 0 1-3.0088 1.7402c-.1187.0339-.244.067-.3736.1026-.5694.1562-1.2268.338-1.8178.6137a5 5 0 0 0-.3677.1905 5 5 0 0 0-.3677-.1905c-.5909-.2757-1.2483-.4575-1.8178-.6137-.1295-.0356-.255-.0687-.3736-.1026a7.26 7.26 0 0 1-3.0102-1.7402 1.2 1.2 0 0 0-.123-.1231 7.26 7.26 0 0 1-.6651-.769 7.26 7.26 0 0 1-1.44-4.3916v-.0029c.0002-2.2604 1.0114-4.432 2.603-5.7862.3702.1014.6968.0386.9698-.1303.294-.182.5083-.4752.6621-.7603.1553-.288.2604-.5903.3267-.8174a5 5 0 0 0 .0908-.3618l.0058-.0293v-.003a.24.24 0 0 0-.0659-.2123.241.241 0 0 0-.2139-.066h-.0029l-.0058.0015c-.0054.001-.0138.0024-.0235.0044a4 4 0 0 0-.0805.0176c-.069.016-.1667.041-.2813.0747-.2277.067-.5316.1736-.8203.3296-.2852.1543-.5788.3686-.7603.6621-.1647.2668-.2275.5847-.1333.9434a7.3 7.3 0 0 0-.7412.7324 2.63 2.63 0 0 0-.0864-.4102c-.0939-.3126-.2335-.6-.3472-.8071a5 5 0 0 0-.1464-.2505c-.0187-.0296-.0347-.0526-.0455-.0688-.0052-.008-.0087-.0146-.0117-.019l-.0044-.006-.0014-.0029-.0381-.0424a.24.24 0 0 0-.1597-.0601.24.24 0 0 0-.1582.06l-.038.0425-.0015.003-.0044.0058c-.0031.0045-.008.0111-.0132.019a5.0101 5.0101 0 0 0-.1904.3193c-.1137.2071-.2534.4945-.3472.8072-.0928.3094-.1482.6669-.0689 1.002.08.3377.2934.6293.6826.8159a8.34 8.34 0 0 0-.5507 1.232c-.085-.174-.1942-.335-.3106-.4761-.2082-.2527-.4487-.465-.6343-.6124a5 5 0 0 0-.2314-.1743c-.0287-.0201-.0525-.036-.0689-.0468-.008-.0054-.0144-.0102-.019-.0132l-.0088-.0044-.0527-.025a.24.24 0 0 0-.17.006.24.24 0 0 0-.123.1171l-.0176.0542-.0014.003-.0059.0293c-.0036.0193-.0075.0471-.0132.082a5 5 0 0 0-.038.2871c-.0245.2355-.0423.5563-.0074.8818.0345.3218.1222.6737.3252.9522.2116.2902.536.4807.9903.4907a8.2 8.2 0 0 0-.0923 1.21v.0234c-.2343-.2135-.539-.3427-.8262-.4233-.3146-.0884-.6328-.1258-.8687-.1407a5 5 0 0 0-.2885-.0088H1.626l-.0015.0015a.243.243 0 0 0-.1948.1113.24.24 0 0 0-.0176.2212l.0015.003.0014.0058c.0022.0049.0063.0117.0103.0205.008.0179.02.0443.0352.0762.0303.0636.0746.1525.1318.2563.114.2069.2826.4798.4966.7266.2115.2439.4834.4822.8086.5947.294.1018.6147.0927.9419-.0747a7.7 7.7 0 0 0 .2754 1.0928c-.2513-.0801-.5221-.097-.7706-.085-.326.0158-.6387.0818-.8671.1421-.115.0305-.2113.06-.2784.0821-.0332.0109-.0592.0212-.0776.0278-.009.0032-.0169.0054-.022.0073l-.0058.003h-.003a.2404.2404 0 0 0-.0952.3837l.0015.0015.0044.0059c.0036.004.0095.0089.016.0161.0134.0145.0328.036.0572.0615.049.0508.1194.1218.2066.2021.1738.1602.4206.364.7016.5303.2779.1644.611.3053.9551.3091.281.003.5541-.087.794-.2974.1578.278.3331.5474.5258.8057a8 8 0 0 0 .1597.2051c-.201.0061-.4003.0417-.583.0937-.3142.0895-.6043.2247-.813.3355a5 5 0 0 0-.2505.1421 3 3 0 0 0-.0908.0571l-.0044.0029-.0015.0015a.242.242 0 0 0-.107.1963.241.241 0 0 0 .1012.1992l.0014.0015.0059.0044c.0044.003.0111.0078.019.0131a3 3 0 0 0 .0689.0455c.0594.0384.1453.0907.249.1494.2061.1165.4923.2607.8042.3589.3084.097.666.158 1.002.0835.2937-.0654.553-.2334.7412-.5289a7.74 7.74 0 0 0 2.7495 1.4458c.1285.0367.2612.073.3955.1099.5676.156 1.1754.3233 1.7256.5801.0392.0183.0774.038.1157.0571-.3857.3004-.7062.6845-.895 1.188a.239.239 0 0 0 .1391.3076.24.24 0 0 0 .3091-.1391c.1747-.4657.4947-.8162.9009-1.0928.4062.2766.7262.627.9009 1.0928a.24.24 0 0 0 .3091.1391.239.239 0 0 0 .1391-.3076c-.189-.504-.5104-.8875-.8965-1.188a5 5 0 0 1 .1172-.0571c.5501-.2568 1.158-.4241 1.7256-.5801.1343-.0369.2685-.0746.397-.1113a7.74 7.74 0 0 0 2.748-1.4444c.1897.296.4513.4633.7456.5289.336.0745.6926.0133 1.0005-.0835.3115-.0981.5972-.2411.8028-.3575a5 5 0 0 0 .3164-.1948l.019-.0132.0059-.0044.0029-.0014a.241.241 0 0 0 .0996-.1993.239.239 0 0 0-.1055-.1948l-.0029-.0014-.0044-.0044c-.0044-.0029-.0111-.0067-.019-.0118-.0165-.0106-.0403-.0271-.0703-.0454a5.3 5.3 0 0 0-.252-.1421c-.2087-.1109-.4988-.2471-.813-.3369-.1831-.0522-.3829-.0876-.5845-.0937.0543-.0678.1091-.1353.1612-.2051a7.8 7.8 0 0 0 .5244-.8057c.24.2109.5141.3004.7954.2974.344-.0038.6772-.1447.9551-.3091.281-.1663.5278-.3701.7016-.5303a5 5 0 0 0 .2066-.2021c.0245-.0255.0438-.047.0571-.0615.0066-.0072.0125-.0121.0161-.0161l.0044-.0059.0015-.0015a.2407.2407 0 0 0-.0952-.3837h-.003l-.0058-.003c-.0051-.0019-.0129-.0041-.022-.0073-.0184-.0066-.0444-.0169-.0776-.0278a5 5 0 0 0-.2769-.0821c-.2285-.0604-.5422-.1263-.8686-.1421-.2489-.012-.5204.0045-.772.085a7.75 7.75 0 0 0 .2754-1.0928c.3278.1683.6487.1766.9433.0747.3256-.1125.5986-.3505.8101-.5947.2137-.2469.3812-.5196.4951-.7266a5 5 0 0 0 .1319-.2563 4 4 0 0 0 .0351-.0762l.0088-.0205.0044-.0088a.2394.2394 0 0 0-.2109-.3325l-.003-.0015h-.1128a5 5 0 0 0-.2885.0088c-.2358.0149-.5541.0523-.8687.1407-.2874.0806-.5932.2094-.8276.4233-.0001-.0078.0015-.0156.0014-.0234 0-.4072-.0341-.8116-.0937-1.21.4549-.0097.78-.2002.9917-.4907.203-.2785.2892-.6305.3237-.9522.0349-.3255.0186-.6463-.0058-.8818a5 5 0 0 0-.0381-.2871 3 3 0 0 0-.0191-.104v-.0073l-.0014-.003-.0191-.0542a.24.24 0 0 0-.123-.1172.24.24 0 0 0-.1685-.0058l-.0527.0249-.0088.0044c-.0046.003-.0109.0078-.0191.0132-.0163.0109-.0399.0266-.0688.0468a5 5 0 0 0-.2314.1743c-.1856.1474-.4261.3596-.6343.6124-.1166.1413-.2269.3019-.312.476a8.34 8.34 0 0 0-.5508-1.2319c.3899-.1866.604-.4779.6841-.816.0793-.335.0239-.6926-.0689-1.0019-.0938-.3127-.2335-.6-.3472-.8071a5 5 0 0 0-.1464-.2505c-.0185-.0292-.0332-.0526-.044-.0688-.0052-.008-.0101-.0146-.0132-.019l-.0044-.006-.0014-.0029-.0381-.0424a.24.24 0 0 0-.1597-.0601.24.24 0 0 0-.1582.06l-.0381.0425-.0014.003-.0044.0058c-.0031.0045-.008.0111-.0132.019a4.989 4.989 0 0 0-.1904.3193c-.1137.2071-.2534.4945-.3472.8072a2.6 2.6 0 0 0-.0879.4102 7.3 7.3 0 0 0-.7412-.7324c.0944-.3588.033-.6765-.1318-.9434-.1816-.2938-.4763-.5078-.7618-.6621-.2886-.156-.5912-.2627-.8188-.3296a5 5 0 0 0-.2813-.0747 4 4 0 0 0-.0805-.0176c-.0097-.002-.0181-.0033-.0235-.0044l-.0058-.0014zM12 6.3222a2.49 2.49 0 0 0-1.7607.7296 2.49 2.49 0 0 0-.7295 1.7607v1.4473h-.6973a.2403.2403 0 0 0-.2402.2402v6c0 .1325.1077.2402.2402.2402h6.375a.2404.2404 0 0 0 .2402-.2402v-6a.2404.2404 0 0 0-.2402-.2402h-.6973V8.8125A2.4904 2.4904 0 0 0 12 6.3223" clip-rule="evenodd"/><path fill="currentColor" fill-rule="evenodd" d="M12 0c6.6274 0 12 5.3726 12 12s-5.3726 12-12 12S0 18.6274 0 12 5.3726 0 12 0m0 .1348C5.4472.1348.1348 5.4472.1348 12c0 6.5529 5.3124 11.8652 11.8652 11.8652S23.8652 18.5528 23.8652 12 18.5528.1348 12 .1348" clip-rule="evenodd"/></svg>