<svg xmlns="http://www.w3.org/2000/svg" fill="none" viewBox="0 0 16 16"><g fill="currentColor" clip-path="url(#e8--16-a)"><path d="M3.814 11.631c.118.03.225.098.304.242-.082.141-.189.206-.308.233-.145.032-.322.008-.503-.049-.171-.054-.333-.133-.458-.202.126-.066.29-.14.462-.189.182-.052.358-.071.503-.034M12.187 11.631c.145-.036.321-.018.503.034.172.049.337.125.463.191-.124.069-.286.148-.457.202-.181.057-.356.08-.502.048-.119-.026-.228-.092-.311-.233.079-.143.186-.211.304-.241M2.245 9.958c.189-.009.365.013.497.081.108.056.197.146.241.304-.113.118-.233.158-.354.156-.149-.002-.315-.064-.478-.161-.154-.091-.293-.205-.398-.301.138-.035.315-.07.493-.079M13.755 9.958c.179.009.356.044.493.079-.105.096-.244.21-.398.301-.163.097-.329.16-.478.161-.122.001-.242-.038-.354-.156.044-.157.133-.248.241-.304.133-.068.308-.09.497-.081M1.352 7.998c.142.01.32.032.492.08.183.051.342.128.446.234.085.087.141.202.133.365-.144.077-.272.075-.387.035-.141-.049-.278-.16-.402-.304-.117-.135-.213-.287-.282-.411M14.649 7.998c-.069.124-.166.277-.283.412-.124.143-.261.255-.402.304-.115.04-.242.041-.387-.036-.008-.164.048-.278.133-.365.104-.107.263-.183.445-.234.172-.048.352-.07.494-.08M1.987 5.732c.111.089.245.211.359.35.121.147.209.301.233.448.02.12 0 .246-.101.376-.162-.019-.266-.093-.338-.191-.088-.121-.137-.291-.157-.48-.019-.179-.011-.36.003-.502M14.013 5.732c.014.142.022.323.003.502-.02.189-.069.36-.157.48-.072.099-.175.172-.338.191-.1-.13-.121-.256-.101-.376.025-.147.112-.301.233-.448.114-.138.248-.26.359-.35M3.261 3.796c.068.125.145.288.196.459.055.182.075.358.041.503-.028.118-.095.226-.237.307-.142-.081-.208-.188-.236-.307-.034-.145-.013-.321.041-.503.051-.171.128-.334.195-.459M12.738 3.796c.068.125.145.288.196.459.055.182.075.358.041.503-.028.118-.095.226-.237.307-.142-.081-.208-.188-.236-.307-.034-.145-.014-.321.041-.503.051-.171.128-.334.195-.459M5.53 2.971c-.041.136-.102.305-.187.463-.09.167-.201.307-.329.387-.105.065-.23.095-.389.053-.043-.157-.014-.282.051-.386.079-.128.219-.237.387-.328.159-.086.33-.147.467-.188M10.47 2.971c.137.041.308.103.467.189.168.091.308.201.387.328.064.104.094.228.051.386-.159.042-.284.012-.389-.053-.128-.079-.239-.219-.329-.387-.085-.157-.146-.327-.186-.463M8 8.535a.465.465 0 1 1 0 .93.465.465 0 0 1 0-.93"/><path fill-rule="evenodd" d="M9.9648 7.1602v3.6796H6.0352V7.1602zM8 8.2148a.7853.7853 0 0 0 0 1.5704A.7854.7854 0 0 0 8.7852 9 .7854.7854 0 0 0 8 8.2148" clip-rule="evenodd"/><path d="M8 4.5352A1.3398 1.3398 0 0 1 9.3398 5.875v.9648H6.6602V5.875c0-.3554.1412-.696.3925-.9473A1.34 1.34 0 0 1 8 4.5352"/><path fill-rule="evenodd" d="M8 .4102c4.1918 0 7.5898 3.398 7.5898 7.5898S12.1918 15.5898 8 15.5898.4102 12.1918.4102 8 3.8082.4102 8 .4102m2.2793 2.1826a.161.161 0 0 0-.1426.044.16.16 0 0 0-.0439.1415v.002l.0039.0195a3.3334 3.3334 0 0 0 .0605.2412c.0442.1514.1142.353.2178.545.1025.19.2453.3854.4414.5068.1817.1124.3991.154.6455.0869 1.0615.9028 1.7372 2.3503 1.7373 3.8574v.002a4.84 4.84 0 0 1-.9609 2.9277 4.85 4.85 0 0 1-.4444.5127.8.8 0 0 0-.082.082 4.84 4.84 0 0 1-2.0059 1.1602c-.079.0226-.1626.0446-.249.0683-.3796.1042-.8179.2254-1.2119.4092a3.3 3.3 0 0 0-.2451.127 3.3 3.3 0 0 0-.2451-.127c-.394-.1838-.8323-.305-1.212-.4092-.0862-.0236-.1699-.0457-.249-.0683a4.84 4.84 0 0 1-2.0068-1.1602.8.8 0 0 0-.082-.082 4.8 4.8 0 0 1-.4434-.5127 4.84 4.84 0 0 1-.96-2.9277v-.002c.0002-1.5069.6743-2.9546 1.7354-3.8574.2468.0675.4645.0257.6465-.087.196-.1213.3388-.3167.4414-.5068.1036-.192.1736-.3935.2178-.5449a3.3 3.3 0 0 0 .0605-.2412l.004-.0195v-.002a.16.16 0 0 0-.044-.1416.161.161 0 0 0-.1426-.044h-.002l-.0039.001c-.0035.0008-.0091.0016-.0156.003a2 2 0 0 0-.0537.0117 3.4 3.4 0 0 0-.1875.0498c-.1518.0446-.3544.1157-.5469.2197-.1901.1029-.3858.2458-.5068.4414-.1099.178-.1517.3899-.0889.629-.175.15-.3405.3127-.4941.4882a1.76 1.76 0 0 0-.0576-.2734c-.0626-.2085-.1557-.4-.2315-.5381a3.3 3.3 0 0 0-.0976-.167c-.0125-.0197-.0231-.035-.0303-.0459-.0035-.0052-.0058-.0097-.0078-.0127l-.003-.0039-.001-.002-.0253-.0283a.16.16 0 0 0-.1065-.04.16.16 0 0 0-.1054.04l-.0254.0283-.001.002-.003.004c-.002.003-.0052.0073-.0087.0126a3.334 3.334 0 0 0-.127.2129c-.0757.138-.1688.3296-.2314.538-.0619.2063-.0988.4446-.046.668.0534.2252.1957.4196.4552.544a5.56 5.56 0 0 0-.3672.8213 1.63 1.63 0 0 0-.207-.3174c-.1389-.1684-.2992-.31-.4229-.4082a3.4 3.4 0 0 0-.1543-.1162c-.0192-.0134-.035-.024-.0459-.0313-.0053-.0035-.0097-.0068-.0127-.0088l-.0058-.0029-.0352-.0166a.16.16 0 0 0-.1133.004.16.16 0 0 0-.082.078l-.0117.0362-.001.002-.004.0195c-.0024.0129-.005.0314-.0087.0547a3.3 3.3 0 0 0-.0254.1914c-.0163.157-.0282.3708-.0049.5879.023.2145.0815.449.2168.6347.141.1935.3573.3205.6602.3272a5.46 5.46 0 0 0-.0615.8066v.0156c-.1563-.1423-.3594-.2284-.5508-.2822-.2098-.0589-.422-.0838-.5791-.0937a3 3 0 0 0-.1924-.0059H1.084l-.001.001a.162.162 0 0 0-.1299.0742.16.16 0 0 0-.0117.1475l.001.002.001.0038c.0014.0033.0042.0078.0068.0137a3 3 0 0 0 .0234.0508 3.3 3.3 0 0 0 .088.1709c.076.1379.1883.3198.331.4843.141.1626.3223.3215.539.3965.1961.0679.4098.0618.628-.0498.0434.2473.1048.4908.1836.7285-.1675-.0534-.3481-.0646-.5137-.0566-.2173.0105-.4259.0545-.5781.0947a3.3 3.3 0 0 0-.1856.0547c-.0221.0073-.0394.0142-.0517.0186-.006.0021-.0113.0036-.0147.0048l-.0039.002h-.002a.1604.1604 0 0 0-.0635.2559l.001.0009.003.0039c.0024.0027.0063.006.0107.0108.0089.0096.0218.024.0381.041a3.3 3.3 0 0 0 .1377.1348c.1159.1067.2804.2426.4678.3535.1852.1096.4073.2035.6367.206.1873.0021.3694-.058.5293-.1982.1052.1853.2221.3649.3506.5371a5 5 0 0 0 .1064.1367 1.6 1.6 0 0 0-.3886.0625c-.2095.0597-.403.1498-.542.2237a3.3 3.3 0 0 0-.167.0947 2 2 0 0 0-.0606.0381l-.0029.0019-.001.001a.161.161 0 0 0-.0713.1309.16.16 0 0 0 .0674.1328l.001.0009.0039.003.0127.0088a3.2436 3.2436 0 0 0 .212.1298c.1373.0777.3281.1739.536.2393.2056.0647.444.1054.668.0557.1958-.0436.3687-.1556.4942-.3526a5.16 5.16 0 0 0 1.833.9639c.0856.0245.1741.0486.2636.0732.3784.1041.7837.2156 1.1504.3868.0262.0122.0516.0253.0772.038-.2571.2003-.4708.4564-.5967.792a.1594.1594 0 0 0 .0928.2051.16.16 0 0 0 .206-.0928c.1164-.3104.3298-.544.6006-.7285.2708.1845.4841.4181.6006.7285a.16.16 0 0 0 .206.0928.1593.1593 0 0 0 .0928-.2051c-.126-.3359-.3402-.5917-.5976-.792q.0386-.0194.078-.038c.3668-.1712.772-.2827 1.1505-.3868.0895-.0246.179-.0497.2646-.0742a5.16 5.16 0 0 0 1.8321-.9629c.1264.1973.3008.3089.497.3526.224.0497.4617.0089.667-.0557.2077-.0653.3981-.1607.5352-.2383a3.3 3.3 0 0 0 .2109-.1299l.0127-.0087.0039-.003.002-.001a.16.16 0 0 0 .0664-.1328.16.16 0 0 0-.0703-.1298l-.002-.001-.0029-.003q-.0046-.0028-.0127-.0078c-.011-.0071-.0269-.018-.0469-.0302a3.3 3.3 0 0 0-.168-.0948c-.1391-.0739-.3325-.1648-.542-.2246a1.62 1.62 0 0 0-.3896-.0625c.0362-.0452.0727-.0902.1074-.1367a5.2 5.2 0 0 0 .3496-.5371c.1601.1406.3428.2003.5303.1982.2294-.0025.4515-.0964.6367-.206.1874-.1109.3519-.2468.4678-.3535a3.3 3.3 0 0 0 .1377-.1348c.0163-.017.0292-.0314.0381-.041.0044-.0048.0083-.0081.0107-.0108l.0029-.0039.001-.0009a.1604.1604 0 0 0-.0635-.2559h-.0019l-.0039-.002c-.0034-.0012-.0086-.0027-.0147-.0048-.0123-.0044-.0296-.0113-.0517-.0186a3.3 3.3 0 0 0-.1846-.0547c-.1523-.0403-.3615-.0842-.5791-.0947-.1659-.008-.3469.003-.5146.0566a5.2 5.2 0 0 0 .1836-.7285c.2185.1122.4325.1177.6289.0498.217-.075.399-.2336.54-.3965.1425-.1646.2542-.3464.3301-.4843a3.4 3.4 0 0 0 .0879-.171c.0101-.0212.018-.0387.0234-.0507l.0059-.0137.0029-.0058a.161.161 0 0 0-.0127-.1485.16.16 0 0 0-.1279-.0732l-.002-.001h-.0752a3 3 0 0 0-.1924.0059c-.1572.0099-.3694.0348-.5791.0937-.1916.0538-.3954.1396-.5517.2822 0-.0052.001-.0104.001-.0156a5.5 5.5 0 0 0-.0625-.8066c.3033-.0065.5199-.1335.6611-.3272.1353-.1856.1928-.4203.2158-.6347.0233-.217.0124-.431-.0039-.588a3.2 3.2 0 0 0-.0254-.1913 2 2 0 0 0-.0098-.0547q-.0017-.0093-.0029-.0147V5.415l-.001-.002-.0127-.036a.1592.1592 0 0 0-.1943-.082l-.0351.0165-.0059.003-.0127.0087c-.0109.0073-.0267.0178-.0459.0313a3.4 3.4 0 0 0-.1543.1162c-.1237.0983-.284.2397-.4229.4082-.0776.0943-.1512.2013-.208.3174a5.55 5.55 0 0 0-.3671-.8213c.2599-.1244.4026-.3186.456-.544.0529-.2233.016-.4617-.0459-.668-.0625-.2084-.1557-.4-.2314-.538a3.4 3.4 0 0 0-.0977-.167q-.0185-.0294-.0293-.0459-.0055-.008-.0088-.0127l-.0029-.0039-.001-.002-.0254-.0283a.1598.1598 0 0 0-.2119 0l-.0254.0283-.001.002-.0029.004c-.002.003-.0053.0073-.0088.0126q-.0108.0164-.0293.046a3.4 3.4 0 0 0-.0976.1669c-.0758.138-.1689.3296-.2315.538a1.76 1.76 0 0 0-.0586.2735 4.9 4.9 0 0 0-.4941-.4883c.0629-.2391.022-.451-.0879-.6289-.1211-.1958-.3175-.3385-.5078-.4414-.1924-.104-.3941-.175-.5459-.2197a3.4 3.4 0 0 0-.1875-.0498 2 2 0 0 0-.0537-.0117c-.0065-.0013-.0121-.0022-.0156-.003l-.004-.001zM8 4.2148A1.66 1.66 0 0 0 6.3398 5.875v.9648H5.875A.1603.1603 0 0 0 5.7148 7v4c.0001.0883.0719.1602.1602.1602h4.25A.1606.1606 0 0 0 10.2852 11V7a.1603.1603 0 0 0-.1602-.1602h-.4648V5.875A1.6604 1.6604 0 0 0 8 4.2148" clip-rule="evenodd"/><path fill-rule="evenodd" d="M8 0c4.4183 0 8 3.5817 8 8s-3.5817 8-8 8-8-3.5817-8-8 3.5817-8 8-8m0 .0898C3.6314.0898.0898 3.6314.0898 8S3.6315 15.9102 8 15.9102c4.3685-.0001 7.9101-3.5416 7.9102-7.9102S12.3685.0899 8 .0898" clip-rule="evenodd"/></g><defs><clipPath id="e8--16-a"><path fill="#fff" d="M0 0h16v16H0z"/></clipPath></defs></svg>