<svg xmlns="http://www.w3.org/2000/svg" fill="none" viewBox="0 0 16 16"><path fill="currentColor" fill-rule="evenodd" d="M0 1c0-.5523.4477-1 1-1h12c.5523 0 1 .4477 1 1v5.3815l-1.2841-.3525a.817.817 0 0 0-.4318 0L12 6.107V3.8685L7 7.202 2 3.8685V10h5v2H1c-.5523 0-1-.4477-1-1zm2.8028 1L7 4.7981 11.1972 2z" clip-rule="evenodd"/><path fill="currentColor" fill-rule="evenodd" d="M16 13.2635q0 1.4908-3.3295 2.7064a.497.497 0 0 1-.341-.0001Q9 14.7543 9 13.2635V9.3658c0-.2246.148-.422.3626-.4838l3-.8626a.497.497 0 0 1 .2748 0l3 .8626A.503.503 0 0 1 16 9.3658zm-2.6036-2.3671L12.25 12.0429l-.6464-.6465a.5.5 0 0 0-.7072 0 .5.5 0 0 0 0 .7072l1 1a.5.5 0 0 0 .7072 0l1.5-1.5a.5.5 0 0 0 0-.7072.5.5 0 0 0-.7072 0" clip-rule="evenodd"/></svg>