<svg xmlns="http://www.w3.org/2000/svg" fill="none" viewBox="0 0 24 24"><path fill="currentColor" fill-rule="evenodd" d="M18.4794 12.0263a.69.69 0 0 1 .3741 0l4.663 1.1504a.67.67 0 0 1 .4834.6446v6.5302c-.0004 1.325-2.1473 2.5281-5.1064 3.6084a.66.66 0 0 1-.4531 0c-2.9592-1.0803-5.107-2.2834-5.1074-3.6084v-6.5302a.6706.6706 0 0 1 .4834-.6446zm3.334 3.3975c-.3181-.2649-.7915-.2222-1.0566.0957l-2.8721 3.4453-1.1611-.8926c-.3282-.2521-.7992-.1911-1.0518.1367-.2522.3282-.1902.7993.1377 1.0518l1.7334 1.334a.751.751 0 0 0 1.0332-.1143l3.333-4c.2649-.3181.2222-.7915-.0957-1.0566" clip-rule="evenodd"/><path fill="currentColor" fill-rule="evenodd" d="M20.4999 2c.8285 0 1.5.6716 1.5 1.5V10c0 .5523-.4477 1-1 1-.5521-.0002-1-.4478-1-1V8.539l-7.1874 3.1944a2.001 2.001 0 0 1-1.625 0L4 8.539V16h5.5c.5523 0 1 .4477 1 1s-.4477 1-1 1h-6c-.8283-.0002-1.5-.6717-1.5-1.5v-13C2 2.6717 2.6717 2 3.5 2zm-16.5 2v2.3506L12 9.9053l7.9999-3.5547V4z" clip-rule="evenodd"/></svg>