<svg xmlns="http://www.w3.org/2000/svg" fill="none" viewBox="0 0 16 16"><g clip-path="url(#emergency--16-a)"><path fill="#ea3939" d="M7.1142.367c.4892-.4893 1.2824-.4893 1.7716 0l6.7473 6.7472c.4892.4892.4892 1.2824 0 1.7716l-6.7473 6.7473c-.4892.4892-1.2824.4892-1.7716 0L.3669 8.8858c-.4892-.4892-.4892-1.2824 0-1.7716z"/><path stroke="#243143" stroke-opacity=".1" d="M7.4678.7207a.7526.7526 0 0 1 1.0644 0l6.7471 6.747a.7526.7526 0 0 1 0 1.0645l-6.747 6.7471a.7526.7526 0 0 1-1.0645 0L.7207 8.5323a.7526.7526 0 0 1 0-1.0645z"/><path fill="#fff" d="M8 4c-.552 0-1 .448-1 1v2.5c0 .552.448 1 1 1s1-.448 1-1V5c0-.552-.448-1-1-1M8 12c.552 0 1-.448 1-1s-.448-1-1-1-1 .448-1 1 .448 1 1 1"/></g><defs><clipPath id="emergency--16-a"><path fill="#fff" d="M0 0h16v16H0z"/></clipPath></defs></svg>