<svg xmlns="http://www.w3.org/2000/svg" fill="none" viewBox="0 0 32 32"><path fill="currentColor" fill-rule="evenodd" d="M7 13c0-4.9706 4.0294-9 9-9s9 4.0294 9 9c0 3.4661-1.9777 6.5648-5 8.0645V25h-8v-3.9355C8.9777 19.5648 7 16.4661 7 13m11 6.7445.6248-.253C21.2474 18.4299 23 15.8778 23 13c0-3.866-3.134-7-7-7s-7 3.134-7 7c0 2.8778 1.7526 5.4299 4.3752 6.4915l.6248.253V23h4z" clip-rule="evenodd"/><path fill="currentColor" d="M2.51 6.366 6.011 8.388a11 11 0 0 1 1.002-1.731L3.51 4.634zM5.045 14H1v-2h4.045A11.1 11.1 0 0 0 5 13q0 .506.045 1M12 29v-2h8v2zM24.988 6.656l3.503-2.022 1 1.732-3.501 2.022a11 11 0 0 0-1.001-1.731M31 12h-4.045a11.17 11.17 0 0 1 0 2H31zM25.989 17.613l3.501 2.022-1 1.732-3.503-2.022a11 11 0 0 0 1.002-1.731M3.51 21.366l3.503-2.022a11 11 0 0 1-1.001-1.731L2.51 19.634z"/></svg>