<svg xmlns="http://www.w3.org/2000/svg" fill="none" viewBox="0 0 32 32"><path fill="currentColor" d="M19 3c0 1.657-1.343 3-3 3s-3-1.343-3-3 1.343-3 3-3 3 1.343 3 3M1 17c0 .962.091 1.903.264 2.815a4.97 4.97 0 0 1 1.9-.745A13.1 13.1 0 0 1 3 17c0-5.543 3.469-10.276 8.355-12.146A4.99 4.99 0 0 1 11 3q0-.074.002-.147C5.175 4.911 1 10.468 1 17M21 3a4.99 4.99 0 0 1-.355 1.854C25.531 6.724 29 11.457 29 17c0 .704-.056 1.396-.164 2.07a4.97 4.97 0 0 1 1.9.745C30.909 18.903 31 17.962 31 17c0-6.532-4.175-12.089-10.002-14.147Q21 2.926 21 3M16 32c3.699 0 7.086-1.339 9.701-3.559a5.02 5.02 0 0 1-1.581-1.288C21.895 28.935 19.072 30 16 30s-5.895-1.065-8.119-2.847a5.02 5.02 0 0 1-1.581 1.288C8.915 30.661 12.301 32 16 32M31 24c0 1.657-1.343 3-3 3s-3-1.343-3-3 1.343-3 3-3 3 1.343 3 3M7 24c0 1.657-1.343 3-3 3s-3-1.343-3-3 1.343-3 3-3 3 1.343 3 3"/><path fill="currentColor" fill-rule="evenodd" d="M17 9.0002c0-.6086-.539-1.076-1.1414-.99l-7 1a1 1 0 0 0-.8586.99v12a1 1 0 0 0 .8586.9899l7 1c.6024.0861 1.1414-.3814 1.1414-.9899zM10.5 19h3.9892v-1.3125h-2.4824v-1.0313h2.2872v-1.3124h-2.2872v-1.0313H14.5V13h-4z" clip-rule="evenodd"/><path fill="currentColor" d="M18 13v6l5.854-5.854A.5.5 0 0 0 24 12.793V10.5a.5.5 0 0 0-.5-.5h-2.293a.5.5 0 0 0-.353.146zM21.707 16.707l-3 3 2.146 2.147a.5.5 0 0 0 .354.146H23.5a.5.5 0 0 0 .5-.5v-2.293a.5.5 0 0 0-.146-.353z"/></svg>