<svg xmlns="http://www.w3.org/2000/svg" fill="none" viewBox="0 0 16 16"><path fill="currentColor" fill-rule="evenodd" d="M3.3753 4.2192c-.4312.345-.5011.9743-.1561 1.4055L4.7194 8l-1.5002 2.3753c-.345.4313-.2751 1.0606.1561 1.4056s1.0606.2751 1.4056-.1562l2-3a1 1 0 0 0 0-1.2494l-2-3c-.345-.4312-.9743-.5011-1.4056-.1561m6 0c-.4312.345-.5011.9743-.1561 1.4055L10.7194 8l-1.5002 2.3753c-.345.4313-.2751 1.0606.1561 1.4056s1.0606.2751 1.4056-.1562l2-3a1 1 0 0 0 0-1.2494l-2-3c-.345-.4312-.9743-.5011-1.4056-.1561" clip-rule="evenodd"/></svg>