<svg xmlns="http://www.w3.org/2000/svg" fill="none" viewBox="0 0 24 24"><path fill="currentColor" d="M18 4h3c.5523 0 1 .4477 1 1v14c0 .5523-.4477 1-1 1h-3v1c0 .5523-.4477 1-1 1H3c-.5523 0-1-.4477-1-1V3c0-.5523.4477-1 1-1h14c.5523 0 1 .4477 1 1zm-2 1V4H4v16h12zm2.0003 1 .0031 12H20V6zM7 7h3c.5523 0 1 .4477 1 1s-.4477 1-1 1H7c-.5523 0-1-.4477-1-1s.4477-1 1-1m0 4h6c.5523 0 1 .4477 1 1s-.4477 1-1 1H7c-.5523 0-1-.4477-1-1s.4477-1 1-1m0 3h2c.5523 0 1 .4477 1 1s-.4477 1-1 1H7c-.5523 0-1-.4477-1-1s.4477-1 1-1"/></svg>