<svg xmlns="http://www.w3.org/2000/svg" fill="none" viewBox="0 0 32 32"><path fill="currentColor" d="M14.8417 19.7647h.6059q.8496 0 1.2713-.3092t.4218-.9001q0-.5964-.3535-.881t-1.1079-.2845h-.8376z"/><path fill="currentColor" fill-rule="evenodd" d="M16 3c.5523 0 1 .4477 1 1v7c0 .5523.4477 1 1 1h7c.5523 0 1 .4477 1 1v15c0 .5523-.4477 1-1 1H7c-.5523 0-1-.4477-1-1V4c0-.5523.4477-1 1-1zm-1.1584 21v-2.8454h.7901q1.6158 0 2.4921-.684.8762-.684.8762-1.9754 0-1.2421-.8228-1.8687Q17.3544 16 15.7743 16H13v8z" clip-rule="evenodd"/><path fill="currentColor" d="M20 10c-.5523 0-1-.4477-1-1V4.2071c0-.4454.5386-.6685.8536-.3535l5.2928 5.2928c.315.315.0919.8536-.3535.8536z"/></svg>