<svg xmlns="http://www.w3.org/2000/svg" fill="none" viewBox="0 0 32 32"><path fill="currentColor" fill-rule="evenodd" d="M16 3c.5523 0 1 .4477 1 1v7c0 .5523.4477 1 1 1h7c.5523 0 1 .4477 1 1v15c0 .5523-.4477 1-1 1H7c-.5523 0-1-.4477-1-1V4c0-.5523.4477-1 1-1zm-1.2813 13.2555c-.4235.1285-.7153.5289-.7187.9849v4.7441a1.45 1.45 0 0 0-.5-.0883c-.8284 0-1.5.6948-1.5 1.5519S12.6716 25 13.5 25s1.5-.6948 1.5-1.5519v-5.2086l4-1.2131v3.9235a1.45 1.45 0 0 0-.5-.0884c-.8284 0-1.5.6949-1.5 1.552s.6716 1.5519 1.5 1.5519 1.5-.6948 1.5-1.5519v-6.3782c0-.6904-.641-1.1871-1.2813-.9929z" clip-rule="evenodd"/><path fill="currentColor" d="M20 10c-.5523 0-1-.4477-1-1V4.2071c0-.4454.5386-.6685.8536-.3535l5.2928 5.2928c.315.315.0919.8536-.3535.8536z"/></svg>