<svg xmlns="http://www.w3.org/2000/svg" fill="none" viewBox="0 0 16 16"><path fill="currentColor" fill-rule="evenodd" d="M2 0c-.5523 0-1 .4477-1 1v14c0 .5523.4477 1 1 1h12c.5523 0 1-.4477 1-1V1c0-.5523-.4477-1-1-1zm5.4848 7.8857L6.4267 12H4.536L2.5326 4.1475h1.6382l1.0044 4.286q.2632 1.187.3813 2.0572.0323-.306.1478-.948.1154-.6418.2175-.9963l1.144-4.399h1.5737l1.144 4.399q.0753.2954.188.9023.113.607.172 1.042.0537-.419.1718-1.0447t.2149-1.0124l.999-4.2861h1.6382L11.1693 12h-1.896L8.21 7.875q-.0517-.1928-.1672-.7452l-.0343-.1652q-.1422-.6902-.1638-.9265-.0322.29-.1611.9319-.129.6418-.1987.9157" clip-rule="evenodd"/></svg>