<svg xmlns="http://www.w3.org/2000/svg" fill="none" viewBox="0 0 16 16"><path fill="currentColor" d="M7.375 4.25c-.844 0-.102 1.136.091 1.446.15-.355.681-1.446-.091-1.446M7.765 7.72c.263.36.484.652.762.971-.437.113-.829.219-1.276.358.189-.464.353-.866.514-1.328M10.5 9.25c.195.141 1.254.8 1.25.131-.002-.623-.944-.237-1.25-.131M5.689 10.611c-.285.067-1.933.471-1.387 1.081.461.54 1.22-.76 1.387-1.081"/><path fill="currentColor" fill-rule="evenodd" d="M1 1c0-.5523.4477-1 1-1h12c.5523 0 1 .4477 1 1v14c0 .5523-.4477 1-1 1H2c-.5523 0-1-.4477-1-1zm6.3748 1.9998c-.5207 0-.9775.235-1.257.56-.278.325-.41.7181-.41 1.1069 0 .8364.6126 1.5437 1.0295 2.2268-.2688.7875-.5975 1.6757-.9182 2.3825-1.2216.2852-2.8193.7329-2.8193 2.2657 0 .8028.6523 1.4581 1.458 1.4581 1.414 0 2.3026-1.4472 2.7282-2.63.6331-.2069 1.3438-.4081 1.9731-.5663.5425.5075 1.2238 1.1132 2.1738 1.1132 1.0187 0 1.6669-.8125 1.6669-1.5432 0-1.8672-2.0957-1.6673-3.2813-1.1912-.4194-.4719-.9162-1.0913-1.2625-1.6081.3917-.9514.9462-2.0393.2081-2.9688-.268-.3369-.738-.6056-1.2893-.6056" clip-rule="evenodd"/></svg>