<svg xmlns="http://www.w3.org/2000/svg" fill="none" viewBox="0 0 32 32"><path fill="currentColor" d="M15.375 16.25c-.818 0-.147 1.067.072 1.415l.02.031a9 9 0 0 1 .037-.085c.181-.418.591-1.361-.128-1.361M15.765 19.72c.263.36.484.652.762.971-.437.113-.829.219-1.276.358.189-.464.353-.866.514-1.328M19.75 21.381c.004.669-1.055.01-1.25-.131l.073-.026c.36-.129 1.175-.423 1.177.157M13.689 22.611c-.285.067-1.933.471-1.387 1.081.461.54 1.22-.76 1.387-1.081"/><path fill="currentColor" fill-rule="evenodd" d="M16 3c.5523 0 1 .4477 1 1v7c0 .5523.4477 1 1 1h7c.5523 0 1 .4477 1 1v15c0 .5523-.4477 1-1 1H7c-.5523 0-1-.4477-1-1V4c0-.5523.4477-1 1-1zm-.6252 11.9998c-.5207 0-.9775.235-1.2569.56-.2781.325-.41.7181-.41 1.1069 0 .6652.3874 1.2487.7557 1.8034.0948.1427.1883.2836.2737.4234-.2688.7875-.5975 1.6757-.9182 2.3825-1.2216.2852-2.8193.7329-2.8193 2.2657 0 .8028.6523 1.4581 1.4581 1.4581 1.4139 0 2.3024-1.4472 2.7281-2.63.6331-.2069 1.3438-.4081 1.9731-.5663.5425.5075 1.2238 1.1132 2.1738 1.1132 1.0187 0 1.6669-.8125 1.6669-1.5432 0-1.8672-2.0957-1.6673-3.2813-1.1912-.4194-.4719-.9162-1.0913-1.2625-1.6081q.0467-.113.0953-.2281c.376-.8943.7925-1.8847.1128-2.7407-.2681-.3369-.7381-.6056-1.2893-.6056" clip-rule="evenodd"/><path fill="currentColor" d="M20 10c-.5523 0-1-.4477-1-1V4.2071c0-.4454.5386-.6685.8536-.3535l5.2928 5.2928c.315.315.0919.8536-.3535.8536z"/></svg>