<svg xmlns="http://www.w3.org/2000/svg" fill="none" viewBox="0 0 16 16"><path fill="currentColor" fill-rule="evenodd" d="M8.829 3H14c.552 0 1 .448 1 1s-.448 1-1 1H8.829C8.418 6.165 7.306 7 6 7s-2.417-.835-2.829-2H2c-.552 0-1-.448-1-1s.448-1 1-1h1.171C3.583 1.835 4.694 1 6 1s2.418.835 2.829 2M6 5c.552 0 1-.448 1-1s-.448-1-1-1-1 .448-1 1 .448 1 1 1M12.829 11H14c.552 0 1 .448 1 1s-.448 1-1 1h-1.171c-.412 1.165-1.523 2-2.829 2s-2.417-.835-2.829-2H2c-.552 0-1-.448-1-1s.448-1 1-1h5.171C7.583 9.835 8.694 9 10 9s2.418.835 2.829 2M10 13c.552 0 1-.448 1-1s-.448-1-1-1-1 .448-1 1 .448 1 1 1" clip-rule="evenodd"/></svg>