<svg xmlns="http://www.w3.org/2000/svg" fill="none" viewBox="0 0 24 24"><path fill="currentColor" d="M8.129 4.044c.27.482.88.653 1.362.383l2.51-1.409 2.512 1.41c.482.27 1.091.099 1.361-.383.27-.482.099-1.091-.383-1.361l-2.538-1.424c-.575-.349-1.33-.349-1.934.017l-.001.001c-1.52.852-1.52.852-2.506 1.406-.482.27-.653.88-.383 1.361M5.028 6.931l1.435.748c.49.255.68.859.425 1.349s-.859.68-1.349.425L4 8.651v1.851c0 .552-.448 1-1 1s-1-.448-1-1V7.457c0-.668.348-1.289.948-1.652l2.566-1.44c.482-.27 1.091-.099 1.361.383.27.482.099 1.091-.383 1.361-.658.369-.854.479-1.465.822M11 20.4c-.662-.386-1.164-.675-1.511-.869-.482-.27-1.091-.099-1.361.383s-.099 1.091.383 1.362c.496.279 1.338.766 2.52 1.461.592.359 1.347.359 1.951-.007a1280 1280 0 0 1 2.507-1.41c.482-.27.654-.879.384-1.361-.27-.482-.879-.654-1.361-.384q-.52.291-1.511.849V18.498c0-.552-.448-1-1-1s-1 .448-1 1zM4 16.451v-2.945c0-.552-.448-1-1-1s-1 .448-1 1v3.042c0 .668.348 1.289.919 1.635l2.596 1.457c.482.27 1.091.099 1.362-.383.27-.482.099-1.091-.383-1.361l-2.435-1.367zM17.511 17.9c-.482.27-.653.88-.383 1.361.27.482.88.653 1.361.383q.853-.479 2.566-1.446c.597-.361.945-.982.945-1.65v-3.046c0-.552-.448-1-1-1s-1 .448-1 1v2.995a1247 1247 0 0 1-2.489 1.403M18.462 9.452 20 8.651V10.5c0 .552.448 1 1 1s1-.448 1-1V7.457a1.911 1.911 0 0 0-.919-1.635l-.046-.026c-1.205-.675-2.045-1.145-2.546-1.426-.482-.27-1.091-.099-1.361.383-.27.482-.099 1.091.383 1.361q.504.283 1.46.818l-1.433.747c-.49.255-.68.859-.425 1.349s.859.68 1.349.425M12 10.574l2.539-1.327c.489-.256 1.094-.066 1.35.423s.067 1.094-.423 1.35L13 12.308v2.194c0 .552-.448 1-1 1s-1-.448-1-1v-2.194l-2.465-1.289c-.489-.256-.679-.86-.423-1.349s.86-.679 1.35-.423z"/></svg>