<svg xmlns="http://www.w3.org/2000/svg" fill="none" viewBox="0 0 16 16"><g clip-path="url(#floating-ips--16-a)"><path fill="currentColor" fill-rule="evenodd" d="M0 8c0 4.4183 3.5817 8 8 8s8-3.5817 8-8-3.5817-8-8-8-8 3.5817-8 8m10.1506 5.6031A5.99 5.99 0 0 1 8 14c-2.08 0-3.9129-1.0585-4.9893-2.6662 1.783-.7478 3.2034-.1581 5.0082 1.0426.7996.532 1.4976.9409 2.1317 1.2267m2.1446-1.4136C13.35 11.1081 14 9.63 14 8c0-3.3137-2.6863-6-6-6S2 4.6863 2 8c0 .5206.0663 1.0258.191 1.5075C3.16 9.0887 4.0826 8.9406 5 9.021V5h1.5508v4.366c.4068.1425.8171.3247 1.2344.5428V5h1.9765q1.082 0 1.625.4727t.543 1.3437q0 .957-.5645 1.4785t-1.6035.5215h-.4336v1.8945h-.2018q-.0002 0 0 0c1.2982.8637 2.2718 1.3929 3.1689 1.4786m-2.967-4.631h.2812q.3476 0 .5527-.1952.205-.1954.2051-.539 0-.5782-.6406-.5782H9.328z" clip-rule="evenodd"/></g><defs><clipPath id="floating-ips--16-a"><path fill="#fff" d="M0 0h16v16H0z"/></clipPath></defs></svg>