<svg xmlns="http://www.w3.org/2000/svg" fill="none" viewBox="0 0 16 16"><path fill="currentColor" d="M4.472 10.056q-.154-.255-.154-.562 0-.299.154-.55.154-.255.413-.404.259-.154.574-.154.368 0 .683.17a2.63 2.63 0 0 1 .57.412q.121.113.251.263.134.15.218.263a6 6 0 0 1-.194.255q-.113.138-.275.287-.275.255-.582.413-.303.154-.671.154-.315 0-.574-.145a1.15 1.15 0 0 1-.412-.4M11.524 8.944q.154.251.154.55 0 .307-.154.562a1.15 1.15 0 0 1-.412.4q-.255.146-.566.146-.376 0-.683-.158-.307-.158-.574-.408a4 4 0 0 1-.263-.279 4.2 4.2 0 0 1-.206-.263q.061-.073.19-.23.134-.158.279-.295a2.24 2.24 0 0 1 .36-.291q.198-.133.421-.21.227-.081.477-.081.311 0 .566.154.259.15.413.404"/><path fill="currentColor" fill-rule="evenodd" d="M6.2792 1a1 1 0 0 1 .9487.6838L7.886 3.658A.5.5 0 0 0 8.3604 4H14c.5523 0 1 .4477 1 1v9c0 .5523-.4477 1-1 1H2c-.5523 0-1-.4477-1-1V2c0-.5523.4477-1 1-1zm.065 6.2174q-.4004-.1416-.8856-.1415-.5096 0-.9584.19a2.51 2.51 0 0 0-.7845.5257 2.44 2.44 0 0 0-.5257.7683q-.19.4367-.19.934 0 .6713.3316 1.2213.3315.5458.8896.8734.558.3235 1.2374.3235.4852 0 .8855-.1375.4044-.1375.7238-.3477.3195-.2143.554-.4327a4.7 4.7 0 0 0 .2022-.2062l.178-.2022q.0767.097.1657.1941t.2103.2143q.2425.2264.562.4367t.7198.3478q.4004.1334.8856.1334.5096 0 .9543-.186t.7804-.5176a2.39 2.39 0 0 0 .5297-.7723q.19-.4409.1901-.9422 0-.6632-.3316-1.2131-.3275-.5499-.8855-.8775-.5581-.3276-1.2374-.3275-.7157 0-1.2657.2992-.546.2952-.9138.651a3.6 3.6 0 0 0-.2022.2022 3.6 3.6 0 0 0-.1618.19 6 6 0 0 0-.1739-.19 2.8 2.8 0 0 0-.1981-.2022q-.2425-.2345-.5661-.4529-.3195-.2182-.7198-.3558" clip-rule="evenodd"/></svg>