<svg xmlns="http://www.w3.org/2000/svg" fill="none" viewBox="0 0 24 24"><path fill="currentColor" d="M7.766 14.146q-.184-.306-.184-.674 0-.359.184-.66a1.37 1.37 0 0 1 .495-.485q.31-.184.689-.184.442 0 .82.204t.684.495q.146.136.301.315.16.18.262.315a7 7 0 0 1-.233.306q-.136.165-.33.345-.33.306-.699.495-.364.184-.805.184-.378 0-.689-.175-.311-.179-.495-.48M16.229 12.812q.184.301.184.66 0 .369-.184.675-.184.301-.495.48-.306.175-.679.175-.451 0-.82-.189-.369-.189-.689-.49a4.8 4.8 0 0 1-.315-.335 5 5 0 0 1-.247-.315q.073-.087.228-.277a4.4 4.4 0 0 1 .335-.354 2.68 2.68 0 0 1 .432-.349 2.17 2.17 0 0 1 .505-.252 1.69 1.69 0 0 1 .573-.097q.374 0 .679.184.311.18.495.485"/><path fill="currentColor" fill-rule="evenodd" d="M9.86 2c.7434 0 1.412.4526 1.6881 1.143l1.1324 2.831a.909.909 0 0 0 .8441.5714h6.6572c1.0042 0 1.8182.814 1.8182 1.8182v10.8182C22 20.186 21.186 21 20.1818 21H3.8182C2.814 21 2 20.186 2 19.1818V3.8182C2 2.814 2.814 2 3.8182 2zm.1529 8.7396q-.4803-.1698-1.0626-.1698-.6114 0-1.15.228a3.01 3.01 0 0 0-.9414.6308 2.92 2.92 0 0 0-.6308.922Q6 12.8746 6 13.4715q0 .8055.3979 1.4654.398.655 1.0675 1.0481.6697.3882 1.4849.3882.5823 0 1.0626-.1649.4853-.165.8686-.4173.3834-.2572.6648-.5193a5.6 5.6 0 0 0 .2426-.2474l.2135-.2426q.0922.1164.199.2329.1067.1164.2523.2571.2911.2718.6745.5241t.8637.4173q.4804.1602 1.0627.1601.6114 0 1.1452-.2232t.9365-.6211a2.87 2.87 0 0 0 .6356-.9268Q18 14.0731 18 13.4715q0-.7958-.3979-1.4557-.393-.66-1.0627-1.053t-1.4848-.393q-.859 0-1.5188.359-.655.3543-1.0967.7813a4.3 4.3 0 0 0-.2426.2426 4.3 4.3 0 0 0-.1941.2281 7 7 0 0 0-.2086-.2281 3.3 3.3 0 0 0-.2378-.2426q-.2911-.2814-.6793-.5435-.3834-.262-.8638-.427" clip-rule="evenodd"/></svg>