<svg xmlns="http://www.w3.org/2000/svg" fill="none" viewBox="0 0 32 32"><path fill="currentColor" d="M11.061 18.794q-.215-.357-.215-.787 0-.419.215-.77a1.6 1.6 0 0 1 .577-.566q.362-.215.804-.215.515 0 .957.238a3.68 3.68 0 0 1 .798.577q.17.159.351.368.187.21.306.368a8.3 8.3 0 0 1-.272.357q-.158.193-.385.402-.385.357-.815.578-.424.215-.94.215-.442 0-.804-.204-.362-.209-.577-.56M20.934 17.237q.215.351.215.77 0 .43-.215.787-.215.351-.577.561-.357.204-.792.204-.526 0-.957-.221t-.804-.572a5.6 5.6 0 0 1-.368-.391 5.8 5.8 0 0 1-.289-.368q.085-.102.266-.323a5.1 5.1 0 0 1 .391-.413 3.13 3.13 0 0 1 .504-.408 2.52 2.52 0 0 1 .589-.294q.317-.113.668-.113.436 0 .793.215.362.21.578.566"/><path fill="currentColor" fill-rule="evenodd" d="M13.6459 5a2 2 0 0 1 1.857 1.2572l1.2457 3.1142A1 1 0 0 0 17.677 10H25c1.1046 0 2 .8954 2 2v12c0 1.1046-.8954 2-2 2H7c-1.1046 0-2-.8954-2-2V7c0-1.1046.8954-2 2-2zm.0359 9.8197q-.5605-.1981-1.2398-.1981-.7134 0-1.3417.2661-.6228.266-1.0983.7359a3.41 3.41 0 0 0-.736 1.0756Q9 17.3106 9 18.0069q0 .9398.4642 1.7097.4642.7642 1.2455 1.2228.7812.4529 1.7323.4529.6793 0 1.2398-.1925.5661-.1925 1.0133-.4868.4473-.3001.7756-.6058a6.6 6.6 0 0 0 .283-.2887l.2491-.283a5 5 0 0 0 .2321.2717q.1246.1359.2944.3.3398.3171.7869.6114.4473.2945 1.0077.4869.5604.1868 1.2398.1868.7133 0 1.336-.2604t1.0926-.7246q.4755-.4642.7416-1.0813T23 18.0069q0-.9283-.4642-1.6983-.4586-.77-1.2398-1.2285t-1.7323-.4585q-1.002 0-1.7719.4189-.7643.4132-1.2795.9114a5 5 0 0 0-.283.2831 5 5 0 0 0-.2265.2661 8 8 0 0 0-.2434-.2661 3.9 3.9 0 0 0-.2774-.2831q-.3396-.3283-.7926-.634-.4472-.3057-1.0076-.4982" clip-rule="evenodd"/></svg>