<svg xmlns="http://www.w3.org/2000/svg" fill="none" viewBox="0 0 16 16"><path fill="currentColor" d="M14 13c.552 0 1-.448 1-1V4c0-.552-.448-1-1-1s-1 .448-1 1v8c0 .552.448 1 1 1M6.707 11.293c.391.391.391 1.024 0 1.414s-1.024.391-1.414 0l-4-4c-.39-.39-.39-1.024 0-1.414l4-4c.391-.39 1.024-.39 1.414 0s.391 1.024 0 1.414L3.414 8z"/><path fill="currentColor" d="m8.4142 9 2.2929 2.2929c.3905.3905.3905 1.0237 0 1.4142s-1.0237.3905-1.4142 0l-4-4c-.3905-.3905-.3905-1.0237 0-1.4142l4-4c.3905-.3905 1.0237-.3905 1.4142 0s.3905 1.0237 0 1.4142L8.4142 7H11c.5523 0 1 .4477 1 1s-.4477 1-1 1z"/></svg>