<svg xmlns="http://www.w3.org/2000/svg" fill="none" viewBox="0 0 32 32"><path fill="currentColor" d="M21.1856 15.2845h-.3094v-2.8379h.3927q.5593 0 .8271.3448.2677.3385.2677 1.0465 0 .7695-.2915 1.108-.2916.3386-.8866.3386"/><path fill="currentColor" fill-rule="evenodd" d="M3 4c0-.5523.4477-1 1-1h7.7771c.893 0 1.6777.592 1.923 1.4505L14.1428 6H27c1.1045 0 2 .8954 2 2v15c0 1.1045-.8955 2-2 2H17v2h11c.5523 0 1 .4477 1 1s-.4477 1-1 1H4c-.5523 0-1-.4477-1-1s.4477-1 1-1h11v-2H5c-1.1046 0-2-.8955-2-2zm7.6065 16H9v-9h3.8973v1.4466h-2.2908v2.4993h2.1361v1.4467h-2.1361zm6.0512 0h-1.6125v-7.5287h-1.666V11h4.9445v1.4713h-1.666zm6.6402-4.026q.702-.7695.7021-2.2038Q24 11 21.4653 11h-2.2075v9h1.6184v-3.2627h.4046q1.321 0 2.0171-.7633" clip-rule="evenodd"/></svg>