<svg xmlns="http://www.w3.org/2000/svg" fill="none" viewBox="0 0 32 33"><path fill="currentColor" d="M28 24v2.5a2.59 2.59 0 0 1-2.67 2.5H6.67a2.58 2.58 0 0 1-1.8481-.6987A2.58 2.58 0 0 1 4.01 26.5V24zm-3.5 4a1.499 1.499 0 0 0 1.3858-.926 1.499 1.499 0 0 0-.3251-1.6345 1.4994 1.4994 0 0 0-1.6347-.3252A1.5 1.5 0 0 0 23 26.5a1.5 1.5 0 0 0 1.5 1.5m3.5-5H4V5.67a2.66 2.66 0 0 1 .779-1.891A2.66 2.66 0 0 1 6.67 3h18.66A2.6597 2.6597 0 0 1 28 5.67zm-12-8h3.46a4 4 0 0 1-1.7962 1.6192 4.001 4.001 0 0 1-4.5294-.8601A4 4 0 0 1 18.68 10l2-2.22a7 7 0 0 0-8.7947-.4572 7 7 0 0 0-2.282 8.5058 7 7 0 0 0 7.8428 4.0059A7 7 0 0 0 23 13a6.7 6.7 0 0 0-.07-1H16z"/></svg>