<svg xmlns="http://www.w3.org/2000/svg" fill="none" viewBox="0 0 16 16"><path fill="currentColor" d="M15 13v2c0 .5523-.4477 1-1 1H2c-.5523 0-1-.4477-1-1v-2zm-1.5 2a.5.5 0 1 0-.0001-1.0001A.5.5 0 0 0 13.5 15m1.5-3H1V1c0-.5523.4477-1 1-1h12c.5523 0 1 .4477 1 1zM8 7.1429h1.98C9.5846 7.826 8.846 8.2857 8 8.2857 6.7376 8.2857 5.7143 7.2624 5.7143 6S6.7376 3.7143 8 3.7143c.5758 0 1.1162.2126 1.534.5912l1.1511-1.2704A3.988 3.988 0 0 0 8 2C5.7909 2 4 3.7909 4 6s1.7909 4 4 4 4-1.7909 4-4c0-.1909-.0134-.3843-.0397-.571l-.5317-.0004H8z"/></svg>