<svg xmlns="http://www.w3.org/2000/svg" fill="none" viewBox="0 0 24 24"><path fill="currentColor" fill-rule="evenodd" d="M11.6638.2524a.492.492 0 0 1 .6456 0c2.7563 2.3951 6.0951 3.9966 10.206 4.8955a.491.491 0 0 1 .3086.2158.491.491 0 0 1 .0664.371c-1.9265 8.7424-5.5074 14.8098-10.6426 18.0313a.49.49 0 0 1-.2617.0752.49.49 0 0 1-.2607-.0752c-5.135-3.2218-8.7158-9.2883-10.6426-18.0312a.4918.4918 0 0 1 .375-.587C5.5685 4.249 8.9072 2.6476 11.6638.2525m.3223 14.542a.215.215 0 0 0-.1934.1211l-.1669.3369-.3721.0547a.216.216 0 0 0-.1748.1474.216.216 0 0 0 .0547.2217l.2695.2627-.0635.3711a.215.215 0 0 0 .086.2109.218.218 0 0 0 .1269.042.22.22 0 0 0 .1016-.0254l.332-.1758.333.1758a.215.215 0 0 0 .2276-.0166.216.216 0 0 0 .0859-.2119l-.0635-.3701.2695-.2637a.214.214 0 0 0 .0547-.2207.214.214 0 0 0-.1738-.1474l-.373-.0547-.1661-.3369a.216.216 0 0 0-.1943-.1211m-2.458-.7832a.215.215 0 0 0-.1943.1201l-.166.3379-.3721.0537a.216.216 0 0 0-.1748.1474.216.216 0 0 0 .0547.2217l.2695.2627-.0635.3711a.2157.2157 0 0 0 .213.2529.22.22 0 0 0 .1005-.0244l.333-.1758.333.1758a.216.216 0 0 0 .2285-.0166.216.216 0 0 0 .086-.2119l-.0635-.3711.2685-.2627a.2164.2164 0 0 0-.1201-.3691l-.372-.0537-.166-.3379a.215.215 0 0 0-.1944-.1201m4.9629 0a.216.216 0 0 0-.1943.1201l-.167.3379-.3721.0537a.216.216 0 0 0-.1748.1474.216.216 0 0 0 .0547.2217l.2695.2627-.0635.3711a.216.216 0 0 0 .2129.2529.22.22 0 0 0 .1006-.0244l.333-.1758.333.1758a.215.215 0 0 0 .2276-.0166.216.216 0 0 0 .0869-.2119l-.0635-.3711.2695-.2627a.215.215 0 0 0 .0547-.2217.216.216 0 0 0-.1748-.1474l-.3721-.0537-.166-.3379a.216.216 0 0 0-.1943-.1201m-6.9434-1.67a.215.215 0 0 0-.1933.1201l-.167.337-.372.0547a.2154.2154 0 0 0-.1192.3691l.2685.2627-.0634.3701a.216.216 0 0 0 .0859.2119.22.22 0 0 0 .127.042.22.22 0 0 0 .1015-.0254l.333-.1758.333.1758a.215.215 0 0 0 .2275-.0166.215.215 0 0 0 .086-.2119l-.0635-.3711.2695-.2627a.214.214 0 0 0 .0547-.2217.215.215 0 0 0-.1748-.1464l-.372-.0547-.167-.337a.215.215 0 0 0-.1944-.1201m8.7764-.0517a.216.216 0 0 0-.1934.1211l-.167.3369-.372.0547a.215.215 0 0 0-.1748.1474.215.215 0 0 0 .0547.2217l.2695.2627-.0635.3711a.215.215 0 0 0 .086.2109.217.217 0 0 0 .1269.042.216.216 0 0 0 .1006-.0254l.333-.1748.333.1748a.216.216 0 0 0 .2285-.0166.215.215 0 0 0 .086-.2109l-.0635-.3711.2685-.2627a.2158.2158 0 0 0-.1191-.3691l-.373-.0537-.1661-.3379a.216.216 0 0 0-.1943-.1211m-9.3467-2.504a.217.217 0 0 0-.1943.1212l-.167.3369-.372.0547a.216.216 0 0 0-.1749.1474.216.216 0 0 0 .0547.2217l.2695.2627-.0634.3701a.216.216 0 0 0 .0859.2119.22.22 0 0 0 .127.042.22.22 0 0 0 .1015-.0254l.333-.1757.333.1757a.215.215 0 0 0 .2276-.0166.216.216 0 0 0 .0859-.2119l-.0635-.3711.2696-.2627a.216.216 0 0 0 .0546-.2217.216.216 0 0 0-.1748-.1474l-.372-.0537-.167-.337a.215.215 0 0 0-.1934-.121m10.0186 0a.216.216 0 0 0-.1944.1202l-.166.3379-.373.0537a.215.215 0 0 0-.1739.1474.215.215 0 0 0 .0547.2217l.2696.2627-.0635.3711a.2158.2158 0 0 0 .2129.2529.22.22 0 0 0 .1006-.0253l.333-.1748.333.1748a.2156.2156 0 0 0 .3135-.2276l-.0635-.3711.2695-.2627a.216.216 0 0 0 .0547-.2217.216.216 0 0 0-.1748-.1474l-.3721-.0537-.167-.338a.215.215 0 0 0-.1933-.12m-.6719-2.5048a.216.216 0 0 0-.1934.121l-.167.337-.372.0547a.215.215 0 0 0-.1748.1465.217.217 0 0 0 .0547.2226l.2695.2617-.0635.3711a.216.216 0 0 0 .0869.212.22.22 0 0 0 .127.042.22.22 0 0 0 .1006-.0255l.333-.1748.333.1748a.215.215 0 0 0 .2275-.0165.216.216 0 0 0 .086-.212l-.0635-.371.2695-.2618a.217.217 0 0 0 .0547-.2217.216.216 0 0 0-.1748-.1474l-.373-.0547-.1661-.3379a.216.216 0 0 0-.1943-.1201m-8.6758-.0498a.215.215 0 0 0-.1943.1201l-.166.3379-.373.0537a.215.215 0 0 0-.174.1475.215.215 0 0 0 .0548.2216l.2695.2627-.0644.3711a.215.215 0 0 0 .0869.211.215.215 0 0 0 .2275.0166l.333-.1748.333.1748a.216.216 0 0 0 .1006.0254.217.217 0 0 0 .127-.042.214.214 0 0 0 .0859-.211l-.0635-.371.2696-.2628a.216.216 0 0 0 .0546-.2216.216.216 0 0 0-.1748-.1475l-.372-.0537-.167-.3379a.214.214 0 0 0-.1934-.1201m1.8799-1.7832a.217.217 0 0 0-.1943.121l-.166.337-.3731.0537a.216.216 0 0 0-.1191.3691l.2685.2627-.0635.3711a.215.215 0 0 0 .087.211.218.218 0 0 0 .127.042.22.22 0 0 0 .1005-.0254l.333-.1748.333.1748a.215.215 0 0 0 .2275-.0166.216.216 0 0 0 .087-.211l-.0635-.371.2685-.2628a.216.216 0 0 0 .0547-.2216.215.215 0 0 0-.1748-.1475l-.372-.0537-.166-.337a.216.216 0 0 0-.1944-.121m4.9629 0a.216.216 0 0 0-.1943.12l-.167.338-.3721.0537a.216.216 0 0 0-.1191.3691l.2685.2627-.0635.3711a.2166.2166 0 0 0 .2129.253.217.217 0 0 0 .1006-.0254l.334-.1748.333.1748a.215.215 0 0 0 .2275-.0166.215.215 0 0 0 .086-.211l-.0635-.371.2695-.2628a.215.215 0 0 0 .0547-.2216.216.216 0 0 0-.1748-.1475l-.3721-.0537-.166-.338a.215.215 0 0 0-.1943-.12m-2.5049-.671a.216.216 0 0 0-.1934.1212l-.1669.3369-.3721.0537a.216.216 0 0 0-.1748.1475.215.215 0 0 0 .0547.2216l.2695.2627-.0635.3711a.216.216 0 0 0 .086.212.216.216 0 0 0 .2275.0165l.333-.1757.333.1748a.22.22 0 0 0 .1006.0254c.0444 0 .09-.0145.1279-.042a.215.215 0 0 0 .086-.211l-.0635-.371.2695-.2628a.2165.2165 0 0 0-.1201-.3691l-.373-.0537-.1661-.3379a.216.216 0 0 0-.1943-.1201" clip-rule="evenodd"/></svg>