<svg xmlns="http://www.w3.org/2000/svg" fill="none" viewBox="0 0 16 16"><path fill="currentColor" fill-rule="evenodd" d="M7.7755.1685a.3285.3285 0 0 1 .4307 0c1.8375 1.5967 4.0632 2.6644 6.8037 3.2636a.328.328 0 0 1 .2061.1436.328.328 0 0 1 .0449.247c-1.2844 5.8284-3.6723 9.8738-7.0957 12.0216a.327.327 0 0 1-.1739.0498.33.33 0 0 1-.1748-.0498C4.3933 13.6964 2.0063 9.6514.7218 3.8228a.328.328 0 0 1 .044-.2471.327.327 0 0 1 .206-.1436c2.7403-.5992 4.966-1.667 6.8037-3.2636m.2158 9.6943a.145.145 0 0 0-.1298.08l-.1104.2247-.249.0371a.144.144 0 0 0-.1162.0977.144.144 0 0 0 .037.1474l.1798.1758-.043.2471a.145.145 0 0 0 .0576.1416.146.146 0 0 0 .1524.0107l.2216-.1172.2217.1172a.143.143 0 0 0 .1514-.0117.143.143 0 0 0 .0576-.1406l-.042-.2471.1797-.1758a.143.143 0 0 0 .0361-.1474.144.144 0 0 0-.1162-.0977l-.248-.0371-.1113-.2246a.144.144 0 0 0-.129-.08m-1.6386-.5224a.145.145 0 0 0-.13.08l-.1103.2246-.249.0371a.144.144 0 0 0-.1162.0977.144.144 0 0 0 .0371.1475l.1797.1757-.043.2471a.145.145 0 0 0 .0576.1416.147.147 0 0 0 .085.0274.15.15 0 0 0 .0674-.0166l.2217-.1172.2217.1172a.1444.1444 0 0 0 .21-.1524l-.043-.2471.1796-.1748a.145.145 0 0 0 .0362-.1484.144.144 0 0 0-.1162-.0977l-.248-.037-.1114-.2247a.144.144 0 0 0-.129-.08m3.3076 0a.144.144 0 0 0-.129.08l-.1112.2246-.248.0371a.1436.1436 0 0 0-.08.2451l.1795.1758-.042.2471a.145.145 0 0 0 .0567.1416.146.146 0 0 0 .1523.0108l.2217-.1172.2217.1172a.1444.1444 0 0 0 .2099-.1524l-.0429-.2471.1797-.1757a.143.143 0 0 0 .0371-.1475.144.144 0 0 0-.1162-.0977l-.2481-.037-.1113-.2247a.145.145 0 0 0-.13-.08M5.0323 8.227a.144.144 0 0 0-.1288.08l-.1114.2247-.248.036a.144.144 0 0 0-.1162.0987.143.143 0 0 0 .0361.1475l.1797.1748-.042.248a.144.144 0 0 0 .0566.1406.146.146 0 0 0 .1524.0108l.2217-.1162.2226.1162a.143.143 0 0 0 .1514-.0107.144.144 0 0 0 .0576-.1417l-.043-.247.1797-.1748a.143.143 0 0 0 .0371-.1475.146.146 0 0 0-.1172-.0986l-.248-.0361-.1113-.2247a.143.143 0 0 0-.129-.08m5.8506-.0342a.144.144 0 0 0-.1289.08l-.1113.2256-.248.0362a.144.144 0 0 0-.1172.0976.145.145 0 0 0 .0371.1485l.1797.1748-.042.247a.144.144 0 0 0 .0566.1417.146.146 0 0 0 .1524.0107l.2216-.1172.2217.1172a.1444.1444 0 0 0 .21-.1523l-.043-.2471.1797-.1748a.144.144 0 0 0-.0801-.2461l-.248-.0362-.1113-.2255a.144.144 0 0 0-.129-.0801m-6.2314-1.669a.144.144 0 0 0-.1289.0801l-.1113.2246-.248.0362a.146.146 0 0 0-.1173.0986.144.144 0 0 0 .0371.1475l.1797.1757-.043.2471a.144.144 0 0 0 .0577.1406.147.147 0 0 0 .085.0284.147.147 0 0 0 .0673-.0176l.2217-.1162.2217.1162a.144.144 0 0 0 .1523-.0108.143.143 0 0 0 .0576-.1406l-.043-.248.1798-.1749a.144.144 0 0 0 .037-.1474.145.145 0 0 0-.1171-.0986l-.248-.0362-.1114-.2246a.143.143 0 0 0-.1289-.08m6.6787-.001a.144.144 0 0 0-.1289.0811l-.1113.2246-.2481.0362a.1442.1442 0 0 0-.08.246l.1796.1749-.0419.247a.145.145 0 0 0 .0576.1416.145.145 0 0 0 .084.0274.145.145 0 0 0 .0673-.0166l.2217-.1172.2227.1172a.143.143 0 0 0 .1513-.0108.144.144 0 0 0 .0577-.1416l-.042-.247.1797-.1749a.145.145 0 0 0 .0361-.1484.145.145 0 0 0-.1172-.0976l-.2481-.0362-.1103-.2246a.145.145 0 0 0-.1299-.081m-.4473-1.6689a.144.144 0 0 0-.1289.0801l-.1113.2246-.248.0361a.144.144 0 0 0-.1162.0987.143.143 0 0 0 .0361.1474l.1797.1748-.042.248a.144.144 0 0 0 .0566.1407.148.148 0 0 0 .085.0283.15.15 0 0 0 .0674-.0175l.2216-.1163.2227.1162a.143.143 0 0 0 .1514-.0107.143.143 0 0 0 .0576-.1406l-.042-.248.1787-.1749a.144.144 0 0 0 .0371-.1474.145.145 0 0 0-.1172-.0987l-.248-.036-.1113-.2247a.144.144 0 0 0-.129-.08m-5.7841-.0342a.144.144 0 0 0-.129.081l-.1113.2247-.248.0361a.1445.1445 0 0 0-.08.2461l.1796.1748-.042.2471a.145.145 0 0 0 .0567.1416.145.145 0 0 0 .1523.0108l.2217-.1172.2226.1172a.1439.1439 0 0 0 .1514-.0107.144.144 0 0 0 .0576-.1417l-.042-.247.1797-.1749a.145.145 0 0 0 .0361-.1484.144.144 0 0 0-.1162-.0977l-.249-.0361-.1104-.2246a.145.145 0 0 0-.1298-.081m1.2539-1.1884a.145.145 0 0 0-.13.08l-.1103.2256-.249.0362a.144.144 0 0 0-.1162.0976.145.145 0 0 0 .0361.1484l.1797.1749-.042.247a.144.144 0 0 0 .0576.1406.147.147 0 0 0 .085.0284.145.145 0 0 0 .0664-.0166l.2227-.1172.2217.1162a.144.144 0 0 0 .1523-.0108.143.143 0 0 0 .0566-.1406l-.042-.247.1797-.1758a.1436.1436 0 0 0-.08-.2451l-.248-.0362-.1114-.2256a.144.144 0 0 0-.129-.08m3.3076 0a.144.144 0 0 0-.129.08l-.1112.2256-.248.0362a.1438.1438 0 0 0-.08.2451l.1795.1758-.042.247a.143.143 0 0 0 .0577.1406.145.145 0 0 0 .084.0284.145.145 0 0 0 .0673-.0166l.2217-.1172.2226.1162a.143.143 0 0 0 .1514-.0108.143.143 0 0 0 .0576-.1406l-.0429-.247.1797-.1758a.143.143 0 0 0-.0791-.2451l-.249-.0362-.1104-.2256a.145.145 0 0 0-.13-.08m-1.669-.4473a.145.145 0 0 0-.1298.08l-.1104.2257-.249.036a.144.144 0 0 0-.1162.0978.145.145 0 0 0 .0361.1484l.1797.1748-.042.247a.144.144 0 0 0 .209.1524l.2226-.1172.2217.1172a.147.147 0 0 0 .0674.0166c.0295 0 .0588-.01.084-.0283a.143.143 0 0 0 .0576-.1406l-.042-.2471.1797-.1758a.1446.1446 0 0 0-.08-.246l-.2481-.0352-.1113-.2256a.144.144 0 0 0-.129-.0801" clip-rule="evenodd"/></svg>