<svg xmlns="http://www.w3.org/2000/svg" fill="none" viewBox="0 0 16 16"><circle cx="8" cy="8" r="8" fill="#fff"/><path fill="#9bc225" d="M8 15c-3.866 0-7-3.134-7-7s3.134-7 7-7 7 3.134 7 7-3.134 7-7 7"/><path fill="#fff" d="M9.029 5.3856C8.496 4.5524 7.5625 4 6.5 4c-1.6569 0-3 1.3431-3 3v4c0 .5523.4477 1 1 1l3.2682.0011A1.99 1.99 0 0 1 7.5 11V8l.0071-.2086a2.99 2.99 0 0 1 .1636-.7913L4.5 7c0-1.1046.8954-2 2-2 .7494 0 1.4025.4121 1.7446 1.0218a3 3 0 0 1 .7844-.6362"/><path fill="#fff" fill-rule="evenodd" d="M10.5 6c1.1046 0 2 .8954 2 2v3c0 .5523-.4477 1-1 1h-2c-.5523 0-1-.4477-1-1V8c0-1.1046.8954-2 2-2m0 1c-.5523 0-1 .4477-1 1v.5h2V8c0-.5523-.4477-1-1-1" clip-rule="evenodd"/></svg>