<svg xmlns="http://www.w3.org/2000/svg" fill="none" viewBox="0 0 24 24"><path fill="currentColor" fill-rule="evenodd" d="M18.9836 7H20c.5523 0 1 .4477 1 1v5c0 .5523-.4477 1-1 1v8c0 .5523-.4477 1-1 1H5c-.5523 0-1-.4477-1-1v-8c-.5523 0-1-.4477-1-1V8c0-.5523.4477-1 1-1h1.0146A3.96 3.96 0 0 1 4.52 5.4547C4.3133 3.4893 5.739 1.7286 7.7046 1.522c2.0087-.2111 3.8539 1.1173 4.2945 3.0837.4407-1.9664 2.2859-3.2948 4.2946-3.0837 1.9654.2066 3.3912 1.9673 3.1847 3.9327A3.96 3.96 0 0 1 18.9836 7M13 12h6V9h-3.1331a4 4 0 0 1-.3409.0146L13 9.0154zm-2-2.9846V12H5V9h3.1314q.1687.0144.3408.0146zM11 14H6v7h5zm2 7v-7h5v7zM10.0522 5.0643c-.2105-.9886-1.1333-1.6589-2.1386-1.5532-.8669.091-1.4958.8677-1.4047 1.7346.1057 1.0052.9532 1.7685 1.964 1.7689l1.9946.0006zm7.4371.1814c-.1056 1.0052-.9531 1.7685-1.9639 1.7689l-1.9946.0006.4153-1.951c.2105-.9885 1.1333-1.6588 2.1386-1.5531.8668.091 1.4957.8677 1.4046 1.7346" clip-rule="evenodd"/></svg>