<svg xmlns="http://www.w3.org/2000/svg" fill="none" viewBox="0 0 16 16"><path fill="currentColor" d="M6.024 1c-.385 0-.626.417-.433.751l4.053 7A.5.5 0 0 0 10.077 9h4.518c.381 0 .622-.41.437-.743l-3.889-7A.5.5 0 0 0 10.706 1zM4.074 2.667c.189-.341.678-.343.871-.005l2.341 4.097a.5.5 0 0 1 .003.491L3.412 14.229c-.187.336-.668.344-.866.015L.149 10.248a.5.5 0 0 1-.008-.5zM4.54 14.257c-.185.333.056.743.437.743h7.74a.5.5 0 0 0 .429-.243l2.4-4c.2-.333-.04-.757-.429-.757H7.2a.5.5 0 0 0-.437.257z"/></svg>