<svg xmlns="http://www.w3.org/2000/svg" fill="none" viewBox="0 0 24 24"><path fill="currentColor" d="M20.667 13c.568 0 .929-.606.66-1.106l-5.115-9.5A.75.75 0 0 0 15.552 2H9.391c-.567 0-.929.606-.66 1.106l5.115 9.5a.75.75 0 0 0 .66.394zM7.188 4.458c-.293-.544-1.082-.52-1.341.041l-4.674 10.127a.75.75 0 0 0 .05.72l3.177 4.942c.318.494 1.054.448 1.307-.082l4.523-9.45a.75.75 0 0 0-.016-.679zM8.256 22c-.552 0-.915-.576-.676-1.074l2.632-5.5A.75.75 0 0 1 10.888 15h10.738c.593 0 .952.656.631 1.156l-3.536 5.5a.75.75 0 0 1-.631.344z"/></svg>