<svg xmlns="http://www.w3.org/2000/svg" fill="none" viewBox="0 0 32 32"><path fill="currentColor" d="M27.749 17.3c.747 0 1.223-.788.869-1.437l-6.733-12.35C21.714 3.197 21.38 3 21.017 3h-8.108c-.747 0-1.223.788-.869 1.437l6.733 12.35c.172.316.506.513.869.513zM10.008 6.196c-.386-.708-1.424-.676-1.765.054L2.091 19.414a.965.965 0 0 0 .066.936l4.181 6.425c.418.642 1.387.582 1.721-.106l5.952-12.285a.965.965 0 0 0-.021-.883zM11.414 29c-.726 0-1.204-.749-.89-1.396l3.464-7.15c.164-.339.51-.554.89-.554h14.133c.781 0 1.253.853.83 1.502l-4.653 7.15c-.182.279-.494.448-.83.448z"/></svg>