<svg xmlns="http://www.w3.org/2000/svg" fill="none" viewBox="0 0 32 32"><path fill="currentColor" d="M16.009 16.712c.2 0 .6-.235.6-1.176s-.4-1.568-.6-1.764c-.2.196-.6.823-.6 1.764s.4 1.176.6 1.176M19.611 10.244l-3.602-1.764-3.602 1.764 3.602 2.352z"/><path fill="currentColor" fill-rule="evenodd" d="M16.3269.046a1.185 1.185 0 0 0-.6538 0c-3.4173.9805-10.409 3.441-14.2485 6.3684a1.074 1.074 0 0 0-.424.8894C1.1858 13.2206 4.3732 25.8458 16.0087 32c11.6355-6.1542 14.8053-18.7794 14.9907-24.6962a1.074 1.074 0 0 0-.4241-.8894C26.736 3.487 19.7442 1.0265 16.3269.046m-5.9858 23.8903c1.9189-1.8426 4.4751-3.1957 5.6677-3.6964 1.8856.7388 4.1413 2.4927 5.6046 3.7814-1.4909 1.6967-3.3336 3.237-5.5979 4.4507-2.3021-1.2339-4.1692-2.8055-5.6744-4.5357m-5.1382-7.8124 3.602-5.8801c-1.801-1.764-3.0017-3.7632-3.0017-4.704 0-.196.12-.4704.6003 0s3.0017 2.156 4.2023 2.94l5.403-1.764 5.403 1.764c1.2006-.784 3.722-2.4696 4.2023-2.94s.6003-.196.6003 0c0 .9408-1.2006 2.94-3.0016 4.704l3.602 5.8801c-.4803 1.8816-1.801 3.528-2.4014 4.116-.4802-3.2928-2.2012-7.252-3.0016-8.8201-1.801.5881-3.0017 1.1761-3.602 2.9401 1.2007 0 2.4013-.588 2.4013-1.764l1.2007.588c0 1.764-2.4013 2.352-3.602 2.352 0 1.8816-1.2007 2.744-1.801 2.94-.6003-.196-1.801-1.0584-1.801-2.94-1.2006 0-3.602-.588-3.602-2.352l1.2007-.588c0 1.176 1.2007 1.764 2.4013 1.764-.6003-1.764-1.801-2.352-3.602-2.9401-.8004 1.5681-2.5213 5.5273-3.0016 8.8201-.6003-.588-1.921-2.2344-2.4013-4.116" clip-rule="evenodd"/></svg>