<svg xmlns="http://www.w3.org/2000/svg" fill="none" viewBox="0 0 16 16"><path fill="currentColor" d="M7 2c0 .552-.448 1-1 1s-1-.448-1-1 .448-1 1-1 1 .448 1 1M7 6c0 .552-.448 1-1 1s-1-.448-1-1 .448-1 1-1 1 .448 1 1M7 10c0 .552-.448 1-1 1s-1-.448-1-1 .448-1 1-1 1 .448 1 1M7 14c0 .552-.448 1-1 1s-1-.448-1-1 .448-1 1-1 1 .448 1 1M11 2c0 .552-.448 1-1 1s-1-.448-1-1 .448-1 1-1 1 .448 1 1M11 6c0 .552-.448 1-1 1s-1-.448-1-1 .448-1 1-1 1 .448 1 1M11 10c0 .552-.448 1-1 1s-1-.448-1-1 .448-1 1-1 1 .448 1 1M11 14c0 .552-.448 1-1 1s-1-.448-1-1 .448-1 1-1 1 .448 1 1"/></svg>