<svg xmlns="http://www.w3.org/2000/svg" fill="none" viewBox="0 0 16 16"><path fill="currentColor" d="M8 0c-.552 0-1 .448-1 1v2c0 .552.448 1 1 1s1-.448 1-1V1c0-.552-.448-1-1-1M12 1.072c-.478-.276-1.09-.112-1.366.366l-1 1.732c-.276.478-.112 1.09.366 1.366s1.09.112 1.366-.366l1-1.732c.276-.478.112-1.09-.366-1.366M13.562 3.634c.478-.276 1.09-.112 1.366.366s.112 1.09-.366 1.366l-1.732 1c-.478.276-1.09.112-1.366-.366s-.112-1.09.366-1.366zM16 8c0-.552-.448-1-1-1h-2c-.552 0-1 .448-1 1s.448 1 1 1h2c.552 0 1-.448 1-1M14.562 10.634c.478.276.642.888.366 1.366s-.888.642-1.366.366l-1.732-1c-.478-.276-.642-.888-.366-1.366s.888-.642 1.366-.366zM12 14.928c.478-.276.642-.888.366-1.366l-1-1.732c-.276-.478-.888-.642-1.366-.366-.478.276-.642.888-.366 1.366l1 1.732c.276.478.888.642 1.366.366M9 15c0 .552-.448 1-1 1s-1-.448-1-1v-2c0-.552.448-1 1-1s1 .448 1 1zM4 14.928c.478.276 1.09.112 1.366-.366l1-1.732c.276-.478.112-1.09-.366-1.366-.478-.276-1.09-.112-1.366.366l-1 1.732c-.276.478-.112 1.09.366 1.366M2.438 12.366c-.478.276-1.09.112-1.366-.366s-.112-1.09.366-1.366l1.732-1c.478-.276 1.09-.112 1.366.366.276.478.112 1.09-.366 1.366zM0 8c0 .552.448 1 1 1h2c.552 0 1-.448 1-1s-.448-1-1-1H1c-.552 0-1 .448-1 1M1.438 5.366C.96 5.09.796 4.478 1.072 4s.888-.642 1.366-.366l1.732 1c.478.276.642.888.366 1.366-.276.478-.888.642-1.366.366zM4 1.072c-.478.276-.642.888-.366 1.366l1 1.732c.276.478.888.642 1.366.366s.642-.888.366-1.366l-1-1.732C5.09.959 4.479.796 4 1.072"/></svg>