<svg xmlns="http://www.w3.org/2000/svg" fill="none" viewBox="0 0 32 32"><path fill="currentColor" d="M8.5714 4C7.7035 4 7 4.6888 7 5.5385V6h19c.5523 0 1 .4477 1 1V20.923h.4286c.8678 0 1.5714-.6888 1.5714-1.5385V5.5385C29 4.6888 28.2964 4 27.4286 4z"/><path fill="currentColor" fill-rule="evenodd" d="M4.5714 8C3.7036 8 3 8.6888 3 9.5385v13.8461c0 .8497.7035 1.5385 1.5714 1.5385h6.2857l-.6636 2.599c-.062.2428.1255.4779.3811.4779h6.8508c.2556 0 .4431-.2351.3811-.4779l-.6636-2.599h6.2857c.8678 0 1.5714-.6888 1.5714-1.5385V9.5385C25 8.6888 24.2964 8 23.4286 8zm6.7694 12H9.9463v-3.2864H8.1057V20H6.711v-7.4956h1.3946v2.9788h1.8406v-2.9788h1.3945zm3.8144-6.3831q-.5998 0-.9484.7024-.3435.7024-.3435 1.9534 0 2.6045 1.3586 2.6045.5948 0 1.2458-.3794v1.2407q-.5485.364-1.4047.364-1.2664 0-1.9483-1.0048-.6768-1.0101-.6767-2.8352t.6972-2.8455q.7024-1.0203 1.9483-1.0203.4101 0 .7844.1128.3793.1128.8101.3948l-.4615 1.1331a3.86 3.86 0 0 0-.4922-.2872q-.2614-.1333-.5691-.1333m5.9627.5743q0 .7074-.3486 1.1894-.3487.4768-.9844.6614v.041q.7075.1128 1.092.5537.3897.441.3897 1.1997 0 1.0357-.646 1.6509-.6409.6152-1.7586.6152-.9946 0-1.6714-.3537v-1.251q.3384.205.7332.323.3948.1179.7588.1179.5947 0 .8972-.2717.3025-.2769.3025-.8716 0-1.1228-1.3792-1.1228h-.4255v-1.0408h.405q.6102 0 .9331-.2871.3282-.2871.3282-.8562 0-.446-.2102-.6716-.2052-.2307-.5845-.2307-.5793 0-1.1279.4922l-.6307-.9229q.7589-.7587 1.9124-.7588.9485 0 1.4817.482.5332.4767.5332 1.3125" clip-rule="evenodd"/></svg>