<svg xmlns="http://www.w3.org/2000/svg" fill="none" viewBox="0 0 32 32"><path fill="currentColor" fill-rule="evenodd" d="M2 5c0-1.1046.8954-2 2-2h24c1.1046 0 2 .8954 2 2v18c0 1.1046-.8954 2-2 2h-8l.8447 3.3787c.0789.3156-.1598.6213-.4851.6213h-8.7192c-.3253 0-.564-.3057-.4851-.6213L12 25H4c-1.1046 0-2-.8954-2-2zm9.0187 13.4h1.7265V9.1198h-1.7265v3.6879H8.7398v-3.688H7.0133V18.4h1.7265v-4.0688h2.2789zm5.2749-7.0332q.4316-.8696 1.1743-.8696.3808 0 .7046.165a4.8 4.8 0 0 1 .6093.3555l.5713-1.4028q-.5332-.3492-1.0029-.4888-.4634-.1396-.9712-.1396-1.5425 0-2.4121 1.2631-.8633 1.2633-.8633 3.523t.8379 3.5102q.8442 1.2442 2.4121 1.2442 1.06 0 1.7393-.4507v-1.5361q-.8062.4697-1.5425.4697-1.6821 0-1.6821-3.2246 0-1.5488.4253-2.4185m8.125 1.314q.4316-.5967.4316-1.4727 0-1.0346-.6602-1.625-.6602-.5967-1.8344-.5967-1.4283 0-2.3677.9395l.7808 1.1426q.6791-.6094 1.3964-.6094.4698 0 .7237.2857.2602.2792.2602.8315 0 .7046-.4062 1.0601-.3999.3554-1.1553.3554h-.5015v1.2886h.5269q1.7075 0 1.7075 1.3901 0 .7363-.3745 1.0791-.3746.3365-1.1108.3365-.4507 0-.9395-.146-.4887-.1461-.9077-.3999v1.5488q.838.438 2.0693.438 1.3839 0 2.1773-.7617.7998-.7618.7998-2.044 0-.9394-.4824-1.4853-.4761-.546-1.3521-.6856v-.0508q.787-.2285 1.2188-.8188" clip-rule="evenodd"/></svg>