<svg xmlns="http://www.w3.org/2000/svg" fill="none" viewBox="0 0 32 32"><path fill="currentColor" fill-rule="evenodd" d="M2 5c0-1.1046.8954-2 2-2h24c1.1046 0 2 .8954 2 2v12.3427c1.2508 1.5457 2 3.514 2 5.6573 0 4.9706-4.0294 9-9 9-2.6655 0-5.0604-1.1588-6.7083-3h-4.6513c-.3253 0-.564-.3057-.4851-.6213L12 25H4c-1.1046 0-2-.8954-2-2zm13.5508 12.9477a9.05 9.05 0 0 1 1.0674-1.2938q-.75-.7153-.75-2.8686 0-1.5488.4253-2.4185.4316-.8696 1.1743-.8696.3808 0 .7046.165a4.8 4.8 0 0 1 .6093.3555l.5713-1.4028q-.5332-.3492-1.0029-.4888-.4634-.1396-.9712-.1396-1.5425 0-2.4121 1.2631-.8633 1.2633-.8633 3.523t.8379 3.5102q.2682.3952.6094.6649m5.5351-3.7437A9.04 9.04 0 0 1 23 14c.4883 0 .9676.0389 1.4349.1138q-.4618-.4401-1.2352-.5634v-.0508q.787-.2285 1.2188-.8188.4316-.5967.4316-1.4727 0-1.0346-.6602-1.625-.6602-.5967-1.8344-.5967-1.4283 0-2.3677.9395l.7808 1.1426q.6791-.6094 1.3964-.6094.4698 0 .7237.2857.2602.2792.2602.8315 0 .7046-.4062 1.0601-.3999.3554-1.1553.3554h-.5015zM30 23c0 3.866-3.134 7-7 7s-7-3.134-7-7 3.134-7 7-7 7 3.134 7 7m-17.2549-4.6h-1.7265v-4.0688H8.7398V18.4H7.0132V9.1198h1.7266v3.6879h2.2788v-3.688h1.7265z" clip-rule="evenodd"/><path fill="currentColor" d="M21.2481 19.4275c-.3334-.1905-.7481.0502-.7481.4341v6.2768c0 .3839.4147.6246.7481.4341l5.4922-3.1384c.3359-.1919.3359-.6763 0-.8682z"/></svg>