<svg xmlns="http://www.w3.org/2000/svg" fill="none" viewBox="0 0 16 16"><path fill="currentColor" d="M8 4.5c1.105 0 2-.895 2-2s-.895-2-2-2-2 .895-2 2 .895 2 2 2M1 8.5q0 .37.038.731A2.988 2.988 0 0 1 3 8.5c0-1.853 1.008-3.47 2.505-4.334A2.986 2.986 0 0 1 5 2.5q0-.17.019-.335C2.644 3.285 1 5.7 1 8.5M10.495 4.166A2.987 2.987 0 0 0 11 2.5q0-.17-.018-.335C13.356 3.285 15 5.7 15 8.5q0 .37-.038.731A2.988 2.988 0 0 0 13 8.5c0-1.853-1.008-3.47-2.505-4.334M8 15.5c1.453 0 2.802-.442 3.921-1.2a3.01 3.01 0 0 1-1.568-1.387c-.701.375-1.502.587-2.353.587s-1.652-.212-2.353-.587a3.01 3.01 0 0 1-1.568 1.387C5.198 15.057 6.547 15.5 8 15.5M15 11.5c0 1.105-.895 2-2 2s-2-.895-2-2 .895-2 2-2 2 .895 2 2M3 13.5c1.105 0 2-.895 2-2s-.895-2-2-2-2 .895-2 2 .895 2 2 2"/></svg>