<svg xmlns="http://www.w3.org/2000/svg" fill="none" viewBox="0 0 32 32"><path fill="currentColor" d="M20.5 19.8616c0-.3839.4147-.6246.7481-.4341l5.4922 3.1384c.3359.1919.3359.6763 0 .8682l-5.4922 3.1384c-.3334.1905-.7481-.0502-.7481-.4341z"/><path fill="currentColor" fill-rule="evenodd" d="M8.5715 4C7.7035 4 7 4.6888 7 5.5385V6h19c.5523 0 1 .4477 1 1v7.9355a8.94 8.94 0 0 0-2-.7125V9.5385C25 8.6888 24.2964 8 23.4286 8H4.5714C3.7036 8 3 8.6888 3 9.5385v13.8461c0 .8497.7035 1.5385 1.5714 1.5385h6.2857l-.6636 2.599c-.062.2428.1255.4779.3811.4779h4.9409c1.6146 2.412 4.3641 4 7.4845 4 4.9706 0 9-4.0294 9-9 0-2.6655-1.1587-5.0603-3-6.7083V5.5385C29 4.6888 28.2965 4 27.4286 4zM23 30c3.866 0 7-3.134 7-7s-3.134-7-7-7-7 3.134-7 7 3.134 7 7 7M11.3408 20H9.9463v-3.2864H8.1057V20H6.7112v-7.4956h1.3945v2.9788h1.8406v-2.9788h1.3945zm3.8145-6.3831q-.5999 0-.9485.7024-.3435.7024-.3435 1.9534 0 2.3895 1.1436 2.5868a8.94 8.94 0 0 0-.5109 1.1867q-.8608-.1817-1.3813-.9485-.6767-1.0101-.6767-2.8352t.6973-2.8455q.7023-1.0203 1.9482-1.0203.4101 0 .7844.1128.3794.1128.8101.3948l-.4614 1.1331a3.9 3.9 0 0 0-.4922-.2872q-.2615-.1333-.5691-.1333m4.5847.9917a8.9 8.9 0 0 1 1.3779-.4115v-.0059q0-.8358-.5332-1.3125-.5332-.482-1.4817-.482-1.1535 0-1.9123.7588l.6306.9229q.5486-.4923 1.1279-.4922.3794 0 .5845.2307.2102.2256.2102.6716 0 .0617-.0039.1201" clip-rule="evenodd"/></svg>