<svg xmlns="http://www.w3.org/2000/svg" fill="none" viewBox="0 0 24 24"><path fill="currentColor" fill-rule="evenodd" d="M3 2c-1.1046 0-2 .8954-2 2v13c0 1.1046.8954 2 2 2h5.8l-.6323 2.3712c-.0847.3174.1546.6288.4831.6288h6.6984c.3285 0 .5678-.3114.4831-.6288L15.2 19H21c1.1046 0 2-.8954 2-2V4c0-1.1046-.8954-2-2-2zm10.2821 6.3413q-.6594 0-1.0426.7721-.3776.7721-.3776 2.1473 0 2.8629 1.4935 2.8629.6537 0 1.3695-.417v1.3638q-.603.4002-1.5442.4002-1.392 0-2.1416-1.1046-.744-1.1103-.7439-3.1166 0-2.0064.7664-3.1279Q11.8337 7 13.2032 7q.4509 0 .8623.124.417.124.8905.434l-.5073 1.2455a4.24 4.24 0 0 0-.541-.3156q-.2874-.1466-.6256-.1466m-4.193 7.0166h-1.533v-3.6126H5.533v3.6126H4V7.1183h1.533v3.2744h2.0232V7.1184h1.533zm10.7474-6.3854q0 .7777-.3832 1.3075-.3833.5241-1.0821.727v.0451q.7778.124 1.2005.6087.4283.4847.4283 1.3188 0 1.1383-.7101 1.8147-.7045.6763-1.9331.6763-1.0933 0-1.8373-.3889v-1.3751q.372.2254.8059.355.434.1297.8341.1297.6538 0 .9863-.2987.3325-.3044.3325-.9581 0-1.2343-1.516-1.2343h-.4678v-1.144h.4452q.6708 0 1.0258-.3156.3606-.3156.3607-.9412 0-.4904-.2311-.7383-.2255-.2536-.6425-.2536-.6368 0-1.2399.541l-.6932-1.0144q.8341-.834 2.1022-.8341 1.0426 0 1.6287.5298.5861.5241.5861 1.4427" clip-rule="evenodd"/></svg>