<svg xmlns="http://www.w3.org/2000/svg" fill="none" viewBox="0 0 32 32"><path fill="currentColor" d="m11.54 10.019 4.46-1.91 4.46 1.91L16 11.929zM21.248 19.428c-.333-.19-.748.05-.748.434v6.277c0 .384.415.625.748.434l5.492-3.138c.336-.192.336-.676 0-.868z"/><path fill="currentColor" fill-rule="evenodd" d="M4 3c-1.1046 0-2 .8954-2 2v18c0 1.1046.8954 2 2 2h8l-.8447 3.3787c-.0789.3156.1598.6213.4851.6213h4.6513c1.6479 1.8412 4.0428 3 6.7083 3 4.9706 0 9-4.0294 9-9 0-2.1433-.7492-4.1116-2-5.6573V5c0-1.1046-.8954-2-2-2zm20 11.0549V9.9993a1 1 0 0 0-.61-.92l-7-3A1 1 0 0 0 16 6c-.134 0-.2666.027-.39.0793l-7 3a1 1 0 0 0-.61.92v8a1 1 0 0 0 .61.9199l5.5507 2.3789a8.93 8.93 0 0 1 .5912-1.905L10 17.3594v-5.8201l5 2.1399v5.1936a9.04 9.04 0 0 1 2-2.5811v-2.6125l5-2.1399v2.5156A9.1 9.1 0 0 1 23 14c.338 0 .6717.0186 1 .0549M23 30c3.866 0 7-3.134 7-7s-3.134-7-7-7-7 3.134-7 7 3.134 7 7 7" clip-rule="evenodd"/></svg>