<svg xmlns="http://www.w3.org/2000/svg" fill="none" viewBox="0 0 16 16"><path fill="currentColor" d="M8 16c-4.4183 0-8-3.5817-8-8s3.5817-8 8-8 8 3.5817 8 8-3.5817 8-8 8m0-3c.5523 0 1-.4477 1-1s-.4477-1-1-1-1 .4477-1 1 .4477 1 1 1M5 5.6032q0 .2865.231.5325t.567.246q.57 0 .774-.7038.216-.6726.528-1.0182t.972-.3456q.564 0 .921.3425t.357.8407q0 .2554-.117.4733a1.78 1.78 0 0 1-.288.3955q-.171.1774-.555.5263-.438.3985-.696.6881t-.414.6726-.156.9062q0 .4172.213.629T7.862 10q.6 0 .714-.6477.066-.3051.099-.4266t.093-.2429.183-.2678q.123-.1463.327-.3394.738-.685 1.023-.9746t.492-.6882.207-.928q0-.6725-.363-1.2455t-1.029-.9061Q8.942 3 8.072 3q-.936 0-1.638.3986T5.366 4.4044 5 5.6032"/></svg>