<svg xmlns="http://www.w3.org/2000/svg" fill="none" viewBox="0 0 32 32"><path fill="currentColor" fill-rule="evenodd" d="M16 29C8.8203 29 3 23.1797 3 16S8.8203 3 16 3s13 5.8203 13 13-5.8203 13-13 13m0-2c6.0751 0 11-4.9249 11-11S22.0751 5 16 5 5 9.9249 5 16s4.9249 11 11 11m-1-8.8v.64l1.83.04v-.45a2.34 2.34 0 0 1 .31-1.28 5.81 5.81 0 0 1 1.22-1.2 10.6 10.6 0 0 0 1.5-1.37 3.58 3.58 0 0 0 .86-2.43 3.27 3.27 0 0 0-1.12-2.63 4.54 4.54 0 0 0-3-1 8.49 8.49 0 0 0-4.25 1.12l.82 1.75a12.1 12.1 0 0 1 1.54-.65 5.32 5.32 0 0 1 1.72-.27 2.43 2.43 0 0 1 1.57.45c.3929.3064.6159.782.6 1.28a2.21 2.21 0 0 1-.34 1.23 7.62 7.62 0 0 1-1.5 1.45 5.14 5.14 0 0 0-1.37 1.5A3.81 3.81 0 0 0 15 18.2m1.03 2.3q-1.44 0-1.44 1.5a1.6 1.6 0 0 0 .37 1.13 1.38 1.38 0 0 0 1.06.4 1.37 1.37 0 0 0 1.07-.41 1.6 1.6 0 0 0 .38-1.12 1.55 1.55 0 0 0-.37-1.11 1.41 1.41 0 0 0-1.07-.39" clip-rule="evenodd"/></svg>