<svg xmlns="http://www.w3.org/2000/svg" fill="none" viewBox="0 0 24 24"><path fill="url(#help-nav--24-a)" d="M23 12c0 6.0751-4.9249 11-11 11S1 18.0751 1 12 5.9249 1 12 1s11 4.9249 11 11"/><path fill="#fff" d="M8.5 10.451c.552 0 1-.45 1-1.005 0-3.176 5-3.38 5-.421 0 .776-.454 1.479-1.16 1.794-1.681.751-3.536 1.717-2.789 3.971.175.527.741.811 1.265.636.524-.176.807-.745.633-1.271-.258-.779.614-1.095 1.291-1.339.153-.055.296-.107.413-.159C15.58 12.018 16.5 10.595 16.5 9.025c0-5.526-9-5.339-9 .421 0 .555.448 1.005 1 1.005M11.5 19c.552 0 1-.451 1-1.006s-.448-1.006-1-1.006-1 .451-1 1.006S10.948 19 11.5 19"/><path fill="#fff" fill-rule="evenodd" d="M24 12c0 6.6274-5.3726 12-12 12S0 18.6274 0 12 5.3726 0 12 0s12 5.3726 12 12m-2 0c0 5.5228-4.4772 10-10 10S2 17.5228 2 12 6.4772 2 12 2s10 4.4772 10 10" clip-rule="evenodd"/><defs><linearGradient id="help-nav--24-a" x1="12" x2="12" y1="1" y2="20.4118" gradientUnits="userSpaceOnUse"><stop stop-color="#fff" stop-opacity=".4"/><stop offset="1" stop-color="#fff" stop-opacity="0"/></linearGradient></defs></svg>