<svg xmlns="http://www.w3.org/2000/svg" fill="none" viewBox="0 0 32 32"><path fill="currentColor" d="M28.707 4.707c.391-.39.391-1.024 0-1.414s-1.024-.39-1.414 0l-24 24c-.39.391-.39 1.024 0 1.414s1.024.391 1.414 0zM20.89 6.868C19.432 6.326 17.802 6 16 6 8.325 6 3.782 11.916 2.268 15.18a1.898 1.898 0 0 0 .033 1.667C3 18.212 4.25 20.063 6.015 21.743l1.413-1.413C5.88 18.868 4.755 17.239 4.103 15.978 5.485 13.033 9.483 8 16 8c1.184 0 2.285.166 3.302.456z"/><path fill="currentColor" d="M17.554 10.203A6 6 0 0 0 16 10c-3.314 0-6 2.686-6 6 0 .538.071 1.058.203 1.554l1.804-1.804c.124-2.01 1.732-3.618 3.742-3.742zM12.731 23.512A11.16 11.16 0 0 0 16 24c6.169 0 10.356-5.041 11.897-8.023-.595-1.268-1.676-2.924-3.234-4.398l1.413-1.413c1.787 1.707 3.003 3.607 3.656 5.014a1.897 1.897 0 0 1-.033 1.667C28.049 20.071 23.326 26 16 26c-1.768 0-3.384-.345-4.843-.915z"/><path fill="currentColor" d="m19.9925 16.2503 1.8045-1.8044A6 6 0 0 1 22.0002 16c0 3.3137-2.6863 6-6 6a6 6 0 0 1-1.5541-.2032l1.8045-1.8045c2.0097-.1241 3.6178-1.7322 3.7419-3.742"/></svg>