<svg xmlns="http://www.w3.org/2000/svg" fill="none" viewBox="0 0 16 16"><path fill="currentColor" d="M6.3761.1673a8.002 8.002 0 0 1 5.5537.8643 8.002 8.002 0 0 1 3.6132 4.3046 8.002 8.002 0 0 1-.1084 5.6191 8 8 0 0 1-3.7783 4.1601 8.003 8.003 0 0 1-5.5829.6494 8.004 8.004 0 0 1-4.6318-3.1836A8 8 0 0 1 .0471 7.1379c.0596-.549.5526-.9461 1.1016-.8867.5486.0598.946.5528.8867 1.1016a6.003 6.003 0 0 0 1.0458 4.0839 6.0025 6.0025 0 0 0 7.6611 1.9004 6.003 6.003 0 0 0 2.8339-3.1211 6.002 6.002 0 0 0-2.6288-7.4423 6.002 6.002 0 0 0-6.3164.2617c.3892.1369.669.5065.669.9424-.0001.552-.448.9998-1 1H2.177c-.595-.0003-1.0781-.483-1.0781-1.0781l.001-2.122c0-.5523.4477-1 1-1 .5195 0 .9463.3964.995.9033A8 8 0 0 1 6.3761.1673"/><path fill="currentColor" d="M8.0001 4.0003c.5522.0001 1 .4478 1 1v2.5859l1.707 1.707c.3903.3905.3905 1.0236 0 1.414s-1.0235.3903-1.414 0L7.3664 8.7805a1.25 1.25 0 0 1-.3662-.8838V5.0003c0-.5523.4477-1 1-1"/></svg>