<svg xmlns="http://www.w3.org/2000/svg" fill="none" viewBox="0 0 16 16"><g fill="currentColor" fill-rule="evenodd" clip-path="url(#hitmap--16-a)" clip-rule="evenodd"><path d="M8 4C5.7909 4 4 5.7909 4 8s1.7909 4 4 4 4-1.7909 4-4-1.7909-4-4-4M6 8c0-1.1046.8954-2 2-2s2 .8954 2 2-.8954 2-2 2-2-.8954-2-2"/><path d="M8 16c4.4183 0 8-3.5817 8-8s-3.5817-8-8-8-8 3.5817-8 8 3.5817 8 8 8m6-8c0 3.3137-2.6863 6-6 6s-6-2.6863-6-6 2.6863-6 6-6 6 2.6863 6 6"/></g><defs><clipPath id="hitmap--16-a"><path fill="#fff" d="M0 0h16v16H0z"/></clipPath></defs></svg>