<svg xmlns="http://www.w3.org/2000/svg" fill="none" viewBox="0 0 32 32"><path fill="currentColor" d="M10 2c0-.552.448-1 1-1h10c.552 0 1 .448 1 1v7c0 .552-.448 1-1 1h-2.667l.447 1.342c.108.324-.133.658-.474.658h-4.613c-.341 0-.582-.334-.474-.658L13.667 10H11c-.552 0-1-.448-1-1zM9 7.252C6.486 9.061 4.7 11.818 4.166 15h2.034c.405-1.993 1.402-3.771 2.8-5.141zM9.993 26.649 9.75 26h1.886c1.319.641 2.8 1 4.364 1s3.046-.359 4.364-1h1.886l-.243.649a.99.99 0 0 0 .013.735c-1.769 1.028-3.826 1.617-6.019 1.617-2.194 0-4.25-.589-6.019-1.616a.99.99 0 0 0 .013-.735M23 7.252c2.514 1.809 4.3 4.566 4.834 7.748H25.8c-.405-1.993-1.402-3.771-2.8-5.141z"/><path fill="currentColor" d="M21 16c-.552 0-1 .448-1 1v7c0 .552.448 1 1 1h2.667l-.447 1.342c-.108.324.133.658.474.658h4.613c.341 0 .582-.334.474-.658L28.333 25H31c.552 0 1-.448 1-1v-7c0-.552-.448-1-1-1zM0 17c0-.552.448-1 1-1h10c.552 0 1 .448 1 1v7c0 .552-.448 1-1 1H8.333l.447 1.342c.108.324-.133.658-.474.658H3.694c-.341 0-.582-.334-.474-.658L3.667 25H1c-.552 0-1-.448-1-1z"/></svg>