<svg xmlns="http://www.w3.org/2000/svg" fill="none" viewBox="0 0 24 24"><path fill="currentColor" d="M.465 13.675c.26 0 .458-.205.458-.478v-1.552h1.996v1.552c0 .273.198.478.465.478.26 0 .458-.205.458-.478V9.472C3.841 9.198 3.65 9 3.383 9c-.273 0-.465.198-.465.472v1.34H.923V9.479C.923 9.205.732 9 .465 9 .191 9 0 9.205 0 9.479v3.718c0 .273.198.478.465.478M7.359 10.135c-.184 0-.342.103-.41.26l-.916 2.003-.895-2.003c-.068-.164-.225-.26-.403-.26-.246 0-.451.205-.451.444 0 .068.021.137.062.219l1.169 2.577-.123.273c-.15.308-.349.431-.643.431a.3.3 0 0 1-.031-.003.4.4 0 0 0-.051-.004c-.232 0-.417.171-.417.396 0 .157.089.301.233.362.103.048.239.075.39.075.615 0 1.025-.314 1.388-1.059l1.49-3.055a.425.425 0 0 0 .055-.212c0-.239-.205-.444-.444-.444"/><path fill="currentColor" fill-rule="evenodd" d="M9.076 10.565c.232-.273.595-.431 1.032-.431.95 0 1.64.738 1.64 1.764 0 1.025-.69 1.777-1.64 1.777-.424 0-.779-.15-1.012-.41v1.176c0 .267-.198.465-.458.465-.267 0-.465-.198-.465-.465v-3.855c0-.26.198-.458.458-.458.246 0 .431.185.444.438m.007 1.333c0 .554.349.936.854.936s.875-.39.875-.93c0-.547-.362-.936-.875-.936s-.854.376-.854.93M13.81 10.135c-.998 0-1.757.766-1.757 1.77 0 1.012.786 1.77 1.852 1.77.396 0 .766-.109 1.073-.314.164-.109.232-.219.232-.369 0-.212-.164-.369-.376-.369-.068 0-.13.021-.198.062-.205.13-.458.198-.704.198-.499 0-.841-.246-.95-.67h1.928c.301 0 .506-.185.506-.472v-.02c0-.916-.684-1.586-1.606-1.586m-.02.745c.431 0 .718.28.731.684H12.983c.103-.417.403-.683.807-.683" clip-rule="evenodd"/><path fill="currentColor" d="M16.811 10.552c.212-.239.506-.383.827-.383.246 0 .417.164.417.417 0 .246-.171.417-.431.444-.492.034-.793.355-.793.875v1.299c0 .273-.198.472-.458.472-.267 0-.465-.205-.465-.472v-2.604c0-.267.198-.465.458-.465.239 0 .424.178.444.417M23.111 9.328c.089-.212.239-.328.438-.328.26 0 .451.198.451.444 0 .082-.014.171-.055.246l-1.538 3.671c-.089.212-.232.314-.437.314-.205 0-.355-.102-.437-.314l-1.545-3.67a.61.61 0 0 1-.055-.246c0-.246.198-.444.458-.444.198 0 .349.116.431.328l1.148 2.823zM18.522 11.016h1.046c.226 0 .39.164.39.383s-.164.39-.39.39h-1.046c-.226 0-.39-.171-.39-.39s.164-.383.39-.383"/></svg>