<svg xmlns="http://www.w3.org/2000/svg" fill="none" viewBox="0 0 24 24"><path fill="currentColor" d="M12 2c3.272 0 6.176 1.571 8.001 4H3.999C5.824 3.571 8.728 2 12 2M9.218 10.729v1.117h.36q.363 0 .492-.051.132-.051.215-.183.083-.134.083-.328 0-.196-.086-.33t-.212-.18q-.126-.046-.534-.046zM15.236 11.728h.483q.443 0 .564-.038.121-.04.196-.158.075-.118.075-.314 0-.188-.075-.301a.382.382 0 0 0-.204-.158q-.091-.029-.529-.029h-.51z"/><path fill="currentColor" fill-rule="evenodd" d="M24 9c0-1.1046-.8954-2-2-2H2C.8954 7 0 7.8954 0 9v6c0 1.1046.8954 2 2 2h20c1.1046 0 2-.8954 2-2zM2.3079 14v-3.937h.6499v1.5495H4.236V10.063h.6526V14H4.236v-1.7214H2.9578V14zm4.1008 0v-1.657l-1.1816-2.28h.7626l.76 1.5576.7466-1.5576h.7493l-1.187 2.2854V14zm2.1592 0v-3.937h1.0473q.5855 0 .7654.0564.2874.0914.4727.3894.188.298.188.7681 0 .4269-.1612.717-.1611.2874-.4028.4055-.2416.1155-.8325.1155h-.427V14zm3.0105 0v-3.937h2.3955v.666h-1.7456v.8728h1.622v.6633h-1.622v1.0716h1.8047V14zm3.0078 0v-3.937h1.3723q.5264 0 .7519.1074.2256.1048.3707.3679.145.2606.145.6258 0 .4619-.2229.7439-.2202.2819-.6284.3545.2094.1503.3464.3303.137.1772.3733.6391l.3921.7681h-.7762l-.4726-.8567q-.2552-.4646-.3464-.5801-.0914-.1181-.1934-.1611-.102-.0457-.3276-.0457h-.1343V14zm3.0669-1.05v-.7547h1.2165v.7547zM20.1667 14l-1.1521-3.937h.7063l.8165 2.9138.7895-2.9138h.6929L20.865 14z" clip-rule="evenodd"/><path fill="currentColor" d="M3.9993 18c1.8244 2.4289 4.729 4 8.0007 4 3.2716 0 6.1763-1.5711 8.0007-4z"/></svg>