<svg xmlns="http://www.w3.org/2000/svg" fill="none" viewBox="0 0 32 32"><path fill="currentColor" fill-rule="evenodd" d="M20.0503 20.0503A7 7 0 0 0 18 25v1a7 7 0 0 0 1.26 4H2V2h28v17.26A7 7 0 0 0 26 18h-1a7 7 0 0 0-4.9497 2.0503m-4.2359 4.1284a1.24 1.24 0 0 0 .4556-.3086 1.58 1.58 0 0 0 .34-1.0801 1.62 1.62 0 0 0-.34-1.1101 1.271 1.271 0 0 0-1-.3799c-.87 0-1.31.49-1.31 1.49a1.48 1.48 0 0 0 .37 1.1299c.2593.2277.595.3492.94.3401a1.24 1.24 0 0 0 .5444-.0813m.0956-4.9988a3.26 3.26 0 0 1 .36-1.6499h.02a6.61 6.61 0 0 1 1.45-1.55 14.3 14.3 0 0 0 1.79-1.74c.2709-.343.4837-.728.63-1.1399a4.3 4.3 0 0 0 .22-1.4102 3.68 3.68 0 0 0-1.16-2.8898 4.73 4.73 0 0 0-3.24-1 9.15 9.15 0 0 0-4.31 1.0798l.64 1.4702a9.05 9.05 0 0 1 1.88-.74 7.15 7.15 0 0 1 1.68-.2002 3 3 0 0 1 2.05.6101 2.11 2.11 0 0 1 .72 1.72 2.84 2.84 0 0 1-.39 1.52 9.46 9.46 0 0 1-1.87 1.8899 5.61 5.61 0 0 0-1.46 1.74A4.93 4.93 0 0 0 14.52 19v.54h1.39z" clip-rule="evenodd"/><path fill="currentColor" d="M27.28 26.96h-3.61l.33-.9h2.95zM25.5 22.31h-.05l-.05.15-1 2.5h2.16l-1.01-2.5z"/><path fill="currentColor" fill-rule="evenodd" d="M21.8888 20.0955a6.5 6.5 0 1 1 7.2224 10.809 6.5 6.5 0 0 1-7.2224-10.809m6.0912 7.9646.39.9399h1.33l-3.43-8.0601h-1.46L21.23 29h1.37l.4-.9399z" clip-rule="evenodd"/></svg>