<svg xmlns="http://www.w3.org/2000/svg" fill="none" viewBox="0 0 32 32"><path fill="currentColor" fill-rule="evenodd" d="M12.8604 8.4788 5.6732 21.0564A4 4 0 0 0 5 21c-2.2091 0-4 1.7909-4 4s1.7909 4 4 4c1.8638 0 3.43-1.2748 3.874-3h14.252c.4441 1.7252 2.0102 3 3.874 3 2.2091 0 4-1.7909 4-4s-1.7909-4-4-4c-.2294 0-.4543.0193-.6732.0564L19.1396 8.4787A3.983 3.983 0 0 0 20 6c0-2.2091-1.7909-4-4-4s-4 1.7909-4 4c0 .9362.3216 1.7973.8604 2.4787M16 10a3.99 3.99 0 0 1-1.5318-.3038l-6.963 12.1853C8.167 22.4138 8.6559 23.1526 8.874 24h14.252c.2181-.8474.707-1.5862 1.3688-2.1185l-6.963-12.1853A3.99 3.99 0 0 1 16 10m2-4c0 1.1046-.8954 2-2 2s-2-.8954-2-2 .8954-2 2-2 2 .8954 2 2m11 19c0 1.1046-.8954 2-2 2s-2-.8954-2-2 .8954-2 2-2 2 .8954 2 2M7 25c0 1.1046-.8954 2-2 2s-2-.8954-2-2 .8954-2 2-2 2 .8954 2 2" clip-rule="evenodd"/></svg>