<svg xmlns="http://www.w3.org/2000/svg" fill="none" viewBox="0 0 32 32"><path fill="currentColor" d="M4.48 9.538C3.535 11.317 3 13.346 3 15.5c0 2.402.665 4.648 1.822 6.565 1.456-.798 3.149-1.442 5.009-1.887-.303-1.484-.466-3.055-.466-4.678 0-1.349.112-2.66.324-3.917-1.951-.48-3.715-1.178-5.209-2.045M13.314 28c-2.941-.565-5.523-2.142-7.367-4.355 1.262-.655 2.738-1.187 4.365-1.561.687 2.278 1.719 4.295 3.003 5.917M25.629 23.502C23.777 25.79 21.148 27.423 18.144 28c1.299-1.642 2.341-3.688 3.028-5.999 1.654.351 3.161.863 4.457 1.501M27.068 9.711c.888 1.737 1.39 3.704 1.39 5.789 0 2.334-.628 4.522-1.725 6.403-1.487-.776-3.207-1.395-5.088-1.813.292-1.459.448-2.999.448-4.59 0-1.316-.107-2.598-.309-3.827 1.969-.451 3.758-1.121 5.284-1.962M18.144 3c3.249.624 6.058 2.483 7.921 5.069-1.337.715-2.925 1.289-4.685 1.68-.675-2.62-1.797-4.932-3.235-6.749M5.507 7.913C7.369 5.408 10.131 3.611 13.314 3c-1.422 1.797-2.536 4.078-3.213 6.662-1.735-.417-3.292-1.014-4.594-1.749M15.729 27.783c1.504-1.503 2.717-3.619 3.48-6.113-1.054-.134-2.153-.204-3.281-.204-1.265 0-2.493.089-3.663.255.765 2.472 1.97 4.568 3.464 6.062M20.104 15.5c0-1.192-.094-2.351-.271-3.462-1.252.183-2.56.28-3.905.28-1.485 0-2.925-.118-4.294-.34-.183 1.128-.281 2.309-.281 3.523 0 1.495.147 2.937.422 4.295 1.327-.207 2.719-.317 4.153-.317 1.296 0 2.557.09 3.767.26.267-1.342.41-2.764.41-4.237M19.427 10.096c-.739-2.826-2.041-5.225-3.698-6.88-1.646 1.644-2.941 4.023-3.683 6.826 1.236.188 2.538.287 3.882.287 1.206 0 2.378-.081 3.499-.233"/></svg>