<svg xmlns="http://www.w3.org/2000/svg" fill="none" viewBox="0 0 24 24"><path fill="currentColor" d="M13.298 12.288 12 13.586l-1.298-1.298c-.389-.389-1.021-.389-1.41 0-.389.389-.389 1.021 0 1.41l1.298 1.298-1.298 1.298c-.389.389-.389 1.021 0 1.41s1.021.389 1.41 0L12 16.406l1.298 1.298c.389.389 1.021.389 1.41 0 .389-.389.389-1.021 0-1.41l-1.298-1.298 1.298-1.298c.389-.389.389-1.021 0-1.41-.389-.389-1.021-.389-1.41 0M5 6c0 .552.448 1 1 1s1-.448 1-1-.448-1-1-1-1 .448-1 1M8 6c0 .552.448 1 1 1s1-.448 1-1-.448-1-1-1-1 .448-1 1M12 7c-.552 0-1-.448-1-1s.448-1 1-1 1 .448 1 1-.448 1-1 1"/><path fill="currentColor" fill-rule="evenodd" d="M2.9918 2C2.4553 2 2 2.444 2 2.9918v18.0164c0 .5365.444.9918.9918.9918h18.0164c.5365 0 .9918-.444.9918-.9918V2.9918C22 2.4553 21.556 2 21.0082 2zM4 19.9975V10h16v10zM20 4H4v4h16z" clip-rule="evenodd"/></svg>