<svg xmlns="http://www.w3.org/2000/svg" fill="none" viewBox="0 0 24 24"><path fill="currentColor" fill-rule="evenodd" d="M11.4855 2.1425a1 1 0 0 1 1.029 0l10 6c.6473.3884.6473 1.3266 0 1.715L18.9437 12l3.5708 2.1425c.6473.3884.6473 1.3266 0 1.715l-10 6a1 1 0 0 1-1.029 0l-10-6c-.6473-.3884-.6473-1.3266 0-1.715L5.0564 12 1.4855 9.8575c-.6473-.3884-.6473-1.3266 0-1.715zm-3.9533 9.0106a1 1 0 0 0-.034-.0203L3.9438 9 12 4.1662 20.0564 9l-3.5546 2.1327a1 1 0 0 0-.034.0205L12 13.8338zM7 13.1662 3.9437 15 12 19.8338 20.0563 15 17 13.1662l-4.4855 2.6913a1 1 0 0 1-1.029 0z" clip-rule="evenodd"/></svg>