<svg xmlns="http://www.w3.org/2000/svg" fill="none" viewBox="0 0 32 32"><path fill="currentColor" fill-rule="evenodd" d="M13 23c.2652 0 .5196-.1054.7071-.2929l1.4658-1.4658C16.3741 21.7393 17.6691 22 19 22c5.5228 0 10-4.4772 10-10S24.5228 2 19 2 9 6.4772 9 12c0 1.3309.2607 2.6259.7587 3.8271L2.293 23.2929A1 1 0 0 0 2 24v4c0 .5523.4477 1 1 1h4c.2652 0 .5196-.1054.7071-.2929l1-1A1 1 0 0 0 9 27v-1h1c.2652 0 .5196-.1054.7071-.2929l1-1A1 1 0 0 0 12 24v-1zm2.4068-3.8501a1 1 0 0 0-1.1569.186L12.5858 21H11c-.5523 0-1 .4477-1 1v1.5858L9.5858 24H8c-.5523 0-1 .4477-1 1v1.5858L6.5858 27H4v-2.5858l7.6641-7.6641a1 1 0 0 0 .186-1.1569C11.2937 14.4884 11 13.2663 11 12c0-4.4183 3.5817-8 8-8s8 3.5817 8 8-3.5817 8-8 8c-1.2663 0-2.4884-.2937-3.5932-.8501M16 11c0 2.2091 1.7909 4 4 4s4-1.7909 4-4-1.7909-4-4-4-4 1.7909-4 4m6 0c0 1.1046-.8954 2-2 2s-2-.8954-2-2 .8954-2 2-2 2 .8954 2 2" clip-rule="evenodd"/></svg>