<svg xmlns="http://www.w3.org/2000/svg" fill="none" viewBox="0 0 24 24"><path fill="currentColor" fill-rule="evenodd" d="m11.194 2.1838 10.6227 10.6218a.6243.6243 0 0 1 0 .8838l-8.1277 8.1275a.622.622 0 0 1-.4419.1831.623.623 0 0 1-.4418-.1831L2.1831 11.195A.624.624 0 0 1 2 10.7506l.0288-8.1281A.6247.6247 0 0 1 2.6538 2l8.0983.0006a.624.624 0 0 1 .4419.1831M10.1565 4.063l-6.0702-.0005-.0216 6.0971 9.1825 9.1822 6.0945-6.0944zm-.165 4.2975c0 .901-.7304 1.6313-1.6313 1.6313-.901 0-1.6313-.7304-1.6313-1.6313s.7303-1.6312 1.6313-1.6312 1.6312.7303 1.6312 1.6312" clip-rule="evenodd"/></svg>