<svg xmlns="http://www.w3.org/2000/svg" fill="none" viewBox="0 0 32 32"><path fill="currentColor" fill-rule="evenodd" d="M5 4c-1.1046 0-2 .8954-2 2v16h26V6c0-1.1046-.8954-2-2-2zm6.3838 12.5H10.085v-5.4395h1.2988zm-1.3526-6.8603q0-.3224.1856-.5079.1904-.1905.5273-.1904.3174 0 .5079.1904.1904.1856.1904.5078 0 .332-.1953.5176-.1953.1807-.503.1807-.3222 0-.5175-.1807-.1953-.1855-.1954-.5175M6.1299 16.5V9.3613H7.458v5.9766h1.8408V16.5zm9.0771-3.2422V16.5h1.3086v-3.5498q0-.9765-.3711-1.4844-.3662-.5078-1.1084-.5078-.4394 0-.7666.2149-.3271.2099-.5029.5859h-.083l-.1563-.6983h-1.0302V16.5h1.2988v-2.6123q0-.9912.1953-1.4063.1953-.4199.6152-.4199.3174 0 .459.3028t.1416.8935M20.5049 16.5l-.1611-.6982h-.0684q-.1807.3711-.5176.5859-.332.21-.7617.21-.7325 0-1.1084-.4981t-.376-1.4892v-3.5499h1.3135v3.2374q0 .5957.1416.8984t.459.3027q.4199 0 .6103-.4199.1953-.4199.1953-1.4111v-2.6075h1.3135V16.5zm1.709-5.4395 1.3574 2.6612L22.1504 16.5h1.3525l.7178-1.7383.7715 1.7383h1.3574l-1.4258-2.7783 1.3672-2.6612h-1.3379l-.6689 1.6602-.7227-1.6602z" clip-rule="evenodd"/><path fill="currentColor" d="M0 24h11c0 .8284.6716 1.5 1.5 1.5h7c.8284 0 1.5-.6716 1.5-1.5h11v2.5c0 .8284-.6716 1.5-1.5 1.5h-29C.6716 28 0 27.3284 0 26.5z"/></svg>