<svg xmlns="http://www.w3.org/2000/svg" fill="none" viewBox="0 0 96 96"><path fill="url(#laptop-default-disabled-ill--96-a)" d="M15 23h66v46H15z"/><path fill="url(#laptop-default-disabled-ill--96-b)" fill-opacity=".15" d="M32 23h49v42H56z"/><path fill="url(#laptop-default-disabled-ill--96-c)" fill-opacity=".25" d="M49 23h32v23H63.1224z"/><path stroke="url(#laptop-default-disabled-ill--96-d)" stroke-opacity=".2" d="M80.5 23.5v45h-65v-45z"/><path fill="#434c59" d="M15 19c-1.6569 0-3 1.3431-3 3v49H5c-.5523 0-1 .4477-1 1v3c0 1.1046.8954 2 2 2h84c1.1046 0 2-.8954 2-2v-3c0-.5523-.4477-1-1-1h-7V22c0-1.6569-1.3431-3-3-3z"/><path fill="#303640" d="M4 73v2c0 1.1046.8954 2 2 2h84c1.1046 0 2-.8954 2-2v-2c0 1.1046-.8954 2-2 2H6c-1.1046 0-2-.8954-2-2"/><path fill="#6c7480" d="M4 72c0-.552.448-1 1-1h86c.552 0 1 .448 1 1zM15 19c-1.657 0-3 1.343-3 3v1c0-1.657 1.343-3 3-3h66c1.657 0 3 1.343 3 3v-1c0-1.657-1.343-3-3-3z"/><path fill="#ea3939" d="M84 73.5a.5.5 0 0 1 .5-.5h3a.5.5 0 0 1 0 1h-3a.5.5 0 0 1-.5-.5"/><path fill="url(#laptop-default-disabled-ill--96-e)" d="M37 71h22c0 1.1046-.8954 2-2 2H39c-1.1046 0-2-.8954-2-2"/><defs><linearGradient id="laptop-default-disabled-ill--96-a" x1="16" x2="81" y1="68" y2="26" gradientUnits="userSpaceOnUse"><stop stop-color="#6c7480"/><stop offset="1" stop-color="#e6ebf2"/></linearGradient><linearGradient id="laptop-default-disabled-ill--96-b" x1="44" x2="44" y1="23" y2="65" gradientUnits="userSpaceOnUse"><stop stop-color="#fff"/><stop offset="1" stop-color="#ebebeb" stop-opacity="0"/></linearGradient><linearGradient id="laptop-default-disabled-ill--96-c" x1="56.5" x2="56.5" y1="23" y2="46" gradientUnits="userSpaceOnUse"><stop stop-color="#fff"/><stop offset="1" stop-color="#fff" stop-opacity="0"/></linearGradient><linearGradient id="laptop-default-disabled-ill--96-d" x1="48" x2="48" y1="23" y2="69" gradientUnits="userSpaceOnUse"><stop stop-color="#1d2026"/><stop offset="1" stop-color="#1d2026" stop-opacity="0"/></linearGradient><linearGradient id="laptop-default-disabled-ill--96-e" x1="46" x2="46" y1="71" y2="73" gradientUnits="userSpaceOnUse"><stop stop-color="#a1a8b2"/><stop offset=".0001" stop-color="#84817f"/><stop offset="1" stop-color="#92918f"/></linearGradient></defs></svg>