<svg xmlns="http://www.w3.org/2000/svg" fill="none" viewBox="0 0 96 96"><path fill="url(#laptop-linux-disabled-ill--96-a)" d="M15 23h66v46H15z"/><path fill="#fafcff" d="M32.413 51v-8.727h2.109v7.014h3.631V51zM39.245 51v-6.545h2.084V51zm1.044-7.308q-.439 0-.754-.29-.315-.294-.315-.707 0-.409.315-.699.315-.294.754-.294.443 0 .754.294.315.29.315.699 0 .413-.315.707-.311.29-.754.29M44.739 47.267V51h-2.084v-6.545h1.982v1.202h.072q.217-.601.742-.942.524-.345 1.249-.345.69 0 1.197.311.511.307.793.861.285.55.281 1.287V51h-2.084v-3.763q.004-.545-.277-.852-.277-.307-.771-.307-.328 0-.579.145-.247.141-.384.405-.132.264-.136.639M54.483 48.175v-3.72h2.08V51h-1.986v-1.219h-.068q-.217.601-.741.955-.52.349-1.257.349-.669 0-1.176-.307-.507-.307-.788-.856-.281-.554-.285-1.295v-4.172h2.084v3.763q.004.533.281.84t.754.307q.311 0 .558-.136.251-.141.396-.405.149-.268.149-.648M59.662 44.455l1.078 2.156 1.117-2.156h2.101l-1.828 3.273L64.025 51h-2.084l-1.202-2.173L59.568 51h-2.114l1.901-3.273-1.807-3.273z"/><path fill="url(#laptop-linux-disabled-ill--96-b)" d="M32 23h49v42H56z" opacity=".15"/><path fill="url(#laptop-linux-disabled-ill--96-c)" d="M49 23h32v23H63.1224z" opacity=".25"/><path fill="url(#laptop-linux-disabled-ill--96-d)" fill-rule="evenodd" d="M80 24H16v44h64zm-65-1v46h66V23z" clip-rule="evenodd" opacity=".2"/><path fill="#434c59" d="M15 19c-1.6569 0-3 1.3431-3 3v49H5c-.5523 0-1 .4477-1 1v3c0 1.1046.8954 2 2 2h84c1.1046 0 2-.8954 2-2v-3c0-.5523-.4477-1-1-1h-7V22c0-1.6569-1.3431-3-3-3z"/><path fill="#303640" d="M4 73v2c0 1.1046.8954 2 2 2h84c1.1046 0 2-.8954 2-2v-2c0 1.1046-.8954 2-2 2H6c-1.1046 0-2-.8954-2-2"/><path fill="#6c7480" d="M4 72c0-.552.448-1 1-1h86c.552 0 1 .448 1 1zM15 19c-1.657 0-3 1.343-3 3v1c0-1.657 1.343-3 3-3h66c1.657 0 3 1.343 3 3v-1c0-1.657-1.343-3-3-3z"/><path fill="#ea3939" d="M84 73.5a.5.5 0 0 1 .5-.5h3a.5.5 0 0 1 0 1h-3a.5.5 0 0 1-.5-.5"/><path fill="url(#laptop-linux-disabled-ill--96-e)" d="M37 71h22c0 1.1046-.8954 2-2 2H39c-1.1046 0-2-.8954-2-2"/><defs><linearGradient id="laptop-linux-disabled-ill--96-a" x1="16" x2="81" y1="68" y2="26" gradientUnits="userSpaceOnUse"><stop stop-color="#6c7480"/><stop offset="1" stop-color="#e6ebf2"/></linearGradient><linearGradient id="laptop-linux-disabled-ill--96-b" x1="44" x2="44" y1="23" y2="65" gradientUnits="userSpaceOnUse"><stop stop-color="#fff"/><stop offset="1" stop-color="#ebebeb" stop-opacity="0"/></linearGradient><linearGradient id="laptop-linux-disabled-ill--96-c" x1="56.5" x2="56.5" y1="23" y2="46" gradientUnits="userSpaceOnUse"><stop stop-color="#fff"/><stop offset="1" stop-color="#fff" stop-opacity="0"/></linearGradient><linearGradient id="laptop-linux-disabled-ill--96-d" x1="48" x2="48" y1="23" y2="69" gradientUnits="userSpaceOnUse"><stop stop-color="#1d2026"/><stop offset="1" stop-color="#1d2026" stop-opacity="0"/></linearGradient><linearGradient id="laptop-linux-disabled-ill--96-e" x1="46" x2="46" y1="71" y2="73" gradientUnits="userSpaceOnUse"><stop stop-color="#a1a8b2"/><stop offset=".0001" stop-color="#84817f"/><stop offset="1" stop-color="#92918f"/></linearGradient></defs></svg>