<svg xmlns="http://www.w3.org/2000/svg" fill="none" viewBox="0 0 96 96"><path fill="url(#laptop-mac-book-disabled-ill--96-a)" d="M14 22h68v47H14z"/><path fill="#2668c5" d="M49.874 40.962c.538-.272 1.131-.571 1.999-.571 1.149 0 3.048 1.018 3.814 2.168-1.456.552-2.49 1.946-2.49 3.579 0 1.648 1.053 3.054 2.531 3.594-.378.856-.6 1.278-1.107 2.072-.74 1.16-1.754 2.625-3.051 2.635-.533.005-.891-.158-1.277-.333-.449-.204-.935-.424-1.776-.418-.834.004-1.302.222-1.732.421-.376.174-.723.336-1.259.33-1.895 0-5.251-4.222-5.251-8.027 0-4.182 2.836-5.957 4.702-5.958.719 0 1.345.258 1.942.504.542.223 1.06.436 1.6.436.5 0 .911-.207 1.359-.433M51.077 38.934c-.976.965-2.251 1.389-3.335 1.218l-.001.001c-.173-1.072.257-2.332 1.233-3.296s2.251-1.389 3.335-1.218l.001-.001c.173 1.072-.257 2.332-1.233 3.296"/><path fill="url(#laptop-mac-book-disabled-ill--96-b)" d="M31.5151 22H82v42.913H56.2424z" opacity=".15"/><path fill="url(#laptop-mac-book-disabled-ill--96-c)" d="M49.0303 22H82v23.5H63.5807z" opacity=".25"/><path fill="url(#laptop-mac-book-disabled-ill--96-d)" fill-rule="evenodd" d="M81 23H15v45h66zm-67-1v47h68V22z" clip-rule="evenodd" opacity=".2"/><path fill="#434c59" fill-rule="evenodd" d="M12 22c0-1.6569 1.3431-3 3-3h66c1.6569 0 3 1.3431 3 3v49H12zm70 0v47H14V22h28.625c.5523 0 .9793.4745 1.2445.959.3396.6203.9984 1.041 1.7555 1.041h4.75c.7571 0 1.4159-.4207 1.7555-1.041.2652-.4845.6922-.959 1.2445-.959z" clip-rule="evenodd"/><path fill="#6c7480" d="M15 19c-1.6569 0-3 1.3431-3 3v1c0-1.6569 1.3431-3 3-3h66c1.6569 0 3 1.3431 3 3v-1c0-1.6569-1.3431-3-3-3z"/><path fill="#ced2d9" d="M15 19c-1.6569 0-3 1.3431-3 3v49H5c-.5523 0-1 .4477-1 1v3c0 1.1046.8954 2 2 2h84c1.1046 0 2-.8954 2-2v-3c0-.5523-.4477-1-1-1h-7V22c0-1.6569-1.3431-3-3-3z"/><path fill="#b4b8bf" d="M4 74v1c0 1.1046.8954 2 2 2h84c1.1046 0 2-.8954 2-2v-1c0 1.1046-.8954 2-2 2H6c-1.1046 0-2-.8954-2-2"/><path fill="url(#laptop-mac-book-disabled-ill--96-e)" d="M37 71h22v2H37z"/><defs><linearGradient id="laptop-mac-book-disabled-ill--96-a" x1="15.0303" x2="81.6696" y1="67.9783" y2="24.5581" gradientUnits="userSpaceOnUse"><stop stop-color="#6c7480"/><stop offset="1" stop-color="#e6ebf2"/></linearGradient><linearGradient id="laptop-mac-book-disabled-ill--96-b" x1="43.8788" x2="43.8788" y1="22" y2="64.913" gradientUnits="userSpaceOnUse"><stop stop-color="#fff"/><stop offset="1" stop-color="#ebebeb" stop-opacity="0"/></linearGradient><linearGradient id="laptop-mac-book-disabled-ill--96-c" x1="56.7575" x2="56.7575" y1="22" y2="45.5" gradientUnits="userSpaceOnUse"><stop stop-color="#fff"/><stop offset="1" stop-color="#fff" stop-opacity="0"/></linearGradient><linearGradient id="laptop-mac-book-disabled-ill--96-d" x1="48" x2="48" y1="22" y2="69" gradientUnits="userSpaceOnUse"><stop stop-color="#1d2026"/><stop offset="1" stop-color="#1d2026" stop-opacity="0"/></linearGradient><linearGradient id="laptop-mac-book-disabled-ill--96-e" x1="48" x2="48" y1="71" y2="73" gradientUnits="userSpaceOnUse"><stop stop-color="#a1a8b2"/><stop offset="1" stop-color="#fafcff"/></linearGradient></defs></svg>