<svg xmlns="http://www.w3.org/2000/svg" fill="none" viewBox="0 0 24 24"><path fill="currentColor" fill-rule="evenodd" d="M4 3c-1.1046 0-2 .8954-2 2v11h20V5c0-1.1046-.8954-2-2-2zm3.6626 3.8489q-.1392.1391-.1392.3808 0 .249.1465.3882.1465.1355.3882.1355.2308 0 .3772-.1355.1465-.1391.1465-.3882 0-.2416-.1428-.3808-.1429-.1429-.3809-.1429-.2527 0-.3955.1429m-.0989 5.5261h.9741V8.2954h-.974zm-2.9663 0V7.021h.9961v4.4824h1.3806v.8716zm6.8079 0V9.9434q0-.4432-.1062-.6702t-.3443-.227q-.3148 0-.4614.3149-.1464.3112-.1465 1.0547v1.9592h-.9741V8.2954h.7727l.1172.5237h.0623q.1318-.282.3771-.4395.2454-.161.575-.161.5566 0 .8313.3808.2783.3808.2783 1.1133v2.6623zm3.9734 0-.1209-.5237h-.0513q-.1355.2783-.3881.4395-.2491.1575-.5713.1574-.5493 0-.8313-.3735t-.282-1.1169V8.2954h.9851v2.428q0 .4467.1062.6738t.3442.2271q.315 0 .4578-.315.1465-.3149.1465-1.0583V8.2954h.9851v4.0796zm2.2998-2.0837-1.0181-1.9959h1.0107l.542 1.2451.5017-1.245h1.0035l-1.0254 1.9958 1.0693 2.0837h-1.0181l-.5786-1.3037-.5383 1.3037h-1.0144z" clip-rule="evenodd"/><path fill="currentColor" d="M0 19.5V18h8c0 .5523.4477 1 1 1h6c.5523 0 1-.4477 1-1h8v1.5c0 .8284-.6716 1.5-1.5 1.5h-21C.6716 21 0 20.3284 0 19.5"/></svg>