<svg xmlns="http://www.w3.org/2000/svg" fill="none" viewBox="0 0 16 16"><circle cx="8" cy="8" r="8" fill="#fff"/><path fill="#ea3939" d="M8 15c-3.866 0-7-3.134-7-7s3.134-7 7-7 7 3.134 7 7-3.134 7-7 7"/><path fill="#fff" fill-rule="evenodd" d="M9.8257 9.1794c1.6511 0 2.9896-1.3386 2.9896-2.9897S11.4768 3.2 9.8257 3.2C8.1745 3.2 6.836 4.5385 6.836 6.1897c0 .1483.0108.2942.0317.4367.057.3896-.0168.8041-.2952 1.0825L4.173 10.1085a1 1 0 0 0-.2912.7662l.0163.2747a1 1 0 0 0 .9392.9392l.2747.0162a1 1 0 0 0 .7661-.2911l2.3794-2.3794c.2822-.2823.7038-.354 1.098-.2917.1533.0242.3103.0368.4703.0368m.8009-2.7863c.5503 0 .9965-.4462.9965-.9965S11.1769 4.4 10.6266 4.4s-.9966.4462-.9966.9966.4462.9965.9966.9965" clip-rule="evenodd"/></svg>