<svg xmlns="http://www.w3.org/2000/svg" fill="none" viewBox="0 0 24 24"><path fill="currentColor" fill-rule="evenodd" d="M19.2951 2.2925c.39-.39 1.0224-.39 1.4124 0s.39 1.0223 0 1.4124l-2.3609 2.3609A6.91 6.91 0 0 1 19 9c0 2.4082-1.0622 4.4225-3 5.5947v1.4053c0 1.1046-.8954 2-2 2h-4c-.9758 0-1.7883-.6987-1.9646-1.6232L5.705 18.7075c-.39.39-1.0224.39-1.4124 0s-.39-1.0224 0-1.4124zM10 14.4124l6.7997-6.7998c.1303.4419.2003.9077.2003 1.3875 0 1.887-.8519 3.3375-2.4338 4.099a1 1 0 0 0-.5662.901v2h-4z" clip-rule="evenodd"/><path fill="currentColor" d="M14 19c.552 0 1 .448 1 1s-.448 1-1 1h-4c-.552 0-1-.448-1-1s.448-1 1-1zM14.749 4.838l1.434-1.434C15.014 2.524 13.565 2 12 2 8.152 2 5 5.172 5 9c0 1.624.483 3.068 1.391 4.196l1.427-1.427C7.281 11.022 7 10.083 7 9c0-2.726 2.259-5 5-5 1.012 0 1.958.31 2.749.838"/></svg>