<svg xmlns="http://www.w3.org/2000/svg" fill="none" viewBox="0 0 32 32"><path fill="currentColor" d="m20.013.015.08.142.16.071c.284.155.535.367.737.621a2.48 2.48 0 0 1 .444.862c.289 1.312.313 2.67.07 3.992.011.371-.135.779-.28 1.184-.252.705-.501 1.399.09 1.863.45.071.97.071 1.45.071h.001c1.161-.061 2.332-.081 3.503 0a3.82 3.82 0 0 1 .801.081h.07c.262.047.517.125.761.234.254.093.488.235.691.417.686.565.598 1.287.511 2.004-.082.674-.163 1.344.399 1.876.931.975.42 2.306-.38 3.159-.272.476-.131 1.05.009 1.616.179.726.354 1.44-.349 1.919-.946.336-1.062 1.108-1.182 1.911-.058.386-.117.78-.269 1.136-.876 1.086-2.277 1.132-3.592 1.176-.308.01-.611.02-.901.043a56.2 56.2 0 0 1-6.275-.223c-.959-.127-1.783-.623-2.609-1.122-.76-.458-1.522-.917-2.394-1.093h-.55V9.765c1.528-.455 2.923-1.284 4.063-2.414s1.988-2.526 2.472-4.066c.06-.209.115-.435.172-.668.238-.977.504-2.065 1.239-2.45a1.15 1.15 0 0 1 .38-.152 1.67 1.67 0 0 1 .45 0zM3.001 8.75h5.004c.553 0 1.001.455 1.001 1.016v14.219c0 .561-.448 1.016-1.001 1.016H3.001C2.448 25 2 24.545 2 23.984V9.765c0-.561.448-1.016 1.001-1.016"/></svg>