<svg xmlns="http://www.w3.org/2000/svg" fill="none" viewBox="0 0 16 16"><path fill="currentColor" d="m10.007 1.758.04.071.08.036a1.22 1.22 0 0 1 .369.311c.101.127.177.274.222.431.145.656.157 1.335.035 1.996.006.185-.068.39-.14.592-.126.352-.25.699.045.932.225.036.485.036.725.036.58-.03 1.166-.041 1.752 0 .134-.001.269.013.4.041h.035c.131.023.259.063.38.117.127.047.244.117.345.208.343.283.299.644.256 1.002-.041.337-.082.672.2.938.465.488.21 1.153-.19 1.579-.136.238-.065.525.004.808.089.363.177.72-.174.96-.473.168-.531.554-.591.956-.029.193-.058.39-.135.568-.438.543-1.139.566-1.796.588-.154.005-.305.01-.451.022a28.1 28.1 0 0 1-3.137-.112c-.48-.063-.891-.312-1.305-.561-.38-.229-.761-.459-1.197-.546h-.275V6.633a4.853 4.853 0 0 0 2.031-1.207 4.953 4.953 0 0 0 1.236-2.033c.03-.104.058-.218.086-.334.119-.488.252-1.032.62-1.225a.57.57 0 0 1 .19-.076.83.83 0 0 1 .225 0zM1.5 6.125h2.502c.276 0 .5.227.5.508v7.11c0 .28-.224.508-.5.508H1.5C1.224 14.25 1 14.023 1 13.742V6.633c0-.28.224-.508.5-.508"/></svg>