<svg xmlns="http://www.w3.org/2000/svg" fill="none" viewBox="0 0 32 32"><path fill="currentColor" fill-rule="evenodd" d="M4 3c-1.1046 0-2 .8954-2 2v18c0 1.1046.8954 2 2 2h8l-.8447 3.3787c-.0789.3156.1598.6213.4851.6213h8.7192c.3253 0 .564-.3057.4851-.6213L20 25h8c1.1046 0 2-.8954 2-2V5c0-1.1046-.8954-2-2-2zm5.9121 13.9107h1.2847v-4.9732H9.9121zm.1304-6.7366q-.1836.1697-.1835.4643 0 .3036.1932.4732.1932.1652.5119.1652.3043 0 .4975-.1652.1932-.1696.1932-.4732 0-.2946-.1884-.4643Q10.878 10 10.5641 10q-.3333 0-.5216.1741M6 10.3839v6.5268h3.1345v-1.0625H7.3137v-5.4643zm8.9785 6.5268v-2.9643q0-.5402-.1401-.8169-.14-.2768-.454-.2768-.4153 0-.6085.3839-.1932.3795-.1932 1.2857v2.3884H12.298v-4.9732h1.0191l.1545.6384h.0821q.1739-.3437.4975-.5357.3236-.1965.7583-.1964.734 0 1.0963.4642.367.4643.3671 1.3572v3.2455zm5.0809-.6384.1594.6384h1.0287v-4.9732h-1.2992v2.3839q0 .9063-.1932 1.2902-.1883.384-.6037.3839-.314 0-.454-.2767-.14-.2769-.14-.8215v-2.9598h-1.2992v3.2455q0 .9063.3718 1.3616.372.4554 1.0964.4554.425 0 .7534-.192.3333-.1964.512-.5357zm3.1925-1.9018-1.3427-2.433h1.333l.7148 1.5179.6617-1.5179h1.3233l-1.3523 2.433L26 16.9107h-1.3427l-.7631-1.5893-.7099 1.5893h-1.3379z" clip-rule="evenodd"/></svg>