<svg xmlns="http://www.w3.org/2000/svg" fill="none" viewBox="0 0 32 32"><path fill="currentColor" fill-rule="evenodd" d="M10 10.4115c0 .6084-.2853 1.1753-.723 1.5979-1.427 1.3778-2.6174 3.45-3.1082 5.4978-.1812.7564 2.6833.91 2.8312-.0072.4105-2.5466 1.8216-4.9144 3.5588-6.0812.1272-.0855.2959-.0641.4043.0443l1.3298 1.3298c.3905.3905 1.0237.3905 1.4142 0l1.695-1.695c.097-.097.244-.1256.3672-.0651C19.852 12.056 21.5487 14.6089 22 17.5c.1231.7887 3.9973.7425 3.7912-.0443-.3787-1.4458-1.154-2.9132-1.797-4.17C22.9961 11.3349 22 9.388 22 6.75 22 3.2982 19.3137.5 16 .5s-6 2.7982-6 6.25zm4.5836-2.8505c.1206-.0106.2288-.0836.2698-.1975C14.9474 7.102 15 6.8092 15 6.5c0-1.1046-.6716-2-1.5-2s-1.5.8954-1.5 2c0 .4742.1238.9098.3305 1.2526.0711.1178.2159.1614.3489.126a8 8 0 0 1 .0984-.0256A1 1 0 0 1 12.3 7c0-.5523.4477-1 1-1s1 .4477 1 1a.996.996 0 0 1-.2101.6133q.241-.0299.4937-.0523m4.2047-.036c-.0576.1285-.1998.1905-.3387.167a12 12 0 0 0-.3767-.0574A.996.996 0 0 0 18.3 7c0-.5523-.4477-1-1-1s-1 .4477-1 1c0 .1845.0499.3573.1371.5057l-.0202-.0006c-.1312-.0032-.2514-.0808-.2922-.2056C16.0445 7.0547 16 6.7843 16 6.5c0-1.1046.6716-2 1.5-2s1.5.8954 1.5 2c0 .3746-.0773.7252-.2117 1.025" clip-rule="evenodd"/><path fill="currentColor" d="M12.5 29.927c-.125-.04-.207-.159-.203-.29l.074-2.424c.007-.224.248-.363.454-.274 1.674.72 4.564.485 6.072-.526.209-.14.506-.003.513.249l.074 2.976c.003.131-.078.249-.203.289-1.867.596-4.913.598-6.781.002M10 29.068v-7.558c0-.558-.422-1.01-.943-1.01-.333 0-.567.189-.781.418-.521.558-1.365.558-1.886 0-.214-.229-.447-.418-.781-.418-.819 0-.943.796-.943 1.428 0 .789-.597 1.428-1.333 1.428-.659 0-1.333.198-1.333 1.01 0 .268.099.525.276.714l4.667 4.998c.408.437.956.429 1.501.42.074-.001.149-.002.223-.002.736 0 1.333-.639 1.333-1.428M22 21.51v7.561c0 .789.597 1.429 1.333 1.429.074 0 .148.001.222.002.546.008 1.093.017 1.502-.421l4.667-5c.177-.189.276-.446.276-.714 0-.558-.422-1.01-.943-1.01-.889 0-1.724-.39-1.724-1.428 0-.632-.124-1.429-.943-1.429-.333 0-.567.189-.781.418-.521.558-1.365.558-1.886 0-.214-.229-.448-.418-.781-.418-.521 0-.943.452-.943 1.01"/></svg>