<svg xmlns="http://www.w3.org/2000/svg" fill="none" viewBox="0 0 16 16"><path fill="currentColor" fill-rule="evenodd" d="M5 5.2058c0 .3042-.1426.5876-.3615.7989-.7135.6889-1.3087 1.725-1.554 2.749-.0907.3781 1.3416.455 1.4155-.0037.201-1.247.8818-2.408 1.7256-3.0036.0939-.0663.2208-.05.3021.0313l.6187.6187a.5.5 0 0 0 .7072 0l.8072-.8072c.0728-.0728.1831-.0946.2745-.0472C9.9534 6.0696 10.778 7.328 11 8.75c.0616.3943 1.9987.3712 1.8956-.0221-.1894-.723-.577-1.4566-.8985-2.085C11.4981 5.6674 11 4.694 11 3.375 11 1.6491 9.6569.25 8 .25S5 1.6491 5 3.375zM7.243 3.785c.0904-.0086.1722-.0631.1993-.1498A1.29 1.29 0 0 0 7.5 3.25c0-.5523-.3358-1-.75-1s-.75.4477-.75 1c0 .2172.052.4182.1401.5821.0471.0876.1524.1188.2488.0944a.5.5 0 1 1 .656-.1198 7 7 0 0 1 .198-.0217m2.1738-.0767c-.0382.0985-.1456.1448-.25.1282a6 6 0 0 0-.1304-.0192.5.5 0 1 0-.818-.0645c-.0716-.0018-.1374-.0442-.1592-.1126A1.29 1.29 0 0 1 8 3.25c0-.5523.3358-1 .75-1s.75.4477.75 1c0 .1652-.03.321-.0832.4583" clip-rule="evenodd"/><path fill="currentColor" d="M6.25 14.963a.147.147 0 0 1-.101-.145l.037-1.212c.003-.112.124-.181.227-.137.837.36 2.282.242 3.036-.263.104-.07.253-.001.256.124l.037 1.488a.147.147 0 0 1-.101.144c-.934.298-2.457.299-3.39.001M5 14.534v-3.779c0-.279-.211-.505-.471-.505-.167 0-.283.094-.39.209-.26.279-.682.279-.943 0-.107-.115-.224-.209-.391-.209-.409 0-.471.398-.471.714 0 .394-.298.714-.667.714-.329 0-.667.099-.667.505 0 .134.05.262.138.357l2.333 2.499c.204.219.478.214.751.21a7 7 0 0 1 .111-.001c.368 0 .667-.32.667-.714M11 10.755v3.781c0 .395.299.714.667.714q.055 0 .111.001c.273.004.547.008.751-.21l2.333-2.5c.088-.095.138-.223.138-.357 0-.279-.211-.505-.471-.505-.444 0-.862-.195-.862-.714 0-.316-.062-.714-.471-.714-.167 0-.283.095-.391.209-.26.279-.682.279-.943 0-.107-.115-.224-.209-.39-.209-.26 0-.471.226-.471.505"/></svg>