<svg xmlns="http://www.w3.org/2000/svg" fill="none" viewBox="0 0 24 24"><path fill="currentColor" fill-rule="evenodd" d="M7.5 7.8086c0 .4563-.214.8815-.5422 1.1984-1.0703 1.0334-1.9631 2.5875-2.3312 4.1234-.136.5673 2.0125.6825 2.1234-.0054.3079-1.91 1.3662-3.6858 2.669-4.561.0955-.064.222-.048.3034.0334l.9973.9973a.75.75 0 0 0 1.0606 0l1.2713-1.2713c.0728-.0727.183-.0942.2754-.0488 1.562.7674 2.8345 2.6821 3.173 4.8504.0923.5915 2.998.5569 2.8434-.0332-.284-1.0844-.8655-2.1849-1.3478-3.1275C17.2471 8.5013 16.5 7.041 16.5 5.0625 16.5 2.4737 14.4853.375 12 .375S7.5 2.4737 7.5 5.0625zm3.4377-2.1378c.0905-.008.1716-.0627.2023-.1482.0705-.196.11-.4157.11-.6476 0-.8284-.5037-1.5-1.125-1.5S9 4.0466 9 4.875c0 .3556.0928.6823.248.9394.0532.0884.1618.1211.2615.0945a6 6 0 0 1 .0738-.0192.75.75 0 1 1 .984-.1797q.1808-.0224.3704-.0392m3.1535-.027c-.0432.0963-.1498.1428-.254.1252a9 9 0 0 0-.2825-.043.75.75 0 1 0-1.2269-.0967l-.0151-.0004c-.0985-.0025-.1886-.0607-.2192-.1543A1.93 1.93 0 0 1 12 4.875c0-.8284.5037-1.5 1.125-1.5s1.125.6716 1.125 1.5c0 .281-.058.544-.1588.7687" clip-rule="evenodd"/><path fill="currentColor" d="M9.375 22.445a.22.22 0 0 1-.152-.218l.055-1.818c.005-.168.186-.272.34-.206 1.255.54 3.423.364 4.554-.395.156-.105.38-.002.385.186l.056 2.232a.221.221 0 0 1-.152.216c-1.4.447-3.685.448-5.085.001M7.5 21.801v-5.668c0-.418-.317-.757-.707-.757-.25 0-.425.142-.586.314-.39.418-1.024.418-1.414 0-.161-.172-.336-.314-.586-.314-.614 0-.707.597-.707 1.071 0 .592-.448 1.071-1 1.071-.494 0-1 .148-1 .757 0 .201.075.393.207.535l3.5 3.748c.306.328.717.322 1.126.315.056-.001.112-.002.167-.002.552 0 1-.479 1-1.071M16.5 16.133v5.671c0 .592.448 1.071 1 1.071q.083 0 .167.002c.409.006.82.012 1.126-.315l3.5-3.75c.133-.142.207-.335.207-.536 0-.418-.317-.758-.707-.758-.667 0-1.293-.293-1.293-1.071 0-.474-.093-1.071-.707-1.071-.25 0-.425.142-.586.314-.39.418-1.024.418-1.414 0-.161-.172-.336-.314-.586-.314-.39 0-.707.339-.707.758"/></svg>