<svg xmlns="http://www.w3.org/2000/svg" fill="none" viewBox="0 0 16 16"><path fill="currentColor" d="M8.4082 11.4004c.4294.2557.6855.708.6875 1.208a1.41 1.41 0 0 1-.2275.7754c-.0038.0057-.007.0119-.0108.0176-.0916.1259-.203.2406-.3271.3418-.0132.0094-.028.0208-.043.0302a1.3 1.3 0 0 1-.1494.1026l-2.4053 1.457a1.793 1.793 0 0 1-1.8594 0l-1.705-1.0332c.3207-.0076.6395-.1008.9297-.2783l2.6425-1.6172c.5286-.3227.8565-.9109.8565-1.5313v-.4365z"/><path fill="currentColor" d="M3.42 7.0459a1.88 1.88 0 0 0-.212.872v2.9708c0 .6242.3326 1.2125.8652 1.5351l.5557.336-1.5312.9355c-.4716.2883-1.0405.2993-1.5235.0283-.231-.1298-.418-.3096-.5498-.5234-.1411-.2595-.2216-.555-.2217-.8584V9.6406c0-.6242.3327-1.2125.8672-1.5351z"/><path fill="currentColor" d="M4.352 6.607c.325-.185.692-.242 1.043-.17a1.44 1.44 0 0 1 .288.09c.086.034.17.074.25.124l2.403 1.455c.535.323.867.911.867 1.535l-.002 2.008c-.147-.231-.349-.427-.596-.576L5.879 9.441a1.72 1.72 0 0 0-1.754-.006l-.535.316V7.918c0-.55.285-1.039.762-1.312M11.001.797a4.188 4.188 0 0 1 2.819 1.087l-1.209 1.334a2.387 2.387 0 0 0-1.61-.621c-1.325 0-2.4 1.075-2.4 2.4s1.075 2.399 2.4 2.399c.888 0 1.664-.482 2.079-1.199H11.001V4.397h3.6l.559.001c.028.196.042.399.042.6 0 2.319-1.881 4.2-4.2 4.2a4.2 4.2 0 0 1-.912-.102c-.117-.738-.558-1.394-1.217-1.774L6.984 6.231a4.2 4.2 0 0 1-.184-1.234c0-2.32 1.881-4.2 4.2-4.2"/></svg>