<svg xmlns="http://www.w3.org/2000/svg" fill="none" viewBox="0 0 24 24"><path fill="currentColor" fill-rule="evenodd" d="M22.527 15.0002c.9593 0 1.4726.6163 1.4726 1.4999V22.5c-.0002.8834-.5135 1.4999-1.4726 1.5h-5.1044c-.5187-.0001-.9123-.2143-1.2422-.583l-2.1474-2.8994c-.5289-.5909-.5289-1.4451 0-2.0361l2.1474-2.8993c.3299-.3687.7235-.5819 1.2422-.582zm-5.5322 3.5155c-.5536.0002-1.0018.4493-1.0019 1.0029 0 .5537.4483 1.0028 1.0019 1.0029.5538 0 1.0029-.4491 1.0029-1.0029s-.4491-1.0029-1.0029-1.0029" clip-rule="evenodd"/><path fill="currentColor" d="M12.458 17.249c-1.093 1.314-1.093 3.187 0 4.501l.787 1.063c-.407.123-.826.188-1.245.188-.768 0-1.541-.206-2.226-.622l-4.083-2.474c.768-.018 1.532-.242 2.227-.667l5.612-3.435zM8.21 2.532c-.329.631-.508 1.344-.508 2.089v7.114c0 1.495.796 2.903 2.071 3.676l1.33.805-3.666 2.24c-1.129.69-2.492.717-3.648.068-.553-.311-1.002-.74-1.317-1.252-.338-.622-.53-1.331-.53-2.058V8.744c0-1.495.796-2.903 2.076-3.676zM20.156 12.96c.021.013.042.027.063.04h-2.796c-.534 0-1.013.108-1.436.294.202-.502.311-1.043.312-1.596v-1.047z"/><path fill="currentColor" d="M10.4403 1.4799c.7772-.4435 1.6558-.581 2.497-.4072.2331.0457.4665.1188.6904.2148.2057.0823.4067.179.5986.2978l5.7558 3.4834c1.28.7726 2.076 2.1809 2.0761 3.6757l-.0039 4.2558h-.4228c-.286-.3175-.6236-.5956-1.0049-.8262l-6.5282-3.9052a4.12 4.12 0 0 0-4.202-.0137l-1.2793.755V4.6204c0-1.3164.6806-2.4869 1.8232-3.1406"/></svg>