<svg xmlns="http://www.w3.org/2000/svg" fill="none" viewBox="0 0 24 24"><path fill="currentColor" d="M11 0c.5523 0 1 .4477 1 1v1h9c.5523 0 1 .4477 1 1s-.4477 1-1 1h-1v7h-2V4H4v9h4.9797a1 1 0 0 1 .0389 0h3.9632a1 1 0 0 1 .0389 0h.103l-1.4812 2H9.82l-.8392 4.1961c-.1083.5416-.6352.8928-1.1767.7845s-.8928-.6352-.7845-1.1767L7.7804 15H3.1c-.6075 0-1.1-.4925-1.1-1.1V4H1c-.5523 0-1-.4477-1-1s.4477-1 1-1h9V1c0-.5523.4477-1 1-1"/><path fill="currentColor" d="M8.799 6.018C8.635 5.998 8.5 6.134 8.5 6.3v2a.2.2 0 0 1-.2.2h-2c-.166 0-.302.135-.282.299A2.5 2.5 0 1 0 8.799 6.018M13 6c-.552 0-1 .448-1 1s.448 1 1 1h2c.552 0 1-.448 1-1s-.448-1-1-1zM13 9c-.552 0-1 .448-1 1s.448 1 1 1h2c.552 0 1-.448 1-1s-.448-1-1-1z"/><path fill="currentColor" fill-rule="evenodd" d="M15.1811 13.5823c.33-.3687.7233-.5823 1.2421-.5823l5.104.0001c.9594 0 1.4728.6163 1.4728 1.5v6c0 .8836-.5134 1.5-1.4728 1.5L16.4232 22c-.5188 0-.9121-.2136-1.2421-.5823l-2.1477-2.9c-.5289-.591-.5289-1.4443 0-2.0353zm1.7374 3.9369c0 .5538-.4489 1.0027-1.0027 1.0027s-1.0027-.4489-1.0027-1.0027.4489-1.0027 1.0027-1.0027 1.0027.4489 1.0027 1.0027" clip-rule="evenodd"/></svg>