<svg xmlns="http://www.w3.org/2000/svg" fill="none" viewBox="0 0 24 24"><path fill="currentColor" d="M14.5477 5.9113c.804 0 1.4557-.6518 1.4557-1.4557S15.3517 3 14.5477 3c-.8039 0-1.4556.6517-1.4556 1.4556q0 .0318.0014.0633L10.31 6.1884a1.45 1.45 0 0 0-.8544-.277c-.804 0-1.4557.6516-1.4557 1.4556 0 .8039.6517 1.4556 1.4557 1.4556.3707 0 .7091-.1386.9661-.3669l2.6728 1.5432c.0438.7646.6777 1.3711 1.4532 1.3711.804 0 1.4557-.6517 1.4557-1.4556s-.6517-1.4557-1.4557-1.4557c-.2945 0-.5685.0875-.7976.2379l-2.4416-1.4097 2.5672-1.5397a1.45 1.45 0 0 0 .672.164"/><path fill="currentColor" d="M18.8943 6.5527c-.2469-.494-.8476-.6942-1.3416-.4472s-.6942.8477-.4472 1.3417L19.3819 12h-3.3203c-.4161 0-.7967.2348-.9832.6069l-.696 1.3877-4.7648.0048-.6956-1.3914A1.1 1.1 0 0 0 7.938 12H4.616l2.2777-4.5526c.247-.494.047-1.0947-.447-1.3418-.4939-.247-1.0946-.047-1.3417.447l-2.896 5.7887a2 2 0 0 0-.2114.8948v6.7785c0 1.1046.8954 2 2 2h8.6556l-.1826-.2467c-.437-.5188-.7022-1.1266-.7957-1.7533H3.9976V14h3.3843l.696 1.3919a1.1 1.1 0 0 0 .9849.608l4.3235-.0043 1.2427-1.678.0618-.069C15.3345 13.5293 16.2438 13 17.4232 13h4.5629a2 2 0 0 0-.1971-.658z"/><path fill="currentColor" d="M10 17h2.6424l-.1718.232c-.4404.5229-.7063 1.1361-.7979 1.768H9.9999c-.5523 0-1-.4477-1-1s.4477-1 1-1"/><path fill="currentColor" fill-rule="evenodd" d="M16.1811 15.5823c.33-.3687.7233-.5823 1.2421-.5823h5.104C23.4866 15 24 15.6164 24 16.5v6c0 .8837-.5134 1.5-1.4728 1.5h-5.104c-.5188 0-.9121-.2136-1.2421-.5824l-2.1477-2.9c-.5289-.5909-.5289-1.4443 0-2.0353zm1.7374 3.9369c0 .5538-.4489 1.0027-1.0027 1.0027s-1.0027-.4489-1.0027-1.0027.4489-1.0027 1.0027-1.0027 1.0027.4489 1.0027 1.0027" clip-rule="evenodd"/></svg>