<svg xmlns="http://www.w3.org/2000/svg" fill="none" viewBox="0 0 24 24"><path fill="currentColor" d="M12.4092 17.1006c.644.3837 1.0274 1.0624 1.0303 1.8125a2.11 2.11 0 0 1-.3409 1.1631l-.0166.0254c-.1374.189-.3041.3609-.4902.5127-.02.0142-.0426.0316-.0654.0459a2 2 0 0 1-.2237.1543L8.6943 23a2.69 2.69 0 0 1-1.3945.3887A2.69 2.69 0 0 1 5.9053 23l-2.5567-1.5498c.481-.0115.9594-.1517 1.3946-.418l3.9628-2.4258c.793-.4839 1.286-1.3654 1.2862-2.2959v-.6562z"/><path fill="currentColor" d="M4.9258 10.5684c-.2062.3951-.3174.8419-.3174 1.3086v4.456c0 .9364.498 1.8188 1.2969 2.3027l.833.5039-2.296 1.4034c-.7071.4323-1.5607.4493-2.285.0429-.3466-.1947-.6277-.4644-.8253-.7851-.2118-.3893-.332-.833-.332-1.2881V14.46c0-.9362.4983-1.8178 1.2998-2.3018z"/><path fill="currentColor" d="M6.323 9.91c.487-.278 1.037-.364 1.564-.255.146.029.292.075.433.135.129.052.255.111.375.186l3.606 2.183c.802.484 1.3 1.366 1.3 2.302l-.003 3.013c-.22-.346-.523-.641-.893-.864l-4.09-2.446a2.58 2.58 0 0 0-2.632-.008l-.802.472v-2.749c0-.824.427-1.557 1.143-1.967M16.7 1.203c1.584 0 3.079.588 4.23 1.63L19.116 4.834c-.658-.596-1.509-.931-2.416-.931-1.988 0-3.599 1.612-3.6 3.6 0 1.988 1.612 3.601 3.6 3.601 1.333 0 2.496-.725 3.118-1.801h-3.118V6.604h6.237c.041.294.063.599.063.899 0 3.479-2.82 6.3-6.3 6.3a6.3 6.3 0 0 1-1.753-.249 3.76 3.76 0 0 0-1.82-2.596l-2.372-1.37a6.29 6.29 0 0 1-.354-2.085c0-3.479 2.821-6.3 6.3-6.3"/></svg>