<svg xmlns="http://www.w3.org/2000/svg" fill="none" viewBox="0 0 24 24"><path fill="currentColor" d="M14.548 5.911c.804 0 1.456-.652 1.456-1.456 0-.804-.652-1.456-1.456-1.456-.804 0-1.456.652-1.456 1.456q0 .032.001.063l-2.783 1.67a1.45 1.45 0 0 0-.854-.277C8.652 5.911 8 6.563 8 7.367c0 .804.652 1.456 1.456 1.456.371 0 .709-.139.966-.367l2.673 1.543c.044.765.678 1.371 1.453 1.371.804 0 1.456-.652 1.456-1.456s-.652-1.456-1.456-1.456a1.45 1.45 0 0 0-.798.238l-2.442-1.41 2.567-1.54c.201.105.43.164.672.164M15 18c0-.552-.448-1-1-1h-4c-.552 0-1 .448-1 1s.448 1 1 1h4c.552 0 1-.448 1-1"/><path fill="currentColor" fill-rule="evenodd" d="M18.8944 6.5527c-.247-.494-.8477-.6942-1.3417-.4472s-.6942.8477-.4472 1.3417L19.3819 12h-3.3202c-.4161 0-.7967.2349-.9833.6069l-.6959 1.3877-4.7648.0048-.6956-1.3913A1.1 1.1 0 0 0 7.9382 12H4.616l2.2777-4.5526c.247-.494.047-1.0947-.447-1.3418-.4939-.247-1.0946-.047-1.3417.447l-2.896 5.7887a2 2 0 0 0-.2114.8948v6.7786c0 1.1045.8954 2 2 2l16.0092-.0001c1.1053 0 2.0011-.8967 2-2.002l-.0066-6.7781a2 2 0 0 0-.2112-.8924zM3.9976 14v6.0147l16.0092-.0001L20.0009 14h-3.3837l-.6957 1.3871a1.1 1.1 0 0 1-.9821.6069l-5.8765.0059a1.1 1.1 0 0 1-.985-.608L7.3819 14z" clip-rule="evenodd"/></svg>