<svg xmlns="http://www.w3.org/2000/svg" fill="none" viewBox="0 0 32 32"><path fill="currentColor" d="M9.1324 5a2 2 0 0 0-1.715.971L2.285 14.525A2 2 0 0 0 2 15.554V25c0 1.1045.8954 2 2 2h13v-4c0-1.4806.8044-2.7733 2-3.4649V18h-6.807a1 1 0 0 1-.9363-.6489L10.375 15H4.9393c-.1938 0-.314-.2111-.2149-.3777l4.2381-7.1331A1 1 0 0 1 9.8222 7h12.2833a1 1 0 0 1 .856.4831l2.7526 4.5589c1.3861.1644 2.6274.8014 3.5583 1.7453L24.5826 5.971A2 2 0 0 0 22.8676 5z"/><path fill="currentColor" fill-rule="evenodd" d="M29 18v3a2 2 0 0 1 2 2v6a2 2 0 0 1-2 2h-8a2 2 0 0 1-2-2v-6a2 2 0 0 1 2-2v-3a4 4 0 0 1 4-4 4 4 0 0 1 4 4m-3.2929 9.8371A1 1 0 0 0 26 27.13V25a1.0002 1.0002 0 0 0-2 0v2.13a.9997.9997 0 0 0 1 1 1 1 0 0 0 .7071-.2929M23 21h4v-3a2 2 0 0 0-2-2 1.9996 1.9996 0 0 0-2 2z" clip-rule="evenodd"/></svg>