<svg xmlns="http://www.w3.org/2000/svg" fill="none" viewBox="0 0 24 24"><path fill="url(#mail-nav-dark--24-a)" d="M2 5.8824C2 4.8428 2.814 4 3.8182 4h16.3636C21.186 4 22 4.8428 22 5.8823v12.2353C22 19.1572 21.186 20 20.1818 20H3.8182C2.814 20 2 19.1572 2 18.1176z"/><path fill="#243143" fill-rule="evenodd" d="M2.0003 5.5c0-.8284.6715-1.5 1.5-1.5h16.9999c.8285 0 1.5.6716 1.5 1.5v3.4772a1 1 0 0 1 0 .0445V18.5c0 .8284-.6715 1.5-1.5 1.5h-17c-.8284 0-1.5-.6716-1.5-1.5V9.0217a1 1 0 0 1 0-.0445zm2 5.0388V18h15.9999v-7.4612l-7.1877 3.1945a2 2 0 0 1-1.6245 0zm15.9999-2.1887-8 3.5556-8-3.5556V6h16z" clip-rule="evenodd"/><defs><linearGradient id="mail-nav-dark--24-a" x1="12" x2="12" y1="4" y2="18.1176" gradientUnits="userSpaceOnUse"><stop stop-color="#243143" stop-opacity=".3"/><stop offset="1" stop-color="#243143" stop-opacity="0"/></linearGradient></defs></svg>