<svg xmlns="http://www.w3.org/2000/svg" fill="none" viewBox="0 0 32 32"><path fill="currentColor" d="M17 3c0-.552-.448-1-1-1s-1 .448-1 1v7.5h-2.87c-.434 0-.662.515-.37.836l3.87 4.257a.5.5 0 0 0 .74 0l3.87-4.257c.292-.321.064-.836-.37-.836H17zM13 23c-.552 0-1 .448-1 1s.448 1 1 1h6c.552 0 1-.448 1-1s-.448-1-1-1z"/><path fill="currentColor" fill-rule="evenodd" d="M7.8378 6.0423A2 2 0 0 1 9.5936 5H11c.5523 0 1 .4477 1 1s-.4477 1-1 1H9.5936l-4.909 9h4.7802a2 2 0 0 1 1.6641.8906L12.5352 19h6.9296l1.4063-2.1094A2 2 0 0 1 22.5352 16h4.7802l-4.9091-9H21c-.5523 0-1-.4477-1-1s.4477-1 1-1h1.4063a2 2 0 0 1 1.7558 1.0423l5.3495 9.8073A4 4 0 0 1 30 17.765V27c0 1.1045-.8955 2-2 2H4c-1.1046 0-2-.8955-2-2v-9.235c0-.6693.168-1.3279.4884-1.9154zM4 27v-9h5.4648l1.4063 2.1094A2 2 0 0 0 12.5352 21h6.9296a2 2 0 0 0 1.6641-.8906L22.5352 18H28v9z" clip-rule="evenodd"/></svg>