<svg xmlns="http://www.w3.org/2000/svg" fill="none" viewBox="0 0 32 32"><path fill="currentColor" fill-rule="evenodd" d="M25.68 1c0-.552-.448-1-1-1s-1 .448-1 1v.367c-.572.122-1.129.36-1.592.737-.685.558-1.119 1.393-1.067 2.426l0 .002c.029.559.181 1.057.461 1.482.277.422.644.718 1.023.932.659.372 1.472.55 2.104.689l.145.032c.746.165 1.244.299 1.568.519.137.093.217.186.268.29.052.107.105.286.091.593l0 .003c-.01.251-.125.454-.4.63-.302.193-.768.325-1.317.324-1.164-.002-2.09-.552-2.329-1.314-.165-.527-.726-.82-1.253-.655-.527.165-.82.727-.655 1.254.455 1.45 1.692 2.244 2.954 2.557v.524c0 .552.448 1 1 1s1-.448 1-1v-.413c.596-.082 1.18-.272 1.679-.592.725-.465 1.279-1.22 1.32-2.234.024-.572-.067-1.096-.295-1.559-.229-.466-.567-.809-.94-1.062-.693-.47-1.581-.666-2.246-.813l-.024-.005c-.757-.167-1.296-.287-1.685-.506-.172-.097-.272-.193-.335-.289-.06-.092-.122-.236-.135-.486-.018-.361.112-.595.333-.774.251-.205.657-.358 1.149-.385 1.066-.059 1.842.443 2.001 1.068.137.535.682.858 1.217.721.535-.137.858-.681.721-1.217-.367-1.434-1.551-2.191-2.759-2.461zm2.999 8.151 0 .002-.999-.043.999.04zM16.951 11.83l-4.244-4.244L5.633 14.66c-3.51 3.511-3.51 9.214 0 12.724s9.214 3.511 12.724 0l7.074-7.074-4.234-4.234-7.074 7.074c-1.169 1.17-3.076 1.17-4.246 0s-1.169-3.076 0-4.246zm-5.878.218 1.634-1.634 1.416 1.416-1.634 1.634zm-1.414 1.414-2.612 2.612c-2.729 2.73-2.729 7.166 0 9.896 2.73 2.73 7.166 2.73 9.896 0l2.612-2.612-1.406-1.406-2.612 2.612c-1.95 1.951-5.124 1.951-7.074 0s-1.95-5.124 0-7.074l2.612-2.612zM22.603 20.31l-1.634 1.634-1.406-1.406 1.634-1.634z" clip-rule="evenodd"/></svg>