<svg xmlns="http://www.w3.org/2000/svg" fill="none" viewBox="0 0 16 16"><path fill="currentColor" d="M5.707.293c.391.391.391 1.024 0 1.414L4.414 3H14c.552 0 1 .448 1 1s-.448 1-1 1H4.414l1.293 1.293c.39.391.39 1.024 0 1.414-.391.391-1.024.391-1.414 0l-3-3c-.39-.39-.39-1.024 0-1.414l3-3c.391-.39 1.024-.39 1.414 0M10.293 15.707c-.39-.39-.39-1.024 0-1.414L11.586 13H2c-.552 0-1-.448-1-1s.448-1 1-1h9.586l-1.293-1.293c-.39-.39-.39-1.024 0-1.414s1.024-.39 1.414 0l3 3c.391.391.391 1.024 0 1.414l-3 3c-.39.391-1.024.391-1.414 0"/></svg>