<svg xmlns="http://www.w3.org/2000/svg" fill="none" viewBox="0 0 16 16"><path fill="currentColor" fill-rule="evenodd" d="M8.9998 1.0002c0-.6086-.539-1.076-1.1414-.99l-6.9998 1a1 1 0 0 0-.8586.99v11.9997a1 1 0 0 0 .8586.9899l6.9998 1c.6024.086 1.1414-.3814 1.1414-.99zm-6.4999 9.9995H6.489V9.6873H4.0067V8.656h2.2872V7.3436H4.0067V6.3124h2.4932V4.9999h-4z" clip-rule="evenodd"/><path fill="currentColor" d="M10 5v6l5.853-5.853a.5.5 0 0 0 .146-.353V2.5a.5.5 0 0 0-.5-.5h-2.293a.5.5 0 0 0-.354.147zM10.707 11.707l3-3 2.146 2.146a.5.5 0 0 1 .146.354v2.293a.5.5 0 0 1-.5.5h-2.293a.5.5 0 0 1-.354-.146z"/></svg>