<svg xmlns="http://www.w3.org/2000/svg" fill="none" viewBox="0 0 32 32"><path fill="currentColor" fill-rule="evenodd" d="M0 25.7606V6.2394c0-1.0329.748-1.9112 1.7611-2.0683l13.8462-2.1463C16.8654 1.8298 18 2.8106 18 4.093v23.8138c0 1.2826-1.1346 2.2633-2.3927 2.0683L1.7611 27.8289C.748 27.6719 0 26.7935 0 25.7606M5.5 21V11h7v2.1875H8.1369v1.7187h4.0027v2.1876H8.1369v1.7187h4.3441V21z" clip-rule="evenodd"/><path fill="currentColor" d="M29.805 10.701A.698.698 0 0 0 30 10.215V5.688C30 5.308 29.702 5 29.333 5h-4.39a.657.657 0 0 0-.471.201L20 9.813v11zM26.081 17.458l-5.333 5.5 3.724 3.84a.656.656 0 0 0 .471.201h4.391c.368 0 .667-.308.667-.687v-4.528a.7.7 0 0 0-.195-.486z"/></svg>