<svg xmlns="http://www.w3.org/2000/svg" fill="none" viewBox="0 0 30 32"><path fill="currentColor" d="M21 4H10c-1.105 0-2 .895-2 2v2h7c1.105 0 2 .895 2 2v12c0 1.105-.895 2-2 2H8v2c0 1.105.895 2 2 2h11zM23 28h2c1.105 0 2-.895 2-2v-2h-4zM27 17v5h-4v-5zM27 15v-5h-4v5zM27 6v2h-4V4h2c1.105 0 2 .895 2 2"/><path fill="currentColor" fill-rule="evenodd" d="M3 11c0-.5523.4477-1 1-1h10c.5523 0 1 .4477 1 1v10c0 .5523-.4477 1-1 1H4c-.5523 0-1-.4477-1-1zm2.9668 9v-7.874h1.5469l3.2226 5.2583V12.126h1.4771V20h-1.5952l-3.1743-5.1348V20z" clip-rule="evenodd"/></svg>