<svg xmlns="http://www.w3.org/2000/svg" fill="none" viewBox="0 0 24 24"><path fill="currentColor" fill-rule="evenodd" d="M1 19.7131V4.2869a1.5 1.5 0 0 1 1.272-1.4826l9.9999-1.5384C13.1806 1.126 14 1.829 14 2.7484v18.5032c0 .9193-.8194 1.6223-1.7281 1.4825l-10-1.5384A1.5 1.5 0 0 1 1 19.7131M4.5 9.75h2.0764V16h1.8472V9.75H10.5V8h-6z" clip-rule="evenodd"/><path fill="currentColor" d="M18 6.5C18 5.119 16.881 4 15.5 4v5C16.881 9 18 7.881 18 6.5M15.5 20V10H18c.552 0 1 .448 1 1v6c0 1.657-1.343 3-3 3zM23 7c0 1.105-.895 2-2 2s-2-.895-2-2 .895-2 2-2 2 .895 2 2M21 19a2.99 2.99 0 0 1-1.095-.206A2.986 2.986 0 0 0 20.5 17v-6c0-.552-.448-1-1-1H23c.552 0 1 .448 1 1v5c0 1.657-1.343 3-3 3"/></svg>