<svg xmlns="http://www.w3.org/2000/svg" fill="none" viewBox="0 0 16 16"><path fill="currentColor" fill-rule="evenodd" d="M7.8584.0102c.6024-.086 1.1414.3814 1.1414.99v13.9996c0 .6086-.539 1.076-1.1414.99l-6.9998-1A1 1 0 0 1 0 13.9999V2.0001a1 1 0 0 1 .8586-.9899zM3.7303 6.3124H1.9999V4.9999h5v1.3125H5.2694v4.6873H3.7303z" clip-rule="evenodd"/><path fill="currentColor" d="M10 13.981c1.048-.082 2.5-.469 2.5-1.981V8c0-.552-.448-1-1-1h-1.5zM10 5.937c.863-.222 1.5-1.005 1.5-1.937s-.637-1.715-1.5-1.937zM13.5 6c.828 0 1.5-.672 1.5-1.5s-.671-1.5-1.5-1.5-1.5.672-1.5 1.5.672 1.5 1.5 1.5M13.225 12.985q.135.015.275.015c1.381 0 2.5-1.119 2.5-2.5V7.5a.5.5 0 0 0-.5-.5h-3c.552 0 1 .448 1 1v4c0 .403-.103.726-.274.985"/></svg>