<svg xmlns="http://www.w3.org/2000/svg" fill="none" viewBox="0 0 32 32"><path fill="currentColor" fill-rule="evenodd" d="M0 25.7606V6.2394c0-1.0329.748-1.9112 1.7611-2.0683l13.8462-2.1463C16.8654 1.8298 18 2.8106 18 4.093v23.8138c0 1.2826-1.1346 2.2633-2.3927 2.0683L1.7611 27.8289C.748 27.6719 0 26.7935 0 25.7606m4.5-12.5731h3.1146V21h2.7708v-7.8125H13.5V11h-9z" clip-rule="evenodd"/><path fill="currentColor" d="M20.5 5q-.255 0-.5.035v6.929a3.5 3.5 0 0 0 .5.035c1.933 0 3.5-1.567 3.5-3.5S22.433 5 20.5 5M20 26.973V13h3.5c.828 0 1.5.672 1.5 1.5v8c0 2.485-2.015 4.5-4.5 4.5a4.5 4.5 0 0 1-.5-.027M30.5 9.5c0 1.381-1.119 2.5-2.5 2.5s-2.5-1.119-2.5-2.5S26.619 7 28 7s2.5 1.119 2.5 2.5M28 25a3.99 3.99 0 0 1-1.564-.317A4.48 4.48 0 0 0 27 22.5v-8c0-.828-.672-1.5-1.5-1.5h5c.828 0 1.5.672 1.5 1.5V21c0 2.209-1.791 4-4 4"/></svg>