<svg xmlns="http://www.w3.org/2000/svg" fill="none" viewBox="0 0 32 32"><path fill="#41a5ee" d="M9 4c0-.5523.4477-1 1-1h20c.5523 0 1 .4477 1 1v5.5H9z"/><path fill="#2b7cd3" d="M9 9.5h22V16H9z"/><path fill="#185abd" d="M9 16h22v6.5H9z"/><path fill="#103f91" d="M9 22.5h22V28c0 .5523-.4477 1-1 1H10c-.5523 0-1-.4477-1-1z"/><rect width="16" height="16" x="1" y="8" fill="#1c60c0" rx="2"/><path stroke="#243143" stroke-opacity=".1" d="M10 3.5h20a.5.5 0 0 1 .5.5v24a.5.5 0 0 1-.5.5H10a.5.5 0 0 1-.5-.5v-4.5H3c-.8284 0-1.5-.6716-1.5-1.5V10c0-.8284.6716-1.5 1.5-1.5h6.5V4a.5.5 0 0 1 .5-.5Z"/><path fill="#fff" d="M5.7623 20 3.5 12h2.0763l1.1728 5.2422h.0646L8.1535 12h1.693l1.3398 5.2539h.0646L12.4275 12H14.5l-2.2585 8H10.431l-1.4006-4.8516h-.0608L7.569 20z"/></svg>