<svg xmlns="http://www.w3.org/2000/svg" fill="none" viewBox="0 0 32 32"><path fill="currentColor" d="M0 1.5C0 .672.736 0 1.643 0H21.357C22.265 0 23 .672 23 1.5v8.524A20.4 20.4 0 0 0 22 10c-3.331 0-6.238.805-7.794 2H0zM13 14H0v1.75c0 .967.736 1.75 1.643 1.75h6.571l-.694 2.956c-.065.276.131.544.399.544H13zM22 11c-4.42 0-8 1.57-8 3.5s3.58 3.5 8 3.5 8-1.57 8-3.5-3.58-3.5-8-3.5"/><path fill="currentColor" d="M22 19.3c-4.42 0-8-1.64-8-3.65v3.7c0 2 3.58 3.65 8 3.65s8-1.63 8-3.65v-3.7c0 2.01-3.58 3.65-8 3.65"/><path fill="currentColor" d="M22 24.3c-4.42 0-8-1.64-8-3.65v3.7c0 2 3.58 3.55 8 3.55s8-1.53 8-3.55v-3.7c0 2.01-3.58 3.65-8 3.65"/></svg>