<svg xmlns="http://www.w3.org/2000/svg" fill="none" viewBox="0 0 24 24"><path fill="currentColor" fill-rule="evenodd" d="M4 2c-1.105 0-2 .895-2 2v5c0 1.105.895 2 2 2h16c1.105 0 2-.895 2-2V4c0-1.105-.895-2-2-2zm1.004 2c-.552 0-1 .448-1 1v3c0 .552.448 1 1 1s1-.448 1-1V5c0-.552-.448-1-1-1M8 5c0-.552.448-1 1-1s1 .448 1 1v3c0 .552-.448 1-1 1s-1-.448-1-1zm11 1.5c0 .828-.672 1.5-1.5 1.5S16 7.328 16 6.5 16.672 5 17.5 5s1.5.672 1.5 1.5M4 13c-1.105 0-2 .895-2 2v5c0 1.105.895 2 2 2h16c1.105 0 2-.895 2-2v-5c0-1.105-.895-2-2-2zm1.004 2c-.552 0-1 .448-1 1v3c0 .552.448 1 1 1s1-.448 1-1v-3c0-.552-.448-1-1-1M8 16c0-.552.448-1 1-1s1 .448 1 1v3c0 .552-.448 1-1 1s-1-.448-1-1zm11 1.5c0 .828-.672 1.5-1.5 1.5s-1.5-.672-1.5-1.5.672-1.5 1.5-1.5 1.5.672 1.5 1.5" clip-rule="evenodd"/></svg>