<svg xmlns="http://www.w3.org/2000/svg" fill="none" viewBox="0 0 24 24"><path fill="currentColor" d="M4 5c0-.552.448-1 1-1s1 .448 1 1v6c0 .552-.448 1-1 1s-1-.448-1-1zM18 5c0 .552.448 1 1 1s1-.448 1-1S19.552 4 19 4s-1 .448-1 1M7 5c0-.552.448-1 1-1s1 .448 1 1v6c0 .552-.448 1-1 1s-1-.448-1-1zM10 5c0-.552.448-1 1-1s1 .448 1 1v6c0 .552-.448 1-1 1s-1-.448-1-1z"/><path fill="currentColor" fill-rule="evenodd" d="M21.9999 1h-20C1.4478 1 1 1.4477 1 2v12c0 .5522.4477 1 1 1h9v2.2675a2.01 2.01 0 0 0-.7325.7325H5c-.5523 0-1 .4477-1 1s.4477.9999 1 .9999h5.2675c.342.5912.9779.9911 1.7079.9999-.5801-1.2206-.415-2.687.4952-3.7678L13 16.5172V15h1.1236l.5054-.6824.0617-.069C15.3344 13.5293 16.2438 13 17.4232 13h5.1039c.1577 0 .3157.0091.4728.0277V2c0-.5523-.4477-1-1-1m-4.5767 12H3V3h17.9999v10z" clip-rule="evenodd"/><path fill="currentColor" fill-rule="evenodd" d="M16.1811 15.5823c.33-.3687.7233-.5823 1.2421-.5823h5.1039c.9594 0 1.4728.6164 1.4728 1.5v6c0 .8837-.5134 1.5-1.4728 1.5l-5.1039-.0001c-.5188 0-.9121-.2136-1.2421-.5823l-2.1478-2.9c-.5288-.591-.5288-1.4443 0-2.0353zm1.7364 3.936c0 .5538-.4489 1.0027-1.0027 1.0027s-1.0027-.4489-1.0027-1.0027.4489-1.0027 1.0027-1.0027 1.0027.4489 1.0027 1.0027" clip-rule="evenodd"/></svg>