<svg xmlns="http://www.w3.org/2000/svg" fill="none" viewBox="0 0 32 32"><path fill="currentColor" fill-rule="evenodd" d="M3 5c0-1.105.895-2 2-2h22c1.105 0 2 .895 2 2v8c0 1.105-.895 2-2 2H5c-1.105 0-2-.895-2-2zm3 1c0-.552.448-1 1-1s1 .448 1 1v6c0 .552-.448 1-1 1s-1-.448-1-1zm5-1c-.552 0-1 .448-1 1v6c0 .552.448 1 1 1s1-.448 1-1V6c0-.552-.448-1-1-1m3 1c0-.552.448-1 1-1s1 .448 1 1v6c0 .552-.448 1-1 1s-1-.448-1-1zm12 3c0 1.105-.895 2-2 2s-2-.895-2-2 .895-2 2-2 2 .895 2 2M3 19c0-1.105.895-2 2-2h22c1.105 0 2 .895 2 2v8c0 1.105-.895 2-2 2H5c-1.105 0-2-.895-2-2zm3 1c0-.552.448-1 1-1s1 .448 1 1v6c0 .552-.448 1-1 1s-1-.448-1-1zm5-1c-.552 0-1 .448-1 1v6c0 .552.448 1 1 1s1-.448 1-1v-6c0-.552-.448-1-1-1m3 1c0-.552.448-1 1-1s1 .448 1 1v6c0 .552-.448 1-1 1s-1-.448-1-1zm12 3c0 1.105-.895 2-2 2s-2-.895-2-2 .895-2 2-2 2 .895 2 2" clip-rule="evenodd"/></svg>