<svg xmlns="http://www.w3.org/2000/svg" fill="none" viewBox="0 0 32 32"><path fill="currentColor" fill-rule="evenodd" d="M3 5c0-1.105.895-2 2-2h22c1.105 0 2 .895 2 2v8c0 .608-.271 1.152-.699 1.519C26.764 13.557 24.947 13 23 13c-2.252 0-4.329.744-6.001 2H5c-1.105 0-2-.895-2-2zm3 1c0-.552.448-1 1-1s1 .448 1 1v6c0 .552-.448 1-1 1s-1-.448-1-1zm5-1c-.552 0-1 .448-1 1v6c0 .552.448 1 1 1s1-.448 1-1V6c0-.552-.448-1-1-1m3 1c0-.552.448-1 1-1s1 .448 1 1v6c0 .552-.448 1-1 1s-1-.448-1-1zm12 3c0 1.105-.895 2-2 2s-2-.895-2-2 .895-2 2-2 2 .895 2 2M14.999 17H5c-1.105 0-2 .895-2 2v8c0 1.105.895 2 2 2h9.999C13.744 27.329 13 25.251 13 23s.744-4.329 1.999-6M6 20c0-.552.448-1 1-1s1 .448 1 1v6c0 .552-.448 1-1 1s-1-.448-1-1zm5-1c-.552 0-1 .448-1 1v6c0 .552.448 1 1 1s1-.448 1-1v-6c0-.552-.448-1-1-1M31 23c0 4.418-3.582 8-8 8s-8-3.582-8-8 3.582-8 8-8 8 3.582 8 8m-6.256 3.069q-.72.576-2.004.576-1.183 0-2.093-.445v-1.456q.748.334 1.266.47t.948.137q.516 0 .791-.197.276-.197.276-.586 0-.217-.121-.387t-.356-.326-.958-.5q-.677-.318-1.016-.612a2.3 2.3 0 0 1-.541-.682q-.202-.389-.202-.91 0-.981.665-1.542t1.838-.561q.576 0 1.1.136.523.137 1.094.384l-.505 1.218q-.591-.243-.978-.339t-.761-.096q-.445 0-.682.207-.238.207-.238.541 0 .207.096.362.096.154.306.298t.993.518q1.036.496 1.421.993.384.498.384 1.221 0 1.001-.72 1.577" clip-rule="evenodd"/></svg>