<svg xmlns="http://www.w3.org/2000/svg" fill="none" viewBox="0 0 24 24"><path fill="currentColor" fill-rule="evenodd" d="M2 4c0-1.105.895-2 2-2h16c1.105 0 2 .895 2 2v5c0 .616-.278 1.167-.716 1.534C20.423 10.189 19.484 10 18.5 10c-1.364 0-2.642.364-3.744 1H4c-1.105 0-2-.895-2-2zm2.003 1c0-.552.448-1 1-1s1 .448 1 1v3c0 .552-.448 1-1 1s-1-.448-1-1zM9 4c-.552 0-1 .448-1 1v3c0 .552.448 1 1 1s1-.448 1-1V5c0-.552-.448-1-1-1m8.5 4c.828 0 1.5-.672 1.5-1.5S18.328 5 17.5 5 16 5.672 16 6.5 16.672 8 17.5 8M11 17.5c0-1.688.558-3.246 1.5-4.5H4c-1.105 0-2 .895-2 2v5c0 1.105.895 2 2 2h8.5C11.558 20.747 11 19.188 11 17.5M4.004 16c0-.552.448-1 1-1s1 .448 1 1v3c0 .552-.448 1-1 1s-1-.448-1-1zM9 15c-.552 0-1 .448-1 1v3c0 .552.448 1 1 1s1-.448 1-1v-3c0-.552-.448-1-1-1M18.5 23c3.038 0 5.5-2.462 5.5-5.5S21.538 12 18.5 12 13 14.462 13 17.5s2.462 5.5 5.5 5.5m-.179-2.994q.883 0 1.378-.396.495-.396.495-1.084 0-.497-.264-.839-.264-.342-.977-.683-.539-.257-.683-.356-.144-.099-.21-.205-.066-.106-.066-.248 0-.229.163-.372t.469-.142q.257 0 .523.066.266.066.673.233l.348-.838q-.393-.17-.752-.264-.36-.094-.756-.094-.806 0-1.263.386t-.457 1.06q0 .358.139.626t.372.469q.233.202.699.421.497.236.659.344.162.108.245.224.083.117.083.266 0 .268-.189.403-.189.136-.544.136-.295 0-.652-.094-.356-.094-.871-.323V19.7q.626.306 1.439.306" clip-rule="evenodd"/></svg>