<svg xmlns="http://www.w3.org/2000/svg" fill="none" viewBox="0 0 32 32"><path fill="currentColor" fill-rule="evenodd" d="M7 11c-2.209 0-4-1.791-4-4s1.791-4 4-4 4 1.791 4 4-1.791 4-4 4m0-2c1.105 0 2-.895 2-2s-.895-2-2-2-2 .895-2 2 .895 2 2 2M3 25c0-1.864 1.275-3.43 3-3.874V14c0-.552.448-1 1-1s1 .448 1 1v7.126c1.725.444 3 2.01 3 3.874 0 2.209-1.791 4-4 4s-4-1.791-4-4m4 2c1.105 0 2-.895 2-2s-.895-2-2-2-2 .895-2 2 .895 2 2 2M21 7c0 1.864 1.275 3.43 3 3.874V18c0 .552.448 1 1 1s1-.448 1-1v-7.126c1.725-.444 3-2.01 3-3.874 0-2.209-1.791-4-4-4s-4 1.791-4 4m4 2c1.105 0 2-.895 2-2s-.895-2-2-2-2 .895-2 2 .895 2 2 2M11.293 12.707 21.554 22.968A3.98 3.98 0 0 0 21 25c0 2.209 1.791 4 4 4s4-1.791 4-4-1.791-4-4-4a3.98 3.98 0 0 0-2.032.554L12.707 11.293c-.39-.39-1.024-.39-1.414 0s-.39 1.024 0 1.414M25 27c1.105 0 2-.895 2-2s-.895-2-2-2-2 .895-2 2 .895 2 2 2" clip-rule="evenodd"/></svg>