<svg xmlns="http://www.w3.org/2000/svg" fill="none" viewBox="0 0 72 72"><path fill="#bdc1c7" d="M5.5 64a.5.5 0 0 0-.5.5v3a.5.5 0 0 0 .5.5h61a.5.5 0 0 0 .5-.5v-3a.5.5 0 0 0-.5-.5z"/><path fill="#243143" d="M5 66h62v1.5a.5.5 0 0 1-.5.5h-61a.5.5 0 0 1-.5-.5z" opacity=".1"/><path fill="#243143" d="M5 67h62v.5a.5.5 0 0 1-.5.5h-61a.5.5 0 0 1-.5-.5z" opacity=".1"/><path fill="#243143" d="M5 64.5a.5.5 0 0 1 .5-.5h61a.5.5 0 0 1 .5.5v.5H5z" opacity=".05"/><path fill="#243143" d="M24 64h24v4H24z" opacity=".05"/><path fill="#243143" d="M25 64h22v4H25z" opacity=".05"/><path fill="#243143" d="M26 64h20v4H26z" opacity=".1"/><path fill="#bdc1c7" d="M34 55h4v8h-4z"/><path fill="#243143" d="M36 55h2v8h-2z" opacity=".1"/><path fill="#243143" d="M37 55h1v7.5a.5.5 0 0 1-.5.5H37z" opacity=".1"/><path fill="#243143" d="M34 55h1v8h-.5a.5.5 0 0 1-.5-.5z" opacity=".05"/><path fill="#243143" d="M34 55h4v3h-4z" opacity=".1"/><path fill="#243143" d="M34 55h4v2h-4z" opacity=".1"/><path fill="#243143" d="M34 55h4v1h-4z" opacity=".2"/><path fill="#bdc1c7" d="M27 63c0-.5523.4477-1 1-1h16c.5523 0 1 .4477 1 1v6c0 .5523-.4477 1-1 1H28c-.5523 0-1-.4477-1-1z"/><path fill="#243143" d="M27 66v3c0 .5523.4477 1 1 1h16c.5523 0 1-.4477 1-1v-3c0 .5523-.4477 1-1 1H28c-.5523 0-1-.4477-1-1" opacity=".1"/><path fill="#243143" d="M27 67v2c0 .5523.4477 1 1 1h16c.5523 0 1-.4477 1-1v-2c0 .5523-.4477 1-1 1H28c-.5523 0-1-.4477-1-1" opacity=".1"/><path fill="#243143" d="M27 68v1c0 .5523.4477 1 1 1h16c.5523 0 1-.4477 1-1v-1c0 .5523-.4477 1-1 1H28c-.5523 0-1-.4477-1-1" opacity=".1"/><path fill="#243143" d="M28 62c-.5523 0-1 .4477-1 1v2c0-.5523.4477-1 1-1h16c.5523 0 1 .4477 1 1v-2c0-.5523-.4477-1-1-1z" opacity=".05"/><path fill="#243143" d="M28 62c-.5523 0-1 .4477-1 1v1c0-.5523.4477-1 1-1h16c.5523 0 1 .4477 1 1v-1c0-.5523-.4477-1-1-1z" opacity=".05"/><path fill="#fff" d="M27 63c0-.552.448-1 1-1v8c-.552 0-1-.448-1-1zM44 62c.552 0 1 .448 1 1v6c0 .552-.448 1-1 1z" opacity=".15"/><path fill="#243143" d="M29 62h14v1H29z" opacity=".05"/><path fill="#243143" d="M30 62h12v1H30z" opacity=".05"/><path fill="#243143" d="M31 62h10v1H31z" opacity=".05"/><path fill="#bdc1c7" d="M32 58.5a.5.5 0 0 1 .5-.5h7a.5.5 0 0 1 .5.5v4a.5.5 0 0 1-.5.5h-7a.5.5 0 0 1-.5-.5z"/><path fill="#243143" d="M37 58h2.5a.5.5 0 0 1 .5.5v4a.5.5 0 0 1-.5.5H37z" opacity=".1"/><path fill="#243143" d="M38 58h1.5a.5.5 0 0 1 .5.5v4a.5.5 0 0 1-.5.5H38z" opacity=".1"/><path fill="#243143" d="M39 58h.5a.5.5 0 0 1 .5.5v4a.5.5 0 0 1-.5.5H39zM32 58.5a.5.5 0 0 1 .5-.5H34v5h-1.5a.5.5 0 0 1-.5-.5z" opacity=".05"/><path fill="#243143" d="M32 58.5a.5.5 0 0 1 .5-.5h.5v5h-.5a.5.5 0 0 1-.5-.5z" opacity=".05"/><path fill="#243143" d="M32 61.5v1a.5.5 0 0 0 .5.5h7a.5.5 0 0 0 .5-.5v-1a.5.5 0 0 1-.5.5h-7a.5.5 0 0 1-.5-.5" opacity=".1"/><path fill="#fff" d="M32.5 58a.5.5 0 0 0-.5.5v1a.5.5 0 0 1 .5-.5h7a.5.5 0 0 1 .5.5v-1a.5.5 0 0 0-.5-.5z" opacity=".2"/><path fill="#f5cb63" d="M5 7v18h62V13c0-2.2091-1.7909-4-4-4H35.8735a4 4 0 0 1-3.0729-1.4393l-2.6012-3.1214A4 4 0 0 0 27.1265 3H9C6.7909 3 5 4.7909 5 7"/><path fill="url(#network-folder-ill--72-a)" d="M5 7v18h62V13c0-2.2091-1.7909-4-4-4H35.8735a4 4 0 0 1-3.0729-1.4393l-2.6012-3.1214A4 4 0 0 0 27.1265 3H9C6.7909 3 5 4.7909 5 7" opacity=".1"/><path fill="#fff" d="M5 8V7c0-2.2091 1.7909-4 4-4h18.1265a4 4 0 0 1 3.0729 1.4393l2.6012 3.1214A4 4 0 0 0 35.8735 9H63c2.2091 0 4 1.7909 4 4v1c0-2.2091-1.7909-4-4-4H35.8735a4 4 0 0 1-3.0729-1.4393l-2.6012-3.1214A4 4 0 0 0 27.1265 4H9C6.7909 4 5 5.7909 5 8" opacity=".3"/><path fill="#d6a948" fill-opacity=".6" d="M67 16.9771c-.6098-.604-1.4488-.9771-2.375-.9771H7.375c-.9261 0-1.7652.373-2.375.9771v2C5.6098 18.373 6.4489 18 7.375 18h57.25c.9262 0 1.7652.3731 2.375.9771z"/><path fill="#ce983a" fill-opacity=".4" d="M67 17.977c-.61-.604-1.449-.977-2.375-.977H7.375c-.926 0-1.765.373-2.375.977v1C5.61 18.373 6.449 18 7.375 18h57.25c.926 0 1.765.373 2.375.977zM4 21.375V21h.021A3.4 3.4 0 0 0 4 21.375"/><path fill="#f5cb63" d="M64.625 18H7.375C5.511 18 4 19.511 4 21.375v30.25C4 53.489 5.511 55 7.375 55h57.25C66.489 55 68 53.489 68 51.625v-30.25C68 19.511 66.489 18 64.625 18"/><path fill="#f9e08b" d="M7.375 18h57.25C66.489 18 68 19.511 68 21.375v1C68 20.511 66.489 19 64.625 19H7.375C5.511 19 4 20.511 4 22.375v-1C4 19.511 5.511 18 7.375 18"/><path fill="#dcb759" d="M4 50.625v1C4 53.489 5.511 55 7.375 55h57.25C66.489 55 68 53.489 68 51.625v-1C68 52.489 66.489 54 64.625 54H7.375C5.511 54 4 52.489 4 50.625"/><defs><linearGradient id="network-folder-ill--72-a" x1="36" x2="36" y1="11.6842" y2="3" gradientUnits="userSpaceOnUse"><stop/><stop offset="1" stop-opacity=".4"/></linearGradient></defs></svg>