<svg xmlns="http://www.w3.org/2000/svg" fill="none" viewBox="0 0 24 24"><path fill="currentColor" d="M11.7524 22.9973C5.7916 22.8656 1 17.9924 1 12 1 5.9249 5.9249 1 12 1c5.9924 0 10.8656 4.7916 10.9973 10.7524a7.97 7.97 0 0 0-3.0482-1.5133A1.99 1.99 0 0 0 19 10q-.1447.0001-.284.02c-.6693-2.274-2.4621-4.0667-4.736-4.736q.0199-.1393.02-.284c0-1.1046-.8954-2-2-2s-2 .8954-2 2q.0001.1447.02.284c-2.5922.763-4.559 2.9859-4.9493 5.7172A2 2 0 0 0 5 11c-1.1046 0-2 .8954-2 2s.8954 2 2 2c.219 0 .4298-.0352.627-.1002.8346 1.8314 2.4356 3.2401 4.393 3.8162A2 2 0 0 0 10 19c0 .3435.0866.6667.2391.9491a7.97 7.97 0 0 0 1.5133 3.0482"/><path fill="currentColor" d="M16.633 10.1163C15.8891 8.2885 14.095 7 12 7c-2.7614 0-5 2.2386-5 5 0 2.095 1.2885 3.8891 3.1163 4.633.5721-3.3228 3.1939-5.9446 6.5167-6.5167"/><path fill="currentColor" fill-rule="evenodd" d="M18 24c3.3137 0 6-2.6863 6-6s-2.6863-6-6-6-6 2.6863-6 6 2.6863 6 6 6m1-8.5c0-.2761.2451-.5.5-.5h1.0385c.2549 0 .4615.2239.4615.5v5c0 .2761-.2066.5-.4615.5h-5.077c-.2549 0-.4615-.2239-.4615-.5v-5c0-.2761.2066-.5.4615-.5H16.5c.2549 0 .5.2239.5.5v2h2z" clip-rule="evenodd"/></svg>