<svg xmlns="http://www.w3.org/2000/svg" fill="none" viewBox="0 0 32 32"><path fill="currentColor" fill-rule="evenodd" d="M3 4c0-.5523.4477-1 1-1h7.7771c.893 0 1.6777.592 1.923 1.4505L14.1428 6H27c1.1045 0 2 .8954 2 2v15c0 1.1045-.8955 2-2 2H17v2h11c.5523 0 1 .4477 1 1s-.4477 1-1 1H4c-.5523 0-1-.4477-1-1s.4477-1 1-1h11v-2H5c-1.1046 0-2-.8955-2-2zm21.0863 15.461q.6523-.671.6523-1.9328 0-.788-.3575-1.4035-.3513-.6156-1.2483-1.2065-.6649-.431-.9346-.7695-.2634-.3386-.2634-.794 0-.4617.2195-.7264.2258-.2708.6398-.2708.3763 0 .7026.1354a5.3 5.3 0 0 1 .6335.3078l.5645-1.342q-.9722-.5786-2.026-.5786-1.104 0-1.7627.6771-.6523.6771-.6523 1.8344 0 .6033.1631 1.0588.1693.4555.4704.8248.3073.3632.897.7633.6774.4556.9723.831.2948.3693.2948.8187 0 .4555-.2509.7202-.2446.2647-.7339.2647-.8594 0-1.8881-.6587v1.6559q.8406.4617 2.0386.4617 1.2233 0 1.8693-.671m-10.4001.5479h-2.0826l-2.8352-6.5188h-.0816q.1569.7448.1569 1.6004v4.9184H7.2629v-8.9995H9.358l2.8102 6.451h.069q-.1192-.6463-.1192-1.5389v-4.9121h1.5682zm1.6183 0h1.6936v-3.6072H19.25v-1.4466h-2.2519v-2.4992h2.415v-1.4465h-4.1086z" clip-rule="evenodd"/></svg>