<svg xmlns="http://www.w3.org/2000/svg" fill="none" viewBox="0 0 24 24"><path fill="currentColor" d="M6 1h7.8156c1.2454 0 2.446.4648 3.3667 1.3033l4.1844 3.811A5 5 0 0 1 23 9.8108V18c0 2.7614-2.2386 5-5 5H6c-2.7614 0-5-2.2386-5-5V6c0-2.7614 2.2386-5 5-5m3.5508 14V9.289h-.8555v2.9922q0 .3165.0235.8809t.0312.6543h-.0234L5.9258 9.2891H4.793V15h.8476v-2.9688q0-.6015-.0547-1.3281l-.0195-.2539h.0313L8.4063 15zm2.4336 0v-2.3438h2.1523v-.7929h-2.1523v-1.7852h2.2968v-.789h-3.2226V15zm6.625-1.5508q0-.3867-.1367-.6719-.1368-.2851-.4297-.5117-.293-.2265-.9219-.4883-.5586-.2304-.7734-.3711-.2149-.1405-.3086-.2988-.0938-.1581-.0938-.3808 0-.3243.2344-.5215.2343-.1973.6875-.1973.5976 0 1.3594.3203l.2968-.7617q-.8124-.3594-1.6328-.3594-.8554 0-1.3633.4102t-.5078 1.125q0 .5703.3203.9766.3204.4062 1.1016.7226.7578.3046 1 .5274.2422.2226.2422.5429 0 .3555-.2637.5664t-.8183.211q-.3789 0-.8184-.1055a4.3 4.3 0 0 1-.8301-.2891v.8828q.6172.3009 1.586.3008.9687 0 1.5195-.4336t.5508-1.1953"/></svg>