<svg xmlns="http://www.w3.org/2000/svg" fill="none" viewBox="0 0 32 32"><path fill="currentColor" fill-rule="evenodd" d="M4 3c-1.1046 0-2 .8954-2 2v18c0 1.1046.8954 2 2 2h8l-.8447 3.3787c-.0789.3156.1598.6213.4851.6213h8.7192c.3253 0 .564-.3057.4851-.6213L20 25h8c1.1046 0 2-.8954 2-2V5c0-1.1046-.8954-2-2-2zm13.6417 11.8076a.229.229 0 0 0 .0685-.1629.227.227 0 0 0-.0685-.163l-.0543-.0489-6.1879-5.373A.25.25 0 0 0 11.2419 9H8.2485a.25.25 0 0 0-.2445.2119.261.261 0 0 0 .0923.2445l5.6664 4.9818a.2718.2718 0 0 1 0 .4183l-5.6772 4.9439a.277.277 0 0 0-.0652.3042.256.256 0 0 0 .2336.1467h3.113a.26.26 0 0 0 .163-.0598l6.0521-5.3404zm.891-1.092a.266.266 0 0 0 .3477 0l4.9546-4.2592a.277.277 0 0 0 .0924-.2445A.25.25 0 0 0 23.6829 9h-2.9934a.26.26 0 0 0-.163.0598l-3.477 2.9337a.28.28 0 0 0-.0684.0948.281.281 0 0 0 0 .2287.28.28 0 0 0 .0684.0948zm5.3568 6.1119-5.0254-4.2484a.255.255 0 0 0-.3422 0l-1.3854 1.2495a.2834.2834 0 0 0-.0684.3235.28.28 0 0 0 .0684.0948l3.4553 2.9772a.25.25 0 0 0 .1575.0597h3.0043a.244.244 0 0 0 .2445-.2118.2603.2603 0 0 0-.1086-.2445" clip-rule="evenodd"/></svg>