<svg xmlns="http://www.w3.org/2000/svg" fill="none" viewBox="0 0 16 16"><path fill="currentColor" d="M3.754 8.495c.044 0 .082.032.091.074.362 1.805 1.782 3.227 3.586 3.59a.092.092 0 0 1 .074.089.094.094 0 0 1-.074.091c-1.805.363-3.226 1.783-3.59 3.587A.093.093 0 0 1 3.75 16a.093.093 0 0 1-.09-.074c-.362-1.805-1.782-3.226-3.586-3.59A.093.093 0 0 1 0 12.246a.093.093 0 0 1 .074-.091c1.805-.362 3.227-1.782 3.59-3.586a.093.093 0 0 1 .09-.074M10.373 0a.138.138 0 0 1 .136.111c.544 2.707 2.674 4.84 5.38 5.386A.137.137 0 0 1 16 5.632a.138.138 0 0 1-.111.136c-2.707.544-4.841 2.674-5.386 5.38a.137.137 0 0 1-.135.111.138.138 0 0 1-.136-.111c-.544-2.707-2.674-4.84-5.38-5.386a.137.137 0 0 1-.111-.135.138.138 0 0 1 .111-.136c2.707-.544 4.841-2.674 5.386-5.38A.137.137 0 0 1 10.373 0"/></svg>