<svg xmlns="http://www.w3.org/2000/svg" fill="none" viewBox="0 0 32 32"><path fill="currentColor" fill-rule="evenodd" d="M16 12.5333V5c0-1.1046-.8954-2-2-2H5c-1.1046 0-2 .8954-2 2v24h26V14.5333c0-1.1045-.8954-2-2-2zM8 23.5a.5.5 0 0 1-.5.5h-1a.5.5 0 0 1-.5-.5v-2a.5.5 0 0 1 .5-.5h1a.5.5 0 0 1 .5.5zM7.5 19a.5.5 0 0 0 .5-.5v-2a.5.5 0 0 0-.5-.5h-1a.5.5 0 0 0-.5.5v2a.5.5 0 0 0 .5.5zm.4993-5.5a.5.5 0 0 1-.5.5h-1a.5.5 0 0 1-.5-.5v-2a.5.5 0 0 1 .5-.5h1a.5.5 0 0 1 .5.5zm-.5-4.5a.5.5 0 0 0 .5-.5v-2a.5.5 0 0 0-.5-.5h-1a.5.5 0 0 0-.5.5v2a.5.5 0 0 0 .5.5zM13 23.5a.5.5 0 0 1-.5.5h-1a.5.5 0 0 1-.5-.5v-2a.5.5 0 0 1 .5-.5h1a.5.5 0 0 1 .5.5zm-.5-4.5a.5.5 0 0 0 .5-.5v-2a.5.5 0 0 0-.5-.5h-1a.5.5 0 0 0-.5.5v2a.5.5 0 0 0 .5.5zm.5-5.5a.5.5 0 0 1-.5.5h-1a.5.5 0 0 1-.5-.5v-2a.5.5 0 0 1 .5-.5h1a.5.5 0 0 1 .5.5zM12.5 9a.5.5 0 0 0 .5-.5v-2a.5.5 0 0 0-.5-.5h-1a.5.5 0 0 0-.5.5v2a.5.5 0 0 0 .5.5zM21 23.5a.5.5 0 0 1-.5.5h-1a.5.5 0 0 1-.5-.5v-2a.5.5 0 0 1 .5-.5h1a.5.5 0 0 1 .5.5zm-.5-4.5a.5.5 0 0 0 .5-.5v-2a.5.5 0 0 0-.5-.5h-1a.5.5 0 0 0-.5.5v2a.5.5 0 0 0 .5.5zm5.5 4.5a.5.5 0 0 1-.5.5h-1a.5.5 0 0 1-.5-.5v-2a.5.5 0 0 1 .5-.5h1a.5.5 0 0 1 .5.5zm-.5-4.5a.5.5 0 0 0 .5-.5v-2a.5.5 0 0 0-.5-.5h-1a.5.5 0 0 0-.5.5v2a.5.5 0 0 0 .5.5z" clip-rule="evenodd"/></svg>