<svg xmlns="http://www.w3.org/2000/svg" fill="none" viewBox="0 0 24 24"><path fill="currentColor" d="M4.325 12.403q-.245-.509-.245-1.481 0-.975.245-1.481.245-.509.727-.509Q6 8.933 6 10.922t-.956 1.99q-.474 0-.719-.509M15.517 10.65h-.272V9.003h.264q.361 0 .532.187.175.183.175.618 0 .42-.163.633-.163.21-.536.21"/><path fill="currentColor" fill-rule="evenodd" d="M3 2c-1.1046 0-2 .8954-2 2v13c0 1.1046.8954 2 2 2h5.8l-.6323 2.3712c-.0847.3174.1546.6288.4831.6288h6.6984c.3285 0 .5678-.3114.4831-.6288L15.2 19H21c1.1046 0 2-.8954 2-2V4c0-1.1046-.8954-2-2-2zm4.0842 8.9223q0 1.4106-.5285 2.1684t-1.5117.7577q-.987 0-1.5155-.7538Q3 12.3368 3 10.9145q0-1.4106.5285-2.1606Q4.057 8 5.0518 8q.9832 0 1.5078.7578.5246.7538.5246 2.1645m3.1516-2.833h1.0647l-1.3368 5.6814H8.6192l-1.329-5.6813h1.0647l.7423 3.4702q.101.443.1981 1.2707.0817-.7034.206-1.2707zm1.7564 5.6814V8.0894h.9948v5.6813zm3.2527-2.2111v2.2111h-1.057V8.0894h1.3834q.8782 0 1.294.4158.4197.4157.4197 1.2707 0 1.0764-.7267 1.5039l1.092 2.4909h-1.1308l-.8977-2.2111zm4.6669 2.2111h-1.0531V9.0181h-1.0881v-.9287h3.2293v.9287h-1.0881z" clip-rule="evenodd"/></svg>