<svg xmlns="http://www.w3.org/2000/svg" fill="none" viewBox="0 0 32 32"><path fill="currentColor" d="M6.469 16.367q-.292-.608-.292-1.767 0-1.164.292-1.767.292-.608.867-.608 1.132 0 1.132 2.375t-1.141 2.375q-.566 0-.858-.608M19.828 14.275h-.325v-1.967h.315q.431 0 .636.223.209.218.209.738 0 .501-.195.756-.195.251-.64.25"/><path fill="currentColor" fill-rule="evenodd" d="M2 5c0-1.1046.8954-2 2-2h24c1.1046 0 2 .8954 2 2v18c0 1.1046-.8954 2-2 2h-8l.8447 3.3787c.0789.3156-.1598.6213-.4851.6213h-8.7192c-.3253 0-.564-.3057-.4851-.6213L12 25H4c-1.1046 0-2-.8954-2-2zm7.1311 12.1882q.6309-.9045.6309-2.5883 0-1.684-.6263-2.5838-.6262-.9045-1.7998-.9045-1.1874 0-1.8183.8999-.6309.8952-.6309 2.5791 0 1.6977.6309 2.6023.6309.8999 1.809.8999 1.1737 0 1.8045-.9046m5.6638-5.9699h-1.271l-.8767 4.1423q-.1484.6772-.2458 1.5168-.116-.988-.2366-1.5168l-.886-4.1423h-1.271L11.5942 18h1.605zm.8257 0V18h1.1875v-6.7817zM19.5032 18v-2.6394h.4499L21.0247 18h1.3498l-1.3035-2.9734q.8675-.5102.8675-1.7952 0-1.0205-.501-1.5168-.4963-.4963-1.5447-.4963h-1.6513V18zm4.3139 0h1.2571v-5.6731h1.2988v-1.1086h-3.8547v1.1086h1.2988z" clip-rule="evenodd"/></svg>