<svg xmlns="http://www.w3.org/2000/svg" fill="none" viewBox="0 0 32 32"><path fill="currentColor" d="M6.176 14.6q0 1.16.292 1.767t.858.608q1.141 0 1.141-2.375t-1.132-2.375q-.575 0-.867.608-.292.603-.292 1.767M19.503 14.275h.325q.445 0 .64-.25.195-.255.195-.756 0-.52-.209-.738-.204-.223-.635-.223h-.315z"/><path fill="currentColor" fill-rule="evenodd" d="M4 3c-1.1046 0-2 .8954-2 2v18c0 1.1046.8954 2 2 2h8l-.8447 3.3787c-.0789.3156.1598.6213.4851.6213h4.6513c1.6479 1.8412 4.0428 3 6.7083 3 4.9706 0 9-4.0294 9-9 0-2.1433-.7492-4.1116-2-5.6573V5c0-1.1046-.8954-2-2-2zm12 20c0-2.0285.8628-3.8554 2.2415-5.1339a7.03 7.03 0 0 1 1.2617-.9315 6.9526 6.9526 0 0 1 2.0593-.7869A7.03 7.03 0 0 1 23 16c.2764 0 .5491.016.8171.0472a6.96 6.96 0 0 1 1.2571.2652C27.9275 17.1964 30 19.8562 30 23c0 3.866-3.134 7-7 7-1.3197 0-2.554-.3652-3.6076-1C17.3596 27.7751 16 25.5463 16 23m9.0742-8.7598a9 9 0 0 0-1.2571-.2036v-1.7097h-1.2988v-1.1086h3.8547v1.1086h-1.2988zm-15.3122.3597q0 1.6838-.6309 2.5883-.6308.9046-1.8044.9046-1.1782 0-1.8091-.8999-.6309-.9046-.6309-2.6023 0-1.6839.6309-2.5791.6309-.9 1.8183-.8999 1.1736 0 1.7998.9045.6263.8999.6263 2.5838m3.7619-3.3816h1.271L13.1992 18h-1.605l-1.5864-6.7817h1.271l.886 4.1423q.1206.5288.2366 1.5168.0974-.8396.2458-1.5168zm3.2842 5.2502a9.05 9.05 0 0 0-1.1875 1.378v-6.6282h1.1875zm5.0115-2.3918a8.945 8.945 0 0 0-3.5781 1.2827v-4.1411h1.6513q1.0483 0 1.5447.4963.501.4963.501 1.5168 0 .4758-.1189.8453" clip-rule="evenodd"/><path fill="currentColor" d="M20.5 19.8616c0-.3839.4147-.6246.7481-.4341l5.4922 3.1384c.3359.1919.3359.6763 0 .8682l-5.4922 3.1384c-.3334.1905-.7481-.0502-.7481-.4341z"/></svg>