<svg xmlns="http://www.w3.org/2000/svg" fill="none" viewBox="0 0 24 24"><path fill="currentColor" d="M10.9998 0C7.603 0 4.5942 1.9992 3.3384 4.9767 1.324 5.9426 0 7.9426 0 10.1874c0 3.0177 2.3796 5.5179 5.4514 5.8079l.5485.0045c.5523 0 1-.4477 1-1s-.4477-1-1-1h-.4545C3.576 13.8094 2 12.1535 2 10.1874c0-1.5563.9895-2.945 2.4833-3.529a1 1 0 0 0 .5778-.5956C5.9186 3.6575 8.29 2 10.9998 2c2.9895 0 5.5386 2.014 6.1399 4.7652a1 1 0 0 0 .6231.7218c1.3434.5083 2.2369 1.7476 2.2369 3.1379 0 1.8552-1.5789 3.3749-3.5454 3.3749h-.4522c-.5523 0-1 .4477-1 1q.0001.0884.0149.1728.0573.0206.1143.0435a3 3 0 0 1 .4955.2555 4.98 4.98 0 0 1 2.1229-.4718c.5387 0 1.0576.0852 1.5438.2429 1.6188-.9367 2.7062-2.6508 2.7062-4.6178 0-2.0585-1.2031-3.8926-3.035-4.794C17.9748 2.4189 14.739 0 10.9998 0"/><path fill="currentColor" d="M14 14.997a3.01 3.01 0 0 0-1.998.769c-.825-.734-2.027-.983-3.12-.541a3 3 0 0 0-.716.411 1 1 0 0 1-.165-.551v-2.586c0-.828.672-1.5 1.5-1.5h3c.828 0 1.5.672 1.5 1.5zM9 8c0 1.105.895 2 2 2s2-.895 2-2-.895-2-2-2-2 .895-2 2M10.929 17.629c-.205-.513-.787-.762-1.3-.557s-.762.787-.557 1.3l2 5a1 1 0 0 0 1.857 0l1.7-4.25a.193.193 0 0 1 .371.072V23c0 .552.448 1 1 1S17 23.552 17 23v-3.25a.75.75 0 0 1 1.5 0V23c0 .552.448 1 1 1s1-.448 1-1v-3.25a.75.75 0 0 1 1.5 0V23c0 .552.448 1 1 1s1-.448 1-1v-3.25c0-1.519-1.231-2.75-2.75-2.75a2.74 2.74 0 0 0-1.75.629 2.74 2.74 0 0 0-1.75-.629 2.738 2.738 0 0 0-1.564.488A2.184 2.184 0 0 0 14.808 17a2.193 2.193 0 0 0-2.036 1.378l-.772 1.929z"/></svg>