<svg xmlns="http://www.w3.org/2000/svg" fill="none" viewBox="0 0 24 24"><g fill="currentColor" clip-path="url(#partner-vcd--24-a)"><path d="M11 0C7.603 0 4.5943 1.9993 3.3385 4.9767 1.324 5.9427 0 7.9427 0 10.1875c0 3.0178 2.3796 5.518 5.4514 5.8081L6 16c.5523 0 1-.4477 1-1s-.4477-1-1-1h-.4546C3.576 13.8096 2 12.1537 2 10.1875c0-1.5563.9895-2.945 2.4834-3.5291a1 1 0 0 0 .5778-.5955C5.9187 3.6576 8.29 2 11 2c2.9895 0 5.5387 2.0141 6.14 4.7653a1 1 0 0 0 .623.7218C19.1065 7.9955 20 9.2347 20 10.625 20 12.4802 18.421 14 16.4545 14h-.4522c-.5523 0-1 .4477-1 1q.0001.0885.0149.1728.0573.0205.1144.0435a3 3 0 0 1 .4954.2555A4.98 4.98 0 0 1 17.7499 15c.5388 0 1.0576.0852 1.5438.2429C20.9126 14.3062 22 12.5921 22 10.625c0-2.0585-1.2031-3.8926-3.035-4.794C17.975 2.419 14.7392 0 11 0"/><path d="M14 14.997a3.01 3.01 0 0 0-1.998.769c-.825-.734-2.027-.983-3.12-.541a3 3 0 0 0-.716.411A1 1 0 0 1 8 15.086V12.5c0-.828.672-1.5 1.5-1.5h3c.828 0 1.5.672 1.5 1.5zM9 8c0 1.105.895 2 2 2s2-.895 2-2-.895-2-2-2-2 .895-2 2M10.929 17.629c-.205-.513-.787-.762-1.3-.557s-.762.787-.557 1.3l2 5a1 1 0 0 0 1.857 0l1.7-4.25a.193.193 0 0 1 .371.072v3.808c0 .552.448 1 1 1s1-.448 1-1v-3.25a.75.75 0 0 1 1.5 0v3.25c0 .552.448 1 1 1s1-.448 1-1v-3.25a.75.75 0 0 1 1.5 0v3.25c0 .552.448 1 1 1s1-.448 1-1v-3.25c0-1.519-1.231-2.75-2.75-2.75a2.74 2.74 0 0 0-1.75.629 2.74 2.74 0 0 0-1.75-.628 2.737 2.737 0 0 0-1.564.488 2.183 2.183 0 0 0-1.379-.488 2.193 2.193 0 0 0-2.036 1.378l-.772 1.929z"/></g><defs><clipPath id="partner-vcd--24-a"><path fill="#fff" d="M0 0h24v24H0z"/></clipPath></defs></svg>