<svg xmlns="http://www.w3.org/2000/svg" fill="none" viewBox="0 0 16 16"><path fill="currentColor" d="M7.747 8.03c.55 0 .996.447.996.997a1 1 0 0 1-.007.117l-.019.163L7.518 10.892l-.004.005c-.584.779-.594 1.81-.13 2.591.087.146.192.281.309.404l-.255 1.686A.498.498 0 0 1 6.946 16H5.81a.498.498 0 0 1-.493-.423l-.434-2.864-.425-.426a.3.3 0 0 1-.086-.176L4.02 9.144a.996.996 0 0 1 .871-1.106 1 1 0 0 1 .118-.008zM12.062 7.803c.147-.196.408-.246.624-.127.218.124.329.383.27.632l-.639 2.697 1.456-.361c.213-.053.438.047.557.247.119.2.108.456-.025.634l-3.139 4.15c-.147.196-.407.251-.624.127-.217-.124-.329-.382-.269-.631l.639-2.698-1.457.361c-.212.052-.437-.046-.556-.246-.119-.2-.108-.456.025-.635z"/><path fill="currentColor" d="M7.9995 0c3.0057 0 5.5108 2.141 6.0748 4.9821l.001.001c1.1491.6474 1.9237 1.8788 1.9237 3.2898 0 .5316-.112 1.0365-.3105 1.495-.2748-.3577-.6527-.6343-1.0859-.7811l.0635-.2686.001.001c.2404-1.0006-.2027-2.0539-1.1084-2.5711l-.0097-.0069-.0108-.0049-.1816-.0898a2.27 2.27 0 0 0-1.1445-.1816c-.0034-.0143-.0078-.0285-.0107-.043l-.0889-.4511c-.3824-1.922-2.0804-3.371-4.113-3.371-1.704 0-3.1746 1.0168-3.8308 2.4814l-.1201.2988-.126.3515a1.002 1.002 0 0 1-.4521.5351l-.3252.1826-.001-.001C2.4568 6.2363 2 6.9705 2 7.8083c0 .7392.3586 1.3928.91 1.8016.128.0948.2214.2332.2384.3915l.1357 1.2734c.036.3381-.2703.6113-.5869.4873C1.1181 11.1432 0 9.6065 0 7.8081c0-1.5883.8727-2.9736 2.1659-3.702C3.0232 1.7123 5.3117 0 7.9995 0"/><path fill="currentColor" d="M6.3775 4.2605c.8254 0 1.495.6687 1.495 1.494s-.6697 1.494-1.495 1.494c-.825-.0002-1.494-.6688-1.494-1.494s.669-1.4938 1.494-1.494"/></svg>