<svg xmlns="http://www.w3.org/2000/svg" fill="none" viewBox="0 0 24 24"><path fill="currentColor" fill-rule="evenodd" d="M10.5 0c2.9972 0 5.5812 1.758 6.7822 4.2959C19.4445 5.0365 21 7.0855 21 9.5a5.48 5.48 0 0 1-1.0303 3.2051c.1127.1916.2169.3888.3125.5908C22.4445 14.0365 24 16.0855 24 18.5c0 3.0376-2.4624 5.5-5.5 5.5h-1c-.5523 0-1-.4477-1-1s.4477-1 1-1h1c1.933 0 3.5-1.567 3.5-3.5 0-1.6499-1.1424-3.0358-2.6807-3.4043a1 1 0 0 1-.6982-.6064C17.8175 12.4446 15.8263 11 13.5 11s-4.3175 1.4446-5.121 3.4893a1 1 0 0 1-.6983.6064C6.1424 15.4642 5 16.8501 5 18.5 5 20.433 6.567 22 8.5 22h1c.5523 0 1 .4477 1 1s-.4477 1-1 1h-1C5.4624 24 3 21.5376 3 18.5c0-1.3861.5128-2.6523 1.3584-3.6191C1.8688 14.3552 0 12.146 0 9.5c0-2.4145 1.5555-4.4635 3.7178-5.2041C4.9188 1.758 7.5028 0 10.5 0m0 2C8.1737 2 6.1825 3.4446 5.379 5.4893a1 1 0 0 1-.6983.6064C3.1424 6.4642 2 7.8501 2 9.5 2 11.433 3.567 13 5.5 13h1.3652c1.2569-2.3777 3.7554-4 6.6348-4 1.9916 0 3.8012.7765 5.1436 2.042A3.486 3.486 0 0 0 19 9.5c0-1.6499-1.1424-3.0358-2.6807-3.4043a1 1 0 0 1-.6982-.6064C14.8175 3.4446 12.8263 2 10.5 2" clip-rule="evenodd"/><path fill="currentColor" d="M14.75 17.333c.69 0 1.25.583 1.25 1.301v2.24c0 .23-.088.451-.244.613l-.486.505a.44.44 0 0 0-.119.259l-.091.855c-.054.508-.484.894-.995.894h-1.129c-.511 0-.941-.385-.995-.894l-.091-.855a.44.44 0 0 0-.119-.259l-.486-.505c-.156-.162-.244-.383-.244-.613v-2.24c0-.718.56-1.301 1.25-1.301zM13.5 13c.921 0 1.667.776 1.667 1.733s-.746 1.733-1.667 1.733-1.667-.776-1.667-1.733S12.58 13 13.5 13"/></svg>