<svg xmlns="http://www.w3.org/2000/svg" fill="none" viewBox="0 0 32 32"><path fill="currentColor" fill-rule="evenodd" d="M10 6c0-1.1046.8954-2 2-2h8c1.1046 0 2 .8954 2 2v20c0 .5523-.4477 1-1 1h-4v-2c0-.5523-.4477-1-1-1s-1 .4477-1 1v2h-4c-.5523 0-1-.4477-1-1zm3 2c0 .5523.4477 1 1 1h4c.5523 0 1-.4477 1-1s-.4477-1-1-1h-4c-.5523 0-1 .4477-1 1m1 5c-.5523 0-1-.4477-1-1s.4477-1 1-1h4c.5523 0 1 .4477 1 1s-.4477 1-1 1zm-1 3c0 .5523.4477 1 1 1h4c.5523 0 1-.4477 1-1s-.4477-1-1-1h-4c-.5523 0-1 .4477-1 1m1 5c-.5523 0-1-.4477-1-1s.4477-1 1-1h4c.5523 0 1 .4477 1 1s-.4477 1-1 1z" clip-rule="evenodd"/><path fill="currentColor" d="M8 10.651c0-.328-.311-.568-.629-.483l-1.886.503A2 2 0 0 0 4 12.603V25c0 .552.448 1 1 1h3zM24 13h2c1.105 0 2 .895 2 2v10c0 .552-.448 1-1 1h-3z"/></svg>