<svg xmlns="http://www.w3.org/2000/svg" fill="none" viewBox="0 0 32 32"><path fill="currentColor" d="M14 7c-.552 0-1 .448-1 1s.448 1 1 1h4c.552 0 1-.448 1-1s-.448-1-1-1zM13 12c0-.552.448-1 1-1h4c.552 0 1 .448 1 1s-.448 1-1 1h-4c-.552 0-1-.448-1-1M14 15c-.552 0-1 .448-1 1s.448 1 1 1h4c.552 0 1-.448 1-1s-.448-1-1-1zM13 20c0-.552.448-1 1-1h4c.552 0 1 .448 1 1s-.448 1-1 1h-4c-.552 0-1-.448-1-1"/><path fill="currentColor" fill-rule="evenodd" d="M30 31c.5523 0 1-.4477 1-1s-.4477-1-1-1h-1V15c0-1.1046-.8954-2-2-2h-3V4c0-1.1046-.8954-2-2-2H10c-1.1046 0-2 .8954-2 2v5.3057a2 2 0 0 0-.2828.0204l-3 .4286C3.7319 9.8955 3 10.7393 3 11.7346V29H2c-.5523 0-1 .4477-1 1s.4477 1 1 1zM22 4H10v25h3v-2c0-1.6569 1.3431-3 3-3s3 1.3431 3 3v2h3zm-5 25v-2c0-.5523-.4477-1-1-1s-1 .4477-1 1v2zM5 11.7346l3-.4286V29H5zM24 15v14h3V15z" clip-rule="evenodd"/></svg>