<svg xmlns="http://www.w3.org/2000/svg" fill="none" viewBox="0 0 24 24"><path fill="currentColor" d="M4.3385 6.9767C5.5943 3.9993 8.603 2 12 2c3.7392 0 6.975 2.419 7.965 5.831C21.7969 8.7324 23 10.5665 23 12.625 23 15.6023 20.5088 18 17.4545 18h-.4522c-.5523 0-1-.4477-1-1s.4477-1 1-1h.4522C19.421 16 21 14.4802 21 12.625c0-1.3903-.8935-2.6295-2.237-3.1379a1 1 0 0 1-.623-.7218C17.5387 6.0141 14.9895 4 12 4 9.2901 4 6.9187 5.6576 6.0612 8.0629a1 1 0 0 1-.5778.5955C3.9895 9.2425 3 10.6312 3 12.1875 3 14.1537 4.576 15.8096 6.5455 16H7c.5523 0 1 .4477 1 1s-.4477 1-1 1l-.5486-.0044C3.3796 17.7055 1 15.2053 1 12.1875c0-2.2448 1.324-4.2448 3.3385-5.2108"/><path fill="currentColor" d="M10 10c0 1.105.895 2 2 2s2-.895 2-2-.895-2-2-2-2 .895-2 2M10.5 13c-.828 0-1.5.672-1.5 1.5v2.586a1 1 0 0 0 .293.707l.583.583a.5.5 0 0 1 .144.298l.382 3.436A1 1 0 0 0 11.395 23h1.21a1 1 0 0 0 .994-.89l.382-3.436a.5.5 0 0 1 .143-.298l.583-.583A1 1 0 0 0 15 17.086V14.5c0-.828-.672-1.5-1.5-1.5z"/></svg>