<svg xmlns="http://www.w3.org/2000/svg" fill="none" viewBox="0 0 16 16"><path fill="currentColor" d="M8 4c.552 0 1 .448 1 1s-.448 1-1 1-1-.448-1-1 .448-1 1-1M8 7c.552 0 1 .448 1 1s-.448 1-1 1-1-.448-1-1 .448-1 1-1M8 10c.552 0 1 .448 1 1s-.448 1-1 1-1-.448-1-1 .448-1 1-1"/><path fill="currentColor" fill-rule="evenodd" d="M1 13V5.8198a1 1 0 0 1 .8039-.9806L4 4.4V2c0-.5523.4477-1 1-1h6c.5523 0 1 .4477 1 1v4h2c.5523 0 1 .4477 1 1v6c.5523 0 1 .4477 1 1s-.4477 1-1 1H1c-.5523 0-1-.4477-1-1s.4477-1 1-1M6 3v10h4V3zm7 10h-1V8h1zM3 6.6396V13h1V6.4396z" clip-rule="evenodd"/></svg>