<svg xmlns="http://www.w3.org/2000/svg" fill="none" viewBox="0 0 24 24"><path fill="currentColor" fill-rule="evenodd" d="M8.5 2C7.6716 2 7 2.6716 7 3.5v16.75a.75.75 0 0 0 .75.75H11v-2c0-.5523.4477-1 1-1s1 .4477 1 1v2h3.25a.75.75 0 0 0 .75-.75V3.5c0-.8284-.6716-1.5-1.5-1.5zM11 7c-.5523 0-1-.4477-1-1s.4477-1 1-1h2c.5523 0 1 .4477 1 1s-.4477 1-1 1zm-1 3c0 .5523.4477 1 1 1h2c.5523 0 1-.4477 1-1s-.4477-1-1-1h-2c-.5523 0-1 .4477-1 1m1 5c-.5523 0-1-.4477-1-1s.4477-1 1-1h2c.5523 0 1 .4477 1 1s-.4477 1-1 1z" clip-rule="evenodd"/><path fill="currentColor" d="M5 8.325a.25.25 0 0 0-.314-.242l-1.572.419A1.5 1.5 0 0 0 2 9.952V19.5a.5.5 0 0 0 .5.5H5zM19 11h1.5c.828 0 1.5.672 1.5 1.5v7a.5.5 0 0 1-.5.5H19z"/></svg>