<svg xmlns="http://www.w3.org/2000/svg" fill="none" viewBox="0 0 24 24"><path fill="currentColor" d="M11.5 13c.3234 0 .6222.1033.8672.2773-.2255.079-.4402.1671-.6406.2666-.8277.4113-1.7265 1.1659-1.7266 2.3008v5.168c.0001.8232.4742 1.4448 1.0498 1.8818a.995.995 0 0 1-.4453.1055h-1.209a1.0003 1.0003 0 0 1-.9941-.8896l-.3819-3.4356a.5.5 0 0 0-.1435-.2988l-.583-.583A1 1 0 0 1 7 17.0859V14.5c0-.8284.6716-1.5 1.5-1.5z"/><path fill="currentColor" d="M19 21.013C19 22.111 17.208 23 15 23s-4-.889-4-1.987v-.383c.242.201.51.365.787.504.873.435 2.011.674 3.213.674s2.34-.241 3.213-.674c.275-.137.544-.303.787-.504zM19 18.627c0 1.098-1.792 1.988-4 1.988s-4-.89-4-1.988v-.382c.242.201.51.365.787.504.873.435 2.011.673 3.213.673s2.34-.241 3.213-.673c.275-.137.544-.303.787-.504z"/><path fill="currentColor" d="M12 3c3.6792 0 6.7949 2.4093 7.8584 5.7363l.3408.171C21.8682 9.8195 23 11.5897 23 13.625c0 1.4373-.5656 2.7446-1.4844 3.708-.3811.3997-1.0144.4144-1.414.0332-.3993-.3811-.4142-1.0135-.0332-1.4131.5782-.6063.9316-1.4249.9316-2.3281 0-1.3595-.8044-2.5354-1.9727-3.0703l-.4023-.1826a1.002 1.002 0 0 1-.5381-.6074l-.1338-.421C17.1461 6.8226 14.7833 5 12 5 9.4275 5 7.2145 6.5552 6.2559 8.7842l-.1563.3603a1 1 0 0 1-.5107.5176l-.3575.1592-.001.001C3.9127 10.4079 3 11.7242 3 13.25c0 1.5555.9404 2.9978 2.5898 3.585.5204.1851.7926.757.6075 1.2773-.1852.5202-.7572.7915-1.2774.6065C2.4666 17.8456 1 15.6445 1 13.25c0-2.3449 1.4044-4.361 3.418-5.2559C5.6812 5.0571 8.6006 3 12 3"/><path fill="currentColor" d="M15 13.857c2.208 0 4 .889 4 1.987v.398c0 1.098-1.792 1.987-4 1.987s-4-.889-4-1.987v-.397c0-1.098 1.792-1.987 4-1.987M10 8c1.105 0 2 .895 2 2s-.895 2-2 2-2-.895-2-2 .895-2 2-2"/></svg>