<svg xmlns="http://www.w3.org/2000/svg" fill="none" viewBox="0 0 16 16"><path fill="currentColor" d="M8 0c2.9436 0 5.4404 2.1097 6.0876 4.9866C15.2463 5.6249 16 6.8772 16 8.2727 16 10.323 14.3858 12 12.375 12h-.3732c-.5523 0-1-.4477-1-1s.4477-1 1-1h.3732C13.2637 10 14 9.235 14 8.2727c0-.7604-.4654-1.4181-1.1264-1.6446a1 1 0 0 1-.6667-.8108C11.9088 3.6323 10.1137 2 8 2 6.1333 2 4.4933 3.276 3.9424 5.1249a1 1 0 0 1-.5942.6457C2.5489 6.0831 2 6.8925 2 7.8182 2 9.0315 2.9322 10 4.0625 10c.5523 0 1 .4477 1 1s-.4477 1-1 1C1.8101 12 0 10.1194 0 7.8182 0 6.243.855 4.8275 2.1733 4.115 3.093 1.6705 5.3852 0 8 0"/><path fill="currentColor" d="m10.015 12.071.352-2.953A1 1 0 0 0 10.374 9c0-.552-.448-1-1-1H6.626a1 1 0 0 0-.993 1.118l.355 2.979a.3.3 0 0 0 .086.177L6.5 12.7l.436 2.875A.5.5 0 0 0 7.43 16H8.57a.5.5 0 0 0 .398-.197l-.809-1.632C7.664 13.174 8.384 12 9.49 12h.072c.158 0 .311.025.453.071M8 7c-.828 0-1.5-.672-1.5-1.5S7.172 4 8 4s1.5.672 1.5 1.5S8.828 7 8 7"/><path fill="currentColor" d="M9.9644 13.3144a.5.5 0 1 0-.9285.3714l1 1.9999a.5.5 0 0 0 .9284 0l.8501-1.6251a.0963.0963 0 0 1 .1857.0357V15.5a.5.5 0 1 0 1 0v-1.1249c0-.2071.0429-.375.25-.375s.25.1679.25.375V15.5a.4999.4999 0 1 0 .9999 0v-1.1249c0-.2071.0429-.375.25-.375s.25.1679.25.375V15.5a.5.5 0 1 0 1 0v-1.1249c0-.7593-.4906-1.3749-1.25-1.3749-.3324 0-.5122.1179-.75.3143-.2377-.1964-.4175-.3143-.7499-.3143-.2905 0-.4349.09-.6569.2438a1.092 1.092 0 0 0-.6894-.2439c-.4483 0-.8514.2729-1.0179.6891l-.3858.9645z"/></svg>