<svg xmlns="http://www.w3.org/2000/svg" fill="none" viewBox="0 0 16 16"><path fill="currentColor" d="M7.747 8.03a1 1 0 0 1 .262.036c-.335.364-.568.822-.568 1.374v4.737c0 .23.041.444.112.642l-.114.759A.498.498 0 0 1 6.946 16H5.81a.498.498 0 0 1-.493-.423l-.434-2.864-.425-.426a.3.3 0 0 1-.086-.176L4.02 9.144a.996.996 0 0 1 .871-1.106 1 1 0 0 1 .118-.008zM15.196 14.177c0 1.007-1.544 1.822-3.447 1.822s-3.447-.815-3.447-1.822v-.351c.208.184.44.335.679.463.752.398 1.733.617 2.768.617s2.016-.221 2.768-.617c.237-.125.469-.278.679-.463zM15.196 11.991c0 1.007-1.544 1.822-3.447 1.822s-3.447-.815-3.447-1.822v-.351c.208.184.44.335.679.463.752.398 1.733.617 2.768.617s2.016-.221 2.768-.617c.237-.125.469-.278.679-.463z"/><path fill="currentColor" d="M7.9995 0c3.0057 0 5.5108 2.141 6.0748 4.9821l.001.001c1.1491.6474 1.9237 1.8788 1.9237 3.2898 0 .191-.0156.3783-.0429.5615-.2254-.6615-.7959-1.1438-1.3662-1.4452-.3505-.1852-.7505-.3304-1.1815-.4365-.0319-.0282-.0612-.0555-.0909-.0781a1.8 1.8 0 0 0-.2236-.1494l-.4013-.2246a1 1 0 0 1-.4912-.6787l-.0889-.4511c-.3824-1.922-2.0804-3.371-4.113-3.371-1.704 0-3.1746 1.0168-3.8308 2.4814l-.1201.2988-.126.3515a1.002 1.002 0 0 1-.4521.5351l-.3252.1826-.001-.001C2.4568 6.2363 2 6.9705 2 7.8083c0 .7392.3586 1.3928.91 1.8016.128.0948.2214.2332.2384.3915l.1357 1.2734c.036.3381-.2703.6113-.5869.4873C1.1181 11.1432 0 9.6065 0 7.8081c0-1.5883.8727-2.9736 2.1659-3.702C3.0232 1.7123 5.3117 0 7.9995 0"/><path fill="currentColor" d="M11.749 7.618c1.903 0 3.447.816 3.447 1.822v.364c0 1.007-1.544 1.822-3.447 1.822s-3.447-.815-3.447-1.822v-.364c0-1.006 1.544-1.822 3.447-1.822M6.378 4.261c.825 0 1.495.669 1.495 1.494s-.67 1.494-1.495 1.494c-.825 0-1.494-.669-1.494-1.494s.669-1.494 1.494-1.494"/></svg>