<svg xmlns="http://www.w3.org/2000/svg" fill="none" viewBox="0 0 16 16"><g fill="currentColor" clip-path="url(#partner-storage--16-a)"><path d="M14.0876 4.9866C13.4404 2.1097 10.9436 0 8 0 5.3852 0 3.0929 1.6705 2.1733 4.115.855 4.8275 0 6.243 0 7.8182 0 10.1194 1.8101 12 4.0625 12c.5523 0 1-.4477 1-1s-.4477-1-1-1C2.9322 10 2 9.0315 2 7.8182c0-.9257.5489-1.735 1.3482-2.0476a1 1 0 0 0 .5942-.6457C4.4934 3.2759 6.1334 2 8 2c2.1137 0 3.9088 1.6323 4.2069 3.8173a1 1 0 0 0 .6667.8108C13.5346 6.8546 14 7.5123 14 8.2727 14 9.235 13.2637 10 12.375 10h-.3732c-.5523 0-1 .4477-1 1s.4477 1 1 1h.3732C14.3858 12 16 10.3229 16 8.2727c0-1.3955-.7537-2.6478-1.9124-3.2861"/><path d="M8 7c-.828 0-1.5-.672-1.5-1.5S7.172 4 8 4s1.5.672 1.5 1.5S8.828 7 8 7M9.5 12.7l-.436 2.875A.5.5 0 0 1 8.57 16H7.43a.5.5 0 0 1-.494-.425L6.5 12.7l-.426-.426a.3.3 0 0 1-.086-.177L5.633 9.118A1 1 0 0 1 6.626 8h2.748c.552 0 1 .448 1 1a1 1 0 0 1-.007.118l-.355 2.979a.3.3 0 0 1-.086.177z"/></g><defs><clipPath id="partner-storage--16-a"><path fill="#fff" d="M0 0h16v16H0z"/></clipPath></defs></svg>