<svg xmlns="http://www.w3.org/2000/svg" fill="none" viewBox="0 0 16 16"><path fill="currentColor" d="M3 3H2v11h3v2H1l-.102-.005a1.001 1.001 0 0 1-.893-.893L0 15V2c0-.552.448-1 1-1h2zM12 11c.552 0 1 .448 1 1s-.448 1-1 1h-2c-.552 0-1-.448-1-1s.448-1 1-1zM12 8c.552 0 1 .448 1 1s-.448 1-1 1h-2c-.552 0-1-.448-1-1s.448-1 1-1z"/><path fill="currentColor" fill-rule="evenodd" d="M15 5c.5523 0 1 .4477 1 1v9c0 .5523-.4477 1-1 1H7c-.5523 0-1-.4477-1-1V6c0-.5523.4477-1 1-1zm-7 9h6V7H8z" clip-rule="evenodd"/><path fill="currentColor" d="M8 0c.552 0 1 .448 1 1h1v2c0 .552-.448 1-1 1H5c-.552 0-1-.448-1-1V1h1c0-.552.448-1 1-1zM13 1c.552 0 1 .448 1 1v2h-2V3h-1V1z"/></svg>