<svg xmlns="http://www.w3.org/2000/svg" fill="none" viewBox="0 0 32 32"><path fill="currentColor" d="M14.594 6.154 13.187 4.748c-2.33-2.33-6.109-2.33-8.439 0s-2.33 6.109 0 8.439l1.407 1.407L7.561 13.187l-1.407-1.407c-1.554-1.554-1.554-4.072 0-5.626 1.554-1.554 4.073-1.554 5.626 0l1.407 1.407zM18.813 24.439l-1.407 1.407 1.407 1.407c2.33 2.33 6.109 2.33 8.439 0s2.33-6.109 0-8.439l-1.406-1.406-1.407 1.407 1.407 1.407c1.554 1.554 1.554 4.073 0 5.626s-4.072 1.554-5.626 0z"/><path fill="currentColor" fill-rule="evenodd" d="M27.2522 4.7478c-2.3304-2.3304-6.1088-2.3304-8.4392 0L4.7478 18.813c-2.3304 2.3305-2.3304 6.1088 0 8.4392s6.1087 2.3304 8.4392 0L27.2522 13.187c2.3304-2.3305 2.3304-6.1088 0-8.4392M10.3739 16 16 10.3739 21.6261 16 16 21.6261zm15.4718-9.8457c1.5536 1.5536 1.5536 4.0725 0 5.6261l-2.8131 2.8131-5.6261-5.6261 2.8131-2.813c1.5536-1.5537 4.0725-1.5537 5.6261 0M8.9674 17.4065l5.6261 5.6261-2.8131 2.8131c-1.5536 1.5536-4.0725 1.5536-5.626 0-1.5537-1.5536-1.5537-4.0725 0-5.6261z" clip-rule="evenodd"/></svg>