<svg xmlns="http://www.w3.org/2000/svg" fill="none" viewBox="0 0 16 16"><path fill="currentColor" fill-rule="evenodd" d="M14.7175 1.2825c1.1716 1.1716 1.1716 3.071 0 4.2426l-9.1924 9.1924c-1.1715 1.1716-3.071 1.1716-4.2426 0s-1.1716-3.0711 0-4.2426l9.1924-9.1924c1.1715-1.1716 3.071-1.1716 4.2426 0M11.2071 6.207 9.7928 4.793l-5 5 1.4143 1.4142z" clip-rule="evenodd"/><path fill="currentColor" d="M5.707 4.293 4.111 2.697c-.39-.39-1.024-.39-1.414 0s-.39 1.024 0 1.414L4.293 5.707 2.879 7.121 1.283 5.525c-1.172-1.171-1.172-3.071 0-4.243s3.071-1.172 4.243 0L7.122 2.879zM11.707 10.293l1.414-1.414 1.596 1.596c1.172 1.172 1.172 3.071 0 4.243s-3.071 1.172-4.243 0L8.879 13.122l1.414-1.414 1.596 1.596c.391.391 1.024.391 1.414 0s.391-1.024 0-1.414z"/></svg>