<svg xmlns="http://www.w3.org/2000/svg" fill="none" viewBox="0 0 32 32"><path fill="currentColor" d="M18.707 19.156h-1.696v-1.288h1.822V17h-2.864v4.997h1.042v-1.976h1.696zm-9.627.134c-.162.129-.405.193-.731.193H8V18h.482c.289 0 .502.06.637.178.136.118.204.301.204.55 0 .246-.081.433-.243.562M12.544 18c.915 0 1.372.536 1.372 1.61 0 1.096-.493 1.644-1.477 1.644H12V18zm-1.575 3.997h1.365c.853 0 1.505-.219 1.957-.656q.678-.657.678-1.89c0-.774-.218-1.375-.653-1.805-.436-.431-1.046-.646-1.834-.646h-1.513zM26 28V12h-7V5h-9v10h9.525c.815 0 1.475.66 1.475 1.474v6.051C21 23.34 20.34 24 19.525 24H10v4zM7 21.997h1.06v-1.778h.454q.93 0 1.434-.426c.336-.285.504-.697.504-1.235q0-.7755-.474-1.167c-.315-.26-.776-.391-1.382-.391H7zM20 3l8 8v19H8v-6H6.475C5.66 24 5 23.34 5 22.525v-6.051C5 15.66 5.66 15 6.475 15H8V3z"/></svg>