<svg xmlns="http://www.w3.org/2000/svg" fill="none" viewBox="0 0 24 24"><path fill="currentColor" d="M1.5002 2h16.9999C19.3284 2 20 2.6715 20 3.5V6.977a1 1 0 0 1 0 .0445v3.3406l-1.2056-.3236a1.14 1.14 0 0 0-.5886 0l-.2057.0552V8.5387l-7.1877 3.1945a2 2 0 0 1-1.6245 0L2.0002 8.5387v7.4611h8.9999v2H1.5002c-.8284 0-1.5-.6716-1.5-1.5V7.0217a1 1 0 0 1 0-.0446V3.5c0-.8285.6716-1.5 1.5-1.5m8.4999 7.9056 8-3.5555V4H2.0002v2.35zM24 19.895q0 2.2362-5.232 4.0595a.816.816 0 0 1-.5359 0q-5.232-1.8233-5.232-4.0595v-5.8464c0-.337.2326-.6332.5699-.7258l4.7142-1.294a.82.82 0 0 1 .4318 0l4.7141 1.294c.3373.0926.5699.3888.5699.7258zm-3.7071-4.1024-2.2928 2.2929-1.2929-1.2929c-.3905-.3905-1.0237-.3905-1.4142 0s-.3905 1.0237 0 1.4142l2 2c.3905.3905 1.0237.3905 1.4142 0l2.9999-3c.3905-.3905.3905-1.0237 0-1.4142s-1.0237-.3905-1.4142 0"/></svg>