<svg xmlns="http://www.w3.org/2000/svg" fill="none" viewBox="0 0 16 16"><path fill="currentColor" fill-rule="evenodd" d="M8 0c4.4183 0 8 3.5817 8 8s-3.5817 8-8 8-8-3.5817-8-8 3.5817-8 8-8M4.5146 10.7266a.3747.3747 0 0 0 0 .5302.3747.3747 0 0 0 .5303 0l1.3282-1.3271-.5313-.5313zm5.5743-6.6377a.751.751 0 0 0-1.0616 0 .7516.7516 0 0 0 0 1.0625l.2657.2656-1.085 1.084c-1.044-.7607-2.5158-.6697-3.458.2724a.334.334 0 0 0 0 .4717l3.7764 3.7764a.334.334 0 0 0 .4716 0c.9422-.9422 1.0331-2.414.2725-3.458l1.084-1.085.2656.2656a.7516.7516 0 0 0 1.0625 0 .751.751 0 0 0 0-1.0615z" clip-rule="evenodd"/></svg>