<svg xmlns="http://www.w3.org/2000/svg" fill="none" viewBox="0 0 16 16"><g fill="currentColor" clip-path="url(#pin-default--16-a)"><path d="M1.368 15.765a.801.801 0 1 1-1.133-1.133L3.367 11.5 4.5 12.633zM15.531 3.868c.626.626.626 1.64 0 2.266-.626.626-1.64.626-2.266 0l-.566-.566-2.315 2.315c1.624 2.228 1.43 5.368-.581 7.379a.712.712 0 0 1-1.007 0L.738 7.205a.712.712 0 0 1 0-1.007c2.011-2.011 5.151-2.205 7.379-.581l2.315-2.315-.566-.566c-.626-.626-.626-1.64 0-2.266.626-.626 1.64-.626 2.266 0z"/></g><defs><clipPath id="pin-default--16-a"><path fill="#fff" d="M0 0h16v16H0z"/></clipPath></defs></svg>