<svg xmlns="http://www.w3.org/2000/svg" fill="none" viewBox="0 0 16 16"><circle cx="8" cy="8" r="8" fill="#fff"/><path fill="#ff810d" d="M8 15c-3.866 0-7-3.134-7-7s3.134-7 7-7 7 3.134 7 7-3.134 7-7 7"/><path fill="#000" d="M2.287 3.955c.469.306.96.608 1.474.901 1.735.991 3.539 1.803 5.404 2.407l-.049.148a2.5 2.5 0 0 0-.1.704c0 1.381 1.119 2.5 2.5 2.5 1.307 0 2.38-1.003 2.49-2.281q.488.059.982.099a7.1 7.1 0 0 0-.01-1.006c-3.802-.322-7.389-1.538-10.72-3.441a27.5 27.5 0 0 1-1.33-.81 7 7 0 0 0-.64.778M4.069 8.247h2.892c.035.127.054.261.054.4 0 .828-.672 1.5-1.5 1.5s-1.5-.672-1.5-1.5c0-.092.008-.183.024-.27z"/></svg>