<svg xmlns="http://www.w3.org/2000/svg" fill="none" viewBox="0 0 24 24"><path fill="currentColor" d="M2.293 20.182 18.578 4h-3.133c-.552 0-1-.448-1-1s.448-1 1-1H21c.552 0 1 .448 1 1v5.556c0 .552-.448 1-1 1s-1-.448-1-1V5.406L3.707 21.596c-.39.391-1.024.391-1.414 0s-.39-1.024 0-1.414M3.293 4.818l4.141 4.141c.391.391 1.024.391 1.414 0s.391-1.024 0-1.414L4.707 3.404c-.39-.39-1.024-.39-1.414 0s-.39 1.024 0 1.414M18.586 20l-3.959-3.96c-.391-.39-.391-1.024 0-1.414s1.024-.39 1.414 0L20 18.586v-3.141c0-.552.448-1 1-1s1 .448 1 1V21c0 .552-.448 1-1 1h-5.555c-.552 0-1-.448-1-1s.448-1 1-1z"/></svg>