<svg xmlns="http://www.w3.org/2000/svg" fill="none" viewBox="0 0 32 32"><path fill="currentColor" d="M14.839 2.065c.202-.514.782-.767 1.296-.565l7.63 2.996a2 2 0 0 1 1.201 1.344l4.741 17.697c.286 1.066-.347 2.163-1.413 2.449l-7.035 1.891c-.533.143-1.082-.173-1.225-.706-.143-.533.173-1.082.706-1.225l7.035-1.891-4.741-17.697-7.63-2.995c-.514-.202-.767-.782-.565-1.296M11 9c.552 0 1-.448 1-1s-.448-1-1-1-1 .448-1 1 .448 1 1 1M11 11c.552 0 1 .448 1 1v.382c1.208.269 2.392 1.027 2.759 2.461.137.535-.186 1.08-.721 1.217s-1.08-.186-1.217-.721c-.16-.625-.935-1.127-2.001-1.068-.492.027-.897.18-1.148.385-.22.18-.35.414-.333.774.013.25.075.395.135.486.063.096.164.192.336.29.388.219.928.339 1.685.506l.024.005c.666.147 1.554.344 2.247.813.373.253.711.596.94 1.063.228.463.319.987.295 1.559v-.001L14 20.11l.999.043 0-.002c-.041 1.014-.594 1.769-1.32 2.234-.499.32-1.083.51-1.679.592v.413c0 .552-.448 1-1 1s-1-.448-1-1v-.524c-1.262-.313-2.499-1.107-2.954-2.557-.165-.527.128-1.088.655-1.253s1.088.128 1.253.655c.239.762 1.165 1.312 2.329 1.314.549.001 1.016-.131 1.317-.324.276-.177.391-.38.401-.63l0-.003c.013-.307-.039-.486-.091-.593-.051-.104-.131-.197-.268-.29-.324-.22-.822-.353-1.568-.518l-.144-.032c-.632-.138-1.445-.316-2.104-.689-.378-.214-.745-.51-1.022-.931-.28-.425-.432-.923-.461-1.482l0-.002c-.052-1.034.382-1.868 1.067-2.426.463-.377 1.02-.615 1.592-.737V12c0-.552.448-1 1-1"/><path fill="currentColor" fill-rule="evenodd" d="M9.8118 2.6344a2 2 0 0 1 2.3764 0l6 4.4314c.5105.377.8118.974.8118 1.6088V27c0 1.1045-.8954 2-2 2H5c-1.1046 0-2-.8955-2-2V8.6746a2 2 0 0 1 .8118-1.6088zM11 4.243 5 8.6746V27h12V8.6746z" clip-rule="evenodd"/></svg>