<svg xmlns="http://www.w3.org/2000/svg" fill="none" viewBox="0 0 24 24"><path fill="currentColor" d="M5.0043 13c.266 0 .521.1059.7086.2944L6.4155 14h.1703l.707-.7071A1 1 0 0 1 8 13h2c.5523 0 1 .4477 1 1v7c0 .5523-.4477 1-1 1H3c-.5523 0-1-.4477-1-1v-7c0-.5523.4477-1 1-1zm11 0a1 1 0 0 1 .7086.2944l.7026.7056h.1703l.7071-.7071A1 1 0 0 1 19 13h2c.5523 0 1 .4477 1 1v7c0 .5523-.4477 1-1 1h-7c-.5523 0-1-.4477-1-1v-7c0-.5523.4477-1 1-1zM4.5888 15H4v5h5v-5h-.5858l-.707.7071A1 1 0 0 1 7 16H6a1 1 0 0 1-.7086-.2944zm11 0H15v5h5v-5h-.5858l-.7071.7071A1 1 0 0 1 18 16h-1a1 1 0 0 1-.7086-.2944zM5.0043 2a1 1 0 0 1 .7086.2944L6.4155 3h.1703l.707-.7071A1 1 0 0 1 8 2h2c.5523 0 1 .4477 1 1v7c0 .5523-.4477 1-1 1H3c-.5523 0-1-.4477-1-1V3c0-.5523.4477-1 1-1zm11 0c.2659 0 .5209.106.7086.2944L17.4155 3h.1703l.7071-.7071A1 1 0 0 1 19 2h2c.5523 0 1 .4477 1 1v7c0 .5523-.4477 1-1 1h-7c-.5523 0-1-.4477-1-1V3c0-.5523.4477-1 1-1zM4.5888 4H4v5h5V4h-.5858l-.707.7071A1 1 0 0 1 7 5H6a1 1 0 0 1-.7086-.2944zm11 0H15v5h5V4h-.5858l-.7071.7071A1 1 0 0 1 18 5h-1a1 1 0 0 1-.7086-.2944z"/></svg>