<svg xmlns="http://www.w3.org/2000/svg" fill="none" viewBox="0 0 32 32"><path fill="#ea3939" d="M32 26c0 3.3137-2.6863 6-6 6s-6-2.6863-6-6 2.6863-6 6-6 6 2.6863 6 6"/><path stroke="#243143" stroke-opacity=".1" d="M26 20.5c3.0376 0 5.5 2.4624 5.5 5.5s-2.4624 5.5-5.5 5.5-5.5-2.4624-5.5-5.5 2.4624-5.5 5.5-5.5Z"/><path fill="#fff" d="M23 27c.552 0 1-.448 1-1s-.448-1-1-1-1 .448-1 1 .448 1 1 1M27 26c0 .552-.448 1-1 1s-1-.448-1-1 .448-1 1-1 1 .448 1 1M30 26c0 .552-.448 1-1 1s-1-.448-1-1 .448-1 1-1 1 .448 1 1"/></svg>