<svg xmlns="http://www.w3.org/2000/svg" fill="none" viewBox="0 0 32 32"><path fill="currentColor" fill-rule="evenodd" d="M14 6c0 2.4604 3.0793 4 6.6667 4s6.6666-1.5396 6.6666-4-3.0792-4-6.6666-4S14 3.5396 14 6m10.6667 0c0 .7364-1.7909 1.3333-4 1.3333s-4-.597-4-1.3333c0-.7364 1.7908-1.3333 4-1.3333 2.2091 0 4 .597 4 1.3333" clip-rule="evenodd"/><path fill="currentColor" d="M20.667 15.333C17.079 15.333 14 13.879 14 11.555c0-.574.188-1.096.526-1.555 0 0 2.456 1.956 6.141 1.956 3.685 0 6.141-1.956 6.141-1.956.337.459.526.981.526 1.555 0 2.324-3.079 3.778-6.667 3.778M17.629 20.286a8.52 8.52 0 0 1 2.113-3.038c-3.165-.282-5.216-1.914-5.216-1.914-.337.459-.525.981-.525 1.555 0 1.623 1.501 2.822 3.629 3.397M17 23.5c0-.507.045-1.004.13-1.487-1.635-.574-2.604-1.346-2.604-1.346-.337.459-.525.981-.525 1.555 0 1.521 1.32 2.67 3.238 3.282A8.53 8.53 0 0 1 17 23.5"/><path fill="currentColor" fill-rule="evenodd" d="M6.6667 20.6667c-3.5874 0-6.6667-1.5397-6.6667-4s3.0793-4 6.6667-4 6.6666 1.5396 6.6666 4-3.0792 4-6.6666 4m0-2.6667c2.2091 0 4-.597 4-1.3333 0-.7364-1.7909-1.3334-4-1.3334s-4 .597-4 1.3334S4.4575 18 6.6667 18" clip-rule="evenodd"/><path fill="currentColor" d="M6.6667 26C3.0793 26 0 24.5457 0 22.2217c0-.5744.1881-1.0957.5255-1.555 0 0 2.4563 1.9555 6.1412 1.9555 3.6848 0 6.1411-1.9555 6.1411-1.9555.3374.4593.5255.9806.5255 1.555 0 2.324-3.0792 3.7783-6.6666 3.7783"/><path fill="currentColor" fill-rule="evenodd" d="M25.5 17c-3.5899 0-6.5 2.9101-6.5 6.5 0 3.5898 2.9101 6.5 6.5 6.5s6.5-2.9101 6.5-6.5-2.9101-6.5-6.5-6.5m-1.0833 7.1346V20.25c0-.5983.485-1.0833 1.0833-1.0833s1.0833.485 1.0833 1.0833v3.8846l1.4007-1.4006c.423-.4231 1.109-.4231 1.532 0s.4231 1.109 0 1.532l-3.25 3.25c-.423.4231-1.109.4231-1.532 0l-3.25-3.25c-.4231-.423-.4231-1.109 0-1.532s1.109-.4231 1.532 0z" clip-rule="evenodd"/></svg>