<svg xmlns="http://www.w3.org/2000/svg" fill="none" viewBox="0 0 16 16"><path fill="currentColor" d="M9.7929 5.7929 7.5 8.0858l-1.2929-1.293c-.3905-.3904-1.0237-.3904-1.4142 0-.3905.3906-.3905 1.0238 0 1.4143l2 2c.3905.3905 1.0237.3905 1.4142 0l3-3c.3905-.3905.3905-1.0237 0-1.4142s-1.0237-.3905-1.4142 0"/><path fill="currentColor" fill-rule="evenodd" d="M15 10.527q0 2.9817-6.659 5.4127a.994.994 0 0 1-.682 0Q1 13.5087 1 10.527V2.7317c0-.4494.296-.8443.7253-.9677l6-1.7253a.994.994 0 0 1 .5494 0l6 1.7253c.4293.1234.7253.5183.7253.9677zM8 2 3 3.4537v7.1146C3 11.3935 4.5267 12.674 8 14c3.4733-1.326 5-2.6065 5-3.4317V3.4537z" clip-rule="evenodd"/></svg>