<svg xmlns="http://www.w3.org/2000/svg" fill="none" viewBox="0 0 16 16"><path fill="currentColor" d="M9 7c.552 0 1 .448 1 1s-.448 1-1 1H7c-.552 0-1-.448-1-1s.448-1 1-1zM9 3c.552 0 1 .448 1 1s-.448 1-1 1H7c-.552 0-1-.448-1-1s.448-1 1-1z"/><path fill="currentColor" fill-rule="evenodd" d="M13 0c1.6569 0 3 1.3432 3 3v2c0 .5523-.4477 1-1 1h-2v7c0 1.6569-1.3431 3-3 3H3c-1.6568 0-3-1.3431-3-3v-2c0-.5523.4477-1 1-1h2V3c0-1.6568 1.3431-3 3-3zM2 13c0 .5523.4477 1 1 1h3.1006A5 5 0 0 1 6 13v-1H2zM6 2c-.5523 0-1 .4477-1 1v7h2c.5523 0 1 .4477 1 1v2c0 .3506.0603.6872.1709 1H10c.5523 0 1-.4477 1-1V2zm7 2h1V3c0-.5523-.4477-1-1-1z" clip-rule="evenodd"/></svg>