<svg xmlns="http://www.w3.org/2000/svg" fill="none" viewBox="0 0 24 24"><path fill="currentColor" d="M14 11c.552 0 1 .448 1 1s-.448 1-1 1h-4c-.552 0-1-.448-1-1s.448-1 1-1zM14 7c.552 0 1 .448 1 1s-.448 1-1 1h-4c-.552 0-1-.448-1-1s.448-1 1-1z"/><path fill="currentColor" fill-rule="evenodd" d="M20 2c1.6569 0 3 1.3432 3 3v2c0 .5523-.4477 1-1 1h-3v11c0 1.6569-1.3431 3-3 3H4c-1.6568 0-3-1.3431-3-3v-2c0-.5523.4477-1 1-1h3V5c0-1.6568 1.3431-3 3-3zM3 19c0 .5523.4477 1 1 1h8.1006A5 5 0 0 1 12 19v-1H3zM8 4c-.5523 0-1 .4477-1 1v11h6c.5523 0 1 .4477 1 1v2c0 .3506.0603.6872.1709 1H16c.5523 0 1-.4477 1-1V4zm11 2h2V5c0-.5523-.4477-1-1-1h-1z" clip-rule="evenodd"/></svg>