<svg xmlns="http://www.w3.org/2000/svg" fill="none" viewBox="0 0 32 32"><path fill="currentColor" d="M13 2c.552 0 1 .448 1 1s-.448 1-1 1H6c-1.105 0-2 .895-2 2v6H2V6c0-2.209 1.791-4 4-4zM28 12h2V6c0-2.209-1.791-4-4-4h-7c-.552 0-1 .448-1 1s.448 1 1 1h7c1.105 0 2 .895 2 2zM18 29c0-.552.448-1 1-1h7c1.105 0 2-.895 2-2v-6h2v6c0 2.209-1.791 4-4 4h-7c-.552 0-1-.448-1-1M4 20H2v6c0 2.209 1.791 4 4 4h7c.552 0 1-.448 1-1s-.448-1-1-1H6c-1.105 0-2-.895-2-2zM2 15c-.552 0-1 .448-1 1s.448 1 1 1h28c.552 0 1-.448 1-1s-.448-1-1-1z"/></svg>