<svg xmlns="http://www.w3.org/2000/svg" fill="none" viewBox="0 0 24 24"><path fill="currentColor" d="M7 4c-.552 0-1 .448-1 1s.448 1 1 1h4.5c.552 0 1-.448 1-1s-.448-1-1-1zM6 8c0-.552.448-1 1-1h4.5c.552 0 1 .448 1 1s-.448 1-1 1H7c-.552 0-1-.448-1-1M7 10c-.552 0-1 .448-1 1s.448 1 1 1h4.5c.552 0 1-.448 1-1s-.448-1-1-1zM11.5 15c0-.552.448-1 1-1H17c.552 0 1 .448 1 1s-.448 1-1 1h-4.5c-.552 0-1-.448-1-1M16 12h1c.552 0 1-.448 1-1s-.448-1-1-1h-1c-.552 0-1 .448-1 1s.448 1 1 1M15 8c0-.552.448-1 1-1h1c.552 0 1 .448 1 1s-.448 1-1 1h-1c-.552 0-1-.448-1-1M16 4c-.552 0-1 .448-1 1s.448 1 1 1h1c.552 0 1-.448 1-1s-.448-1-1-1z"/><path fill="currentColor" fill-rule="evenodd" d="M3.2 0C2.5372 0 2 .5373 2 1.2v18.2172c0 .3182.1264.6234.3515.8485l2.8 2.8c.4686.4686 1.2284.4686 1.697 0L9 20.9142l2.1515 2.1515c.4686.4686 1.2284.4686 1.697 0L15 20.9142l2.1515 2.1515c.4686.4686 1.2284.4686 1.697 0l2.8-2.8A1.2 1.2 0 0 0 22 19.4172V1.2c0-.6627-.5373-1.2-1.2-1.2zM4 19.0858V2h16v17.0858l-2 2-2.1515-2.1515c-.4686-.4686-1.2284-.4686-1.697 0L12 21.0858l-2.1515-2.1515c-.4686-.4686-1.2284-.4686-1.697 0L6 21.0858z" clip-rule="evenodd"/></svg>