<svg xmlns="http://www.w3.org/2000/svg" fill="none" viewBox="0 0 32 32"><path fill="currentColor" d="M3.383 26.079c-.692.359-1.554.191-2.056-.392-.634-.735-.461-1.836.366-2.364 4.136-2.642 6.278-5.522 6.278-8.64 0-1.598-.103-1.698-3.312-2.397C1.863 11.586 0 9.289 0 6.492 0 2.797 3.105 0 7.039 0c4.658 0 7.867 3.696 7.867 9.089 0 6.91-4.37 13.282-11.523 16.99M32 9.089c0 6.91-4.37 13.282-11.523 16.99-.692.359-1.553.191-2.056-.392-.634-.735-.461-1.836.366-2.364 4.136-2.642 6.278-5.522 6.278-8.64 0-1.598-.103-1.698-3.312-2.397-2.795-.699-4.658-2.997-4.658-5.793C17.095 2.797 20.2 0 24.133 0 28.791 0 32 3.696 32 9.089"/></svg>