<svg xmlns="http://www.w3.org/2000/svg" fill="none" viewBox="0 0 24 24"><path fill="currentColor" d="M7.9961 5.9941c0-.5522-.4477-1-1-1s-1 .4478-1 1 .4477 1 1 1 1-.4477 1-1"/><path fill="currentColor" fill-rule="evenodd" d="M10 1.997c.5523 0 1 .4478 1 1v18.0001c0 .5523-.4477 1-1 1H4c-.5523 0-1-.4477-1-1v-18c0-.5523.4477-1 1-1zm-5 2h4v16.0001H5z" clip-rule="evenodd"/><path fill="currentColor" d="M17.0037 4.9941c-.5523 0-1 .4478-1 1s.4477 1 1 1 1-.4477 1-1-.4478-1-1-1"/><path fill="currentColor" fill-rule="evenodd" d="M14 1.997c-.5523 0-1 .4478-1 1v18.0001c0 .5523.4477 1 1 1h6c.5523 0 1-.4477 1-1v-18c0-.5523-.4477-1-1-1zm5 2h-4v16.0001h4z" clip-rule="evenodd"/></svg>