<svg xmlns="http://www.w3.org/2000/svg" fill="none" viewBox="0 0 24 24"><path fill="currentColor" d="M15 3.997h4v10.086A6.04 6.04 0 0 1 20 14c.341 0 .675.028 1 .083V2.997c0-.552-.448-1-1-1h-6c-.552 0-1 .448-1 1v18c0 .552.448 1 1 1h.34A5.99 5.99 0 0 1 14 20c0-1.227.368-2.367 1-3.318zM6.996 4.994c.552 0 1 .448 1 1s-.448 1-1 1c-.552 0-1-.448-1-1s.448-1 1-1"/><path fill="currentColor" fill-rule="evenodd" d="M11 2.997c0-.5522-.4477-1-1-1H4c-.5523 0-1 .4478-1 1v18.0001c0 .5523.4477 1 1 1h6c.5523 0 1-.4477 1-1zm-2 1H5v16.0001h4z" clip-rule="evenodd"/><path fill="currentColor" d="M16.0039 5.9941c0-.5522.4477-1 1-1s1 .4478 1 1-.4477 1-1 1-1-.4477-1-1"/></svg>