<svg xmlns="http://www.w3.org/2000/svg" fill="none" viewBox="0 0 32 32"><path fill="currentColor" d="M4.491 3C3.669 3 3 3.669 3 4.493v18.013C3 23.325 3.668 24 4.491 24h8.52a10.6 10.6 0 0 1 .095-2H5v-3h9.01a10.5 10.5 0 0 1 1.243-2H5V5h22v8.598a10.45 10.45 0 0 1 2 .957V4.493C29 3.675 28.332 3 27.509 3zM11.003 27h2.595c.249.704.571 1.374.957 2h-3.551C10.449 29 10 28.556 10 28c0-.552.456-1 1.003-1M25.793 24.707c.391.391 1.024.391 1.414 0s.391-1.024 0-1.414L25.914 22l1.293-1.293c.391-.39.391-1.024 0-1.414s-1.024-.39-1.414 0l-2 2c-.39.391-.39 1.024 0 1.414zM19.793 22.293c.391-.39 1.024-.39 1.414 0l2 2c.391.391.391 1.024 0 1.414l-2 2c-.39.391-1.024.391-1.414 0s-.39-1.024 0-1.414L21.086 25l-1.293-1.293c-.39-.39-.39-1.024 0-1.414"/><path fill="currentColor" fill-rule="evenodd" d="M32 23.5c0 4.6944-3.8056 8.5-8.5 8.5S15 28.1944 15 23.5s3.8056-8.5 8.5-8.5 8.5 3.8056 8.5 8.5m-2 0c0 3.5899-2.9101 6.5-6.5 6.5S17 27.0899 17 23.5s2.9101-6.5 6.5-6.5 6.5 2.9101 6.5 6.5" clip-rule="evenodd"/></svg>