<svg xmlns="http://www.w3.org/2000/svg" fill="none" viewBox="0 0 32 32"><path fill="currentColor" d="M8 9c.552 0 1-.448 1-1s-.448-1-1-1-1 .448-1 1 .448 1 1 1M12 8c0 .552-.448 1-1 1s-1-.448-1-1 .448-1 1-1 1 .448 1 1M15 8c0 .552-.448 1-1 1s-1-.448-1-1 .448-1 1-1 1 .448 1 1"/><path fill="currentColor" fill-rule="evenodd" d="M5 3c-1.1046 0-2 .8954-2 2v22c0 1.1046.8954 2 2 2h9.554a10.45 10.45 0 0 1-.9565-2H5V13h22v.5975a10.45 10.45 0 0 1 2 .9565V5c0-1.1046-.8954-2-2-2zm22 8H5V5h22z" clip-rule="evenodd"/><path fill="currentColor" d="M27.207 24.707c-.39.391-1.024.391-1.414 0l-2-2c-.39-.39-.39-1.024 0-1.414l2-2c.391-.39 1.024-.39 1.414 0s.391 1.024 0 1.414L25.914 22l1.293 1.293c.391.391.391 1.024 0 1.414M21.207 22.293c-.39-.39-1.024-.39-1.414 0s-.39 1.024 0 1.414L21.086 25l-1.293 1.293c-.39.391-.39 1.024 0 1.414s1.024.391 1.414 0l2-2c.391-.39.391-1.024 0-1.414z"/><path fill="currentColor" fill-rule="evenodd" d="M23.5 32c4.6944 0 8.5-3.8056 8.5-8.5S28.1944 15 23.5 15 15 18.8056 15 23.5s3.8056 8.5 8.5 8.5m0-2c3.5899 0 6.5-2.9101 6.5-6.5S27.0899 17 23.5 17 17 19.9101 17 23.5s2.9101 6.5 6.5 6.5" clip-rule="evenodd"/></svg>