<svg xmlns="http://www.w3.org/2000/svg" fill="none" viewBox="0 0 16 16"><path fill="currentColor" d="M15.8469 14.6926c0 .553-.319.684-.7136.293l-1.3231-1.3026C12.3075 15.123 10.1891 16 8.0738 16 3.6221 16 0 12.411 0 8s3.6221-8 8.0738-8c3.6029 0 6.7124 2.297 7.7398 5.715.1584.529-.1464 1.086-.6803 1.244-.5328.158-1.096-.144-1.2554-.674C13.1088 3.723 10.7765 2 8.0739 2 4.7342 2 2.0183 4.691 2.0183 8s2.7159 6 6.0554 6c1.5734 0 3.1952-.651 4.3245-1.716l-1.2451-1.2543c-.3946-.391-.2624-.707.2957-.707L15.643 10c.2785 0 .357.223.357.499z"/><path fill="currentColor" d="M7.2848 12.9344a5.05 5.05 0 0 1-1.9712-.7717 4.984 4.984 0 0 1-1.8487-2.232 4.93 4.93 0 0 1-.2856-2.8736A4.96 4.96 0 0 1 4.553 4.5106a5.034 5.034 0 0 1 2.57-1.361 5.062 5.062 0 0 1 2.9.283 5.01 5.01 0 0 1 2.2526 1.8317 4.95 4.95 0 0 1 .7789 1.9532c.0949.5696-.387 1.0099-.9228 1.0099-.5552 0-.9594-.4463-1.0792-.925a3 3 0 0 0-.4229-.9483 3.034 3.034 0 0 0-1.3642-1.1093 3.066 3.066 0 0 0-1.7562-.1714 3.05 3.05 0 0 0-1.5564.8243 3.003 3.003 0 0 0-.8319 1.5421A2.986 2.986 0 0 0 5.294 9.18a3.02 3.02 0 0 0 1.1196 1.3517c.2937.1944.6177.3356.957.419.483.1187.9335.5193.9335 1.0693 0 .5309-.4443 1.0085-1.0192.9144"/></svg>