<svg xmlns="http://www.w3.org/2000/svg" fill="none" viewBox="0 0 24 24"><path fill="currentColor" fill-rule="evenodd" d="M23 14.8027C22.1175 14.2922 21.0929 14 20 14h1v-4H7v4h13c-1.777 0-3.3736.7725-4.4722 2H7v4h7c0 .7013.1203 1.3744.3414 2H6c-.5523 0-1-.4477-1-1v-5H2c-.5523 0-1-.4477-1-1V3c0-.5523.4477-1 1-1h16c.5523 0 1 .4477 1 1v5h3c.5523 0 1 .4477 1 1zM3 4h14v4H3zm0 6v4h2v-4zm1-4c0 .5523.4477 1 1 1s1-.4477 1-1-.4477-1-1-1-1 .4477-1 1m5 7c-.5523 0-1-.4477-1-1s.4477-1 1-1 1 .4477 1 1-.4477 1-1 1m0 6c-.5523 0-1-.4477-1-1s.4477-1 1-1 1 .4477 1 1-.4477 1-1 1m9-7c0 .5523.4477 1 1 1s1-.4477 1-1-.4477-1-1-1-1 .4477-1 1m-2 1c-.5523 0-1-.4477-1-1s.4477-1 1-1 1 .4477 1 1-.4477 1-1 1m-1-6c-.5523 0-1-.4477-1-1s.4477-1 1-1 1 .4477 1 1-.4477 1-1 1m-4-1c0 .5523.4477 1 1 1s1-.4477 1-1-.4477-1-1-1-1 .4477-1 1" clip-rule="evenodd"/></svg>