<svg xmlns="http://www.w3.org/2000/svg" fill="none" viewBox="0 0 16 16"><path fill="currentColor" d="M16 8.1136a1.76 1.76 0 0 0-.4897-1.219c-.3154-.3302-.7473-.5298-1.2076-.5581a1.61 1.61 0 0 0-.6865.139 1.58 1.58 0 0 0-.5582.4163c-1.392-.9559-3.0537-1.4607-4.7524-1.4439l.792-3.7764 2.6026.5553a1.322 1.322 0 0 0 .3933.8357c.2281.2239.5299.3608.8513.3861a1.27 1.27 0 0 0 .5112-.059 1.25 1.25 0 0 0 .4431-.257 1.22 1.22 0 0 0 .2993-.411c.0695-.156.105-.3245.1043-.4948a1.2 1.2 0 0 0-.1043-.4947 1.22 1.22 0 0 0-.2993-.411 1.25 1.25 0 0 0-.4431-.257 1.27 1.27 0 0 0-.5112-.059 1.033 1.033 0 0 0-.6225.1662 1.002 1.002 0 0 0-.3958.5002l-2.942-.6664h-.4526l-.9053 4.4428c-1.6987-.0168-3.3604.488-4.7524 1.444a1.58 1.58 0 0 0-.5582-.4163 1.61 1.61 0 0 0-.6865-.1391 1.827 1.827 0 0 0-1.0355.452 1.77 1.77 0 0 0-.5588.9677c-.076.373-.0281.76.1367 1.1042s.4377.6275.7787.8082v.5553C.9506 12.8897 4.1189 15 7.966 15s7.0155-2.1103 7.0155-4.7761v-.5553a1.8 1.8 0 0 0 .7314-.6373A1.754 1.754 0 0 0 16 8.1136"/></svg>