<svg xmlns="http://www.w3.org/2000/svg" fill="none" viewBox="0 0 16 16"><path fill="currentColor" fill-rule="evenodd" d="M4 4.375C4 7.5 5.333 10 8 10s4-2.5 4-5.625C12 1.959 11.333 0 8 0S4 1.959 4 4.375m6 0C10 6.763 9.188 8 8 8S6 6.763 6 4.375C6 2.427 6.315 2 8 2s2 .427 2 2.375M5.869 10.236a3 3 0 0 0-1.676-.064l-3.056.764A1.5 1.5 0 0 0 0 12.39V14.5c0 .828.672 1.5 1.5 1.5h13c.828 0 1.5-.672 1.5-1.5v-2.11a1.5 1.5 0 0 0-1.136-1.455l-3.056-.764a3 3 0 0 0-1.676.064l-1.815.605a1 1 0 0 1-.632 0zM2 14v-1.219l2-.5V14zm4 0h4v-1.613l-1.051.351a3 3 0 0 1-1.897 0L6 12.387zm6-1.719V14h2v-1.219z" clip-rule="evenodd"/></svg>