<svg xmlns="http://www.w3.org/2000/svg" fill="none" viewBox="0 0 32 32"><path fill="currentColor" d="M25.245 8.381c3.453 4.202 3.652 10.202.486 14.624H29v2.002h-7v-7.005h2v4.003c2.273-3.032 2.638-7.089.944-10.48S19.788 5.993 16 5.993a9.9 9.9 0 0 0-4.16.911L11 5.082c4.947-2.256 10.791-.902 14.245 3.299M7.056 20.475c1.694 3.39 5.157 5.532 8.944 5.532a9.904 9.904 0 0 0 4.16-.911L21 26.918c-4.947 2.256-10.791.902-14.244-3.299S3.103 13.417 6.27 8.995H3V6.993h7v7.005H8V9.996c-2.273 3.032-2.638 7.09-.944 10.48"/></svg>