<svg xmlns="http://www.w3.org/2000/svg" fill="none" viewBox="0 0 16 16"><path fill="currentColor" d="M3 4h3.586l-.293.293c-.39.391-.39 1.024 0 1.414.391.391 1.024.391 1.414 0l2-2c.391-.39.391-1.024 0-1.414l-2-2c-.39-.39-1.024-.39-1.414 0s-.39 1.024 0 1.414L6.586 2H3C1.343 2 0 3.343 0 5v6c0 1.657 1.343 3 3 3 .552 0 1-.448 1-1s-.448-1-1-1-1-.448-1-1V5c0-.552.448-1 1-1M13 12H9.414l.293-.293c.39-.39.39-1.024 0-1.414-.391-.39-1.024-.39-1.414 0l-2 2c-.39.391-.39 1.024 0 1.414l2 2c.391.391 1.024.391 1.414 0s.391-1.024 0-1.414L9.414 14H13c1.657 0 3-1.343 3-3V5c0-1.657-1.343-3-3-3-.552 0-1 .448-1 1s.448 1 1 1 1 .448 1 1v6c0 .552-.448 1-1 1"/></svg>