<svg xmlns="http://www.w3.org/2000/svg" fill="none" viewBox="0 0 32 32"><path fill="currentColor" d="M5 6v19.9964h8.3384a10.03 10.03 0 0 0 1.5214 2H4.2c-.6628 0-1.2-.5373-1.2-1.2V5.2C3 4.5373 3.5373 4 4.2 4h16.6c.6627 0 1.2.5373 1.2 1.2v5.798c-.6849 0-1.3538.0689-2 .2V6z"/><path fill="currentColor" d="m22 19.5846 2.1213-2.1213 1.4143 1.4142-2.1213 2.1213 2.1213 2.1213-1.4142 1.4142L22 22.4131l-2.1212 2.1212-1.4143-1.4142 2.1213-2.1213-2.1213-2.1213 1.4142-1.4142z"/><path fill="currentColor" fill-rule="evenodd" d="M22 28.9982c4.4183 0 8-3.5817 8-8s-3.5817-8-8-8-8 3.5817-8 8 3.5817 8 8 8M28 21c0 3.3137-2.6863 6-6 6s-6-2.6863-6-6 2.6863-6 6-6 6 2.6863 6 6" clip-rule="evenodd"/><path fill="currentColor" d="M8 8.999c-.552 0-1 .448-1 1s.448 1 1 1h9.5c.552 0 1-.448 1-1s-.448-1-1-1zM13.998 14.999a10.06 10.06 0 0 1 1.999-2H8c-.552 0-1 .448-1 1s.448 1 1 1zM12.832 16.998a9.92 9.92 0 0 0-.632 2H8c-.552 0-1-.448-1-1s.448-1 1-1zM12 20.998c0 .685.069 1.354.2 2H8c-.552 0-1-.448-1-1s.448-1 1-1z"/></svg>