<svg xmlns="http://www.w3.org/2000/svg" fill="none" viewBox="0 0 32 32"><path fill="currentColor" d="M8.572 4C7.704 4 7 4.689 7 5.539V6H26c.552 0 1 .448 1 1V20.923h.429c.868 0 1.572-.689 1.572-1.538V5.539c0-.85-.704-1.538-1.571-1.538zM13.32 15.883h.359q.492 0 .708-.277.215-.282.215-.836 0-.574-.231-.815-.226-.246-.702-.246h-.349z"/><path fill="currentColor" fill-rule="evenodd" d="M4.5714 8C3.7036 8 3 8.6888 3 9.5385v13.8461c0 .8497.7035 1.5385 1.5714 1.5385h6.2857l-.6636 2.599c-.062.2428.1255.4779.3811.4779h6.8508c.2556 0 .4431-.2351.3811-.4779l-.6636-2.599h6.2857c.8678 0 1.5714-.6888 1.5714-1.5385V9.5385C25 8.6888 24.2964 8 23.4286 8zm8.7484 9.0828V20h-1.3945v-7.4956h1.8252q1.1586 0 1.7072.5486.5537.5485.5537 1.6765 0 1.4202-.9587 1.9841L16.4934 20h-1.492l-1.1843-2.9172z" clip-rule="evenodd"/></svg>