<svg xmlns="http://www.w3.org/2000/svg" fill="none" viewBox="0 0 32 32"><path fill="currentColor" fill-rule="evenodd" d="M12.63 18.64h.89l2 3.39h1.9l-2.17-3.65a2.65 2.65 0 0 0 1.17-1 2.74 2.74 0 0 0 .44-1.55 3.13 3.13 0 0 0-.21-1.17 2.58 2.58 0 0 0-.6-.9 2.63 2.63 0 0 0-.92-.57A3.34 3.34 0 0 0 14 13h-3v9h1.63zm-.0001-4.12h1.37a1.33 1.33 0 0 1 .9.33c.2701.2595.4096.6265.38 1a1.18 1.18 0 0 1-.37.95 1.35 1.35 0 0 1-.91.32h-1.37z" clip-rule="evenodd"/><path fill="currentColor" fill-rule="evenodd" d="M8 4v5H3v17h6.4l-.7874 3h10.7748L18.6 26H25v-5h4V4zm2 2v3h15v10h2V6zM5 24V11h18v13h-7l.6126 3h-5.2252L12 24z" clip-rule="evenodd"/></svg>