<svg xmlns="http://www.w3.org/2000/svg" fill="none" viewBox="0 0 32 32"><path fill="currentColor" d="M13.679 15.883h-.359v-2.174h.349q.477 0 .702.246.231.241.231.815 0 .554-.215.836-.215.277-.707.277M21.248 19.428c-.333-.19-.748.05-.748.434v6.277c0 .384.415.625.748.434l5.492-3.138c.336-.192.336-.676 0-.868z"/><path fill="currentColor" fill-rule="evenodd" d="M8.5715 4C7.7036 4 7 4.6888 7 5.5385V6H26c.5523 0 1 .4477 1 1v7.9355a8.94 8.94 0 0 0-2-.7125V9.5385C25 8.6888 24.2964 8 23.4286 8H4.5714C3.7036 8 3 8.6888 3 9.5385v13.8461c0 .8497.7035 1.5385 1.5714 1.5385h6.2857l-.6636 2.599c-.062.2428.1255.4779.3811.4779h4.9409c1.6146 2.412 4.3641 4 7.4845 4 4.9706 0 9-4.0294 9-9 0-2.6655-1.1587-5.0603-2.9999-6.7083V5.5385c0-.8497-.7036-1.5385-1.5715-1.5385zm6.182 15.3894a9 9 0 0 1 .8234-1.4799l-.5242-1.1959q.9588-.564.9587-1.9841 0-1.128-.5537-1.6765-.5486-.5486-1.7072-.5486h-1.8252V20h1.3945v-2.9172h.4973zM23 30c3.866 0 7-3.134 7-7s-3.134-7-7-7-7 3.134-7 7 3.134 7 7 7" clip-rule="evenodd"/></svg>