<svg xmlns="http://www.w3.org/2000/svg" fill="none" viewBox="0 0 32 32"><path fill="currentColor" d="M5.2599 23.0195c.476-.0772.9598.079 1.3008.42l2 2c.3409.3409.4971.8248.4199 1.3007a1.5 1.5 0 0 1-.8096 1.1016l-4 2a1.5 1.5 0 0 1-1.7314-.2813 1.5 1.5 0 0 1-.2813-1.7314l2-4a1.5 1.5 0 0 1 1.1016-.8096M28.499 2c.0004 0 .001 0 .001 1.5l1.5.001v.0283q-.0002.0233-.001.0635a13 13 0 0 1-.0058.2256c-.0065.1918-.019.4653-.044.8066-.0499.682-.1488 1.6398-.3466 2.7607-.393 2.227-1.1883 5.1722-2.8165 7.8858-.6874 1.1458-1.672 2.2169-2.788 3.1963.0002.0107.0019.0214.0019.0322v.0303l-.001.0703c-.0008.059-.0026.1431-.0058.248a22 22 0 0 1-.044.8653c-.0496.712-.1496 1.6855-.3535 2.705-.2013 1.0064-.5186 2.1338-1.0361 3.1114-.5106.9643-1.3182 1.9702-2.585 2.3926-1.6328.5442-3.2445.8112-4.4336.9433a23.2 23.2 0 0 1-1.4541.1162 17 17 0 0 1-.4189.0156 10 10 0 0 1-.1172.002h-.0498a1.501 1.501 0 0 1-1.4561-1.1357l-.8994-3.5977-3.412-3.4121-3.5977-.8994A1.5 1.5 0 0 1 3 18.5v-.0508q.0004-.0425.002-.1172c.0022-.0997.0071-.2414.0156-.4189.0169-.3548.0497-.8558.1162-1.4541.1321-1.1891.3991-2.8008.9434-4.4336.4223-1.2668 1.4282-2.0743 2.3925-2.585.9776-.5175 2.105-.8348 3.1114-1.0361 1.0195-.2039 1.993-.3038 2.705-.3535.358-.025.6551-.0376.8653-.044.105-.0031.189-.005.248-.0058.0296-.0004.0535-.0009.0703-.001h.0293v.038l.001-.0009L13.4991 8c.0105 0 .0219.0008.0323.001.9794-1.116 2.0514-2.0996 3.1972-2.7871 2.7136-1.6281 5.6588-2.4234 7.8858-2.8164 1.1209-.1978 2.0786-.2968 2.7607-.3467.3413-.025.6148-.0375.8067-.044.0959-.0032.172-.005.2255-.0058q.0402-.0008.0635-.001zm-7.6826 18.8477c-.7509.4879-1.4974.9341-2.2031 1.333-1.4828.8381-2.8658 1.513-3.877 1.9785-.1677.0772-.3261.1472-.4726.2129l.3916 1.5644c.1702-.0144.3557-.0307.5537-.0527 1.0609-.1179 2.4494-.351 3.8164-.8067.2328-.0776.5507-.3219.8838-.9511.3261-.6161.5714-1.4266.7451-2.2949.0668-.334.1184-.6659.1621-.9834m6.0762-15.7412a25 25 0 0 0-1.7568.246c-2.0231.357-4.5779 1.0618-6.8643 2.4336-2.132 1.2793-4.22 4.2095-5.8408 7.0772-.7868 1.3921-1.4245 2.6968-1.8653 3.6543a49 49 0 0 0-.289.6377l2.5674 2.5674c.1886-.0835.403-.1796.6386-.2881.9575-.4408 2.2623-1.0784 3.6543-1.8653 2.8677-1.6208 5.7979-3.7088 7.0772-5.8408 1.3718-2.2864 2.0766-4.8412 2.4336-6.8642a25 25 0 0 0 .2451-1.7579m-15.7412 6.0761a16.5 16.5 0 0 0-.9824.1631c-.8684.1737-1.6789.4191-2.295.7451-.6292.3331-.8735.651-.9511.8838-.4557 1.367-.6888 2.7556-.8067 3.8164-.022.1977-.0393.3828-.0537.5528l1.5645.3916c.0656-.1464.1367-.3042.2138-.4717.4655-1.0112 1.1405-2.3942 1.9785-3.877.399-.7057.8441-1.4531 1.3321-2.2041M20.5001 11a.5.5 0 1 0 .0001 1.0001A.5.5 0 0 0 20.5001 11m7.999-9c.8285 0 1.501.6726 1.501 1.501l-1.5-.001zm-5.499 9.5c0 1.3807-1.1193 2.5-2.5 2.5s-2.5-1.1193-2.5-2.5 1.1193-2.5 2.5-2.5 2.5 1.1193 2.5 2.5"/></svg>