<svg xmlns="http://www.w3.org/2000/svg" fill="none" viewBox="0 0 24 24"><path fill="currentColor" d="M12 22C6.4772 22 2 17.5228 2 12S6.4772 2 12 2s10 4.4772 10 10-4.4772 10-10 10m7.748-12h-2.9277A11.27 11.27 0 0 1 17 12q0 1.0026-.1797 2h2.9277A8.02 8.02 0 0 0 20 12a8.02 8.02 0 0 0-.252-2m-.8183-2c-1.0019-1.732-2.6346-3.0537-4.584-3.6506C15.1912 5.559 15.8366 6.7762 16.2791 8zm-9.7106 2Q8.9998 11.0038 9 12q-.0002.9962.2191 2h5.5618q.2193-1.0038.2191-2 .0002-.9962-.2191-2zm.6534-2h4.255C13.6319 6.8587 12.9239 5.7093 12 4.5507 11.0761 5.7093 10.3681 6.8587 9.8725 8M4.252 10A8.01 8.01 0 0 0 4 12c0 .6906.0875 1.3608.252 2h2.9277A11.27 11.27 0 0 1 7 12q0-1.0026.1797-2zm.8183-2h2.6506c.4425-1.2238 1.088-2.441 1.9334-3.6506C7.705 4.9464 6.0723 6.2679 5.0703 8m13.8594 8h-2.6506c-.4425 1.2238-1.0879 2.441-1.9334 3.6506 1.9494-.597 3.5821-1.9185 4.584-3.6506m-9.0572 0c.4956 1.1413 1.2036 2.2907 2.1275 3.4493.9239-1.1586 1.6319-2.308 2.1275-3.4493zm-4.8022 0c1.002 1.7321 2.6346 3.0536 4.584 3.6506C8.8088 18.441 8.1635 17.2238 7.721 16z"/></svg>