<svg xmlns="http://www.w3.org/2000/svg" fill="none" viewBox="0 0 16 16"><path fill="currentColor" d="M5.333 4.154V2.833a.833.833 0 1 1 1.667 0v3.334a.833.833 0 0 1-.833.833H2.833A.833.833 0 0 1 2 6.167a.833.833 0 0 1 .833-.833h1.322l-1.772-1.768c-.326-.325-.327-.854-.002-1.181a.831.831 0 0 1 1.177-.002zM5.442 9.382l-1.775 1.771V9.833a.833.833 0 1 0-1.667 0v3.334c0 .46.373.833.833.833h3.333A.833.833 0 0 0 7 13.167a.833.833 0 0 0-.833-.833h-1.322l1.772-1.768c.326-.325.327-.854.002-1.181a.831.831 0 0 0-1.177-.002M10.667 13.167V11.847l1.775 1.771a.831.831 0 0 0 1.177-.002c.324-.327.323-.855-.002-1.181l-1.772-1.768h1.322A.833.833 0 0 0 14 9.833.833.833 0 0 0 13.167 9H9.833A.833.833 0 0 0 9 9.833v3.334a.833.833 0 1 0 1.667 0M10.558 6.618l1.775-1.771v1.32a.833.833 0 1 0 1.667 0V2.833A.833.833 0 0 0 13.167 2H9.833A.833.833 0 0 0 9 2.833c0 .46.373.834.833.834h1.322L9.383 5.435c-.326.325-.327.854-.002 1.181a.831.831 0 0 0 1.177.002"/></svg>