<svg xmlns="http://www.w3.org/2000/svg" fill="none" viewBox="0 0 32 32"><path fill="currentColor" d="M13.001 10v1.584L9.704 8.292a.997.997 0 0 0-1.413.003c-.389.392-.388 1.026.003 1.417L11.587 13h-1.586c-.552 0-1 .448-1 1s.448 1 1 1h4c.552 0 1-.448 1-1v-4c0-.552-.448-1-1-1s-1 .448-1 1M18.704 14.708l3.297-3.292V13c0 .552.448 1 1 1s1-.448 1-1V9c0-.552-.448-1-1-1h-4c-.552 0-1 .448-1 1s.448 1 1 1h1.586l-3.293 3.288c-.391.39-.392 1.025-.003 1.417a.997.997 0 0 0 1.413.003M19 20.416V22c0 .552-.448 1-1 1s-1-.448-1-1v-4c0-.552.448-1 1-1h4c.552 0 1 .448 1 1s-.448 1-1 1h-1.586l3.293 3.288c.391.39.392 1.025.003 1.417a.997.997 0 0 1-1.413.003zM13.297 17.292 10 20.584V19c0-.552-.448-1-1-1s-1 .448-1 1v4c0 .552.448 1 1 1h4c.552 0 1-.448 1-1s-.448-1-1-1h-1.586l3.293-3.288c.391-.39.392-1.025.003-1.417a.997.997 0 0 0-1.413-.003"/><path fill="currentColor" fill-rule="evenodd" d="M16 30C8.268 30 2 23.732 2 16S8.268 2 16 2s14 6.268 14 14-6.268 14-14 14m0-2c6.6274 0 12-5.3726 12-12S22.6274 4 16 4 4 9.3726 4 16s5.3726 12 12 12" clip-rule="evenodd"/></svg>