<svg xmlns="http://www.w3.org/2000/svg" fill="none" viewBox="0 0 24 24"><path fill="currentColor" d="M9.333 8.154V6.833a.833.833 0 1 1 1.667 0v3.334a.833.833 0 0 1-.833.833H6.833A.833.833 0 0 1 6 10.167a.833.833 0 0 1 .833-.833h1.322l-1.772-1.768c-.326-.325-.327-.854-.002-1.181a.831.831 0 0 1 1.177-.002zM9.442 13.382l-1.775 1.771v-1.32a.833.833 0 1 0-1.667 0v3.334c0 .46.373.833.833.833h3.333A.833.833 0 0 0 11 17.167a.833.833 0 0 0-.833-.833h-1.322l1.772-1.768c.326-.325.327-.854.002-1.181a.831.831 0 0 0-1.177-.002M14.667 17.167V15.847l1.775 1.771a.831.831 0 0 0 1.177-.002c.324-.327.323-.855-.002-1.181l-1.772-1.768h1.322A.833.833 0 0 0 18 13.833.833.833 0 0 0 17.167 13h-3.333a.833.833 0 0 0-.833.833v3.334a.833.833 0 1 0 1.667 0M14.558 10.618l1.775-1.771v1.32a.833.833 0 1 0 1.667 0V6.833A.833.833 0 0 0 17.167 6h-3.333A.833.833 0 0 0 13 6.833c0 .46.373.834.833.834h1.322l-1.772 1.768c-.326.325-.327.854-.002 1.181a.831.831 0 0 0 1.177.002"/><path fill="currentColor" fill-rule="evenodd" d="M12 23C5.9249 23 1 18.0751 1 12S5.9249 1 12 1s11 4.9249 11 11-4.9249 11-11 11m0-2c4.9706 0 9-4.0294 9-9s-4.0294-9-9-9-9 4.0294-9 9 4.0294 9 9 9" clip-rule="evenodd"/></svg>