<svg xmlns="http://www.w3.org/2000/svg" fill="none" viewBox="0 0 32 32"><path fill="currentColor" d="M19.75 13.157h-.248v-1.501h.241q.329 0 .485.17.159.166.159.563 0 .382-.149.577-.149.191-.489.191M13.123 13.288h-.184v-1.632h.234q.333 0 .492.198.159.195.159.602 0 .443-.173.637t-.527.195M25.224 18.22l-1.16.65a4.78 4.78 0 0 1 3.745 4.563 4.78 4.78 0 0 1-8.971 2.401 4.78 4.78 0 0 1 .966-5.823l.81.88a3.63 3.63 0 0 0-1.16 2.64 3.56 3.56 0 0 0 4.123 3.518 3.56 3.56 0 0 0 2.879-2.606 3.56 3.56 0 0 0-.061-2.024 3.559 3.559 0 0 0-3.031-2.427l.9 1.62-.72.4-1.62-2.89 2.9-1.62z"/><path fill="currentColor" fill-rule="evenodd" d="M4 3c-1.1046 0-2 .8954-2 2v18c0 1.1046.8954 2 2 2h8l-.8447 3.3787c-.0789.3156.1598.6213.4851.6213h4.6513c1.6479 1.8412 4.0428 3 6.7083 3 4.9706 0 9-4.0294 9-9 0-2.1433-.7492-4.1116-2-5.6573V5c0-1.1046-.8954-2-2-2zm13.7849 12.6641a9 9 0 0 0-.4422.3359H15.452v-5.1755h2.3329v.8319h-1.37v1.2319h1.2709v.8355h-1.2709v1.4337h1.37zm1.7169-.959a9 9 0 0 0-.9629.4765v-4.3571h1.2603q.8 0 1.1788.3787.3824.3789.3824 1.1576 0 .9807-.662 1.37l.2236.5103a8.9 8.9 0 0 0-.8704.253l-.2064-.5084h-.3434zM23 14c-.351 0-.6973.0201-1.0378.0592v-.4169h1.7806v.3879A9.1 9.1 0 0 0 23 14m2.7297.4214a9 9 0 0 0-.9442-.2443l-.7843-3.3526h.97l.6761 3.1612a7 7 0 0 1 .0824.4357m.989.3804a9 9 0 0 0-.7987-.3175q.0438-.2622.0955-.4986l.6691-3.1612h.9699zM7.6533 16h-.9629v-2.2692H5.4196V16h-.963v-5.1755h.963v2.0567h1.2708v-2.0567h.963zm2.163-3.1329.6903-2.0426h1.0089l-1.2284 3.101V16h-.9487v-2.0355l-1.2249-3.14h1.016zm4.9808-.4496q0 .8248-.4177 1.2673-.4142.439-1.2001.439h-.2407V16h-.9629v-5.1755h1.3134q1.508 0 1.508 1.593M30 23c0 3.866-3.134 7-7 7s-7-3.134-7-7 3.134-7 7-7 7 3.134 7 7" clip-rule="evenodd"/></svg>