<svg xmlns="http://www.w3.org/2000/svg" fill="none" viewBox="0 0 32 32"><path fill="currentColor" d="M10 8v8h2v-5c0-.552.448-1 1-1h5V8zM24.064 18.87l1.16-.65-.4-.72-2.9 1.62 1.62 2.89.72-.4-.9-1.62a3.56 3.56 0 1 1-3.91 3.54 3.63 3.63 0 0 1 1.16-2.64l-.81-.88a4.78 4.78 0 1 0 4.26-1.14"/><path fill="currentColor" fill-rule="evenodd" d="M4 3c-1.1046 0-2 .8954-2 2v18c0 1.1046.8954 2 2 2h8l-.8447 3.3787c-.0789.3156.1598.6213.4851.6213h4.6513c1.6479 1.8412 4.0428 3 6.7083 3 4.9706 0 9-4.0294 9-9 0-2.1433-.7492-4.1116-2-5.6573V5c0-1.1046-.8954-2-2-2zm20 11.0549V11c0-.5523-.4477-1-1-1h-3V7c0-.5523-.4477-1-1-1H9c-.5523 0-1 .4477-1 1v10c0 .5523.4477 1 1 1h3v3c0 .5523.4477 1 1 1h1.0549a8.95 8.95 0 0 1 .4572-2H14v-2h1.5155a9.05 9.05 0 0 1 1.8272-2H14v-4h4v3.5155a8.97 8.97 0 0 1 2-1.0034V12h2v2.0549A9.1 9.1 0 0 1 23 14c.338 0 .6717.0186 1 .0549M23 30c3.866 0 7-3.134 7-7s-3.134-7-7-7-7 3.134-7 7 3.134 7 7 7" clip-rule="evenodd"/></svg>