<svg xmlns="http://www.w3.org/2000/svg" fill="none" viewBox="0 0 16 16"><circle cx="8" cy="8" r="8" fill="#fff"/><path fill="#9bc225" d="M8 15c-3.866 0-7-3.134-7-7s3.134-7 7-7 7 3.134 7 7-3.134 7-7 7"/><path fill="#fff" fill-rule="evenodd" d="M4 7.7595V6c0-1.1046.8954-2 2-2h1.7595c.2862.0072.5703.1203.7887.3388l3.7123 3.7122c.3905.3905.3905 1.0237 0 1.4142l-2.795 2.795c-.3906.3906-1.0237.3906-1.4143 0L4.339 8.548A1.154 1.154 0 0 1 4 7.7595M7 6c0 .5523-.4477 1-1 1s-1-.4477-1-1 .4477-1 1-1 1 .4477 1 1" clip-rule="evenodd"/></svg>