<svg xmlns="http://www.w3.org/2000/svg" fill="none" viewBox="0 0 32 32"><path fill="currentColor" fill-rule="evenodd" d="m3 9 8-8h18v22l-8 8H3zm15.9497 12.1738q1.2525-1.0019 1.2524-2.7422 0-1.2569-.6679-2.1225t-2.4697-1.7271q-1.3624-.6504-1.7271-.9008t-.5317-.5186q-.167-.268-.167-.6284 0-.58.4131-.9404.413-.3604 1.1865-.3604.6504 0 1.3227.167t1.7007.5889l.8789-2.1182q-.9932-.4307-1.9028-.668-.9098-.2373-1.9116-.2373-2.039 0-3.1949.9756-1.1557.9756-1.1557 2.6807 0 .9052.3515 1.582.3516.6768.9405 1.1865.5888.5099 1.7666 1.0635 1.2568.5976 1.6655.8701t.6196.5669.211.6724q0 .6768-.479 1.0195-.4791.3428-1.3755.3428-.7471 0-1.648-.2373t-2.2016-.8174v2.5312q1.582.7735 3.6386.7735 2.2324 0 3.4849-1.002" clip-rule="evenodd"/></svg>