<svg xmlns="http://www.w3.org/2000/svg" fill="none" viewBox="0 0 24 24"><path fill="currentColor" d="M8.329 8.233c.395-.347.989-.3 1.327.105l2.118 2.535c.302.362.302.895 0 1.257l-2.118 2.535c-.338.405-.932.452-1.327.105-.395-.347-.44-.956-.102-1.361L9.819 11.5 8.227 9.594c-.338-.405-.293-1.014.102-1.361M11 17c0-.552.448-1 1-1h3c.552 0 1 .448 1 1s-.448 1-1 1h-3c-.552 0-1-.448-1-1"/><path fill="currentColor" fill-rule="evenodd" d="M4 3.5C4 2.6716 4.6716 2 5.5 2h8.8787a1.5 1.5 0 0 1 1.0606.4393l4.1214 4.1214A1.5 1.5 0 0 1 20 7.6213V20.5c0 .8284-.6716 1.5-1.5 1.5h-13c-.8284 0-1.5-.6716-1.5-1.5zm14 6V20H6V4h6.5v4.5c0 .5523.4477 1 1 1zm-.3284-2L14.5 4.3284V7.5z" clip-rule="evenodd"/></svg>