<svg xmlns="http://www.w3.org/2000/svg" fill="none" viewBox="0 0 32 32"><path fill="currentColor" fill-rule="evenodd" d="M24 21h6v3c0 2.2091-1.7909 4-4 4H12c-2.2091 0-4-1.7909-4-4V11H2V8c0-2.2091 1.7909-4 4-4h14c2.2091 0 4 1.7909 4 4zM9.4648 6A3.98 3.98 0 0 1 10 8v16c0 1.1046.8954 2 2 2h1c1.1045 0 2-.8954 2-2v-3h7V8c0-1.1046-.8955-2-2-2zM17 23h11v1c0 1.1046-.8955 2-2 2h-9.5352A3.98 3.98 0 0 0 17 24zM8 9V8c0-1.1046-.8954-2-2-2s-2 .8954-2 2v1zm4 1h8v2h-8zm0 4h8v2h-8zm8 4h-8v2h8z" clip-rule="evenodd"/></svg>