<svg xmlns="http://www.w3.org/2000/svg" fill="none" viewBox="0 0 32 32"><path fill="currentColor" d="M10.9 11.2c.442-.331 1.069-.242 1.4.2l3 4a1 1 0 0 1 0 1.2l-3 4c-.331.442-.958.531-1.4.2-.442-.331-.531-.958-.2-1.4l2.55-3.4-2.55-3.4c-.331-.442-.242-1.069.2-1.4M15 23c-.552 0-1 .448-1 1s.448 1 1 1h5c.552 0 1-.448 1-1s-.448-1-1-1z"/><path fill="currentColor" fill-rule="evenodd" d="M5 4c0-.5523.4477-1 1-1h12.0858a1 1 0 0 1 .7071.2929l6.9142 6.9142c.1875.1875.2929.4419.2929.7071V29c0 .5523-.4477 1-1 1H6c-.5523 0-1-.4477-1-1zm19 8v16H7V5h10v6c0 .5523.4477 1 1 1zm-1.3284-2L19 6.3284V10z" clip-rule="evenodd"/></svg>