<svg xmlns="http://www.w3.org/2000/svg" fill="none" viewBox="0 0 16 16"><g fill="currentColor" clip-path="url(#servers--16-a)"><path d="M4.5 9c.552 0 1-.448 1-1s-.448-1-1-1-1 .448-1 1 .448 1 1 1M7.5 9c.552 0 1-.448 1-1s-.448-1-1-1-1 .448-1 1 .448 1 1 1"/><path fill-rule="evenodd" d="M14 0H6C4.897 0 4 .897 4 2v2H2C.897 4 0 4.897 0 6v8c0 1.103.897 2 2 2h8c1.103 0 2-.897 2-2v-2h2c1.103 0 2-.897 2-2V2c0-1.103-.897-2-2-2m0 6h-2c0-1.103-.897-2-2-2H6V2h8zm0 4h-2V8h2zM2 10v2h8v2H2l-.001-8H10v4z" clip-rule="evenodd"/></g><defs><clipPath id="servers--16-a"><path fill="#fff" d="M0 0h16v16H0z"/></clipPath></defs></svg>