<svg xmlns="http://www.w3.org/2000/svg" fill="none" viewBox="0 0 32 32"><path fill="currentColor" fill-rule="evenodd" d="M7 5c-1.105 0-2 .895-2 2v6c0 1.105.895 2 2 2h18c1.105 0 2-.895 2-2V7c0-1.105-.895-2-2-2zm17 5c0 .552-.448 1-1 1s-1-.448-1-1 .448-1 1-1 1 .448 1 1M8 8c0-.552.448-1 1-1s1 .448 1 1v4c0 .552-.448 1-1 1s-1-.448-1-1zm5-1c-.552 0-1 .448-1 1v4c0 .552.448 1 1 1s1-.448 1-1V8c0-.552-.448-1-1-1M7 17c-1.105 0-2 .895-2 2v6c0 1.105.895 2 2 2h18c1.105 0 2-.895 2-2v-6c0-1.105-.895-2-2-2zm16 6c.552 0 1-.448 1-1s-.448-1-1-1-1 .448-1 1 .448 1 1 1M8 20c0-.552.448-1 1-1s1 .448 1 1v4c0 .552-.448 1-1 1s-1-.448-1-1zm5-1c-.552 0-1 .448-1 1v4c0 .552.448 1 1 1s1-.448 1-1v-4c0-.552-.448-1-1-1" clip-rule="evenodd"/></svg>