<svg xmlns="http://www.w3.org/2000/svg" fill="none" viewBox="0 0 16 16"><path fill="currentColor" d="M3 5c0 .552.448 1 1 1s1-.448 1-1-.448-1-1-1-1 .448-1 1M9 6c-.552 0-1-.448-1-1s.448-1 1-1 1 .448 1 1-.448 1-1 1M11 5c0 .552.448 1 1 1s1-.448 1-1-.448-1-1-1-1 .448-1 1M4 12c-.552 0-1-.448-1-1s.448-1 1-1 1 .448 1 1-.448 1-1 1M12 12c-.552 0-1-.448-1-1s.448-1 1-1 1 .448 1 1-.448 1-1 1"/><path fill="currentColor" fill-rule="evenodd" d="M15 1H1c-.5523 0-1 .4477-1 1v12c0 .5523.4477 1 1 1h14c.5523 0 1-.4477 1-1V2c0-.5523-.4477-1-1-1m-1 2v4H2V3zM2 9v4h12V9z" clip-rule="evenodd"/></svg>