<svg xmlns="http://www.w3.org/2000/svg" fill="none" viewBox="0 0 32 32"><path fill="currentColor" d="M19.4297 22.7822c.5511.0001 1.0576.3921 1.0576 1.21-.0001.7823-.5065 1.1825-1.0576 1.1826-.6314 0-1.041-.5433-1.041-1.1924.0002-.6665.4098-1.2002 1.041-1.2002"/><path fill="currentColor" fill-rule="evenodd" d="M24 16c4.418 0 8 3.582 8 8s-3.582 8-8 8-8-3.582-8-8 3.582-8 8-8m-4.677 6c-.987 0-1.823.747-1.823 1.965 0 1.032.658 1.992 1.814 1.992.267 0 .739-.062 1.121-.507v.392h.871v-3.744h-.871v.436c-.355-.462-.836-.533-1.111-.533m4.79 0c-.196 0-.365.027-.534.125-.124.071-.267.195-.364.311v-.338h-.871v3.744h.871v-1.938c0-.249 0-.604.24-.862.169-.178.356-.205.542-.205.089 0 .25.008.445.133l.356-.791c-.24-.142-.471-.178-.685-.178m5.124 0c-.329 0-.8.107-1.111.551-.213-.364-.579-.551-.97-.551-.284 0-.631.089-.925.444v-.347h-.871v3.744h.871v-1.93c0-.32.018-.64.169-.853.116-.16.302-.275.516-.275.311 0 .445.186.498.328.036.08.08.249.08.667v2.064h.872v-1.93c0-.32.018-.64.169-.853.116-.16.302-.275.516-.275.311 0 .445.186.498.328.036.08.08.249.08.667v2.064H30.5v-2.312c0-.542-.124-.818-.195-.942-.213-.374-.614-.587-1.067-.587M16.86 17C15.092 18.804 14 21.274 14 24c0 1.045.161 2.053.458 3H7c-1.105 0-2-.895-2-2v-6c0-1.105.895-2 2-2zM9 19c-.552 0-1 .448-1 1v4c0 .552.448 1 1 1s1-.448 1-1v-4c0-.552-.448-1-1-1m4 0c-.552 0-1 .448-1 1v4c0 .552.448 1 1 1s1-.448 1-1v-4c0-.552-.448-1-1-1M25 5c1.105 0 2 .895 2 2v6c0 .504-.189.964-.497 1.315A10.02 10.02 0 0 0 24 14c-1.564 0-3.043.36-4.361 1H7c-1.105 0-2-.895-2-2V7c0-1.105.895-2 2-2zM9 7c-.552 0-1 .448-1 1v4c0 .552.448 1 1 1s1-.448 1-1V8c0-.552-.448-1-1-1m4 0c-.552 0-1 .448-1 1v4c0 .552.448 1 1 1s1-.448 1-1V8c0-.552-.448-1-1-1m10 2c-.552 0-1 .448-1 1s.448 1 1 1 1-.448 1-1-.448-1-1-1" clip-rule="evenodd"/></svg>