<svg xmlns="http://www.w3.org/2000/svg" fill="none" viewBox="0 0 16 16"><path fill="currentColor" d="M4 6c-.552 0-1-.448-1-1s.448-1 1-1 1 .448 1 1-.448 1-1 1M8 5c0 .552.448 1 1 1s1-.448 1-1-.448-1-1-1-1 .448-1 1M11 5c0 .552.448 1 1 1s1-.448 1-1-.448-1-1-1-1 .448-1 1"/><path fill="currentColor" fill-rule="evenodd" d="M1 1h14c.5523 0 1 .4477 1 1v8.1888c-.2783-.1318-.5836-.1888-.8856-.1888H14V9H2v4h6.5425c-.1726.5857-.036 1.2335.41 1.7208L9.1762 15H1c-.5523 0-1-.4477-1-1V2c0-.5523.4477-1 1-1m1 6h12V3H2z" clip-rule="evenodd"/><path fill="currentColor" d="M3 11c0 .5523.4477 1 1 1s1-.4477 1-1-.4477-1-1-1-1 .4477-1 1"/><path fill="currentColor" fill-rule="evenodd" d="M11.7464 11c-.3118 0-.5483.1187-.7466.3235l-1.2911 1.6111c-.318.3284-.318.8024 0 1.1308l1.2911 1.6111c.1983.2048.4348.3235.7466.3235h3.368c.5768 0 .8854-.3424.8854-.8333v-3.3334c0-.4909-.3086-.8333-.8854-.8333zM11.5 14a.5.5 0 1 0 0-1 .5.5 0 0 0 0 1" clip-rule="evenodd"/></svg>