<svg xmlns="http://www.w3.org/2000/svg" fill="none" viewBox="0 0 32 32"><path fill="currentColor" d="M24 16c0 .552.448 1 1 1s1-.448 1-1-.448-1-1-1-1 .448-1 1M21 16c0 .552.448 1 1 1s1-.448 1-1-.448-1-1-1-1 .448-1 1M19 17c-.552 0-1-.448-1-1s.448-1 1-1 1 .448 1 1-.448 1-1 1M6 16c0 .552.448 1 1 1s1-.448 1-1-.448-1-1-1-1 .448-1 1M25 25c-.552 0-1-.448-1-1s.448-1 1-1 1 .448 1 1-.448 1-1 1M21 24c0 .552.448 1 1 1s1-.448 1-1-.448-1-1-1-1 .448-1 1M7 25c-.552 0-1-.448-1-1s.448-1 1-1 1 .448 1 1-.448 1-1 1M24 8c0 .552.448 1 1 1s1-.448 1-1-.448-1-1-1-1 .448-1 1M22 9c-.552 0-1-.448-1-1s.448-1 1-1 1 .448 1 1-.448 1-1 1M6 8c0 .552.448 1 1 1s1-.448 1-1-.448-1-1-1-1 .448-1 1"/><path fill="currentColor" fill-rule="evenodd" d="M3 3h26c.5523 0 1 .4477 1 1v24c0 .5523-.4477 1-1 1H3c-.5523 0-1-.4477-1-1V4c0-.5523.4477-1 1-1m1 16h24v-6H4zm0 2h24v6H4zm24-10V5H4v6z" clip-rule="evenodd"/></svg>