<svg xmlns="http://www.w3.org/2000/svg" fill="none" viewBox="0 0 24 24"><path fill="currentColor" d="M4 6c0 .552.448 1 1 1s1-.448 1-1-.448-1-1-1-1 .448-1 1M16 7c-.552 0-1-.448-1-1s.448-1 1-1 1 .448 1 1-.448 1-1 1M18 6c0 .552.448 1 1 1s1-.448 1-1-.448-1-1-1-1 .448-1 1M4 12c0 .552.448 1 1 1s1-.448 1-1-.448-1-1-1-1 .448-1 1M13 13c-.552 0-1-.448-1-1s.448-1 1-1 1 .448 1 1-.448 1-1 1M16 13c-.552 0-1-.448-1-1s.448-1 1-1 1 .448 1 1-.448 1-1 1M18 12c0 .552.448 1 1 1s1-.448 1-1-.448-1-1-1-1 .448-1 1M18 18c0 .552.448 1 1 1s1-.448 1-1-.448-1-1-1-1 .448-1 1M15 18c0 .552.448 1 1 1s1-.448 1-1-.448-1-1-1-1 .448-1 1M5 19c-.552 0-1-.448-1-1s.448-1 1-1 1 .448 1 1-.448 1-1 1"/><path fill="currentColor" fill-rule="evenodd" d="M1 2.9918C1 2.444 1.4553 2 1.9918 2h20.0164c.5478 0 .9918.4553.9918.9918v18.0164c0 .5478-.4553.9918-.9918.9918H1.9918C1.4441 22 1 21.5447 1 21.0082zM3 8h18V4H3zm18 2v4H3v-4zM3 16v4h18v-4z" clip-rule="evenodd"/></svg>