<svg xmlns="http://www.w3.org/2000/svg" fill="none" viewBox="0 0 32 32"><path fill="currentColor" fill-rule="evenodd" d="M5 4h9c.552 0 1 .448 1 1v9c0 .552-.448 1-1 1H5c-.552 0-1-.448-1-1V5c0-.552.448-1 1-1m1 2v7h7V6zM18 4h9c.552 0 1 .448 1 1v9c0 .552-.448 1-1 1h-9c-.552 0-1-.448-1-1V5c0-.552.448-1 1-1m1 2v7h7V6zM14 17H5c-.552 0-1 .448-1 1v9c0 .552.448 1 1 1h9c.552 0 1-.448 1-1v-9c0-.552-.448-1-1-1m-8 9v-7h7v7zM18 17h9c.552 0 1 .448 1 1v9c0 .552-.448 1-1 1h-9c-.552 0-1-.448-1-1v-9c0-.552.448-1 1-1m1 2v7h7v-7z" clip-rule="evenodd"/></svg>