<svg xmlns="http://www.w3.org/2000/svg" fill="none" viewBox="0 0 24 24"><path fill="url(#services-nav--24-a)" d="M3 2c-.5523 0-1 .4477-1 1v6c0 .5523.4477 1 1 1h6c.5523 0 1-.4477 1-1V3c0-.5523-.4477-1-1-1z"/><path fill="url(#services-nav--24-b)" d="M15 2c-.5523 0-1 .4477-1 1v6c0 .5523.4477 1 1 1h6c.5523 0 1-.4477 1-1V3c0-.5523-.4477-1-1-1z"/><path fill="url(#services-nav--24-c)" d="M2 15c0-.5523.4477-1 1-1h6c.5523 0 1 .4477 1 1v6c0 .5523-.4477 1-1 1H3c-.5523 0-1-.4477-1-1z"/><path fill="url(#services-nav--24-d)" d="M15 14c-.5523 0-1 .4477-1 1v6c0 .5523.4477 1 1 1h6c.5523 0 1-.4477 1-1v-6c0-.5523-.4477-1-1-1z"/><path fill="#fff" fill-rule="evenodd" d="M3 1c-1.105 0-2 .895-2 2v6c0 1.105.895 2 2 2h6c1.105 0 2-.895 2-2V3c0-1.105-.895-2-2-2zm0 2h6v6H3zM15 1c-1.105 0-2 .895-2 2v6c0 1.105.895 2 2 2h6c1.105 0 2-.895 2-2V3c0-1.105-.895-2-2-2zm0 2h6v6h-6zM1 15c0-1.105.895-2 2-2h6c1.105 0 2 .895 2 2v6c0 1.105-.895 2-2 2H3c-1.105 0-2-.895-2-2zm8 0H3v6h6zM15 13c-1.105 0-2 .895-2 2v6c0 1.105.895 2 2 2h6c1.105 0 2-.895 2-2v-6c0-1.105-.895-2-2-2zm0 2h6v6h-6z" clip-rule="evenodd"/><defs><linearGradient id="services-nav--24-a" x1="12" x2="12" y1="2" y2="19.6471" gradientUnits="userSpaceOnUse"><stop stop-color="#fff" stop-opacity=".4"/><stop offset="1" stop-color="#fff" stop-opacity="0"/></linearGradient><linearGradient id="services-nav--24-b" x1="12" x2="12" y1="2" y2="19.6471" gradientUnits="userSpaceOnUse"><stop stop-color="#fff" stop-opacity=".4"/><stop offset="1" stop-color="#fff" stop-opacity="0"/></linearGradient><linearGradient id="services-nav--24-c" x1="12" x2="12" y1="2" y2="19.6471" gradientUnits="userSpaceOnUse"><stop stop-color="#fff" stop-opacity=".4"/><stop offset="1" stop-color="#fff" stop-opacity="0"/></linearGradient><linearGradient id="services-nav--24-d" x1="12" x2="12" y1="2" y2="19.6471" gradientUnits="userSpaceOnUse"><stop stop-color="#fff" stop-opacity=".4"/><stop offset="1" stop-color="#fff" stop-opacity="0"/></linearGradient></defs></svg>