<svg xmlns="http://www.w3.org/2000/svg" fill="none" viewBox="0 0 24 24"><path fill="currentColor" d="M10 13c.5523 0 1 .4477 1 1v7c0 .5523-.4477 1-1 1H3c-.5523 0-1-.4477-1-1v-7c0-.5523.4477-1 1-1zm11 0c.5523 0 1 .4477 1 1v7c0 .5523-.4477 1-1 1h-7c-.5523 0-1-.4477-1-1v-7c0-.5523.4477-1 1-1zM9 15H4v5h5zm11 0h-5v5h5zM10 2c.5523 0 1 .4477 1 1v7c0 .5523-.4477 1-1 1H3c-.5523 0-1-.4477-1-1V3c0-.5523.4477-1 1-1zm11 0c.5523 0 1 .4477 1 1v7c0 .5523-.4477 1-1 1h-7c-.5523 0-1-.4477-1-1V3c0-.5523.4477-1 1-1zM9 4H4v5h5zm11 0h-5v5h5z"/></svg>