<svg xmlns="http://www.w3.org/2000/svg" fill="none" viewBox="0 0 24 24"><g fill="currentColor" clip-path="url(#server-included--24-a)"><path d="M4 6c0 .552.448 1 1 1s1-.448 1-1-.448-1-1-1-1 .448-1 1M16 7c-.552 0-1-.448-1-1s.448-1 1-1 1 .448 1 1-.448 1-1 1M18 6c0 .552.448 1 1 1s1-.448 1-1-.448-1-1-1-1 .448-1 1"/><path fill-rule="evenodd" d="M1.9918 2C1.4553 2 1 2.444 1 2.9918v18.0164c0 .5365.444.9918.9918.9918h10.6506l-.1718-.232c-.4404-.5229-.7063-1.1361-.7979-1.768H3v-4h10.3831l1.2459-1.6824.0618-.069A4.2 4.2 0 0 1 14.9324 14H3v-4h18v3l1.5272.0001c.1577 0 .3157.009.4728.0276V2.9918C23 2.4553 22.556 2 22.0082 2zM21 8H3V4h18z" clip-rule="evenodd"/><path d="M20 12c0 .552-.448 1-1 1s-1-.448-1-1 .448-1 1-1 1 .448 1 1M4 12c0 .552.448 1 1 1s1-.448 1-1-.448-1-1-1-1 .448-1 1M13 13c-.552 0-1-.448-1-1s.448-1 1-1 1 .448 1 1-.448 1-1 1M16 13c-.552 0-1-.448-1-1s.448-1 1-1 1 .448 1 1-.448 1-1 1M4 18c0 .552.448 1 1 1s1-.448 1-1-.448-1-1-1-1 .448-1 1"/><path fill-rule="evenodd" d="M16.1811 15.5823c.33-.3687.7233-.5823 1.2421-.5823l5.104.0001c.9594 0 1.4728.6163 1.4728 1.5v6c0 .8836-.5134 1.5-1.4728 1.5L17.4232 24c-.5188 0-.9121-.2136-1.2421-.5823l-2.1477-2.9c-.5289-.591-.5289-1.4443 0-2.0353zm1.7374 3.9369c0 .5538-.4489 1.0027-1.0027 1.0027s-1.0027-.4489-1.0027-1.0027.4489-1.0027 1.0027-1.0027 1.0027.4489 1.0027 1.0027" clip-rule="evenodd"/></g><defs><clipPath id="server-included--24-a"><path fill="#fff" d="M0 0h24v24H0z"/></clipPath></defs></svg>