<svg xmlns="http://www.w3.org/2000/svg" fill="none" viewBox="0 0 16 16"><path fill="currentColor" fill-rule="evenodd" d="m9.3703.5026.1943 1.9433.1186.036a5.73 5.73 0 0 1 1.028.4263l.1095.0584 1.5118-1.237a.558.558 0 0 1 .7481.0373l1.1525 1.1525a.558.558 0 0 1 .0373.748l-1.237 1.512.0584.1094c.1635.3063.3001.6292.4067.9653l.036.1136 1.9766.247A.558.558 0 0 1 16 7.1687v1.6628a.558.558 0 0 1-.4889.5538l-1.9766.2471-.036.1136a5.73 5.73 0 0 1-.3761.9072l-.055.1058 1.2233 1.5727a.5583.5583 0 0 1-.0459.7374l-1.1758 1.1758a.5583.5583 0 0 1-.7374.0459l-1.5727-1.2233-.1058.055c-.289.15-.5922.2762-.9072.3761l-.1136.036-.247 1.9766A.558.558 0 0 1 8.8313 16H7.1686a.558.558 0 0 1-.5538-.4889l-.2471-1.9766-.1136-.036a5.73 5.73 0 0 1-.9072-.3761l-.1058-.055-1.5727 1.2233a.558.558 0 0 1-.7374-.0459L1.7553 13.069a.5583.5583 0 0 1-.0459-.7374l1.2233-1.5727-.055-.1058a5.73 5.73 0 0 1-.3956-.97l-.0361-.1185-1.9433-.1943A.558.558 0 0 1 0 8.8149V7.185a.558.558 0 0 1 .5026-.5554l1.9433-.1943.036-.1186a5.73 5.73 0 0 1 .4263-1.028l.0584-.1095-1.237-1.5118a.558.558 0 0 1 .0373-.7481l1.1525-1.1525a.558.558 0 0 1 .748-.0373l1.512 1.237.1094-.0584a5.73 5.73 0 0 1 1.028-.4262l.1186-.0361.1943-1.9433A.558.558 0 0 1 7.1851 0H8.815a.558.558 0 0 1 .5554.5026M10.9767 8c0 1.644-1.3327 2.9767-2.9767 2.9767S5.0233 9.644 5.0233 8 6.356 5.0233 8 5.0233 10.9767 6.356 10.9767 8" clip-rule="evenodd"/></svg>