<svg xmlns="http://www.w3.org/2000/svg" fill="none" viewBox="0 0 32 32"><path fill="currentColor" d="M27.707 7.293a1 1 0 0 1 .125 1.262l-1.862 2.793c.147.314.279.636.396.963l2.877.719A1 1 0 0 1 30 14v4a1 1 0 0 1-.757.97L29.123 19h-4.635a9 9 0 0 0 .14-.432 1 1 0 0 1 .716-.685L28 17.219v-2.438l-2.655-.664a1 1 0 0 1-.716-.685 8.94 8.94 0 0 0-.723-1.736 1 1 0 0 1 .171-1.186l.146-.146 1.49-2.235-1.841-1.841-2.235 1.49-.146.146a1 1 0 0 1-1.186.171 8.94 8.94 0 0 0-1.736-.723 1 1 0 0 1-.685-.716L17.219 4h-2.438l-.664 2.656a1 1 0 0 1-.685.716 8.94 8.94 0 0 0-1.736.723 1 1 0 0 1-1.186-.171l-.146-.146-2.235-1.49-1.841 1.841 1.49 2.236.146.146a1 1 0 0 1 .171 1.186 8.94 8.94 0 0 0-.723 1.736 1 1 0 0 1-.716.685L4 14.781v2.438l2.656.664a1 1 0 0 1 .716.685q.065.218.14.432H2.877l-.119-.03A1 1 0 0 1 2 18v-4a1 1 0 0 1 .758-.97l2.877-.719c.117-.327.249-.649.396-.963L4.168 8.555a1 1 0 0 1 .125-1.262l3-3a1 1 0 0 1 1.262-.125l2.793 1.862c.314-.147.636-.279.963-.395l.719-2.877A1 1 0 0 1 14 2h4a1 1 0 0 1 .97.758l.719 2.877c.328.117.649.249.963.396l2.793-1.862a1 1 0 0 1 1.262.125zM16.351 25.883l-.264-1.142q-.024-.104-.108-.521-.081-.42-.098-.561a16 16 0 0 1-.112.638q-.068.346-.353 1.586zM6.208 25.456q0-1.646-.915-1.646h-.37v3.323h.298q.505 0 .746-.417.241-.42.241-1.26"/><path fill="currentColor" fill-rule="evenodd" d="M3 21c-.5523 0-1 .4477-1 1v7c0 .5523.4477 1 1 1h26c.5523 0 1-.4477 1-1v-7c0-.5523-.4477-1-1-1zm13.8087 6.9328-.2848-1.2399h-1.292l-.2848 1.2399h-.9223L15.2523 23h1.2513l1.2309 4.9328zm-9.6551-2.5034q0 1.2165-.5019 1.8616-.4984.6418-1.4377.6418H4v-4.9126h1.3259q.8646 0 1.3462.635.4815.6318.4815 1.7742m3.2579 2.5034H8.1769v-4.9126h2.2346v.7896H9.0992v1.1694h1.2174v.793H9.0992v1.3609h1.3123zm1.0199 0h.9156v-1.9691h1.2174v-.7896H12.347v-1.3643h1.3055v-.7896h-2.2211zm10.0866-1.7339v-3.1787h-.9155v3.2527q0 .4402-.1594.6787-.1594.2386-.451.2386-.6273 0-.6273-.9375v-3.2325h-.9156v3.1653q0 .8971.3866 1.3575.3865.457 1.1258.457.7561 0 1.1563-.4604.4-.4637.4001-1.3407m1.1556 1.7339v-4.9126h.9223v4.1129h1.2784v.7997zm3.458 0h.9189v-4.1095H28v-.8031h-2.8179v.8031h.9495z" clip-rule="evenodd"/><path fill="currentColor" d="M10.8027 19h2.5515C12.5238 18.2671 12 17.1947 12 16c0-2.2091 1.7909-4 4-4s4 1.7909 4 4c0 1.1947-.5238 2.2671-1.3542 3h2.5515c.5105-.8825.8027-1.9071.8027-3 0-3.3137-2.6863-6-6-6s-6 2.6863-6 6c0 1.0929.2922 2.1175.8027 3"/></svg>