<svg xmlns="http://www.w3.org/2000/svg" fill="none" viewBox="0 0 32 32"><path fill="currentColor" fill-rule="evenodd" d="M16 21c-2.7614 0-5-2.2386-5-5s2.2386-5 5-5 5 2.2386 5 5-2.2386 5-5 5m0-2c1.6569 0 3-1.3431 3-3s-1.3431-3-3-3-3 1.3431-3 3 1.3431 3 3 3" clip-rule="evenodd"/><path fill="currentColor" fill-rule="evenodd" d="M16 26c-.3266 0-.6496-.0157-.9682-.0463l-.34.8198c-.4418.9931-1.5848 1.4659-2.5995 1.0752l-1.6832-.6969c-1.0137-.4218-1.4948-1.584-1.0756-2.5984l.3365-.8115a10.06 10.06 0 0 1-1.3988-1.396l-.8102.3358a1.9924 1.9924 0 0 1-2.6094-1.0752l-.6972-1.6825c-.4192-1.0144.062-2.1766 1.0757-2.5984l.818-.339A10.1 10.1 0 0 1 6 16c0-.3286.0159-.6536.0468-.9741l-.8167-.3385a1.992 1.992 0 0 1-1.0798-1.0809 1.99 1.99 0 0 1 .0041-1.5275l.6972-1.6825a1.992 1.992 0 0 1 1.0813-1.0793 1.993 1.993 0 0 1 1.5281.0041l.8083.335c.4166-.507.8821-.9724 1.3893-1.3889l-.335-.8078a1.99 1.99 0 0 1-.0042-1.5275 1.992 1.992 0 0 1 1.0798-1.0809l1.6832-.6969c1.0148-.419 2.1775.062 2.5994 1.0752l.3393.8178C15.3431 6.016 15.6697 6 16 6q.4971.0002.9818.0476l.3394-.818a1.991 1.991 0 0 1 1.0813-1.0793 1.993 1.993 0 0 1 1.5281.004l1.6832.697c1.0137.4217 1.4949 1.584 1.0757 2.5984l-.3394.8248c.5051.4158.9688.88 1.3839 1.3858l.8179-.339c1.0149-.419 2.1776.0619 2.5995 1.0752l.6972 1.6825c.4192 1.0144-.0619 2.1767-1.0756 2.5984l-.8207.3401q.0476.4851.0477.9825a10.1 10.1 0 0 1-.047.9758l.82.3398c1.0137.4218 1.4948 1.584 1.0756 2.5985l-.6972 1.6825c-.4418.9931-1.5848 1.4658-2.5995 1.0752l-.8137-.3373a10.06 10.06 0 0 1-1.385 1.3883l.3363.8107a1.991 1.991 0 0 1-1.0757 2.6183l-1.6832.6969c-1.0148.419-2.1775-.0619-2.5995-1.0752l-.3409-.8219Q16.5015 25.9998 16 26m4.8448-.6944-.9065-2.1848 1.1435-.9418a8.06 8.06 0 0 0 1.1096-1.1123l.9411-1.1483 2.1381.8869c.021.0081.7261-1.6465.7261-1.6465l-2.177-.9022.1427-1.4736q.0377-.3884.0377-.783a8.1 8.1 0 0 0-.0382-.7884l-.1438-1.4745 2.1786-.9029-.6884-1.6614-2.1791.9031-.9412-1.1468a8.06 8.06 0 0 0-1.1087-1.1103l-1.141-.9389.8993-2.1854-1.6717-.6922-.904 2.1795-1.474-.1437A8.1 8.1 0 0 0 16.0001 8q-.396 0-.7856.038l-1.4735.143-.9023-2.1751-1.6667.69.9025 2.1757-1.1467.9416a8.06 8.06 0 0 0-1.113 1.1127l-.9413 1.1457-2.1771-.9023-.6935 1.6734 2.1772.9023-.1425 1.4733A8.1 8.1 0 0 0 8.0001 16q0 .399.0385.7916l.1445 1.4751-2.1766.9021.6898 1.6649 2.1786-.9029.9414 1.1451a8.06 8.06 0 0 0 1.1207 1.1184l1.1499.9413-.9014 2.1729 1.6255.6737c.0209.0081.9401-2.1607.9401-2.1607l1.4721.1414a8.1 8.1 0 0 0 .7769.0371q.4005 0 .7945-.0388l1.4752-.145.9046 2.1809z" clip-rule="evenodd"/></svg>