<svg xmlns="http://www.w3.org/2000/svg" fill="none" viewBox="0 0 32 32"><path fill="currentColor" d="M23.7928 15.282h-.32v-2.8371h.4061q.5786 0 .8555.3446.2769.3385.2769 1.0463 0 .7692-.3015 1.1077t-.917.3385"/><path fill="currentColor" fill-rule="evenodd" d="M3 4c0-.5523.4477-1 1-1h7.7771c.893 0 1.6777.592 1.923 1.4505L14.1428 6H27c1.1045 0 2 .8954 2 2v15c0 1.1045-.8955 2-2 2H17v2h11c.5523 0 1 .4477 1 1s-.4477 1-1 1H4c-.5523 0-1-.4477-1-1s.4477-1 1-1h11v-2H5c-1.1046 0-2-.8955-2-2zm6.4408 15.4485q.6402-.6708.6401-1.9324 0-.7878-.3508-1.4032-.3447-.6154-1.2247-1.2063-.6524-.4308-.917-.7693-.2585-.3384-.2585-.7939 0-.4616.2154-.7262.2216-.2708.6277-.2708.3693 0 .6893.1354.3262.1355.6216.3077l.5539-1.3416q-.954-.5785-1.9878-.5785-1.0832 0-1.7294.677-.64.677-.64 1.8339 0 .6032.16 1.0586.1661.4554.4615.8247.3015.3631.8801.7631.6646.4554.954.8309.2892.3692.2892.8185 0 .4554-.2462.72-.24.2647-.72.2647-.8431 0-1.8525-.6585v1.6555q.8247.4616 2.0001.4616 1.2002 0 1.834-.6709m1.7479.5478h1.6617v-3.6065h2.2094v-1.4462h-2.2094v-2.4987h2.3694v-1.4463h-4.0311zm7.9206 0h-1.6678v-7.5268h-1.7232v-1.4709h5.1143v1.4709h-1.7233zm6.8683-4.025q.7262-.7693.7262-2.2032 0-2.7695-2.6218-2.7695h-2.2832v8.9977h1.674v-3.2618h.4185q1.3662 0 2.0863-.7632" clip-rule="evenodd"/></svg>