<svg xmlns="http://www.w3.org/2000/svg" fill="none" viewBox="0 0 24 24"><path fill="currentColor" fill-rule="evenodd" d="M2.001 2c-.552 0-1 .448-1 1 0 .513.386.935.883.993l.117.007h2.261l.765 3.227 2.095 9a1 1 0 0 0 .859.767l.115.007H18.932a1 1 0 0 0 .918-.603l.041-.112 2.068-6.959c.164-.551-.169-1.117-.712-1.254l-.111-.021L6.835 6.104l-.817-3.341a1 1 0 0 0-.857-.756L5.047 2zM7.303 8.186l12.407 1.688-1.524 5.126H8.89zM7.5 18c-1.381 0-2.5 1.119-2.5 2.5s1.119 2.5 2.5 2.5 2.5-1.119 2.5-2.5c0-1.381-1.119-2.5-2.5-2.5m0 2a.5.5 0 1 1 0 1 .5.5 0 0 1 0-1M17.5 18c-1.381 0-2.5 1.119-2.5 2.5s1.119 2.5 2.5 2.5c1.381 0 2.5-1.119 2.5-2.5 0-1.381-1.119-2.5-2.5-2.5m0 2a.5.5 0 1 1 0 1 .5.5 0 0 1 0-1" clip-rule="evenodd"/></svg>