<svg xmlns="http://www.w3.org/2000/svg" fill="none" viewBox="0 0 16 16"><g fill="currentColor" clip-path="url(#shopping-cart--16-a)"><path fill-rule="evenodd" d="M3.9763.783A1 1 0 0 0 3.0002 0h-2c-.5523 0-1 .4477-1 1s.4477 1 1 1H2.198l1.826 8.2166a1 1 0 0 0 .976.783h8.9998a1 1 0 0 0 .9805-.8038l1-4.9998c.1159-.5794-.2931-1.1324-.881-1.1912l-10.6208-.962zm9.8266 5.1021L13.18 8.9997H5.8022l-.867-3.9014z" clip-rule="evenodd"/><path d="M6 16c-1.104 0-2-.895-2-2s.896-2 2-2 2 .896 2 2-.895 2-2 2M13 16c-1.104 0-2-.895-2-2s.895-2 2-2 2 .896 2 2-.895 2-2 2"/></g><defs><clipPath id="shopping-cart--16-a"><path fill="#fff" d="M0 0h16v16H0z"/></clipPath></defs></svg>