<svg xmlns="http://www.w3.org/2000/svg" fill="none" viewBox="0 0 32 32"><path fill="currentColor" d="M16 2c-1.105 0-2 .895-2 2v3H7.009C6.452 7 6 7.448 6 8v4c0 .552.452 1 1.009 1h17.755a1.014 1.014 0 0 0 .714-.293l2.375-2.353a.497.497 0 0 0 0-.707L25.477 7.293A1.014 1.014 0 0 0 24.764 7H18V4c0-1.105-.895-2-2-2M14 21v7c0 1.105.895 2 2 2s2-.895 2-2v-7h6.991C25.548 21 26 20.552 26 20v-4c0-.552-.452-1-1.009-1H7.236c-.268 0-.524.105-.714.293l-2.375 2.354a.497.497 0 0 0 0 .707l2.375 2.354c.189.188.446.293.714.293z"/></svg>