<svg xmlns="http://www.w3.org/2000/svg" fill="none" viewBox="0 0 16 16"><path fill="currentColor" d="M4.687 2.47c0 .813.657 1.47 1.47 1.47H7.627V2.47C7.627 1.657 6.97 1 6.157 1s-1.47.657-1.47 1.47M7.627 6.157c0-.813-.657-1.47-1.47-1.47H2.47C1.657 4.687 1 5.344 1 6.157S1.657 7.627 2.47 7.627h3.687c.813 0 1.47-.657 1.47-1.47M2.481 11.314c.813 0 1.47-.657 1.47-1.47V8.373H2.481c-.813 0-1.47.657-1.47 1.47 0 .813.657 1.47 1.47 1.47M6.157 8.373c-.813 0-1.47.657-1.47 1.47v3.675c0 .813.657 1.481 1.47 1.481s1.47-.668 1.47-1.481V9.843c0-.813-.657-1.47-1.47-1.47M12.049 6.157c0-.813.657-1.47 1.47-1.47s1.47.657 1.47 1.47-.657 1.47-1.47 1.47h-1.47zM11.313 6.157c0 .813-.657 1.47-1.47 1.47S8.373 6.97 8.373 6.157V2.47C8.373 1.657 9.03 1 9.843 1s1.47.657 1.47 1.47zM11.313 13.519c0-.813-.657-1.47-1.47-1.47H8.373v1.47c0 .813.657 1.481 1.47 1.481s1.47-.668 1.47-1.481M8.373 9.843c0 .813.657 1.47 1.47 1.47h3.687c.813 0 1.47-.657 1.47-1.47s-.657-1.47-1.47-1.47H9.843c-.813 0-1.47.657-1.47 1.47"/></svg>