<svg xmlns="http://www.w3.org/2000/svg" fill="none" viewBox="0 0 24 24"><path fill="currentColor" d="M18.6897 23c-1.1485-1.6004-3.7118-2.7145-6.6897-2.7145S6.4588 21.3996 5.3103 23C2.8753 22.6629 1 20.5663 1 18.0302V5.9698C1 3.4337 2.8753 1.337 5.3103 1 6.4588 2.6004 9.0221 3.7145 12 3.7145S17.5412 2.6004 18.6897 1C21.1247 1.3371 23 3.4337 23 5.9698v12.0604c0 2.5361-1.8753 4.6327-4.3103 4.9698m-11.174-9.5564q0-.388-.1368-.6742-.1367-.2861-.4297-.5134-.293-.2274-.9219-.49-.5585-.2312-.7734-.3723t-.3086-.2999q-.0937-.1587-.0937-.3822 0-.3253.2343-.5232.2345-.198.6875-.198.5977 0 1.3594.3214l.2969-.7643Q6.617 9.187 5.7969 9.187q-.8555 0-1.3633.4116-.5079.4116-.5078 1.1288 0 .5723.3203.9799.3203.4077 1.1016.7252.7578.3057 1 .5291.2421.2235.2421.5448 0 .3567-.2636.5684t-.8184.2116q-.379 0-.8183-.1058a4.3 4.3 0 0 1-.8301-.29v.8858q.617.3018 1.586.3018.9686 0 1.5194-.4351t.5508-1.1994m3.5741 1.5561h.8243l1.7148-4.778h.0313q-.0157.145-.0372.831t-.0214 1.1131v2.8339H14.5V9.2692h-1.3203l-1.6328 4.5585h-.0235L9.9375 9.2692H8.6211v5.7305h.8476v-2.7868q.0001-.933-.0664-1.999h.0313zm4.9141-5.7305v5.7305h2.0625q.957 0 1.4941-.437t.5372-1.2092q0-.5723-.2832-.9074t-.8848-.4488v-.0392q.4844-.0862.7422-.4194t.2578-.8349q0-.7447-.5254-1.0896-.5254-.345-1.7051-.345zm.9336 2.3675v-1.5835h.8086q.6328 0 .9238.1803t.291.584q0 .4468-.2695.633t-.8555.1862zm0 .7604h.9453q.6212 0 .9258.2156.3047.2156.3047.6624 0 .486-.2988.7114-.299.2254-.8848.2254h-.9922z"/></svg>