<svg xmlns="http://www.w3.org/2000/svg" fill="none" viewBox="0 0 16 16"><path fill="currentColor" d="M9 1c0-.552-.448-1-1-1S7 .448 7 1v3c0 .552.448 1 1 1s1-.448 1-1zM9 12c0-.552-.448-1-1-1s-1 .448-1 1v3c0 .552.448 1 1 1s1-.448 1-1zM2.3 2.3c.401-.4 1.05-.4 1.451 0L5.7 4.249c.401.401.401 1.05 0 1.451-.401.401-1.05.401-1.451 0L2.3 3.751c-.4-.401-.4-1.05 0-1.451M13.7 3.751c.401-.401.401-1.05 0-1.451-.401-.4-1.05-.4-1.451 0L10.3 4.249c-.4.401-.4 1.05 0 1.451.401.401 1.05.401 1.451 0zM13.7 13.7c-.401.401-1.05.401-1.451 0l-1.948-1.948c-.4-.401-.4-1.05 0-1.451.401-.4 1.05-.4 1.451 0l1.949 1.949c.401.401.401 1.05 0 1.451M2.3 12.249c-.4.401-.4 1.05 0 1.451.401.401 1.05.401 1.451 0l1.949-1.948c.401-.401.401-1.05 0-1.451-.401-.4-1.05-.4-1.451 0zM5 8c0 .552-.448 1-1 1H1c-.552 0-1-.448-1-1s.448-1 1-1h3c.552 0 1 .448 1 1M15 9c.552 0 1-.448 1-1s-.448-1-1-1h-3c-.552 0-1 .448-1 1s.448 1 1 1z"/></svg>