<svg xmlns="http://www.w3.org/2000/svg" fill="none" viewBox="0 0 16 16"><path fill="currentColor" d="M15.707 5.707c-.39.391-1.024.391-1.414 0L13 4.414V14c0 .552-.448 1-1 1s-1-.448-1-1V4.414l-1.293 1.293c-.39.39-1.024.39-1.414 0-.39-.391-.39-1.024 0-1.414l3-3c.391-.39 1.024-.39 1.414 0l3 3c.391.391.391 1.024 0 1.414M.293 10.293c.391-.39 1.024-.39 1.414 0L3 11.586V2c0-.552.448-1 1-1s1 .448 1 1v9.586l1.293-1.293c.391-.39 1.024-.39 1.414 0s.391 1.024 0 1.414l-3 3c-.39.391-1.024.391-1.414 0l-3-3c-.39-.39-.39-1.024 0-1.414"/></svg>