<svg xmlns="http://www.w3.org/2000/svg" fill="none" viewBox="0 0 24 24"><path fill="currentColor" d="M12.257 2.475c1.097.582 1.991 1.493 2.56 2.609.427.897.491 1.928.179 2.873 0 0-.061.19-.086.27-.034-.083-.066-.148-.105-.226-.018-.036-.037-.076-.059-.121a2.616 2.616 0 0 0-1.034-.923c-.257-1.079-1.137-2.013-2.562-2.704-.025-.013-.054-.024-.083-.035a1.5 1.5 0 0 1-.065-.027 6.8 6.8 0 0 1 .795-1.07 6.06 6.06 0 0 0-1.168-.386c-.862-.135-1.653-.566-2.24-1.221a6.1 6.1 0 0 0-.6 2.707 7 7 0 0 1 2.791.469c.028.012.058.024.088.036.044.018.088.035.129.054.052.022.1.044.148.067.788.341 1.46.911 1.93 1.639l.011.019a.7.7 0 0 1 .024.05q.008.018.016.036.01.023.02.045a.8.8 0 0 1 .03.073 4.185 4.185 0 0 0-1.647.019c-.861-.584-1.911-.809-2.931-.627a4.72 4.72 0 0 0-.917.179 12.8 12.8 0 0 1-.173-1.486 10.39 10.39 0 0 0-3.866 1.154c.523.356.917.876 1.121 1.481.166.401.561 1.085.561 1.085a6.59 6.59 0 0 1 1.773-1.333 4.81 4.81 0 0 1 2.474-.472c.075.003.146.01.216.017l.066.006c.341.039.672.137.979.291-.671.279-1.232.775-1.598 1.411a4.22 4.22 0 0 0-1.626.526c-.501.285-.941.67-1.292 1.132a1 1 0 0 0-.039.061c-.011.019-.022.037-.035.055a10.4 10.4 0 0 1-.926-.913l-.058.091c-.284.441-.536.902-.755 1.379a5.41 5.41 0 0 1-1.271 1.851c.796.367 1.627.647 2.481.836l.136.026a6.61 6.61 0 0 1 .517-2.206 3.796 3.796 0 0 1 1.013-1.397 4 4 0 0 1 .11-.088 3.8 3.8 0 0 1 .229-.165l.081-.052a3.5 3.5 0 0 1 1.127-.45 3.667 3.667 0 0 0 .12 2.607c.358.824 1.007 1.482 1.818 1.845-1.578 1.088-4.719 1.5-9.161-.805.094-.068.405-.271.405-.271.77-.492 1.365-1.221 1.699-2.08.244-.527.527-1.035.846-1.519a9.8 9.8 0 0 1-.591-1.14 2.47 2.47 0 0 0-.566-.928 2.42 2.42 0 0 0-.905-.589l-.374-.183.314-.275c1.354-1.186 3.83-1.647 4.688-1.751.013-1.284.383-2.538 1.068-3.617L8.316 0l.24.407c.11.187.235.365.374.532.238.296.535.537.872.707.413.173.842.305 1.28.394a4.47 4.47 0 0 1 1.177.435M12.845 22.109c-1.167-.422-2.177-1.198-2.894-2.224-.547-.828-.754-1.84-.575-2.82 0 0 .034-.196.049-.279.041.075.082.134.13.204.024.035.051.073.08.117a2.6 2.6 0 0 0 1.154.764c.402 1.033 1.403 1.833 2.908 2.315.027.009.055.015.084.022.025.006.049.012.073.019a6.84 6.84 0 0 1-.64 1.172 6.04 6.04 0 0 0 1.21.218c.872.011 1.714.326 2.386.892a6.11 6.11 0 0 0 .222-2.765 6.99 6.99 0 0 1-2.831-.07q-.044-.012-.088-.022c-.047-.012-.094-.023-.14-.037a5 5 0 0 1-.153-.046c-.827-.226-1.571-.696-2.136-1.35l-.013-.017c-.013-.014-.021-.028-.032-.045-.005-.009-.011-.018-.019-.03a1.1 1.1 0 0 1-.065-.109 4.19 4.19 0 0 0 1.625-.251 3.966 3.966 0 0 0 2.989.206 4.74 4.74 0 0 0 .886-.307c.153.475.278.958.375 1.448a10.43 10.43 0 0 0 3.671-1.69c-.567-.278-1.029-.738-1.315-1.308-.219-.373-.704-.995-.704-.995a6.63 6.63 0 0 1-1.571 1.571 4.826 4.826 0 0 1-2.385.816c-.075.008-.146.014-.216.014l-.066.004a2.93 2.93 0 0 1-1.01-.15c.625-.372 1.111-.942 1.385-1.623a4.23 4.23 0 0 0 1.537-.748 4.31 4.31 0 0 0 1.125-1.3.8.8 0 0 0 .031-.067c.009-.02.017-.04.027-.059.363.235.711.493 1.043.773l.045-.097c.224-.478.414-.972.568-1.478a5.44 5.44 0 0 1 1.005-2.013 12.25 12.25 0 0 0-2.572-.478l-.138-.007a6.62 6.62 0 0 1-.213 2.258 3.82 3.82 0 0 1-.812 1.526 3 3 0 0 1-.097.103c-.066.068-.13.134-.204.196l-.074.063a3.52 3.52 0 0 1-1.055.606 3.662 3.662 0 0 0-.477-2.564c-.468-.765-1.2-1.325-2.053-1.57 1.414-1.3 4.471-2.153 9.184-.499-.083.08-.363.326-.363.326-.695.596-1.184 1.402-1.396 2.3a11.7 11.7 0 0 1-.629 1.624c.269.332.515.681.739 1.046.165.329.4.615.688.84.288.224.622.38.978.455l.395.128-.273.317c-1.178 1.368-3.566 2.175-4.402 2.4a6.9 6.9 0 0 1-.563 3.734l-.172.439-.295-.367a3.95 3.95 0 0 0-.443-.473 2.66 2.66 0 0 0-.96-.577 6.76 6.76 0 0 0-1.321-.208 4.46 4.46 0 0 1-1.225-.264"/></svg>