<svg xmlns="http://www.w3.org/2000/svg" fill="none" viewBox="0 0 16 16"><path fill="currentColor" d="M9.006 4.566a2.616 2.616 0 0 0-1.59-.04l.002-.001a2.377 2.377 0 0 0-1.191.804A2.434 2.434 0 0 0 5.706 6.68c-.033.494.085.987.337 1.411.252.424.627.759 1.073.96-1.051.725-3.149 1-6.115-.538l.27-.182c.516-.327.915-.813 1.139-1.387a8 8 0 0 1 .565-1.014 6.3 6.3 0 0 1-.394-.76 1.65 1.65 0 0 0-.379-.621 1.62 1.62 0 0 0-.606-.393l-.249-.12.21-.182a6.65 6.65 0 0 1 3.127-1.169A4.587 4.587 0 0 1 5.396.271L5.549 0l.163.271c.074.125.157.244.249.356.159.198.357.359.582.473.274.116.559.203.85.26.275.058.54.155.788.289.734.387 1.331.996 1.709 1.743a2.59 2.59 0 0 1 .118 1.916s-.039.125-.057.178a3 3 0 0 0-.062-.132 6 6 0 0 1-.048-.099 1.92 1.92 0 0 0-.836-.689M7.346 11.949a2.64 2.64 0 0 0 1.577-.178l.005.001a2.393 2.393 0 0 0 1.069-.963 2.444 2.444 0 0 0 .333-1.41 2.437 2.437 0 0 0-.523-1.35 2.38 2.38 0 0 0-1.19-.803c.947-.867 2.988-1.423 6.129-.307-.057.054-.245.218-.245.218a2.906 2.906 0 0 0-.94 1.528 7.5 7.5 0 0 1-.425 1.08c.18.222.345.455.493.7a1.64 1.64 0 0 0 .458.561c.192.15.414.255.651.306l.263.089-.184.209c-.833.773-1.846 1.319-2.943 1.587a4.59 4.59 0 0 1-.385 2.49L11.368 16l-.197-.245a2.8 2.8 0 0 0-.296-.316 1.76 1.76 0 0 0-.639-.387 4.54 4.54 0 0 0-.881-.142 2.85 2.85 0 0 1-.815-.178c-.777-.286-1.448-.808-1.923-1.494a2.575 2.575 0 0 1-.367-1.88s.027-.134.036-.187c.025.045.05.081.078.121.019.027.039.056.062.092.248.273.567.469.92.565"/></svg>