<svg xmlns="http://www.w3.org/2000/svg" fill="none" viewBox="0 0 32 32"><path fill="currentColor" d="M16 6c1.657 0 3-1.343 3-3s-1.343-3-3-3-3 1.343-3 3 1.343 3 3 3M1.264 19.815A15.1 15.1 0 0 1 1 17C1 10.468 5.175 4.911 11.002 2.853A5 5 0 0 0 11 3c0 .655.126 1.281.355 1.854C6.469 6.724 3 11.457 3 17c0 .704.056 1.396.164 2.07a4.97 4.97 0 0 0-1.9.745M21 3a4.99 4.99 0 0 1-.355 1.854C25.531 6.724 29 11.457 29 17c0 .704-.056 1.396-.164 2.07a4.97 4.97 0 0 1 1.9.745C30.909 18.903 31 17.962 31 17c0-6.532-4.175-12.089-10.002-14.147Q21 2.926 21 3M25.701 28.441C23.086 30.661 19.699 32 16 32s-7.085-1.339-9.701-3.559a5.02 5.02 0 0 0 1.582-1.288C10.105 28.935 12.928 30 16 30s5.895-1.065 8.119-2.847a5.02 5.02 0 0 0 1.582 1.288M23.163 13.002c0 1.701-3.191 3.079-7.127 3.079s-7.127-1.378-7.127-3.079c0-1.701 3.191-3.079 7.127-3.079s7.127 1.379 7.127 3.079"/><path fill="currentColor" d="M16.0356 17.2286c3.9402 0 7.127-1.439 7.127-3.2202v3.2605c0 1.7812-3.1868 3.2202-7.127 3.2202s-7.127-1.439-7.127-3.2202v-3.2605c0 1.7812 3.1868 3.2202 7.127 3.2202"/><path fill="currentColor" d="M8.909 18.416c0 1.771 3.187 3.21 7.127 3.21s7.127-1.439 7.127-3.21v3.261c0 1.771-3.187 3.12-7.127 3.12s-7.127-1.349-7.127-3.12zM31 24c0 1.657-1.343 3-3 3s-3-1.343-3-3 1.343-3 3-3 3 1.343 3 3M4 27c1.657 0 3-1.343 3-3s-1.343-3-3-3-3 1.343-3 3 1.343 3 3 3"/></svg>