<svg xmlns="http://www.w3.org/2000/svg" fill="none" viewBox="0 0 24 24"><path fill="currentColor" fill-rule="evenodd" d="M19.8867 12.5004a.99.99 0 0 1 .3838.0762 5.96 5.96 0 0 1 1.2852.7334c.2395.1809.3817.454.3877.751a.941.941 0 0 1-.3506.7529c-.1905.1564-.2201.4322-.0655.6435.1728.2371.3209.4931.4424.7608.1014.2235.3718.348.5957.2636.5994-.2211 1.2253.1864 1.3028.7803.0321.2456.0488.494.0488.7383s-.0169.4928-.0479.7383c-.0633.4812-.4743.8425-.9589.8428a.97.97 0 0 1-.3389-.0606c-.2489-.0928-.5002.0373-.6016.2608a4.3 4.3 0 0 1-.4424.7617c-.1536.2101-.1249.4861.0655.6426.2287.1869.3564.4597.3506.7529-.006.2958-.1482.5701-.3877.751a5.94 5.94 0 0 1-1.2852.7334.99.99 0 0 1-.3828.0771c-.4755 0-.8766-.3341-.9541-.7949-.0405-.242-.2733-.4045-.5342-.3789a4.26 4.26 0 0 1-.8818 0c-.2598-.0245-.4927.1369-.5332.3789-.0775.4607-.4787.7949-.9541.7949a.99.99 0 0 1-.3838-.0771 5.97 5.97 0 0 1-1.2861-.7334c-.2395-.1809-.3808-.4553-.3868-.751a.94.94 0 0 1 .3506-.7529c.1902-.1565.22-.4324.0654-.6436a4.34 4.34 0 0 1-.4423-.7607c-.1014-.2235-.3718-.3479-.5957-.2637-.6005.2211-1.2262-.1856-1.3028-.7793A5.7 5.7 0 0 1 12 18.0004c0-.2456.0169-.4952.0479-.7383.0631-.4803.474-.8427.9589-.8428.1156 0 .2305.0215.3389.0606.2501.0926.5003-.0382.6016-.2617a4.3 4.3 0 0 1 .4423-.7617c.1535-.2101.1249-.4862-.0654-.6426-.2287-.187-.3565-.4609-.3506-.7529.006-.297.1473-.5701.3868-.751a5.9 5.9 0 0 1 1.2861-.7334.99.99 0 0 1 .3828-.0762c.4753.0001.8766.3333.9541.7939.0405.242.2744.4058.5342.379a4.25 4.25 0 0 1 .8818 0c.2609.0268.4917-.137.5322-.379.0775-.4607.4797-.7939.9551-.7939m-1.9287 3.666c-.9854.0002-1.7871.8233-1.7871 1.834.0002 1.0105.8019 1.8328 1.7871 1.833.9854 0 1.7879-.8224 1.7881-1.833 0-1.0108-.8026-1.834-1.7881-1.834" clip-rule="evenodd"/><path fill="currentColor" d="M10 18c0 1.888.656 3.623 1.75 4.991a4.29 4.29 0 0 1-1.977-.613l-4.083-2.474c.768-.018 1.532-.242 2.227-.667l2.084-1.276c0 .013-.001.026-.001.039M8.21 2.532c-.329.631-.508 1.344-.508 2.089v7.114c0 1.495.796 2.903 2.071 3.676l.551.333a7.95 7.95 0 0 0-.24 1.094l-2.646 1.618c-1.129.69-2.492.718-3.648.068-.553-.311-1.002-.74-1.317-1.252-.338-.622-.53-1.331-.53-2.058V8.745c0-1.495.796-2.903 2.076-3.676z"/><path fill="currentColor" d="M10.4404 1.4799c.7773-.4435 1.6559-.581 2.4971-.4072.2331.0457.4665.1188.6904.2148.2057.0823.4067.179.5987.2979l5.7558 3.4834c1.28.7726 2.0761 2.1809 2.0762 3.6758l-.0029 2.3603c-1.1894-.7011-2.5752-1.1045-4.0557-1.1045-.3105 0-.6167.0183-.918.0527L14.0986 8.269a4.12 4.12 0 0 0-4.2021-.0137l-1.2793.7549V4.6205c.0001-1.3164.6806-2.4868 1.8232-3.1406"/></svg>