<svg xmlns="http://www.w3.org/2000/svg" fill="none" viewBox="0 0 24 24"><path fill="currentColor" d="M12 8c.5523 0 1 .4477 1 1v3.2451l2.7744.793c.5309.1517.839.7054.6875 1.2363-.1517.5309-.7054.839-1.2363.6875l-3.5-1c-.0037-.001-.0071-.0028-.0108-.0039a1 1 0 0 1-.1494-.0586 1 1 0 0 1-.1201-.0674c-.0107-.0071-.0209-.0149-.0312-.0224a1 1 0 0 1-.2383-.2432c-.0117-.017-.0216-.035-.0322-.0527a1 1 0 0 1-.0625-.1172c-.0071-.0162-.0124-.0332-.0186-.0498a1 1 0 0 1-.0566-.2373c-.0014-.0126-.0021-.0254-.003-.0381-.0011-.0159-.0025-.0318-.0029-.0479V9c0-.5523.4477-1 1-1"/><path fill="currentColor" fill-rule="evenodd" d="M12 4c4.9706 0 9 4.0294 9 9s-4.0294 9-9 9-9-4.0294-9-9 4.0294-9 9-9m0 2c-3.866 0-7 3.134-7 7s3.134 7 7 7 7-3.134 7-7-3.134-7-7-7" clip-rule="evenodd"/><path fill="currentColor" d="M18.293 3.293c.391-.39 1.024-.391 1.414 0l2 2c.391.391.391 1.024 0 1.414s-1.024.391-1.414 0l-2-2a1 1 0 0 1 0-1.414M14 1c.552 0 1 .448 1 1s-.448 1-1 1h-4c-.552 0-1-.448-1-1s.448-1 1-1z"/></svg>