<svg xmlns="http://www.w3.org/2000/svg" fill="none" viewBox="0 0 17 16"><path fill="currentColor" d="M4.789 5.587c.5168.0002.9471.4063.9472.9228l.002 2.6933L8.16 7.8506c.4501-.253 1.0266-.1034 1.291.336.2678.4456.1044 1.0127-.3477 1.2646L6.6972 10.793l2.4062 1.3408c.4302.267.6184.8081.3477 1.2637-.263.4417-.842.5849-1.29.3359l-2.423-1.3486-.0019 2.6923c-.0001.5165-.4305.9226-.9472.9229-.517-.0002-.9472-.4063-.9473-.9229l-.003-2.6923-2.5048 1.3916c-.4337.1878-.9575.0351-1.2041-.3789-.2648-.4451-.1058-1.0108.3428-1.2676l.002-.001 2.4052-1.3408L.4765 9.4473c-.4523-.2519-.6148-.8199-.3467-1.2657.2644-.4386.8415-.5891 1.291-.3261l2.418 1.3476.003-2.6933c0-.5166.4303-.9227.9472-.9229"/><path fill="currentColor" d="M8 .0254c1.4964 0 2.9054.1717 3.9862.4805.5305.1515 1.0656.3593 1.501.6533.3849.26 1.0371.8297 1.0371 1.7656v10.1504c-.0001.5819-.3167 1.0495-.6992 1.3887-.3834.3399-.8974.6135-1.4697.8281-1.15.4312-2.6902.6826-4.3555.6826-.0545 0-.3515-.0022-.7256-.0029a2.6 2.6 0 0 0 .1514-.708c1.206.6115 2.7517.2369 3.4863-.9971l.0352-.0645c.3289-.0783.6309-.1678.8994-.2685.4767-.1788.8131-.3734 1.0166-.5537.2034-.1804.2118-.2856.2119-.3047V9.8965c-.224.1186-.4665.2253-.7197.3203-.6125.2296-1.3361.4058-2.1299.5225a2.63 2.63 0 0 0 1.0215-1.6885 7 7 0 0 0 .5996-.1924c.4767-.1788.8131-.3734 1.0166-.5537.2041-.181.2119-.286.2119-.3047V4.9316c-.3408.1723-.7164.3057-1.0889.4121-1.0808.3088-2.4898.4815-3.9863.4815-.2225 0-.4433-.0052-.6611-.0127-.1807-.66-.611-1.199-1.168-1.5371A16.8 16.8 0 0 0 8 4.375c2.8027 0 5.0752-.6494 5.0752-1.4502-.0003-.8007-2.2727-1.4501-5.0752-1.4502-2.8026 0-5.0749.6495-5.0752 1.4502 0 .3895.5383.7414 1.4131 1.002-1.1214.1945-2.0556 1.0995-2.1777 2.3134-.0246.0171-.0503.0328-.0742.0508a2.64 2.64 0 0 0-.6114-.209V2.9248c0-.9357.6523-1.5055 1.0371-1.7656.4353-.294.9706-.5018 1.501-.6533C5.0936.197 6.5032.0254 8 .0254"/><path fill="currentColor" d="M11.625 11.625a.725.725 0 0 1 .725.725c0 .4-.324.725-.725.726-.126 0-.243-.035-.346-.092.004-.378-.078-.743-.227-1.076.133-.171.339-.282.572-.282M11.625 6.55c.4 0 .725.325.725.726A.725.725 0 0 1 11.625 8c-.187 0-.356-.073-.484-.189a2.64 2.64 0 0 0-.233-.501c-.002-.003-.004-.005-.006-.008 0-.009-.002-.018-.002-.026a.726.726 0 0 1 .726-.726"/></svg>