<svg xmlns="http://www.w3.org/2000/svg" fill="none" viewBox="0 0 32 32"><path fill="currentColor" fill-rule="evenodd" d="M4.5 3C3.672 3 3 3.672 3 4.5v3C3 8.328 3.672 9 4.5 9h23c.828 0 1.5-.672 1.5-1.5v-3c0-.828-.672-1.5-1.5-1.5zM26 7c.552 0 1-.448 1-1s-.448-1-1-1-1 .448-1 1 .448 1 1 1M3 20.5c0-.828.672-1.5 1.5-1.5h23c.828 0 1.5.672 1.5 1.5v3c0 .828-.672 1.5-1.5 1.5H17v2h11c.552 0 1 .448 1 1s-.448 1-1 1H4c-.552 0-1-.448-1-1s.448-1 1-1h11v-2H4.5c-.828 0-1.5-.672-1.5-1.5zM26 23c.552 0 1-.448 1-1s-.448-1-1-1-1 .448-1 1 .448 1 1 1M3 12.5c0-.828.672-1.5 1.5-1.5h23c.828 0 1.5.672 1.5 1.5v3c0 .828-.672 1.5-1.5 1.5h-23c-.828 0-1.5-.672-1.5-1.5zM26 15c.552 0 1-.448 1-1s-.448-1-1-1-1 .448-1 1 .448 1 1 1" clip-rule="evenodd"/></svg>