<svg xmlns="http://www.w3.org/2000/svg" fill="none" viewBox="0 0 32 32"><path fill="currentColor" fill-rule="evenodd" d="M2.5 2a.5.5 0 0 0-.5.5v4a.5.5 0 0 0 .5.5h19a.5.5 0 0 0 .5-.5v-4a.5.5 0 0 0-.5-.5zM19 5.5c.5523 0 1-.4477 1-1s-.4477-1-1-1-1 .4477-1 1 .4477 1 1 1" clip-rule="evenodd"/><path fill="currentColor" d="M22 14.5V17h-2.134A.995.995 0 0 0 20 16.5c0-.552-.448-1-1-1s-1 .448-1 1c0 .182.049.353.134.5H13c-1.105 0-2 .895-2 2H2.5a.5.5 0 0 1-.5-.5v-4a.5.5 0 0 1 .5-.5h19a.5.5 0 0 1 .5.5M11 21H3c-.552 0-1 .448-1 1s.448 1 1 1h8z"/><path fill="currentColor" fill-rule="evenodd" d="M2.5 8a.5.5 0 0 0-.5.5v4a.5.5 0 0 0 .5.5h19a.5.5 0 0 0 .5-.5v-4a.5.5 0 0 0-.5-.5zM19 11.5c.552 0 1-.448 1-1s-.448-1-1-1-1 .448-1 1 .448 1 1 1M12 19c0-.552.448-1 1-1h16c.552 0 1 .448 1 1v10c0 .552-.448 1-1 1H13c-.552 0-1-.448-1-1zm5 8c-1.657 0-3-1.343-3-3s1.343-3 3-3 3 1.343 3 3c0 .351-.06.687-.171 1h2.341A3 3 0 0 1 22 24c0-1.657 1.343-3 3-3s3 1.343 3 3-1.343 3-3 3z" clip-rule="evenodd"/></svg>