<svg xmlns="http://www.w3.org/2000/svg" fill="none" viewBox="0 0 24 24"><path fill="currentColor" fill-rule="evenodd" d="M3.47 1.999c-.828 0-1.5.672-1.5 1.5v.999c0 .829.672 1.5 1.5 1.5H20.5c.828 0 1.5-.671 1.5-1.5v-.999c0-.828-.672-1.5-1.5-1.5zM18 4c0-.552.448-1 1-1s1 .448 1 1-.448 1-1 1-1-.448-1-1M2 9.5c0-.828.672-1.5 1.5-1.5h17c.828 0 1.5.672 1.5 1.5v1c0 .828-.672 1.5-1.5 1.5h-17c-.828 0-1.5-.672-1.5-1.5zm16 .5c0-.552.448-1 1-1s1 .448 1 1-.448 1-1 1-1-.448-1-1M13 18h7.5c.828 0 1.5-.672 1.5-1.5v-1c0-.828-.672-1.5-1.5-1.5h-17c-.828 0-1.5.672-1.5 1.5v1c0 .828.672 1.5 1.5 1.5H11v2H3c-.552 0-1 .448-1 1s.448 1 1 1h18c.552 0 1-.448 1-1s-.448-1-1-1h-8zm6-3c-.552 0-1 .448-1 1s.448 1 1 1 1-.448 1-1-.448-1-1-1" clip-rule="evenodd"/></svg>