<svg xmlns="http://www.w3.org/2000/svg" fill="none" viewBox="0 0 24 24"><path fill="currentColor" d="M10.807 7.027c0-.567.46-1.027 1.027-1.027.567 0 1.027.46 1.027 1.027v.027q.64.087 1.169.317.859.371 1.337 1.031.156.216.263.455c.248.555-.269 1.075-.877 1.075-.446 0-.814-.317-1.166-.622a9 9 0 0 0-.26-.219 1.4 1.4 0 0 0-.071-.052q-.457-.318-1.241-.318-.533 0-.899.143-.367.138-.563.385-.191.247-.191.561-.01.261.116.456.131.195.357.337.226.138.523.242.297.1.633.171l.925.209q.673.143 1.236.38.563.238.975.584t.638.817q.231.47.236 1.078-.005.893-.482 1.549-.472.651-1.367 1.012-.569.228-1.289.31v.019c0 .567-.46 1.027-1.027 1.027s-1.027-.46-1.027-1.027v-.068q-.524-.09-.973-.265-.919-.361-1.437-1.069a2.68 2.68 0 0 1-.352-.68c-.201-.571.313-1.083.918-1.083h.12c.498 0 .869.428 1.179.817q.266.323.709.489.447.162 1.01.162.553 0 .96-.152.412-.152.638-.423.226-.271.226-.622 0-.328-.206-.551-.201-.223-.593-.38-.387-.157-.95-.285l-1.121-.266q-1.301-.299-2.055-.936t-.749-1.715q-.005-.883.498-1.544.507-.66 1.392-1.031.372-.156.787-.246zM3.793 17.778c-.51.295-.664.966-.282 1.415a10.92 10.92 0 0 0 2.572 2.215c.542.336 1.228.019 1.393-.597.124-.461-.092-.94-.492-1.2a8.94 8.94 0 0 1-1.829-1.576c-.344-.388-.912-.516-1.361-.257M3.294 14.738c.152.488-.024 1.033-.466 1.288-.518.299-1.185.086-1.375-.481C-.173 10.688 1.782 5.197 6.39 2.537c1.625-.938 3.39-1.415 5.143-1.47.638-.02 1.073.598.908 1.214-.123.461-.55.768-1.026.793-1.374.072-2.752.46-4.025 1.195-3.715 2.145-5.322 6.538-4.096 10.469M19.852 6.197c-.443.256-1.002.136-1.349-.24a8.94 8.94 0 0 0-1.707-1.441c-.4-.26-.616-.739-.492-1.2.165-.616.851-.934 1.393-.597a10.92 10.92 0 0 1 2.426 2.047c.396.448.247 1.132-.271 1.431"/><path fill="currentColor" d="M11.3387 21.8456c.1235-.4606.5499-.7682 1.0262-.793 1.3737-.0715 2.7516-.4602 4.0246-1.1951 3.7696-2.1764 5.3691-6.6678 4.0397-10.6414-.1646-.492.0085-1.0483.4578-1.3076.5105-.2948 1.1683-.0917 1.3667.4634 1.7544 4.9079-.19 10.519-4.8642 13.2176-1.6251.9383-3.3901 1.4147-5.143 1.4701-.6376.0202-1.0729-.5978-.9078-1.214"/></svg>