<svg xmlns="http://www.w3.org/2000/svg" fill="none" viewBox="0 0 16 16"><path fill="currentColor" d="M12.665 2.753c-.805-.717-1.768-1.232-2.814-1.512C9.552.513 8.836 0 8 0 6.895 0 6 .895 6 2s.895 2 2 2c.635 0 1.201-.296 1.568-.758.656.209 1.257.55 1.767 1.005.412.367 1.045.331 1.412-.082s.331-1.044-.082-1.412M2.753 3.335c-.717.805-1.232 1.768-1.512 2.814C.513 6.448 0 7.164 0 8c0 1.105.895 2 2 2s2-.895 2-2c0-.635-.296-1.201-.758-1.568.209-.655.55-1.257 1.005-1.767.367-.412.331-1.044-.081-1.412s-1.044-.331-1.412.082M13.247 12.665c.717-.805 1.233-1.768 1.512-2.814C15.487 9.552 16 8.836 16 8c0-1.105-.895-2-2-2s-2 .895-2 2c0 .635.296 1.201.758 1.568-.209.656-.55 1.257-1.005 1.767-.367.412-.331 1.045.082 1.412s1.045.331 1.412-.081M6.149 14.759c-1.046-.279-2.009-.794-2.814-1.512-.412-.367-.449-.999-.082-1.412s1-.449 1.412-.081c.51.455 1.111.795 1.767 1.005C6.799 12.296 7.365 12 8 12c1.105 0 2 .895 2 2s-.895 2-2 2c-.836 0-1.552-.513-1.851-1.241"/></svg>