<svg xmlns="http://www.w3.org/2000/svg" fill="none" viewBox="0 0 16 16"><circle cx="8" cy="8" r="8" fill="#408bea"/><circle cx="8" cy="8" r="7.5" stroke="#243143" stroke-opacity=".1"/><path fill="#fff" d="M8 3V2c0-.412.47-.647.8-.4l2.667 2c.267.2.267.6 0 .8L8.8 6.4c-.33.247-.8.012-.8-.4V5C6.343 5 5 6.343 5 8c0 .552-.448 1-1 1s-1-.448-1-1c0-2.761 2.239-5 5-5M8 13v1c0 .412-.47.647-.8.4l-2.667-2c-.267-.2-.267-.6 0-.8L7.2 9.6c.33-.247.8-.012.8.4v1c1.657 0 3-1.343 3-3 0-.552.448-1 1-1s1 .448 1 1c0 2.761-2.239 5-5 5"/></svg>