<svg xmlns="http://www.w3.org/2000/svg" fill="none" viewBox="0 0 32 32"><path fill="#408bea" d="M29 16c0 7.1797-5.8203 13-13 13S3 23.1797 3 16 8.8203 3 16 3s13 5.8203 13 13"/><path stroke="#243143" stroke-opacity=".1" d="M16 3.5c6.9036 0 12.5 5.5964 12.5 12.5S22.9036 28.5 16 28.5 3.5 22.9036 3.5 16 9.0964 3.5 16 3.5Z"/><path fill="#fff" d="M16 8.5v-2c0-.412.498-.647.847-.4l3.941 3.001c.282.2.282.6 0 .8L16.847 12.9c-.349.247-.847.012-.847-.4v-2c-3.038 0-5.5 2.462-5.5 5.5 0 .552-.448 1-1 1s-1-.448-1-1c0-4.142 3.358-7.5 7.5-7.5M16 21.5v-2c0-.412-.498-.647-.847-.4l-3.941 3c-.282.2-.282.6 0 .8l3.941 3c.349.247.847.012.847-.4v-2c4.142 0 7.5-3.358 7.5-7.5 0-.552-.448-1-1-1s-1 .448-1 1c0 3.038-2.462 5.5-5.5 5.5"/></svg>