<svg xmlns="http://www.w3.org/2000/svg" fill="none" viewBox="0 0 16 16"><g clip-path="url(#synology--16-a)"><path fill="currentColor" fill-rule="evenodd" d="M2.2857 0A2.2856 2.2856 0 0 0 0 2.2857v11.4286A2.286 2.286 0 0 0 2.2857 16h11.4286A2.2853 2.2853 0 0 0 16 13.7143V2.2857A2.286 2.286 0 0 0 13.7143 0zm3.2057 9.7715-2.2514.217A4.405 4.405 0 0 0 4.6343 12.92a4.994 4.994 0 0 0 3.3371 1 6.58 6.58 0 0 0 2.4915-.4171 3.285 3.285 0 0 0 1.5428-1.2799 3.571 3.571 0 0 0 .0857-3.663 3.08 3.08 0 0 0-1.2628-1.1428 11.13 11.13 0 0 0-2.4915-.8286 6 6 0 0 1-2.1257-.7657.88.88 0 0 1-.3428-.697.829.829 0 0 1 .3657-.7087A2.663 2.663 0 0 1 7.8114 4a2.286 2.286 0 0 1 1.4629.3943c.365.325.5936.7762.64 1.2628L12.2 5.56a3.348 3.348 0 0 0-1.1429-2.5257q-1.0914-.9428-3.2457-.9428a5.82 5.82 0 0 0-2.2857.3943 3.16 3.16 0 0 0-1.4286 1.1428 3.0116 3.0116 0 0 0 .5715 3.9373A6.354 6.354 0 0 0 7.28 8.7087c.9657.24 1.5829.4056 1.8514.5028.3154.0895.6013.261.8286.4972.1621.1933.2475.4393.24.6914a1.428 1.428 0 0 1-.5714 1.1085 2.605 2.605 0 0 1-1.68.4685 2.508 2.508 0 0 1-1.68-.5315 2.765 2.765 0 0 1-.7772-1.6741" clip-rule="evenodd"/></g><defs><clipPath id="synology--16-a"><path fill="#fff" d="M0 0h16v16H0z"/></clipPath></defs></svg>