<svg xmlns="http://www.w3.org/2000/svg" fill="none" viewBox="0 0 32 32"><path fill="currentColor" fill-rule="evenodd" d="M6 2a4 4 0 0 0-4 4v20a3.9996 3.9996 0 0 0 4 4h20a3.9994 3.9994 0 0 0 4-4V6a3.9996 3.9996 0 0 0-4-4zm5.61 17.1001-3.94.3799a7.71 7.71 0 0 0 2.44 5.1299 8.74 8.74 0 0 0 5.84 1.75 11.51 11.51 0 0 0 4.36-.73 5.75 5.75 0 0 0 2.7-2.2398 6.25 6.25 0 0 0 .15-6.4101 5.39 5.39 0 0 0-2.21-2 19.48 19.48 0 0 0-4.36-1.4502 10.5 10.5 0 0 1-3.72-1.3399 1.539 1.539 0 0 1-.6-1.2197 1.451 1.451 0 0 1 .64-1.2402A4.66 4.66 0 0 1 15.67 9a4 4 0 0 1 2.56.69 3.39 3.39 0 0 1 1.12 2.2099l4-.1699a5.86 5.86 0 0 0-2-4.42q-1.91-1.6499-5.68-1.6498a10.19 10.19 0 0 0-4 .6899 5.53 5.53 0 0 0-2.5 2 5.2704 5.2704 0 0 0 1 6.8901 11.12 11.12 0 0 0 4.57 2c1.69.42 2.77.7099 3.24.8799a3.24 3.24 0 0 1 1.45.8701 1.8 1.8 0 0 1 .42 1.21 2.5012 2.5012 0 0 1-1 1.9399 4.56 4.56 0 0 1-2.94.8199 4.39 4.39 0 0 1-2.94-.9302 4.84 4.84 0 0 1-1.36-2.9297" clip-rule="evenodd"/></svg>