<svg xmlns="http://www.w3.org/2000/svg" fill="none" viewBox="0 0 32 32"><path fill="currentColor" d="M4 2v2h24v24h2V2zM8.63 23h7.12a2.42 2.42 0 1 0-3-2.38c.008.349.097.692.26 1h-2.01a2.24 2.24 0 0 0 .26-1 2.641 2.641 0 0 0-2.981-2.876 2.64 2.64 0 0 0-1.418.659 2.64 2.64 0 0 0 .276 4.133c.439.302.96.464 1.493.465"/><path fill="currentColor" fill-rule="evenodd" d="M26 30H2V6h24zm-4-19H9a2 2 0 0 0-2 2h15v10a2 2 0 0 0 2-2v-8a2 2 0 0 0-2-2M4.4774 15.4773A1.63 1.63 0 0 0 4 16.6299v7.7402A1.63 1.63 0 0 0 5.63 26h12.74A1.63 1.63 0 0 0 20 24.3701v-7.7402A1.63 1.63 0 0 0 18.37 15H5.63c-.4323 0-.8469.1716-1.1526.4773" clip-rule="evenodd"/></svg>