<svg xmlns="http://www.w3.org/2000/svg" fill="none" viewBox="0 0 32 32"><path fill="currentColor" fill-rule="evenodd" d="M5 2c-1.1046 0-2 .8954-2 2v14c0 1.1046.8954 2 2 2h22c1.1046 0 2-.8954 2-2V4c0-1.1046-.8954-2-2-2zm1 9c0 2.2091 1.7909 4 4 4h12c2.2091 0 4-1.7909 4-4s-1.7909-4-4-4-4 1.7909-4 4c0 .7286.1948 1.4117.5351 2h-5.0702A3.98 3.98 0 0 0 14 11c0-2.2091-1.7909-4-4-4s-4 1.7909-4 4" clip-rule="evenodd"/><path fill="currentColor" d="M7.7 26.0601a10.9 10.9 0 0 0-.33 1.6899c-.12-.73-.24-1.2799-.34-1.6499l-1.12-4H4.82l-1.09 4c0 .1217-.0407.2655-.0884.4339-.0307.1083-.0642.2267-.0916.3559-.07.33-.12.6201-.15.8801-.07-.48-.17-.9999-.32-1.6799l-1-4H1l.88 3.3899.87 3.4099h1.19l1.11-4c0-.0938.0343-.2115.0769-.3574.03-.103.0641-.2201.0931-.3526.07-.32.12-.57.15-.77 0 .0956.0324.2454.0774.4531q.0245.1121.0526.2471c.0441.2142.0882.3888.1248.5336.0215.085.0404.1598.0552.2264l1.14 4.0598H8l1.75-6.8h-1.1z"/><path fill="currentColor" fill-rule="evenodd" d="M12.267 22.196a3 3 0 0 1 1.263-.196 2.931 2.931 0 0 1 2.31.93 4.471 4.471 0 0 1 0 5.16 3.41 3.41 0 0 1-4.65 0 3.8 3.8 0 0 1-.81-2.6 3.71 3.71 0 0 1 .82-2.59 3 3 0 0 1 1.067-.704m2.056 5.714a2 2 0 0 0 .677-.5 3.11 3.11 0 0 0 .45-1.9 3.08 3.08 0 0 0-.49-1.9 1.738 1.738 0 0 0-1.47-.65 1.76 1.76 0 0 0-1.48.65 3 3 0 0 0-.51 1.9 3.1 3.1 0 0 0 .5 1.9 2 2 0 0 0 2.323.5M22.54 24.09a1.771 1.771 0 0 0-.63-1.49 3 3 0 0 0-1.92-.49h-1.89V28.91h1.1v-2.72h1.08l1.6 2.72h1.25l-1.9-3a1.87 1.87 0 0 0 .958-.692 1.87 1.87 0 0 0 .352-1.128m-2.54 1.18h-.8v-2.22h.72a2 2 0 0 1 1.12.25.919.919 0 0 1 .37.83 1.08 1.08 0 0 1-.34.85 1.74 1.74 0 0 1-1.07.29" clip-rule="evenodd"/><path fill="currentColor" d="m27.5301 27.52 1.92-5.4099 1.55.0198v6.8h-.98V23.24l-2 5.6699h-1l-2-5.6799c.08.84.08 1.6301.08 2.37v3.3099h-1v-6.7998h1.57z"/></svg>