<svg xmlns="http://www.w3.org/2000/svg" fill="none" viewBox="0 0 32 32"><path fill="currentColor" d="M20.5 7.0162a3.495 3.495 0 0 0-2.4749 1.0279A3.514 3.514 0 0 0 17 10.5255a3.47 3.47 0 0 0 .35 1.504h-2.7a3.47 3.47 0 0 0 .35-1.504c0-.694-.2053-1.3726-.5899-1.9498a3.5 3.5 0 0 0-1.5707-1.2925 3.49 3.49 0 0 0-2.0222-.1997 3.498 3.498 0 0 0-1.792.9606 3.51 3.51 0 0 0-.958 1.7967 3.52 3.52 0 0 0 .1992 2.0277 3.508 3.508 0 0 0 1.2891 1.575 3.494 3.494 0 0 0 1.9445.5914H21a3.538 3.538 0 0 0 2.1478-1.198A3.556 3.556 0 0 0 24 10.5255a3.514 3.514 0 0 0-1.0251-2.4814A3.495 3.495 0 0 0 20.5 7.016"/><path fill="currentColor" fill-rule="evenodd" d="M28.043 1.261c.161.149.269.346.307.562L31 20.051H1L3.65 1.822a1.003 1.003 0 0 1 .311-.564A1 1 0 0 1 4.55 1h22.91a1 1 0 0 1 .583.261M6.89 17.043h18.22a1.887 1.887 0 0 0 1.336-.555 1.897 1.897 0 0 0 .554-1.34l-1-9.245c0-.502-.199-.984-.554-1.34A1.887 1.887 0 0 0 24.11 4.008H7.89c-.501 0-.982.2-1.336.555A1.898 1.898 0 0 0 6 5.903l-1 9.245c0 .503.199.985.554 1.34a1.887 1.887 0 0 0 1.336.555M30.06 22.056H1.94a1 1 0 0 0-.669.314A1.004 1.004 0 0 0 1 23.059v6.938a1.004 1.004 0 0 0 .271.689A1 1 0 0 0 1.94 31h28.12a1 1 0 0 0 .669-.314A1.004 1.004 0 0 0 31 29.997v-6.938a1.004 1.004 0 0 0-.271-.689 1 1 0 0 0-.669-.314M23 28.072H4v-3.008h19zm5 0h-3v-3.008h3z" clip-rule="evenodd"/></svg>