<svg xmlns="http://www.w3.org/2000/svg" fill="none" viewBox="0 0 32 32"><path fill="currentColor" d="M5 7c-1.1046 0-2 .8954-2 2v14c0 1.1046.8954 2 2 2h13.7752A35.4 35.4 0 0 0 19 22h-1v-2h-8c-2.2091 0-4-1.7909-4-4s1.7909-4 4-4 4 1.7909 4 4a3.98 3.98 0 0 1-.5351 2h5.0702A3.98 3.98 0 0 1 18 16c0-2.2091 1.7909-4 4-4 .2421 0 .4791.0215.7093.0627C23.2596 11.4127 24.0816 11 25 11c1.6569 0 3 1.3431 3 3v4h1V9c0-1.1046-.8954-2-2-2z"/><path fill="currentColor" d="M27 19v-5a2 2 0 0 0-2-2 2 2 0 0 0-2 2v5h-4v2h12v-2zM21 29c.54 0 2-3 2-3a2.85 2.85 0 0 1-.65 3H29a32 32 0 0 0 1-7H20a32 32 0 0 1-1 7z"/></svg>