<svg xmlns="http://www.w3.org/2000/svg" fill="none" viewBox="0 0 24 24"><path fill="currentColor" d="M4 6c0 .552.448 1 1 1s1-.448 1-1-.448-1-1-1-1 .448-1 1M19 7c-.552 0-1-.448-1-1s.448-1 1-1 1 .448 1 1-.448 1-1 1M16 7c-.552 0-1-.448-1-1s.448-1 1-1 1 .448 1 1-.448 1-1 1M4 12c0 .552.448 1 1 1s1-.448 1-1-.448-1-1-1-1 .448-1 1M18 12c0 .552.448 1 1 1s1-.448 1-1-.448-1-1-1-1 .448-1 1M15 12c0 .552.448 1 1 1s1-.448 1-1-.448-1-1-1-1 .448-1 1"/><path fill="currentColor" fill-rule="evenodd" d="M2 2h20c.5523 0 1 .4477 1 1v12c0 .5523-.4477 1-1 1h-9v2.2676c.3036.1756.5568.4288.7324.7324H19c.5523 0 1 .4477 1 1s-.4477 1-1 1h-5.2676c-.3458.5978-.9921 1-1.7324 1s-1.3866-.4022-1.7324-1H5c-.5523 0-1-.4477-1-1s.4477-1 1-1h5.2676A2.01 2.01 0 0 1 11 18.2676V16H2c-.5523 0-1-.4477-1-1V3c0-.5523.4477-1 1-1m1 2v4h18V4zm0 10v-4h18v4z" clip-rule="evenodd"/></svg>