<svg xmlns="http://www.w3.org/2000/svg" fill="none" viewBox="0 0 24 24"><path fill="currentColor" d="M4 11c0-.552.448-1 1-1h2c.552 0 1 .448 1 1s-.448 1-1 1H5c-.552 0-1-.448-1-1M5 13c-.552 0-1 .448-1 1s.448 1 1 1h2c.552 0 1-.448 1-1s-.448-1-1-1zM4 17c0-.552.448-1 1-1h2c.552 0 1 .448 1 1s-.448 1-1 1H5c-.552 0-1-.448-1-1M18 16h2v2h-4v-4h2z"/><path fill="currentColor" fill-rule="evenodd" d="M7 1H5v2H2c-.5523 0-1 .4477-1 1v16c0 .5523.4477 1 1 1h9.2547c1.2649 1.8135 3.3666 3 5.7453 3 3.866 0 7-3.134 7-7 0-1.9073-.7628-3.6364-2-4.899V4c0-.5523-.4477-1-1-1h-3V1h-2v2H7zm3 16c0 .695.1013 1.3663.2899 2H3V9h17v1.6736C19.0907 10.2417 18.0736 10 17 10c-3.866 0-7 3.134-7 7M20 7V5H3v2zm-3 15c2.7614 0 5-2.2386 5-5s-2.2386-5-5-5-5 2.2386-5 5 2.2386 5 5 5" clip-rule="evenodd"/></svg>