<svg xmlns="http://www.w3.org/2000/svg" fill="none" viewBox="0 0 32 32"><path fill="currentColor" fill-rule="evenodd" d="M1.873 12.9998q.0645 0 .127-.008v.008h5.9999c.5522 0 1 .4477 1 1s-.4478 1-1 1h-6v8.9998c0 .5523.4478 1 1 1h1c0-2.7614 2.2385-4.9999 4.9999-4.9999 2.7613 0 4.9998 2.2385 4.9998 4.9999h6.0001c0-2.7614 2.2385-4.9999 4.9999-4.9999s4.9999 2.2385 4.9999 5h1.0006c.5523 0 1.0001-.4478 1-1.0001l-.0006-6.8186a1 1 0 0 0-.0636-.351L29.246 9.6548a1 1 0 0 0-.9449-.649l-8.3014.0711V6c0-.5523-.4477-1-1-1H3c-.5523 0-1 .4477-1 1v3h12.9998c.5522 0 1 .4477 1 1s-.4478.9999-1 .9999H2v.008a1 1 0 0 0-.127-.008H1c-.5523 0-1 .4477-1 1s.4477 1 1 1zm19.1267 2.9905L21 10.9998h6.3061l1.9137 5zM8.9999 27.9996c-1.6569 0-3-1.3432-3-3s1.3431-2.9999 3-2.9999 2.9999 1.3431 2.9999 2.9999-1.3431 3-3 3m12.9998-3c0 1.6568 1.3431 3 2.9999 3s3-1.3432 3-3-1.3432-2.9999-3-2.9999-2.9999 1.3431-2.9999 2.9999" clip-rule="evenodd"/></svg>