<svg xmlns="http://www.w3.org/2000/svg" fill="none" viewBox="0 0 24 24"><path fill="currentColor" fill-rule="evenodd" d="M1.5517 7.1679a1.5 1.5 0 0 0-.3517.4134c-.1333.2316-.2.4918-.2.752v6.2334c0 .6075.4925 1.1 1.1 1.1s1.1-.4925 1.1-1.1V10.529l2.2 1.3526v8.389c0 .2989.0858.5923.2949.799C6.3359 21.7034 8.1212 23 12 23s5.6642-1.2966 6.3052-1.9304c.2091-.2067.2948-.5001.2948-.799v-8.389l3.6732-2.2583c.9691-.5958.9691-1.9841 0-2.58l-9.4536-5.812a1.568 1.568 0 0 0-1.6392 0l-9.4536 5.812a1.6 1.6 0 0 0-.1751.1246M12 13.5916 3.4473 8.3333 12 3.0751l8.5527 5.2582zm-4.6-.4804 3.7804 2.3242a1.568 1.568 0 0 0 1.6392 0L16.6 13.1112v6.7845C16.0289 20.3062 14.6746 21 12 21s-4.0288-.6938-4.6-1.1043z" clip-rule="evenodd"/></svg>