<svg xmlns="http://www.w3.org/2000/svg" fill="none" viewBox="0 0 16 16"><path fill="currentColor" fill-rule="evenodd" d="M6.006 8.974c1.23.001 2.512.903 2.795 2.001h5.18s1.025 0 1.005 1.033c-.02 1.022-1.005.969-1.028.968l-5.132.012c-.414 1.182-1.507 1.989-2.825 1.994-1.258.004-2.554-.908-2.837-2.006h-1.166c-.01 0-.959-.013-.963-.976.016-1.027.954-1 .967-1l1.15-.025c.438-1.115 1.609-2.002 2.855-2.001m.007 1.998c-.484.01-1.023.356-.997 1.058.025.68.593.947 1.032.949.703.004.946-.598.926-1.069-.019-.447-.514-.946-.961-.937M9.98.992c1.246-.001 2.415.886 2.854 2l1.151.025c.023-.001.951-.02.967 1-.004.956-.941.976-.963.977h-1.167C12.539 6.092 11.243 7.005 9.985 7c-1.318-.005-2.41-.813-2.824-1.994L2.029 4.994c-.013.001-1.008.059-1.028-.968-.02-1.034 1.005-1.034 1.005-1.034h5.179c.283-1.098 1.566-1.999 2.796-2m-.007 1.998c-.447-.009-.942.49-.961.937-.02.471.222 1.073.925 1.069.439-.002 1.009-.269 1.033-.949.026-.701-.513-1.046-.997-1.057" clip-rule="evenodd"/></svg>