<svg xmlns="http://www.w3.org/2000/svg" fill="none" viewBox="0 0 16 16"><path fill="currentColor" d="M5.2172 14c5.6604 0 8.7564-4.6172 8.7564-8.6211 0-.1312 0-.2617-.009-.3917A6.21 6.21 0 0 0 15.5 3.4188a6.22 6.22 0 0 1-1.7676.4767c.6424-.3786 1.1233-.9742 1.353-1.6759a6.23 6.23 0 0 1-1.9542.7355c-.464-.4858-1.0777-.8074-1.7461-.9152a3.122 3.122 0 0 0-1.9514.319c-.5971.3146-1.0723.8143-1.352 1.4216a2.99 2.99 0 0 0-.1951 1.938 8.845 8.845 0 0 1-3.5132-.9188A8.71 8.71 0 0 1 1.544 2.5528a2.992 2.992 0 0 0-.337 2.2081c.177.7515.6382 1.4083 1.2898 1.8366A3.09 3.09 0 0 1 1.1 6.2183v.0384a3.002 3.002 0 0 0 .6962 1.9189c.45.5413 1.0763.9128 1.7728 1.0513a3.12 3.12 0 0 1-1.3896.052c.1967.602.5795 1.1285 1.095 1.5058a3.113 3.113 0 0 0 1.7802.5984c-1.0898.8432-2.436 1.3009-3.822 1.2996A6.4 6.4 0 0 1 .5 12.639c1.4074.8892 3.045 1.3608 4.7172 1.3586"/></svg>