<svg xmlns="http://www.w3.org/2000/svg" fill="none" viewBox="0 0 24 24"><path fill="currentColor" d="M7.9186 21c8.3019 0 12.8427-6.9257 12.8427-12.9317 0-.1967 0-.3925-.0132-.5875A9.22 9.22 0 0 0 23 5.1282a8.96 8.96 0 0 1-2.5925.7151c.9423-.568 1.6475-1.4614 1.9844-2.5138a9.01 9.01 0 0 1-2.8661 1.1031 4.51 4.51 0 0 0-2.561-1.3728 4.49 4.49 0 0 0-2.862.4785 4.537 4.537 0 0 0-1.983 2.1324 4.58 4.58 0 0 0-.2861 2.9071A12.745 12.745 0 0 1 6.681 7.1996a12.83 12.83 0 0 1-4.1498-3.3704 4.576 4.576 0 0 0-.4944 3.3122c.2597 1.1272.9362 2.1123 1.8918 2.755a4.457 4.457 0 0 1-2.0486-.569v.0576a4.566 4.566 0 0 0 1.021 2.8783 4.51 4.51 0 0 0 2.6002 1.577 4.476 4.476 0 0 1-2.038.078 4.55 4.55 0 0 0 1.606 2.2587 4.498 4.498 0 0 0 2.6109.8976c-1.5983 1.2648-3.5728 1.9515-5.6056 1.9494A9.1 9.1 0 0 1 1 18.9584a12.715 12.715 0 0 0 6.9186 2.0381"/></svg>