<svg xmlns="http://www.w3.org/2000/svg" fill="none" viewBox="0 0 24 24"><path fill="currentColor" d="M9 10c-.552 0-1 .448-1 1v2H7c-.412 0-.647.47-.4.8l2 2.667c.2.267.6.267.8 0L11.4 13.8c.247-.33.012-.8-.4-.8h-1v-2c0-.552-.448-1-1-1M15 17c.552 0 1-.448 1-1v-2h1c.412 0 .647-.47.4-.8l-2-2.667c-.2-.267-.6-.267-.8 0l-2 2.667c-.247.33-.012.8.4.8h1v2c0 .552.448 1 1 1"/><path fill="currentColor" fill-rule="evenodd" d="M22 7c0-.5523-.4477-1-1-1h-8.2792l-.7721-2.3163A1 1 0 0 0 11 3H3c-.5523 0-1 .4477-1 1v16c0 .5523.4477 1 1 1h18c.5523 0 1-.4477 1-1zM4 19V5h6.2792l.7721 2.3162A1 1 0 0 0 12 8h8v11z" clip-rule="evenodd"/></svg>