<svg xmlns="http://www.w3.org/2000/svg" fill="none" viewBox="0 0 24 24"><path fill="currentColor" fill-rule="evenodd" d="m5.1022 18.6691 4.9013 2.4507C10.0655 22.1686 10.9357 23 12 23s1.9345-.8314 1.9965-1.8802l4.9013-2.4507c.316.2091.6949.3309 1.1022.3309 1.1046 0 2-.8954 2-2 0-.7403-.4022-1.3866-1-1.7324V8.7324c.5978-.3458 1-.9921 1-1.7324 0-1.1046-.8954-2-2-2-.4073 0-.7862.1218-1.1022.3309l-4.9013-2.4507C13.9345 1.8314 13.0643 1 12 1s-1.9345.8314-1.9965 1.8802L5.1022 5.3309A1.99 1.99 0 0 0 4 5c-1.1046 0-2 .8954-2 2 0 .7403.4022 1.3866 1 1.7324v6.5352c-.5978.3458-1 .9921-1 1.7324 0 1.1046.8954 2 2 2 .4073 0 .7862-.1218 1.1022-.3309M5 8.8631 9.0336 11.55A3 3 0 0 0 9 12q.0002.2297.0335.4501L5 15.1369zm.9824-1.7363L9.975 9.7864A3 3 0 0 1 11 9.1707V4.618zm8.0425 2.6596A3 3 0 0 0 13 9.1707V4.618l5.0176 2.5088zM19 8.8631 14.9665 11.55a3.04 3.04 0 0 1 0 .9002L19 15.1369zm-.9824 8.0101-3.9927-2.6596A3 3 0 0 1 13 14.8293v4.5527zM11 19.382v-4.5527a3 3 0 0 1-1.0249-.6157l-3.9927 2.6596zM13 12c0 .5523-.4477 1-1 1s-1-.4477-1-1 .4477-1 1-1 1 .4477 1 1" clip-rule="evenodd"/></svg>