<svg xmlns="http://www.w3.org/2000/svg" fill="none" viewBox="0 0 16 16"><g clip-path="url(#unknown--16-a)"><path fill="#e9eaec" d="M16 8c0 4.4183-3.5817 8-8 8s-8-3.5817-8-8 3.5817-8 8-8 8 3.5817 8 8"/><path fill="#949aa3" fill-rule="evenodd" d="M8 0c4.4183 0 8 3.5817 8 8s-3.5817 8-8 8-8-3.5817-8-8 3.5817-8 8-8m0 2c3.3137 0 6 2.6863 6 6 0 1.2958-.4108 2.4957-1.1093 3.4765L4.5235 3.1093C5.5043 2.4107 6.7042 2 8 2m3.4765 10.8907L3.1093 4.5235C2.4107 5.5043 2 6.7042 2 8c0 3.3137 2.6863 6 6 6 1.2958 0 2.4957-.4108 3.4765-1.1093" clip-rule="evenodd"/></g><defs><clipPath id="unknown--16-a"><path fill="#fff" d="M0 0h16v16H0z"/></clipPath></defs></svg>