<svg xmlns="http://www.w3.org/2000/svg" fill="none" viewBox="0 0 96 96"><path fill="url(#unknown-disabled-ill--96-a)" d="M77 48c0 16.0163-12.9837 29-29 29S19 64.0163 19 48s12.9837-29 29-29 29 12.9837 29 29"/><path fill="url(#unknown-disabled-ill--96-b)" d="M78 48c0 16.5685-13.4315 30-30 30S18 64.5685 18 48s13.4315-30 30-30 30 13.4315 30 30" opacity=".8"/><g fill="#fff" opacity=".9"><path d="M49.615 55.67q.846-.815.846-2.148v-1.408q0-.519.615-1.185.692-.667 2.231-1.704 1.923-1.333 3.308-3.037T58 41.001q0-3.556-2.846-5.778Q52.308 33 48 33q-2.769 0-5.077 1.037-2.231 1.037-3.615 2.815Q38 38.63 38 40.779q0 1.111.923 2.074 1 .889 2.308.889t2.231-.815q1-.815 1.077-1.778.077-1.259 1-1.852.923-.667 2.385-.667 1.615 0 2.615.741 1 .667 1 2.148 0 2.371-3.154 4.667-1.385.963-2.846 2.371-1.462 1.334-1.462 3.556v1.408q0 1.334.923 2.148.923.741 2.308.741 1.462 0 2.308-.741M47.202 65c1.918 0 3.472-1.497 3.472-3.344s-1.555-3.344-3.472-3.344c-1.918 0-3.472 1.497-3.472 3.344 0 1.847 1.555 3.344 3.472 3.344"/></g><path fill="#434c59" fill-rule="evenodd" d="M48 78c16.5685 0 30-13.4315 30-30S64.5685 18 48 18 18 31.4315 18 48s13.4315 30 30 30m0 3c18.2254 0 33-14.7746 33-33S66.2254 15 48 15 15 29.7746 15 48s14.7746 33 33 33" clip-rule="evenodd"/><circle cx="48" cy="48" r="32.5" stroke="url(#unknown-disabled-ill--96-c)" opacity=".3"/><path fill="#fff" fill-rule="evenodd" d="M48 77c16.0163 0 29-12.9837 29-29S64.0163 19 48 19 19 31.9837 19 48s12.9837 29 29 29m0 1c16.5685 0 30-13.4315 30-30S64.5685 18 48 18 18 31.4315 18 48s13.4315 30 30 30" clip-rule="evenodd"/><defs><linearGradient id="unknown-disabled-ill--96-a" x1="48" x2="48" y1="19" y2="77" gradientUnits="userSpaceOnUse"><stop stop-color="#a7acb3"/><stop offset="1" stop-color="#c5cad0"/></linearGradient><linearGradient id="unknown-disabled-ill--96-b" x1="48" x2="48" y1="18" y2="48" gradientUnits="userSpaceOnUse"><stop stop-color="#fff"/><stop offset="1" stop-color="#fff" stop-opacity="0"/></linearGradient><linearGradient id="unknown-disabled-ill--96-c" x1="48" x2="48" y1="15" y2="48" gradientUnits="userSpaceOnUse"><stop stop-color="#fff"/><stop offset="1" stop-color="#fff" stop-opacity="0"/></linearGradient></defs></svg>