<svg xmlns="http://www.w3.org/2000/svg" fill="none" viewBox="0 0 16 16"><path fill="currentColor" d="M8.625 15.333c0 .368-.28.667-.625.667s-.625-.299-.625-.667v-3.685h1.25zM3 3a.5.5 0 0 1 .707 0L13 12.293a.5.5 0 0 1-.707.707L3 3.707A.5.5 0 0 1 3 3M8.911 10.326c.126.126.037.341-.141.341H3.556C3.249 10.667 3 10.401 3 10.074c0-1.41.577-2.676 1.493-3.544.183-.174.469-.154.647.024zM9.875 0c.69 0 1.25.597 1.25 1.333 0 .736-.56 1.334-1.25 1.334H9.25v2.724C11.375 5.746 13 7.708 13 10.074c0 .327-.249.593-.556.593h-.155a.5.5 0 0 1-.353-.146l-5.039-5.039a.5.5 0 0 1-.146-.354v-2.461h-.625c-.69 0-1.25-.597-1.25-1.334C4.875.597 5.435 0 6.125 0z"/></svg>