<svg xmlns="http://www.w3.org/2000/svg" fill="none" viewBox="0 0 32 32"><path fill="currentColor" d="M2 2v28h28V2zm14.27 21.8701a1.24 1.24 0 0 1-.4556.3086 1.24 1.24 0 0 1-.5444.0813 1.37 1.37 0 0 1-.94-.3401 1.48 1.48 0 0 1-.37-1.1299c0-1 .44-1.49 1.31-1.49a1.271 1.271 0 0 1 1 .3799 1.62 1.62 0 0 1 .34 1.1101 1.58 1.58 0 0 1-.34 1.0801m3.89-10.79a4 4 0 0 1-.63 1.1399 14.3 14.3 0 0 1-1.79 1.74 6.61 6.61 0 0 0-1.45 1.57 3.26 3.26 0 0 0-.36 1.6499v.3601h-1.41V19a4.93 4.93 0 0 1 .4-2.1101 5.61 5.61 0 0 1 1.46-1.74 9.46 9.46 0 0 0 1.87-1.8899c.2702-.46.4053-.9868.39-1.52a2.11 2.11 0 0 0-.72-1.72 3 3 0 0 0-2.05-.61 7.15 7.15 0 0 0-1.68.2001 9.05 9.05 0 0 0-1.88.74l-.64-1.4702A9.15 9.15 0 0 1 15.98 7.8a4.73 4.73 0 0 1 3.24 1 3.68 3.68 0 0 1 1.16 2.8898 4.3 4.3 0 0 1-.22 1.3902"/></svg>