<svg xmlns="http://www.w3.org/2000/svg" fill="none" viewBox="0 0 32 32"><path fill="currentColor" d="M4 5h4v4H4zM4 14h4v4H4zM8 23H4v4h4zM10 6h18v2H10zM13 15h-3v2h3zM10 24h4v2h-4zM18.028 17H21v2h-6v-6h2v2.11c1.883-1.866 4.685-2.525 7.216-1.703C26.747 14.229 28.597 16.391 29 19h-2.019c-.407-1.914-1.903-3.417-3.829-3.847-1.926-.43-3.928.292-5.125 1.848M27 24.89V27h2v-6h-6v2h2.972c-1.196 1.556-3.199 2.278-5.125 1.848-1.926-.43-3.422-1.933-3.829-3.847H15c.403 2.609 2.253 4.771 4.784 5.593 2.531.822 5.333.163 7.216-1.703"/></svg>