<svg xmlns="http://www.w3.org/2000/svg" fill="none" viewBox="0 0 24 24"><path fill="currentColor" d="M11.573 5.013C7.906 5.234 5 8.277 5 12c0 1.746.626 3.38 1.748 4.644.367.413.329 1.045-.084 1.412s-1.045.329-1.412-.084C3.807 16.343 3 14.238 3 12c0-4.835 3.812-8.779 8.595-8.991l-.302-.302c-.39-.39-.39-1.024 0-1.414s1.024-.39 1.414 0l2 2c.391.391.391 1.024 0 1.414l-2 2c-.39.391-1.024.391-1.414 0s-.39-1.024 0-1.414zM12.427 18.987C16.094 18.767 19 15.723 19 12c0-1.715-.631-3.34-1.751-4.616-.364-.415-.323-1.047.092-1.411s1.047-.323 1.411.092C20.188 7.7 21 9.793 21 12c0 4.835-3.812 8.779-8.595 8.991l.302.302c.391.391.391 1.024 0 1.414s-1.024.391-1.414 0l-2-2c-.39-.39-.39-1.024 0-1.414l2-2c.391-.39 1.024-.39 1.414 0s.391 1.024 0 1.414z"/><path fill="currentColor" d="M13 10v1h1c.5523 0 1 .4477 1 1s-.4477 1-1 1h-1v1c0 .5523-.4477 1-1 1s-1-.4477-1-1v-1h-1c-.5523 0-1-.4477-1-1s.4477-1 1-1h1v-1c0-.5523.4477-1 1-1s1 .4477 1 1"/></svg>