<svg xmlns="http://www.w3.org/2000/svg" fill="none" viewBox="0 0 32 32"><path fill="currentColor" d="M5 16c0 3.587 1.727 6.882 4.585 8.937.448.323.551.947.228 1.396s-.947.55-1.396.228C5.043 24.134 3 20.237 3 16 3 8.957 8.601 3.222 15.592 3.006l-.299-.299c-.39-.39-.39-1.024 0-1.414s1.024-.39 1.414 0l2 2c.391.391.391 1.024 0 1.414l-2 2c-.39.391-1.024.391-1.414 0s-.39-1.024 0-1.414l.285-.285C9.698 5.23 5 10.066 5 16M16.422 26.992C22.302 26.77 27 21.934 27 16c0-3.581-1.728-6.874-4.584-8.932-.448-.323-.55-.948-.227-1.396.323-.448.948-.55 1.396-.227C26.957 7.874 29 11.769 29 16c0 7.043-5.601 12.778-12.592 12.994l.299.299c.391.391.391 1.024 0 1.414s-1.024.391-1.414 0l-2-2c-.39-.39-.39-1.024 0-1.414l2-2c.391-.39 1.024-.39 1.414 0s.391 1.024 0 1.414z"/><path fill="currentColor" d="M17 13v2h2c.5523 0 1 .4477 1 1s-.4477 1-1 1h-2v2c0 .5523-.4477 1-1 1s-1-.4477-1-1v-2h-2c-.5523 0-1-.4477-1-1s.4477-1 1-1h2v-2c0-.5523.4477-1 1-1s1 .4477 1 1"/></svg>