<svg xmlns="http://www.w3.org/2000/svg" fill="none" viewBox="0 0 32 32"><rect width="24" height="24" x="4" y="4" fill="#408bea" rx="2"/><rect width="23" height="23" x="4.5" y="4.5" stroke="#243143" stroke-opacity=".1" rx="1.5"/><path fill="currentColor" d="M4 6c0-1.1046.8954-2 2-2h20c1.1046 0 2 .8954 2 2v4H4z"/><path stroke="#243143" stroke-opacity=".1" d="M6 4.5h20c.8284 0 1.5.6716 1.5 1.5v3.5h-23V6c0-.8284.6716-1.5 1.5-1.5Z"/><path fill="#fff" d="M20.996 12.864c.634 0 1.095.601.93 1.213l-2.294 8.523a.963.963 0 0 1-.93.713c-.633 0-1.094-.601-.93-1.213l2.294-8.523a.963.963 0 0 1 .93-.713M16.551 12.864c.634 0 1.095.601.93 1.213l-2.294 8.523a.963.963 0 0 1-.93.713c-.633 0-1.094-.601-.93-1.213l2.294-8.523a.963.963 0 0 1 .93-.713M10.875 22.136q-.494 0-.848-.345-.349-.349-.345-.848-.004-.486.345-.831.354-.345.848-.345.469 0 .827.345.362.345.367.831-.004.332-.175.605a1.285 1.285 0 0 1-.435.43 1.133 1.133 0 0 1-.584.158m0-4.398q-.494 0-.848-.345-.349-.349-.345-.848-.004-.486.345-.831.354-.345.848-.345.469 0 .827.345.362.345.367.831-.004.332-.175.605a1.286 1.286 0 0 1-.435.43 1.133 1.133 0 0 1-.584.158"/></svg>