<svg xmlns="http://www.w3.org/2000/svg" fill="none" viewBox="0 0 24 24"><g fill="currentColor" clip-path="url(#users--24-a)"><path fill-rule="evenodd" d="M12 7c-1.657 0-3-1.343-3-3s1.343-3 3-3 3 1.343 3 3-1.343 3-3 3m0-1.7c.718 0 1.3-.582 1.3-1.3s-.582-1.3-1.3-1.3-1.3.582-1.3 1.3.582 1.3 1.3 1.3M2 6c0 1.657 1.343 3 3 3s3-1.343 3-3-1.343-3-3-3-3 1.343-3 3m4.3 0c0 .718-.582 1.3-1.3 1.3S3.7 6.718 3.7 6 4.282 4.7 5 4.7s1.3.582 1.3 1.3M16 6c0 1.657 1.343 3 3 3s3-1.343 3-3-1.343-3-3-3-3 1.343-3 3m4.3 0c0 .718-.582 1.3-1.3 1.3s-1.3-.582-1.3-1.3.582-1.3 1.3-1.3c.718 0 1.3.582 1.3 1.3M11.999 23c1.635.002 2.617-.202 2.617-1.311l.48-4.871a5 5 0 0 0 .136-.08c.566-.348.949-.751.983-1.335l.749-4.478C17.23 9.34 15.98 8 14.246 8H9.754c-1.738 0-2.983 1.344-2.718 2.926l.749 4.478c.035.581.416.981.982 1.331a5 5 0 0 0 .137.081l.484 4.957c-.004 1.022.976 1.225 2.611 1.227m1.75-7.64c-.35.13-.59.425-.624.765l-.484 4.843c-.185.021-.408.033-.639.032-.234 0-.459-.013-.645-.034l-.48-4.841c-.034-.338-.272-.632-.619-.763-.078-.029-.225-.096-.361-.178a1.4 1.4 0 0 1-.107-.071l-.747-4.365c-.075-.436.22-.747.712-.747h4.493c.491 0 .787.31.712.747l-.748 4.368a1.3 1.3 0 0 1-.105.069c-.135.081-.281.147-.358.175" clip-rule="evenodd"/><path d="M21.19 16.655c.042-.028.078-.055.105-.077l.689-3.792c.086-.471-.178-.786-.659-.786h-1.216c-.552 0-1-.448-1-1s.448-1 1-1h1.216c1.728 0 2.936 1.444 2.627 3.144l-.685 3.769c-.04.614-.416 1.04-.97 1.408a4 4 0 0 1-.131.083L21.811 21.6c0 1.134-.941 1.4-2.254 1.399-1.313-.001-2.253-.266-2.251-1.335l-.305-3.83c-.035-.551.384-1.026.935-1.061.551-.035 1.026.384 1.061.935l.268 3.277c.091.008.19.013.293.013a3.3 3.3 0 0 0 .301-.013l.36-3.298a1 1 0 0 1 .616-.841c.076-.031.221-.103.354-.192M3.165 16.847c-.076-.031-.22-.103-.354-.192a1.3 1.3 0 0 1-.105-.077l-.689-3.792c-.086-.471.178-.786.659-.786h1.216c.552 0 1-.448 1-1s-.448-1-1-1H2.675C.947 10-.26 11.444.048 13.144l.685 3.769c.04.614.416 1.04.97 1.408q.066.044.131.083L2.189 21.6c0 1.134.942 1.4 2.254 1.399 1.313-.001 2.253-.266 2.251-1.335l.305-3.83c.035-.551-.384-1.026-.935-1.061-.551-.035-1.026.384-1.061.935l-.268 3.277a3.3 3.3 0 0 1-.293.013 3.3 3.3 0 0 1-.301-.013l-.36-3.298a1 1 0 0 0-.616-.841"/></g><defs><clipPath id="users--24-a"><path fill="#fff" d="M0 0h24v24H0z"/></clipPath></defs></svg>