<svg xmlns="http://www.w3.org/2000/svg" fill="none" viewBox="0 0 32 32"><path fill="currentColor" fill-rule="evenodd" d="M12.002 5c0 2.209 1.791 4 4 4 2.209 0 4-1.791 4-4s-1.791-4-4-4-4 1.791-4 4m6 0c0 1.105-.895 2-2 2s-2-.895-2-2 .895-2 2-2 2 .895 2 2M3.002 7.5c0 1.933 1.567 3.5 3.5 3.5s3.5-1.567 3.5-3.5-1.567-3.5-3.5-3.5-3.5 1.567-3.5 3.5m5.3 0c0 .994-.806 1.8-1.8 1.8-.994 0-1.8-.806-1.8-1.8s.806-1.8 1.8-1.8c.994 0 1.8.806 1.8 1.8M25.502 11c-1.933 0-3.5-1.567-3.5-3.5s1.567-3.5 3.5-3.5 3.5 1.567 3.5 3.5-1.567 3.5-3.5 3.5m0-1.7c.994 0 1.8-.806 1.8-1.8s-.806-1.8-1.8-1.8-1.8.806-1.8 1.8.806 1.8 1.8 1.8M10.502 19.123l-.481-4.394C9.792 12.64 11.595 11 13.892 11h4.218c2.302 0 4.101 1.637 3.872 3.729l-.481 4.394c-.113 1.03-.707 1.955-1.597 2.6l-.71 8.016c-.113 1.13-1.021 1.263-3.193 1.262-2.174-.001-3.078-.134-3.193-1.273l-.709-8.005c-.89-.645-1.485-1.569-1.597-2.598m7.453 1.935a1 1 0 0 1 .51-.786c.61-.339.992-.854 1.049-1.367l.481-4.394c.088-.804-.689-1.511-1.884-1.511h-4.218c-1.191 0-1.971.71-1.884 1.511l.481 4.395c.056.512.439 1.026 1.049 1.366.289.161.48.455.509.785l.697 7.876c.338.043.788.067 1.257.068.469 0 .918-.023 1.256-.066z" clip-rule="evenodd"/><path fill="currentColor" d="M3.825 29.807c.194 1.584 5.219 1.587 5.412.017l.758-7.187c.058-.549-.343-1.041-.895-1.099s-1.047.341-1.105.89l-.689 6.539c-.223.022-.493.034-.773.033s-.55-.013-.774-.034l-.689-6.539a1 1 0 0 0-.581-.805c-.595-.272-.944-.656-.987-.978l-.48-4.591C2.953 15.551 3.694 15 4.914 15H7.144c.555 0 1.006-.448 1.006-1s-.45-1-1.006-1H4.914c-2.287 0-4.145 1.384-3.89 3.289l.48 4.591c.125.94.732 1.735 1.62 2.281zM30.492 20.908l.487-4.647C31.23 14.382 29.377 13 27.086 13h-2.23c-.555 0-1.005.448-1.005 1s.45 1 1.005 1h2.23c1.224 0 1.96.549 1.896 1.026l-.487 4.647c-.04.294-.388.679-.983.95a1 1 0 0 0-.581.805l-.689 6.539c-.223.022-.493.034-.773.033-.28 0-.55-.013-.774-.034l-.689-6.539c-.058-.549-.552-.948-1.104-.89s-.953.55-.895 1.099l.756 7.171c.194 1.584 5.218 1.587 5.41.017l.702-6.661c.888-.545 1.494-1.337 1.616-2.254"/></svg>