<svg xmlns="http://www.w3.org/2000/svg" fill="none" viewBox="0 0 24 24"><path fill="currentColor" fill-rule="evenodd" d="M12.0005 14.0004c2.96 0 5-3.346 5-8.185 0-3.835-5-3.815-5-3.815s-5-.02-5 3.815c0 4.839 2.047 8.185 5 8.185m-1.791-9.661c.379-.144.809-.242 1.244-.296.262-.033.457-.043.551-.043.085 0 .28.01.542.043.435.054.865.152 1.244.296.853.324 1.21.732 1.21 1.476 0 3.879-1.408 6.185-3 6.185-1.588 0-3-2.31-3-6.185 0-.744.356-1.152 1.209-1.476m11.3002 12.2535c.214.034.392.184.46.39a.581.581 0 0 1-.133.589l-1.527 1.572.353 2.181c.029.168-.018.34-.128.47a.58.58 0 0 1-.441.205.59.59 0 0 1-.28-.073l-1.814-1.008-1.813 1.008a.5775.5775 0 0 1-.85-.602l.354-2.181-1.527-1.572a.584.584 0 0 1-.134-.589.584.584 0 0 1 .461-.391l2.083-.319.903-1.939a.577.577 0 0 1 1.047 0l.903 1.94zM4 18.669V20h8.349c.264.746.67 1.423 1.188 2H3.991C2.891 22 2 21.113 2 20.006v-1.337c0-.83.642-1.731 1.422-2.008l3.641-1.292c.517-.184 1.35-.158 1.865.062l1.236.527c.571.243 1.345.343 2.092.312A5.99 5.99 0 0 0 12 18c0 .0596.0039.118.0079.1762q.0037.0518.0061.1038c-.936.002-1.874-.159-2.634-.483l-1.236-.526c-.054-.023-.368-.034-.413-.018l-3.64 1.293c.014-.005-.091.143-.091.123" clip-rule="evenodd"/></svg>