<svg xmlns="http://www.w3.org/2000/svg" fill="none" viewBox="0 0 16 16"><path fill="currentColor" fill-rule="evenodd" d="M6 10c-2.333 0-3.5-2.25-3.5-5.062C2.5 2.763 3.083 1 6 1s3.5 1.763 3.5 3.938C9.5 7.75 8.333 10 6 10m-.939-2.552C5.321 7.855 5.594 8 6 8s.679-.145.939-.552c.313-.489.561-1.341.561-2.51 0-.997-.154-1.44-.282-1.62l-.003-.004C7.185 3.269 7.002 3 6 3s-1.185.269-1.215.314l-.003.004c-.128.179-.282.623-.282 1.62 0 1.169.249 2.021.561 2.51M12 12.442V14c0 1.105-.895 2-2 2H2c-1.105 0-2-.895-2-2v-1.558c0-.861.551-1.625 1.368-1.897l1.046-.348a2 2 0 0 1 1.182-.026l1.856.53a2 2 0 0 0 1.099 0l1.856-.53a2 2 0 0 1 1.182.026l1.046.348A2 2 0 0 1 12 12.442m-10 0V14h8v-1.558l-1.045-.348-1.856.53a4 4 0 0 1-2.198 0l-1.856-.53zM11 9.5c-.603 0-1.115-.159-1.536-.441.367-.587.637-1.283.809-2.053.037.076.075.141.114.196.088.125.169.188.236.223.065.034.178.076.378.076s.313-.041.378-.076c.067-.036.149-.098.236-.223.193-.274.386-.814.386-1.638 0-.335-.026-.571-.064-.735-.029-.123-.058-.174-.066-.188-.009-.006-.031-.019-.071-.034C11.691 4.563 11.451 4.5 11 4.5c-.211 0-.376.014-.503.033-.015-.713-.092-1.384-.275-1.981.235-.034.494-.052.778-.052 2.5 0 3 1.371 3 3.063C14 7.75 13 9.5 11 9.5m.876-4.855s-.002-.001-.005-.004a.03.03 0 0 1 .005.004" clip-rule="evenodd"/><path fill="currentColor" d="M14 16h-1.684A2.988 2.988 0 0 0 13 14.093V14h1v-1.6667l-.7372-.2457a1 1 0 0 0-.2734-.0504 3 3 0 0 0-.8054-1.8041l.2211-.0631a2 2 0 0 1 1.1819.0257l1.0455.3485A2 2 0 0 1 16 12.4415V14c0 1.1046-.8954 2-2 2"/></svg>