<svg xmlns="http://www.w3.org/2000/svg" fill="none" viewBox="0 0 32 32"><circle cx="16" cy="16" r="14" fill="#cadef9"/><path fill="#408bea" d="M16 16.5c3.038 0 5.5-2.462 5.5-5.5S19.038 5.5 16 5.5s-5.5 2.462-5.5 5.5 2.462 5.5 5.5 5.5M16 18.5c-4.653 0-8.735 2.445-11.032 6.12C7.53 27.895 11.519 30 16 30c4.481 0 8.47-2.105 11.032-5.38C24.735 20.945 20.653 18.5 16 18.5"/><path fill="#243143" fill-opacity=".1" fill-rule="evenodd" d="M16 29c7.1797 0 13-5.8203 13-13S23.1797 3 16 3 3 8.8203 3 16s5.8203 13 13 13m0 1c7.732 0 14-6.268 14-14S23.732 2 16 2 2 8.268 2 16s6.268 14 14 14" clip-rule="evenodd"/></svg>