<svg xmlns="http://www.w3.org/2000/svg" fill="none" viewBox="0 0 16 16"><path fill="currentColor" fill-rule="evenodd" d="M8 10c-2.667 0-4-2.5-4-5.625C4 1.959 4.667 0 8 0s4 1.959 4 4.375C12 7.5 10.667 10 8 10m0-2c1.188 0 2-1.237 2-3.625C10 2.427 9.685 2 8 2s-2 .427-2 2.375C6 6.763 6.812 8 8 8M4.193 10.171a3 3 0 0 1 1.676.064l1.815.605c.205.068.427.068.633 0l1.815-.605a3 3 0 0 1 1.676-.064l3.056.764A1.5 1.5 0 0 1 16 12.39V14.5c0 .828-.672 1.5-1.5 1.5h-13C.672 16 0 15.328 0 14.5v-2.11a1.5 1.5 0 0 1 1.136-1.455zM2 12.781V14h12v-1.219l-2.677-.669a1 1 0 0 0-.559.022l-1.815.605a3 3 0 0 1-1.897 0l-1.815-.605a1 1 0 0 0-.559-.021z" clip-rule="evenodd"/></svg>