<svg xmlns="http://www.w3.org/2000/svg" fill="none" viewBox="0 0 24 24"><path fill="currentColor" fill-rule="evenodd" d="M12 7c-1.657 0-3-1.343-3-3s1.343-3 3-3 3 1.343 3 3-1.343 3-3 3m0-1.7c.718 0 1.3-.582 1.3-1.3s-.582-1.3-1.3-1.3c-.718 0-1.3.582-1.3 1.3s.582 1.3 1.3 1.3M2 6C2 7.657 3.343 9 5 9s3-1.343 3-3-1.343-3-3-3S2 4.343 2 6m4.3 0c0 .718-.582 1.3-1.3 1.3s-1.3-.582-1.3-1.3.582-1.3 1.3-1.3 1.3.582 1.3 1.3M16 6c0 1.657 1.343 3 3 3s3-1.343 3-3-1.343-3-3-3-3 1.343-3 3m4.3 0c0 .718-.582 1.3-1.3 1.3s-1.3-.582-1.3-1.3.582-1.3 1.3-1.3c.718 0 1.3.582 1.3 1.3M11.999 23c1.635.002 2.617-.202 2.617-1.311l.479-4.871a5 5 0 0 0 .136-.08c.566-.348.949-.751.983-1.335l.749-4.477c.265-1.586-.984-2.926-2.718-2.926H9.754C8.016 8 6.771 9.344 7.035 10.926l.75 4.478c.035.581.416.981.982 1.331q.069.043.137.081l.484 4.957c-.004 1.022.976 1.225 2.611 1.227m1.749-7.64c-.35.13-.59.425-.624.765l-.484 4.843c-.185.021-.408.033-.639.032-.234 0-.459-.013-.645-.034l-.48-4.841c-.034-.338-.272-.632-.619-.763-.078-.03-.225-.096-.361-.178a1.4 1.4 0 0 1-.107-.071l-.747-4.365c-.075-.436.22-.747.712-.747h4.493c.492 0 .787.31.712.747l-.748 4.368a1.3 1.3 0 0 1-.105.069c-.135.081-.28.147-.358.175" clip-rule="evenodd"/><path fill="currentColor" d="M21.19 16.655a1.3 1.3 0 0 0 .105-.077l.689-3.792c.086-.471-.178-.786-.659-.786h-1.216c-.552 0-1-.448-1-1s.448-1 1-1h1.216c1.728 0 2.936 1.444 2.627 3.144l-.685 3.769c-.04.614-.416 1.04-.97 1.408a4 4 0 0 1-.131.083l-.355 3.196c0 1.134-.941 1.4-2.254 1.399-1.313-.001-2.253-.267-2.251-1.335l-.305-3.829c-.035-.551.384-1.026.935-1.061s1.026.384 1.061.935l.268 3.277c.091.008.19.013.293.013a3.2 3.2 0 0 0 .301-.013l.36-3.297a1 1 0 0 1 .616-.841c.076-.031.221-.103.354-.191M3.165 16.847c-.076-.031-.22-.103-.354-.191a1.3 1.3 0 0 1-.105-.077l-.689-3.792c-.086-.471.178-.786.659-.786h1.216c.552 0 1-.448 1-1s-.448-1-1-1H2.675c-1.728 0-2.935 1.444-2.627 3.144l.685 3.769c.04.614.416 1.04.97 1.408q.066.044.131.083l.355 3.196c0 1.134.942 1.4 2.254 1.399 1.313-.001 2.253-.267 2.251-1.335l.305-3.829c.035-.551-.384-1.026-.935-1.061s-1.026.384-1.061.935l-.268 3.277a3.3 3.3 0 0 1-.293.013 3.2 3.2 0 0 1-.3-.013l-.36-3.297a1 1 0 0 0-.616-.841"/></svg>