<svg xmlns="http://www.w3.org/2000/svg" fill="none" viewBox="0 0 24 24"><path fill="currentColor" fill-rule="evenodd" d="M11.4855 1.1425a1 1 0 0 1 1.029 0l5 3A1 1 0 0 1 18 5v4.4338l4.5145 2.7087A1 1 0 0 1 23 13v5a1 1 0 0 1-.4855.8575l-5 3a1 1 0 0 1-1.029 0L12 19.1662l-4.4855 2.6913a1 1 0 0 1-1.029 0l-5-3A1 1 0 0 1 1 18v-5a1 1 0 0 1 .4855-.8575L6 9.4338V5a1 1 0 0 1 .4855-.8575zM3 14.9006v2.5332l3 1.8v-2.6304zm5 4.3332 3-1.8v-2.5332l-3 1.7028zm2.0867-6.2156L7 14.7703l-3.0867-1.7521L7 11.1662zM8 9.4338l3 1.8V8.6034L8 6.9006zm5 5.4668v2.5332l3 1.8v-2.6304zm4-3.7344 3.0867 1.852L17 14.7703l-3.0867-1.7521zm1 5.4372v2.6304l3-1.8v-2.5332zm-2-9.7028v2.5332l-3 1.8V8.6034zm-.9133-1.8824L12 6.7702l-3.0867-1.752L12 3.1662z" clip-rule="evenodd"/></svg>