<svg xmlns="http://www.w3.org/2000/svg" fill="none" viewBox="0 0 24 24"><path fill="currentColor" fill-rule="evenodd" d="m12.5143 1.1425 8.9999 5a1 1 0 0 1 .4855.8574v8.0636a5.04 5.04 0 0 0-.8001-.0637c-.4136 0-.8155.0502-1.1999.1449V8.7949l-6.9999 3.6793v2.6977a3.01 3.01 0 0 0-.9984.5942 3.01 3.01 0 0 0-1.0016-.5899v-2.702L3.9999 8.7949v7.6159l3.0057 1.6703a2.99 2.99 0 0 0 .2186 1.0499l.7085 1.7525-5.4472-3.0263A1 1 0 0 1 2 16.9998V6.9999a1 1 0 0 1 .4855-.8575l8.9998-5a1 1 0 0 1 1.029 0m-.5144 9.5753 7.0046-3.6818-7.0047-3.8915-7.0056 3.891z" clip-rule="evenodd"/><path fill="currentColor" d="M9.6287 17.0716c.5128-.2052 1.0948.0443 1.2999.557l1.0715 2.6788.7716-1.9291A2.193 2.193 0 0 1 14.8075 17c.5224 0 1.0021.1827 1.3788.4877a2.738 2.738 0 0 1 1.5637-.4876c.6648 0 1.2745.2359 1.75.6286a2.74 2.74 0 0 1 1.75-.6286c1.5187 0 2.7499 1.2312 2.7499 2.75V23c0 .5523-.4477 1-.9999 1s-1-.4477-1-1v-3.2499a.75.75 0 0 0-1.5 0V23c0 .5523-.4477 1-1 1s-1-.4477-1-1v-3.2499a.75.75 0 0 0-1.5 0V23c0 .5523-.4477 1-.9999 1s-1-.4477-1-1v-3.8074a.1926.1926 0 0 0-.3714-.0716l-1.7001 4.2503a1 1 0 0 1-1.857 0l-2-4.9999c-.205-.5128.0444-1.0947.5571-1.2998"/></svg>