<svg xmlns="http://www.w3.org/2000/svg" fill="none" viewBox="0 0 32 32"><path fill="currentColor" d="M15.043 13.076c.294.151.37.337.37.901v.455h-1.724l.001-.431c.001-.472.059-.669.25-.845.24-.221.757-.258 1.103-.08M21.248 19.428c-.333-.19-.748.05-.748.434v6.277c0 .384.415.625.748.434l5.492-3.138c.336-.192.336-.676 0-.868z"/><path fill="currentColor" fill-rule="evenodd" d="M2 5c0-1.1046.8954-2 2-2h24c1.1046 0 2 .8954 2 2v12.3427c1.2508 1.5457 2 3.514 2 5.6573 0 4.9706-4.0294 9-9 9-2.6655 0-5.0604-1.1588-6.7083-3h-4.6513c-.3253 0-.564-.3057-.4851-.6213L12 25H4c-1.1046 0-2-.8954-2-2zm14.4787 11.7974a9.01 9.01 0 0 0-1.6465 2.4177 9 9 0 0 1-.2819.003c-.6625-.0021-1.0214-.0719-1.4274-.2777-.2966-.1503-.6535-.5037-.7953-.7874-.2378-.4757-.2487-.6078-.2341-2.8205.0127-1.9242.0166-2.0122.0979-2.2274.1202-.3179.2043-.4736.3591-.6647.261-.3224.7879-.5984 1.3285-.696.1046-.0189.4608-.029.7916-.0224.5204.0104.6452.0263.9254.1175.7464.243 1.1697.6857 1.367 1.4295.0567.2136.0695.4486.0712 1.3031l.0021 1.0425-3.348.0209.0018.8516c.0018.8863.0284 1.0648.1848 1.2408.1318.1482.373.2305.6754.2305.346 0 .5661-.0914.7264-.3014.1036-.1358.1171-.1884.1296-.5056l.0141-.354zm2.2215.6784C17.0569 18.7568 16 20.755 16 23c0 2.5463 1.3596 4.7751 3.3924 6 1.0536.6348 2.2879 1 3.6076 1 3.866 0 7-3.134 7-7 0-3.6666-2.8191-6.6748-6.4081-6.9753A7 7 0 0 0 23 16c-.3715 0-.7363.0289-1.0921.0847a6.95 6.95 0 0 0-1.6038.4533 7 7 0 0 0-1.6039.9378m1.6039-3.065a8.94 8.94 0 0 0-1.6039.6808v-3.2661h1.6039zm1.6038-.3452a9.1 9.1 0 0 1 1.684-.0464V9.5h-1.684zM5.0026 9.5702c.0113.0385.4654 2.1541 1.0092 4.7012s.997 4.6445 1.007 4.6611c.0102.0165.6115.03 1.3363.03h1.318l.0428-.2105c.179-.8784 1.8072-9.1759 1.8072-9.2093 0-.029-.2972-.0427-.9222-.0427-.5072 0-.9222.0063-.9222.014 0 .0334-1.3236 7.6737-1.3442 7.7592-.0126.0522-.0302.0877-.0391.0788-.016-.0159-1.3833-7.7406-1.3833-7.8144 0-.0224-.392-.0376-.965-.0376-.9 0-.9635.0047-.9445.0702M18.7002 9.5v1.6038h1.6039V9.5z" clip-rule="evenodd"/></svg>