<svg xmlns="http://www.w3.org/2000/svg" fill="none" viewBox="0 0 24 24"><path fill="currentColor" d="M19.651 5.143c.459.27.459.936 0 1.206l-7.297 4.291a.697.697 0 0 1-.707 0l-7.297-4.291c-.46-.27-.46-.936 0-1.206L11.646.846a.697.697 0 0 1 .708 0zM10.926 21.8c0 .541-.586.877-1.052.603l-7.28-4.28a.7.7 0 0 1-.345-.603V8.938c0-.541.586-.877 1.052-.603l7.28 4.281a.7.7 0 0 1 .345.603zM13.074 21.8c0 .541.586.877 1.052.603l7.28-4.28a.7.7 0 0 0 .345-.603V8.938c0-.541-.586-.877-1.052-.603l-7.28 4.281a.7.7 0 0 0-.345.603z"/></svg>