<svg xmlns="http://www.w3.org/2000/svg" fill="none" viewBox="0 0 32 32"><path fill="currentColor" d="M19.75 13.153h-.248v-1.5h.241q.329 0 .485.17.159.166.159.563 0 .382-.149.577-.149.191-.489.191M13.123 13.284h-.184v-1.631h.234q.333 0 .492.198.159.195.159.602 0 .442-.173.637t-.527.195M21.248 19.421c-.333-.19-.748.05-.748.434v6.275c0 .384.415.624.748.434l5.492-3.137c.336-.192.336-.676 0-.868z"/><path fill="currentColor" fill-rule="evenodd" d="M2 4.9984c0-1.1042.8954-1.9994 2-1.9994h24c1.1046 0 2 .8952 2 1.9994v12.3388c1.2508 1.5452 2 3.5129 2 5.6556 0 4.969-4.0294 8.9971-9 8.9971-2.6655 0-5.0604-1.1584-6.7083-2.999h-4.6513c-.3253 0-.564-.3056-.4851-.6211L12 24.9921H4c-1.1046 0-2-.8951-2-1.9993zm15.3427 10.9965a9 9 0 0 1 .4422-.3358v-.5064h-1.37v-1.4333h1.2709v-.8352h-1.2709v-1.2315h1.37v-.8317H15.452v5.1739zm1.1962-.8181a9 9 0 0 1 .9629-.4763v-.7192h.3434l.2064.5082c.284-.0984.5744-.183.8704-.2529l-.2236-.5101q.662-.3893.662-1.3696 0-.7785-.3824-1.1572-.3787-.3786-1.1788-.3787h-1.2603zm3.4233-1.1221a9.1 9.1 0 0 1 1.7806-.0289v-.3878h-1.7806zm2.8233.1179q.4822.0972.9442.2443a7 7 0 0 0-.0824-.4356l-.6761-3.1603h-.97zm1.1345.3071c.2724.0933.5389.1994.7987.3174l.9358-3.9761h-.9699l-.6691 3.1603a10 10 0 0 0-.0955.4984M6.6904 15.9949h.963V10.821h-.963v2.0561H5.4196V10.821h-.963v5.1739h.963v-2.2684h1.2708zm3.8162-5.1739-.6903 2.042-.6868-2.042h-1.016l1.2249 3.1391v2.0348h.9487v-2.0738l1.2284-3.1001zm3.8728 2.8595q.4177-.4424.4177-1.2669 0-1.5926-1.508-1.5926h-1.3134v5.1739h.9629v-1.8756h.2407q.7859 0 1.2001-.4388M23 29.9906c3.866 0 7-3.1331 7-6.9978 0-3.8648-3.134-6.9979-7-6.9979s-7 3.1331-7 6.9979 3.134 6.9978 7 6.9978" clip-rule="evenodd"/></svg>