<svg xmlns="http://www.w3.org/2000/svg" fill="none" viewBox="0 0 32 32"><path fill="currentColor" d="M13.123 13.288h-.184v-1.632h.234q.333 0 .492.198.159.195.159.602 0 .443-.173.637t-.527.195M19.75 13.157h-.248v-1.501h.241q.329 0 .485.17.159.166.159.563 0 .382-.149.577-.149.191-.489.191"/><path fill="currentColor" fill-rule="evenodd" d="M2 5c0-1.1046.8954-2 2-2h24c1.1046 0 2 .8954 2 2v18c0 1.1046-.8954 2-2 2h-8l.8447 3.3787c.0789.3156-.1598.6213-.4851.6213h-8.7192c-.3253 0-.564-.3057-.4851-.6213L12 25H4c-1.1046 0-2-.8954-2-2zm4.6904 11h.963v-5.1755h-.963v2.0567H5.4196v-2.0567h-.963V16h.963v-2.2692h1.2708zm3.8162-5.1755-.6903 2.0426-.6868-2.0426h-1.016l1.2249 3.14V16h.9487v-2.0745l1.2284-3.101zm3.8728 2.8603q.4177-.4425.4177-1.2673 0-1.593-1.508-1.593h-1.3134V16h.9629v-1.8762h.2407q.7859 0 1.2001-.439M15.452 16h2.3329v-.8425h-1.37v-1.4337h1.2709v-.8355h-1.2709v-1.2319h1.37v-.8319H15.452zm4.0498 0v-2.0143h.3434L20.663 16h1.0301l-.9947-2.2692q.662-.3894.662-1.37 0-.7787-.3824-1.1576-.3787-.3787-1.1788-.3787h-1.2603V16zm2.4604-2.3577v.8284h1.7806v-.8284zm5.6923-2.8178h-.9699l-.6691 3.1612q-.1133.5168-.1876 1.1576-.0885-.754-.1806-1.1576l-.6761-3.1612h-.97L25.2119 16h1.2249z" clip-rule="evenodd"/></svg>