<svg xmlns="http://www.w3.org/2000/svg" fill="none" viewBox="0 0 32 32"><path fill="currentColor" d="M10 16V8h8v2h-5c-.552 0-1 .448-1 1v5zM20.5 19.862c0-.384.415-.625.748-.434l5.492 3.138c.336.192.336.676 0 .868l-5.492 3.138c-.333.191-.748-.05-.748-.434z"/><path fill="currentColor" fill-rule="evenodd" d="M2 5c0-1.1046.8954-2 2-2h24c1.1046 0 2 .8954 2 2v12.3427c1.2508 1.5457 2 3.514 2 5.6573 0 4.9706-4.0294 9-9 9-2.6655 0-5.0604-1.1588-6.7083-3h-4.6513c-.3253 0-.564-.3057-.4851-.6213L12 25H4c-1.1046 0-2-.8954-2-2zm22 6v3.0549A9.1 9.1 0 0 0 23 14c-.338 0-.6717.0186-1 .0549V12h-2v2.5121a8.97 8.97 0 0 0-2 1.0034V12h-4v4h3.3427a9.05 9.05 0 0 0-1.8272 2H14v2h.5121a8.95 8.95 0 0 0-.4572 2H13c-.5523 0-1-.4477-1-1v-3H9c-.5523 0-1-.4477-1-1V7c0-.5523.4477-1 1-1h10c.5523 0 1 .4477 1 1v3h3c.5523 0 1 .4477 1 1m6 12c0 3.866-3.134 7-7 7s-7-3.134-7-7 3.134-7 7-7 7 3.134 7 7" clip-rule="evenodd"/></svg>