<svg xmlns="http://www.w3.org/2000/svg" fill="none" viewBox="0 0 24 24"><path fill="currentColor" d="M1.929 8.628c-.205-.513-.787-.762-1.3-.557s-.762.787-.557 1.3l2 5a1 1 0 0 0 1.857 0l1.7-4.25a.193.193 0 0 1 .371.072v3.808c0 .552.448 1 1 1s1-.448 1-1v-3.25a.75.75 0 0 1 1.5 0v3.25c0 .552.448 1 1 1s1-.448 1-1v-3.25a.75.75 0 0 1 1.5 0v3.25c0 .552.448 1 1 1s1-.448 1-1v-3.25c0-1.519-1.231-2.75-2.75-2.75a2.738 2.738 0 0 0-1.75.629 2.74 2.74 0 0 0-1.75-.629c-.581 0-1.12.18-1.564.488a2.183 2.183 0 0 0-1.379-.488A2.193 2.193 0 0 0 3.772 9.378l-.772 1.929zM15.713 8.042c.529-.159 1.086.142 1.245.671l.677 2.257.937-2.341a1 1 0 0 1 1.857 0l.937 2.341.677-2.257c.159-.529.716-.829 1.245-.67s.829.716.671 1.245l-1.5 5a1 1 0 0 1-1.886.084l-1.071-2.679-1.071 2.679a1 1 0 0 1-1.886-.084l-1.5-5c-.159-.529.142-1.086.671-1.245"/></svg>