<svg xmlns="http://www.w3.org/2000/svg" fill="none" viewBox="0 0 24 24"><path fill="currentColor" fill-rule="evenodd" d="M4 1C2.343 1 1 2.343 1 4v4c0 1.657 1.343 3 3 3h4c1.657 0 3-1.343 3-3V4c0-1.657-1.343-3-3-3zM3 4c0-.552.448-1 1-1h4c.552 0 1 .448 1 1v4c0 .552-.448 1-1 1H4c-.552 0-1-.448-1-1zM18 1c-2.761 0-5 2.239-5 5s2.239 5 5 5 5-2.239 5-5-2.239-5-5-5m-3 5c0-1.657 1.343-3 3-3s3 1.343 3 3-1.343 3-3 3-3-1.343-3-3M1 16c0-1.657 1.343-3 3-3h4c1.657 0 3 1.343 3 3v4c0 1.657-1.343 3-3 3H4c-1.657 0-3-1.343-3-3zm3-1c-.552 0-1 .448-1 1v4c0 .552.448 1 1 1h4c.552 0 1-.448 1-1v-4c0-.552-.448-1-1-1zM16 13c-1.657 0-3 1.343-3 3v4c0 1.657 1.343 3 3 3h4c1.657 0 3-1.343 3-3v-4c0-1.657-1.343-3-3-3zm-1 3c0-.552.448-1 1-1h4c.552 0 1 .448 1 1v4c0 .552-.448 1-1 1h-4c-.552 0-1-.448-1-1z" clip-rule="evenodd"/></svg>