<svg xmlns="http://www.w3.org/2000/svg" fill="none" viewBox="0 0 32 32"><path fill="currentColor" fill-rule="evenodd" d="M5 2C3.343 2 2 3.343 2 5v7c0 1.657 1.343 3 3 3h7c1.657 0 3-1.343 3-3V5c0-1.657-1.343-3-3-3zM4 5c0-.552.448-1 1-1h7c.552 0 1 .448 1 1v7c0 .552-.448 1-1 1H5c-.552 0-1-.448-1-1zM5 17c-1.657 0-3 1.343-3 3v7c0 1.657 1.343 3 3 3h7c1.657 0 3-1.343 3-3v-7c0-1.657-1.343-3-3-3zm-1 3c0-.552.448-1 1-1h7c.552 0 1 .448 1 1v7c0 .552-.448 1-1 1H5c-.552 0-1-.448-1-1zM17 8.5C17 4.91 19.91 2 23.5 2S30 4.91 30 8.5 27.09 15 23.5 15 17 12.09 17 8.5M23.5 4C21.015 4 19 6.015 19 8.5s2.015 4.5 4.5 4.5S28 10.985 28 8.5 25.985 4 23.5 4M20 17c-1.657 0-3 1.343-3 3v7c0 1.657 1.343 3 3 3h7c1.657 0 3-1.343 3-3v-7c0-1.657-1.343-3-3-3zm-1 3c0-.552.448-1 1-1h7c.552 0 1 .448 1 1v7c0 .552-.448 1-1 1h-7c-.552 0-1-.448-1-1z" clip-rule="evenodd"/></svg>