<svg xmlns="http://www.w3.org/2000/svg" fill="none" viewBox="0 0 24 24"><path fill="currentColor" d="M13 7.414V10c0 .552-.448 1-1 1s-1-.448-1-1V7.414l-.293.293c-.39.39-1.024.39-1.414 0-.39-.391-.39-1.024 0-1.414l2-2c.391-.39 1.024-.39 1.414 0l2 2c.391.391.391 1.024 0 1.414s-1.024.391-1.414 0zM5 13h2.586l-.293.293c-.39.391-.39 1.024 0 1.414.391.391 1.024.391 1.414 0l2-2c.391-.39.391-1.024 0-1.414l-2-2c-.39-.39-1.024-.39-1.414 0s-.39 1.024 0 1.414L7.586 11H5c-.552 0-1 .448-1 1s.448 1 1 1M11 14v2.586l-.293-.293c-.39-.39-1.024-.39-1.414 0s-.39 1.024 0 1.414l2 2c.391.391 1.024.391 1.414 0l2-2c.391-.39.391-1.024 0-1.414s-1.024-.39-1.414 0L13 16.586V14c0-.552-.448-1-1-1s-1 .448-1 1M19 11h-2.586l.293-.293c.391-.39.391-1.024 0-1.414s-1.024-.39-1.414 0l-2 2c-.39.391-.39 1.024 0 1.414l2 2c.391.391 1.024.391 1.414 0s.391-1.024 0-1.414L16.414 13H19c.552 0 1-.448 1-1s-.448-1-1-1"/><path fill="currentColor" fill-rule="evenodd" d="M12 23C5.9249 23 1 18.0751 1 12S5.9249 1 12 1s11 4.9249 11 11-4.9249 11-11 11m0-2c4.9706 0 9-4.0294 9-9s-4.0294-9-9-9-9 4.0294-9 9 4.0294 9 9 9" clip-rule="evenodd"/></svg>