<svg xmlns="http://www.w3.org/2000/svg" fill="none" viewBox="0 0 32 32"><path fill="currentColor" d="M20.5 19.8616c0-.3839.4147-.6246.748-.4341l5.4922 3.1384c.3359.1919.3359.6763 0 .8682l-5.4922 3.1384c-.3333.1905-.748-.0502-.748-.4341z"/><path fill="currentColor" fill-rule="evenodd" d="M32 23c0 4.9706-4.0295 9-9 9s-9-4.0294-9-9 4.0294-9 9-9 9 4.0295 9 9m-2 0c0 3.866-3.1341 7-7 7-3.866 0-7-3.134-7-7s3.134-7 7-7c3.8659 0 7 3.134 7 7" clip-rule="evenodd"/><path fill="currentColor" d="M26.201 6.858c.613.361.612 1.248 0 1.608l-9.73 5.721a.93.93 0 0 1-.942 0l-9.73-5.721c-.613-.36-.613-1.248 0-1.608l9.73-5.729a.93.93 0 0 1 .943 0zM14.568 29.066c0 .721-.781 1.169-1.402.804l-9.706-5.707A.933.933 0 0 1 3 23.359V11.917c0-.721.782-1.169 1.402-.804l9.706 5.707a.933.933 0 0 1 .46.804v2.222C14.201 20.828 14 21.89 14 23s.201 2.173.568 3.154zM29 16.292v-4.375c0-.721-.782-1.169-1.402-.804l-4.92 2.893A9 9 0 0 1 23 14c2.305 0 4.408.867 6 2.292"/></svg>