<svg xmlns="http://www.w3.org/2000/svg" fill="none" viewBox="0 0 32 32"><path fill="currentColor" d="M26.201 6.858c.613.361.612 1.248 0 1.608l-9.73 5.721a.93.93 0 0 1-.942 0l-9.73-5.721c-.613-.36-.613-1.248 0-1.608l9.73-5.729a.93.93 0 0 1 .943 0zM14.568 29.066c0 .721-.781 1.169-1.402.804l-9.706-5.707A.933.933 0 0 1 3 23.359V11.917c0-.721.782-1.169 1.402-.804l9.706 5.707a.933.933 0 0 1 .46.804zM17.432 29.066c0 .721.782 1.169 1.402.804l9.706-5.707A.933.933 0 0 0 29 23.359V11.917c0-.721-.782-1.169-1.402-.804l-9.706 5.707a.933.933 0 0 0-.46.804z"/></svg>