<svg xmlns="http://www.w3.org/2000/svg" fill="none" viewBox="0 0 32 32"><path fill="#ffc107" d="M29 16c0 7.1797-5.8203 13-13 13S3 23.1797 3 16 8.8203 3 16 3s13 5.8203 13 13"/><path stroke="#243143" stroke-opacity=".1" d="M16 3.5c6.9036 0 12.5 5.5964 12.5 12.5S22.9036 28.5 16 28.5 3.5 22.9036 3.5 16 9.0964 3.5 16 3.5Z"/><path fill="#243143" fill-opacity=".9" d="M16 9c-.828 0-1.5.672-1.5 1.5v6c0 .828.672 1.5 1.5 1.5s1.5-.672 1.5-1.5v-6c0-.828-.672-1.5-1.5-1.5M16 23c.828 0 1.5-.672 1.5-1.5S16.828 20 16 20s-1.5.672-1.5 1.5.672 1.5 1.5 1.5"/></svg>