<svg xmlns="http://www.w3.org/2000/svg" fill="none" viewBox="0 0 32 32"><path fill="currentColor" d="M27.3125 4.6875c-6.25-6.25-16.375-6.25-22.625 0s-6.25 16.375 0 22.625 16.375 6.25 22.625 0 6.25-16.375 0-22.625m1.7287 9.8612-6.8893-6.25-7.0488 6.6544-3.7 3.4813v-5.1875l5.6113-5.3325 4.1912-3.96a13.158 13.158 0 0 1 7.8369 10.5931zm-.125 3.7738a13.04 13.04 0 0 1-1.375 3.9288l-3.925-3.5801v-5.1875zM18.0069 3.025l-2.965 2.8019-3.6488 3.4606V3.71a13.144 13.144 0 0 1 6.6181-.6837zm-9.4838 15.5-5.4375-4.8819A13.04 13.04 0 0 1 4.5144 9.65l4.01 3.6zm0-13.3062v4.1675l-2.3356-2.092a13.17 13.17 0 0 1 2.335-2.073zM2.945 17.375l7.0475 6.3231L20.735 13.5875v5.1l-9.91 9.375a13.154 13.154 0 0 1-5.3872-4.2766A13.154 13.154 0 0 1 2.945 17.375M14.03 28.98l6.7075-6.3419v5.6038A13.05 13.05 0 0 1 16 29.125a13.25 13.25 0 0 1-1.9737-.1463zm9.58-2.2875v-4.1456l2.2875 2.0712a13.28 13.28 0 0 1-2.2806 2.0756z"/></svg>