<svg xmlns="http://www.w3.org/2000/svg" fill="none" viewBox="0 0 16 16"><path fill="currentColor" d="M15.8389 10.1218A3.98 3.98 0 0 0 16 9c0-1.541-.8791-2.9122-2.2098-3.578C13.0914 2.8477 10.7392 1 8 1S2.9086 2.8477 2.2098 5.422C.879 6.0878 0 7.459 0 9c0 1.7103 1.0832 3.2144 2.6708 3.7736.521.1834 1.092-.0901 1.2754-.611s-.09-1.092-.611-1.2754a2.0012 2.0012 0 0 1 .0463-3.79 1 1 0 0 0 .6767-.7815C4.3857 4.412 6.0455 3 8 3s3.6143 1.412 3.9419 3.3157a1 1 0 0 0 .6766.7815A2.001 2.001 0 0 1 14 9c0 .3601-.0978.703-.2711 1h1.3855c.2447 0 .4915.0374.7245.1218"/><path fill="currentColor" fill-rule="evenodd" d="M8.543 13c-.173.586-.036 1.234.41 1.721L9.978 16H5.5a.5.5 0 0 1-.5-.5v-2a.5.5 0 0 1 .5-.5zM7.5 15a.5.5 0 1 0 0-1 .5.5 0 0 0 0 1M9.176 12H5.5a.5.5 0 0 1-.5-.5v-2a.5.5 0 0 1 .5-.5h5a.5.5 0 0 1 .5.5v.639c-.278.11-.517.281-.719.489l-.033.034zM9.5 11a.5.5 0 1 0 0-1 .5.5 0 0 0 0 1M11.746 11c-.312 0-.548.119-.747.324l-1.291 1.611c-.318.328-.318.802 0 1.131l1.291 1.611c.198.205.435.324.747.324h3.368c.577 0 .885-.342.885-.833v-3.333c0-.491-.309-.833-.885-.833zM11.5 14a.5.5 0 1 0 0-1 .5.5 0 0 0 0 1" clip-rule="evenodd"/></svg>