<svg xmlns="http://www.w3.org/2000/svg" fill="none" viewBox="0 0 24 24"><path fill="currentColor" d="M19.9649 7.831C18.975 4.419 15.7392 2 12 2 8.603 2 5.5942 3.9993 4.3385 6.9767 2.324 7.9427 1 9.9427 1 12.1875c0 2.3426 1.4421 4.4221 3.6144 5.3347.5092.2139 1.0953-.0255 1.3093-.5346.2138-.5092-.0255-1.0954-.5347-1.3093C3.9452 15.0718 3 13.7087 3 12.1875c0-1.5563.9895-2.945 2.4834-3.5291a1 1 0 0 0 .5778-.5956C6.9187 5.6576 9.29 4 12 4c2.9894 0 5.5386 2.0141 6.1399 4.7653.0723.3305.3067.602.6231.7218C20.1064 9.9954 21 11.2347 21 12.625q-.0001.1896-.0223.375h1.5495c.1525 0 .3053.0085.4573.0259A5.2 5.2 0 0 0 23 12.625c0-2.0585-1.2032-3.8926-3.0351-4.794"/><path fill="currentColor" fill-rule="evenodd" d="M17 11.5v1.523c-.843.095-1.532.47-2.068.977H7.5a.5.5 0 0 1-.5-.5v-2a.5.5 0 0 1 .5-.5h9a.5.5 0 0 1 .5.5m-8 1a.5.5 0 1 1-1 0 .5.5 0 0 1 1 0m4.5.5a.5.5 0 1 0 0-1A.5.5 0 0 0 13.5 13m2.5-.5a.5.5 0 1 1-1 0A.5.5 0 0 1 16 12.5M14.124 15H7.5a.5.5 0 0 0-.5.5v2a.5.5 0 0 0 .5.5h4.476a3.57 3.57 0 0 1 .495-.768l.53-.715L13 16.5c0-.231.157-.426.371-.483zM9 16.5a.5.5 0 1 1-1 0 .5.5 0 0 1 1 0m2.5.5a.5.5 0 1 0 0-1A.5.5 0 0 0 11.5 17M7.5 19h4.173c-.139.964.126 1.971.798 2.768l.172.232H7.5a.5.5 0 0 1-.5-.5v-2a.5.5 0 0 1 .5-.5M9 20.5a.5.5 0 1 1-1 0 .5.5 0 0 1 1 0M16.181 15.582c.33-.369.723-.582 1.242-.582h5.104C23.487 15 24 15.616 24 16.5v6c0 .884-.513 1.5-1.473 1.5h-5.104c-.519 0-.912-.214-1.242-.582l-2.148-2.9c-.529-.591-.529-1.444 0-2.035zm1.737 3.937c0 .554-.449 1.003-1.003 1.003s-1.003-.449-1.003-1.003.449-1.003 1.003-1.003 1.003.449 1.003 1.003" clip-rule="evenodd"/></svg>