<svg xmlns="http://www.w3.org/2000/svg" fill="none" viewBox="0 0 32 32"><path fill="currentColor" d="M8 9c.552 0 1-.448 1-1s-.448-1-1-1-1 .448-1 1 .448 1 1 1M12 8c0 .552-.448 1-1 1s-1-.448-1-1 .448-1 1-1 1 .448 1 1M14 9c.552 0 1-.448 1-1s-.448-1-1-1-1 .448-1 1 .448 1 1 1M16 15c-.552 0-1 .448-1 1s.448 1 1 1h8c.552 0 1-.448 1-1s-.448-1-1-1zM15 20c0-.552.448-1 1-1h4c.552 0 1 .448 1 1s-.448 1-1 1h-4c-.552 0-1-.448-1-1M16 23c-.552 0-1 .448-1 1s.448 1 1 1h6c.552 0 1-.448 1-1s-.448-1-1-1zM6 16c0-.552.448-1 1-1h3c.552 0 1 .448 1 1s-.448 1-1 1H7c-.552 0-1-.448-1-1M7 19c-.552 0-1 .448-1 1s.448 1 1 1h3c.552 0 1-.448 1-1s-.448-1-1-1zM6 24c0-.552.448-1 1-1h3c.552 0 1 .448 1 1s-.448 1-1 1H7c-.552 0-1-.448-1-1"/><path fill="currentColor" fill-rule="evenodd" d="M3 27c0 1.1046.8954 2 2 2h22c1.1046 0 2-.8954 2-2V5c0-1.1046-.8954-2-2-2H5c-1.1046 0-2 .8954-2 2zM5 5h22v6H5zm9 8h13v14H14zm-2 0H5v14h7z" clip-rule="evenodd"/></svg>