<svg xmlns="http://www.w3.org/2000/svg" fill="none" viewBox="0 0 32 32"><path fill="currentColor" fill-rule="evenodd" d="M5.94 4h20.12A2.93 2.93 0 0 1 29 6.94V11H3V6.94a2.93 2.93 0 0 1 .858-2.082A2.93 2.93 0 0 1 5.94 4m-.273 4.747A1.5 1.5 0 1 0 7.333 6.253a1.5 1.5 0 0 0-1.666 2.495m5 0A1.5 1.5 0 0 0 13 7.5a1.5 1.5 0 0 0-.926-1.386 1.5 1.5 0 0 0-1.96 1.96c.114.274.306.508.553.673M3.221 27.187a2.93 2.93 0 0 1-.221-1.127V13H29v13.06a2.93 2.93 0 0 1-.858 2.082A2.93 2.93 0 0 1 26.06 29H5.94a2.93 2.93 0 0 1-2.719-1.813M26 16H15v2h11zm0 4H15v2h11zm0 4H15v2h11zm-14-8H6v10h6z" clip-rule="evenodd"/></svg>