<svg xmlns="http://www.w3.org/2000/svg" fill="none" viewBox="0 0 16 16"><path fill="currentColor" d="M3.5 4a.5.5 0 1 1 0-1 .5.5 0 0 1 0 1M5 3.5a.5.5 0 1 0 1 0 .5.5 0 0 0-1 0M7.5 4a.5.5 0 1 1 0-1 .5.5 0 0 1 0 1M5 8.5a.5.5 0 0 0-.5-.5h-1a.5.5 0 0 0 0 1h1a.5.5 0 0 0 .5-.5M4.5 10a.5.5 0 0 1 0 1h-1a.5.5 0 0 1 0-1zM5 12.5a.5.5 0 0 0-.5-.5h-1a.5.5 0 0 0 0 1h1a.5.5 0 0 0 .5-.5M9.5 8h3a.5.5 0 0 1 0 1h-3a.5.5 0 0 1 0-1M9.5 10h1a.5.5 0 0 1 0 1h-1a.5.5 0 0 1 0-1M13 12.5a.5.5 0 0 0-.5-.5h-3a.5.5 0 0 0 0 1h3a.5.5 0 0 0 .5-.5"/><path fill="currentColor" fill-rule="evenodd" d="M1 0h14c.5523 0 1 .4477 1 1v14c0 .5523-.4477 1-1 1H1c-.5523 0-1-.4477-1-1V1c0-.5523.4477-1 1-1m1 2v3h12V2zm0 12V7h4v7zm12-7H8v7h6z" clip-rule="evenodd"/></svg>