<svg xmlns="http://www.w3.org/2000/svg" fill="none" viewBox="0 0 72 72"><path fill="#595551" fill-rule="evenodd" d="M0 8.25C0 7.0074 1.0074 6 2.25 6h67.5C70.9926 6 72 7.0074 72 8.25v47.5c0 1.2426-1.0074 2.25-2.25 2.25H45v4h6c.5523 0 1 .4477 1 1v2c0 .5523-.4477 1-1 1H21c-.5523 0-1-.4477-1-1v-2c0-.5523.4477-1 1-1h6v-4H2.25C1.0074 58 0 56.9926 0 55.75zM30 58h12v1c0 .5523-.4477 1-1 1H31c-.5523 0-1-.4477-1-1z" clip-rule="evenodd"/><path fill="#fff" d="M2.25 6C1.0074 6 0 7.0074 0 8.25v1C0 8.0074 1.0074 7 2.25 7h67.5C70.9926 7 72 8.0074 72 9.25v-1C72 7.0074 70.9926 6 69.75 6z" opacity=".2"/><path fill="#000" fill-opacity=".2" d="M0 54.75v1C0 56.9926 1.0074 58 2.25 58h67.5c1.2426 0 2.25-1.0074 2.25-2.25v-1c0 1.2426-1.0074 2.25-2.25 2.25H2.25C1.0074 57 0 55.9926 0 54.75"/><path fill="#000" fill-opacity=".2" d="M0 53.75v2C0 56.993 1.007 58 2.25 58h67.5c1.243 0 2.25-1.007 2.25-2.25v-2c0 1.243-1.007 2.25-2.25 2.25H2.25C1.007 56 0 54.993 0 53.75M20 64v1c0 .552.448 1 1 1h30c.552 0 1-.448 1-1v-1c0 .552-.448 1-1 1H21c-.552 0-1-.448-1-1"/><path fill="#000" fill-opacity=".2" d="M20 63v2c0 .5523.4477 1 1 1h30c.5523 0 1-.4477 1-1v-2c0 .5523-.4477 1-1 1H21c-.5523 0-1-.4477-1-1"/><path fill="#fff" fill-opacity=".2" d="M21 62c-.5523 0-1 .4477-1 1v1c0-.5523.4477-1 1-1h30c.5523 0 1 .4477 1 1v-1c0-.5523-.4477-1-1-1z"/><path fill="#000" fill-opacity=".2" d="M27 61h18v1H27z"/><path fill="url(#workstation-ill--72-a)" fill-opacity=".2" d="M3 51h66v2H3z"/><path fill="#fff" fill-opacity=".1" d="M3 51h66v1H3z"/><path fill="#85c457" d="M65 54.5a.5.5 0 0 1 .5-.5h3a.5.5 0 0 1 0 1h-3a.5.5 0 0 1-.5-.5"/><path fill="#000" fill-opacity=".3" d="M3.5 54a.5.5 0 0 0 0 1h3a.5.5 0 0 0 0-1zM47 54.5a.5.5 0 0 1 .5-.5h3a.5.5 0 0 1 0 1h-3a.5.5 0 0 1-.5-.5M53.5 54a.5.5 0 0 0 0 1h3a.5.5 0 0 0 0-1zM59.5 54a.5.5 0 0 0 0 1h3a.5.5 0 0 0 0-1z"/><path fill="url(#workstation-ill--72-b)" d="M3 9h66v42H3z"/><path fill="url(#workstation-ill--72-c)" d="M20 9h49v42H44z" opacity=".6"/><path fill="url(#workstation-ill--72-d)" fill-opacity=".3" d="M37 9h32v23H51.1224z"/><path fill="url(#workstation-ill--72-e)" d="M3 9h66v1H3z" opacity=".7"/><defs><linearGradient id="workstation-ill--72-a" x1="36" x2="36" y1="51" y2="53" gradientUnits="userSpaceOnUse"><stop stop-color="#fff"/><stop offset="1" stop-color="#fff" stop-opacity="0"/></linearGradient><linearGradient id="workstation-ill--72-b" x1="4" x2="69" y1="51" y2="9" gradientUnits="userSpaceOnUse"><stop stop-color="#43aef4"/><stop offset="1" stop-color="#63c2f9"/></linearGradient><linearGradient id="workstation-ill--72-c" x1="32" x2="32" y1="9" y2="51" gradientUnits="userSpaceOnUse"><stop stop-color="#7fd5fa"/><stop offset="1" stop-color="#50b6f6"/></linearGradient><linearGradient id="workstation-ill--72-d" x1="44.5" x2="44.5" y1="9" y2="32" gradientUnits="userSpaceOnUse"><stop stop-color="#fff"/><stop offset="1" stop-color="#fff" stop-opacity="0"/></linearGradient><linearGradient id="workstation-ill--72-e" x1="3" x2="69" y1="10" y2="10" gradientUnits="userSpaceOnUse"><stop stop-color="#359df3"/><stop offset="1" stop-color="#379ff3"/></linearGradient></defs></svg>