<svg xmlns="http://www.w3.org/2000/svg" fill="none" viewBox="0 0 24 24"><path fill="currentColor" fill-rule="evenodd" d="M18 24c3.3137 0 6-2.6863 6-6s-2.6863-6-6-6-6 2.6863-6 6 2.6863 6 6 6m1-8.5c0-.2761.2451-.5.5-.5h1.0385c.2549 0 .4615.2239.4615.5v5c0 .2761-.2066.5-.4615.5h-5.077c-.2549 0-.4615-.2239-.4615-.5v-5c0-.2761.2066-.5.4615-.5H16.5c.2549 0 .5.2239.5.5v2h2z" clip-rule="evenodd"/><path fill="currentColor" d="M1.5 3.75c0-.828.672-1.5 1.5-1.5h18c.828 0 1.5.672 1.5 1.5v7.635C21.218 10.511 19.669 10 18 10c-3.063 0-5.724 1.722-7.068 4.25H1.5zM10.321 15.75H1.5v1.5c0 .828.672 1.5 1.5 1.5h6l-.633 2.534a.375.375 0 0 0 .364.466h2.201C10.337 20.632 10 19.355 10 18c0-.781.112-1.536.321-2.25M13.316 21.75A5.974 5.974 0 0 1 12 18a5.98 5.98 0 0 1 .436-2.25H15v4.75c0 .276.207.5.462.5h.101l.071.284a.375.375 0 0 1-.364.466z"/><path fill="currentColor" d="M22.5 14.031v.219h-9.184C14.416 12.878 16.105 12 18 12c1.792 0 3.401.786 4.5 2.031M21 18.75c.828 0 1.5-.672 1.5-1.5v-1.5H21zM19 15.75h-2v1.75h2z"/></svg>