<svg xmlns="http://www.w3.org/2000/svg" fill="none" viewBox="0 0 24 24"><path fill="currentColor" fill-rule="evenodd" d="M11 18H3.5033C2.673 18 2 17.3361 2 16.5069V3.4931C2 2.6685 2.6654 2 3.5033 2h16.9934C21.3269 2 22 2.6639 22 3.493V13h-4.5768c-1.0387 0-1.868.4106-2.4908 1H4v2h9.383l-.9124 1.232c-1.1119 1.3203-1.1119 3.2157 0 4.5359l.1718.2321H8.997A.996.996 0 0 1 8 21c0-.5523.453-1 .997-1H11zm9-14v8H4V4z" clip-rule="evenodd"/><path fill="currentColor" fill-rule="evenodd" d="M16.1811 15.5823c.33-.3687.7233-.5823 1.2421-.5823h5.104C23.4866 15 24 15.6164 24 16.5v6c0 .8837-.5134 1.5-1.4728 1.5h-5.104c-.5188 0-.9121-.2136-1.2421-.5824l-2.1477-2.9c-.5289-.5909-.5289-1.4443 0-2.0353zm1.7374 3.9369c0 .5538-.4489 1.0027-1.0027 1.0027s-1.0027-.4489-1.0027-1.0027.4489-1.0027 1.0027-1.0027 1.0027.4489 1.0027 1.0027" clip-rule="evenodd"/></svg>