<svg xmlns="http://www.w3.org/2000/svg" fill="none" viewBox="0 0 16 16"><path fill="currentColor" d="M9.5016 6.9996c.5522 0 .9998.448 1 1 0 .5523-.4477 1-1 1-.5522-.0001-1-.4478-1-1 .0003-.552.448-.9999 1-1"/><path fill="currentColor" fill-rule="evenodd" d="M14.1032 1.9898c.3905-.3904 1.0235-.3905 1.414 0s.3905 1.0236 0 1.4141l-1.124 1.123a5.97 5.97 0 0 1 1.1084 3.4727c0 1.2962-.4125 2.4956-1.1113 3.4766l1.123 1.124c.3906.3905.3906 1.0235 0 1.4141-.3905.3902-1.0236.3904-1.414 0l-1.124-1.1241c-.9805.6977-2.1786 1.1094-3.4737 1.1094a5.97 5.97 0 0 1-3.4726-1.1084l-1.1182 1.1191c-.3905.3905-1.0235.3905-1.414 0-.3906-.3905-.3906-1.0235 0-1.414l1.1171-1.1182a5.972 5.972 0 0 1-1.1123-3.4785c.0001-1.295.4117-2.4932 1.1094-3.4736L3.4928 3.4078c-.3904-.3904-.3902-1.0235 0-1.414.3906-.3906 1.0236-.3906 1.414 0l1.1183 1.1171a5.97 5.97 0 0 1 3.4765-1.1113c1.2968 0 2.4963.4139 3.4776 1.1133zM9.5016 3.9996a3.98 3.98 0 0 0-2.0332.5547l.2676.2676c.3901.3904.3902 1.0236 0 1.414-.3905.3906-1.0245.3906-1.415 0l-.2657-.2656a3.98 3.98 0 0 0-.5537 2.0293c0 .7428.2039 1.4381.5567 2.0342l.2666-.2656c.3905-.3906 1.0235-.3906 1.414 0s.3905 1.0235 0 1.414l-.2656.2647a3.98 3.98 0 0 0 2.0283.5527c.741 0 1.4342-.2025 2.0293-.5537l-.2598-.2598c-.3905-.3905-.3905-1.0245 0-1.415.3905-.3902 1.0236-.3902 1.4141 0l.2608.2607a3.98 3.98 0 0 0 .5556-2.0322 3.98 3.98 0 0 0-.5527-2.0283l-.2598.2607c-.3905.3905-1.0235.3905-1.414 0-.3906-.3905-.3906-1.0235 0-1.414l.2607-.2618a3.98 3.98 0 0 0-2.0342-.5566" clip-rule="evenodd"/><path fill="currentColor" d="M2.801 9.75a.751.751 0 0 1 .75.75.75.75 0 0 1-.75.75h-1.5a.75.75 0 0 1 0-1.5zM2.301 7.25a.751.751 0 0 1 .75.75c0 .414-.336.75-.75.75h-1.5a.75.75 0 1 1 0-1.5zM2.801 4.75a.751.751 0 0 1 .75.75c0 .414-.336.75-.75.75h-1.5a.75.75 0 1 1 0-1.5z"/></svg>