<svg xmlns="http://www.w3.org/2000/svg" fill="none" viewBox="0 0 24 24"><path fill="currentColor" d="M21.5 16a.5.5 0 0 1 .5.5v1.319a.5.5 0 0 1-.1159.3201L19.5 21h2a.5.5 0 0 1 .5.5v1a.5.5 0 0 1-.5.5h-4a.5.5 0 0 1-.5-.5v-1.319c0-.1169.041-.2302.1159-.3201L19.5 18h-2a.5.5 0 0 1-.5-.5v-1a.5.5 0 0 1 .5-.5zM3 2h16c.5128 0 .9355.386.9933.8834L20 3v9c0 .5523-.4477 1-1 1-.5128 0-.9355-.386-.9933-.8834L18 12V4H4v17h9c.5523 0 1 .4477 1 1 0 .5128-.386.9355-.8834.9933L13 23H3c-.5128 0-.9355-.386-.9933-.8834L2 22V3c0-.5128.386-.9355.8834-.9933zm5 15c.5523 0 1 .4477 1 1s-.4477 1-1 1H7c-.5523 0-1-.4477-1-1s.4477-1 1-1zm4-4c.5523 0 1 .4477 1 1s-.4477 1-1 1H7c-.5523 0-1-.4477-1-1s.4477-1 1-1zm2-3c.5523 0 1 .4477 1 1s-.4477 1-1 1H7c-.5523 0-1-.4477-1-1s.4477-1 1-1zM9 6c.5523 0 1 .4477 1 1s-.4477 1-1 1H7c-.5523 0-1-.4477-1-1s.4477-1 1-1z"/></svg>