<svg width="24" height="24" viewBox="0 0 24 24" fill="none" xmlns="http://www.w3.org/2000/svg">
<path d="M15.8718 2.92317L13.9382 10.2083C13.9213 10.2717 13.9692 10.3339 14.0348 10.3339H18.3318C18.5141 10.3339 18.6914 10.3934 18.8366 10.5034C19.2038 10.7816 19.2756 11.3041 18.9968 11.6706L9.62318 21.6706C9.44596 21.9036 9.15928 22.0267 8.86788 21.9951C8.40952 21.9453 8.07838 21.5342 8.12826 21.0768L10.0619 13.7917C10.0788 13.7283 10.0309 13.6661 9.96527 13.6661H5.66825C5.48598 13.6661 5.30872 13.6066 5.16353 13.4966C4.79627 13.2184 4.72452 12.6959 5.00327 12.3294L14.3769 2.32941C14.5541 2.09643 14.8408 1.97326 15.1322 2.0049C15.5906 2.05467 15.9217 2.4658 15.8718 2.92317Z" stroke="#1763CF" stroke-width="2"/>
</svg>
