<svg width="24" height="24" viewBox="0 0 24 24" fill="none" xmlns="http://www.w3.org/2000/svg">
<path d="M16.4444 6.47059V4.23529C16.4444 3.64246 16.2103 3.0739 15.7936 2.6547C15.3768 2.2355 14.8116 2 14.2222 2H9.77778C9.18841 2 8.62318 2.2355 8.20643 2.6547C7.78968 3.0739 7.55556 3.64246 7.55556 4.23529V6.47059M22 10.3824C18.7031 12.5718 15.9506 13.739 12 13.739C8.04939 13.739 5.2969 12.5718 2 10.3824M4.22222 6.47059H19.7778C21.0051 6.47059 22 7.47136 22 8.70588V18.7647C22 19.9992 21.0051 21 19.7778 21H4.22222C2.99492 21 2 19.9992 2 18.7647V8.70588C2 7.47136 2.99492 6.47059 4.22222 6.47059Z" stroke="#1763CF" stroke-width="2" stroke-linecap="round" stroke-linejoin="round"/>
</svg>
