<svg width="24" height="24" viewBox="0 0 24 24" fill="none" xmlns="http://www.w3.org/2000/svg">
<path d="M19.7902 16.2921C18.4248 19.5824 15.2133 21.9248 11.4258 21.9982C6.31998 22.0972 2.1007 18.0355 2.00177 12.9262C1.92479 8.95062 4.36514 5.51215 7.85729 4.13529M21.2746 7.99884C21.6909 9.0044 21.9353 10.0714 21.9991 11.1552C22.0176 11.4711 21.7595 11.7279 21.4433 11.7279H12.8507C12.5345 11.7279 12.2781 11.4714 12.2781 11.1549V2.55641C12.2781 2.23996 12.5347 1.98166 12.8504 2.00026C13.9335 2.06406 14.9997 2.30865 16.0046 2.72517C17.186 3.21488 18.2595 3.93265 19.1638 4.83751C20.068 5.74237 20.7853 6.81659 21.2746 7.99884Z" stroke="#1763CF" stroke-width="2" stroke-linecap="round"/>
</svg>
