<svg width="24" height="24" viewBox="0 0 24 24" fill="none" xmlns="http://www.w3.org/2000/svg">
<path d="M20.3532 8.89795L19.9868 8.69266C19.9299 8.66078 19.902 8.64478 19.8745 8.6282C19.6013 8.46336 19.371 8.23561 19.203 7.96313C19.1861 7.93571 19.1701 7.90696 19.1376 7.85013L19.1375 7.84999C19.105 7.79333 19.0885 7.7646 19.0734 7.73615C18.9226 7.45267 18.8411 7.13676 18.8362 6.81522C18.8357 6.78289 18.8359 6.74986 18.837 6.6842L18.8441 6.25567V6.25565C18.8556 5.56991 18.8613 5.22598 18.7656 4.91731C18.6807 4.64314 18.5385 4.39061 18.3486 4.1763C18.134 3.93406 17.837 3.76123 17.2423 3.41602L16.7483 3.12928C16.1552 2.78503 15.8585 2.61285 15.5437 2.54721C15.2651 2.48914 14.9777 2.49183 14.7001 2.55459C14.3869 2.62542 14.0939 2.80209 13.5084 3.15523L13.5051 3.15683L13.1512 3.37032C13.0952 3.40408 13.0669 3.42109 13.0388 3.4368C12.7604 3.59271 12.4496 3.67892 12.1313 3.68921C12.0992 3.69025 12.0666 3.69025 12.0013 3.69025C11.9364 3.69025 11.9024 3.69025 11.8704 3.68921C11.5513 3.67887 11.2399 3.5922 10.9611 3.43564C10.933 3.41987 10.9052 3.40271 10.8491 3.3688L10.4929 3.15339C9.90339 2.79691 9.6082 2.6184 9.29321 2.54721C9.01453 2.48423 8.72608 2.48248 8.44651 2.5413C8.13084 2.60772 7.83413 2.78118 7.24072 3.1281L7.23808 3.12928L6.75022 3.41449L6.74482 3.41781C6.15675 3.76161 5.86201 3.93392 5.64921 4.17518C5.46038 4.38927 5.31923 4.64141 5.23475 4.91485C5.13926 5.22394 5.14435 5.56862 5.15585 6.2576L5.163 6.68552C5.16408 6.75032 5.16596 6.78252 5.16549 6.81439C5.16076 7.13659 5.07815 7.45315 4.92698 7.73714C4.91203 7.76522 4.89592 7.79331 4.86375 7.8494L4.86375 7.84941C4.83155 7.90555 4.81596 7.93346 4.79927 7.96056C4.63048 8.23449 4.39917 8.46357 4.12425 8.62869C4.09706 8.64503 4.0684 8.66073 4.01209 8.69217L3.65039 8.89407C3.04858 9.23 2.74775 9.39811 2.52886 9.63735C2.33521 9.84899 2.18892 10.1 2.09962 10.3734C1.99868 10.6825 1.99877 11.029 2.00033 11.7221L2.00161 12.2885C2.00316 12.9769 2.00529 13.3209 2.10645 13.6279C2.19596 13.8994 2.34118 14.149 2.53374 14.3594C2.7514 14.5971 3.04924 14.7642 3.64648 15.0989L4.00496 15.2998C4.06597 15.3339 4.09667 15.3508 4.12609 15.3687C4.39851 15.5339 4.62801 15.7624 4.79536 16.0347C4.81344 16.0641 4.8308 16.0947 4.8655 16.1558C4.89978 16.2161 4.91732 16.2462 4.93317 16.2765C5.0799 16.5563 5.15846 16.8672 5.16382 17.1836C5.1644 17.2178 5.1639 17.2524 5.16274 17.3219L5.15585 17.7325C5.14427 18.4239 5.13922 18.7699 5.23527 19.0799C5.32025 19.3541 5.46228 19.6066 5.65214 19.8209C5.86675 20.0632 6.16426 20.2359 6.75902 20.5811L7.25291 20.8678C7.846 21.212 8.14243 21.384 8.45729 21.4496C8.73585 21.5077 9.02347 21.5054 9.30102 21.4427C9.61471 21.3717 9.90863 21.1945 10.4958 20.8404L10.4958 20.8403L10.8498 20.6268C10.9058 20.5931 10.9341 20.5761 10.9622 20.5604C11.2406 20.4045 11.551 20.3179 11.8694 20.3076C11.9015 20.3065 11.9341 20.3065 11.9994 20.3065C12.0648 20.3065 12.0974 20.3065 12.1296 20.3076C12.4486 20.3179 12.761 20.4048 13.0398 20.5614C13.0642 20.5751 13.0888 20.59 13.1317 20.6159L13.1321 20.6162L13.5083 20.8437C14.0979 21.2003 14.3925 21.3782 14.7075 21.4494C14.9862 21.5124 15.2749 21.515 15.5544 21.4562C15.87 21.3898 16.1673 21.216 16.7604 20.8692L16.7604 20.8692L17.2556 20.5797C17.844 20.2357 18.1391 20.0632 18.352 19.8219C18.5408 19.6078 18.6821 19.3558 18.7666 19.0823C18.8614 18.7755 18.8557 18.4334 18.8444 17.7544L18.837 17.3115C18.8359 17.2467 18.8358 17.2145 18.8362 17.1826C18.841 16.8604 18.9222 16.5437 19.0734 16.2597C19.0883 16.2316 19.1045 16.2033 19.1366 16.1474C19.1688 16.0913 19.1855 16.0633 19.2022 16.0362C19.3709 15.7623 19.6025 15.533 19.8774 15.3679C19.9042 15.3517 19.9319 15.3363 19.9867 15.3057L19.9869 15.3056L19.9888 15.3047L20.3505 15.1028C20.9523 14.7669 21.2537 14.5986 21.4726 14.3594C21.6662 14.1477 21.8123 13.897 21.9016 13.6236C22.002 13.3164 22.0012 12.9719 21.9996 12.287V12.2869L21.9983 11.7083C21.9968 11.0199 21.996 10.676 21.8948 10.369C21.8053 10.0974 21.6593 9.84787 21.4667 9.63751C21.2492 9.39995 20.951 9.23283 20.3549 8.89881L20.3532 8.89795Z" stroke="#1763CF" stroke-width="2" stroke-linecap="round" stroke-linejoin="round"/>
</svg>
