<svg width="24" height="24" viewBox="0 0 24 24" fill="none" xmlns="http://www.w3.org/2000/svg">
<path d="M4 4.66667V19.3333C4 20.0406 4.84285 20.7189 6.34315 21.219C6.97775 21.4305 7.70799 21.6028 8.5 21.7313M4 4.66667C4 6.13943 7.58172 7.33333 12 7.33333C12.5916 7.33333 13.1683 7.31193 13.7233 7.27131M4 4.66667C4 3.19391 7.58172 2 12 2C16.4183 2 20 3.19391 20 4.66667C20 5.13542 19.6372 5.57592 19 5.95867M4 12C4 12.7073 4.84285 13.3855 6.34315 13.8856C6.97775 14.0972 7.70799 14.2695 8.5 14.3979M17.5 10.5V22.5M22.5 13.5L12.5 19.5M12.5 13.5L22.5 19.5" stroke="#1763CF" stroke-width="2" stroke-linecap="round" stroke-linejoin="round"/>
</svg>
