<svg width="24" height="24" viewBox="0 0 24 24" fill="none" xmlns="http://www.w3.org/2000/svg">
<path d="M4 4.66667V19.3333C4 20.0406 4.84285 20.7189 6.34315 21.219C7.10925 21.4743 8.01474 21.6726 9 21.8054M4 4.66667C4 6.13943 7.58172 7.33333 12 7.33333M4 4.66667C4 3.19391 7.58172 2 12 2C16.4183 2 20 3.19391 20 4.66667C20 5.05376 19.7526 5.4216 19.3076 5.75355M4 12C4 12.7073 4.84285 13.3855 6.34315 13.8856C7.10925 14.141 8.01474 14.3392 9 14.4721" stroke="#1763CF" stroke-width="2" stroke-linecap="round" stroke-linejoin="round"/>
<path d="M21 14C20 13 18.5 12.5 17.5 9.5C16.5 9.5 13.5 12 15.9 14.6C16.1231 14.8118 16.2943 15.0721 16.4004 15.3608C16.5064 15.6495 16.5445 15.9588 16.5115 16.2646C16.4786 16.5704 16.3756 16.8645 16.2105 17.124C16.0454 17.3835 15.8227 17.6015 15.5596 17.7609C15.2966 17.9203 15.0003 18.0169 14.6939 18.0432C14.3874 18.0695 14.0791 18.0247 13.7927 17.9124C13.5064 17.8001 13.2498 17.6232 13.0429 17.3956C12.8361 17.168 12.6845 16.8957 12.6 16.6C12.5 16.9 12.5 17.2 12.5 17.5C12.5 18.8261 13.0268 20.0979 13.9645 21.0355C14.9021 21.9732 16.1739 22.5 17.5 22.5C18.8261 22.5 20.0979 21.9732 21.0355 21.0355C21.9732 20.0979 22.5 18.8261 22.5 17.5C22.4812 16.1812 21.9421 14.9232 21 14Z" stroke="#1763CF" stroke-width="2" stroke-linecap="round" stroke-linejoin="round"/>
</svg>
