<svg width="24" height="24" viewBox="0 0 24 24" fill="none" xmlns="http://www.w3.org/2000/svg">
<path d="M4 4.66667V19.3333C4 20.0406 4.84285 20.7189 6.34315 21.219C7.84344 21.7191 9.87827 22 12 22C14.1217 22 16.1566 21.7191 17.6569 21.219C19.1571 20.7189 20 20.0406 20 19.3333V4.66667M4 4.66667C4 6.13943 7.58172 7.33333 12 7.33333C16.4183 7.33333 20 6.13943 20 4.66667M4 4.66667C4 3.19391 7.58172 2 12 2C16.4183 2 20 3.19391 20 4.66667M4 12C4 12.7073 4.84285 13.3855 6.34315 13.8856C7.84344 14.3857 9.87827 14.6667 12 14.6667C14.1217 14.6667 16.1566 14.3857 17.6569 13.8856C19.1571 13.3855 20 12.7073 20 12" stroke="#1763CF" stroke-width="2" stroke-linecap="round" stroke-linejoin="round"/>
</svg>
