<svg width="24" height="24" viewBox="0 0 24 24" fill="none" xmlns="http://www.w3.org/2000/svg">
<path d="M11.5933 4.02262L12.5541 3.74545L12.54 3.69656L12.521 3.64935L11.5933 4.02262ZM12.6125 7.55568L11.6516 7.83285L11.6657 7.88174L11.6847 7.92895L12.6125 7.55568ZM21 10C21 10.5523 21.4477 11 22 11C22.5523 11 23 10.5523 23 10H22H21ZM9 21C9.55228 21 10 20.5523 10 20C10 19.4477 9.55228 19 9 19V20V21ZM21.2929 22.7071C21.6834 23.0976 22.3166 23.0976 22.7071 22.7071C23.0976 22.3166 23.0976 21.6834 22.7071 21.2929L22 22L21.2929 22.7071ZM10.0739 3V4C10.3376 4 10.5704 4.15947 10.6655 4.39589L11.5933 4.02262L12.521 3.64935C12.1191 2.65051 11.1485 2 10.0739 2V3ZM11.5933 4.02262L10.6325 4.29979L11.6516 7.83285L12.6125 7.55568L13.5733 7.27851L12.5541 3.74545L11.5933 4.02262ZM12.6125 7.55568L11.6847 7.92895C11.9624 8.61897 12.6321 9.06699 13.3721 9.06699V8.06699V7.06699C13.443 7.06699 13.511 7.11001 13.5402 7.1824L12.6125 7.55568ZM13.3721 8.06699V9.06699H20.3636V8.06699V7.06699H13.3721V8.06699ZM20.3636 8.06699V9.06699C20.7206 9.06699 21 9.35313 21 9.69378H22H23C23 8.23752 21.8141 7.06699 20.3636 7.06699V8.06699ZM3.63636 20V19C3.27937 19 3 18.7139 3 18.3732H2H1C1 19.8295 2.18588 21 3.63636 21V20ZM2 18.3732H3V4.62679H2H1V18.3732H2ZM2 4.62679H3C3 4.28615 3.27937 4 3.63636 4V3V2C2.18588 2 1 3.17053 1 4.62679H2ZM3.63636 3V4H10.0739V3V2H3.63636V3ZM22 9.69378H21V10H22H23V9.69378H22ZM9 20V19H3.63636V20V21H9V20ZM20.8266 16.7195H19.8266C19.8266 18.4355 18.4355 19.8266 16.7195 19.8266V20.8266V21.8266C19.54 21.8266 21.8266 19.54 21.8266 16.7195H20.8266ZM16.7195 20.8266V19.8266C15.0035 19.8266 13.6124 18.4355 13.6124 16.7195H12.6124H11.6124C11.6124 19.54 13.8989 21.8266 16.7195 21.8266V20.8266ZM12.6124 16.7195H13.6124C13.6124 15.0035 15.0035 13.6124 16.7195 13.6124V12.6124V11.6124C13.8989 11.6124 11.6124 13.8989 11.6124 16.7195H12.6124ZM16.7195 12.6124V13.6124C18.4355 13.6124 19.8266 15.0035 19.8266 16.7195H20.8266H21.8266C21.8266 13.8989 19.54 11.6124 16.7195 11.6124V12.6124ZM22 22L22.7071 21.2929L20.9469 19.5327L20.2398 20.2398L19.5327 20.9469L21.2929 22.7071L22 22Z" fill="#1763CF"/>
</svg>
