<svg width="24" height="24" viewBox="0 0 24 24" fill="none" xmlns="http://www.w3.org/2000/svg">
<path d="M6.00001 10.1688V18C6.00001 18.7957 6.63215 19.5587 7.75737 20.1213C8.88259 20.6839 10.4087 21 12 21C13.5913 21 15.1174 20.6839 16.2427 20.1213C17.3679 19.5587 18 18.7957 18 18L17.9911 10.1688M2 7.5L2.00001 15M21.4037 8.42162C21.5827 8.34265 21.7346 8.21289 21.8406 8.04843C21.9466 7.88396 22.002 7.69201 22 7.49636C21.998 7.30071 21.9386 7.10995 21.8292 6.94771C21.7199 6.78547 21.5653 6.65888 21.3847 6.58362L12.8137 2.17962C12.5531 2.06077 12.2701 1.99927 11.9837 1.99927C11.6973 1.99927 11.4142 2.06077 11.1537 2.17962L2.58368 6.57962C2.40565 6.6576 2.2542 6.78576 2.14785 6.94844C2.0415 7.11112 1.98486 7.30127 1.98486 7.49562C1.98486 7.68998 2.0415 7.88013 2.14785 8.04281C2.2542 8.20549 2.40565 8.33365 2.58368 8.41162L11.1537 12.8196C11.4142 12.9385 11.6973 13 11.9837 13C12.2701 13 12.5531 12.9385 12.8137 12.8196L21.4037 8.42162Z" stroke="#1763CF" stroke-width="2" stroke-linecap="round" stroke-linejoin="round"/>
</svg>
