<svg width="24" height="24" viewBox="0 0 24 24" fill="none" xmlns="http://www.w3.org/2000/svg">
<path d="M3 15.037C3 14.4643 3.4643 14 4.03704 14H8.96296C9.5357 14 10 14.4643 10 15.037V19.963C10 20.5357 9.5357 21 8.96296 21H4.03704C3.4643 21 3 20.5357 3 19.963V15.037Z" stroke="#1763CF" stroke-width="2"/>
<path d="M14 15.037C14 14.4643 14.4643 14 15.037 14H19.963C20.5357 14 21 14.4643 21 15.037V19.963C21 20.5357 20.5357 21 19.963 21H15.037C14.4643 21 14 20.5357 14 19.963V15.037Z" stroke="#1763CF" stroke-width="2"/>
<path d="M14 4.03704C14 3.4643 14.4643 3 15.037 3H19.963C20.5357 3 21 3.4643 21 4.03704V8.96296C21 9.5357 20.5357 10 19.963 10H15.037C14.4643 10 14 9.5357 14 8.96296V4.03704Z" stroke="#1763CF" stroke-width="2"/>
<path d="M3 4.03704C3 3.4643 3.4643 3 4.03704 3H8.96296C9.5357 3 10 3.4643 10 4.03704V8.96296C10 9.5357 9.5357 10 8.96296 10H4.03704C3.4643 10 3 9.5357 3 8.96296L3 4.03704Z" stroke="#1763CF" stroke-width="2"/>
</svg>
