<svg width="24" height="24" viewBox="0 0 24 24" fill="none" xmlns="http://www.w3.org/2000/svg">
<path d="M11 22.0002C9 22.0002 7 21.5002 7 18.0012V10.0012C6.64616 10.0012 6.00001 10.0012 6.00001 10.0012C5.6635 10.001 5.00001 10.0001 5.00001 10.0001C3.00001 10.0001 2 11.8366 2 13.5001V14.5001C2 17.5001 4.00001 18.0012 7 18.0012M6.00001 10.0012C6.00001 4.96601 8.00001 2.00006 12 2.00006C16 2.00006 18 4.96555 18 10.0008L19 10.0001M19 10.0001C21 10.0001 22 11.5618 22 13.5001V14.5001C22 17.5005 20 18.0001 17 18.0012V10.0012C17.759 10.0012 19 10.0001 19 10.0001Z" stroke="#1763CF" stroke-width="2" stroke-linecap="round" stroke-linejoin="round"/>
</svg>
