<svg width="24" height="24" viewBox="0 0 24 24" fill="none" xmlns="http://www.w3.org/2000/svg">
<path d="M9 13.9985V5.99854M9 13.9985H4M9 13.9985L16.1056 17.5513C17.4354 18.2162 19 17.2492 19 15.7625V12.0512M9 5.99854H3.5C2.67157 5.99854 2 6.67011 2 7.49854V12.4985C2 13.327 2.67157 13.9985 3.5 13.9985H4M9 5.99854L16.1056 2.44575C17.4354 1.78085 19 2.74784 19 4.2346V6.99854M19 6.99854H19.9812C21.3723 6.99854 22.5 8.12624 22.5 9.51733C22.5 10.8937 21.3952 12.0151 20.0191 12.0358L19 12.0512M19 6.99854V12.0512M4 13.9985V19.4985C4 20.8792 5.11929 21.9985 6.5 21.9985C7.88071 21.9985 9 20.8792 9 19.4985V18.9985" stroke="#1763CF" stroke-width="2" stroke-linecap="round"/>
</svg>
