<svg width="24" height="24" viewBox="0 0 24 24" fill="none" xmlns="http://www.w3.org/2000/svg">
<path d="M6.0017 13.5C6.15555 13.5002 6.28868 13.5956 6.34235 13.7316L6.36024 13.7921V13.7938C6.74801 15.7265 8.26834 17.2494 10.1985 17.6415C10.2012 17.6419 10.2044 17.6418 10.207 17.6423C10.3743 17.677 10.5 17.8251 10.5 18.0009C10.4998 18.1765 10.3742 18.3239 10.207 18.3585C8.27143 18.7481 6.74554 20.2723 6.35598 22.2062C6.32152 22.3735 6.17319 22.4998 5.99744 22.5C5.82164 22.4999 5.67426 22.3744 5.63976 22.207L5.63891 22.2062C5.25074 20.2708 3.72682 18.7456 1.79296 18.356C1.62549 18.3215 1.49915 18.1734 1.49915 17.9975C1.49926 17.8217 1.62476 17.6743 1.79211 17.6398L1.79381 17.6389C3.72897 17.2505 5.25372 15.7268 5.64316 13.793L5.64402 13.7921C5.67855 13.6248 5.82593 13.5001 6.0017 13.5Z" stroke="#1763CF" stroke-width="2"/>
<path d="M15.3588 1.50913C15.5748 1.54761 15.7512 1.71388 15.7954 1.93662L15.8602 2.23075C16.5845 5.24291 19.0087 7.5935 22.0606 8.21101L22.1538 8.2375C22.3603 8.31711 22.5 8.51685 22.5 8.74355C22.4999 9.00271 22.3169 9.22659 22.0606 9.27608L22.0597 9.27517C18.9092 9.90959 16.4249 12.3909 15.789 15.5395L15.7899 15.5404C15.7406 15.7968 15.5166 15.9796 15.2574 15.9798C14.998 15.9798 14.7742 15.7969 14.7248 15.5404C14.0904 12.3901 11.6094 9.90611 8.46048 9.26877C8.23593 9.22559 8.06778 9.04952 8.02934 8.83215L8.02021 8.73715L8.02934 8.64216C8.06232 8.45592 8.19002 8.29922 8.36731 8.23111L8.46048 8.20462C11.6125 7.56996 14.0976 5.08736 14.7321 1.93662C14.7828 1.68184 15.0055 1.5 15.2638 1.5L15.3588 1.50913Z" stroke="#1763CF" stroke-width="2"/>
</svg>
