<svg width="24" height="24" viewBox="0 0 24 24" fill="none" xmlns="http://www.w3.org/2000/svg">
<path d="M9.77341 15.4106C8.49783 14.6379 7.70231 13.2297 7.70231 11.7347V4.62075C7.70231 3.87552 7.88062 3.1623 8.2098 2.53137L4.01732 5.0688C2.73717 5.84146 1.94165 7.24962 1.94165 8.74465V15.214C1.94165 15.9409 2.13367 16.6496 2.472 17.2713C2.78746 17.7834 3.23551 18.2132 3.78872 18.5241C4.94542 19.1733 6.30787 19.1458 7.43714 18.4555L11.1038 16.2152L9.77341 15.4106ZM20.1563 12.96L16.2976 10.6512V11.6981C16.2976 13.184 15.5112 14.5922 14.2448 15.3648L7.91719 19.2373C7.22226 19.6625 6.45874 19.8865 5.69065 19.9048L9.77341 22.3782C10.4592 22.7943 11.2319 23 11.9999 23C12.768 23 13.5407 22.7943 14.2265 22.3782L19.9871 18.8898C20.1106 18.8167 20.2295 18.7344 20.3438 18.6429C20.3803 18.6201 20.4169 18.5926 20.4489 18.5698C20.7461 18.3275 21.0113 18.0531 21.2307 17.7514C21.2399 17.7377 21.249 17.724 21.2582 17.7103C21.6102 17.1662 21.8068 16.5261 21.8022 15.854C21.7976 14.6562 21.185 13.5726 20.1563 12.96ZM19.9826 5.0688L14.2265 1.58497C14.0345 1.4661 13.8333 1.37009 13.6276 1.2878C13.4035 1.19179 13.1704 1.11863 12.9372 1.07292C12.096 0.899181 11.2181 1.03634 10.4409 1.47982C9.29792 2.13361 8.6167 3.30403 8.6167 4.62075V9.00982L9.89685 8.25545C11.1953 7.49194 12.8046 7.49651 14.0985 8.26917L20.6272 12.1736C21.217 12.5302 21.7016 13.0011 22.0537 13.5543L22.0582 8.74465C22.0582 7.24962 21.2627 5.84146 19.9826 5.0688Z" fill="#1763CF"/>
</svg>
