<svg width="32" height="32" viewBox="0 0 32 32" fill="none" xmlns="http://www.w3.org/2000/svg">
<path d="M18.7 10.3C18.5168 10.4869 18.4142 10.7382 18.4142 11C18.4142 11.2618 18.5168 11.5131 18.7 11.7L20.3 13.3C20.487 13.4832 20.7383 13.5859 21 13.5859C21.2618 13.5859 21.5131 13.4832 21.7 13.3L24.806 10.195C25.126 9.873 25.669 9.975 25.789 10.413C26.0912 11.5119 26.0741 12.6741 25.7398 13.7636C25.4055 14.8531 24.7679 15.8249 23.9014 16.5652C23.035 17.3056 21.9756 17.7838 20.8473 17.9441C19.719 18.1043 18.5683 17.9399 17.53 17.47L9.62004 25.38C9.22221 25.7777 8.6827 26.0011 8.12019 26.001C7.55767 26.0009 7.01823 25.7773 6.62054 25.3795C6.22285 24.9817 5.99948 24.4422 5.99957 23.8796C5.99967 23.3171 6.22321 22.7777 6.62104 22.38L14.531 14.47C14.0612 13.4317 13.8967 12.2811 14.057 11.1527C14.2172 10.0244 14.6955 8.96505 15.4358 8.09861C16.1761 7.23218 17.1479 6.59451 18.2374 6.26022C19.327 5.92594 20.4892 5.90887 21.588 6.211C22.026 6.331 22.128 6.873 21.807 7.195L18.7 10.3Z" stroke="black" stroke-linecap="round" stroke-linejoin="round"/>
</svg>
