<svg width="24" height="24" viewBox="0 0 24 24" fill="none" xmlns="http://www.w3.org/2000/svg">
<path d="M5.33334 9.99999C5.86378 9.99999 6.37248 10.2107 6.74756 10.5858C7.12263 10.9609 7.33334 11.4696 7.33334 12C7.33334 12.5304 7.12263 13.0391 6.74756 13.4142C6.37248 13.7893 5.86378 14 5.33334 14V15.3333C5.33334 15.6869 5.47382 16.0261 5.72387 16.2761C5.97392 16.5262 6.31305 16.6667 6.66668 16.6667H17.3333C17.687 16.6667 18.0261 16.5262 18.2762 16.2761C18.5262 16.0261 18.6667 15.6869 18.6667 15.3333V14C18.1362 14 17.6275 13.7893 17.2525 13.4142C16.8774 13.0391 16.6667 12.5304 16.6667 12C16.6667 11.4696 16.8774 10.9609 17.2525 10.5858C17.6275 10.2107 18.1362 9.99999 18.6667 9.99999V8.66666C18.6667 8.31304 18.5262 7.9739 18.2762 7.72385C18.0261 7.4738 17.687 7.33333 17.3333 7.33333H6.66668C6.31305 7.33333 5.97392 7.4738 5.72387 7.72385C5.47382 7.9739 5.33334 8.31304 5.33334 8.66666V9.99999Z" stroke="black" stroke-linecap="round" stroke-linejoin="round"/>
<path d="M10 12L11.3333 13.3333L14 10.6667" stroke="black" stroke-linecap="round" stroke-linejoin="round"/>
</svg>
