<svg width="16" height="16" viewBox="0 0 16 16" fill="none" xmlns="http://www.w3.org/2000/svg">
<path d="M9.35002 5.15001C9.25841 5.24348 9.20709 5.36914 9.20709 5.50001C9.20709 5.63089 9.25841 5.75655 9.35002 5.85001L10.15 6.65001C10.2435 6.74163 10.3691 6.79294 10.5 6.79294C10.6309 6.79294 10.7566 6.74163 10.85 6.65001L12.403 5.09751C12.563 4.93651 12.8345 4.98751 12.8945 5.20651C13.0456 5.75595 13.037 6.33705 12.8699 6.88181C12.7028 7.42657 12.3839 7.91247 11.9507 8.28263C11.5175 8.6528 10.9878 8.89193 10.4236 8.97205C9.85948 9.05216 9.28416 8.96994 8.76502 8.73501L4.81002 12.69C4.61111 12.8889 4.34135 13.0005 4.06009 13.0005C3.77884 13.0005 3.50912 12.8887 3.31027 12.6898C3.11142 12.4909 2.99974 12.2211 2.99979 11.9398C2.99983 11.6586 3.11161 11.3889 3.31052 11.19L7.26552 7.23501C7.03059 6.71587 6.94837 6.14056 7.02849 5.57639C7.1086 5.01222 7.34773 4.48254 7.7179 4.04932C8.08807 3.6161 8.57396 3.29727 9.11872 3.13013C9.66349 2.96299 10.2446 2.95445 10.794 3.10551C11.013 3.16551 11.064 3.43651 10.9035 3.59751L9.35002 5.15001Z" stroke="black" stroke-linecap="round" stroke-linejoin="round"/>
</svg>
