<svg width="24" height="24" viewBox="0 0 24 24" fill="none" xmlns="http://www.w3.org/2000/svg">
<path d="M14 12L7.75136 18.2487C7.62004 18.38 7.46413 18.4842 7.29253 18.5554C7.12093 18.6265 6.93701 18.6631 6.75126 18.6631C6.37613 18.6632 6.01633 18.5142 5.75103 18.249C5.48572 17.9838 5.33664 17.624 5.33658 17.2489C5.33652 16.8738 5.48548 16.514 5.75069 16.2487L12 10" stroke="black" stroke-linecap="round" stroke-linejoin="round"/>
<path d="M16 14L18.6667 11.3333" stroke="black" stroke-linecap="round" stroke-linejoin="round"/>
<path d="M18.3333 11.6667L17.0573 10.3907C16.8073 10.1407 16.6667 9.80159 16.6667 9.448V9.21867C16.6666 8.86507 16.5261 8.52599 16.276 8.276L15.1713 7.17133C14.4214 6.42154 13.4045 6.00023 12.344 6H10L10.8287 6.82867C11.5786 7.57875 12 8.59598 12 9.65667V10.6667L13.3333 12H14.1147C14.4683 12.0001 14.8073 12.1406 15.0573 12.3907L16.3333 13.6667" stroke="black" stroke-linecap="round" stroke-linejoin="round"/>
</svg>
