<svg width="24" height="24" viewBox="0 0 24 24" fill="none" xmlns="http://www.w3.org/2000/svg">
<path d="M19.1664 10.0003C19.1662 10.2763 18.9424 10.5003 18.6664 10.5003C18.2686 10.5004 17.887 10.6585 17.6058 10.9398C17.3247 11.221 17.1664 11.6026 17.1664 12.0003C17.1664 12.398 17.3246 12.7796 17.6058 13.0609C17.887 13.3421 18.2686 13.5002 18.6664 13.5003C18.9425 13.5003 19.1664 13.7242 19.1664 14.0003V15.3333C19.1664 15.8196 18.9731 16.2854 18.6292 16.6292C18.2854 16.973 17.8196 17.1663 17.3333 17.1663H6.66635C6.18024 17.1662 5.71419 16.973 5.37045 16.6292C5.02674 16.2854 4.83334 15.8195 4.83334 15.3333V14.0003C4.83334 13.7242 5.0572 13.5003 5.33334 13.5003C5.73109 13.5003 6.1126 13.3421 6.39389 13.0609C6.67512 12.7796 6.83326 12.398 6.83334 12.0003C6.83334 11.6026 6.67509 11.2211 6.39389 10.9398C6.11259 10.6585 5.73117 10.5003 5.33334 10.5003C5.05731 10.5003 4.83352 10.2763 4.83334 10.0003V8.66634C4.83343 8.18022 5.02671 7.71418 5.37045 7.37044C5.71419 7.0267 6.18024 6.83341 6.66635 6.83333H17.3333C17.8195 6.83333 18.2854 7.02672 18.6292 7.37044C18.973 7.71418 19.1663 8.18022 19.1664 8.66634V10.0003Z" fill="black"/>
<path d="M10 12L11.3333 13.3333L14 10.6667" stroke="white" stroke-linecap="round" stroke-linejoin="round"/>
</svg>
