<svg width="24" height="24" viewBox="0 0 24 24" fill="none" xmlns="http://www.w3.org/2000/svg">
<path d="M13.8 8.2C13.6779 8.32462 13.6094 8.49216 13.6094 8.66667C13.6094 8.84117 13.6779 9.00871 13.8 9.13333L14.8667 10.2C14.9913 10.3222 15.1588 10.3906 15.3334 10.3906C15.5079 10.3906 15.6754 10.3222 15.8 10.2L17.8707 8.13C18.084 7.91533 18.446 7.98333 18.526 8.27533C18.7274 9.00792 18.7161 9.78271 18.4932 10.5091C18.2703 11.2354 17.8452 11.8833 17.2676 12.3768C16.69 12.8704 15.9837 13.1892 15.2315 13.296C14.4793 13.4029 13.7122 13.2932 13.02 12.98L7.74668 18.2533C7.48147 18.5185 7.12179 18.6674 6.74678 18.6673C6.37177 18.6672 6.01214 18.5182 5.74702 18.253C5.48189 17.9878 5.33298 17.6281 5.33304 17.2531C5.3331 16.8781 5.48213 16.5185 5.74735 16.2533L11.0207 10.98C10.7074 10.2878 10.5978 9.52072 10.7046 8.7685C10.8115 8.01628 11.1303 7.31003 11.6239 6.73241C12.1174 6.15479 12.7653 5.72967 13.4916 5.50682C14.218 5.28396 14.9928 5.27258 15.7253 5.474C16.0173 5.554 16.0853 5.91533 15.8713 6.13L13.8 8.2Z" stroke="black" stroke-linecap="round" stroke-linejoin="round"/>
</svg>
