<svg width="32" height="32" viewBox="0 0 32 32" fill="none" xmlns="http://www.w3.org/2000/svg">
<path d="M15.525 6.295C15.5688 6.20646 15.6365 6.13193 15.7205 6.07983C15.8044 6.02772 15.9012 6.00011 16 6.00011C16.0988 6.00011 16.1956 6.02772 16.2795 6.07983C16.3635 6.13193 16.4312 6.20646 16.475 6.295L18.785 10.974C18.9372 11.282 19.1618 11.5484 19.4396 11.7505C19.7174 11.9525 20.0401 12.0841 20.38 12.134L25.546 12.89C25.6439 12.9042 25.7358 12.9455 25.8115 13.0092C25.8871 13.0729 25.9434 13.1565 25.974 13.2506C26.0046 13.3447 26.0083 13.4454 25.9846 13.5414C25.9609 13.6375 25.9108 13.725 25.84 13.794L22.104 17.432C21.8576 17.6721 21.6733 17.9685 21.5668 18.2956C21.4604 18.6228 21.4351 18.9709 21.493 19.31L22.375 24.45C22.3923 24.5478 22.3817 24.6486 22.3445 24.7407C22.3073 24.8328 22.2449 24.9126 22.1645 24.971C22.0842 25.0294 21.989 25.064 21.8899 25.0709C21.7908 25.0778 21.6917 25.0567 21.604 25.01L16.986 22.582C16.6817 22.4222 16.3432 22.3388 15.9995 22.3388C15.6558 22.3388 15.3173 22.4222 15.013 22.582L10.396 25.01C10.3083 25.0564 10.2094 25.0773 10.1105 25.0703C10.0115 25.0632 9.91652 25.0286 9.83629 24.9702C9.75607 24.9119 9.69383 24.8322 9.65666 24.7402C9.61948 24.6483 9.60886 24.5477 9.626 24.45L10.507 19.311C10.5652 18.9717 10.54 18.6234 10.4335 18.296C10.3271 17.9687 10.1426 17.6722 9.896 17.432L6.16 13.795C6.08859 13.726 6.03799 13.6384 6.01396 13.5421C5.98993 13.4458 5.99344 13.3446 6.02408 13.2502C6.05472 13.1558 6.11127 13.0718 6.18728 13.008C6.26329 12.9441 6.3557 12.9029 6.454 12.889L11.619 12.134C11.9593 12.0845 12.2824 11.9531 12.5606 11.751C12.8388 11.5489 13.0637 11.2823 13.216 10.974L15.525 6.295Z" stroke="black" stroke-linecap="round" stroke-linejoin="round"/>
</svg>
