<svg width="48" height="48" viewBox="0 0 48 48" fill="none" xmlns="http://www.w3.org/2000/svg">
<path d="M29.0001 24L13.3784 39.6217C13.0501 39.9501 12.6603 40.2106 12.2313 40.3884C11.8024 40.5662 11.3425 40.6577 10.8782 40.6578C9.94034 40.6579 9.04085 40.2855 8.37758 39.6225C7.71432 38.9595 7.34162 38.0601 7.34146 37.1223C7.3413 36.1844 7.71371 35.2849 8.37675 34.6217L24.0001 19" stroke="black" stroke-linecap="round" stroke-linejoin="round"/>
<path d="M34 29L40.6667 22.3333" stroke="black" stroke-linecap="round" stroke-linejoin="round"/>
<path d="M39.8333 23.1667L36.6433 19.9767C36.0182 19.3517 35.6669 18.504 35.6667 17.62V17.0467C35.6665 16.1627 35.3152 15.315 34.69 14.69L31.9283 11.9283C30.0535 10.0539 27.5111 9.00057 24.86 9H19L21.0717 11.0717C22.9465 12.9469 23.9999 15.49 24 18.1417V20.6667L27.3333 24H29.2867C30.1706 24.0002 31.0184 24.3515 31.6433 24.9767L34.8333 28.1667" stroke="black" stroke-linecap="round" stroke-linejoin="round"/>
</svg>
