<svg width="24" height="24" viewBox="0 0 24 24" fill="none" xmlns="http://www.w3.org/2000/svg">
<path d="M15.109 1.01009C15.3477 1.0526 15.5426 1.23634 15.5915 1.48246L15.6631 1.80747C16.4635 5.13587 19.1421 7.73325 22.5145 8.41559L22.6175 8.44487C22.8456 8.53283 23 8.75354 23 9.00404C22.9999 9.2904 22.7976 9.53779 22.5145 9.59248L22.5135 9.59147C19.0323 10.2925 16.2871 13.0343 15.5844 16.5135L15.5854 16.5145C15.5309 16.7978 15.2834 16.9998 14.997 17C14.7104 17 14.4631 16.7979 14.4085 16.5145C13.7075 13.0334 10.9661 10.2887 7.4865 9.58441C7.23837 9.53669 7.05257 9.34214 7.01009 9.10194L7 8.99697L7.01009 8.892C7.04653 8.68621 7.18764 8.51305 7.38355 8.4378L7.4865 8.40853C10.9694 7.70723 13.7155 4.96399 14.4166 1.48246C14.4726 1.20093 14.7187 1 15.004 1L15.109 1.01009Z" fill="url(#paint0_linear_1208_893)"/>
<path d="M6.00237 13C6.1733 13.0002 6.32121 13.1062 6.38083 13.2574L6.4007 13.3246V13.3265C6.83152 15.4739 8.52062 17.166 10.6651 17.6016C10.668 17.6021 10.6716 17.602 10.6745 17.6026C10.8604 17.6411 11 17.8056 11 18.0009C10.9998 18.1961 10.8602 18.3599 10.6745 18.3984C8.52405 18.8312 6.82878 20.5247 6.39597 22.6735C6.35769 22.8595 6.1929 22.9998 5.99764 23C5.80232 22.9999 5.63857 22.8604 5.60025 22.6745L5.5993 22.6735C5.16805 20.5231 3.47496 18.8285 1.32643 18.3955C1.14037 18.3572 1 18.1926 1 17.9972C1.00013 17.8018 1.13955 17.6381 1.32548 17.5997L1.32737 17.5988C3.47735 17.1672 5.17135 15.4742 5.60403 13.3255L5.60498 13.3246C5.64335 13.1387 5.80708 13.0001 6.00237 13Z" fill="url(#paint1_linear_1208_893)"/>
<defs>
<linearGradient id="paint0_linear_1208_893" x1="15" y1="1" x2="15" y2="17" gradientUnits="userSpaceOnUse">
<stop offset="0.2" stop-color="#3849E0"/>
<stop offset="1" stop-color="#FC2DF1"/>
</linearGradient>
<linearGradient id="paint1_linear_1208_893" x1="6" y1="13" x2="6" y2="23" gradientUnits="userSpaceOnUse">
<stop offset="0.2" stop-color="#3849E0"/>
<stop offset="1" stop-color="#FC2DF1"/>
</linearGradient>
</defs>
</svg>
